%TF.GenerationSoftware,KiCad,Pcbnew,9.0.7-9.0.7~ubuntu24.04.1*%
%TF.CreationDate,2026-01-07T15:42:35+05:30*%
%TF.ProjectId,RPI_Cam3_RL,5250495f-4361-46d3-935f-524c2e6b6963,rev?*%
%TF.SameCoordinates,Original*%
%TF.FileFunction,Copper,L1,Top*%
%TF.FilePolarity,Positive*%
%FSLAX46Y46*%
G04 Gerber Fmt 4.6, Leading zero omitted, Abs format (unit mm)*
G04 Created by KiCad (PCBNEW 9.0.7-9.0.7~ubuntu24.04.1) date 2026-01-07 15:42:35*
%MOMM*%
%LPD*%
G01*
G04 APERTURE LIST*
G04 Aperture macros list*
%AMRoundRect*
0 Rectangle with rounded corners*
0 $1 Rounding radius*
0 $2 $3 $4 $5 $6 $7 $8 $9 X,Y pos of 4 corners*
0 Add a 4 corners polygon primitive as box body*
4,1,4,$2,$3,$4,$5,$6,$7,$8,$9,$2,$3,0*
0 Add four circle primitives for the rounded corners*
1,1,$1+$1,$2,$3*
1,1,$1+$1,$4,$5*
1,1,$1+$1,$6,$7*
1,1,$1+$1,$8,$9*
0 Add four rect primitives between the rounded corners*
20,1,$1+$1,$2,$3,$4,$5,0*
20,1,$1+$1,$4,$5,$6,$7,0*
20,1,$1+$1,$6,$7,$8,$9,0*
20,1,$1+$1,$8,$9,$2,$3,0*%
%AMRotRect*
0 Rectangle, with rotation*
0 The origin of the aperture is its center*
0 $1 length*
0 $2 width*
0 $3 Rotation angle, in degrees counterclockwise*
0 Add horizontal line*
21,1,$1,$2,0,0,$3*%
G04 Aperture macros list end*
%TA.AperFunction,SMDPad,CuDef*%
%ADD10RoundRect,0.250000X-0.350000X-0.450000X0.350000X-0.450000X0.350000X0.450000X-0.350000X0.450000X0*%
%TD*%
%TA.AperFunction,SMDPad,CuDef*%
%ADD11RoundRect,0.250000X0.450000X-0.350000X0.450000X0.350000X-0.450000X0.350000X-0.450000X-0.350000X0*%
%TD*%
%TA.AperFunction,SMDPad,CuDef*%
%ADD12RoundRect,0.250000X0.078109X0.564711X-0.528109X0.214711X-0.078109X-0.564711X0.528109X-0.214711X0*%
%TD*%
%TA.AperFunction,SMDPad,CuDef*%
%ADD13R,2.200000X2.500000*%
%TD*%
%TA.AperFunction,SMDPad,CuDef*%
%ADD14R,2.200000X1.550000*%
%TD*%
%TA.AperFunction,SMDPad,CuDef*%
%ADD15RotRect,2.500000X2.200000X300.000000*%
%TD*%
%TA.AperFunction,SMDPad,CuDef*%
%ADD16RotRect,1.550000X2.200000X300.000000*%
%TD*%
%TA.AperFunction,SMDPad,CuDef*%
%ADD17RoundRect,0.250000X0.350000X0.450000X-0.350000X0.450000X-0.350000X-0.450000X0.350000X-0.450000X0*%
%TD*%
%TA.AperFunction,SMDPad,CuDef*%
%ADD18RotRect,2.500000X2.200000X60.000000*%
%TD*%
%TA.AperFunction,SMDPad,CuDef*%
%ADD19RotRect,1.550000X2.200000X60.000000*%
%TD*%
%TA.AperFunction,SMDPad,CuDef*%
%ADD20RoundRect,0.250000X0.528109X0.214711X-0.078109X0.564711X-0.528109X-0.214711X0.078109X-0.564711X0*%
%TD*%
%TA.AperFunction,SMDPad,CuDef*%
%ADD21RoundRect,0.250000X-0.528109X-0.214711X0.078109X-0.564711X0.528109X0.214711X-0.078109X0.564711X0*%
%TD*%
%TA.AperFunction,SMDPad,CuDef*%
%ADD22R,2.500000X2.200000*%
%TD*%
%TA.AperFunction,SMDPad,CuDef*%
%ADD23R,1.550000X2.200000*%
%TD*%
%TA.AperFunction,SMDPad,CuDef*%
%ADD24RoundRect,0.250000X-0.214711X0.528109X-0.564711X-0.078109X0.214711X-0.528109X0.564711X0.078109X0*%
%TD*%
%TA.AperFunction,SMDPad,CuDef*%
%ADD25RoundRect,0.250000X-0.564711X0.078109X-0.214711X-0.528109X0.564711X-0.078109X0.214711X0.528109X0*%
%TD*%
%TA.AperFunction,SMDPad,CuDef*%
%ADD26RotRect,2.500000X2.200000X330.000000*%
%TD*%
%TA.AperFunction,SMDPad,CuDef*%
%ADD27RotRect,1.550000X2.200000X330.000000*%
%TD*%
%TA.AperFunction,SMDPad,CuDef*%
%ADD28RotRect,2.500000X2.200000X240.000000*%
%TD*%
%TA.AperFunction,SMDPad,CuDef*%
%ADD29RotRect,1.550000X2.200000X240.000000*%
%TD*%
%TA.AperFunction,SMDPad,CuDef*%
%ADD30RoundRect,0.250000X-0.450000X0.350000X-0.450000X-0.350000X0.450000X-0.350000X0.450000X0.350000X0*%
%TD*%
%TA.AperFunction,SMDPad,CuDef*%
%ADD31RoundRect,0.250000X-0.078109X-0.564711X0.528109X-0.214711X0.078109X0.564711X-0.528109X0.214711X0*%
%TD*%
%TA.AperFunction,SMDPad,CuDef*%
%ADD32RotRect,2.500000X2.200000X30.000000*%
%TD*%
%TA.AperFunction,SMDPad,CuDef*%
%ADD33RotRect,1.550000X2.200000X30.000000*%
%TD*%
%TA.AperFunction,SMDPad,CuDef*%
%ADD34RotRect,2.500000X2.200000X210.000000*%
%TD*%
%TA.AperFunction,SMDPad,CuDef*%
%ADD35RotRect,1.550000X2.200000X210.000000*%
%TD*%
%TA.AperFunction,SMDPad,CuDef*%
%ADD36RoundRect,0.250000X0.214711X-0.528109X0.564711X0.078109X-0.214711X0.528109X-0.564711X-0.078109X0*%
%TD*%
%TA.AperFunction,SMDPad,CuDef*%
%ADD37RotRect,2.500000X2.200000X150.000000*%
%TD*%
%TA.AperFunction,SMDPad,CuDef*%
%ADD38RotRect,1.550000X2.200000X150.000000*%
%TD*%
%TA.AperFunction,SMDPad,CuDef*%
%ADD39RoundRect,0.250000X0.564711X-0.078109X0.214711X0.528109X-0.564711X0.078109X-0.214711X-0.528109X0*%
%TD*%
%TA.AperFunction,SMDPad,CuDef*%
%ADD40RotRect,2.500000X2.200000X120.000000*%
%TD*%
%TA.AperFunction,SMDPad,CuDef*%
%ADD41RotRect,1.550000X2.200000X120.000000*%
%TD*%
%TA.AperFunction,ComponentPad*%
%ADD42RoundRect,0.250000X-0.600000X-0.725000X0.600000X-0.725000X0.600000X0.725000X-0.600000X0.725000X0*%
%TD*%
%TA.AperFunction,ComponentPad*%
%ADD43O,1.700000X1.950000*%
%TD*%
%TA.AperFunction,ViaPad*%
%ADD44C,1.500000*%
%TD*%
%TA.AperFunction,ViaPad*%
%ADD45C,0.800000*%
%TD*%
%TA.AperFunction,Conductor*%
%ADD46C,0.500000*%
%TD*%
%TA.AperFunction,Conductor*%
%ADD47C,0.300000*%
%TD*%
G04 APERTURE END LIST*
D10*
%TO.P,R1,1*%
%TO.N,Net-(Q1-S)*%
X203796512Y-57000000D03*
%TO.P,R1,2*%
%TO.N,Net-(D1-A)*%
X205796512Y-57000000D03*
%TD*%
D11*
%TO.P,R10,1*%
%TO.N,Net-(Q1-S)*%
X170796512Y-92000000D03*
%TO.P,R10,2*%
%TO.N,Net-(D10-A)*%
X170796512Y-90000000D03*
%TD*%
D12*
%TO.P,R6,1*%
%TO.N,Net-(Q1-S)*%
X222662537Y-119944863D03*
%TO.P,R6,2*%
%TO.N,Net-(D6-A)*%
X220930487Y-120944863D03*
%TD*%
D13*
%TO.P,D4,1,K*%
%TO.N,GND*%
X235171833Y-89746477D03*
D14*
%TO.P,D4,2,A*%
%TO.N,Net-(D4-A)*%
X235171833Y-92321477D03*
%TD*%
D15*
%TO.P,D3,1,K*%
%TO.N,GND*%
X230627595Y-74887150D03*
D16*
%TO.P,D3,2,A*%
%TO.N,Net-(D3-A)*%
X231915095Y-77117166D03*
%TD*%
D17*
%TO.P,R7,1*%
%TO.N,Net-(Q1-S)*%
X205796512Y-125000000D03*
%TO.P,R7,2*%
%TO.N,Net-(D7-A)*%
X203796512Y-125000000D03*
%TD*%
D18*
%TO.P,D11,1,K*%
%TO.N,GND*%
X178666070Y-76705804D03*
D19*
%TO.P,D11,2,A*%
%TO.N,Net-(D11-A)*%
X179953570Y-74475788D03*
%TD*%
D20*
%TO.P,R8,1*%
%TO.N,Net-(Q1-S)*%
X188662537Y-120944863D03*
%TO.P,R8,2*%
%TO.N,Net-(D8-A)*%
X186930487Y-119944863D03*
%TD*%
D21*
%TO.P,R2,1*%
%TO.N,Net-(Q1-S)*%
X220930487Y-61055136D03*
%TO.P,R2,2*%
%TO.N,Net-(D2-A)*%
X222662537Y-62055136D03*
%TD*%
D22*
%TO.P,D1,1,K*%
%TO.N,GND*%
X204121833Y-60796477D03*
D23*
%TO.P,D1,2,A*%
%TO.N,Net-(D1-A)*%
X206696833Y-60796477D03*
%TD*%
D24*
%TO.P,R5,1*%
%TO.N,Net-(Q1-S)*%
X234741375Y-107133975D03*
%TO.P,R5,2*%
%TO.N,Net-(D5-A)*%
X233741375Y-108866025D03*
%TD*%
D25*
%TO.P,R3,1*%
%TO.N,Net-(Q1-S)*%
X233741375Y-73133975D03*
%TO.P,R3,2*%
%TO.N,Net-(D3-A)*%
X234741375Y-74866025D03*
%TD*%
D22*
%TO.P,D7,1,K*%
%TO.N,GND*%
X206221833Y-120796477D03*
D23*
%TO.P,D7,2,A*%
%TO.N,Net-(D7-A)*%
X203646833Y-120796477D03*
%TD*%
D26*
%TO.P,D2,1,K*%
%TO.N,GND*%
X219262506Y-64290714D03*
D27*
%TO.P,D2,2,A*%
%TO.N,Net-(D2-A)*%
X221492522Y-65578214D03*
%TD*%
D28*
%TO.P,D5,1,K*%
%TO.N,GND*%
X231677595Y-104887150D03*
D29*
%TO.P,D5,2,A*%
%TO.N,Net-(D5-A)*%
X230390095Y-107117166D03*
%TD*%
D30*
%TO.P,R4,1*%
%TO.N,Net-(Q1-S)*%
X238796512Y-90000000D03*
%TO.P,R4,2*%
%TO.N,Net-(D4-A)*%
X238796512Y-92000000D03*
%TD*%
D31*
%TO.P,R12,1*%
%TO.N,Net-(Q1-S)*%
X186930486Y-62055136D03*
%TO.P,R12,2*%
%TO.N,Net-(D12-A)*%
X188662536Y-61055136D03*
%TD*%
D32*
%TO.P,D12,1,K*%
%TO.N,GND*%
X189262505Y-65340714D03*
D33*
%TO.P,D12,2,A*%
%TO.N,Net-(D12-A)*%
X191492521Y-64053214D03*
%TD*%
D34*
%TO.P,D6,1,K*%
%TO.N,GND*%
X221081160Y-116252239D03*
D35*
%TO.P,D6,2,A*%
%TO.N,Net-(D6-A)*%
X218851144Y-117539739D03*
%TD*%
D36*
%TO.P,R11,1*%
%TO.N,Net-(Q1-S)*%
X174851648Y-74866025D03*
%TO.P,R11,2*%
%TO.N,Net-(D11-A)*%
X175851648Y-73133975D03*
%TD*%
D37*
%TO.P,D8,1,K*%
%TO.N,GND*%
X191081160Y-117302239D03*
D38*
%TO.P,D8,2,A*%
%TO.N,Net-(D8-A)*%
X188851144Y-116014739D03*
%TD*%
D39*
%TO.P,R9,1*%
%TO.N,Net-(Q1-S)*%
X175851648Y-108866025D03*
%TO.P,R9,2*%
%TO.N,Net-(D9-A)*%
X174851648Y-107133975D03*
%TD*%
D13*
%TO.P,D10,1,K*%
%TO.N,GND*%
X175171833Y-91846477D03*
D14*
%TO.P,D10,2,A*%
%TO.N,Net-(D10-A)*%
X175171833Y-89271477D03*
%TD*%
D40*
%TO.P,D9,1,K*%
%TO.N,GND*%
X179716070Y-106705804D03*
D41*
%TO.P,D9,2,A*%
%TO.N,Net-(D9-A)*%
X178428570Y-104475788D03*
%TD*%
D42*
%TO.P,J1,1,Pin_1*%
%TO.N,+5V*%
X202600000Y-116400000D03*
D43*
%TO.P,J1,2,Pin_2*%
%TO.N,/EN*%
X205100000Y-116400000D03*
%TO.P,J1,3,Pin_3*%
%TO.N,GND*%
X207600000Y-116400000D03*
%TD*%
D44*
%TO.N,GND*%
X194000000Y-119000000D03*
X230627595Y-74887150D03*
X216000000Y-63000000D03*
X233500000Y-101500000D03*
X234000000Y-84500000D03*
X201000000Y-61500000D03*
X206221833Y-120796477D03*
X179716070Y-106705804D03*
X199000000Y-62000000D03*
X191081160Y-117302239D03*
X196000000Y-120000000D03*
X178666070Y-76705804D03*
X204121833Y-60796477D03*
X177000000Y-80000000D03*
X176000000Y-97500000D03*
X214000000Y-62500000D03*
X176500000Y-82000000D03*
X189262505Y-65340714D03*
X219262506Y-64290714D03*
X234000000Y-99500000D03*
X234500000Y-86500000D03*
X235171833Y-89746477D03*
X221081160Y-116252239D03*
X175500000Y-95500000D03*
X175171833Y-91846477D03*
X231677595Y-104887150D03*
D45*
%TO.N,/EN*%
X212480000Y-117400000D03*
D44*
%TO.N,Net-(Q1-S)*%
X173000000Y-79500000D03*
X233000000Y-71000000D03*
X173500000Y-77500000D03*
X184900000Y-63300000D03*
X225000000Y-119000000D03*
X191000000Y-122500000D03*
X238500000Y-85500000D03*
X201000000Y-57000000D03*
X226500000Y-117500000D03*
X171500000Y-97000000D03*
X231500000Y-69500000D03*
X177000000Y-111000000D03*
X210500000Y-124500000D03*
X193000000Y-123000000D03*
X217000000Y-59000000D03*
X183400000Y-64700000D03*
X178500000Y-112500000D03*
X208500000Y-125000000D03*
X171000000Y-95000000D03*
X237000000Y-103000000D03*
X236500000Y-105000000D03*
X219000000Y-59500000D03*
X239000000Y-87500000D03*
X199000000Y-57500000D03*
%TD*%
D46*
%TO.N,Net-(D1-A)*%
X205796512Y-57000000D02*
X206696833Y-57900321D01*
X206696833Y-57900321D02*
X206696833Y-60796477D01*
%TO.N,Net-(D2-A)*%
X222662537Y-63337463D02*
X221492522Y-64507478D01*
X222662537Y-62055136D02*
X222662537Y-63337463D01*
X221492522Y-64507478D02*
X221492522Y-65578214D01*
%TO.N,Net-(D3-A)*%
X234166236Y-74866025D02*
X231915095Y-77117166D01*
X234741375Y-74866025D02*
X234166236Y-74866025D01*
%TO.N,Net-(D4-A)*%
X235493310Y-92000000D02*
X235171833Y-92321477D01*
X238796512Y-92000000D02*
X235493310Y-92000000D01*
%TO.N,Net-(D5-A)*%
X233741375Y-108866025D02*
X232138954Y-108866025D01*
X232138954Y-108866025D02*
X230390095Y-107117166D01*
%TO.N,Net-(D6-A)*%
X220930487Y-119619082D02*
X218851144Y-117539739D01*
X220930487Y-120944863D02*
X220930487Y-119619082D01*
%TO.N,Net-(D7-A)*%
X203796512Y-125000000D02*
X203796512Y-120946156D01*
X203796512Y-120946156D02*
X203646833Y-120796477D01*
%TO.N,Net-(D8-A)*%
X186930487Y-119944863D02*
X186930487Y-117935396D01*
X186930487Y-117935396D02*
X188851144Y-116014739D01*
%TO.N,Net-(D9-A)*%
X175770383Y-107133975D02*
X178428570Y-104475788D01*
X174851648Y-107133975D02*
X175770383Y-107133975D01*
%TO.N,Net-(D10-A)*%
X174443310Y-90000000D02*
X175171833Y-89271477D01*
X170796512Y-90000000D02*
X174443310Y-90000000D01*
%TO.N,Net-(D11-A)*%
X178611757Y-73133975D02*
X179953570Y-74475788D01*
X175851648Y-73133975D02*
X178611757Y-73133975D01*
%TO.N,Net-(D12-A)*%
X188662536Y-61055136D02*
X188662536Y-61223229D01*
X188662536Y-61223229D02*
X191492521Y-64053214D01*
D47*
%TO.N,/EN*%
X205490000Y-114000000D02*
X209900000Y-114000000D01*
X209900000Y-114000000D02*
X210300000Y-114400000D01*
X210300000Y-116900000D02*
X210310000Y-116910000D01*
X210990000Y-117400000D02*
X212480000Y-117400000D01*
X210310000Y-116910000D02*
X210800000Y-117400000D01*
X210300000Y-114400000D02*
X210300000Y-116900000D01*
X205100000Y-116400000D02*
X205100000Y-114390000D01*
X210800000Y-117400000D02*
X210990000Y-117400000D01*
X205100000Y-114390000D02*
X205490000Y-114000000D01*
%TD*%
%TA.AperFunction,Conductor*%
%TO.N,GND*%
G36*
X202426950Y-59218444D02*
G01*
X202476746Y-59267455D01*
X202492139Y-59335608D01*
X202468243Y-59401264D01*
X202467656Y-59402054D01*
X202428482Y-59454384D01*
X202428478Y-59454390D01*
X202378236Y-59589097D01*
X202378234Y-59589104D01*
X202371833Y-59648632D01*
X202371833Y-60296477D01*
X203997833Y-60296477D01*
X204064872Y-60316162D01*
X204110627Y-60368966D01*
X204121833Y-60420477D01*
X204121833Y-60796477D01*
X204497833Y-60796477D01*
X204564872Y-60816162D01*
X204610627Y-60868966D01*
X204621833Y-60920477D01*
X204621833Y-62396477D01*
X205419661Y-62396477D01*
X205419677Y-62396476D01*
X205479205Y-62390075D01*
X205479209Y-62390074D01*
X205602784Y-62343983D01*
X205672476Y-62338999D01*
X205689438Y-62343978D01*
X205814350Y-62390568D01*
X205873960Y-62396977D01*
X207519705Y-62396976D01*
X207579316Y-62390568D01*
X207714164Y-62340273D01*
X207829379Y-62254023D01*
X207915629Y-62138808D01*
X207965924Y-62003960D01*
X207972333Y-61944350D01*
X207972332Y-59648605D01*
X207965924Y-59588994D01*
X207942943Y-59527380D01*
X207915630Y-59454148D01*
X207915628Y-59454145D01*
X207911151Y-59448164D01*
X207892853Y-59423722D01*
X207868436Y-59358259D01*
X207883287Y-59289986D01*
X207932691Y-59240580D01*
X208000964Y-59225727D01*
X208003895Y-59225971D01*
X208326602Y-59256786D01*
X208328537Y-59256986D01*
X208826860Y-59312562D01*
X208828717Y-59312785D01*
X209326110Y-59376261D01*
X209327881Y-59376501D01*
X209824304Y-59447876D01*
X209826216Y-59448167D01*
X210321264Y-59527380D01*
X210323150Y-59527697D01*
X210816997Y-59614775D01*
X210818784Y-59615105D01*
X211311228Y-59710016D01*
X211313041Y-59710381D01*
X211803822Y-59813073D01*
X211805670Y-59813475D01*
X212294749Y-59923938D01*
X212296624Y-59924377D01*
X212783898Y-60042588D01*
X212785800Y-60043065D01*
X213271158Y-60168999D01*
X213272982Y-60169488D01*
X213756216Y-60303087D01*
X213758062Y-60303613D01*
X213800798Y-60316162D01*
X214239134Y-60444869D01*
X214241017Y-60445438D01*
X214719854Y-60594329D01*
X214721551Y-60594872D01*
X215198027Y-60751361D01*
X215199763Y-60751947D01*
X215673677Y-60915971D01*
X215675400Y-60916582D01*
X216146661Y-61088107D01*
X216148352Y-61088738D01*
X216563452Y-61247324D01*
X216616719Y-61267675D01*
X216618551Y-61268391D01*
X217084106Y-61454771D01*
X217085778Y-61455456D01*
X217460837Y-61612557D01*
X217548308Y-61649196D01*
X217550116Y-61649971D01*
X218009342Y-61850949D01*
X218011138Y-61851752D01*
X218462725Y-62057985D01*
X218515529Y-62103740D01*
X218535214Y-62170779D01*
X218515529Y-62237818D01*
X218473086Y-62274594D01*
X218474637Y-62277138D01*
X218467067Y-62281751D01*
X218356195Y-62373295D01*
X218356193Y-62373298D01*
X218320881Y-62421658D01*
X218320871Y-62421672D01*
X217996961Y-62982700D01*
X217996961Y-62982701D01*
X219405119Y-63795701D01*
X219453335Y-63846268D01*
X219466558Y-63914875D01*
X219450506Y-63965088D01*
X219262506Y-64290713D01*
X219262506Y-64290714D01*
X219588131Y-64478714D01*
X219636347Y-64529281D01*
X219649570Y-64597888D01*
X219633518Y-64648101D01*
X218895518Y-65926354D01*
X218895518Y-65926355D01*
X219586450Y-66325265D01*
X219641227Y-66349497D01*
X219641233Y-66349499D01*
X219771295Y-66371370D01*
X219834142Y-66401899D01*
X219846348Y-66414699D01*
X219931224Y-66517496D01*
X219931226Y-66517498D01*
X219979634Y-66552845D01*
X219979649Y-66552855D01*
X220785590Y-67018164D01*
X221404901Y-67375723D01*
X221404903Y-67375724D01*
X221404905Y-67375725D01*
X221420934Y-67382816D01*
X221459729Y-67399979D01*
X221601658Y-67423846D01*
X221744563Y-67406759D01*
X221760399Y-67399978D01*
X221788409Y-67387983D01*
X221876865Y-67350105D01*
X221987846Y-67258470D01*
X222023201Y-67210051D01*
X223171073Y-65221877D01*
X223195329Y-65167049D01*
X223219196Y-65025119D01*
X223219195Y-65025118D01*
X223220392Y-65018006D01*
X223250921Y-64955159D01*
X223310581Y-64918794D01*
X223380431Y-64920457D01*
X223414602Y-64937562D01*
X223665963Y-65116556D01*
X223667557Y-65117709D01*
X224071362Y-65415024D01*
X224072918Y-65416190D01*
X224471890Y-65719823D01*
X224473352Y-65720955D01*
X224867577Y-66030976D01*
X224869008Y-66032121D01*
X225229839Y-66325265D01*
X225258147Y-66348263D01*
X225259642Y-66349497D01*
X225643790Y-66671834D01*
X225645257Y-66673086D01*
X226024149Y-67001399D01*
X226025619Y-67002694D01*
X226034970Y-67011059D01*
X226071811Y-67070426D01*
X226070707Y-67140287D01*
X226032009Y-67198461D01*
X225968003Y-67226478D01*
X225940143Y-67226880D01*
X225729619Y-67206145D01*
X225662143Y-67199500D01*
X225337857Y-67199500D01*
X225265099Y-67206666D01*
X225015142Y-67231284D01*
X225015125Y-67231287D01*
X224697097Y-67294545D01*
X224697086Y-67294548D01*
X224386752Y-67388686D01*
X224087150Y-67512786D01*
X224087145Y-67512788D01*
X223801169Y-67665646D01*
X223801151Y-67665657D01*
X223531532Y-67845811D01*
X223531518Y-67845821D01*
X223280841Y-68051546D01*
X223051546Y-68280841D01*
X222845821Y-68531518D01*
X222845811Y-68531532D01*
X222665657Y-68801151D01*
X222665646Y-68801169D01*
X222512788Y-69087145D01*
X222512786Y-69087150D01*
X222388686Y-69386752D01*
X222294548Y-69697086D01*
X222294545Y-69697097D01*
X222231287Y-70015125D01*
X222231284Y-70015142D01*
X222199500Y-70337860D01*
X222199500Y-70662139D01*
X222231284Y-70984857D01*
X222231287Y-70984874D01*
X222294545Y-71302902D01*
X222294548Y-71302913D01*
X222388686Y-71613247D01*
X222512786Y-71912849D01*
X222512788Y-71912854D01*
X222665646Y-72198830D01*
X222665657Y-72198848D01*
X222845811Y-72468467D01*
X222845821Y-72468481D01*
X223051546Y-72719158D01*
X223280841Y-72948453D01*
X223280846Y-72948457D01*
X223280847Y-72948458D01*
X223531524Y-73154183D01*
X223801158Y-73334347D01*
X223801167Y-73334352D01*
X223801169Y-73334353D01*
X224087145Y-73487211D01*
X224087147Y-73487211D01*
X224087153Y-73487215D01*
X224386754Y-73611314D01*
X224697077Y-73705449D01*
X224697083Y-73705450D01*
X224697086Y-73705451D01*
X224697097Y-73705454D01*
X224896528Y-73745122D01*
X225015132Y-73768714D01*
X225337857Y-73800500D01*
X225337860Y-73800500D01*
X225662140Y-73800500D01*
X225662143Y-73800500D01*
X225984868Y-73768714D01*
X226142295Y-73737399D01*
X226302902Y-73705454D01*
X226302913Y-73705451D01*
X226302913Y-73705450D01*
X226302923Y-73705449D01*
X226613246Y-73611314D01*
X226912847Y-73487215D01*
X227198842Y-73334347D01*
X227468476Y-73154183D01*
X227719153Y-72948458D01*
X227948458Y-72719153D01*
X228154183Y-72468476D01*
X228334347Y-72198842D01*
X228487215Y-71912847D01*
X228611314Y-71613246D01*
X228705449Y-71302923D01*
X228705451Y-71302913D01*
X228705454Y-71302902D01*
X228746128Y-71098417D01*
X228768714Y-70984868D01*
X228800500Y-70662143D01*
X228800500Y-70337857D01*
X228775272Y-70081719D01*
X228788291Y-70013076D01*
X228836356Y-69962366D01*
X228904206Y-69945691D01*
X228970301Y-69968347D01*
X228992388Y-69988365D01*
X229199142Y-70226971D01*
X229200402Y-70228449D01*
X229432729Y-70505325D01*
X229522713Y-70612564D01*
X229523965Y-70614081D01*
X229840064Y-71003166D01*
X229841293Y-71004703D01*
X230151238Y-71398830D01*
X230152442Y-71400387D01*
X230456025Y-71799292D01*
X230457204Y-71800866D01*
X230754519Y-72204671D01*
X230755672Y-72206265D01*
X231006366Y-72558314D01*
X231029219Y-72624341D01*
X231012746Y-72692241D01*
X230962179Y-72740456D01*
X230925922Y-72752524D01*
X230801418Y-72773460D01*
X230746638Y-72797694D01*
X230185608Y-73121604D01*
X230185608Y-73121605D01*
X230998608Y-74529762D01*
X231015081Y-74597662D01*
X230992228Y-74663689D01*
X230953221Y-74699149D01*
X230627595Y-74887149D01*
X230627595Y-74887150D01*
X230815595Y-75212775D01*
X230832068Y-75280675D01*
X230809215Y-75346702D01*
X230770208Y-75382162D01*
X229491954Y-76120162D01*
X229491954Y-76120163D01*
X229890865Y-76811097D01*
X229926188Y-76859471D01*
X229926190Y-76859473D01*
X230027889Y-76943443D01*
X230067052Y-77001305D01*
X230071223Y-77018499D01*
X230093328Y-77149954D01*
X230117587Y-77204791D01*
X230940454Y-78630038D01*
X230940456Y-78630041D01*
X230940458Y-78630044D01*
X230975813Y-78678464D01*
X231086794Y-78770098D01*
X231219096Y-78826753D01*
X231290548Y-78835296D01*
X231361999Y-78843840D01*
X231361999Y-78843839D01*
X231362000Y-78843840D01*
X231481126Y-78823807D01*
X231503925Y-78819974D01*
X231503925Y-78819973D01*
X231503930Y-78819973D01*
X231558758Y-78795718D01*
X233546931Y-77647845D01*
X233595351Y-77612490D01*
X233669857Y-77522253D01*
X233727717Y-77483094D01*
X233797567Y-77481431D01*
X233857227Y-77517796D01*
X233878267Y-77549695D01*
X234020476Y-77861090D01*
X234021279Y-77862886D01*
X234222257Y-78322112D01*
X234223032Y-78323920D01*
X234416741Y-78786375D01*
X234417487Y-78788196D01*
X234603837Y-79253677D01*
X234604553Y-79255509D01*
X234783461Y-79723799D01*
X234784149Y-79725643D01*
X234955622Y-80196762D01*
X234956280Y-80198615D01*
X235120259Y-80672400D01*
X235120888Y-80674265D01*
X235277328Y-81150589D01*
X235277927Y-81152463D01*
X235426790Y-81631211D01*
X235427359Y-81633094D01*
X235568608Y-82114144D01*
X235569147Y-82116036D01*
X235702729Y-82599206D01*
X235703239Y-82601107D01*
X235829161Y-83086422D01*
X235829640Y-83088330D01*
X235947846Y-83575585D01*
X235948294Y-83577500D01*
X236058745Y-84066521D01*
X236059163Y-84068444D01*
X236161835Y-84559128D01*
X236162223Y-84561057D01*
X236257109Y-85053370D01*
X236257466Y-85055305D01*
X236344526Y-85549052D01*
X236344852Y-85550992D01*
X236424058Y-86045995D01*
X236424354Y-86047940D01*
X236495715Y-86544261D01*
X236495979Y-86546211D01*
X236559437Y-87043461D01*
X236559671Y-87045414D01*
X236615240Y-87543680D01*
X236615442Y-87545637D01*
X236650611Y-87913934D01*
X236637389Y-87982541D01*
X236589173Y-88033108D01*
X236521273Y-88049581D01*
X236483841Y-88041903D01*
X236379215Y-88002880D01*
X236379205Y-88002878D01*
X236319677Y-87996477D01*
X235671833Y-87996477D01*
X235671833Y-89622477D01*
X235652148Y-89689516D01*
X235599344Y-89735271D01*
X235547833Y-89746477D01*
X235171833Y-89746477D01*
X235171833Y-90122477D01*
X235152148Y-90189516D01*
X235099344Y-90235271D01*
X235047833Y-90246477D01*
X233571833Y-90246477D01*
X233571833Y-91044321D01*
X233578234Y-91103849D01*
X233578236Y-91103857D01*
X233624325Y-91227429D01*
X233629309Y-91297121D01*
X233624325Y-91314094D01*
X233577742Y-91438991D01*
X233577741Y-91438993D01*
X233571334Y-91498593D01*
X233571333Y-91498612D01*
X233571333Y-93144347D01*
X233571334Y-93144353D01*
X233577741Y-93203960D01*
X233628035Y-93338805D01*
X233628039Y-93338812D01*
X233714285Y-93454021D01*
X233714288Y-93454024D01*
X233829497Y-93540270D01*
X233829504Y-93540274D01*
X233964350Y-93590568D01*
X233964349Y-93590568D01*
X233971277Y-93591312D01*
X234023960Y-93596977D01*
X236319705Y-93596976D01*
X236379316Y-93590568D01*
X236486564Y-93550566D01*
X236556254Y-93545583D01*
X236617577Y-93579068D01*
X236651062Y-93640391D01*
X236653334Y-93678536D01*
X236615442Y-94075352D01*
X236615240Y-94077309D01*
X236559671Y-94575575D01*
X236559437Y-94577528D01*
X236495979Y-95074778D01*
X236495715Y-95076728D01*
X236424354Y-95573049D01*
X236424058Y-95574994D01*
X236344852Y-96069997D01*
X236344526Y-96071937D01*
X236257466Y-96565684D01*
X236257109Y-96567619D01*
X236162223Y-97059932D01*
X236161835Y-97061861D01*
X236059163Y-97552545D01*
X236058745Y-97554468D01*
X235948294Y-98043489D01*
X235947846Y-98045404D01*
X235829640Y-98532659D01*
X235829161Y-98534567D01*
X235703239Y-99019882D01*
X235702729Y-99021783D01*
X235569147Y-99504953D01*
X235568608Y-99506845D01*
X235427359Y-99987895D01*
X235426790Y-99989778D01*
X235277927Y-100468526D01*
X235277328Y-100470400D01*
X235120888Y-100946724D01*
X235120259Y-100948589D01*
X234956280Y-101422374D01*
X234955622Y-101424227D01*
X234784149Y-101895346D01*
X234783461Y-101897190D01*
X234604553Y-102365480D01*
X234603837Y-102367312D01*
X234417487Y-102832793D01*
X234416741Y-102834614D01*
X234223032Y-103297069D01*
X234222257Y-103298877D01*
X234021279Y-103758103D01*
X234020476Y-103759899D01*
X233886280Y-104053748D01*
X233840526Y-104106552D01*
X233773486Y-104126237D01*
X233706447Y-104106553D01*
X233677867Y-104081186D01*
X233595017Y-103980843D01*
X233595010Y-103980837D01*
X233546650Y-103945525D01*
X233546636Y-103945515D01*
X232985607Y-103621605D01*
X232985606Y-103621605D01*
X232172607Y-105029763D01*
X232122040Y-105077979D01*
X232053433Y-105091202D01*
X232003220Y-105075150D01*
X231677595Y-104887150D01*
X231677594Y-104887150D01*
X231489594Y-105212775D01*
X231439027Y-105260991D01*
X231370420Y-105274213D01*
X231320207Y-105258162D01*
X230041953Y-104520162D01*
X230041952Y-104520162D01*
X229643043Y-105211094D01*
X229618811Y-105265871D01*
X229618810Y-105265876D01*
X229596938Y-105395940D01*
X229566408Y-105458787D01*
X229553605Y-105470994D01*
X229450814Y-105555866D01*
X229450810Y-105555870D01*
X229415463Y-105604278D01*
X229415453Y-105604293D01*
X228592583Y-107029549D01*
X228568330Y-107084372D01*
X228568329Y-107084375D01*
X228544463Y-107226300D01*
X228544462Y-107226302D01*
X228561550Y-107369209D01*
X228561551Y-107369212D01*
X228618202Y-107501506D01*
X228709839Y-107612491D01*
X228758249Y-107647839D01*
X228758264Y-107647849D01*
X229713753Y-108199500D01*
X230746432Y-108795717D01*
X230746434Y-108795718D01*
X230746436Y-108795719D01*
X230757689Y-108800697D01*
X230801260Y-108819973D01*
X230943190Y-108843840D01*
X230943190Y-108843839D01*
X230943429Y-108843880D01*
X231006276Y-108874409D01*
X231042641Y-108934069D01*
X231040978Y-109003919D01*
X231023873Y-109038090D01*
X230755672Y-109414724D01*
X230754519Y-109416318D01*
X230457204Y-109820123D01*
X230456025Y-109821697D01*
X230152442Y-110220602D01*
X230151238Y-110222159D01*
X229841293Y-110616286D01*
X229840064Y-110617823D01*
X229523965Y-111006908D01*
X229522713Y-111008425D01*
X229200419Y-111392521D01*
X229199142Y-111394018D01*
X229018213Y-111602821D01*
X228959435Y-111640595D01*
X228889565Y-111640595D01*
X228830787Y-111602821D01*
X228801762Y-111539265D01*
X228800500Y-111521618D01*
X228800500Y-111337860D01*
X228768715Y-111015142D01*
X228768714Y-111015141D01*
X228768714Y-111015132D01*
X228745122Y-110896528D01*
X228705454Y-110697097D01*
X228705451Y-110697086D01*
X228705450Y-110697083D01*
X228705449Y-110697077D01*
X228611314Y-110386754D01*
X228487215Y-110087153D01*
X228482683Y-110078675D01*
X228334353Y-109801169D01*
X228334352Y-109801167D01*
X228334347Y-109801158D01*
X228154183Y-109531524D01*
X227948458Y-109280847D01*
X227948457Y-109280846D01*
X227948453Y-109280841D01*
X227719158Y-109051546D01*
X227468481Y-108845821D01*
X227468480Y-108845820D01*
X227468476Y-108845817D01*
X227198842Y-108665653D01*
X227198837Y-108665650D01*
X227198830Y-108665646D01*
X226912854Y-108512788D01*
X226912849Y-108512786D01*
X226613247Y-108388686D01*
X226302913Y-108294548D01*
X226302902Y-108294545D01*
X225984874Y-108231287D01*
X225984857Y-108231284D01*
X225740812Y-108207248D01*
X225662143Y-108199500D01*
X225337857Y-108199500D01*
X225265099Y-108206666D01*
X225015142Y-108231284D01*
X225015125Y-108231287D01*
X224697097Y-108294545D01*
X224697086Y-108294548D01*
X224386752Y-108388686D01*
X224087150Y-108512786D01*
X224087145Y-108512788D01*
X223801169Y-108665646D01*
X223801151Y-108665657D01*
X223531532Y-108845811D01*
X223531518Y-108845821D01*
X223280841Y-109051546D01*
X223051546Y-109280841D01*
X222845821Y-109531518D01*
X222845811Y-109531532D01*
X222665657Y-109801151D01*
X222665646Y-109801169D01*
X222512788Y-110087145D01*
X222512786Y-110087150D01*
X222388686Y-110386752D01*
X222294548Y-110697086D01*
X222294545Y-110697097D01*
X222231287Y-111015125D01*
X222231284Y-111015142D01*
X222199500Y-111337860D01*
X222199500Y-111662139D01*
X222231284Y-111984857D01*
X222231287Y-111984874D01*
X222294545Y-112302902D01*
X222294548Y-112302913D01*
X222388686Y-112613247D01*
X222512786Y-112912849D01*
X222512788Y-112912854D01*
X222665646Y-113198830D01*
X222665657Y-113198848D01*
X222845811Y-113468467D01*
X222845821Y-113468481D01*
X223051546Y-113719158D01*
X223280841Y-113948453D01*
X223280846Y-113948457D01*
X223280847Y-113948458D01*
X223531524Y-114154183D01*
X223801158Y-114334347D01*
X223801167Y-114334352D01*
X223801169Y-114334353D01*
X224087145Y-114487211D01*
X224087147Y-114487211D01*
X224087153Y-114487215D01*
X224386754Y-114611314D01*
X224697077Y-114705449D01*
X224697083Y-114705450D01*
X224697086Y-114705451D01*
X224697097Y-114705454D01*
X224896528Y-114745122D01*
X225015132Y-114768714D01*
X225337857Y-114800500D01*
X225337860Y-114800500D01*
X225480262Y-114800500D01*
X225547301Y-114820185D01*
X225593056Y-114872989D01*
X225603000Y-114942147D01*
X225573975Y-115005703D01*
X225559967Y-115019490D01*
X225259663Y-115271474D01*
X225258147Y-115272726D01*
X224869062Y-115588825D01*
X224867525Y-115590054D01*
X224473398Y-115899999D01*
X224471841Y-115901203D01*
X224072936Y-116204786D01*
X224071362Y-116205965D01*
X223667557Y-116503280D01*
X223665963Y-116504433D01*
X223413680Y-116684084D01*
X223347654Y-116706937D01*
X223279753Y-116690464D01*
X223231538Y-116639897D01*
X223219357Y-116576701D01*
X223218902Y-116576712D01*
X223218837Y-116574006D01*
X223218314Y-116571290D01*
X223218630Y-116568353D01*
X223218690Y-116567843D01*
X223194849Y-116426062D01*
X223170619Y-116371289D01*
X222846704Y-115810252D01*
X222846703Y-115810252D01*
X221438547Y-116623251D01*
X221370647Y-116639724D01*
X221304620Y-116616871D01*
X221269160Y-116577864D01*
X221081160Y-116252239D01*
X221081159Y-116252239D01*
X220755534Y-116440239D01*
X220687634Y-116456712D01*
X220621607Y-116433859D01*
X220586147Y-116394852D01*
X219848146Y-115116598D01*
X219848145Y-115116598D01*
X219157212Y-115515509D01*
X219108839Y-115550831D01*
X219024866Y-115652534D01*
X218967003Y-115691696D01*
X218949810Y-115695867D01*
X218818355Y-115717972D01*
X218763518Y-115742231D01*
X217338271Y-116565098D01*
X217289846Y-116600456D01*
X217198210Y-116711440D01*
X217141558Y-116843737D01*
X217141556Y-116843741D01*
X217124469Y-116986643D01*
X217124470Y-116986645D01*
X217148335Y-117128569D01*
X217148336Y-117128573D01*
X217148337Y-117128574D01*
X217172497Y-117183188D01*
X217172594Y-117183406D01*
X218320460Y-119171568D01*
X218355819Y-119219995D01*
X218466799Y-119311629D01*
X218466800Y-119311629D01*
X218466801Y-119311630D01*
X218490527Y-119321789D01*
X218504646Y-119333447D01*
X218521421Y-119340789D01*
X218531028Y-119355229D01*
X218544405Y-119366274D01*
X218549980Y-119383715D01*
X218560123Y-119398960D01*
X218560398Y-119416303D01*
X218565680Y-119432826D01*
X218560940Y-119450514D01*
X218561231Y-119468821D01*
X218552086Y-119483558D01*
X218547597Y-119500315D01*
X218534047Y-119512632D01*
X218524394Y-119528191D01*
X218496568Y-119546703D01*
X218495897Y-119547314D01*
X218495009Y-119547741D01*
X218468969Y-119560136D01*
X218467186Y-119560967D01*
X218011138Y-119769237D01*
X218009342Y-119770040D01*
X217550116Y-119971018D01*
X217548308Y-119971793D01*
X217085853Y-120165502D01*
X217084032Y-120166248D01*
X216618551Y-120352598D01*
X216616719Y-120353314D01*
X216148429Y-120532222D01*
X216146585Y-120532910D01*
X215675466Y-120704383D01*
X215673613Y-120705041D01*
X215199828Y-120869020D01*
X215197963Y-120869649D01*
X214721639Y-121026089D01*
X214719765Y-121026688D01*
X214241017Y-121175551D01*
X214239134Y-121176120D01*
X213758084Y-121317369D01*
X213756192Y-121317908D01*
X213273022Y-121451490D01*
X213271121Y-121452000D01*
X212785806Y-121577922D01*
X212783898Y-121578401D01*
X212296643Y-121696607D01*
X212294728Y-121697055D01*
X211805707Y-121807506D01*
X211803784Y-121807924D01*
X211313100Y-121910596D01*
X211311171Y-121910984D01*
X210818858Y-122005870D01*
X210816923Y-122006227D01*
X210323176Y-122093287D01*
X210321236Y-122093613D01*
X209826233Y-122172819D01*
X209824288Y-122173115D01*
X209327967Y-122244476D01*
X209326017Y-122244740D01*
X208828767Y-122308198D01*
X208826814Y-122308432D01*
X208328548Y-122364001D01*
X208326591Y-122364203D01*
X207980631Y-122397239D01*
X207912024Y-122384017D01*
X207861457Y-122335801D01*
X207844984Y-122267901D01*
X207867836Y-122201874D01*
X207869578Y-122199489D01*
X207915185Y-122138566D01*
X207915187Y-122138563D01*
X207965429Y-122003856D01*
X207965431Y-122003849D01*
X207971832Y-121944321D01*
X207971833Y-121944304D01*
X207971833Y-121296477D01*
X206345833Y-121296477D01*
X206278794Y-121276792D01*
X206233039Y-121223988D01*
X206221833Y-121172477D01*
X206221833Y-120796477D01*
X205845833Y-120796477D01*
X205778794Y-120776792D01*
X205733039Y-120723988D01*
X205721833Y-120672477D01*
X205721833Y-120296477D01*
X206721833Y-120296477D01*
X207971833Y-120296477D01*
X207971833Y-119648649D01*
X207971832Y-119648632D01*
X207965431Y-119589104D01*
X207965429Y-119589097D01*
X207915187Y-119454390D01*
X207915183Y-119454383D01*
X207829023Y-119339289D01*
X207829020Y-119339286D01*
X207713926Y-119253126D01*
X207713919Y-119253122D01*
X207579212Y-119202880D01*
X207579205Y-119202878D01*
X207519677Y-119196477D01*
X206721833Y-119196477D01*
X206721833Y-120296477D01*
X205721833Y-120296477D01*
X205721833Y-119196477D01*
X204923988Y-119196477D01*
X204864460Y-119202878D01*
X204864452Y-119202880D01*
X204740879Y-119248970D01*
X204671187Y-119253954D01*
X204654222Y-119248973D01*
X204557997Y-119213083D01*
X204529314Y-119202385D01*
X204469716Y-119195978D01*
X204469714Y-119195977D01*
X204469706Y-119195977D01*
X204469697Y-119195977D01*
X202823962Y-119195977D01*
X202823956Y-119195978D01*
X202764349Y-119202385D01*
X202629504Y-119252679D01*
X202629497Y-119252683D01*
X202514288Y-119338929D01*
X202514285Y-119338932D01*
X202428039Y-119454141D01*
X202428035Y-119454148D01*
X202377741Y-119588994D01*
X202371334Y-119648593D01*
X202371333Y-119648612D01*
X202371333Y-121944347D01*
X202371334Y-121944353D01*
X202377741Y-122003960D01*
X202428035Y-122138805D01*
X202428036Y-122138807D01*
X202428037Y-122138808D01*
X202482677Y-122211798D01*
X202489308Y-122220655D01*
X202495706Y-122237809D01*
X202506563Y-122252555D01*
X202507663Y-122269866D01*
X202513725Y-122286119D01*
X202509832Y-122304011D01*
X202510994Y-122322284D01*
X202502561Y-122337440D01*
X202498874Y-122354392D01*
X202485925Y-122367340D01*
X202477024Y-122383340D01*
X202461735Y-122391531D01*
X202449469Y-122403798D01*
X202431574Y-122407690D01*
X202415437Y-122416337D01*
X202382082Y-122418457D01*
X202381196Y-122418650D01*
X202380214Y-122418576D01*
X202297974Y-122412038D01*
X202296014Y-122411866D01*
X201796876Y-122364203D01*
X201794919Y-122364001D01*
X201296653Y-122308432D01*
X201294700Y-122308198D01*
X200797450Y-122244740D01*
X200795500Y-122244476D01*
X200299179Y-122173115D01*
X200297234Y-122172819D01*
X199802231Y-122093613D01*
X199800291Y-122093287D01*
X199306544Y-122006227D01*
X199304609Y-122005870D01*
X198812296Y-121910984D01*
X198810367Y-121910596D01*
X198319683Y-121807924D01*
X198317760Y-121807506D01*
X197828739Y-121697055D01*
X197826824Y-121696607D01*
X197339569Y-121578401D01*
X197337661Y-121577922D01*
X196852346Y-121452000D01*
X196850445Y-121451490D01*
X196367275Y-121317908D01*
X196365383Y-121317369D01*
X195884333Y-121176120D01*
X195882450Y-121175551D01*
X195403702Y-121026688D01*
X195401828Y-121026089D01*
X194925504Y-120869649D01*
X194923639Y-120869020D01*
X194449854Y-120705041D01*
X194448001Y-120704383D01*
X193976882Y-120532910D01*
X193975038Y-120532222D01*
X193506748Y-120353314D01*
X193504916Y-120352598D01*
X193039435Y-120166248D01*
X193037614Y-120165502D01*
X192575159Y-119971793D01*
X192573351Y-119971018D01*
X192114125Y-119770040D01*
X192112329Y-119769237D01*
X191735615Y-119597198D01*
X191682811Y-119551444D01*
X191663126Y-119484404D01*
X191682810Y-119417365D01*
X191735614Y-119371610D01*
X191738314Y-119370415D01*
X191876602Y-119311198D01*
X191987470Y-119219657D01*
X191987472Y-119219654D01*
X192022784Y-119171294D01*
X192022794Y-119171280D01*
X192346703Y-118610251D01*
X192346703Y-118610250D01*
X190938546Y-117797251D01*
X190890330Y-117746684D01*
X190877107Y-117678077D01*
X190893159Y-117627864D01*
X191081159Y-117302239D01*
X191081159Y-117302238D01*
X190919828Y-117209094D01*
X190764171Y-117119225D01*
X191764173Y-117119225D01*
X191764173Y-117119226D01*
X192846703Y-117744224D01*
X192846704Y-117744224D01*
X193170619Y-117183188D01*
X193194849Y-117128415D01*
X193218690Y-116986633D01*
X193218691Y-116986631D01*
X193201621Y-116843872D01*
X193201619Y-116843868D01*
X193145024Y-116711703D01*
X193053480Y-116600831D01*
X193005107Y-116565509D01*
X192314173Y-116166598D01*
X192314172Y-116166598D01*
X191764173Y-117119225D01*
X190764171Y-117119225D01*
X190755533Y-117114238D01*
X190707317Y-117063671D01*
X190694094Y-116995064D01*
X190710146Y-116944851D01*
X191448146Y-115666597D01*
X191448146Y-115666596D01*
X191376070Y-115624983D01*
X201249500Y-115624983D01*
X201249500Y-117175001D01*
X201249501Y-117175018D01*
X201260000Y-117277796D01*
X201260001Y-117277799D01*
X201305894Y-117416294D01*
X201315186Y-117444334D01*
X201407288Y-117593656D01*
X201531344Y-117717712D01*
X201680666Y-117809814D01*
X201847203Y-117864999D01*
X201949991Y-117875500D01*
X203250008Y-117875499D01*
X203352797Y-117864999D01*
X203519334Y-117809814D01*
X203668656Y-117717712D01*
X203792712Y-117593656D01*
X203884814Y-117444334D01*
X203884814Y-117444331D01*
X203888178Y-117438879D01*
X203940126Y-117392154D01*
X204009088Y-117380931D01*
X204073170Y-117408774D01*
X204081398Y-117416294D01*
X204220213Y-117555109D01*
X204392179Y-117680048D01*
X204392181Y-117680049D01*
X204392184Y-117680051D01*
X204581588Y-117776557D01*
X204783757Y-117842246D01*
X204993713Y-117875500D01*
X204993714Y-117875500D01*
X205206286Y-117875500D01*
X205206287Y-117875500D01*
X205416243Y-117842246D01*
X205618412Y-117776557D01*
X205807816Y-117680051D01*
X205879646Y-117627864D01*
X205979786Y-117555109D01*
X205979788Y-117555106D01*
X205979792Y-117555104D01*
X206130104Y-117404792D01*
X206249991Y-117239779D01*
X206305320Y-117197115D01*
X206374933Y-117191136D01*
X206436729Y-117223741D01*
X206450627Y-117239781D01*
X206570272Y-117404459D01*
X206570276Y-117404464D01*
X206720535Y-117554723D01*
X206720540Y-117554727D01*
X206892442Y-117679620D01*
X207081784Y-117776096D01*
X207099998Y-117782014D01*
X207100000Y-117782013D01*
X208100000Y-117782013D01*
X208100001Y-117782014D01*
X208118215Y-117776096D01*
X208307557Y-117679620D01*
X208479459Y-117554727D01*
X208479464Y-117554723D01*
X208629723Y-117404464D01*
X208629727Y-117404459D01*
X208754620Y-117232557D01*
X208851092Y-117043222D01*
X208897629Y-116900000D01*
X208100000Y-116900000D01*
X208100000Y-117782013D01*
X207100000Y-117782013D01*
X207100000Y-116337465D01*
X207125000Y-116337465D01*
X207125000Y-116462535D01*
X207157370Y-116583343D01*
X207219905Y-116691657D01*
X207308343Y-116780095D01*
X207416657Y-116842630D01*
X207537465Y-116875000D01*
X207662535Y-116875000D01*
X207783343Y-116842630D01*
X207891657Y-116780095D01*
X207980095Y-116691657D01*
X208042630Y-116583343D01*
X208075000Y-116462535D01*
X208075000Y-116337465D01*
X208042630Y-116216657D01*
X207980095Y-116108343D01*
X207891657Y-116019905D01*
X207783343Y-115957370D01*
X207662535Y-115925000D01*
X207537465Y-115925000D01*
X207416657Y-115957370D01*
X207308343Y-116019905D01*
X207219905Y-116108343D01*
X207157370Y-116216657D01*
X207125000Y-116337465D01*
X207100000Y-116337465D01*
X207100000Y-115900000D01*
X208100000Y-115900000D01*
X208897629Y-115900000D01*
X208897628Y-115899999D01*
X208851092Y-115756777D01*
X208754620Y-115567442D01*
X208629727Y-115395540D01*
X208629723Y-115395535D01*
X208479464Y-115245276D01*
X208479459Y-115245272D01*
X208307557Y-115120379D01*
X208118216Y-115023904D01*
X208100000Y-115017984D01*
X208100000Y-115900000D01*
X207100000Y-115900000D01*
X207100000Y-115017985D01*
X207099999Y-115017984D01*
X207081783Y-115023904D01*
X206892442Y-115120379D01*
X206720540Y-115245272D01*
X206720535Y-115245276D01*
X206570276Y-115395535D01*
X206570272Y-115395540D01*
X206453243Y-115556618D01*
X206397913Y-115599284D01*
X206328300Y-115605263D01*
X206266505Y-115572657D01*
X206240254Y-115535514D01*
X206117167Y-115267687D01*
X205914305Y-114826280D01*
X205904197Y-114757147D01*
X205933070Y-114693522D01*
X205991758Y-114655607D01*
X206026977Y-114650500D01*
X209525500Y-114650500D01*
X209592539Y-114670185D01*
X209638294Y-114722989D01*
X209649500Y-114774500D01*
X209649500Y-116964069D01*
X209653990Y-116986643D01*
X209660621Y-117019974D01*
X209660621Y-117019976D01*
X209674497Y-117089736D01*
X209674499Y-117089744D01*
X209713293Y-117183402D01*
X209723535Y-117208127D01*
X209770088Y-117277799D01*
X209794726Y-117314673D01*
X209804719Y-117324665D01*
X209804723Y-117324669D01*
X210385325Y-117905272D01*
X210385331Y-117905277D01*
X210491874Y-117976466D01*
X210561221Y-118005189D01*
X210610256Y-118025501D01*
X210610259Y-118025501D01*
X210610260Y-118025502D01*
X210735928Y-118050500D01*
X210735931Y-118050500D01*
X210925931Y-118050500D01*
X211569078Y-118050500D01*
X211608914Y-118057073D01*
X212180660Y-118251034D01*
X212185079Y-118252533D01*
X212217334Y-118265894D01*
X212237118Y-118269829D01*
X212257897Y-118276145D01*
X212259345Y-118276535D01*
X212259349Y-118276535D01*
X212259350Y-118276536D01*
X212292911Y-118282551D01*
X212344550Y-118291808D01*
X212344550Y-118291807D01*
X212349756Y-118292741D01*
X212357142Y-118293703D01*
X212391309Y-118300500D01*
X212391310Y-118300500D01*
X212568693Y-118300500D01*
X212568694Y-118300499D01*
X212626682Y-118288964D01*
X212742658Y-118265896D01*
X212742661Y-118265894D01*
X212742666Y-118265894D01*
X212906547Y-118198013D01*
X213054035Y-118099464D01*
X213179464Y-117974035D01*
X213278013Y-117826547D01*
X213345894Y-117662666D01*
X213380500Y-117488691D01*
X213380500Y-117311309D01*
X213380500Y-117311306D01*
X213380499Y-117311304D01*
X213345896Y-117137341D01*
X213345893Y-117137332D01*
X213342265Y-117128574D01*
X213326182Y-117089744D01*
X213278016Y-116973459D01*
X213278009Y-116973446D01*
X213179464Y-116825965D01*
X213179461Y-116825961D01*
X213054038Y-116700538D01*
X213054034Y-116700535D01*
X212906553Y-116601990D01*
X212906540Y-116601983D01*
X212742667Y-116534106D01*
X212742658Y-116534103D01*
X212568694Y-116499500D01*
X212568691Y-116499500D01*
X212391309Y-116499500D01*
X212391307Y-116499500D01*
X212217337Y-116534105D01*
X212217335Y-116534105D01*
X212217334Y-116534106D01*
X212210208Y-116537057D01*
X212188839Y-116545907D01*
X212181232Y-116548769D01*
X211608913Y-116742927D01*
X211569076Y-116749500D01*
X211120808Y-116749500D01*
X211091367Y-116740855D01*
X211061381Y-116734332D01*
X211056365Y-116730577D01*
X211053769Y-116729815D01*
X211033127Y-116713181D01*
X210986819Y-116666873D01*
X210953334Y-116605550D01*
X210950500Y-116579192D01*
X210950500Y-114616596D01*
X220714172Y-114616596D01*
X220714172Y-114616597D01*
X221264171Y-115569224D01*
X221264172Y-115569224D01*
X222346703Y-114944226D01*
X222346703Y-114944225D01*
X222022794Y-114383197D01*
X222022784Y-114383183D01*
X221987472Y-114334823D01*
X221987470Y-114334820D01*
X221876601Y-114243279D01*
X221744431Y-114186682D01*
X221601670Y-114169611D01*
X221601668Y-114169612D01*
X221459887Y-114193453D01*
X221459881Y-114193455D01*
X221405104Y-114217687D01*
X220714172Y-114616596D01*
X210950500Y-114616596D01*
X210950500Y-114335928D01*
X210925502Y-114210261D01*
X210925501Y-114210260D01*
X210925501Y-114210256D01*
X210876465Y-114091873D01*
X210876464Y-114091872D01*
X210876460Y-114091864D01*
X210857888Y-114064070D01*
X210857887Y-114064068D01*
X210805277Y-113985331D01*
X210805271Y-113985324D01*
X210314673Y-113494726D01*
X210314669Y-113494723D01*
X210208127Y-113423535D01*
X210089744Y-113374499D01*
X210089738Y-113374497D01*
X209964071Y-113349500D01*
X209964069Y-113349500D01*
X205425931Y-113349500D01*
X205425929Y-113349500D01*
X205300261Y-113374497D01*
X205300255Y-113374499D01*
X205181870Y-113423535D01*
X205075331Y-113494722D01*
X205075324Y-113494728D01*
X204594724Y-113975328D01*
X204535430Y-114064070D01*
X204523535Y-114081871D01*
X204474499Y-114200255D01*
X204474497Y-114200261D01*
X204449500Y-114325928D01*
X204449500Y-114442722D01*
X204438171Y-114494503D01*
X204071790Y-115291712D01*
X204025909Y-115344407D01*
X203958822Y-115363931D01*
X203891830Y-115344086D01*
X203853580Y-115305028D01*
X203845367Y-115291712D01*
X203792712Y-115206344D01*
X203668656Y-115082288D01*
X203519334Y-114990186D01*
X203352797Y-114935001D01*
X203352795Y-114935000D01*
X203250010Y-114924500D01*
X201949998Y-114924500D01*
X201949981Y-114924501D01*
X201847203Y-114935000D01*
X201847200Y-114935001D01*
X201680668Y-114990185D01*
X201680663Y-114990187D01*
X201531342Y-115082289D01*
X201407289Y-115206342D01*
X201315187Y-115355663D01*
X201315186Y-115355666D01*
X201260001Y-115522203D01*
X201260001Y-115522204D01*
X201260000Y-115522204D01*
X201249500Y-115624983D01*
X191376070Y-115624983D01*
X190757215Y-115267687D01*
X190702438Y-115243455D01*
X190702433Y-115243454D01*
X190572370Y-115221582D01*
X190509523Y-115191052D01*
X190497316Y-115178249D01*
X190412443Y-115075458D01*
X190412439Y-115075454D01*
X190364031Y-115040107D01*
X190364016Y-115040097D01*
X188938760Y-114217227D01*
X188883937Y-114192974D01*
X188883934Y-114192973D01*
X188742009Y-114169107D01*
X188742007Y-114169106D01*
X188599100Y-114186194D01*
X188599097Y-114186195D01*
X188466803Y-114242846D01*
X188355818Y-114334483D01*
X188355818Y-114334484D01*
X188320470Y-114382893D01*
X188320460Y-114382908D01*
X187172590Y-116371080D01*
X187148337Y-116425903D01*
X187148336Y-116425906D01*
X187124470Y-116567832D01*
X187124469Y-116567836D01*
X187129302Y-116608253D01*
X187128795Y-116611265D01*
X187129863Y-116614128D01*
X187123038Y-116645501D01*
X187117715Y-116677155D01*
X187115464Y-116680315D01*
X187115011Y-116682401D01*
X187093860Y-116710655D01*
X187023802Y-116780712D01*
X186962478Y-116814196D01*
X186892787Y-116809211D01*
X186864194Y-116794037D01*
X186792420Y-116742927D01*
X186592349Y-116600456D01*
X186457504Y-116504433D01*
X186455910Y-116503280D01*
X186052105Y-116205965D01*
X186050531Y-116204786D01*
X185651626Y-115901203D01*
X185650097Y-115900021D01*
X185255906Y-115590025D01*
X185254443Y-115588855D01*
X184865320Y-115272726D01*
X184863803Y-115271474D01*
X184563500Y-115019490D01*
X184524798Y-114961318D01*
X184523690Y-114891457D01*
X184560527Y-114832087D01*
X184623614Y-114802058D01*
X184643206Y-114800500D01*
X184662140Y-114800500D01*
X184662143Y-114800500D01*
X184984868Y-114768714D01*
X185142295Y-114737399D01*
X185302902Y-114705454D01*
X185302913Y-114705451D01*
X185302913Y-114705450D01*
X185302923Y-114705449D01*
X185613246Y-114611314D01*
X185912847Y-114487215D01*
X186198842Y-114334347D01*
X186468476Y-114154183D01*
X186719153Y-113948458D01*
X186948458Y-113719153D01*
X187154183Y-113468476D01*
X187334347Y-113198842D01*
X187487215Y-112912847D01*
X187611314Y-112613246D01*
X187705449Y-112302923D01*
X187705451Y-112302913D01*
X187705454Y-112302902D01*
X187751875Y-112069524D01*
X187768714Y-111984868D01*
X187800500Y-111662143D01*
X187800500Y-111337857D01*
X187768714Y-111015132D01*
X187745122Y-110896528D01*
X187705454Y-110697097D01*
X187705451Y-110697086D01*
X187705450Y-110697083D01*
X187705449Y-110697077D01*
X187611314Y-110386754D01*
X187487215Y-110087153D01*
X187482683Y-110078675D01*
X187334353Y-109801169D01*
X187334352Y-109801167D01*
X187334347Y-109801158D01*
X187154183Y-109531524D01*
X186948458Y-109280847D01*
X186948457Y-109280846D01*
X186948453Y-109280841D01*
X186719158Y-109051546D01*
X186468481Y-108845821D01*
X186468480Y-108845820D01*
X186468476Y-108845817D01*
X186198842Y-108665653D01*
X186198837Y-108665650D01*
X186198830Y-108665646D01*
X185912854Y-108512788D01*
X185912849Y-108512786D01*
X185613247Y-108388686D01*
X185302913Y-108294548D01*
X185302902Y-108294545D01*
X184984874Y-108231287D01*
X184984857Y-108231284D01*
X184740812Y-108207248D01*
X184662143Y-108199500D01*
X184337857Y-108199500D01*
X184265099Y-108206666D01*
X184015142Y-108231284D01*
X184015125Y-108231287D01*
X183697097Y-108294545D01*
X183697086Y-108294548D01*
X183386752Y-108388686D01*
X183087150Y-108512786D01*
X183087145Y-108512788D01*
X182801169Y-108665646D01*
X182801151Y-108665657D01*
X182531532Y-108845811D01*
X182531518Y-108845821D01*
X182280841Y-109051546D01*
X182051546Y-109280841D01*
X181845821Y-109531518D01*
X181845811Y-109531532D01*
X181665657Y-109801151D01*
X181665646Y-109801169D01*
X181512788Y-110087145D01*
X181512786Y-110087150D01*
X181388686Y-110386752D01*
X181294548Y-110697086D01*
X181294545Y-110697097D01*
X181231287Y-111015125D01*
X181231284Y-111015142D01*
X181199500Y-111337860D01*
X181199500Y-111379129D01*
X181192055Y-111404480D01*
X181188295Y-111430640D01*
X181182365Y-111437483D01*
X181179815Y-111446168D01*
X181159848Y-111463469D01*
X181142540Y-111483444D01*
X181133852Y-111485995D01*
X181127011Y-111491923D01*
X181100856Y-111495683D01*
X181075501Y-111503129D01*
X181066814Y-111500578D01*
X181057853Y-111501867D01*
X181033815Y-111490889D01*
X181008461Y-111483445D01*
X180998372Y-111474703D01*
X180994297Y-111472842D01*
X180981787Y-111460332D01*
X180961988Y-111437483D01*
X180924298Y-111393987D01*
X180923048Y-111392521D01*
X180600754Y-111008425D01*
X180599502Y-111006908D01*
X180283360Y-110617769D01*
X180282215Y-110616338D01*
X179972194Y-110222113D01*
X179971062Y-110220651D01*
X179667429Y-109821679D01*
X179666263Y-109820123D01*
X179652307Y-109801169D01*
X179368948Y-109416318D01*
X179367795Y-109414724D01*
X179077027Y-109006399D01*
X179075900Y-109004790D01*
X179068643Y-108994248D01*
X179046841Y-108927871D01*
X179064386Y-108860240D01*
X179115711Y-108812831D01*
X179184519Y-108800697D01*
X179219590Y-108809944D01*
X179257705Y-108826265D01*
X179257703Y-108826265D01*
X179400462Y-108843335D01*
X179400464Y-108843334D01*
X179542246Y-108819493D01*
X179597019Y-108795263D01*
X180158055Y-108471348D01*
X180158055Y-108471347D01*
X179345056Y-107063191D01*
X179342921Y-107054393D01*
X179337325Y-107047277D01*
X179334813Y-107020971D01*
X179328583Y-106995291D01*
X179331544Y-106986734D01*
X179330684Y-106977724D01*
X179342792Y-106954235D01*
X179351436Y-106929264D01*
X179359398Y-106922025D01*
X179362700Y-106915621D01*
X179390443Y-106893804D01*
X179399084Y-106888815D01*
X180399083Y-106888815D01*
X180399083Y-106888816D01*
X181024081Y-107971347D01*
X181024082Y-107971347D01*
X181585111Y-107647438D01*
X181585125Y-107647428D01*
X181633485Y-107612116D01*
X181633488Y-107612114D01*
X181725029Y-107501245D01*
X181781626Y-107369075D01*
X181798697Y-107226314D01*
X181798696Y-107226312D01*
X181774855Y-107084531D01*
X181774853Y-107084525D01*
X181750621Y-107029748D01*
X181351711Y-106338816D01*
X181351710Y-106338816D01*
X180399083Y-106888815D01*
X179399084Y-106888815D01*
X179554739Y-106798948D01*
X179716069Y-106705804D01*
X179716069Y-106705803D01*
X179528069Y-106380178D01*
X179511596Y-106312278D01*
X179534448Y-106246251D01*
X179573456Y-106210791D01*
X180851709Y-105472790D01*
X180851709Y-105472789D01*
X180452799Y-104781855D01*
X180417476Y-104733482D01*
X180417474Y-104733480D01*
X180315775Y-104649510D01*
X180276612Y-104591647D01*
X180272441Y-104574454D01*
X180263311Y-104520162D01*
X180250335Y-104442995D01*
X180226080Y-104388167D01*
X179701764Y-103480025D01*
X179403210Y-102962915D01*
X179403209Y-102962914D01*
X179403207Y-102962910D01*
X179367852Y-102914490D01*
X179256871Y-102822856D01*
X179256869Y-102822855D01*
X179256868Y-102822854D01*
X179124571Y-102766202D01*
X179124567Y-102766200D01*
X178981665Y-102749113D01*
X178981663Y-102749114D01*
X178839739Y-102772979D01*
X178784902Y-102797238D01*
X176796740Y-103945104D01*
X176748313Y-103980463D01*
X176748313Y-103980464D01*
X176656679Y-104091444D01*
X176656677Y-104091446D01*
X176600026Y-104223741D01*
X176600025Y-104223744D01*
X176593676Y-104276843D01*
X176593474Y-104277313D01*
X176593555Y-104277817D01*
X176579758Y-104309341D01*
X176566171Y-104341071D01*
X176565747Y-104341357D01*
X176565543Y-104341825D01*
X176536901Y-104360881D01*
X176508308Y-104380233D01*
X176507796Y-104380245D01*
X176507371Y-104380528D01*
X176472934Y-104381074D01*
X176438458Y-104381894D01*
X176438021Y-104381627D01*
X176437510Y-104381636D01*
X176408148Y-104363418D01*
X176378798Y-104345528D01*
X176378430Y-104344980D01*
X176378140Y-104344800D01*
X176358590Y-104315415D01*
X176312092Y-104217731D01*
X176311261Y-104215947D01*
X176102991Y-103759899D01*
X176102188Y-103758103D01*
X175901210Y-103298877D01*
X175900435Y-103297069D01*
X175818526Y-103101521D01*
X175706695Y-102834539D01*
X175706010Y-102832867D01*
X175519630Y-102367312D01*
X175518914Y-102365480D01*
X175496490Y-102306786D01*
X175339977Y-101897113D01*
X175339346Y-101895422D01*
X175167821Y-101424161D01*
X175167210Y-101422438D01*
X175003186Y-100948524D01*
X175002600Y-100946788D01*
X174846111Y-100470312D01*
X174845568Y-100468615D01*
X174696677Y-99989778D01*
X174696108Y-99987895D01*
X174554859Y-99506845D01*
X174554320Y-99504953D01*
X174420738Y-99021783D01*
X174420228Y-99019882D01*
X174392332Y-98912370D01*
X174294304Y-98534561D01*
X174293827Y-98532659D01*
X174175621Y-98045404D01*
X174175173Y-98043489D01*
X174064722Y-97554468D01*
X174064304Y-97552545D01*
X173961632Y-97061861D01*
X173961244Y-97059932D01*
X173866344Y-96567545D01*
X173866014Y-96565758D01*
X173778936Y-96071911D01*
X173778615Y-96069997D01*
X173699409Y-95574994D01*
X173699113Y-95573049D01*
X173627740Y-95076642D01*
X173627500Y-95074871D01*
X173564024Y-94577478D01*
X173563796Y-94575575D01*
X173556629Y-94511313D01*
X173508225Y-94077299D01*
X173508025Y-94075352D01*
X173460362Y-93576214D01*
X173460196Y-93574329D01*
X173453196Y-93486277D01*
X173467506Y-93417891D01*
X173516518Y-93368096D01*
X173584670Y-93352703D01*
X173650327Y-93376599D01*
X173676072Y-93402141D01*
X173714645Y-93453667D01*
X173829739Y-93539827D01*
X173829746Y-93539831D01*
X173964453Y-93590073D01*
X173964460Y-93590075D01*
X174023988Y-93596476D01*
X174024005Y-93596477D01*
X174671833Y-93596477D01*
X175671833Y-93596477D01*
X176319661Y-93596477D01*
X176319677Y-93596476D01*
X176379205Y-93590075D01*
X176379212Y-93590073D01*
X176513919Y-93539831D01*
X176513926Y-93539827D01*
X176629020Y-93453667D01*
X176629023Y-93453664D01*
X176715183Y-93338570D01*
X176715187Y-93338563D01*
X176765429Y-93203856D01*
X176765431Y-93203849D01*
X176771832Y-93144321D01*
X176771833Y-93144304D01*
X176771833Y-92346477D01*
X175671833Y-92346477D01*
X175671833Y-93596477D01*
X174671833Y-93596477D01*
X174671833Y-91970477D01*
X174691518Y-91903438D01*
X174744322Y-91857683D01*
X174795833Y-91846477D01*
X175171833Y-91846477D01*
X175171833Y-91470477D01*
X175191518Y-91403438D01*
X175244322Y-91357683D01*
X175295833Y-91346477D01*
X176771833Y-91346477D01*
X176771833Y-91237857D01*
X181199500Y-91237857D01*
X181199500Y-91562143D01*
X181203228Y-91599992D01*
X181231284Y-91884857D01*
X181231287Y-91884874D01*
X181294545Y-92202902D01*
X181294548Y-92202913D01*
X181388686Y-92513247D01*
X181512786Y-92812849D01*
X181512788Y-92812854D01*
X181665646Y-93098830D01*
X181665657Y-93098848D01*
X181845811Y-93368467D01*
X181845821Y-93368481D01*
X182051546Y-93619158D01*
X182280841Y-93848453D01*
X182280846Y-93848457D01*
X182280847Y-93848458D01*
X182531524Y-94054183D01*
X182801158Y-94234347D01*
X182801167Y-94234352D01*
X182801169Y-94234353D01*
X183087145Y-94387211D01*
X183087147Y-94387211D01*
X183087153Y-94387215D01*
X183386754Y-94511314D01*
X183697077Y-94605449D01*
X183697083Y-94605450D01*
X183697086Y-94605451D01*
X183697097Y-94605454D01*
X183896528Y-94645122D01*
X184015132Y-94668714D01*
X184337857Y-94700500D01*
X184337860Y-94700500D01*
X184662140Y-94700500D01*
X184662143Y-94700500D01*
X184984868Y-94668714D01*
X185142295Y-94637399D01*
X185302902Y-94605454D01*
X185302913Y-94605451D01*
X185302913Y-94605450D01*
X185302923Y-94605449D01*
X185613246Y-94511314D01*
X185912847Y-94387215D01*
X186198842Y-94234347D01*
X186468476Y-94054183D01*
X186719153Y-93848458D01*
X186948458Y-93619153D01*
X187154183Y-93368476D01*
X187334347Y-93098842D01*
X187487215Y-92812847D01*
X187611314Y-92513246D01*
X187705449Y-92202923D01*
X187705451Y-92202913D01*
X187705454Y-92202902D01*
X187751685Y-91970477D01*
X187768714Y-91884868D01*
X187800500Y-91562143D01*
X187800500Y-91237857D01*
X187768714Y-90915132D01*
X187729710Y-90719043D01*
X187705454Y-90597097D01*
X187705451Y-90597086D01*
X187705450Y-90597083D01*
X187705449Y-90597077D01*
X187611314Y-90286754D01*
X187487215Y-89987153D01*
X187426409Y-89873394D01*
X187334353Y-89701169D01*
X187334352Y-89701167D01*
X187334347Y-89701158D01*
X187154183Y-89431524D01*
X186948458Y-89180847D01*
X186948457Y-89180846D01*
X186948453Y-89180841D01*
X186719158Y-88951546D01*
X186468481Y-88745821D01*
X186468466Y-88745810D01*
X186463285Y-88742348D01*
X186463284Y-88742347D01*
X186314184Y-88642722D01*
X191299500Y-88642722D01*
X191299500Y-88957277D01*
X191334716Y-89269827D01*
X191334718Y-89269843D01*
X191404710Y-89576499D01*
X191404711Y-89576501D01*
X191508598Y-89873395D01*
X191645072Y-90156786D01*
X191645074Y-90156789D01*
X191812423Y-90423123D01*
X191912527Y-90548649D01*
X192000499Y-90658963D01*
X192008539Y-90669044D01*
X192230956Y-90891461D01*
X192476877Y-91087577D01*
X192743211Y-91254926D01*
X193026606Y-91391402D01*
X193323500Y-91495289D01*
X193630160Y-91565282D01*
X193942723Y-91600499D01*
X193942724Y-91600500D01*
X193942727Y-91600500D01*
X194257276Y-91600500D01*
X194257276Y-91600499D01*
X194569840Y-91565282D01*
X194876500Y-91495289D01*
X195173394Y-91391402D01*
X195456789Y-91254926D01*
X195723123Y-91087577D01*
X195969044Y-90891461D01*
X195987819Y-90872686D01*
X196049142Y-90839201D01*
X196118834Y-90844185D01*
X196174767Y-90886057D01*
X196199184Y-90951521D01*
X196199500Y-90960367D01*
X196199500Y-98789632D01*
X196179815Y-98856671D01*
X196127011Y-98902426D01*
X196057853Y-98912370D01*
X195994297Y-98883345D01*
X195987821Y-98877315D01*
X195969043Y-98858538D01*
X195893726Y-98798475D01*
X195723123Y-98662423D01*
X195456789Y-98495074D01*
X195456786Y-98495072D01*
X195173395Y-98358598D01*
X194876501Y-98254711D01*
X194876499Y-98254710D01*
X194569843Y-98184718D01*
X194569827Y-98184716D01*
X194257277Y-98149500D01*
X194257273Y-98149500D01*
X193942727Y-98149500D01*
X193942722Y-98149500D01*
X193630172Y-98184716D01*
X193630156Y-98184718D01*
X193323500Y-98254710D01*
X193323498Y-98254711D01*
X193026604Y-98358598D01*
X192743213Y-98495072D01*
X192476878Y-98662422D01*
X192230956Y-98858538D01*
X192008538Y-99080956D01*
X191812422Y-99326878D01*
X191645072Y-99593213D01*
X191508598Y-99876604D01*
X191404711Y-100173498D01*
X191404710Y-100173500D01*
X191334718Y-100480156D01*
X191334716Y-100480172D01*
X191299500Y-100792722D01*
X191299500Y-101107277D01*
X191334716Y-101419827D01*
X191334718Y-101419843D01*
X191404710Y-101726499D01*
X191404711Y-101726501D01*
X191508598Y-102023395D01*
X191645072Y-102306786D01*
X191645074Y-102306789D01*
X191812423Y-102573123D01*
X191952771Y-102749113D01*
X192000499Y-102808963D01*
X192008539Y-102819044D01*
X192230956Y-103041461D01*
X192476877Y-103237577D01*
X192743211Y-103404926D01*
X193026606Y-103541402D01*
X193323500Y-103645289D01*
X193630160Y-103715282D01*
X193942723Y-103750499D01*
X193942724Y-103750500D01*
X193942727Y-103750500D01*
X194257276Y-103750500D01*
X194257276Y-103750499D01*
X194569840Y-103715282D01*
X194876500Y-103645289D01*
X195173394Y-103541402D01*
X195456789Y-103404926D01*
X195723123Y-103237577D01*
X195969044Y-103041461D01*
X195987819Y-103022686D01*
X196049142Y-102989201D01*
X196118834Y-102994185D01*
X196174767Y-103036057D01*
X196199184Y-103101521D01*
X196199500Y-103110367D01*
X196199500Y-103334108D01*
X196199500Y-103465892D01*
X196203287Y-103480025D01*
X196233608Y-103593187D01*
X196257070Y-103633823D01*
X196299500Y-103707314D01*
X196392686Y-103800500D01*
X196506814Y-103866392D01*
X196634108Y-103900500D01*
X196634110Y-103900500D01*
X212665890Y-103900500D01*
X212665892Y-103900500D01*
X212793186Y-103866392D01*
X212907314Y-103800500D01*
X213000500Y-103707314D01*
X213066392Y-103593186D01*
X213100500Y-103465892D01*
X213100500Y-103110367D01*
X213120185Y-103043328D01*
X213172989Y-102997573D01*
X213242147Y-102987629D01*
X213305703Y-103016654D01*
X213312181Y-103022686D01*
X213330956Y-103041461D01*
X213576877Y-103237577D01*
X213843211Y-103404926D01*
X214126606Y-103541402D01*
X214423500Y-103645289D01*
X214730160Y-103715282D01*
X215042723Y-103750499D01*
X215042724Y-103750500D01*
X215042727Y-103750500D01*
X215357276Y-103750500D01*
X215357276Y-103750499D01*
X215669840Y-103715282D01*
X215937743Y-103654135D01*
X230541954Y-103654135D01*
X230541954Y-103654136D01*
X231494581Y-104204135D01*
X231494582Y-104204135D01*
X232119580Y-103121605D01*
X232119580Y-103121604D01*
X231558551Y-102797694D01*
X231503771Y-102773460D01*
X231361989Y-102749619D01*
X231361987Y-102749618D01*
X231219228Y-102766688D01*
X231219224Y-102766690D01*
X231087059Y-102823285D01*
X230976187Y-102914829D01*
X230940865Y-102963202D01*
X230541954Y-103654135D01*
X215937743Y-103654135D01*
X215976500Y-103645289D01*
X216273394Y-103541402D01*
X216556789Y-103404926D01*
X216823123Y-103237577D01*
X217069044Y-103041461D01*
X217291461Y-102819044D01*
X217487577Y-102573123D01*
X217654926Y-102306789D01*
X217791402Y-102023394D01*
X217895289Y-101726500D01*
X217965282Y-101419840D01*
X218000500Y-101107273D01*
X218000500Y-100792727D01*
X217965282Y-100480160D01*
X217895289Y-100173500D01*
X217791402Y-99876606D01*
X217654926Y-99593211D01*
X217487577Y-99326877D01*
X217291461Y-99080956D01*
X217069044Y-98858539D01*
X216823123Y-98662423D01*
X216556789Y-98495074D01*
X216556786Y-98495072D01*
X216273395Y-98358598D01*
X215976501Y-98254711D01*
X215976499Y-98254710D01*
X215669843Y-98184718D01*
X215669827Y-98184716D01*
X215357277Y-98149500D01*
X215357273Y-98149500D01*
X215042727Y-98149500D01*
X215042722Y-98149500D01*
X214730172Y-98184716D01*
X214730156Y-98184718D01*
X214423500Y-98254710D01*
X214423498Y-98254711D01*
X214126604Y-98358598D01*
X213843213Y-98495072D01*
X213576878Y-98662422D01*
X213330956Y-98858538D01*
X213312179Y-98877315D01*
X213250855Y-98910799D01*
X213181164Y-98905813D01*
X213125231Y-98863940D01*
X213100816Y-98798475D01*
X213100500Y-98789632D01*
X213100500Y-91010367D01*
X213120185Y-90943328D01*
X213172989Y-90897573D01*
X213242147Y-90887629D01*
X213305703Y-90916654D01*
X213312181Y-90922686D01*
X213330956Y-90941461D01*
X213576877Y-91137577D01*
X213841970Y-91304146D01*
X213843213Y-91304927D01*
X213896661Y-91330666D01*
X214126606Y-91441402D01*
X214423500Y-91545289D01*
X214730160Y-91615282D01*
X215042723Y-91650499D01*
X215042724Y-91650500D01*
X215042727Y-91650500D01*
X215357276Y-91650500D01*
X215357276Y-91650499D01*
X215669840Y-91615282D01*
X215976500Y-91545289D01*
X216273394Y-91441402D01*
X216556789Y-91304926D01*
X216663529Y-91237857D01*
X221199500Y-91237857D01*
X221199500Y-91562143D01*
X221203228Y-91599992D01*
X221231284Y-91884857D01*
X221231287Y-91884874D01*
X221294545Y-92202902D01*
X221294548Y-92202913D01*
X221388686Y-92513247D01*
X221512786Y-92812849D01*
X221512788Y-92812854D01*
X221665646Y-93098830D01*
X221665657Y-93098848D01*
X221845811Y-93368467D01*
X221845821Y-93368481D01*
X222051546Y-93619158D01*
X222280841Y-93848453D01*
X222280846Y-93848457D01*
X222280847Y-93848458D01*
X222531524Y-94054183D01*
X222801158Y-94234347D01*
X222801167Y-94234352D01*
X222801169Y-94234353D01*
X223087145Y-94387211D01*
X223087147Y-94387211D01*
X223087153Y-94387215D01*
X223386754Y-94511314D01*
X223697077Y-94605449D01*
X223697083Y-94605450D01*
X223697086Y-94605451D01*
X223697097Y-94605454D01*
X223896528Y-94645122D01*
X224015132Y-94668714D01*
X224337857Y-94700500D01*
X224337860Y-94700500D01*
X224662140Y-94700500D01*
X224662143Y-94700500D01*
X224984868Y-94668714D01*
X225142295Y-94637399D01*
X225302902Y-94605454D01*
X225302913Y-94605451D01*
X225302913Y-94605450D01*
X225302923Y-94605449D01*
X225613246Y-94511314D01*
X225912847Y-94387215D01*
X226198842Y-94234347D01*
X226468476Y-94054183D01*
X226719153Y-93848458D01*
X226948458Y-93619153D01*
X227154183Y-93368476D01*
X227334347Y-93098842D01*
X227487215Y-92812847D01*
X227611314Y-92513246D01*
X227705449Y-92202923D01*
X227705451Y-92202913D01*
X227705454Y-92202902D01*
X227751685Y-91970477D01*
X227768714Y-91884868D01*
X227800500Y-91562143D01*
X227800500Y-91237857D01*
X227768714Y-90915132D01*
X227729710Y-90719043D01*
X227705454Y-90597097D01*
X227705451Y-90597086D01*
X227705450Y-90597083D01*
X227705449Y-90597077D01*
X227611314Y-90286754D01*
X227487215Y-89987153D01*
X227426409Y-89873394D01*
X227334353Y-89701169D01*
X227334352Y-89701167D01*
X227334347Y-89701158D01*
X227154183Y-89431524D01*
X226948458Y-89180847D01*
X226948457Y-89180846D01*
X226948453Y-89180841D01*
X226719158Y-88951546D01*
X226468481Y-88745821D01*
X226468480Y-88745820D01*
X226468476Y-88745817D01*
X226198842Y-88565653D01*
X226178323Y-88554685D01*
X226178322Y-88554684D01*
X225979913Y-88448632D01*
X233571833Y-88448632D01*
X233571833Y-89246477D01*
X234671833Y-89246477D01*
X234671833Y-87996477D01*
X234023988Y-87996477D01*
X233964460Y-88002878D01*
X233964453Y-88002880D01*
X233829746Y-88053122D01*
X233829739Y-88053126D01*
X233714645Y-88139286D01*
X233714642Y-88139289D01*
X233628482Y-88254383D01*
X233628478Y-88254390D01*
X233578236Y-88389097D01*
X233578234Y-88389104D01*
X233571833Y-88448632D01*
X225979913Y-88448632D01*
X225912854Y-88412788D01*
X225912849Y-88412786D01*
X225855410Y-88388994D01*
X225713373Y-88330160D01*
X225613247Y-88288686D01*
X225302913Y-88194548D01*
X225302902Y-88194545D01*
X224984874Y-88131287D01*
X224984857Y-88131284D01*
X224740812Y-88107248D01*
X224662143Y-88099500D01*
X224337857Y-88099500D01*
X224265099Y-88106666D01*
X224015142Y-88131284D01*
X224015125Y-88131287D01*
X223697097Y-88194545D01*
X223697086Y-88194548D01*
X223386752Y-88288686D01*
X223087150Y-88412786D01*
X223087145Y-88412788D01*
X222801169Y-88565646D01*
X222801151Y-88565657D01*
X222531532Y-88745811D01*
X222531518Y-88745821D01*
X222280841Y-88951546D01*
X222051546Y-89180841D01*
X221845821Y-89431518D01*
X221845811Y-89431532D01*
X221665657Y-89701151D01*
X221665646Y-89701169D01*
X221512788Y-89987145D01*
X221512786Y-89987150D01*
X221388686Y-90286752D01*
X221294548Y-90597086D01*
X221294545Y-90597097D01*
X221231287Y-90915125D01*
X221231284Y-90915142D01*
X221214301Y-91087577D01*
X221199500Y-91237857D01*
X216663529Y-91237857D01*
X216823123Y-91137577D01*
X217069044Y-90941461D01*
X217291461Y-90719044D01*
X217487577Y-90473123D01*
X217654926Y-90206789D01*
X217791402Y-89923394D01*
X217895289Y-89626500D01*
X217965282Y-89319840D01*
X218000500Y-89007273D01*
X218000500Y-88692727D01*
X217965282Y-88380160D01*
X217895289Y-88073500D01*
X217791402Y-87776606D01*
X217654926Y-87493211D01*
X217487577Y-87226877D01*
X217291461Y-86980956D01*
X217069044Y-86758539D01*
X217029890Y-86727315D01*
X216993726Y-86698475D01*
X216823123Y-86562423D01*
X216611567Y-86429493D01*
X216565277Y-86377159D01*
X216554629Y-86308106D01*
X216583004Y-86244257D01*
X216641393Y-86205885D01*
X216677540Y-86200500D01*
X217265890Y-86200500D01*
X217265892Y-86200500D01*
X217393186Y-86166392D01*
X217507314Y-86100500D01*
X217600500Y-86007314D01*
X217666392Y-85893186D01*
X217700500Y-85765892D01*
X217700500Y-78734108D01*
X217666392Y-78606814D01*
X217600500Y-78492686D01*
X217507314Y-78399500D01*
X217449597Y-78366177D01*
X217393187Y-78333608D01*
X217322418Y-78314646D01*
X217265892Y-78299500D01*
X192165892Y-78299500D01*
X192034108Y-78299500D01*
X191906812Y-78333608D01*
X191792686Y-78399500D01*
X191792683Y-78399502D01*
X191699502Y-78492683D01*
X191699500Y-78492686D01*
X191633608Y-78606812D01*
X191599500Y-78734108D01*
X191599500Y-85765891D01*
X191633608Y-85893187D01*
X191666554Y-85950250D01*
X191699500Y-86007314D01*
X191792686Y-86100500D01*
X191906814Y-86166392D01*
X192034108Y-86200500D01*
X192542886Y-86200500D01*
X192609925Y-86220185D01*
X192655680Y-86272989D01*
X192665624Y-86342147D01*
X192636599Y-86405703D01*
X192608858Y-86429494D01*
X192476878Y-86512422D01*
X192230956Y-86708538D01*
X192008538Y-86930956D01*
X191812422Y-87176878D01*
X191645072Y-87443213D01*
X191508598Y-87726604D01*
X191404711Y-88023498D01*
X191404710Y-88023500D01*
X191334718Y-88330156D01*
X191334716Y-88330172D01*
X191299500Y-88642722D01*
X186314184Y-88642722D01*
X186198848Y-88565657D01*
X186198847Y-88565656D01*
X186198842Y-88565653D01*
X186198837Y-88565650D01*
X186198830Y-88565646D01*
X185912854Y-88412788D01*
X185912849Y-88412786D01*
X185855410Y-88388994D01*
X185713373Y-88330160D01*
X185613247Y-88288686D01*
X185302913Y-88194548D01*
X185302902Y-88194545D01*
X184984874Y-88131287D01*
X184984857Y-88131284D01*
X184740812Y-88107248D01*
X184662143Y-88099500D01*
X184337857Y-88099500D01*
X184265099Y-88106666D01*
X184015142Y-88131284D01*
X184015125Y-88131287D01*
X183697097Y-88194545D01*
X183697086Y-88194548D01*
X183386752Y-88288686D01*
X183087150Y-88412786D01*
X183087145Y-88412788D01*
X182801169Y-88565646D01*
X182801151Y-88565657D01*
X182531532Y-88745811D01*
X182531518Y-88745821D01*
X182280841Y-88951546D01*
X182051546Y-89180841D01*
X181845821Y-89431518D01*
X181845811Y-89431532D01*
X181665657Y-89701151D01*
X181665646Y-89701169D01*
X181512788Y-89987145D01*
X181512786Y-89987150D01*
X181388686Y-90286752D01*
X181294548Y-90597086D01*
X181294545Y-90597097D01*
X181231287Y-90915125D01*
X181231284Y-90915142D01*
X181214301Y-91087577D01*
X181199500Y-91237857D01*
X176771833Y-91237857D01*
X176771833Y-90548649D01*
X176771832Y-90548632D01*
X176765431Y-90489104D01*
X176765430Y-90489100D01*
X176719339Y-90365526D01*
X176714355Y-90295834D01*
X176719334Y-90278871D01*
X176765924Y-90153960D01*
X176772333Y-90094350D01*
X176772332Y-88448605D01*
X176765924Y-88388994D01*
X176743980Y-88330160D01*
X176715630Y-88254148D01*
X176715626Y-88254141D01*
X176629380Y-88138932D01*
X176629377Y-88138929D01*
X176514168Y-88052683D01*
X176514161Y-88052679D01*
X176379315Y-88002385D01*
X176379316Y-88002385D01*
X176319716Y-87995978D01*
X176319714Y-87995977D01*
X176319706Y-87995977D01*
X176319697Y-87995977D01*
X174023962Y-87995977D01*
X174023956Y-87995978D01*
X173964349Y-88002385D01*
X173829504Y-88052679D01*
X173829497Y-88052683D01*
X173714288Y-88138929D01*
X173714287Y-88138930D01*
X173678639Y-88186549D01*
X173678231Y-88186854D01*
X173678049Y-88187331D01*
X173650297Y-88207764D01*
X173622705Y-88228419D01*
X173622195Y-88228455D01*
X173621785Y-88228758D01*
X173587436Y-88230940D01*
X173553013Y-88233402D01*
X173552563Y-88233156D01*
X173552056Y-88233189D01*
X173521967Y-88216448D01*
X173491691Y-88199915D01*
X173491446Y-88199467D01*
X173491000Y-88199219D01*
X173474728Y-88168848D01*
X173458207Y-88138591D01*
X173458162Y-88137929D01*
X173458003Y-88137632D01*
X173455764Y-88102413D01*
X173460197Y-88046649D01*
X173460362Y-88044775D01*
X173508025Y-87545637D01*
X173508227Y-87543680D01*
X173563803Y-87045354D01*
X173564022Y-87043526D01*
X173627502Y-86546101D01*
X173627738Y-86544363D01*
X173699118Y-86047906D01*
X173699409Y-86045995D01*
X173778615Y-85550992D01*
X173778941Y-85549052D01*
X173866018Y-85055208D01*
X173866340Y-85053466D01*
X173961260Y-84560976D01*
X173961614Y-84559212D01*
X174064318Y-84068379D01*
X174064708Y-84066584D01*
X174175184Y-83577450D01*
X174175621Y-83575585D01*
X174293827Y-83088330D01*
X174294306Y-83086422D01*
X174420245Y-82601040D01*
X174420718Y-82599279D01*
X174554336Y-82115978D01*
X174554859Y-82114144D01*
X174696108Y-81633094D01*
X174696677Y-81631211D01*
X174845580Y-81152337D01*
X174846099Y-81150713D01*
X175002613Y-80674162D01*
X175003173Y-80672503D01*
X175167223Y-80198511D01*
X175167807Y-80196868D01*
X175339361Y-79725526D01*
X175339961Y-79723918D01*
X175518927Y-79255475D01*
X175519630Y-79253677D01*
X175706027Y-78788078D01*
X175706676Y-78786494D01*
X175838682Y-78471347D01*
X178224083Y-78471347D01*
X178224083Y-78471348D01*
X178785120Y-78795263D01*
X178839893Y-78819493D01*
X178981675Y-78843334D01*
X178981677Y-78843335D01*
X179124436Y-78826265D01*
X179124440Y-78826263D01*
X179256605Y-78769668D01*
X179367477Y-78678124D01*
X179402799Y-78629752D01*
X179801709Y-77938817D01*
X179801709Y-77938816D01*
X178849082Y-77388817D01*
X178849081Y-77388817D01*
X178224083Y-78471347D01*
X175838682Y-78471347D01*
X175900446Y-78323893D01*
X175901210Y-78322112D01*
X176102188Y-77862886D01*
X176102991Y-77861090D01*
X176216694Y-77612116D01*
X176311272Y-77405017D01*
X176312060Y-77403326D01*
X176361673Y-77299097D01*
X176408259Y-77247028D01*
X176475602Y-77228410D01*
X176542321Y-77249155D01*
X176587232Y-77302679D01*
X176596758Y-77337672D01*
X176600513Y-77369075D01*
X176657110Y-77501245D01*
X176748651Y-77612114D01*
X176748654Y-77612116D01*
X176797014Y-77647428D01*
X176797028Y-77647438D01*
X177358056Y-77971347D01*
X177358057Y-77971347D01*
X178171057Y-76563190D01*
X178221624Y-76514974D01*
X178290231Y-76501751D01*
X178340444Y-76517803D01*
X178666069Y-76705803D01*
X178666070Y-76705803D01*
X178854070Y-76380177D01*
X178904637Y-76331962D01*
X178973244Y-76318738D01*
X179023457Y-76334790D01*
X180301710Y-77072790D01*
X180301711Y-77072790D01*
X180700621Y-76381859D01*
X180724853Y-76327082D01*
X180724854Y-76327076D01*
X180746726Y-76197014D01*
X180777255Y-76134167D01*
X180790055Y-76121962D01*
X180892852Y-76037086D01*
X180928207Y-75988667D01*
X181751079Y-74563409D01*
X181775335Y-74508581D01*
X181799202Y-74366652D01*
X181799200Y-74366639D01*
X228544967Y-74366639D01*
X228544968Y-74366641D01*
X228568809Y-74508422D01*
X228568811Y-74508428D01*
X228593043Y-74563205D01*
X228991952Y-75254136D01*
X228991953Y-75254136D01*
X229944580Y-74704137D01*
X229944580Y-74704136D01*
X229319582Y-73621605D01*
X229319581Y-73621605D01*
X228758553Y-73945515D01*
X228758539Y-73945525D01*
X228710179Y-73980837D01*
X228710176Y-73980839D01*
X228618635Y-74091708D01*
X228562038Y-74223878D01*
X228544967Y-74366639D01*
X181799200Y-74366639D01*
X181788966Y-74281042D01*
X181782115Y-74223747D01*
X181782114Y-74223744D01*
X181782113Y-74223741D01*
X181725462Y-74091447D01*
X181725461Y-74091446D01*
X181725461Y-74091445D01*
X181634136Y-73980839D01*
X181633825Y-73980462D01*
X181585415Y-73945114D01*
X181585400Y-73945104D01*
X179597228Y-72797234D01*
X179542405Y-72772981D01*
X179542402Y-72772980D01*
X179400476Y-72749114D01*
X179400471Y-72749113D01*
X179360053Y-72753946D01*
X179357041Y-72753439D01*
X179354180Y-72754507D01*
X179322813Y-72747683D01*
X179291151Y-72742359D01*
X179287990Y-72740108D01*
X179285907Y-72739655D01*
X179257653Y-72718504D01*
X179231390Y-72692241D01*
X179183100Y-72643950D01*
X179149616Y-72582629D01*
X179154600Y-72512937D01*
X179169772Y-72484349D01*
X179367832Y-72206213D01*
X179368915Y-72204716D01*
X179666318Y-71800791D01*
X179667381Y-71799372D01*
X179971111Y-71400275D01*
X179972147Y-71398935D01*
X180282263Y-71004591D01*
X180283309Y-71003282D01*
X180599558Y-70614012D01*
X180600700Y-70612629D01*
X180923125Y-70228377D01*
X180924244Y-70227065D01*
X180991778Y-70149127D01*
X181050556Y-70111354D01*
X181120425Y-70111354D01*
X181179203Y-70149129D01*
X181208228Y-70212685D01*
X181208893Y-70242484D01*
X181199500Y-70337859D01*
X181199500Y-70662139D01*
X181231284Y-70984857D01*
X181231287Y-70984874D01*
X181294545Y-71302902D01*
X181294548Y-71302913D01*
X181388686Y-71613247D01*
X181512786Y-71912849D01*
X181512788Y-71912854D01*
X181665646Y-72198830D01*
X181665657Y-72198848D01*
X181845811Y-72468467D01*
X181845821Y-72468481D01*
X182051546Y-72719158D01*
X182280841Y-72948453D01*
X182280846Y-72948457D01*
X182280847Y-72948458D01*
X182531524Y-73154183D01*
X182801158Y-73334347D01*
X182801167Y-73334352D01*
X182801169Y-73334353D01*
X183087145Y-73487211D01*
X183087147Y-73487211D01*
X183087153Y-73487215D01*
X183386754Y-73611314D01*
X183697077Y-73705449D01*
X183697083Y-73705450D01*
X183697086Y-73705451D01*
X183697097Y-73705454D01*
X183896528Y-73745122D01*
X184015132Y-73768714D01*
X184337857Y-73800500D01*
X184337860Y-73800500D01*
X184662140Y-73800500D01*
X184662143Y-73800500D01*
X184984868Y-73768714D01*
X185142295Y-73737399D01*
X185302902Y-73705454D01*
X185302913Y-73705451D01*
X185302913Y-73705450D01*
X185302923Y-73705449D01*
X185613246Y-73611314D01*
X185912847Y-73487215D01*
X186198842Y-73334347D01*
X186468476Y-73154183D01*
X186719153Y-72948458D01*
X186948458Y-72719153D01*
X187154183Y-72468476D01*
X187334347Y-72198842D01*
X187487215Y-71912847D01*
X187611314Y-71613246D01*
X187705449Y-71302923D01*
X187705451Y-71302913D01*
X187705454Y-71302902D01*
X187746128Y-71098417D01*
X187768714Y-70984868D01*
X187800500Y-70662143D01*
X187800500Y-70337857D01*
X187768714Y-70015132D01*
X187724495Y-69792826D01*
X187705454Y-69697097D01*
X187705451Y-69697086D01*
X187705450Y-69697083D01*
X187705449Y-69697077D01*
X187611314Y-69386754D01*
X187487215Y-69087153D01*
X187451307Y-69019975D01*
X187334353Y-68801169D01*
X187334352Y-68801167D01*
X187334347Y-68801158D01*
X187154183Y-68531524D01*
X186948458Y-68280847D01*
X186948457Y-68280846D01*
X186948453Y-68280841D01*
X186719158Y-68051546D01*
X186468481Y-67845821D01*
X186468480Y-67845820D01*
X186468476Y-67845817D01*
X186198842Y-67665653D01*
X186198837Y-67665650D01*
X186198830Y-67665646D01*
X185912854Y-67512788D01*
X185912849Y-67512786D01*
X185613247Y-67388686D01*
X185302913Y-67294548D01*
X185302902Y-67294545D01*
X184984874Y-67231287D01*
X184984857Y-67231284D01*
X184740812Y-67207248D01*
X184662143Y-67199500D01*
X184337857Y-67199500D01*
X184307190Y-67202520D01*
X184198814Y-67213194D01*
X184130168Y-67200175D01*
X184079458Y-67152110D01*
X184062784Y-67084259D01*
X184085440Y-67018164D01*
X184105453Y-66996082D01*
X184478304Y-66673005D01*
X184479616Y-66671886D01*
X184507218Y-66648725D01*
X187996960Y-66648725D01*
X187996960Y-66648726D01*
X188320870Y-67209755D01*
X188320880Y-67209769D01*
X188356192Y-67258129D01*
X188356194Y-67258132D01*
X188467063Y-67349673D01*
X188599233Y-67406270D01*
X188741994Y-67423341D01*
X188741996Y-67423340D01*
X188883777Y-67399499D01*
X188883783Y-67399497D01*
X188938560Y-67375265D01*
X189629491Y-66976355D01*
X189629491Y-66976354D01*
X189079492Y-66023727D01*
X189079491Y-66023727D01*
X187996960Y-66648725D01*
X184507218Y-66648725D01*
X184863868Y-66349461D01*
X184865251Y-66348319D01*
X185254521Y-66032070D01*
X185255830Y-66031024D01*
X185650174Y-65720908D01*
X185651514Y-65719872D01*
X186050611Y-65416142D01*
X186052030Y-65415079D01*
X186455955Y-65117676D01*
X186457452Y-65116593D01*
X186865908Y-64825732D01*
X186867362Y-64824713D01*
X186948179Y-64769075D01*
X187014557Y-64747275D01*
X187082187Y-64764823D01*
X187129594Y-64816149D01*
X187141727Y-64884957D01*
X187141614Y-64885934D01*
X187124973Y-65025105D01*
X187124974Y-65025108D01*
X187148815Y-65166890D01*
X187173049Y-65221670D01*
X187173048Y-65221670D01*
X187496959Y-65782699D01*
X187496960Y-65782699D01*
X188905117Y-64969700D01*
X188973017Y-64953227D01*
X189039044Y-64976080D01*
X189074504Y-65015087D01*
X189262504Y-65340713D01*
X189262505Y-65340713D01*
X189588130Y-65152713D01*
X189656030Y-65136240D01*
X189722057Y-65159092D01*
X189757517Y-65198100D01*
X190495517Y-66476353D01*
X190495518Y-66476353D01*
X191186453Y-66077443D01*
X191234826Y-66042120D01*
X191234828Y-66042118D01*
X191318799Y-65940419D01*
X191376662Y-65901256D01*
X191393850Y-65897086D01*
X191484996Y-65881759D01*
X191525309Y-65874980D01*
X191525309Y-65874979D01*
X191525314Y-65874979D01*
X191580142Y-65850724D01*
X193005399Y-65027851D01*
X193053819Y-64992496D01*
X193145453Y-64881515D01*
X193202108Y-64749213D01*
X193219194Y-64606321D01*
X217124974Y-64606321D01*
X217142044Y-64749080D01*
X217142046Y-64749084D01*
X217198641Y-64881249D01*
X217290185Y-64992121D01*
X217338557Y-65027443D01*
X218029491Y-65426353D01*
X218029492Y-65426353D01*
X218579491Y-64473726D01*
X218579491Y-64473725D01*
X217496961Y-63848727D01*
X217496960Y-63848727D01*
X217173050Y-64409757D01*
X217148816Y-64464537D01*
X217124975Y-64606319D01*
X217124974Y-64606321D01*
X193219194Y-64606321D01*
X193219195Y-64606309D01*
X193195328Y-64464379D01*
X193171073Y-64409551D01*
X192903659Y-63946377D01*
X192023204Y-62421384D01*
X192021122Y-62418533D01*
X192005017Y-62396476D01*
X191987845Y-62372957D01*
X191876864Y-62281323D01*
X191770612Y-62235823D01*
X191716734Y-62191338D01*
X191695460Y-62124786D01*
X191713544Y-62057297D01*
X191765244Y-62010298D01*
X191767914Y-62009041D01*
X191909631Y-61944321D01*
X202371833Y-61944321D01*
X202378234Y-62003849D01*
X202378236Y-62003856D01*
X202428478Y-62138563D01*
X202428482Y-62138570D01*
X202514642Y-62253664D01*
X202514645Y-62253667D01*
X202629739Y-62339827D01*
X202629746Y-62339831D01*
X202764453Y-62390073D01*
X202764460Y-62390075D01*
X202823988Y-62396476D01*
X202824005Y-62396477D01*
X203621833Y-62396477D01*
X203621833Y-61296477D01*
X202371833Y-61296477D01*
X202371833Y-61944321D01*
X191909631Y-61944321D01*
X192112329Y-61851752D01*
X192114092Y-61850963D01*
X192573380Y-61649958D01*
X192575132Y-61649207D01*
X193037733Y-61455437D01*
X193039317Y-61454788D01*
X193504947Y-61268378D01*
X193506714Y-61267688D01*
X193975157Y-61088722D01*
X193976765Y-61088122D01*
X194448107Y-60916568D01*
X194449750Y-60915984D01*
X194923742Y-60751934D01*
X194925401Y-60751374D01*
X195401952Y-60594860D01*
X195403576Y-60594341D01*
X195882470Y-60445431D01*
X195884312Y-60444875D01*
X196365438Y-60303604D01*
X196367217Y-60303097D01*
X196850518Y-60169479D01*
X196852279Y-60169006D01*
X197337697Y-60043057D01*
X197339534Y-60042596D01*
X197826870Y-59924371D01*
X197828689Y-59923945D01*
X198317823Y-59813469D01*
X198319618Y-59813079D01*
X198810451Y-59710375D01*
X198812215Y-59710021D01*
X199304705Y-59615101D01*
X199306447Y-59614779D01*
X199800338Y-59527694D01*
X199802182Y-59527384D01*
X200297271Y-59448164D01*
X200299145Y-59447879D01*
X200795602Y-59376499D01*
X200797340Y-59376263D01*
X201294765Y-59312783D01*
X201296593Y-59312564D01*
X201794942Y-59256985D01*
X201796876Y-59256786D01*
X202296014Y-59209123D01*
X202297878Y-59208959D01*
X202358564Y-59204134D01*
X202426950Y-59218444D01*
G37*
%TD.AperFunction*%
%TD*%
%TA.AperFunction,Conductor*%
%TO.N,Net-(D8-A)*%
G36*
X187180646Y-118551155D02*
G01*
X187183331Y-118555327D01*
X187527459Y-119474892D01*
X187527149Y-119483842D01*
X187523648Y-119488257D01*
X186935079Y-119942320D01*
X186926435Y-119944660D01*
X186924886Y-119944353D01*
X186341926Y-119787177D01*
X186334830Y-119781714D01*
X186333675Y-119772834D01*
X186333714Y-119772693D01*
X186414235Y-119488257D01*
X186678077Y-118556240D01*
X186683628Y-118549214D01*
X186689335Y-118547728D01*
X187172373Y-118547728D01*
X187180646Y-118551155D01*
G37*
%TD.AperFunction*%
%TD*%
%TA.AperFunction,Conductor*%
%TO.N,/EN*%
G36*
X205250774Y-114594760D02*
G01*
X205253132Y-114598147D01*
X205803038Y-115794690D01*
X205803379Y-115803638D01*
X205799966Y-115808506D01*
X205107559Y-116394601D01*
X205099030Y-116397331D01*
X205092441Y-116394601D01*
X204400033Y-115808506D01*
X204395932Y-115800546D01*
X204396960Y-115794693D01*
X204946868Y-114598146D01*
X204953437Y-114592061D01*
X204957499Y-114591333D01*
X205242501Y-114591333D01*
X205250774Y-114594760D01*
G37*
%TD.AperFunction*%
%TD*%
%TA.AperFunction,Conductor*%
%TO.N,Net-(D10-A)*%
G36*
X171349745Y-89422348D02*
G01*
X172089513Y-89746929D01*
X172095712Y-89753391D01*
X172096512Y-89757643D01*
X172096512Y-90242356D01*
X172093085Y-90250629D01*
X172089513Y-90253070D01*
X171349745Y-90577651D01*
X171340792Y-90577837D01*
X171336523Y-90574955D01*
X171031344Y-90250629D01*
X170803055Y-90008016D01*
X170799882Y-89999644D01*
X170803055Y-89991983D01*
X171336524Y-89425043D01*
X171344688Y-89421367D01*
X171349745Y-89422348D01*
G37*
%TD.AperFunction*%
%TD*%
%TA.AperFunction,Conductor*%
%TO.N,Net-(D11-A)*%
G36*
X176023816Y-72537202D02*
G01*
X177240270Y-72881565D01*
X177247297Y-72887116D01*
X177248783Y-72892823D01*
X177248783Y-73375860D01*
X177245356Y-73384133D01*
X177241184Y-73386818D01*
X176321617Y-73730947D01*
X176312667Y-73730637D01*
X176308252Y-73727136D01*
X176045708Y-73386818D01*
X175854189Y-73138565D01*
X175851850Y-73129923D01*
X175852153Y-73128389D01*
X176009333Y-72545412D01*
X176014795Y-72538318D01*
X176023675Y-72537163D01*
X176023816Y-72537202D01*
G37*
%TD.AperFunction*%
%TD*%
%TA.AperFunction,Conductor*%
%TO.N,/EN*%
G36*
X212398298Y-117012548D02*
G01*
X212404201Y-117019281D01*
X212404591Y-117020729D01*
X212480534Y-117397689D01*
X212480534Y-117402311D01*
X212404591Y-117779270D01*
X212399597Y-117786703D01*
X212390810Y-117788429D01*
X212389362Y-117788039D01*
X212363513Y-117779270D01*
X212296630Y-117756580D01*
X211695627Y-117552693D01*
X211688894Y-117546790D01*
X211687686Y-117541613D01*
X211687686Y-117258386D01*
X211691113Y-117250113D01*
X211695627Y-117247306D01*
X212389364Y-117011960D01*
X212398298Y-117012548D01*
G37*
%TD.AperFunction*%
%TD*%
%TA.AperFunction,Conductor*%
%TO.N,Net-(D5-A)*%
G36*
X233280355Y-108269362D02*
G01*
X233284770Y-108272863D01*
X233738832Y-108861432D01*
X233741172Y-108870076D01*
X233740865Y-108871625D01*
X233583690Y-109454585D01*
X233578227Y-109461681D01*
X233569347Y-109462836D01*
X233569206Y-109462797D01*
X232352753Y-109118434D01*
X232345726Y-109112883D01*
X232344240Y-109107176D01*
X232344240Y-108624139D01*
X232347667Y-108615866D01*
X232351838Y-108613181D01*
X233271406Y-108269052D01*
X233280355Y-108269362D01*
G37*
%TD.AperFunction*%
%TD*%
%TA.AperFunction,Conductor*%
%TO.N,Net-(D1-A)*%
G36*
X206395085Y-56777878D02*
G01*
X206400963Y-56783833D01*
X206939642Y-58012296D01*
X206939826Y-58021249D01*
X206933626Y-58027710D01*
X206928927Y-58028695D01*
X206449055Y-58028695D01*
X206444767Y-58027881D01*
X205622096Y-57703808D01*
X205615654Y-57697587D01*
X205615068Y-57689950D01*
X205794975Y-57004850D01*
X205800389Y-56997722D01*
X205802170Y-56996875D01*
X206386137Y-56777579D01*
X206395085Y-56777878D01*
G37*
%TD.AperFunction*%
%TD*%
%TA.AperFunction,Conductor*%
%TO.N,Net-(D6-A)*%
G36*
X221060039Y-119405165D02*
G01*
X221062847Y-119409684D01*
X221426570Y-120483630D01*
X221521338Y-120763445D01*
X221520746Y-120772380D01*
X221514009Y-120778280D01*
X221513484Y-120778444D01*
X220936714Y-120943985D01*
X220927816Y-120942973D01*
X220926563Y-120942171D01*
X220703268Y-120778280D01*
X220322036Y-120498468D01*
X220317395Y-120490811D01*
X220318583Y-120483633D01*
X220702428Y-119746991D01*
X220704525Y-119744133D01*
X221043494Y-119405164D01*
X221051766Y-119401738D01*
X221060039Y-119405165D01*
G37*
%TD.AperFunction*%
%TD*%
%TA.AperFunction,Conductor*%
%TO.N,Net-(D12-A)*%
G36*
X189399982Y-61143977D02*
G01*
X189407782Y-61148375D01*
X189409587Y-61151644D01*
X189666943Y-61869606D01*
X189666509Y-61878550D01*
X189664202Y-61881827D01*
X189321761Y-62224268D01*
X189313488Y-62227695D01*
X189308413Y-62226537D01*
X188562071Y-61867280D01*
X188556103Y-61860604D01*
X188555548Y-61855201D01*
X188660307Y-61065896D01*
X188664791Y-61058147D01*
X188673312Y-61055822D01*
X189399982Y-61143977D01*
G37*
%TD.AperFunction*%
%TD*%
%TA.AperFunction,Conductor*%
%TO.N,Net-(D7-A)*%
G36*
X204047142Y-123703427D02*
G01*
X204049583Y-123706999D01*
X204374163Y-124446766D01*
X204374349Y-124455719D01*
X204371467Y-124459988D01*
X203804530Y-124993455D01*
X203796156Y-124996629D01*
X203788494Y-124993455D01*
X203221556Y-124459988D01*
X203217879Y-124451823D01*
X203218860Y-124446766D01*
X203543441Y-123706999D01*
X203549903Y-123700800D01*
X203554155Y-123700000D01*
X204038869Y-123700000D01*
X204047142Y-123703427D01*
G37*
%TD.AperFunction*%
%TD*%
%TA.AperFunction,Conductor*%
%TO.N,Net-(Q1-S)*%
G36*
X204964812Y-54124621D02*
G01*
X205505093Y-54130613D01*
X205506883Y-54130645D01*
X206047151Y-54144626D01*
X206048890Y-54144684D01*
X206588917Y-54166651D01*
X206590656Y-54166735D01*
X207130212Y-54196679D01*
X207131864Y-54196783D01*
X207670973Y-54234704D01*
X207672743Y-54234841D01*
X208211259Y-54280730D01*
X208212839Y-54280876D01*
X208750655Y-54334725D01*
X208752375Y-54334910D01*
X209289265Y-54396694D01*
X209290959Y-54396902D01*
X209826910Y-54466622D01*
X209828586Y-54466853D01*
X210363400Y-54544482D01*
X210365185Y-54544754D01*
X210898726Y-54630270D01*
X210900403Y-54630551D01*
X211432783Y-54723973D01*
X211434381Y-54724265D01*
X211965358Y-54825555D01*
X211966950Y-54825871D01*
X212496338Y-54934992D01*
X212497995Y-54935346D01*
X213025534Y-55052243D01*
X213027254Y-55052636D01*
X213553142Y-55177349D01*
X213554906Y-55177783D01*
X214078744Y-55310220D01*
X214080374Y-55310645D01*
X214602398Y-55450865D01*
X214604002Y-55451309D01*
X215123795Y-55599203D01*
X215125386Y-55599667D01*
X215643042Y-55755261D01*
X215644716Y-55755778D01*
X216159798Y-55918939D01*
X216161504Y-55919493D01*
X216674295Y-56090310D01*
X216675906Y-56090861D01*
X217185980Y-56269192D01*
X217187599Y-56269771D01*
X217695179Y-56455695D01*
X217696754Y-56456286D01*
X218201334Y-56649620D01*
X218202954Y-56650254D01*
X218704683Y-56851051D01*
X218706377Y-56851744D01*
X219205059Y-57059926D01*
X219206596Y-57060581D01*
X219702167Y-57276122D01*
X219703784Y-57276839D01*
X219895893Y-57363794D01*
X220196045Y-57499652D01*
X220197710Y-57500420D01*
X220439460Y-57614179D01*
X220686645Y-57730495D01*
X220688283Y-57731281D01*
X220819520Y-57795423D01*
X221173723Y-57968540D01*
X221175364Y-57969357D01*
X221657312Y-58213801D01*
X221658936Y-58214641D01*
X221973741Y-58380206D01*
X222137087Y-58466114D01*
X222138687Y-58466970D01*
X222613185Y-58725548D01*
X222614735Y-58726408D01*
X223078946Y-58988354D01*
X223085376Y-58991982D01*
X223086826Y-58992814D01*
X223553609Y-59265387D01*
X223555010Y-59266219D01*
X224017650Y-59545625D01*
X224019120Y-59546528D01*
X224477534Y-59832715D01*
X224478999Y-59833644D01*
X224777052Y-60025900D01*
X224933115Y-60126567D01*
X224934648Y-60127572D01*
X225384344Y-60427149D01*
X225385862Y-60428177D01*
X225483432Y-60495279D01*
X225831092Y-60734376D01*
X225832480Y-60735346D01*
X226128483Y-60945430D01*
X226273165Y-61048116D01*
X226274643Y-61049181D01*
X226710659Y-61368435D01*
X226712033Y-61369456D01*
X226966522Y-61561637D01*
X227143229Y-61695080D01*
X227144684Y-61696196D01*
X227571079Y-62028207D01*
X227572516Y-62029343D01*
X227993817Y-62367508D01*
X227995239Y-62368666D01*
X228411626Y-62713131D01*
X228412982Y-62714269D01*
X228812031Y-63054453D01*
X228824178Y-63064808D01*
X228825564Y-63066008D01*
X229231548Y-63422599D01*
X229232916Y-63423819D01*
X229432403Y-63604330D01*
X229633551Y-63786343D01*
X229634887Y-63787570D01*
X229651622Y-63803169D01*
X230030133Y-64155991D01*
X230031465Y-64157251D01*
X230421205Y-64531460D01*
X230422518Y-64532739D01*
X230806718Y-64912703D01*
X230808012Y-64914002D01*
X231186520Y-65299569D01*
X231187794Y-65300886D01*
X231560592Y-65692042D01*
X231561803Y-65693331D01*
X231928870Y-66090054D01*
X231929996Y-66091290D01*
X232291067Y-66493297D01*
X232292282Y-66494669D01*
X232647375Y-66901972D01*
X232648569Y-66903363D01*
X232997541Y-67315800D01*
X232998715Y-67317208D01*
X233335955Y-67727942D01*
X233341584Y-67734797D01*
X233342737Y-67736223D01*
X233679454Y-68158911D01*
X233680527Y-68160278D01*
X234010921Y-68587848D01*
X234011986Y-68589247D01*
X234117799Y-68730448D01*
X234319393Y-68999463D01*
X234336092Y-69021746D01*
X234337180Y-69023222D01*
X234654720Y-69460281D01*
X234655787Y-69461772D01*
X234966896Y-69903567D01*
X234967940Y-69905073D01*
X235272475Y-70351405D01*
X235273497Y-70352927D01*
X235571409Y-70803728D01*
X235572408Y-70805265D01*
X235863593Y-71260371D01*
X235864570Y-71261923D01*
X236149017Y-71721322D01*
X236149970Y-71722887D01*
X236427573Y-72186403D01*
X236428504Y-72187983D01*
X236699247Y-72655591D01*
X236700154Y-72657184D01*
X236963954Y-73128746D01*
X236964837Y-73130352D01*
X237221654Y-73605790D01*
X237222512Y-73607409D01*
X237346686Y-73845646D01*
X237472243Y-74086535D01*
X237473078Y-74088167D01*
X237715697Y-74570933D01*
X237716508Y-74572577D01*
X237951952Y-75058852D01*
X237952739Y-75060507D01*
X238181018Y-75550314D01*
X238181780Y-75551982D01*
X238402758Y-76045035D01*
X238403495Y-76046713D01*
X238617147Y-76542948D01*
X238617860Y-76544637D01*
X238824200Y-77044089D01*
X238824887Y-77045789D01*
X239023755Y-77548074D01*
X239024417Y-77549783D01*
X239215915Y-78055154D01*
X239216552Y-78056873D01*
X239400485Y-78564818D01*
X239401097Y-78566546D01*
X239577541Y-79077275D01*
X239578127Y-79079012D01*
X239747003Y-79592293D01*
X239747563Y-79594039D01*
X239908819Y-80109723D01*
X239909353Y-80111476D01*
X240062980Y-80629524D01*
X240063488Y-80631286D01*
X240209428Y-81151511D01*
X240209910Y-81153279D01*
X240348140Y-81675589D01*
X240348596Y-81677365D01*
X240479093Y-82201679D01*
X240479523Y-82203461D01*
X240602270Y-82729709D01*
X240602673Y-82731498D01*
X240717605Y-83259409D01*
X240717981Y-83261203D01*
X240825111Y-83790822D01*
X240825462Y-83792621D01*
X240924753Y-84323778D01*
X240925076Y-84325583D01*
X241016485Y-84858050D01*
X241016782Y-84859858D01*
X241100326Y-85393716D01*
X241100596Y-85395530D01*
X241176234Y-85930533D01*
X241176477Y-85932350D01*
X241244189Y-86468348D01*
X241244406Y-86470168D01*
X241304203Y-87007244D01*
X241304392Y-87009067D01*
X241356235Y-87546900D01*
X241356397Y-87548726D01*
X241400278Y-88087197D01*
X241400414Y-88089026D01*
X241436338Y-88628212D01*
X241436446Y-88630042D01*
X241464391Y-89169634D01*
X241464472Y-89171465D01*
X241484436Y-89711346D01*
X241484491Y-89713179D01*
X241496472Y-90253426D01*
X241496499Y-90255258D01*
X241500494Y-90795560D01*
X241500494Y-90797394D01*
X241496499Y-91337695D01*
X241496472Y-91339527D01*
X241484491Y-91879774D01*
X241484436Y-91881607D01*
X241464472Y-92421488D01*
X241464391Y-92423319D01*
X241436446Y-92962911D01*
X241436338Y-92964741D01*
X241400414Y-93503927D01*
X241400278Y-93505756D01*
X241356397Y-94044227D01*
X241356235Y-94046053D01*
X241304392Y-94583886D01*
X241304203Y-94585709D01*
X241244406Y-95122785D01*
X241244189Y-95124605D01*
X241176477Y-95660603D01*
X241176234Y-95662420D01*
X241100596Y-96197423D01*
X241100326Y-96199237D01*
X241016782Y-96733095D01*
X241016485Y-96734903D01*
X240925076Y-97267370D01*
X240924753Y-97269175D01*
X240825462Y-97800332D01*
X240825111Y-97802131D01*
X240717981Y-98331750D01*
X240717605Y-98333544D01*
X240602673Y-98861455D01*
X240602270Y-98863244D01*
X240479523Y-99389492D01*
X240479093Y-99391274D01*
X240348596Y-99915588D01*
X240348140Y-99917364D01*
X240209910Y-100439674D01*
X240209428Y-100441442D01*
X240063488Y-100961667D01*
X240062980Y-100963429D01*
X239909353Y-101481477D01*
X239908819Y-101483230D01*
X239747563Y-101998914D01*
X239747003Y-102000660D01*
X239578127Y-102513941D01*
X239577541Y-102515678D01*
X239401097Y-103026407D01*
X239400485Y-103028135D01*
X239216552Y-103536080D01*
X239215915Y-103537799D01*
X239024417Y-104043170D01*
X239023755Y-104044879D01*
X238824887Y-104547164D01*
X238824200Y-104548864D01*
X238617860Y-105048316D01*
X238617147Y-105050005D01*
X238403495Y-105546240D01*
X238402758Y-105547918D01*
X238181780Y-106040971D01*
X238181018Y-106042639D01*
X237952739Y-106532446D01*
X237951952Y-106534101D01*
X237716508Y-107020376D01*
X237715697Y-107022020D01*
X237473078Y-107504786D01*
X237472243Y-107506418D01*
X237222513Y-107985543D01*
X237221654Y-107987163D01*
X236964837Y-108462601D01*
X236963954Y-108464207D01*
X236700154Y-108935769D01*
X236699247Y-108937362D01*
X236428504Y-109404970D01*
X236427573Y-109406550D01*
X236149970Y-109870066D01*
X236149017Y-109871631D01*
X235864570Y-110331030D01*
X235863593Y-110332582D01*
X235572408Y-110787688D01*
X235571409Y-110789225D01*
X235273497Y-111240026D01*
X235272475Y-111241548D01*
X234967940Y-111687880D01*
X234966896Y-111689386D01*
X234655787Y-112131181D01*
X234654720Y-112132672D01*
X234337180Y-112569731D01*
X234336092Y-112571207D01*
X234011986Y-113003706D01*
X234010876Y-113005164D01*
X233680586Y-113432600D01*
X233679454Y-113434042D01*
X233342737Y-113856730D01*
X233341584Y-113858156D01*
X232998715Y-114275745D01*
X232997541Y-114277153D01*
X232648569Y-114689590D01*
X232647375Y-114690981D01*
X232292282Y-115098284D01*
X232291067Y-115099656D01*
X231929996Y-115501663D01*
X231928812Y-115502962D01*
X231725414Y-115722794D01*
X231561847Y-115899575D01*
X231560592Y-115900911D01*
X231187794Y-116292067D01*
X231186520Y-116293384D01*
X230808012Y-116678951D01*
X230806718Y-116680250D01*
X230422518Y-117060214D01*
X230421205Y-117061493D01*
X230031465Y-117435702D01*
X230030133Y-117436962D01*
X229634901Y-117805370D01*
X229633551Y-117806610D01*
X229232916Y-118169134D01*
X229231548Y-118170354D01*
X228825564Y-118526945D01*
X228824178Y-118528145D01*
X228413030Y-118878643D01*
X228411626Y-118879822D01*
X227995239Y-119224287D01*
X227993817Y-119225445D01*
X227572516Y-119563610D01*
X227571079Y-119564746D01*
X227144684Y-119896757D01*
X227143229Y-119897873D01*
X226712082Y-120223460D01*
X226710611Y-120224554D01*
X226274652Y-120543765D01*
X226273165Y-120544837D01*
X225832537Y-120857567D01*
X225831034Y-120858617D01*
X225385862Y-121164776D01*
X225384344Y-121165804D01*
X224934648Y-121465381D01*
X224933115Y-121466386D01*
X224479039Y-121759283D01*
X224477491Y-121760265D01*
X224019165Y-122046397D01*
X224017603Y-122047356D01*
X223555068Y-122326699D01*
X223553508Y-122327624D01*
X223086925Y-122600082D01*
X223085376Y-122600971D01*
X222614735Y-122866545D01*
X222613132Y-122867434D01*
X222138703Y-123125974D01*
X222137087Y-123126839D01*
X221658940Y-123378310D01*
X221657312Y-123379152D01*
X221175364Y-123623596D01*
X221173723Y-123624413D01*
X220688298Y-123861665D01*
X220686645Y-123862458D01*
X220197710Y-124092533D01*
X220196045Y-124093301D01*
X219703812Y-124316101D01*
X219702137Y-124316844D01*
X219206671Y-124532340D01*
X219204984Y-124533059D01*
X218706380Y-124741208D01*
X218704683Y-124741902D01*
X218202996Y-124942682D01*
X218201289Y-124943350D01*
X217696829Y-125136638D01*
X217695113Y-125137282D01*
X217187649Y-125323164D01*
X217185923Y-125323781D01*
X216675971Y-125502070D01*
X216674236Y-125502663D01*
X216161522Y-125673454D01*
X216159778Y-125674020D01*
X215644756Y-125837162D01*
X215643005Y-125837703D01*
X215125465Y-125993262D01*
X215123705Y-125993776D01*
X214604085Y-126141621D01*
X214602318Y-126142110D01*
X214080459Y-126282286D01*
X214078685Y-126282748D01*
X213554906Y-126415170D01*
X213553126Y-126415607D01*
X213027285Y-126540309D01*
X213025498Y-126540718D01*
X212498066Y-126657591D01*
X212496273Y-126657975D01*
X211967054Y-126767061D01*
X211965256Y-126767418D01*
X211434482Y-126868669D01*
X211432679Y-126868999D01*
X210900466Y-126962391D01*
X210898658Y-126962694D01*
X210365199Y-127048196D01*
X210363387Y-127048473D01*
X209828656Y-127126090D01*
X209826840Y-127126340D01*
X209291022Y-127196043D01*
X209289202Y-127196266D01*
X208752426Y-127258037D01*
X208750604Y-127258233D01*
X208212960Y-127312065D01*
X208211134Y-127312234D01*
X207672771Y-127358109D01*
X207670944Y-127358251D01*
X207131952Y-127396164D01*
X207130122Y-127396279D01*
X206590705Y-127426215D01*
X206588874Y-127426304D01*
X206048937Y-127448267D01*
X206047105Y-127448328D01*
X205506903Y-127462307D01*
X205505070Y-127462340D01*
X204964857Y-127468331D01*
X204963024Y-127468338D01*
X204422714Y-127466341D01*
X204420881Y-127466321D01*
X203880590Y-127456335D01*
X203878757Y-127456287D01*
X203338810Y-127438319D01*
X203336978Y-127438245D01*
X202797215Y-127412291D01*
X202795385Y-127412189D01*
X202256203Y-127378267D01*
X202254374Y-127378139D01*
X201715609Y-127336237D01*
X201713783Y-127336081D01*
X201175769Y-127286228D01*
X201173944Y-127286045D01*
X200636794Y-127228249D01*
X200634973Y-127228040D01*
X200098579Y-127162291D01*
X200096762Y-127162054D01*
X199561557Y-127088405D01*
X199559742Y-127088142D01*
X199025591Y-127006573D01*
X199023781Y-127006283D01*
X198490891Y-126916826D01*
X198489086Y-126916509D01*
X197957655Y-126819199D01*
X197955854Y-126818856D01*
X197425778Y-126713673D01*
X197423982Y-126713302D01*
X196895686Y-126600328D01*
X196893897Y-126599932D01*
X196367228Y-126479138D01*
X196365444Y-126478715D01*
X195840651Y-126350157D01*
X195838874Y-126349707D01*
X195315994Y-126213392D01*
X195314223Y-126212917D01*
X194793444Y-126068895D01*
X194791681Y-126068393D01*
X194273148Y-125916705D01*
X194271393Y-125916178D01*
X193755057Y-125756810D01*
X193753309Y-125756256D01*
X193239488Y-125589306D01*
X193237748Y-125588727D01*
X192726350Y-125414163D01*
X192724620Y-125413558D01*
X192215878Y-125231461D01*
X192214157Y-125230830D01*
X191708223Y-125041255D01*
X191706511Y-125040599D01*
X191203413Y-124843556D01*
X191201711Y-124842875D01*
X190701580Y-124638417D01*
X190699888Y-124637711D01*
X190670062Y-124625000D01*
X190454326Y-124533059D01*
X190202812Y-124425870D01*
X190201131Y-124425139D01*
X189954185Y-124315556D01*
X189707212Y-124205960D01*
X189705597Y-124205229D01*
X189437865Y-124081654D01*
X189214972Y-123978774D01*
X189213313Y-123977993D01*
X188726147Y-123744336D01*
X188724501Y-123743531D01*
X188240814Y-123502684D01*
X188239247Y-123501890D01*
X187759153Y-123253908D01*
X187757537Y-123253058D01*
X187437013Y-123081449D01*
X187281159Y-122998004D01*
X187279572Y-122997139D01*
X186807010Y-122735066D01*
X186805414Y-122734166D01*
X186336807Y-122465153D01*
X186335224Y-122464228D01*
X185992508Y-122260690D01*
X185870667Y-122188329D01*
X185869144Y-122187409D01*
X185843386Y-122171592D01*
X188387296Y-122171592D01*
X188387296Y-122171593D01*
X188408924Y-122184079D01*
X188408937Y-122184085D01*
X188503129Y-122226352D01*
X188503132Y-122226353D01*
X188674833Y-122261806D01*
X188850084Y-122256708D01*
X189019430Y-122211332D01*
X189173756Y-122128120D01*
X189304727Y-122011567D01*
X189365171Y-121927862D01*
X189427663Y-121819621D01*
X188799796Y-121457123D01*
X188799795Y-121457123D01*
X188387296Y-122171592D01*
X185843386Y-122171592D01*
X185408644Y-121904629D01*
X185407193Y-121903724D01*
X184950886Y-121614142D01*
X184949346Y-121613148D01*
X184497526Y-121316955D01*
X184496000Y-121315939D01*
X184048498Y-121013025D01*
X184046988Y-121011986D01*
X183604091Y-120702544D01*
X183602596Y-120701483D01*
X183164291Y-120385503D01*
X183162812Y-120384420D01*
X182729226Y-120061997D01*
X182727763Y-120060892D01*
X182431630Y-119833806D01*
X182298950Y-119732061D01*
X182297665Y-119731061D01*
X181873636Y-119395830D01*
X181872261Y-119394726D01*
X181453448Y-119053436D01*
X181452035Y-119052268D01*
X181038200Y-118704730D01*
X181036805Y-118703540D01*
X180628269Y-118350021D01*
X180626892Y-118348812D01*
X180223549Y-117989224D01*
X180222190Y-117987994D01*
X179824245Y-117622518D01*
X179822904Y-117621268D01*
X179783536Y-117584024D01*
X179430376Y-117249920D01*
X179429084Y-117248680D01*
X179390181Y-117210771D01*
X179042058Y-116871539D01*
X179040784Y-116870279D01*
X178659437Y-116487519D01*
X178658153Y-116486211D01*
X178282506Y-116097856D01*
X178281241Y-116096529D01*
X177930276Y-115722790D01*
X177911334Y-115702618D01*
X177910099Y-115701283D01*
X177751449Y-115527252D01*
X177546061Y-115301952D01*
X177544907Y-115300667D01*
X177186800Y-114895984D01*
X177185671Y-114894690D01*
X176833532Y-114484695D01*
X176832350Y-114483298D01*
X176659929Y-114276438D01*
X176486353Y-114068192D01*
X176485295Y-114066903D01*
X176145480Y-113646739D01*
X176144352Y-113645322D01*
X175810801Y-113220198D01*
X175809680Y-113218748D01*
X175482503Y-112788808D01*
X175481403Y-112787341D01*
X175160551Y-112352521D01*
X175159474Y-112351038D01*
X174845148Y-111911614D01*
X174844123Y-111910159D01*
X174536239Y-111466005D01*
X174535224Y-111464517D01*
X174498189Y-111409367D01*
X174233960Y-111015890D01*
X174232957Y-111014370D01*
X173938413Y-110561425D01*
X173937522Y-110560033D01*
X173649583Y-110102586D01*
X173648669Y-110101109D01*
X173509629Y-109872798D01*
X173459683Y-109790783D01*
X174999918Y-109790783D01*
X175012410Y-109812420D01*
X175072848Y-109896118D01*
X175072858Y-109896130D01*
X175203823Y-110012679D01*
X175358149Y-110095891D01*
X175527497Y-110141267D01*
X175702750Y-110146366D01*
X175874452Y-110110912D01*
X175874455Y-110110911D01*
X175968634Y-110068650D01*
X175968650Y-110068642D01*
X176076886Y-110006151D01*
X175714388Y-109378285D01*
X175714387Y-109378285D01*
X174999918Y-109790783D01*
X173459683Y-109790783D01*
X173367595Y-109639570D01*
X173366654Y-109637998D01*
X173210983Y-109373660D01*
X173092464Y-109172408D01*
X173091567Y-109170858D01*
X173087751Y-109164154D01*
X172824287Y-108701257D01*
X172823409Y-108699689D01*
X172797419Y-108652414D01*
X172563073Y-108226140D01*
X172562214Y-108224549D01*
X172308926Y-107747238D01*
X172308148Y-107745746D01*
X172061903Y-107264664D01*
X172061083Y-107263031D01*
X172008308Y-107156056D01*
X171822039Y-106778484D01*
X171821240Y-106776834D01*
X171748039Y-106622755D01*
X171589323Y-106288678D01*
X171588621Y-106287172D01*
X171363941Y-105795626D01*
X171363270Y-105794131D01*
X171145890Y-105299338D01*
X171145179Y-105297687D01*
X171131380Y-105264974D01*
X170935167Y-104799805D01*
X170934467Y-104798111D01*
X170914139Y-104747857D01*
X170731824Y-104297146D01*
X170731216Y-104295609D01*
X170535980Y-103791647D01*
X170535338Y-103789951D01*
X170347625Y-103283297D01*
X170347001Y-103281573D01*
X170257023Y-103027233D01*
X170166778Y-102772140D01*
X170166236Y-102770571D01*
X169993519Y-102258398D01*
X169993007Y-102256842D01*
X169827890Y-101742201D01*
X169827354Y-101740485D01*
X169707756Y-101347857D01*
X169669905Y-101223595D01*
X169669393Y-101221867D01*
X169519594Y-100702677D01*
X169519110Y-100700950D01*
X169448375Y-100441442D01*
X169377002Y-100179595D01*
X169376567Y-100177951D01*
X169242169Y-99654508D01*
X169241737Y-99652773D01*
X169115079Y-99127342D01*
X169114714Y-99125777D01*
X168995836Y-98598524D01*
X168995485Y-98596913D01*
X168884428Y-98068024D01*
X168884072Y-98066267D01*
X168780832Y-97535729D01*
X168780543Y-97534184D01*
X168685161Y-97002190D01*
X168684856Y-97000408D01*
X168597363Y-96467149D01*
X168597085Y-96465369D01*
X168570975Y-96290046D01*
X168517488Y-95930896D01*
X168517261Y-95929295D01*
X168445557Y-95393576D01*
X168445336Y-95391824D01*
X168426530Y-95233562D01*
X168381574Y-94855236D01*
X168381375Y-94853442D01*
X168325547Y-94315905D01*
X168325376Y-94314116D01*
X168316686Y-94216406D01*
X168277506Y-93775877D01*
X168277375Y-93774261D01*
X168237461Y-93235278D01*
X168237342Y-93233488D01*
X168229439Y-93099998D01*
X168205402Y-92694001D01*
X168205318Y-92692394D01*
X168192340Y-92399986D01*
X169596513Y-92399986D01*
X169607006Y-92502697D01*
X169662153Y-92669119D01*
X169662155Y-92669124D01*
X169754196Y-92818345D01*
X169878166Y-92942315D01*
X170027387Y-93034356D01*
X170027392Y-93034358D01*
X170193814Y-93089505D01*
X170193821Y-93089506D01*
X170296531Y-93099999D01*
X170421511Y-93099999D01*
X171171512Y-93099999D01*
X171296484Y-93099999D01*
X171296498Y-93099998D01*
X171399209Y-93089505D01*
X171565631Y-93034358D01*
X171565636Y-93034356D01*
X171714857Y-92942315D01*
X171838827Y-92818345D01*
X171930868Y-92669124D01*
X171930870Y-92669119D01*
X171986017Y-92502697D01*
X171986018Y-92502690D01*
X171996511Y-92399986D01*
X171996512Y-92399973D01*
X171996512Y-92375000D01*
X171171512Y-92375000D01*
X171171512Y-93099999D01*
X170421511Y-93099999D01*
X170421512Y-93099998D01*
X170421512Y-92375000D01*
X169596513Y-92375000D01*
X169596513Y-92399986D01*
X168192340Y-92399986D01*
X168181354Y-92152443D01*
X168181289Y-92150668D01*
X168165310Y-91610419D01*
X168165275Y-91608800D01*
X168157284Y-91068305D01*
X168157271Y-91066891D01*
X168156772Y-90796477D01*
X168157271Y-90526060D01*
X168157284Y-90524649D01*
X168165275Y-89984150D01*
X168165310Y-89982537D01*
X168177596Y-89567149D01*
X168846012Y-89567149D01*
X168846012Y-90432850D01*
X168852430Y-90536235D01*
X168852431Y-90536238D01*
X168903462Y-90779615D01*
X168903465Y-90779625D01*
X168993854Y-91011269D01*
X169121151Y-91224902D01*
X169281860Y-91414649D01*
X169281862Y-91414651D01*
X169471609Y-91575360D01*
X169471615Y-91575363D01*
X169471618Y-91575366D01*
X169685239Y-91702656D01*
X169685242Y-91702657D01*
X169916886Y-91793046D01*
X169916893Y-91793048D01*
X169916898Y-91793050D01*
X170160275Y-91844081D01*
X170263670Y-91850500D01*
X170263681Y-91850500D01*
X171329343Y-91850500D01*
X171329354Y-91850500D01*
X171432749Y-91844081D01*
X171676126Y-91793050D01*
X171782226Y-91751648D01*
X171787787Y-91749631D01*
X171854189Y-91727354D01*
X172347408Y-91510948D01*
X172397230Y-91500500D01*
X172697333Y-91500500D01*
X172764372Y-91520185D01*
X172810127Y-91572989D01*
X172821333Y-91624500D01*
X172821333Y-92260638D01*
X172801648Y-92327677D01*
X172777553Y-92355193D01*
X172621741Y-92487383D01*
X172572726Y-92537181D01*
X172544459Y-92566853D01*
X172407342Y-92745334D01*
X172407338Y-92745341D01*
X172305902Y-92942315D01*
X172304288Y-92945449D01*
X172304285Y-92945454D01*
X172238623Y-93160737D01*
X172238622Y-93160742D01*
X172224312Y-93229126D01*
X172203992Y-93360700D01*
X172203991Y-93360703D01*
X172201644Y-93585774D01*
X172201645Y-93585779D01*
X172208641Y-93673778D01*
X172209540Y-93684515D01*
X172209700Y-93686328D01*
X172210566Y-93695765D01*
X172258188Y-94194472D01*
X172259102Y-94203698D01*
X172259302Y-94205639D01*
X172260455Y-94216406D01*
X172316040Y-94714814D01*
X172317208Y-94724907D01*
X172317416Y-94726643D01*
X172317439Y-94726832D01*
X172318182Y-94732842D01*
X172318638Y-94736528D01*
X172382068Y-95233562D01*
X172383370Y-95243454D01*
X172383626Y-95245348D01*
X172384995Y-95255153D01*
X172389418Y-95285915D01*
X172456392Y-95751726D01*
X172457012Y-95755916D01*
X172457898Y-95761905D01*
X172458226Y-95764058D01*
X172459682Y-95773389D01*
X172538878Y-96268331D01*
X172540395Y-96277587D01*
X172540716Y-96279500D01*
X172542530Y-96290046D01*
X172629585Y-96783759D01*
X172631377Y-96793690D01*
X172631746Y-96795688D01*
X172633516Y-96805066D01*
X172728448Y-97297618D01*
X172730346Y-97307257D01*
X172730788Y-97309456D01*
X172732776Y-97319144D01*
X172835413Y-97809658D01*
X172837453Y-97819231D01*
X172837861Y-97821104D01*
X172840060Y-97831031D01*
X172950467Y-98319855D01*
X172950506Y-98320026D01*
X172950521Y-98320091D01*
X172952680Y-98329482D01*
X172952712Y-98329622D01*
X172952730Y-98329697D01*
X172953098Y-98331274D01*
X172955505Y-98341371D01*
X173073730Y-98828709D01*
X173076040Y-98838072D01*
X173076119Y-98838386D01*
X173076516Y-98839968D01*
X173076530Y-98840021D01*
X173078986Y-98849650D01*
X173079045Y-98849879D01*
X173141663Y-99091214D01*
X173204960Y-99335167D01*
X173207636Y-99345308D01*
X173208108Y-99347067D01*
X173210661Y-99356441D01*
X173344153Y-99839284D01*
X173346899Y-99849073D01*
X173347330Y-99850585D01*
X173350244Y-99860657D01*
X173491456Y-100341580D01*
X173494294Y-100351109D01*
X173494776Y-100352703D01*
X173494849Y-100352943D01*
X173497797Y-100362561D01*
X173603017Y-100700950D01*
X173646695Y-100841421D01*
X173649647Y-100850778D01*
X173649791Y-100851235D01*
X173650244Y-100852652D01*
X173650386Y-100853094D01*
X173653222Y-100861843D01*
X173653354Y-100862245D01*
X173772032Y-101223595D01*
X173809829Y-101338677D01*
X173812962Y-101348088D01*
X173813628Y-101350062D01*
X173816761Y-101359227D01*
X173980723Y-101832963D01*
X173983962Y-101842206D01*
X173984512Y-101843758D01*
X173988024Y-101853532D01*
X173988037Y-101853567D01*
X174159562Y-102324828D01*
X174163072Y-102334351D01*
X174163703Y-102336042D01*
X174163715Y-102336073D01*
X174167179Y-102345250D01*
X174248904Y-102559164D01*
X174346091Y-102813550D01*
X174346114Y-102813609D01*
X174349534Y-102822462D01*
X174349550Y-102822502D01*
X174350266Y-102824334D01*
X174354064Y-102833934D01*
X174540444Y-103299489D01*
X174544229Y-103308836D01*
X174544258Y-103308906D01*
X174544934Y-103310558D01*
X174548667Y-103319567D01*
X174612986Y-103473119D01*
X174742420Y-103782127D01*
X174746481Y-103791712D01*
X174746518Y-103791798D01*
X174747258Y-103793525D01*
X174751099Y-103802393D01*
X174951917Y-104261251D01*
X174956092Y-104270692D01*
X174956826Y-104272333D01*
X174960931Y-104281416D01*
X174961000Y-104281566D01*
X175169218Y-104737500D01*
X175171599Y-104742662D01*
X175173145Y-104746014D01*
X175174003Y-104747857D01*
X175176951Y-104754118D01*
X175178469Y-104757341D01*
X175224967Y-104855025D01*
X175224971Y-104855032D01*
X175224972Y-104855034D01*
X175262522Y-104921282D01*
X175278455Y-104989311D01*
X175255079Y-105055154D01*
X175199816Y-105097907D01*
X175152938Y-105106415D01*
X174962714Y-105103794D01*
X174962704Y-105103795D01*
X174716899Y-105141339D01*
X174716887Y-105141342D01*
X174480613Y-105218832D01*
X174480603Y-105218836D01*
X174387874Y-105264962D01*
X174387853Y-105264974D01*
X173464953Y-105797809D01*
X173464949Y-105797812D01*
X173378617Y-105855067D01*
X173378611Y-105855072D01*
X173378610Y-105855073D01*
X173223630Y-105993846D01*
X173193353Y-106020957D01*
X173037929Y-106215067D01*
X172916572Y-106432116D01*
X172832598Y-106666177D01*
X172832597Y-106666181D01*
X172788291Y-106910867D01*
X172788290Y-106910877D01*
X172784865Y-107159511D01*
X172784866Y-107159521D01*
X172822410Y-107405327D01*
X172822412Y-107405335D01*
X172899902Y-107641610D01*
X172899907Y-107641624D01*
X172946032Y-107734351D01*
X172946040Y-107734365D01*
X172946044Y-107734373D01*
X173149793Y-108087277D01*
X173378879Y-108484066D01*
X173378881Y-108484069D01*
X173378886Y-108484077D01*
X173436143Y-108570410D01*
X173532634Y-108678170D01*
X173584912Y-108736554D01*
X173602026Y-108755666D01*
X173796139Y-108911091D01*
X174013185Y-109032447D01*
X174247248Y-109116423D01*
X174491939Y-109160729D01*
X174616262Y-109162442D01*
X174740582Y-109164155D01*
X174740582Y-109164154D01*
X174740585Y-109164155D01*
X174986405Y-109126609D01*
X175222691Y-109049114D01*
X175314826Y-109003283D01*
X176363908Y-109003283D01*
X176363908Y-109003284D01*
X176726406Y-109631150D01*
X176834652Y-109568655D01*
X176918348Y-109508219D01*
X176918350Y-109508217D01*
X177034905Y-109377244D01*
X177118117Y-109222918D01*
X177163493Y-109053572D01*
X177168592Y-108878320D01*
X177133138Y-108706621D01*
X177090869Y-108612422D01*
X177090862Y-108612408D01*
X177078377Y-108590784D01*
X176363908Y-109003283D01*
X175314826Y-109003283D01*
X175315443Y-109002976D01*
X175958466Y-108631725D01*
X176001057Y-108616643D01*
X176121751Y-108597528D01*
X176346375Y-108524543D01*
X176556817Y-108417318D01*
X176747893Y-108278492D01*
X177171893Y-107854491D01*
X177192074Y-107835938D01*
X177197819Y-107828565D01*
X177370333Y-107656050D01*
X177431654Y-107622567D01*
X177501346Y-107627551D01*
X177557279Y-107669423D01*
X177565399Y-107681733D01*
X177902543Y-108265683D01*
X177919016Y-108333583D01*
X177911909Y-108369454D01*
X177849114Y-108544970D01*
X177849114Y-108544971D01*
X177831569Y-108612599D01*
X177821932Y-108652406D01*
X177821931Y-108652414D01*
X177792432Y-108875548D01*
X177792432Y-108875550D01*
X177792432Y-108875552D01*
X177793203Y-108891571D01*
X177803249Y-109100381D01*
X177854035Y-109319652D01*
X177854036Y-109319656D01*
X177875838Y-109386033D01*
X177923992Y-109510053D01*
X177923994Y-109510056D01*
X178034487Y-109706148D01*
X178041843Y-109716833D01*
X178047551Y-109725054D01*
X178048648Y-109726619D01*
X178054370Y-109734721D01*
X178345032Y-110142898D01*
X178350541Y-110150574D01*
X178351690Y-110152163D01*
X178357859Y-110160614D01*
X178357931Y-110160713D01*
X178445425Y-110279545D01*
X178655200Y-110564456D01*
X178661555Y-110573013D01*
X178662719Y-110574566D01*
X178668347Y-110582018D01*
X178971980Y-110980990D01*
X178972001Y-110981017D01*
X178978382Y-110989330D01*
X178979342Y-110990570D01*
X178985280Y-110998181D01*
X179295284Y-111392385D01*
X179295324Y-111392435D01*
X179301901Y-111400726D01*
X179301931Y-111400763D01*
X179303082Y-111402202D01*
X179308858Y-111409367D01*
X179625088Y-111798614D01*
X179631234Y-111806118D01*
X179632464Y-111807609D01*
X179638819Y-111815247D01*
X179638948Y-111815401D01*
X179638984Y-111815444D01*
X179905169Y-112132672D01*
X179961379Y-112199660D01*
X179967667Y-112207093D01*
X179968985Y-112208640D01*
X179975488Y-112216204D01*
X180032934Y-112282500D01*
X180094024Y-112348116D01*
X180106520Y-112360612D01*
X180106528Y-112360619D01*
X180135486Y-112384845D01*
X180135487Y-112384845D01*
X180178537Y-112420860D01*
X180176203Y-112423554D01*
X180186292Y-112432296D01*
X180254041Y-112487004D01*
X180267778Y-112495518D01*
X180277203Y-112503403D01*
X180277207Y-112503405D01*
X180277208Y-112503406D01*
X180316349Y-112525721D01*
X180320238Y-112528033D01*
X180445357Y-112605583D01*
X180512634Y-112632091D01*
X180512253Y-112632928D01*
X180536291Y-112643906D01*
X180573923Y-112660354D01*
X180626552Y-112676977D01*
X180654772Y-112688096D01*
X180680126Y-112695540D01*
X180680126Y-112695539D01*
X180713065Y-112705210D01*
X180713065Y-112705211D01*
X180721752Y-112707762D01*
X180721829Y-112707783D01*
X180722741Y-112708051D01*
X180722742Y-112708051D01*
X180722754Y-112708055D01*
X180726778Y-112709237D01*
X180727604Y-112709377D01*
X180737557Y-112712123D01*
X180741872Y-112713400D01*
X180788556Y-112728146D01*
X180921203Y-112745004D01*
X180983430Y-112755248D01*
X180999708Y-112754981D01*
X181011844Y-112756524D01*
X181056922Y-112754127D01*
X181061407Y-112753972D01*
X181208484Y-112751566D01*
X181259211Y-112741500D01*
X181264857Y-112740516D01*
X181279494Y-112738309D01*
X181279508Y-112738407D01*
X181305663Y-112734647D01*
X181334508Y-112730018D01*
X181335109Y-112729928D01*
X181369115Y-112734582D01*
X181403256Y-112738924D01*
X181403727Y-112739318D01*
X181404334Y-112739402D01*
X181430457Y-112761729D01*
X181456798Y-112783813D01*
X181457219Y-112784602D01*
X181457447Y-112784797D01*
X181457607Y-112785330D01*
X181468150Y-112805090D01*
X181505568Y-112895425D01*
X181512786Y-112912849D01*
X181512788Y-112912854D01*
X181665646Y-113198830D01*
X181665657Y-113198848D01*
X181845811Y-113468467D01*
X181845821Y-113468481D01*
X182051546Y-113719158D01*
X182280841Y-113948453D01*
X182280846Y-113948457D01*
X182280847Y-113948458D01*
X182531524Y-114154183D01*
X182801158Y-114334347D01*
X182801167Y-114334352D01*
X182801169Y-114334353D01*
X183087145Y-114487211D01*
X183087147Y-114487211D01*
X183087153Y-114487215D01*
X183181641Y-114526353D01*
X183212885Y-114539295D01*
X183267288Y-114583136D01*
X183289353Y-114649430D01*
X183285861Y-114681395D01*
X183285875Y-114681398D01*
X183285835Y-114681637D01*
X183285476Y-114684929D01*
X183284968Y-114686890D01*
X183284967Y-114686894D01*
X183284967Y-114686897D01*
X183284419Y-114694302D01*
X183268347Y-114911381D01*
X183269455Y-114981197D01*
X183269456Y-114981228D01*
X183270774Y-115022185D01*
X183301795Y-115245121D01*
X183372124Y-115458936D01*
X183409206Y-115527252D01*
X183479502Y-115656759D01*
X183479507Y-115656767D01*
X183518196Y-115714920D01*
X183518209Y-115714937D01*
X183597714Y-115821698D01*
X183597716Y-115821700D01*
X183597719Y-115821704D01*
X183754865Y-115979636D01*
X183756478Y-115981257D01*
X183756489Y-115981267D01*
X183895435Y-116097856D01*
X184056783Y-116233243D01*
X184064644Y-116239784D01*
X184064768Y-116239886D01*
X184064770Y-116239888D01*
X184066049Y-116240944D01*
X184073738Y-116247241D01*
X184462691Y-116563232D01*
X184462746Y-116563276D01*
X184462784Y-116563307D01*
X184470302Y-116569367D01*
X184471765Y-116570537D01*
X184471879Y-116570628D01*
X184479003Y-116576277D01*
X184479806Y-116576914D01*
X184873997Y-116886910D01*
X184882221Y-116893322D01*
X184882251Y-116893345D01*
X184883782Y-116894529D01*
X184891217Y-116900231D01*
X184891285Y-116900283D01*
X185290190Y-117203866D01*
X185297844Y-117209645D01*
X185299418Y-117210824D01*
X185307542Y-117216857D01*
X185307698Y-117216973D01*
X185460368Y-117329382D01*
X185502681Y-117384981D01*
X185508218Y-117454631D01*
X185504778Y-117467552D01*
X185466934Y-117584024D01*
X185429987Y-117817298D01*
X185429987Y-118338566D01*
X185425298Y-118372342D01*
X185163685Y-119296481D01*
X185151762Y-119324704D01*
X185061480Y-119481078D01*
X185061474Y-119481089D01*
X185015348Y-119573818D01*
X185015344Y-119573828D01*
X184937854Y-119810102D01*
X184937851Y-119810114D01*
X184900307Y-120055919D01*
X184900306Y-120055928D01*
X184903732Y-120304568D01*
X184948038Y-120549258D01*
X184948039Y-120549263D01*
X184976203Y-120627764D01*
X185032014Y-120783324D01*
X185153371Y-121000372D01*
X185257009Y-121129808D01*
X185308796Y-121194485D01*
X185494052Y-121360368D01*
X185580385Y-121417625D01*
X185580393Y-121417630D01*
X185580395Y-121417631D01*
X185663101Y-121465381D01*
X186330089Y-121850467D01*
X186330102Y-121850473D01*
X186330110Y-121850478D01*
X186404545Y-121887504D01*
X186422841Y-121896605D01*
X186659128Y-121974099D01*
X186659133Y-121974099D01*
X186659134Y-121974100D01*
X186831141Y-122000372D01*
X186904947Y-122011645D01*
X186904949Y-122011644D01*
X186904950Y-122011645D01*
X186967108Y-122010788D01*
X187153593Y-122008220D01*
X187398285Y-121963913D01*
X187632347Y-121879938D01*
X187849394Y-121758582D01*
X188043507Y-121603156D01*
X188209389Y-121417901D01*
X188266646Y-121331568D01*
X188569158Y-120807602D01*
X189174797Y-120807602D01*
X189174797Y-120807603D01*
X189802663Y-121170101D01*
X189802664Y-121170101D01*
X189865149Y-121061875D01*
X189865158Y-121061857D01*
X189907424Y-120967666D01*
X189942878Y-120795965D01*
X189937779Y-120620712D01*
X189892403Y-120451364D01*
X189809192Y-120297041D01*
X189692638Y-120166069D01*
X189692639Y-120166069D01*
X189608939Y-120105628D01*
X189587295Y-120093132D01*
X189174797Y-120807602D01*
X188569158Y-120807602D01*
X188799488Y-120408658D01*
X188845626Y-120315906D01*
X188923121Y-120079620D01*
X188960667Y-119833800D01*
X188960340Y-119810102D01*
X188957241Y-119585157D01*
X188957241Y-119585154D01*
X188912935Y-119340463D01*
X188828959Y-119106400D01*
X188726442Y-118923048D01*
X188710907Y-118854930D01*
X188734667Y-118789225D01*
X188790178Y-118746795D01*
X188859816Y-118741112D01*
X188896674Y-118755149D01*
X190369182Y-119605301D01*
X190417398Y-119655868D01*
X190428811Y-119688558D01*
X190458481Y-119838115D01*
X190458484Y-119838124D01*
X190478169Y-119905166D01*
X190490355Y-119944293D01*
X190579662Y-120150895D01*
X190579666Y-120150903D01*
X190704431Y-120338244D01*
X190860643Y-120500296D01*
X190913447Y-120546050D01*
X191018525Y-120627762D01*
X191214063Y-120739242D01*
X191338269Y-120795965D01*
X191590553Y-120911179D01*
X191590614Y-120911206D01*
X191590777Y-120911281D01*
X191599877Y-120915393D01*
X191601419Y-120916082D01*
X191601536Y-120916135D01*
X191601673Y-120916196D01*
X191610757Y-120920214D01*
X191610835Y-120920248D01*
X191610950Y-120920299D01*
X192069834Y-121121128D01*
X192075927Y-121123767D01*
X192078708Y-121124972D01*
X192080516Y-121125747D01*
X192090100Y-121129808D01*
X192552555Y-121323517D01*
X192552620Y-121323544D01*
X192552656Y-121323559D01*
X192561581Y-121327256D01*
X192561669Y-121327292D01*
X192563490Y-121328038D01*
X192572814Y-121331814D01*
X192919365Y-121470551D01*
X193038302Y-121518167D01*
X193041603Y-121519472D01*
X193047894Y-121521962D01*
X193047976Y-121521994D01*
X193049823Y-121522716D01*
X193058618Y-121526114D01*
X193526806Y-121704983D01*
X193526919Y-121705025D01*
X193526967Y-121705044D01*
X193536161Y-121708516D01*
X193538005Y-121709204D01*
X193547476Y-121712694D01*
X194018595Y-121884167D01*
X194020554Y-121884871D01*
X194027759Y-121887463D01*
X194027875Y-121887504D01*
X194029728Y-121888162D01*
X194039219Y-121891489D01*
X194513004Y-122055468D01*
X194522407Y-122058681D01*
X194522490Y-122058709D01*
X194522531Y-122058723D01*
X194524370Y-122059343D01*
X194533612Y-122062419D01*
X194533746Y-122062463D01*
X195010070Y-122218903D01*
X195019576Y-122221983D01*
X195021450Y-122222582D01*
X195030919Y-122225568D01*
X195509667Y-122374431D01*
X195519285Y-122377379D01*
X195521168Y-122377948D01*
X195530618Y-122380763D01*
X196011668Y-122522012D01*
X196020830Y-122524662D01*
X196021543Y-122524869D01*
X196023154Y-122525328D01*
X196025263Y-122525919D01*
X196032718Y-122528012D01*
X196032852Y-122528049D01*
X196515786Y-122661566D01*
X196515835Y-122661579D01*
X196515888Y-122661594D01*
X196525124Y-122664110D01*
X196525205Y-122664131D01*
X196525206Y-122664132D01*
X196526838Y-122664570D01*
X196526875Y-122664579D01*
X196527025Y-122664620D01*
X196537029Y-122667259D01*
X197022344Y-122793181D01*
X197022476Y-122793214D01*
X197022508Y-122793223D01*
X197031861Y-122795611D01*
X197031920Y-122795625D01*
X197031956Y-122795635D01*
X197033864Y-122796114D01*
X197043576Y-122798511D01*
X197530831Y-122916717D01*
X197540831Y-122919100D01*
X197540953Y-122919129D01*
X197542518Y-122919495D01*
X197542602Y-122919514D01*
X197542746Y-122919548D01*
X197552137Y-122921707D01*
X197552254Y-122921733D01*
X197552300Y-122921744D01*
X198041196Y-123032167D01*
X198047679Y-123033603D01*
X198051081Y-123034357D01*
X198051402Y-123034426D01*
X198052996Y-123034774D01*
X198058705Y-123035990D01*
X198062548Y-123036810D01*
X198400969Y-123107622D01*
X198553083Y-123139451D01*
X198553126Y-123139459D01*
X198553232Y-123139482D01*
X198562794Y-123141444D01*
X198564666Y-123141820D01*
X198564837Y-123141855D01*
X198569967Y-123142864D01*
X198574690Y-123143795D01*
X199067003Y-123238681D01*
X199076819Y-123240533D01*
X199078754Y-123240890D01*
X199088531Y-123242654D01*
X199582278Y-123329714D01*
X199592232Y-123331427D01*
X199594172Y-123331753D01*
X199603860Y-123333343D01*
X199603921Y-123333353D01*
X200098838Y-123412545D01*
X200098863Y-123412549D01*
X200108341Y-123414028D01*
X200110286Y-123414324D01*
X200120501Y-123415836D01*
X200616822Y-123487197D01*
X200627061Y-123488626D01*
X200629011Y-123488890D01*
X200638515Y-123490139D01*
X200638679Y-123490160D01*
X200638748Y-123490169D01*
X200638747Y-123490169D01*
X201135755Y-123553596D01*
X201145272Y-123554774D01*
X201145794Y-123554836D01*
X201147293Y-123555016D01*
X201157496Y-123556196D01*
X201566860Y-123601850D01*
X201655850Y-123611775D01*
X201662078Y-123612443D01*
X201666012Y-123612866D01*
X201667871Y-123613057D01*
X201668017Y-123613073D01*
X201670887Y-123613358D01*
X201677530Y-123614018D01*
X202021030Y-123646819D01*
X202045550Y-123656635D01*
X202071213Y-123662854D01*
X202077472Y-123669414D01*
X202085893Y-123672786D01*
X202101212Y-123694299D01*
X202119442Y-123713408D01*
X202121160Y-123722314D01*
X202126421Y-123729701D01*
X202127677Y-123756078D01*
X202132683Y-123782012D01*
X202129497Y-123794272D01*
X202129746Y-123799491D01*
X202124371Y-123816313D01*
X202123604Y-123818228D01*
X202069158Y-123942321D01*
X202048836Y-123991437D01*
X202034716Y-124040288D01*
X202032510Y-124045939D01*
X202032477Y-124046024D01*
X202003464Y-124120380D01*
X202003462Y-124120384D01*
X201952431Y-124363761D01*
X201952430Y-124363764D01*
X201946012Y-124467149D01*
X201946012Y-125532850D01*
X201952430Y-125636235D01*
X201952431Y-125636238D01*
X202003462Y-125879615D01*
X202003465Y-125879625D01*
X202093854Y-126111269D01*
X202093856Y-126111273D01*
X202196033Y-126282748D01*
X202221151Y-126324902D01*
X202381860Y-126514649D01*
X202381862Y-126514651D01*
X202571609Y-126675360D01*
X202571615Y-126675363D01*
X202571618Y-126675366D01*
X202785239Y-126802656D01*
X202785242Y-126802657D01*
X203016886Y-126893046D01*
X203016893Y-126893048D01*
X203016898Y-126893050D01*
X203260275Y-126944081D01*
X203363670Y-126950500D01*
X203363681Y-126950500D01*
X204229343Y-126950500D01*
X204229354Y-126950500D01*
X204332749Y-126944081D01*
X204576126Y-126893050D01*
X204576133Y-126893046D01*
X204576137Y-126893046D01*
X204655492Y-126862080D01*
X204807785Y-126802656D01*
X205021406Y-126675366D01*
X205021410Y-126675361D01*
X205021414Y-126675360D01*
X205211161Y-126514651D01*
X205211163Y-126514649D01*
X205371872Y-126324902D01*
X205371873Y-126324898D01*
X205371878Y-126324894D01*
X205446299Y-126199999D01*
X206171512Y-126199999D01*
X206196484Y-126199999D01*
X206196498Y-126199998D01*
X206299209Y-126189505D01*
X206465631Y-126134358D01*
X206465636Y-126134356D01*
X206614857Y-126042315D01*
X206738827Y-125918345D01*
X206830868Y-125769124D01*
X206830870Y-125769119D01*
X206886017Y-125602697D01*
X206886018Y-125602690D01*
X206896511Y-125499986D01*
X206896512Y-125499973D01*
X206896512Y-125375000D01*
X206171512Y-125375000D01*
X206171512Y-126199999D01*
X205446299Y-126199999D01*
X205499168Y-126111273D01*
X205589562Y-125879614D01*
X205640593Y-125636237D01*
X205647012Y-125532842D01*
X205647012Y-124625000D01*
X206171512Y-124625000D01*
X206896511Y-124625000D01*
X206896511Y-124500028D01*
X206896510Y-124500013D01*
X206886017Y-124397302D01*
X206830870Y-124230880D01*
X206830868Y-124230875D01*
X206738827Y-124081654D01*
X206614857Y-123957684D01*
X206465636Y-123865643D01*
X206465631Y-123865641D01*
X206299209Y-123810494D01*
X206299202Y-123810493D01*
X206196498Y-123800000D01*
X206171512Y-123800000D01*
X206171512Y-124625000D01*
X205647012Y-124625000D01*
X205647012Y-124467158D01*
X205640593Y-124363763D01*
X205589562Y-124120386D01*
X205547083Y-124011523D01*
X205523866Y-123942323D01*
X205394314Y-123647054D01*
X205307461Y-123449102D01*
X205297012Y-123399280D01*
X205297012Y-123270976D01*
X205316697Y-123203937D01*
X205369501Y-123158182D01*
X205421012Y-123146976D01*
X206853447Y-123146976D01*
X206920486Y-123166661D01*
X206946716Y-123189264D01*
X206995058Y-123244445D01*
X207045625Y-123292661D01*
X207075756Y-123320466D01*
X207075761Y-123320470D01*
X207075765Y-123320473D01*
X207256400Y-123454735D01*
X207256402Y-123454736D01*
X207256405Y-123454738D01*
X207458126Y-123554597D01*
X207674435Y-123616832D01*
X207743032Y-123630052D01*
X207743035Y-123630052D01*
X207743042Y-123630054D01*
X207874896Y-123648279D01*
X208099977Y-123647054D01*
X208099986Y-123647053D01*
X208099988Y-123647053D01*
X208445864Y-123614025D01*
X208445871Y-123614024D01*
X208445937Y-123614018D01*
X208452178Y-123613397D01*
X208455449Y-123613073D01*
X208455480Y-123613069D01*
X208455498Y-123613068D01*
X208457455Y-123612866D01*
X208462609Y-123612312D01*
X208467616Y-123611775D01*
X208503196Y-123607806D01*
X208965971Y-123556196D01*
X208976174Y-123555016D01*
X208978127Y-123554782D01*
X208978124Y-123554782D01*
X208978194Y-123554774D01*
X208987711Y-123553596D01*
X209484719Y-123490169D01*
X209484786Y-123490160D01*
X209484952Y-123490139D01*
X209494456Y-123488890D01*
X209496406Y-123488626D01*
X209506645Y-123487197D01*
X210002966Y-123415836D01*
X210013181Y-123414324D01*
X210015126Y-123414028D01*
X210024604Y-123412549D01*
X210519607Y-123333343D01*
X210529295Y-123331753D01*
X210531235Y-123331427D01*
X210541189Y-123329714D01*
X211034936Y-123242654D01*
X211044713Y-123240890D01*
X211046648Y-123240533D01*
X211056464Y-123238681D01*
X211548777Y-123143795D01*
X211555343Y-123142501D01*
X211558629Y-123141855D01*
X211558705Y-123141839D01*
X211558744Y-123141832D01*
X211560673Y-123141444D01*
X211570235Y-123139482D01*
X212060919Y-123036810D01*
X212066485Y-123035623D01*
X212070470Y-123034774D01*
X212071594Y-123034528D01*
X212072386Y-123034357D01*
X212078268Y-123033053D01*
X212082270Y-123032167D01*
X212571166Y-122921744D01*
X212571330Y-122921707D01*
X212580721Y-122919548D01*
X212580865Y-122919514D01*
X212580949Y-122919495D01*
X212582513Y-122919129D01*
X212582563Y-122919116D01*
X212582636Y-122919100D01*
X212592636Y-122916717D01*
X213079891Y-122798511D01*
X213089603Y-122796114D01*
X213091511Y-122795635D01*
X213101123Y-122793181D01*
X213586438Y-122667259D01*
X213596442Y-122664620D01*
X213598343Y-122664110D01*
X213607579Y-122661594D01*
X214090749Y-122528012D01*
X214100177Y-122525366D01*
X214100205Y-122525357D01*
X214100312Y-122525328D01*
X214101923Y-122524869D01*
X214102013Y-122524842D01*
X214102069Y-122524827D01*
X214111799Y-122522012D01*
X214592849Y-122380763D01*
X214602299Y-122377948D01*
X214604182Y-122377379D01*
X214613800Y-122374431D01*
X215092548Y-122225568D01*
X215102017Y-122222582D01*
X215103891Y-122221983D01*
X215113397Y-122218903D01*
X215589721Y-122062463D01*
X215589793Y-122062438D01*
X215589854Y-122062419D01*
X215599096Y-122059343D01*
X215599108Y-122059338D01*
X215599195Y-122059310D01*
X215601060Y-122058681D01*
X215610463Y-122055468D01*
X216084248Y-121891489D01*
X216093739Y-121888162D01*
X216095592Y-121887504D01*
X216095634Y-121887488D01*
X216095707Y-121887463D01*
X216099275Y-121886179D01*
X216104872Y-121884167D01*
X216575991Y-121712694D01*
X216585462Y-121709204D01*
X216587306Y-121708516D01*
X216596500Y-121705044D01*
X216596660Y-121704983D01*
X217064848Y-121526114D01*
X217073643Y-121522716D01*
X217073673Y-121522704D01*
X217073741Y-121522678D01*
X217075573Y-121521962D01*
X217085172Y-121518164D01*
X217550653Y-121331814D01*
X217559977Y-121328038D01*
X217561798Y-121327292D01*
X217570912Y-121323517D01*
X218033367Y-121129808D01*
X218042951Y-121125747D01*
X218044759Y-121124972D01*
X218053484Y-121121192D01*
X218053632Y-121121128D01*
X218512516Y-120920299D01*
X218512536Y-120920289D01*
X218512710Y-120920214D01*
X218521794Y-120916196D01*
X218521878Y-120916158D01*
X218521931Y-120916135D01*
X218523311Y-120915517D01*
X218523590Y-120915393D01*
X218532691Y-120911280D01*
X218738093Y-120817475D01*
X218807249Y-120807532D01*
X218870805Y-120836557D01*
X218908580Y-120895335D01*
X218912181Y-120911547D01*
X218937851Y-121079611D01*
X218937854Y-121079623D01*
X219015344Y-121315897D01*
X219015348Y-121315907D01*
X219061474Y-121408636D01*
X219061482Y-121408650D01*
X219061486Y-121408658D01*
X219263514Y-121758581D01*
X219594321Y-122331557D01*
X219594323Y-122331560D01*
X219594328Y-122331568D01*
X219613430Y-122360370D01*
X219651579Y-122417893D01*
X219651581Y-122417895D01*
X219651585Y-122417901D01*
X219817467Y-122603156D01*
X220011580Y-122758582D01*
X220228627Y-122879938D01*
X220462689Y-122963913D01*
X220707381Y-123008220D01*
X220873145Y-123010503D01*
X220956023Y-123011645D01*
X220956023Y-123011644D01*
X220956027Y-123011645D01*
X221201846Y-122974099D01*
X221438133Y-122896605D01*
X221530885Y-122850467D01*
X222280589Y-122417625D01*
X222366922Y-122360368D01*
X222552178Y-122194485D01*
X222707603Y-122000372D01*
X222828959Y-121783326D01*
X222912935Y-121549263D01*
X222957241Y-121304572D01*
X222959769Y-121121128D01*
X222960667Y-121055928D01*
X222960666Y-121055919D01*
X222939211Y-120915450D01*
X222923121Y-120810106D01*
X222863318Y-120627764D01*
X222845629Y-120573828D01*
X222845625Y-120573818D01*
X222799499Y-120481089D01*
X222799494Y-120481081D01*
X222799488Y-120481068D01*
X222688933Y-120289582D01*
X222678876Y-120267363D01*
X222635544Y-120139417D01*
X222617465Y-120086037D01*
X222617305Y-120082121D01*
X223174797Y-120082121D01*
X223174797Y-120082122D01*
X223587295Y-120796592D01*
X223608926Y-120784104D01*
X223692634Y-120723659D01*
X223692642Y-120723652D01*
X223809191Y-120592687D01*
X223892403Y-120438361D01*
X223937779Y-120269013D01*
X223942878Y-120093760D01*
X223907424Y-119922059D01*
X223865156Y-119827864D01*
X223865148Y-119827848D01*
X223802664Y-119719623D01*
X223802663Y-119719623D01*
X223174797Y-120082121D01*
X222617305Y-120082121D01*
X222614604Y-120016226D01*
X222649940Y-119955950D01*
X222661960Y-119947014D01*
X222662537Y-119944862D01*
X222537036Y-119727490D01*
X222520563Y-119659590D01*
X222543415Y-119593563D01*
X222582423Y-119558103D01*
X223427662Y-119070103D01*
X223427662Y-119070102D01*
X223365177Y-118961874D01*
X223304727Y-118878158D01*
X223173756Y-118761605D01*
X223019430Y-118678393D01*
X222850084Y-118633017D01*
X222674832Y-118627918D01*
X222503133Y-118663372D01*
X222408923Y-118705646D01*
X222408915Y-118705650D01*
X222303168Y-118766703D01*
X222270369Y-118774660D01*
X222237739Y-118783269D01*
X222236516Y-118782872D01*
X222235267Y-118783176D01*
X222203380Y-118772139D01*
X222171270Y-118761738D01*
X222170129Y-118760630D01*
X222169241Y-118760323D01*
X222145245Y-118737896D01*
X222142973Y-118735123D01*
X222075004Y-118641572D01*
X222027058Y-118593626D01*
X222023166Y-118588875D01*
X222011837Y-118562134D01*
X221997923Y-118536653D01*
X221998373Y-118530355D01*
X221995910Y-118524541D01*
X222000835Y-118495923D01*
X222002907Y-118466961D01*
X222006690Y-118461906D01*
X222007762Y-118455684D01*
X222027377Y-118434273D01*
X222044779Y-118411028D01*
X222054621Y-118404535D01*
X222054960Y-118404166D01*
X222055329Y-118404068D01*
X222057084Y-118402910D01*
X222888779Y-117922731D01*
X222956677Y-117906259D01*
X222980948Y-117910311D01*
X222981045Y-117909915D01*
X222983745Y-117910570D01*
X222983751Y-117910572D01*
X223051652Y-117927045D01*
X223091653Y-117936060D01*
X223315236Y-117962018D01*
X223539860Y-117947637D01*
X223758307Y-117893379D01*
X223824333Y-117870526D01*
X223947631Y-117820383D01*
X224054846Y-117757701D01*
X224141931Y-117706790D01*
X224141953Y-117706776D01*
X224394109Y-117527215D01*
X224394227Y-117527131D01*
X224401792Y-117521702D01*
X224403386Y-117520549D01*
X224411952Y-117514297D01*
X224815757Y-117216982D01*
X224824049Y-117210824D01*
X224825623Y-117209645D01*
X224833277Y-117203866D01*
X225232182Y-116900283D01*
X225239858Y-116894395D01*
X225241246Y-116893322D01*
X225241479Y-116893142D01*
X225249443Y-116886931D01*
X225249470Y-116886910D01*
X225249497Y-116886889D01*
X225643624Y-116576944D01*
X225651596Y-116570621D01*
X225653133Y-116569392D01*
X225660722Y-116563276D01*
X226049807Y-116247177D01*
X226057620Y-116240778D01*
X226059136Y-116239526D01*
X226066681Y-116233244D01*
X226366985Y-115981260D01*
X226440653Y-115914293D01*
X226454661Y-115900506D01*
X226454672Y-115900494D01*
X226454792Y-115900377D01*
X226459936Y-115895283D01*
X226521624Y-115821698D01*
X226604538Y-115722794D01*
X226716018Y-115527256D01*
X226745043Y-115463700D01*
X226761459Y-115426144D01*
X226829263Y-115211515D01*
X226857654Y-114988228D01*
X226845719Y-114763460D01*
X226835775Y-114694302D01*
X226829284Y-114653852D01*
X226825653Y-114640483D01*
X226827076Y-114570631D01*
X226866039Y-114512634D01*
X226897863Y-114493421D01*
X226912847Y-114487215D01*
X227198842Y-114334347D01*
X227468476Y-114154183D01*
X227719153Y-113948458D01*
X227948458Y-113719153D01*
X228154183Y-113468476D01*
X228334347Y-113198842D01*
X228480572Y-112925274D01*
X228529533Y-112875432D01*
X228597671Y-112859971D01*
X228622914Y-112864197D01*
X228665387Y-112875919D01*
X228889565Y-112896095D01*
X228889572Y-112896095D01*
X228959464Y-112896095D01*
X228985835Y-112895663D01*
X229000402Y-112895426D01*
X229000408Y-112895425D01*
X229000413Y-112895425D01*
X229058705Y-112888254D01*
X229223803Y-112867946D01*
X229438706Y-112801017D01*
X229638205Y-112696791D01*
X229696983Y-112659017D01*
X229805002Y-112581209D01*
X229967056Y-112424999D01*
X230147985Y-112216196D01*
X230154323Y-112208825D01*
X230155600Y-112207328D01*
X230162189Y-112199540D01*
X230484483Y-111815444D01*
X230484518Y-111815401D01*
X230484648Y-111815247D01*
X230491002Y-111807609D01*
X230491023Y-111807584D01*
X230492275Y-111806067D01*
X230498416Y-111798568D01*
X230814515Y-111409483D01*
X230820631Y-111401894D01*
X230821860Y-111400357D01*
X230821924Y-111400275D01*
X230822021Y-111400155D01*
X230824322Y-111397252D01*
X230828183Y-111392385D01*
X231138128Y-110998258D01*
X231143982Y-110990751D01*
X231144381Y-110990240D01*
X231145565Y-110988708D01*
X231145634Y-110988619D01*
X231151522Y-110980943D01*
X231455105Y-110582038D01*
X231460884Y-110574384D01*
X231460940Y-110574308D01*
X231461024Y-110574198D01*
X231461359Y-110573749D01*
X231462063Y-110572810D01*
X231468221Y-110564518D01*
X231616403Y-110363260D01*
X231672001Y-110320948D01*
X231741651Y-110315410D01*
X231754558Y-110318846D01*
X231787585Y-110329578D01*
X231904223Y-110348051D01*
X232020857Y-110366525D01*
X232020862Y-110366525D01*
X232135084Y-110366525D01*
X232168859Y-110371214D01*
X232476561Y-110458320D01*
X233092990Y-110632823D01*
X233121208Y-110644744D01*
X233277580Y-110735026D01*
X233277601Y-110735037D01*
X233370330Y-110781163D01*
X233370340Y-110781167D01*
X233394910Y-110789225D01*
X233606618Y-110858659D01*
X233852438Y-110896205D01*
X233852439Y-110896204D01*
X233852440Y-110896205D01*
X233935320Y-110895063D01*
X234101084Y-110892779D01*
X234345775Y-110848473D01*
X234579838Y-110764497D01*
X234796884Y-110643141D01*
X234990997Y-110487716D01*
X235156880Y-110302460D01*
X235214137Y-110216127D01*
X235646979Y-109466423D01*
X235693117Y-109373671D01*
X235770611Y-109137384D01*
X235808157Y-108891565D01*
X235804732Y-108642919D01*
X235760425Y-108398227D01*
X235676450Y-108164165D01*
X235555094Y-107947118D01*
X235399668Y-107753005D01*
X235214413Y-107587123D01*
X235214407Y-107587119D01*
X235214405Y-107587117D01*
X235146050Y-107541784D01*
X235128080Y-107529866D01*
X235084640Y-107504786D01*
X234774012Y-107325444D01*
X234725796Y-107274877D01*
X234712573Y-107206270D01*
X234728625Y-107156056D01*
X234741374Y-107133974D01*
X234659290Y-107086583D01*
X234524001Y-107008474D01*
X234512788Y-106996714D01*
X235253635Y-106996714D01*
X235253635Y-106996715D01*
X235968104Y-107409213D01*
X235980593Y-107387583D01*
X235980600Y-107387569D01*
X236022864Y-107293382D01*
X236022865Y-107293379D01*
X236058319Y-107121679D01*
X236053220Y-106946427D01*
X236007844Y-106777081D01*
X235924632Y-106622755D01*
X235808079Y-106491784D01*
X235724367Y-106431335D01*
X235616134Y-106368847D01*
X235616133Y-106368847D01*
X235253635Y-106996714D01*
X234512788Y-106996714D01*
X234475785Y-106957907D01*
X234462562Y-106889300D01*
X234478614Y-106839087D01*
X234966613Y-105993847D01*
X234966613Y-105993846D01*
X234858384Y-105931361D01*
X234858364Y-105931351D01*
X234764178Y-105889087D01*
X234764179Y-105889087D01*
X234592475Y-105853633D01*
X234417224Y-105858732D01*
X234247876Y-105904108D01*
X234093553Y-105987319D01*
X233974422Y-106093335D01*
X233911255Y-106123197D01*
X233841971Y-106114168D01*
X233788567Y-106069115D01*
X233767999Y-106002341D01*
X233784599Y-105938706D01*
X234112409Y-105370923D01*
X234162974Y-105322710D01*
X234184855Y-105313951D01*
X234194246Y-105311194D01*
X234233377Y-105299007D01*
X234439985Y-105209697D01*
X234627326Y-105084932D01*
X234789378Y-104928720D01*
X234835132Y-104875916D01*
X234916844Y-104770839D01*
X235028323Y-104575300D01*
X235162519Y-104281451D01*
X235166632Y-104272351D01*
X235167435Y-104270555D01*
X235171453Y-104261471D01*
X235171482Y-104261404D01*
X235171550Y-104261251D01*
X235372367Y-103802393D01*
X235372936Y-103801078D01*
X235376211Y-103793520D01*
X235376986Y-103791712D01*
X235381047Y-103782128D01*
X235574756Y-103319673D01*
X235578531Y-103310559D01*
X235579277Y-103308738D01*
X235583053Y-103299414D01*
X235769403Y-102833933D01*
X235773201Y-102824334D01*
X235773917Y-102822502D01*
X235777375Y-102813551D01*
X235956225Y-102345414D01*
X235956312Y-102345183D01*
X235959755Y-102336067D01*
X235960443Y-102334223D01*
X235963933Y-102324752D01*
X236135406Y-101853633D01*
X236138743Y-101844353D01*
X236139401Y-101842500D01*
X236142728Y-101833009D01*
X236306707Y-101359224D01*
X236309920Y-101349821D01*
X236309943Y-101349751D01*
X236310000Y-101349586D01*
X236310582Y-101347857D01*
X236313658Y-101338615D01*
X236313702Y-101338482D01*
X236470142Y-100862158D01*
X236473222Y-100852652D01*
X236473821Y-100850778D01*
X236476807Y-100841309D01*
X236625670Y-100362561D01*
X236628618Y-100352943D01*
X236629187Y-100351060D01*
X236632002Y-100341610D01*
X236773251Y-99860560D01*
X236776066Y-99850830D01*
X236776137Y-99850585D01*
X236776567Y-99849073D01*
X236779314Y-99839284D01*
X236912805Y-99356441D01*
X236912833Y-99356340D01*
X236915349Y-99347104D01*
X236915859Y-99345203D01*
X236918498Y-99335199D01*
X236918517Y-99335124D01*
X236918561Y-99334959D01*
X237027014Y-98916967D01*
X237044420Y-98849884D01*
X237046874Y-98840272D01*
X237047353Y-98838364D01*
X237049750Y-98828652D01*
X237167956Y-98341397D01*
X237170339Y-98331397D01*
X237170787Y-98329482D01*
X237172946Y-98320091D01*
X237172961Y-98320021D01*
X237173000Y-98319855D01*
X237283406Y-97831031D01*
X237284292Y-97827029D01*
X237285596Y-97821147D01*
X237285767Y-97820355D01*
X237286013Y-97819231D01*
X237286862Y-97815246D01*
X237288049Y-97809680D01*
X237390721Y-97318996D01*
X237392683Y-97309434D01*
X237393071Y-97307505D01*
X237393071Y-97307503D01*
X237393121Y-97307257D01*
X237395018Y-97297618D01*
X237395034Y-97297538D01*
X237489920Y-96805225D01*
X237491772Y-96795409D01*
X237492129Y-96793474D01*
X237493893Y-96783697D01*
X237580953Y-96289950D01*
X237582666Y-96279996D01*
X237582992Y-96278056D01*
X237583034Y-96277806D01*
X237584592Y-96268306D01*
X237663784Y-95773389D01*
X237665237Y-95764078D01*
X237665240Y-95764058D01*
X237665267Y-95763887D01*
X237665563Y-95761942D01*
X237667075Y-95751727D01*
X237738436Y-95255406D01*
X237739865Y-95245167D01*
X237740129Y-95243217D01*
X237741378Y-95233713D01*
X237755535Y-95122785D01*
X237804835Y-94736472D01*
X237806013Y-94726955D01*
X237806050Y-94726643D01*
X237806255Y-94724935D01*
X237807435Y-94714732D01*
X237863004Y-94216466D01*
X237863005Y-94216458D01*
X237863014Y-94216377D01*
X237863486Y-94211976D01*
X237864105Y-94206216D01*
X237864307Y-94204259D01*
X237865257Y-94194697D01*
X237890691Y-93928343D01*
X237916658Y-93863481D01*
X237973573Y-93822953D01*
X238039572Y-93818772D01*
X238160275Y-93844081D01*
X238263670Y-93850500D01*
X238263681Y-93850500D01*
X239329343Y-93850500D01*
X239329354Y-93850500D01*
X239432749Y-93844081D01*
X239676126Y-93793050D01*
X239676133Y-93793046D01*
X239676137Y-93793046D01*
X239755492Y-93762080D01*
X239907785Y-93702656D01*
X240121406Y-93575366D01*
X240121410Y-93575361D01*
X240121414Y-93575360D01*
X240311161Y-93414651D01*
X240311163Y-93414649D01*
X240471872Y-93224902D01*
X240471873Y-93224898D01*
X240471878Y-93224894D01*
X240599168Y-93011273D01*
X240689562Y-92779614D01*
X240740593Y-92536237D01*
X240747012Y-92432842D01*
X240747012Y-91567158D01*
X240740593Y-91463763D01*
X240689562Y-91220386D01*
X240689560Y-91220381D01*
X240689558Y-91220374D01*
X240617246Y-91035058D01*
X240599168Y-90988727D01*
X240471878Y-90775106D01*
X240471875Y-90775103D01*
X240471872Y-90775097D01*
X240311163Y-90585350D01*
X240311161Y-90585348D01*
X240121414Y-90424639D01*
X240121406Y-90424634D01*
X239907785Y-90297344D01*
X239907783Y-90297343D01*
X239907781Y-90297342D01*
X239676137Y-90206953D01*
X239676127Y-90206950D01*
X239432750Y-90155919D01*
X239432747Y-90155918D01*
X239329362Y-90149500D01*
X239329354Y-90149500D01*
X238920512Y-90149500D01*
X238853473Y-90129815D01*
X238807718Y-90077011D01*
X238796512Y-90025500D01*
X238796512Y-90000000D01*
X238545512Y-90000000D01*
X238478473Y-89980315D01*
X238432718Y-89927511D01*
X238421512Y-89876000D01*
X238421512Y-89625000D01*
X239171512Y-89625000D01*
X239996511Y-89625000D01*
X239996511Y-89600028D01*
X239996510Y-89600013D01*
X239986017Y-89497302D01*
X239930870Y-89330880D01*
X239930868Y-89330875D01*
X239838827Y-89181654D01*
X239714857Y-89057684D01*
X239565636Y-88965643D01*
X239565631Y-88965641D01*
X239399209Y-88910494D01*
X239399202Y-88910493D01*
X239296498Y-88900000D01*
X239171512Y-88900000D01*
X239171512Y-89625000D01*
X238421512Y-89625000D01*
X238421512Y-88900000D01*
X238296539Y-88900000D01*
X238296524Y-88900001D01*
X238193814Y-88910494D01*
X238027392Y-88965641D01*
X238027387Y-88965643D01*
X237878166Y-89057684D01*
X237754195Y-89181655D01*
X237751869Y-89185427D01*
X237750982Y-89186224D01*
X237750647Y-89187366D01*
X237725113Y-89209491D01*
X237699920Y-89232150D01*
X237698742Y-89232341D01*
X237697843Y-89233121D01*
X237664363Y-89237934D01*
X237630957Y-89243370D01*
X237629864Y-89242895D01*
X237628685Y-89243065D01*
X237597901Y-89229006D01*
X237566875Y-89215525D01*
X237566212Y-89214534D01*
X237565129Y-89214040D01*
X237546836Y-89185576D01*
X237528021Y-89157455D01*
X237527788Y-89155936D01*
X237527355Y-89155262D01*
X237522332Y-89120327D01*
X237522332Y-88923095D01*
X237542017Y-88856056D01*
X237555205Y-88839001D01*
X237559205Y-88834665D01*
X237573838Y-88818809D01*
X237708110Y-88638160D01*
X237807969Y-88436439D01*
X237870204Y-88220130D01*
X237883426Y-88151523D01*
X237901651Y-88019669D01*
X237900426Y-87794588D01*
X237876948Y-87548726D01*
X237865264Y-87426363D01*
X237864312Y-87416778D01*
X237864296Y-87416632D01*
X237864105Y-87414773D01*
X237863682Y-87410839D01*
X237863014Y-87404611D01*
X237824625Y-87060396D01*
X237807435Y-86906257D01*
X237806255Y-86896054D01*
X237806021Y-86894101D01*
X237804837Y-86884537D01*
X237804835Y-86884516D01*
X237741408Y-86387509D01*
X237741396Y-86387416D01*
X237741378Y-86387276D01*
X237740129Y-86377772D01*
X237739865Y-86375822D01*
X237739864Y-86375820D01*
X237739844Y-86375667D01*
X237738445Y-86365649D01*
X237714541Y-86199394D01*
X237667075Y-85869262D01*
X237665563Y-85859047D01*
X237665267Y-85857102D01*
X237663788Y-85847624D01*
X237607750Y-85497410D01*
X237584592Y-85352682D01*
X237583034Y-85343183D01*
X237582992Y-85342933D01*
X237582666Y-85340993D01*
X237580953Y-85331039D01*
X237570558Y-85272088D01*
X237493899Y-84837327D01*
X237493875Y-84837195D01*
X237492129Y-84827515D01*
X237491772Y-84825580D01*
X237491711Y-84825259D01*
X237490897Y-84820943D01*
X237489920Y-84815764D01*
X237395034Y-84323451D01*
X237394103Y-84318728D01*
X237393094Y-84313598D01*
X237392809Y-84312183D01*
X237392683Y-84311555D01*
X237390721Y-84301993D01*
X237390720Y-84301992D01*
X237390673Y-84301759D01*
X237288053Y-83811330D01*
X237288034Y-83811242D01*
X237286025Y-83801815D01*
X237286013Y-83801757D01*
X237285576Y-83799750D01*
X237283406Y-83789957D01*
X237173000Y-83301134D01*
X237172935Y-83300850D01*
X237170787Y-83291507D01*
X237170339Y-83289592D01*
X237167956Y-83279592D01*
X237049750Y-82792337D01*
X237047353Y-82782625D01*
X237046874Y-82780717D01*
X237044420Y-82771105D01*
X236918498Y-82285790D01*
X236915859Y-82275786D01*
X236915744Y-82275359D01*
X236915371Y-82273967D01*
X236915270Y-82273598D01*
X236912833Y-82264649D01*
X236912792Y-82264498D01*
X236779314Y-81781705D01*
X236779278Y-81781579D01*
X236779251Y-81781479D01*
X236776605Y-81772051D01*
X236776538Y-81771812D01*
X236776137Y-81770404D01*
X236775685Y-81768843D01*
X236773251Y-81760429D01*
X236632002Y-81279379D01*
X236629187Y-81269929D01*
X236628618Y-81268046D01*
X236625670Y-81258428D01*
X236476807Y-80779680D01*
X236473821Y-80770211D01*
X236473222Y-80768337D01*
X236470142Y-80758831D01*
X236354291Y-80406094D01*
X236313626Y-80282275D01*
X236310582Y-80273131D01*
X236310000Y-80271403D01*
X236309920Y-80271168D01*
X236306707Y-80261765D01*
X236142728Y-79787980D01*
X236139401Y-79778489D01*
X236138743Y-79776636D01*
X236138702Y-79776520D01*
X236135413Y-79767376D01*
X236135406Y-79767356D01*
X235963933Y-79296237D01*
X235960443Y-79286766D01*
X235959755Y-79284922D01*
X235956283Y-79275728D01*
X235956197Y-79275500D01*
X235777353Y-78807379D01*
X235773923Y-78798502D01*
X235773226Y-78796719D01*
X235773136Y-78796492D01*
X235769495Y-78787288D01*
X235769406Y-78787063D01*
X235681124Y-78566546D01*
X235583053Y-78321575D01*
X235579277Y-78312251D01*
X235578531Y-78310430D01*
X235578210Y-78309656D01*
X235574798Y-78301417D01*
X235574756Y-78301316D01*
X235381047Y-77838861D01*
X235376986Y-77829277D01*
X235376211Y-77827469D01*
X235372431Y-77818744D01*
X235372337Y-77818526D01*
X235171550Y-77359738D01*
X235167334Y-77350206D01*
X235166640Y-77348655D01*
X235162535Y-77339572D01*
X235028369Y-77045789D01*
X235020310Y-77028142D01*
X234991357Y-76975860D01*
X234976101Y-76907678D01*
X235000128Y-76842070D01*
X235055812Y-76799867D01*
X235061158Y-76797975D01*
X235112418Y-76781164D01*
X235205170Y-76735026D01*
X236128080Y-76202184D01*
X236214413Y-76144927D01*
X236399668Y-75979045D01*
X236555094Y-75784932D01*
X236676450Y-75567885D01*
X236760425Y-75333823D01*
X236804732Y-75089131D01*
X236808157Y-74840485D01*
X236770611Y-74594666D01*
X236693117Y-74358379D01*
X236678176Y-74328343D01*
X236646990Y-74265648D01*
X236646985Y-74265640D01*
X236646979Y-74265627D01*
X236294073Y-73654377D01*
X236214143Y-73515933D01*
X236214140Y-73515929D01*
X236214137Y-73515923D01*
X236156880Y-73429590D01*
X235990997Y-73244334D01*
X235796884Y-73088909D01*
X235579838Y-72967553D01*
X235579837Y-72967552D01*
X235579836Y-72967552D01*
X235476735Y-72930562D01*
X235345775Y-72883577D01*
X235345771Y-72883576D01*
X235345770Y-72883576D01*
X235101080Y-72839270D01*
X234852440Y-72835844D01*
X234852431Y-72835845D01*
X234606626Y-72873389D01*
X234606614Y-72873392D01*
X234370340Y-72950882D01*
X234370330Y-72950886D01*
X234277601Y-72997012D01*
X234277580Y-72997024D01*
X233923511Y-73201445D01*
X233855611Y-73217918D01*
X233789584Y-73195065D01*
X233754123Y-73156057D01*
X233741374Y-73133975D01*
X233524002Y-73259475D01*
X233456102Y-73275948D01*
X233390075Y-73253095D01*
X233354615Y-73214088D01*
X232866615Y-72368848D01*
X232866614Y-72368848D01*
X232758393Y-72431330D01*
X232758388Y-72431332D01*
X232674670Y-72491784D01*
X232558117Y-72622755D01*
X232516674Y-72699616D01*
X232467530Y-72749282D01*
X232399336Y-72764494D01*
X232333744Y-72740423D01*
X232291578Y-72684712D01*
X232283783Y-72648692D01*
X232269920Y-72432141D01*
X232215663Y-72213694D01*
X232192810Y-72147667D01*
X232156377Y-72058078D01*
X232142670Y-72024372D01*
X232142665Y-72024362D01*
X232124825Y-71993846D01*
X233516135Y-71993846D01*
X233516135Y-71993847D01*
X233878633Y-72621713D01*
X233878634Y-72621713D01*
X234593103Y-72209214D01*
X234580615Y-72187582D01*
X234520174Y-72103881D01*
X234520164Y-72103869D01*
X234389199Y-71987320D01*
X234234873Y-71904108D01*
X234065525Y-71858732D01*
X233890272Y-71853633D01*
X233718571Y-71889087D01*
X233624371Y-71931357D01*
X233624359Y-71931363D01*
X233516135Y-71993846D01*
X232124825Y-71993846D01*
X232029073Y-71830063D01*
X232029059Y-71830041D01*
X231778434Y-71478090D01*
X231772925Y-71470414D01*
X231771776Y-71468825D01*
X231765689Y-71460485D01*
X231765636Y-71460413D01*
X231765536Y-71460276D01*
X231468221Y-71056471D01*
X231462063Y-71048179D01*
X231461560Y-71047508D01*
X231461024Y-71046791D01*
X231460909Y-71046639D01*
X231460884Y-71046605D01*
X231455105Y-71038951D01*
X231151522Y-70640046D01*
X231145634Y-70632370D01*
X231145619Y-70632350D01*
X231145565Y-70632280D01*
X231144381Y-70630748D01*
X231138170Y-70622784D01*
X231033793Y-70490058D01*
X230828183Y-70228604D01*
X230825726Y-70225506D01*
X230822021Y-70220834D01*
X230821873Y-70220649D01*
X230821860Y-70220632D01*
X230820631Y-70219095D01*
X230814515Y-70211506D01*
X230498416Y-69822421D01*
X230498360Y-69822353D01*
X230492285Y-69814934D01*
X230491028Y-69813411D01*
X230490713Y-69813032D01*
X230484481Y-69805544D01*
X230162170Y-69421429D01*
X230162110Y-69421358D01*
X230162017Y-69421247D01*
X230162017Y-69421246D01*
X230155997Y-69414128D01*
X230154565Y-69412448D01*
X230153720Y-69411465D01*
X230147984Y-69404792D01*
X229941230Y-69166186D01*
X229869587Y-69092927D01*
X229835525Y-69058096D01*
X229835515Y-69058087D01*
X229813450Y-69038089D01*
X229813442Y-69038082D01*
X229813432Y-69038073D01*
X229768763Y-68999462D01*
X229582931Y-68872461D01*
X229377407Y-68780684D01*
X229377406Y-68780683D01*
X229377398Y-68780680D01*
X229377396Y-68780679D01*
X229311332Y-68758034D01*
X229272316Y-68745368D01*
X229052079Y-68698929D01*
X229052069Y-68698928D01*
X228827087Y-68692561D01*
X228827082Y-68692561D01*
X228604574Y-68726469D01*
X228536697Y-68743151D01*
X228497110Y-68753567D01*
X228434273Y-68777461D01*
X228364615Y-68782888D01*
X228303080Y-68749794D01*
X228287100Y-68730448D01*
X228192752Y-68589247D01*
X228154183Y-68531524D01*
X227948458Y-68280847D01*
X227948457Y-68280846D01*
X227948453Y-68280841D01*
X227719158Y-68051546D01*
X227468481Y-67845821D01*
X227468480Y-67845820D01*
X227468476Y-67845817D01*
X227302323Y-67734797D01*
X227292064Y-67727942D01*
X227247259Y-67674330D01*
X227238552Y-67605005D01*
X227241960Y-67589967D01*
X227302334Y-67383956D01*
X227326050Y-67160125D01*
X227327154Y-67090264D01*
X227327133Y-67049279D01*
X227303183Y-66825473D01*
X227239657Y-66609539D01*
X227138594Y-66408419D01*
X227101753Y-66349052D01*
X227025667Y-66239827D01*
X227025666Y-66239825D01*
X227025665Y-66239824D01*
X226944542Y-66152961D01*
X226872037Y-66075325D01*
X226862686Y-66066960D01*
X226862635Y-66066914D01*
X226855510Y-66060588D01*
X226854177Y-66059414D01*
X226846361Y-66052586D01*
X226846328Y-66052557D01*
X226467436Y-65724244D01*
X226460287Y-65718095D01*
X226459798Y-65717678D01*
X226458766Y-65716797D01*
X226450809Y-65710064D01*
X226429331Y-65692042D01*
X226066660Y-65387726D01*
X226058862Y-65381237D01*
X226057367Y-65380003D01*
X226049806Y-65373811D01*
X225871283Y-65228776D01*
X225660606Y-65057619D01*
X225653441Y-65051843D01*
X225652002Y-65050692D01*
X225651965Y-65050662D01*
X225646954Y-65046687D01*
X225643701Y-65044106D01*
X225249420Y-64734041D01*
X225241809Y-64728103D01*
X225240569Y-64727143D01*
X225234618Y-64722575D01*
X225232229Y-64720741D01*
X224833257Y-64417108D01*
X224825805Y-64411480D01*
X224825617Y-64411339D01*
X224824302Y-64410353D01*
X224815695Y-64403961D01*
X224480620Y-64157251D01*
X224411952Y-64106692D01*
X224411853Y-64106620D01*
X224403402Y-64100451D01*
X224401813Y-64099302D01*
X224394137Y-64093793D01*
X224143722Y-63915473D01*
X224100531Y-63860552D01*
X224093890Y-63790999D01*
X224097713Y-63776162D01*
X224126090Y-63688831D01*
X224148359Y-63548230D01*
X224163037Y-63455560D01*
X224163037Y-63426936D01*
X224170489Y-63384598D01*
X224206304Y-63286006D01*
X224402203Y-62746736D01*
X224411357Y-62727088D01*
X224531538Y-62518931D01*
X224577676Y-62426179D01*
X224655171Y-62189893D01*
X224692717Y-61944073D01*
X224689291Y-61695427D01*
X224644985Y-61450736D01*
X224561009Y-61216673D01*
X224439653Y-60999627D01*
X224284228Y-60805514D01*
X224280614Y-60802278D01*
X224177234Y-60709709D01*
X224098972Y-60639631D01*
X224098969Y-60639629D01*
X224098968Y-60639628D01*
X224068681Y-60619542D01*
X224012639Y-60582374D01*
X224012631Y-60582369D01*
X224012628Y-60582367D01*
X223519055Y-60297403D01*
X223262935Y-60149532D01*
X223262927Y-60149528D01*
X223262913Y-60149520D01*
X223170186Y-60103395D01*
X223170172Y-60103390D01*
X222933897Y-60025900D01*
X222933889Y-60025898D01*
X222688083Y-59988354D01*
X222688073Y-59988353D01*
X222439439Y-59991778D01*
X222439429Y-59991779D01*
X222194743Y-60036085D01*
X222194739Y-60036086D01*
X221960678Y-60120060D01*
X221743629Y-60241417D01*
X221549519Y-60396841D01*
X221549517Y-60396843D01*
X221385515Y-60579999D01*
X221383629Y-60582105D01*
X221326374Y-60668437D01*
X221326371Y-60668442D01*
X221121956Y-61022498D01*
X221071389Y-61070714D01*
X221002782Y-61083936D01*
X220952570Y-61067886D01*
X220930486Y-61055136D01*
X220804986Y-61272508D01*
X220754419Y-61320724D01*
X220685812Y-61333946D01*
X220635599Y-61317895D01*
X219790360Y-60829895D01*
X219790358Y-60829896D01*
X219727875Y-60938121D01*
X219727868Y-60938135D01*
X219685599Y-61032332D01*
X219650926Y-61200255D01*
X219618092Y-61261929D01*
X219557126Y-61296061D01*
X219487386Y-61291814D01*
X219440212Y-61261237D01*
X219396508Y-61215898D01*
X219337707Y-61154897D01*
X219318216Y-61138008D01*
X219284927Y-61109162D01*
X219284889Y-61109130D01*
X219179826Y-61027428D01*
X219179821Y-61027425D01*
X219179817Y-61027422D01*
X218984279Y-60915942D01*
X218930564Y-60891411D01*
X218532645Y-60709687D01*
X218523637Y-60705617D01*
X218521867Y-60704825D01*
X218517338Y-60702822D01*
X218512710Y-60700775D01*
X218512612Y-60700732D01*
X218512490Y-60700678D01*
X218053632Y-60499860D01*
X218044764Y-60496019D01*
X218043037Y-60495279D01*
X218042951Y-60495242D01*
X218033366Y-60491181D01*
X217808141Y-60396841D01*
X217570806Y-60297428D01*
X217561797Y-60293695D01*
X217560804Y-60293288D01*
X217560075Y-60292990D01*
X217550728Y-60289205D01*
X217278884Y-60180375D01*
X220165359Y-60180375D01*
X220165359Y-60180376D01*
X220793226Y-60542874D01*
X220793227Y-60542874D01*
X221205726Y-59828404D01*
X221184100Y-59815919D01*
X221089893Y-59773646D01*
X221089891Y-59773645D01*
X220918189Y-59738191D01*
X220742939Y-59743290D01*
X220573593Y-59788666D01*
X220419267Y-59871878D01*
X220288296Y-59988431D01*
X220227847Y-60072143D01*
X220165359Y-60180375D01*
X217278884Y-60180375D01*
X217085173Y-60102825D01*
X217081028Y-60101185D01*
X217075662Y-60099062D01*
X217073701Y-60098295D01*
X217069496Y-60096671D01*
X217064789Y-60094852D01*
X216815538Y-59999627D01*
X216596489Y-59915940D01*
X216591916Y-59914214D01*
X216587281Y-59912464D01*
X216585590Y-59911833D01*
X216576067Y-59908323D01*
X216368336Y-59832715D01*
X216104771Y-59736785D01*
X216094997Y-59733273D01*
X216093445Y-59732723D01*
X216093383Y-59732701D01*
X216093292Y-59732669D01*
X216086203Y-59730185D01*
X216084202Y-59729484D01*
X215610466Y-59565522D01*
X215601401Y-59562423D01*
X215601336Y-59562401D01*
X215601307Y-59562391D01*
X215600665Y-59562174D01*
X215599368Y-59561736D01*
X215589916Y-59558590D01*
X215589822Y-59558559D01*
X215589783Y-59558546D01*
X215113307Y-59402057D01*
X215113270Y-59402045D01*
X215113191Y-59402019D01*
X215104333Y-59399147D01*
X215102408Y-59398531D01*
X215092660Y-59395456D01*
X214953000Y-59352030D01*
X214613800Y-59246558D01*
X214606105Y-59244199D01*
X214604163Y-59243604D01*
X214602229Y-59243020D01*
X214600481Y-59242499D01*
X214592850Y-59240226D01*
X214283935Y-59149520D01*
X214111742Y-59098959D01*
X214102116Y-59096174D01*
X214100296Y-59095655D01*
X214090705Y-59092964D01*
X213607765Y-58959446D01*
X213607578Y-58959395D01*
X213607538Y-58959384D01*
X213603730Y-58958346D01*
X213597901Y-58956759D01*
X213596304Y-58956331D01*
X213586656Y-58953787D01*
X213586607Y-58953774D01*
X213586477Y-58953740D01*
X213238874Y-58863548D01*
X213100931Y-58827757D01*
X213091327Y-58825306D01*
X213089220Y-58824778D01*
X213080010Y-58822507D01*
X213079983Y-58822500D01*
X213079892Y-58822478D01*
X212592618Y-58704267D01*
X212592189Y-58704164D01*
X212582739Y-58701912D01*
X212581124Y-58701534D01*
X212571189Y-58699249D01*
X212082410Y-58588854D01*
X212072474Y-58586651D01*
X212071162Y-58586366D01*
X212070693Y-58586264D01*
X212066627Y-58585396D01*
X212060989Y-58584193D01*
X211570048Y-58481468D01*
X211560935Y-58479597D01*
X211560831Y-58479576D01*
X211559018Y-58479211D01*
X211558267Y-58479063D01*
X211548774Y-58477193D01*
X211056305Y-58382277D01*
X211046935Y-58380508D01*
X211044929Y-58380138D01*
X211034998Y-58378346D01*
X210664951Y-58313097D01*
X210541164Y-58291271D01*
X210539321Y-58290953D01*
X210531263Y-58289564D01*
X210529555Y-58289278D01*
X210529531Y-58289274D01*
X210529370Y-58289247D01*
X210519634Y-58287650D01*
X210519501Y-58287628D01*
X210519393Y-58287611D01*
X210024673Y-58208450D01*
X210015124Y-58206959D01*
X210013292Y-58206680D01*
X210002953Y-58205150D01*
X209506462Y-58133766D01*
X209496587Y-58132387D01*
X209494788Y-58132143D01*
X209487774Y-58131220D01*
X209485045Y-58130861D01*
X209485018Y-58130857D01*
X209484801Y-58130829D01*
X209484801Y-58130828D01*
X208987792Y-58067402D01*
X208978321Y-58066229D01*
X208976568Y-58066019D01*
X208966076Y-58064804D01*
X208467736Y-58009226D01*
X208457659Y-58008143D01*
X208455495Y-58007919D01*
X208445900Y-58006965D01*
X208309546Y-57993945D01*
X208244681Y-57967977D01*
X208204153Y-57911063D01*
X208197333Y-57870507D01*
X208197333Y-57782223D01*
X208170834Y-57614919D01*
X208160386Y-57548953D01*
X208155151Y-57532842D01*
X208121276Y-57428585D01*
X208087402Y-57324331D01*
X208050038Y-57251000D01*
X207980176Y-57113887D01*
X207841350Y-56922811D01*
X207841348Y-56922809D01*
X207838186Y-56919107D01*
X207838843Y-56918545D01*
X207816757Y-56886214D01*
X207812278Y-56876000D01*
X207657450Y-56522910D01*
X207647012Y-56473114D01*
X207647012Y-56467168D01*
X207647012Y-56467158D01*
X207640593Y-56363763D01*
X207589562Y-56120386D01*
X207589560Y-56120381D01*
X207589558Y-56120374D01*
X207499169Y-55888730D01*
X207499168Y-55888727D01*
X207371878Y-55675106D01*
X207371875Y-55675103D01*
X207371872Y-55675097D01*
X207211163Y-55485350D01*
X207211161Y-55485348D01*
X207021414Y-55324639D01*
X206973969Y-55296368D01*
X206807785Y-55197344D01*
X206807783Y-55197343D01*
X206807781Y-55197342D01*
X206576137Y-55106953D01*
X206576127Y-55106950D01*
X206332750Y-55055919D01*
X206332747Y-55055918D01*
X206229362Y-55049500D01*
X206229354Y-55049500D01*
X205363670Y-55049500D01*
X205363661Y-55049500D01*
X205260276Y-55055918D01*
X205260273Y-55055919D01*
X205016896Y-55106950D01*
X205016886Y-55106953D01*
X204785242Y-55197342D01*
X204571609Y-55324639D01*
X204381862Y-55485348D01*
X204381860Y-55485350D01*
X204221151Y-55675097D01*
X204093854Y-55888730D01*
X204003465Y-56120374D01*
X204003462Y-56120384D01*
X203952431Y-56363761D01*
X203952430Y-56363764D01*
X203946012Y-56467149D01*
X203946012Y-56876000D01*
X203926327Y-56943039D01*
X203873523Y-56988794D01*
X203822012Y-57000000D01*
X203796512Y-57000000D01*
X203796512Y-57251000D01*
X203776827Y-57318039D01*
X203724023Y-57363794D01*
X203672512Y-57375000D01*
X202696513Y-57375000D01*
X202696513Y-57499986D01*
X202707006Y-57602697D01*
X202762153Y-57769119D01*
X202762157Y-57769126D01*
X202778376Y-57795423D01*
X202796815Y-57862816D01*
X202775891Y-57929479D01*
X202722248Y-57974248D01*
X202652917Y-57982908D01*
X202647447Y-57981890D01*
X202615712Y-57975250D01*
X202615711Y-57975249D01*
X202615708Y-57975249D01*
X202484129Y-57954929D01*
X202484125Y-57954928D01*
X202259059Y-57952584D01*
X202259058Y-57952584D01*
X202259056Y-57952584D01*
X202249294Y-57953360D01*
X202198455Y-57957401D01*
X202187779Y-57958295D01*
X202186059Y-57958446D01*
X202182094Y-57958810D01*
X202176668Y-57959308D01*
X201958469Y-57980143D01*
X201677447Y-58006978D01*
X201668349Y-58007881D01*
X201666487Y-58008073D01*
X201655709Y-58009229D01*
X201157326Y-58064812D01*
X201147296Y-58065971D01*
X201145539Y-58066182D01*
X201145420Y-58066197D01*
X201144236Y-58066343D01*
X201135776Y-58067389D01*
X200638546Y-58130844D01*
X200628289Y-58132195D01*
X200626797Y-58132398D01*
X200616930Y-58133776D01*
X200120461Y-58205158D01*
X200110413Y-58206645D01*
X200108556Y-58206928D01*
X200108533Y-58206931D01*
X200108504Y-58206936D01*
X200098900Y-58208435D01*
X200098779Y-58208454D01*
X200098666Y-58208472D01*
X199603838Y-58287650D01*
X199594130Y-58289242D01*
X199592120Y-58289580D01*
X199582336Y-58291265D01*
X199088463Y-58378346D01*
X199078161Y-58380206D01*
X199076490Y-58380515D01*
X199067165Y-58382277D01*
X198574798Y-58477173D01*
X198574653Y-58477201D01*
X198574609Y-58477210D01*
X198565186Y-58479063D01*
X198564449Y-58479211D01*
X198563335Y-58479434D01*
X198553196Y-58481513D01*
X198062665Y-58584153D01*
X198052979Y-58586219D01*
X198051190Y-58586607D01*
X198041269Y-58588806D01*
X197552243Y-58699257D01*
X197544541Y-58701029D01*
X197542404Y-58701521D01*
X197540734Y-58701912D01*
X197540585Y-58701947D01*
X197530856Y-58704266D01*
X197043533Y-58822488D01*
X197033801Y-58824889D01*
X197032159Y-58825301D01*
X197022440Y-58827782D01*
X196536848Y-58953776D01*
X196526601Y-58956481D01*
X196524947Y-58956926D01*
X196515856Y-58959403D01*
X196032825Y-59092947D01*
X196032731Y-59092973D01*
X196032660Y-59092993D01*
X196029068Y-59094001D01*
X196023095Y-59095677D01*
X196021638Y-59096092D01*
X196021332Y-59096180D01*
X196011724Y-59098960D01*
X196011593Y-59098998D01*
X195530614Y-59240225D01*
X195521537Y-59242928D01*
X195519680Y-59243488D01*
X195509671Y-59246555D01*
X195030653Y-59395504D01*
X195021543Y-59398375D01*
X195019788Y-59398937D01*
X195019760Y-59398946D01*
X195010195Y-59402045D01*
X194766585Y-59482054D01*
X194533585Y-59558578D01*
X194527012Y-59560767D01*
X194523863Y-59561816D01*
X194522985Y-59562112D01*
X194522128Y-59562401D01*
X194513040Y-59565508D01*
X194039136Y-59729527D01*
X194029259Y-59732992D01*
X194027713Y-59733542D01*
X194018731Y-59736773D01*
X193547262Y-59908373D01*
X193537800Y-59911860D01*
X193536339Y-59912405D01*
X193527016Y-59915926D01*
X193058666Y-60094856D01*
X193050055Y-60098182D01*
X193048334Y-60098854D01*
X193038353Y-60102800D01*
X192572575Y-60289270D01*
X192563331Y-60293014D01*
X192561741Y-60293665D01*
X192552719Y-60297403D01*
X192090076Y-60491190D01*
X192080449Y-60495269D01*
X192078813Y-60495971D01*
X192069793Y-60499879D01*
X191610851Y-60700732D01*
X191601249Y-60704982D01*
X191599478Y-60705774D01*
X191590697Y-60709743D01*
X191400232Y-60796727D01*
X191400214Y-60796735D01*
X191388078Y-60802278D01*
X191388077Y-60802278D01*
X191327604Y-60829895D01*
X191246345Y-60867004D01*
X191233034Y-60873177D01*
X191230474Y-60874382D01*
X191121955Y-60933547D01*
X191100165Y-60945427D01*
X191100163Y-60945427D01*
X191100160Y-60945430D01*
X190920706Y-61081298D01*
X190905341Y-61095266D01*
X190842493Y-61125793D01*
X190773118Y-61117495D01*
X190719242Y-61073008D01*
X190705208Y-61045350D01*
X190697017Y-61022498D01*
X190598770Y-60748412D01*
X190577675Y-60684093D01*
X190531537Y-60591341D01*
X190523143Y-60576803D01*
X190508674Y-60544776D01*
X190506869Y-60541507D01*
X190498061Y-60525821D01*
X190475687Y-60493712D01*
X190470042Y-60484829D01*
X189998701Y-59668441D01*
X189998698Y-59668437D01*
X189998695Y-59668431D01*
X189941621Y-59582374D01*
X189941443Y-59582105D01*
X189941441Y-59582103D01*
X189941438Y-59582098D01*
X189775556Y-59396843D01*
X189581443Y-59241417D01*
X189364396Y-59120061D01*
X189364395Y-59120060D01*
X189364394Y-59120060D01*
X189261292Y-59083070D01*
X189130334Y-59036086D01*
X189130330Y-59036085D01*
X189130329Y-59036085D01*
X188885643Y-58991779D01*
X188885633Y-58991778D01*
X188636999Y-58988353D01*
X188636989Y-58988354D01*
X188391183Y-59025898D01*
X188391175Y-59025900D01*
X188154900Y-59103390D01*
X188154886Y-59103395D01*
X188062159Y-59149520D01*
X188062138Y-59149532D01*
X187312444Y-59582367D01*
X187312440Y-59582370D01*
X187226104Y-59639628D01*
X187040848Y-59805510D01*
X187040844Y-59805514D01*
X186885420Y-59999626D01*
X186764063Y-60216674D01*
X186680088Y-60450736D01*
X186680087Y-60450740D01*
X186635781Y-60695430D01*
X186632355Y-60944070D01*
X186632356Y-60944079D01*
X186669900Y-61189884D01*
X186669903Y-61189896D01*
X186747393Y-61426170D01*
X186747397Y-61426180D01*
X186793523Y-61518909D01*
X186793531Y-61518923D01*
X186793535Y-61518931D01*
X186991507Y-61861828D01*
X187326370Y-62441830D01*
X187326372Y-62441833D01*
X187326377Y-62441841D01*
X187353890Y-62483326D01*
X187383628Y-62528166D01*
X187383630Y-62528168D01*
X187383634Y-62528174D01*
X187549516Y-62713429D01*
X187743629Y-62868855D01*
X187960676Y-62990211D01*
X188109879Y-63043740D01*
X188121778Y-63048723D01*
X188133682Y-63054453D01*
X188185550Y-63101266D01*
X188203876Y-63168690D01*
X188182840Y-63235318D01*
X188141901Y-63273570D01*
X187611671Y-63579699D01*
X187543771Y-63596172D01*
X187507895Y-63589063D01*
X187397512Y-63549565D01*
X187397504Y-63549563D01*
X187329893Y-63532019D01*
X187290058Y-63522375D01*
X187244296Y-63516323D01*
X187180416Y-63488018D01*
X187141980Y-63429671D01*
X187141189Y-63359806D01*
X187178297Y-63300604D01*
X187198554Y-63286006D01*
X187205725Y-63281865D01*
X186793226Y-62567396D01*
X186793225Y-62567396D01*
X186165359Y-62929894D01*
X186165359Y-62929895D01*
X186227841Y-63038118D01*
X186227843Y-63038122D01*
X186288295Y-63121840D01*
X186419266Y-63238393D01*
X186573591Y-63321605D01*
X186589122Y-63325766D01*
X186648784Y-63362129D01*
X186679315Y-63424975D01*
X186671023Y-63494350D01*
X186626540Y-63548230D01*
X186595727Y-63563350D01*
X186556460Y-63576246D01*
X186556422Y-63576260D01*
X186432332Y-63624443D01*
X186236250Y-63734939D01*
X186236243Y-63734943D01*
X186236239Y-63734946D01*
X186205287Y-63756254D01*
X186155303Y-63790665D01*
X186146770Y-63796594D01*
X186145546Y-63797452D01*
X186145448Y-63797520D01*
X186145357Y-63797585D01*
X186137645Y-63803033D01*
X186137580Y-63803079D01*
X186137453Y-63803169D01*
X185729302Y-64093812D01*
X185721602Y-64099338D01*
X185720058Y-64100456D01*
X185720053Y-64100460D01*
X185711560Y-64106658D01*
X185711527Y-64106681D01*
X185711500Y-64106702D01*
X185307692Y-64404018D01*
X185299269Y-64410274D01*
X185297849Y-64411339D01*
X185290225Y-64417095D01*
X184891184Y-64720783D01*
X184883640Y-64726569D01*
X184882156Y-64727716D01*
X184874077Y-64734016D01*
X184479830Y-65044056D01*
X184475976Y-65047111D01*
X184472074Y-65050205D01*
X184471989Y-65050272D01*
X184471888Y-65050353D01*
X184470834Y-65051194D01*
X184462878Y-65057605D01*
X184073573Y-65373883D01*
X184065918Y-65380152D01*
X184064493Y-65381328D01*
X184056759Y-65387767D01*
X183701306Y-65686025D01*
X183701307Y-65686026D01*
X183672574Y-65710135D01*
X183668274Y-65713773D01*
X183664888Y-65716638D01*
X183664702Y-65716797D01*
X183663668Y-65717678D01*
X183656069Y-65724211D01*
X183283285Y-66047229D01*
X183175169Y-66152961D01*
X183155154Y-66175045D01*
X183116563Y-66219691D01*
X183116556Y-66219700D01*
X182989555Y-66405532D01*
X182897774Y-66611064D01*
X182875120Y-66677153D01*
X182862468Y-66716122D01*
X182816024Y-66936368D01*
X182816024Y-66936373D01*
X182809653Y-67161356D01*
X182809654Y-67161363D01*
X182843556Y-67383863D01*
X182843558Y-67383872D01*
X182843559Y-67383877D01*
X182852060Y-67418473D01*
X182860237Y-67451746D01*
X182870661Y-67491359D01*
X182875219Y-67503345D01*
X182880646Y-67573003D01*
X182847552Y-67634538D01*
X182817771Y-67656773D01*
X182801161Y-67665651D01*
X182801151Y-67665657D01*
X182531532Y-67845811D01*
X182531518Y-67845821D01*
X182280841Y-68051546D01*
X182051546Y-68280841D01*
X181845821Y-68531518D01*
X181845811Y-68531532D01*
X181665657Y-68801151D01*
X181665646Y-68801169D01*
X181636253Y-68856159D01*
X181587290Y-68906003D01*
X181519152Y-68921462D01*
X181493907Y-68917235D01*
X181344603Y-68876029D01*
X181179763Y-68861194D01*
X181120425Y-68855854D01*
X181050556Y-68855854D01*
X181009604Y-68856522D01*
X180897903Y-68870261D01*
X180786201Y-68884000D01*
X180571301Y-68950925D01*
X180371796Y-69055149D01*
X180313020Y-69092921D01*
X180313011Y-69092927D01*
X180204990Y-69170738D01*
X180042932Y-69326950D01*
X179975563Y-69404698D01*
X179969061Y-69412260D01*
X179967701Y-69413856D01*
X179961517Y-69421166D01*
X179961355Y-69421358D01*
X179638930Y-69805610D01*
X179638917Y-69805626D01*
X179638773Y-69805798D01*
X179632751Y-69813032D01*
X179631423Y-69814639D01*
X179625204Y-69822234D01*
X179625107Y-69822353D01*
X179557904Y-69905073D01*
X179308844Y-70211639D01*
X179302433Y-70219595D01*
X179301592Y-70220649D01*
X179301511Y-70220750D01*
X179301444Y-70220835D01*
X179298350Y-70224737D01*
X179295295Y-70228591D01*
X178985255Y-70622838D01*
X178978955Y-70630917D01*
X178977808Y-70632401D01*
X178972022Y-70639945D01*
X178668334Y-71038986D01*
X178662580Y-71046606D01*
X178661513Y-71048030D01*
X178655257Y-71056453D01*
X178357941Y-71460261D01*
X178357897Y-71460321D01*
X178357778Y-71460485D01*
X178351671Y-71468853D01*
X178350593Y-71470342D01*
X178345098Y-71477997D01*
X178271466Y-71581401D01*
X178216545Y-71624592D01*
X178170458Y-71633475D01*
X177457942Y-71633475D01*
X177424166Y-71628786D01*
X177012626Y-71512284D01*
X176500029Y-71367173D01*
X176471806Y-71355250D01*
X176315443Y-71264974D01*
X176315435Y-71264970D01*
X176315421Y-71264962D01*
X176222692Y-71218836D01*
X176222682Y-71218832D01*
X175986408Y-71141342D01*
X175986405Y-71141341D01*
X175986402Y-71141340D01*
X175986396Y-71141339D01*
X175740591Y-71103795D01*
X175740582Y-71103794D01*
X175491942Y-71107220D01*
X175247252Y-71151526D01*
X175247248Y-71151527D01*
X175013186Y-71235502D01*
X174796138Y-71356859D01*
X174602026Y-71512283D01*
X174602022Y-71512287D01*
X174436140Y-71697543D01*
X174378882Y-71783879D01*
X174378879Y-71783883D01*
X173946044Y-72533577D01*
X173946032Y-72533598D01*
X173899907Y-72626325D01*
X173899902Y-72626339D01*
X173822412Y-72862614D01*
X173822410Y-72862622D01*
X173784866Y-73108428D01*
X173784865Y-73108438D01*
X173788290Y-73357072D01*
X173788291Y-73357082D01*
X173829945Y-73587123D01*
X173832598Y-73601773D01*
X173834620Y-73607409D01*
X173899084Y-73787090D01*
X173916573Y-73835835D01*
X174037929Y-74052882D01*
X174193355Y-74246995D01*
X174378610Y-74412877D01*
X174378615Y-74412880D01*
X174378617Y-74412882D01*
X174401706Y-74428194D01*
X174464943Y-74470134D01*
X175387853Y-75002976D01*
X175387866Y-75002982D01*
X175387874Y-75002987D01*
X175480603Y-75049113D01*
X175480613Y-75049117D01*
X175555477Y-75073670D01*
X175716891Y-75126609D01*
X175962711Y-75164155D01*
X175962712Y-75164154D01*
X175962713Y-75164155D01*
X176045593Y-75163013D01*
X176211357Y-75160729D01*
X176456048Y-75116423D01*
X176659217Y-75043530D01*
X176728965Y-75039419D01*
X176789864Y-75073670D01*
X176822578Y-75135408D01*
X176816721Y-75205032D01*
X176808478Y-75222246D01*
X176401972Y-75926335D01*
X176351405Y-75974551D01*
X176316781Y-75986332D01*
X176141064Y-76018302D01*
X176141049Y-76018305D01*
X176073680Y-76036930D01*
X176034411Y-76048479D01*
X176034401Y-76048483D01*
X175949069Y-76083770D01*
X175826403Y-76134497D01*
X175826401Y-76134497D01*
X175826399Y-76134499D01*
X175637100Y-76256273D01*
X175472596Y-76409881D01*
X175472581Y-76409897D01*
X175426013Y-76461945D01*
X175425994Y-76461968D01*
X175342616Y-76565745D01*
X175228048Y-76759490D01*
X175178414Y-76863762D01*
X175174040Y-76873051D01*
X175173282Y-76874676D01*
X175169129Y-76883680D01*
X174980897Y-77295853D01*
X174960947Y-77339538D01*
X174956835Y-77348638D01*
X174956771Y-77348778D01*
X174956734Y-77348863D01*
X174956064Y-77350360D01*
X174951917Y-77359738D01*
X174751126Y-77818536D01*
X174747409Y-77827112D01*
X174746639Y-77828906D01*
X174742410Y-77838884D01*
X174680667Y-77986288D01*
X174548615Y-78301543D01*
X174544931Y-78310438D01*
X174544280Y-78312027D01*
X174540505Y-78321345D01*
X174354010Y-78787186D01*
X174353971Y-78787288D01*
X174353969Y-78787291D01*
X174350359Y-78796417D01*
X174349714Y-78798066D01*
X174346077Y-78807474D01*
X174167165Y-79275777D01*
X174163644Y-79285100D01*
X174163113Y-79286525D01*
X174163080Y-79286615D01*
X174159577Y-79296121D01*
X174076737Y-79523722D01*
X173988012Y-79767492D01*
X173984805Y-79776408D01*
X173984231Y-79778020D01*
X173980766Y-79787897D01*
X173816747Y-80261801D01*
X173813640Y-80270889D01*
X173813546Y-80271168D01*
X173813055Y-80272624D01*
X173812986Y-80272830D01*
X173812985Y-80272834D01*
X173809817Y-80282346D01*
X173781228Y-80369394D01*
X173653284Y-80758956D01*
X173650185Y-80768521D01*
X173650126Y-80768705D01*
X173650110Y-80768755D01*
X173649720Y-80769974D01*
X173649674Y-80770119D01*
X173649666Y-80770145D01*
X173646701Y-80779553D01*
X173611759Y-80891928D01*
X173497761Y-81258546D01*
X173494860Y-81268007D01*
X173494298Y-81269867D01*
X173491456Y-81279407D01*
X173350189Y-81760519D01*
X173347487Y-81769853D01*
X173347037Y-81771432D01*
X173344202Y-81781528D01*
X173210675Y-82264498D01*
X173208217Y-82273516D01*
X173207717Y-82275378D01*
X173204985Y-82285723D01*
X173079030Y-82771166D01*
X173076596Y-82780702D01*
X173076117Y-82782611D01*
X173073733Y-82792268D01*
X173024306Y-82996012D01*
X172955511Y-83279592D01*
X172953567Y-83287741D01*
X172953233Y-83289146D01*
X172952794Y-83291015D01*
X172950478Y-83301087D01*
X172840045Y-83790030D01*
X172837846Y-83799951D01*
X172837462Y-83801720D01*
X172835384Y-83811469D01*
X172732752Y-84301957D01*
X172730673Y-84312096D01*
X172730656Y-84312183D01*
X172730302Y-84313947D01*
X172728449Y-84323370D01*
X172728403Y-84323606D01*
X172633516Y-84815926D01*
X172631798Y-84825022D01*
X172631424Y-84827043D01*
X172629570Y-84837308D01*
X172548075Y-85299500D01*
X172542514Y-85331039D01*
X172541050Y-85339540D01*
X172540800Y-85340998D01*
X172540433Y-85343183D01*
X172538874Y-85352682D01*
X172459716Y-85847388D01*
X172459686Y-85847580D01*
X172459679Y-85847624D01*
X172458217Y-85856991D01*
X172457926Y-85858902D01*
X172457917Y-85858964D01*
X172456400Y-85869206D01*
X172385015Y-86365691D01*
X172383622Y-86375667D01*
X172383434Y-86377050D01*
X172382069Y-86387416D01*
X172318628Y-86884537D01*
X172317444Y-86894110D01*
X172317436Y-86894181D01*
X172317217Y-86896009D01*
X172316039Y-86906197D01*
X172316027Y-86906305D01*
X172260452Y-87404611D01*
X172259368Y-87414711D01*
X172259154Y-87416778D01*
X172258202Y-87426363D01*
X172210568Y-87925203D01*
X172209703Y-87934625D01*
X172209529Y-87936602D01*
X172208646Y-87947141D01*
X172204211Y-88002928D01*
X172204211Y-88002936D01*
X172202821Y-88178355D01*
X172202822Y-88178384D01*
X172202793Y-88182069D01*
X172203288Y-88189856D01*
X172203290Y-88189904D01*
X172205030Y-88217267D01*
X172205031Y-88217286D01*
X172205032Y-88217288D01*
X172205268Y-88219691D01*
X172205573Y-88223371D01*
X172205597Y-88223736D01*
X172205673Y-88224456D01*
X172205653Y-88224560D01*
X172205751Y-88225989D01*
X172205387Y-88226013D01*
X172193060Y-88293178D01*
X172145295Y-88344171D01*
X172077544Y-88361246D01*
X172032523Y-88350890D01*
X171854179Y-88272640D01*
X171805069Y-88252321D01*
X171761624Y-88239764D01*
X171750982Y-88236158D01*
X171676137Y-88206954D01*
X171676127Y-88206950D01*
X171432750Y-88155919D01*
X171432747Y-88155918D01*
X171329362Y-88149500D01*
X171329354Y-88149500D01*
X170263670Y-88149500D01*
X170263661Y-88149500D01*
X170160276Y-88155918D01*
X170160273Y-88155919D01*
X169916896Y-88206950D01*
X169916886Y-88206953D01*
X169685242Y-88297342D01*
X169471609Y-88424639D01*
X169281862Y-88585348D01*
X169281860Y-88585350D01*
X169121151Y-88775097D01*
X168993854Y-88988730D01*
X168903465Y-89220374D01*
X168903462Y-89220384D01*
X168852431Y-89463761D01*
X168852430Y-89463764D01*
X168846012Y-89567149D01*
X168177596Y-89567149D01*
X168181291Y-89442226D01*
X168181357Y-89440453D01*
X168186220Y-89330880D01*
X168205319Y-88900552D01*
X168205401Y-88898959D01*
X168237345Y-88359409D01*
X168237464Y-88357637D01*
X168237964Y-88350890D01*
X168277376Y-87818681D01*
X168277506Y-87817087D01*
X168325381Y-87278783D01*
X168325551Y-87277012D01*
X168353380Y-87009067D01*
X168381379Y-86739468D01*
X168381578Y-86737689D01*
X168413367Y-86470168D01*
X168445345Y-86201050D01*
X168445555Y-86199394D01*
X168517264Y-85663639D01*
X168517485Y-85662076D01*
X168597093Y-85127526D01*
X168597368Y-85125772D01*
X168640998Y-84859858D01*
X168684863Y-84592498D01*
X168685166Y-84590739D01*
X168780548Y-84058745D01*
X168780827Y-84057249D01*
X168884088Y-83526602D01*
X168884436Y-83524890D01*
X168931421Y-83301134D01*
X168995491Y-82996012D01*
X168995829Y-82994457D01*
X169114722Y-82467144D01*
X169115072Y-82465640D01*
X169241755Y-81940105D01*
X169242160Y-81938477D01*
X169376575Y-81414968D01*
X169376993Y-81413391D01*
X169519131Y-80891928D01*
X169519584Y-80890311D01*
X169669412Y-80371020D01*
X169669894Y-80369394D01*
X169827377Y-79852393D01*
X169827878Y-79850790D01*
X169993019Y-79336071D01*
X169993505Y-79334596D01*
X170166249Y-78822341D01*
X170166763Y-78820856D01*
X170347015Y-78311339D01*
X170347625Y-78309656D01*
X170441917Y-78055154D01*
X170535355Y-77802956D01*
X170535987Y-77801288D01*
X170731234Y-77297298D01*
X170731806Y-77295853D01*
X170934491Y-76794783D01*
X170935167Y-76793148D01*
X170940222Y-76781165D01*
X171145212Y-76295188D01*
X171145868Y-76293665D01*
X171272183Y-76006151D01*
X174626408Y-76006151D01*
X174626408Y-76006152D01*
X174734638Y-76068638D01*
X174734658Y-76068648D01*
X174828844Y-76110912D01*
X174828843Y-76110912D01*
X175000546Y-76146365D01*
X175175798Y-76141267D01*
X175345146Y-76095891D01*
X175499469Y-76012680D01*
X175630440Y-75896127D01*
X175690891Y-75812413D01*
X175703378Y-75790783D01*
X174988907Y-75378285D01*
X174988906Y-75378285D01*
X174626408Y-76006151D01*
X171272183Y-76006151D01*
X171363312Y-75798728D01*
X171363915Y-75797382D01*
X171588646Y-75305727D01*
X171589299Y-75304324D01*
X171791689Y-74878320D01*
X173534703Y-74878320D01*
X173539802Y-75053572D01*
X173585178Y-75222918D01*
X173668390Y-75377244D01*
X173784943Y-75508215D01*
X173868652Y-75568662D01*
X173976888Y-75631151D01*
X174339386Y-75003284D01*
X174339386Y-75003283D01*
X173624916Y-74590785D01*
X173612429Y-74612417D01*
X173570158Y-74706618D01*
X173570157Y-74706620D01*
X173534703Y-74878320D01*
X171791689Y-74878320D01*
X171821241Y-74816118D01*
X171822039Y-74814469D01*
X172061113Y-74329862D01*
X172061876Y-74328343D01*
X172308175Y-73847153D01*
X172308895Y-73845772D01*
X172562256Y-73368324D01*
X172563043Y-73366868D01*
X172823456Y-72893179D01*
X172824253Y-72891755D01*
X173091621Y-72422001D01*
X173092430Y-72420604D01*
X173366667Y-71954932D01*
X173367595Y-71953383D01*
X173442696Y-71830063D01*
X173648698Y-71491796D01*
X173649546Y-71490426D01*
X173937558Y-71032862D01*
X173938371Y-71031594D01*
X174233008Y-70578505D01*
X174233921Y-70577121D01*
X174535285Y-70128345D01*
X174536196Y-70127011D01*
X174844166Y-69682731D01*
X174845069Y-69681450D01*
X175159478Y-69241908D01*
X175160551Y-69240432D01*
X175215337Y-69166186D01*
X175481438Y-68805564D01*
X175482463Y-68804197D01*
X175809720Y-68374152D01*
X175810801Y-68372755D01*
X176144352Y-67947631D01*
X176145428Y-67946279D01*
X176485350Y-67525982D01*
X176486299Y-67524826D01*
X176832410Y-67109583D01*
X176833476Y-67108322D01*
X177185726Y-66698199D01*
X177186738Y-66697039D01*
X177544967Y-66292218D01*
X177546000Y-66291067D01*
X177910173Y-65891589D01*
X177911272Y-65890401D01*
X178281314Y-65496346D01*
X178282430Y-65495176D01*
X178658193Y-65106700D01*
X178659396Y-65105475D01*
X179040883Y-64722575D01*
X179041990Y-64721480D01*
X179429183Y-64344177D01*
X179430304Y-64343101D01*
X179822976Y-63971617D01*
X179824172Y-63970502D01*
X180222267Y-63604889D01*
X180223474Y-63603796D01*
X180626947Y-63244092D01*
X180628209Y-63242983D01*
X181036845Y-62889378D01*
X181038162Y-62888254D01*
X181452070Y-62540655D01*
X181453408Y-62539549D01*
X181872339Y-62198163D01*
X181873558Y-62197184D01*
X182241571Y-61906238D01*
X185650144Y-61906238D01*
X185685598Y-62077939D01*
X185727863Y-62172128D01*
X185727873Y-62172147D01*
X185790357Y-62280374D01*
X185790358Y-62280374D01*
X186418224Y-61917876D01*
X186418224Y-61917875D01*
X186005726Y-61203406D01*
X185984090Y-61215898D01*
X185900388Y-61276339D01*
X185900380Y-61276346D01*
X185783831Y-61407311D01*
X185700619Y-61561637D01*
X185655243Y-61730985D01*
X185650144Y-61906238D01*
X182241571Y-61906238D01*
X182297745Y-61861828D01*
X182298861Y-61860960D01*
X182727797Y-61532035D01*
X182729192Y-61530981D01*
X183162859Y-61208498D01*
X183164244Y-61207483D01*
X183602677Y-60891411D01*
X183604009Y-60890466D01*
X184047098Y-60580890D01*
X184048394Y-60579999D01*
X184496044Y-60276984D01*
X184497478Y-60276029D01*
X184949393Y-59979774D01*
X184950841Y-59978839D01*
X185407291Y-59689167D01*
X185408544Y-59688385D01*
X185869239Y-59405485D01*
X185870617Y-59404654D01*
X186335328Y-59128664D01*
X186336711Y-59127856D01*
X186805457Y-58858762D01*
X186807010Y-58857887D01*
X187279572Y-58595814D01*
X187281059Y-58595003D01*
X187757594Y-58339864D01*
X187759046Y-58339100D01*
X188239349Y-58091010D01*
X188240738Y-58090307D01*
X188724535Y-57849405D01*
X188726063Y-57848657D01*
X189213399Y-57614919D01*
X189214890Y-57614217D01*
X189705710Y-57387672D01*
X189707100Y-57387042D01*
X190201216Y-57167776D01*
X190202725Y-57167120D01*
X190700018Y-56955187D01*
X190701443Y-56954592D01*
X191201757Y-56750059D01*
X191203366Y-56749415D01*
X191706541Y-56552342D01*
X191708192Y-56551709D01*
X191846157Y-56500013D01*
X202696512Y-56500013D01*
X202696512Y-56625000D01*
X203421512Y-56625000D01*
X203421512Y-55799999D01*
X203396541Y-55800000D01*
X203396522Y-55800001D01*
X203293814Y-55810494D01*
X203127392Y-55865641D01*
X203127387Y-55865643D01*
X202978166Y-55957684D01*
X202854196Y-56081654D01*
X202762155Y-56230875D01*
X202762153Y-56230880D01*
X202707006Y-56397302D01*
X202707005Y-56397309D01*
X202696512Y-56500013D01*
X191846157Y-56500013D01*
X192214201Y-56362106D01*
X192215838Y-56361506D01*
X192724678Y-56179374D01*
X192726294Y-56178809D01*
X193237824Y-56004200D01*
X193239405Y-56003674D01*
X193753331Y-55836689D01*
X193755035Y-55836149D01*
X194271489Y-55676745D01*
X194273045Y-55676278D01*
X194791738Y-55524543D01*
X194793389Y-55524073D01*
X195314309Y-55380012D01*
X195315994Y-55379561D01*
X195838874Y-55243246D01*
X195840523Y-55242828D01*
X196365576Y-55114206D01*
X196367094Y-55113846D01*
X196893974Y-54993003D01*
X196895603Y-54992643D01*
X197424111Y-54879624D01*
X197425663Y-54879303D01*
X197955884Y-54774091D01*
X197957621Y-54773760D01*
X198489123Y-54676437D01*
X198490856Y-54676133D01*
X199023856Y-54586657D01*
X199025514Y-54586392D01*
X199559860Y-54504793D01*
X199561430Y-54504566D01*
X200096863Y-54430885D01*
X200098486Y-54430674D01*
X200634992Y-54364910D01*
X200636759Y-54364707D01*
X201174070Y-54306895D01*
X201175662Y-54306735D01*
X201713797Y-54256870D01*
X201715596Y-54256717D01*
X202254469Y-54214807D01*
X202256100Y-54214693D01*
X202795448Y-54180760D01*
X202797156Y-54180665D01*
X203337025Y-54154706D01*
X203338760Y-54154636D01*
X203878871Y-54136662D01*
X203880487Y-54136620D01*
X204420950Y-54126631D01*
X204422640Y-54126612D01*
X204963068Y-54124615D01*
X204964812Y-54124621D01*
G37*
%TD.AperFunction*%
%TD*%
%TA.AperFunction,Conductor*%
%TO.N,Net-(D4-A)*%
G36*
X238256500Y-91425044D02*
G01*
X238789967Y-91991982D01*
X238793141Y-92000356D01*
X238789967Y-92008018D01*
X238256500Y-92574955D01*
X238248335Y-92578632D01*
X238243278Y-92577651D01*
X237503511Y-92253070D01*
X237497312Y-92246608D01*
X237496512Y-92242356D01*
X237496512Y-91757643D01*
X237499939Y-91749370D01*
X237503511Y-91746929D01*
X238243278Y-91422347D01*
X238252231Y-91422162D01*
X238256500Y-91425044D01*
G37*
%TD.AperFunction*%
%TD*%
%TA.AperFunction,Conductor*%
%TO.N,Net-(D3-A)*%
G36*
X233985439Y-74637864D02*
G01*
X234731189Y-74862043D01*
X234738126Y-74867707D01*
X234739117Y-74876298D01*
X234535271Y-75631309D01*
X234529806Y-75638403D01*
X234523585Y-75639953D01*
X233775552Y-75615030D01*
X233767669Y-75611609D01*
X233425218Y-75269158D01*
X233421791Y-75260885D01*
X233424778Y-75253076D01*
X233973364Y-74641258D01*
X233981437Y-74637387D01*
X233985439Y-74637864D01*
G37*
%TD.AperFunction*%
%TD*%
%TA.AperFunction,Conductor*%
%TO.N,Net-(D9-A)*%
G36*
X175929003Y-106618081D02*
G01*
X175934009Y-106621042D01*
X176274946Y-106961979D01*
X176278373Y-106970252D01*
X176274946Y-106978525D01*
X176272788Y-106980227D01*
X175546504Y-107425436D01*
X175537659Y-107426838D01*
X175535806Y-107426226D01*
X174862531Y-107139615D01*
X174856261Y-107133222D01*
X174856349Y-107124267D01*
X174856709Y-107123500D01*
X175218861Y-106421474D01*
X175225698Y-106415695D01*
X175232522Y-106415605D01*
X175929003Y-106618081D01*
G37*
%TD.AperFunction*%
%TD*%
%TA.AperFunction,Conductor*%
%TO.N,Net-(D2-A)*%
G36*
X222668709Y-62056065D02*
G01*
X223241839Y-62227632D01*
X223248782Y-62233288D01*
X223249693Y-62242196D01*
X223249481Y-62242836D01*
X222764406Y-63578147D01*
X222758360Y-63584753D01*
X222749414Y-63585149D01*
X222745136Y-63582425D01*
X222405927Y-63243216D01*
X222403729Y-63240164D01*
X222039802Y-62510265D01*
X222039178Y-62501332D01*
X222043488Y-62495513D01*
X222658585Y-62057744D01*
X222667310Y-62055739D01*
X222668709Y-62056065D01*
G37*
%TD.AperFunction*%
%TD*%
M02*
