%TF.GenerationSoftware,KiCad,Pcbnew,9.0.7-9.0.7~ubuntu24.04.1*%
%TF.CreationDate,2026-01-08T12:22:14+05:30*%
%TF.ProjectId,RPI_Cam3_RL,5250495f-4361-46d3-935f-524c2e6b6963,1.0.0*%
%TF.SameCoordinates,Original*%
%TF.FileFunction,Legend,Bot*%
%TF.FilePolarity,Positive*%
%FSLAX46Y46*%
G04 Gerber Fmt 4.6, Leading zero omitted, Abs format (unit mm)*
G04 Created by KiCad (PCBNEW 9.0.7-9.0.7~ubuntu24.04.1) date 2026-01-08 12:22:14*
%MOMM*%
%LPD*%
G01*
G04 APERTURE LIST*
%ADD10C,0.187500*%
%ADD11C,0.150000*%
%ADD12C,0.120000*%
G04 APERTURE END LIST*
D10*
X212862359Y-68661930D02*
X213362359Y-67947644D01*
X213719502Y-68661930D02*
X213719502Y-67161930D01*
X213719502Y-67161930D02*
X213148073Y-67161930D01*
X213148073Y-67161930D02*
X213005216Y-67233359D01*
X213005216Y-67233359D02*
X212933787Y-67304787D01*
X212933787Y-67304787D02*
X212862359Y-67447644D01*
X212862359Y-67447644D02*
X212862359Y-67661930D01*
X212862359Y-67661930D02*
X212933787Y-67804787D01*
X212933787Y-67804787D02*
X213005216Y-67876216D01*
X213005216Y-67876216D02*
X213148073Y-67947644D01*
X213148073Y-67947644D02*
X213719502Y-67947644D01*
X212219502Y-68661930D02*
X212219502Y-67161930D01*
X212219502Y-67161930D02*
X211648073Y-67161930D01*
X211648073Y-67161930D02*
X211505216Y-67233359D01*
X211505216Y-67233359D02*
X211433787Y-67304787D01*
X211433787Y-67304787D02*
X211362359Y-67447644D01*
X211362359Y-67447644D02*
X211362359Y-67661930D01*
X211362359Y-67661930D02*
X211433787Y-67804787D01*
X211433787Y-67804787D02*
X211505216Y-67876216D01*
X211505216Y-67876216D02*
X211648073Y-67947644D01*
X211648073Y-67947644D02*
X212219502Y-67947644D01*
X210719502Y-68661930D02*
X210719502Y-67161930D01*
X210362359Y-68804787D02*
X209219501Y-68804787D01*
X208005216Y-68519073D02*
X208076644Y-68590502D01*
X208076644Y-68590502D02*
X208290930Y-68661930D01*
X208290930Y-68661930D02*
X208433787Y-68661930D01*
X208433787Y-68661930D02*
X208648073Y-68590502D01*
X208648073Y-68590502D02*
X208790930Y-68447644D01*
X208790930Y-68447644D02*
X208862359Y-68304787D01*
X208862359Y-68304787D02*
X208933787Y-68019073D01*
X208933787Y-68019073D02*
X208933787Y-67804787D01*
X208933787Y-67804787D02*
X208862359Y-67519073D01*
X208862359Y-67519073D02*
X208790930Y-67376216D01*
X208790930Y-67376216D02*
X208648073Y-67233359D01*
X208648073Y-67233359D02*
X208433787Y-67161930D01*
X208433787Y-67161930D02*
X208290930Y-67161930D01*
X208290930Y-67161930D02*
X208076644Y-67233359D01*
X208076644Y-67233359D02*
X208005216Y-67304787D01*
X207433787Y-68233359D02*
X206719502Y-68233359D01*
X207576644Y-68661930D02*
X207076644Y-67161930D01*
X207076644Y-67161930D02*
X206576644Y-68661930D01*
X206076645Y-68661930D02*
X206076645Y-67161930D01*
X206076645Y-67161930D02*
X205576645Y-68233359D01*
X205576645Y-68233359D02*
X205076645Y-67161930D01*
X205076645Y-67161930D02*
X205076645Y-68661930D01*
X204719502Y-68804787D02*
X203576644Y-68804787D01*
X202362359Y-68661930D02*
X202862359Y-67947644D01*
X203219502Y-68661930D02*
X203219502Y-67161930D01*
X203219502Y-67161930D02*
X202648073Y-67161930D01*
X202648073Y-67161930D02*
X202505216Y-67233359D01*
X202505216Y-67233359D02*
X202433787Y-67304787D01*
X202433787Y-67304787D02*
X202362359Y-67447644D01*
X202362359Y-67447644D02*
X202362359Y-67661930D01*
X202362359Y-67661930D02*
X202433787Y-67804787D01*
X202433787Y-67804787D02*
X202505216Y-67876216D01*
X202505216Y-67876216D02*
X202648073Y-67947644D01*
X202648073Y-67947644D02*
X203219502Y-67947644D01*
X201719502Y-68661930D02*
X201719502Y-67661930D01*
X201719502Y-67161930D02*
X201790930Y-67233359D01*
X201790930Y-67233359D02*
X201719502Y-67304787D01*
X201719502Y-67304787D02*
X201648073Y-67233359D01*
X201648073Y-67233359D02*
X201719502Y-67161930D01*
X201719502Y-67161930D02*
X201719502Y-67304787D01*
X201005216Y-67661930D02*
X201005216Y-68661930D01*
X201005216Y-67804787D02*
X200933787Y-67733359D01*
X200933787Y-67733359D02*
X200790930Y-67661930D01*
X200790930Y-67661930D02*
X200576644Y-67661930D01*
X200576644Y-67661930D02*
X200433787Y-67733359D01*
X200433787Y-67733359D02*
X200362359Y-67876216D01*
X200362359Y-67876216D02*
X200362359Y-68661930D01*
X199005216Y-67661930D02*
X199005216Y-68876216D01*
X199005216Y-68876216D02*
X199076644Y-69019073D01*
X199076644Y-69019073D02*
X199148073Y-69090502D01*
X199148073Y-69090502D02*
X199290930Y-69161930D01*
X199290930Y-69161930D02*
X199505216Y-69161930D01*
X199505216Y-69161930D02*
X199648073Y-69090502D01*
X199005216Y-68590502D02*
X199148073Y-68661930D01*
X199148073Y-68661930D02*
X199433787Y-68661930D01*
X199433787Y-68661930D02*
X199576644Y-68590502D01*
X199576644Y-68590502D02*
X199648073Y-68519073D01*
X199648073Y-68519073D02*
X199719501Y-68376216D01*
X199719501Y-68376216D02*
X199719501Y-67947644D01*
X199719501Y-67947644D02*
X199648073Y-67804787D01*
X199648073Y-67804787D02*
X199576644Y-67733359D01*
X199576644Y-67733359D02*
X199433787Y-67661930D01*
X199433787Y-67661930D02*
X199148073Y-67661930D01*
X199148073Y-67661930D02*
X199005216Y-67733359D01*
X197576644Y-68661930D02*
X198290930Y-68661930D01*
X198290930Y-68661930D02*
X198290930Y-67161930D01*
X197076644Y-68661930D02*
X197076644Y-67661930D01*
X197076644Y-67161930D02*
X197148072Y-67233359D01*
X197148072Y-67233359D02*
X197076644Y-67304787D01*
X197076644Y-67304787D02*
X197005215Y-67233359D01*
X197005215Y-67233359D02*
X197076644Y-67161930D01*
X197076644Y-67161930D02*
X197076644Y-67304787D01*
X195719501Y-67661930D02*
X195719501Y-68876216D01*
X195719501Y-68876216D02*
X195790929Y-69019073D01*
X195790929Y-69019073D02*
X195862358Y-69090502D01*
X195862358Y-69090502D02*
X196005215Y-69161930D01*
X196005215Y-69161930D02*
X196219501Y-69161930D01*
X196219501Y-69161930D02*
X196362358Y-69090502D01*
X195719501Y-68590502D02*
X195862358Y-68661930D01*
X195862358Y-68661930D02*
X196148072Y-68661930D01*
X196148072Y-68661930D02*
X196290929Y-68590502D01*
X196290929Y-68590502D02*
X196362358Y-68519073D01*
X196362358Y-68519073D02*
X196433786Y-68376216D01*
X196433786Y-68376216D02*
X196433786Y-67947644D01*
X196433786Y-67947644D02*
X196362358Y-67804787D01*
X196362358Y-67804787D02*
X196290929Y-67733359D01*
X196290929Y-67733359D02*
X196148072Y-67661930D01*
X196148072Y-67661930D02*
X195862358Y-67661930D01*
X195862358Y-67661930D02*
X195719501Y-67733359D01*
X195005215Y-68661930D02*
X195005215Y-67161930D01*
X194362358Y-68661930D02*
X194362358Y-67876216D01*
X194362358Y-67876216D02*
X194433786Y-67733359D01*
X194433786Y-67733359D02*
X194576643Y-67661930D01*
X194576643Y-67661930D02*
X194790929Y-67661930D01*
X194790929Y-67661930D02*
X194933786Y-67733359D01*
X194933786Y-67733359D02*
X195005215Y-67804787D01*
X193862357Y-67661930D02*
X193290929Y-67661930D01*
X193648072Y-67161930D02*
X193648072Y-68447644D01*
X193648072Y-68447644D02*
X193576643Y-68590502D01*
X193576643Y-68590502D02*
X193433786Y-68661930D01*
X193433786Y-68661930D02*
X193290929Y-68661930D01*
X212862359Y-71076846D02*
X213362359Y-70362560D01*
X213719502Y-71076846D02*
X213719502Y-69576846D01*
X213719502Y-69576846D02*
X213148073Y-69576846D01*
X213148073Y-69576846D02*
X213005216Y-69648275D01*
X213005216Y-69648275D02*
X212933787Y-69719703D01*
X212933787Y-69719703D02*
X212862359Y-69862560D01*
X212862359Y-69862560D02*
X212862359Y-70076846D01*
X212862359Y-70076846D02*
X212933787Y-70219703D01*
X212933787Y-70219703D02*
X213005216Y-70291132D01*
X213005216Y-70291132D02*
X213148073Y-70362560D01*
X213148073Y-70362560D02*
X213719502Y-70362560D01*
X211648073Y-71005418D02*
X211790930Y-71076846D01*
X211790930Y-71076846D02*
X212076645Y-71076846D01*
X212076645Y-71076846D02*
X212219502Y-71005418D01*
X212219502Y-71005418D02*
X212290930Y-70862560D01*
X212290930Y-70862560D02*
X212290930Y-70291132D01*
X212290930Y-70291132D02*
X212219502Y-70148275D01*
X212219502Y-70148275D02*
X212076645Y-70076846D01*
X212076645Y-70076846D02*
X211790930Y-70076846D01*
X211790930Y-70076846D02*
X211648073Y-70148275D01*
X211648073Y-70148275D02*
X211576645Y-70291132D01*
X211576645Y-70291132D02*
X211576645Y-70433989D01*
X211576645Y-70433989D02*
X212290930Y-70576846D01*
X211076645Y-70076846D02*
X210719502Y-71076846D01*
X210719502Y-71076846D02*
X210362359Y-70076846D01*
X207862359Y-71076846D02*
X208719502Y-71076846D01*
X208290931Y-71076846D02*
X208290931Y-69576846D01*
X208290931Y-69576846D02*
X208433788Y-69791132D01*
X208433788Y-69791132D02*
X208576645Y-69933989D01*
X208576645Y-69933989D02*
X208719502Y-70005418D01*
X207219503Y-70933989D02*
X207148074Y-71005418D01*
X207148074Y-71005418D02*
X207219503Y-71076846D01*
X207219503Y-71076846D02*
X207290931Y-71005418D01*
X207290931Y-71005418D02*
X207219503Y-70933989D01*
X207219503Y-70933989D02*
X207219503Y-71076846D01*
X206219502Y-69576846D02*
X206076645Y-69576846D01*
X206076645Y-69576846D02*
X205933788Y-69648275D01*
X205933788Y-69648275D02*
X205862360Y-69719703D01*
X205862360Y-69719703D02*
X205790931Y-69862560D01*
X205790931Y-69862560D02*
X205719502Y-70148275D01*
X205719502Y-70148275D02*
X205719502Y-70505418D01*
X205719502Y-70505418D02*
X205790931Y-70791132D01*
X205790931Y-70791132D02*
X205862360Y-70933989D01*
X205862360Y-70933989D02*
X205933788Y-71005418D01*
X205933788Y-71005418D02*
X206076645Y-71076846D01*
X206076645Y-71076846D02*
X206219502Y-71076846D01*
X206219502Y-71076846D02*
X206362360Y-71005418D01*
X206362360Y-71005418D02*
X206433788Y-70933989D01*
X206433788Y-70933989D02*
X206505217Y-70791132D01*
X206505217Y-70791132D02*
X206576645Y-70505418D01*
X206576645Y-70505418D02*
X206576645Y-70148275D01*
X206576645Y-70148275D02*
X206505217Y-69862560D01*
X206505217Y-69862560D02*
X206433788Y-69719703D01*
X206433788Y-69719703D02*
X206362360Y-69648275D01*
X206362360Y-69648275D02*
X206219502Y-69576846D01*
X205076646Y-70933989D02*
X205005217Y-71005418D01*
X205005217Y-71005418D02*
X205076646Y-71076846D01*
X205076646Y-71076846D02*
X205148074Y-71005418D01*
X205148074Y-71005418D02*
X205076646Y-70933989D01*
X205076646Y-70933989D02*
X205076646Y-71076846D01*
X204076645Y-69576846D02*
X203933788Y-69576846D01*
X203933788Y-69576846D02*
X203790931Y-69648275D01*
X203790931Y-69648275D02*
X203719503Y-69719703D01*
X203719503Y-69719703D02*
X203648074Y-69862560D01*
X203648074Y-69862560D02*
X203576645Y-70148275D01*
X203576645Y-70148275D02*
X203576645Y-70505418D01*
X203576645Y-70505418D02*
X203648074Y-70791132D01*
X203648074Y-70791132D02*
X203719503Y-70933989D01*
X203719503Y-70933989D02*
X203790931Y-71005418D01*
X203790931Y-71005418D02*
X203933788Y-71076846D01*
X203933788Y-71076846D02*
X204076645Y-71076846D01*
X204076645Y-71076846D02*
X204219503Y-71005418D01*
X204219503Y-71005418D02*
X204290931Y-70933989D01*
X204290931Y-70933989D02*
X204362360Y-70791132D01*
X204362360Y-70791132D02*
X204433788Y-70505418D01*
X204433788Y-70505418D02*
X204433788Y-70148275D01*
X204433788Y-70148275D02*
X204362360Y-69862560D01*
X204362360Y-69862560D02*
X204290931Y-69719703D01*
X204290931Y-69719703D02*
X204219503Y-69648275D01*
X204219503Y-69648275D02*
X204076645Y-69576846D01*
X213790930Y-72134619D02*
X213719502Y-72063191D01*
X213719502Y-72063191D02*
X213576645Y-71991762D01*
X213576645Y-71991762D02*
X213219502Y-71991762D01*
X213219502Y-71991762D02*
X213076645Y-72063191D01*
X213076645Y-72063191D02*
X213005216Y-72134619D01*
X213005216Y-72134619D02*
X212933787Y-72277476D01*
X212933787Y-72277476D02*
X212933787Y-72420334D01*
X212933787Y-72420334D02*
X213005216Y-72634619D01*
X213005216Y-72634619D02*
X213862359Y-73491762D01*
X213862359Y-73491762D02*
X212933787Y-73491762D01*
X212005216Y-71991762D02*
X211862359Y-71991762D01*
X211862359Y-71991762D02*
X211719502Y-72063191D01*
X211719502Y-72063191D02*
X211648074Y-72134619D01*
X211648074Y-72134619D02*
X211576645Y-72277476D01*
X211576645Y-72277476D02*
X211505216Y-72563191D01*
X211505216Y-72563191D02*
X211505216Y-72920334D01*
X211505216Y-72920334D02*
X211576645Y-73206048D01*
X211576645Y-73206048D02*
X211648074Y-73348905D01*
X211648074Y-73348905D02*
X211719502Y-73420334D01*
X211719502Y-73420334D02*
X211862359Y-73491762D01*
X211862359Y-73491762D02*
X212005216Y-73491762D01*
X212005216Y-73491762D02*
X212148074Y-73420334D01*
X212148074Y-73420334D02*
X212219502Y-73348905D01*
X212219502Y-73348905D02*
X212290931Y-73206048D01*
X212290931Y-73206048D02*
X212362359Y-72920334D01*
X212362359Y-72920334D02*
X212362359Y-72563191D01*
X212362359Y-72563191D02*
X212290931Y-72277476D01*
X212290931Y-72277476D02*
X212219502Y-72134619D01*
X212219502Y-72134619D02*
X212148074Y-72063191D01*
X212148074Y-72063191D02*
X212005216Y-71991762D01*
X210933788Y-72134619D02*
X210862360Y-72063191D01*
X210862360Y-72063191D02*
X210719503Y-71991762D01*
X210719503Y-71991762D02*
X210362360Y-71991762D01*
X210362360Y-71991762D02*
X210219503Y-72063191D01*
X210219503Y-72063191D02*
X210148074Y-72134619D01*
X210148074Y-72134619D02*
X210076645Y-72277476D01*
X210076645Y-72277476D02*
X210076645Y-72420334D01*
X210076645Y-72420334D02*
X210148074Y-72634619D01*
X210148074Y-72634619D02*
X211005217Y-73491762D01*
X211005217Y-73491762D02*
X210076645Y-73491762D01*
X208790932Y-71991762D02*
X209076646Y-71991762D01*
X209076646Y-71991762D02*
X209219503Y-72063191D01*
X209219503Y-72063191D02*
X209290932Y-72134619D01*
X209290932Y-72134619D02*
X209433789Y-72348905D01*
X209433789Y-72348905D02*
X209505217Y-72634619D01*
X209505217Y-72634619D02*
X209505217Y-73206048D01*
X209505217Y-73206048D02*
X209433789Y-73348905D01*
X209433789Y-73348905D02*
X209362360Y-73420334D01*
X209362360Y-73420334D02*
X209219503Y-73491762D01*
X209219503Y-73491762D02*
X208933789Y-73491762D01*
X208933789Y-73491762D02*
X208790932Y-73420334D01*
X208790932Y-73420334D02*
X208719503Y-73348905D01*
X208719503Y-73348905D02*
X208648074Y-73206048D01*
X208648074Y-73206048D02*
X208648074Y-72848905D01*
X208648074Y-72848905D02*
X208719503Y-72706048D01*
X208719503Y-72706048D02*
X208790932Y-72634619D01*
X208790932Y-72634619D02*
X208933789Y-72563191D01*
X208933789Y-72563191D02*
X209219503Y-72563191D01*
X209219503Y-72563191D02*
X209362360Y-72634619D01*
X209362360Y-72634619D02*
X209433789Y-72706048D01*
X209433789Y-72706048D02*
X209505217Y-72848905D01*
X208005218Y-72920334D02*
X206862361Y-72920334D01*
X205862360Y-71991762D02*
X205719503Y-71991762D01*
X205719503Y-71991762D02*
X205576646Y-72063191D01*
X205576646Y-72063191D02*
X205505218Y-72134619D01*
X205505218Y-72134619D02*
X205433789Y-72277476D01*
X205433789Y-72277476D02*
X205362360Y-72563191D01*
X205362360Y-72563191D02*
X205362360Y-72920334D01*
X205362360Y-72920334D02*
X205433789Y-73206048D01*
X205433789Y-73206048D02*
X205505218Y-73348905D01*
X205505218Y-73348905D02*
X205576646Y-73420334D01*
X205576646Y-73420334D02*
X205719503Y-73491762D01*
X205719503Y-73491762D02*
X205862360Y-73491762D01*
X205862360Y-73491762D02*
X206005218Y-73420334D01*
X206005218Y-73420334D02*
X206076646Y-73348905D01*
X206076646Y-73348905D02*
X206148075Y-73206048D01*
X206148075Y-73206048D02*
X206219503Y-72920334D01*
X206219503Y-72920334D02*
X206219503Y-72563191D01*
X206219503Y-72563191D02*
X206148075Y-72277476D01*
X206148075Y-72277476D02*
X206076646Y-72134619D01*
X206076646Y-72134619D02*
X206005218Y-72063191D01*
X206005218Y-72063191D02*
X205862360Y-71991762D01*
X203933789Y-73491762D02*
X204790932Y-73491762D01*
X204362361Y-73491762D02*
X204362361Y-71991762D01*
X204362361Y-71991762D02*
X204505218Y-72206048D01*
X204505218Y-72206048D02*
X204648075Y-72348905D01*
X204648075Y-72348905D02*
X204790932Y-72420334D01*
X203290933Y-72920334D02*
X202148076Y-72920334D01*
X201148075Y-71991762D02*
X201005218Y-71991762D01*
X201005218Y-71991762D02*
X200862361Y-72063191D01*
X200862361Y-72063191D02*
X200790933Y-72134619D01*
X200790933Y-72134619D02*
X200719504Y-72277476D01*
X200719504Y-72277476D02*
X200648075Y-72563191D01*
X200648075Y-72563191D02*
X200648075Y-72920334D01*
X200648075Y-72920334D02*
X200719504Y-73206048D01*
X200719504Y-73206048D02*
X200790933Y-73348905D01*
X200790933Y-73348905D02*
X200862361Y-73420334D01*
X200862361Y-73420334D02*
X201005218Y-73491762D01*
X201005218Y-73491762D02*
X201148075Y-73491762D01*
X201148075Y-73491762D02*
X201290933Y-73420334D01*
X201290933Y-73420334D02*
X201362361Y-73348905D01*
X201362361Y-73348905D02*
X201433790Y-73206048D01*
X201433790Y-73206048D02*
X201505218Y-72920334D01*
X201505218Y-72920334D02*
X201505218Y-72563191D01*
X201505218Y-72563191D02*
X201433790Y-72277476D01*
X201433790Y-72277476D02*
X201362361Y-72134619D01*
X201362361Y-72134619D02*
X201290933Y-72063191D01*
X201290933Y-72063191D02*
X201148075Y-71991762D01*
X200148076Y-71991762D02*
X199148076Y-71991762D01*
X199148076Y-71991762D02*
X199790933Y-73491762D01*
X213719502Y-75906678D02*
X213719502Y-74406678D01*
X213719502Y-74406678D02*
X213219502Y-75478107D01*
X213219502Y-75478107D02*
X212719502Y-74406678D01*
X212719502Y-74406678D02*
X212719502Y-75906678D01*
X211362359Y-75906678D02*
X211362359Y-75120964D01*
X211362359Y-75120964D02*
X211433787Y-74978107D01*
X211433787Y-74978107D02*
X211576644Y-74906678D01*
X211576644Y-74906678D02*
X211862359Y-74906678D01*
X211862359Y-74906678D02*
X212005216Y-74978107D01*
X211362359Y-75835250D02*
X211505216Y-75906678D01*
X211505216Y-75906678D02*
X211862359Y-75906678D01*
X211862359Y-75906678D02*
X212005216Y-75835250D01*
X212005216Y-75835250D02*
X212076644Y-75692392D01*
X212076644Y-75692392D02*
X212076644Y-75549535D01*
X212076644Y-75549535D02*
X212005216Y-75406678D01*
X212005216Y-75406678D02*
X211862359Y-75335250D01*
X211862359Y-75335250D02*
X211505216Y-75335250D01*
X211505216Y-75335250D02*
X211362359Y-75263821D01*
X210005216Y-75906678D02*
X210005216Y-74406678D01*
X210005216Y-75835250D02*
X210148073Y-75906678D01*
X210148073Y-75906678D02*
X210433787Y-75906678D01*
X210433787Y-75906678D02*
X210576644Y-75835250D01*
X210576644Y-75835250D02*
X210648073Y-75763821D01*
X210648073Y-75763821D02*
X210719501Y-75620964D01*
X210719501Y-75620964D02*
X210719501Y-75192392D01*
X210719501Y-75192392D02*
X210648073Y-75049535D01*
X210648073Y-75049535D02*
X210576644Y-74978107D01*
X210576644Y-74978107D02*
X210433787Y-74906678D01*
X210433787Y-74906678D02*
X210148073Y-74906678D01*
X210148073Y-74906678D02*
X210005216Y-74978107D01*
X208719501Y-75835250D02*
X208862358Y-75906678D01*
X208862358Y-75906678D02*
X209148073Y-75906678D01*
X209148073Y-75906678D02*
X209290930Y-75835250D01*
X209290930Y-75835250D02*
X209362358Y-75692392D01*
X209362358Y-75692392D02*
X209362358Y-75120964D01*
X209362358Y-75120964D02*
X209290930Y-74978107D01*
X209290930Y-74978107D02*
X209148073Y-74906678D01*
X209148073Y-74906678D02*
X208862358Y-74906678D01*
X208862358Y-74906678D02*
X208719501Y-74978107D01*
X208719501Y-74978107D02*
X208648073Y-75120964D01*
X208648073Y-75120964D02*
X208648073Y-75263821D01*
X208648073Y-75263821D02*
X209362358Y-75406678D01*
X206862359Y-75906678D02*
X206862359Y-74406678D01*
X206148073Y-74906678D02*
X206148073Y-75906678D01*
X206148073Y-75049535D02*
X206076644Y-74978107D01*
X206076644Y-74978107D02*
X205933787Y-74906678D01*
X205933787Y-74906678D02*
X205719501Y-74906678D01*
X205719501Y-74906678D02*
X205576644Y-74978107D01*
X205576644Y-74978107D02*
X205505216Y-75120964D01*
X205505216Y-75120964D02*
X205505216Y-75906678D01*
X203648073Y-75906678D02*
X203648073Y-74406678D01*
X202933787Y-74906678D02*
X202933787Y-75906678D01*
X202933787Y-75049535D02*
X202862358Y-74978107D01*
X202862358Y-74978107D02*
X202719501Y-74906678D01*
X202719501Y-74906678D02*
X202505215Y-74906678D01*
X202505215Y-74906678D02*
X202362358Y-74978107D01*
X202362358Y-74978107D02*
X202290930Y-75120964D01*
X202290930Y-75120964D02*
X202290930Y-75906678D01*
X200933787Y-75906678D02*
X200933787Y-74406678D01*
X200933787Y-75835250D02*
X201076644Y-75906678D01*
X201076644Y-75906678D02*
X201362358Y-75906678D01*
X201362358Y-75906678D02*
X201505215Y-75835250D01*
X201505215Y-75835250D02*
X201576644Y-75763821D01*
X201576644Y-75763821D02*
X201648072Y-75620964D01*
X201648072Y-75620964D02*
X201648072Y-75192392D01*
X201648072Y-75192392D02*
X201576644Y-75049535D01*
X201576644Y-75049535D02*
X201505215Y-74978107D01*
X201505215Y-74978107D02*
X201362358Y-74906678D01*
X201362358Y-74906678D02*
X201076644Y-74906678D01*
X201076644Y-74906678D02*
X200933787Y-74978107D01*
X200219501Y-75906678D02*
X200219501Y-74906678D01*
X200219501Y-74406678D02*
X200290929Y-74478107D01*
X200290929Y-74478107D02*
X200219501Y-74549535D01*
X200219501Y-74549535D02*
X200148072Y-74478107D01*
X200148072Y-74478107D02*
X200219501Y-74406678D01*
X200219501Y-74406678D02*
X200219501Y-74549535D01*
X198862358Y-75906678D02*
X198862358Y-75120964D01*
X198862358Y-75120964D02*
X198933786Y-74978107D01*
X198933786Y-74978107D02*
X199076643Y-74906678D01*
X199076643Y-74906678D02*
X199362358Y-74906678D01*
X199362358Y-74906678D02*
X199505215Y-74978107D01*
X198862358Y-75835250D02*
X199005215Y-75906678D01*
X199005215Y-75906678D02*
X199362358Y-75906678D01*
X199362358Y-75906678D02*
X199505215Y-75835250D01*
X199505215Y-75835250D02*
X199576643Y-75692392D01*
X199576643Y-75692392D02*
X199576643Y-75549535D01*
X199576643Y-75549535D02*
X199505215Y-75406678D01*
X199505215Y-75406678D02*
X199362358Y-75335250D01*
X199362358Y-75335250D02*
X199005215Y-75335250D01*
X199005215Y-75335250D02*
X198862358Y-75263821D01*
D11*
X219359580Y-107833333D02*
X219407200Y-107785714D01*
X219407200Y-107785714D02*
X219454819Y-107642857D01*
X219454819Y-107642857D02*
X219454819Y-107547619D01*
X219454819Y-107547619D02*
X219407200Y-107404762D01*
X219407200Y-107404762D02*
X219311961Y-107309524D01*
X219311961Y-107309524D02*
X219216723Y-107261905D01*
X219216723Y-107261905D02*
X219026247Y-107214286D01*
X219026247Y-107214286D02*
X218883390Y-107214286D01*
X218883390Y-107214286D02*
X218692914Y-107261905D01*
X218692914Y-107261905D02*
X218597676Y-107309524D01*
X218597676Y-107309524D02*
X218502438Y-107404762D01*
X218502438Y-107404762D02*
X218454819Y-107547619D01*
X218454819Y-107547619D02*
X218454819Y-107642857D01*
X218454819Y-107642857D02*
X218502438Y-107785714D01*
X218502438Y-107785714D02*
X218550057Y-107833333D01*
X219454819Y-108785714D02*
X219454819Y-108214286D01*
X219454819Y-108500000D02*
X218454819Y-108500000D01*
X218454819Y-108500000D02*
X218597676Y-108404762D01*
X218597676Y-108404762D02*
X218692914Y-108309524D01*
X218692914Y-108309524D02*
X218740533Y-108214286D01*
X212954819Y-107166666D02*
X213669104Y-107166666D01*
X213669104Y-107166666D02*
X213811961Y-107119047D01*
X213811961Y-107119047D02*
X213907200Y-107023809D01*
X213907200Y-107023809D02*
X213954819Y-106880952D01*
X213954819Y-106880952D02*
X213954819Y-106785714D01*
X213954819Y-107642857D02*
X212954819Y-107642857D01*
X212954819Y-107642857D02*
X212954819Y-108023809D01*
X212954819Y-108023809D02*
X213002438Y-108119047D01*
X213002438Y-108119047D02*
X213050057Y-108166666D01*
X213050057Y-108166666D02*
X213145295Y-108214285D01*
X213145295Y-108214285D02*
X213288152Y-108214285D01*
X213288152Y-108214285D02*
X213383390Y-108166666D01*
X213383390Y-108166666D02*
X213431009Y-108119047D01*
X213431009Y-108119047D02*
X213478628Y-108023809D01*
X213478628Y-108023809D02*
X213478628Y-107642857D01*
X213954819Y-109166666D02*
X213954819Y-108595238D01*
X213954819Y-108880952D02*
X212954819Y-108880952D01*
X212954819Y-108880952D02*
X213097676Y-108785714D01*
X213097676Y-108785714D02*
X213192914Y-108690476D01*
X213192914Y-108690476D02*
X213240533Y-108595238D01*
X205433333Y-123754819D02*
X205433333Y-124469104D01*
X205433333Y-124469104D02*
X205480952Y-124611961D01*
X205480952Y-124611961D02*
X205576190Y-124707200D01*
X205576190Y-124707200D02*
X205719047Y-124754819D01*
X205719047Y-124754819D02*
X205814285Y-124754819D01*
X204433333Y-124754819D02*
X205004761Y-124754819D01*
X204719047Y-124754819D02*
X204719047Y-123754819D01*
X204719047Y-123754819D02*
X204814285Y-123897676D01*
X204814285Y-123897676D02*
X204909523Y-123992914D01*
X204909523Y-123992914D02*
X205004761Y-124040533D01*
X206538094Y-109154819D02*
X206538094Y-108154819D01*
X206538094Y-108154819D02*
X206299999Y-108154819D01*
X206299999Y-108154819D02*
X206157142Y-108202438D01*
X206157142Y-108202438D02*
X206061904Y-108297676D01*
X206061904Y-108297676D02*
X206014285Y-108392914D01*
X206014285Y-108392914D02*
X205966666Y-108583390D01*
X205966666Y-108583390D02*
X205966666Y-108726247D01*
X205966666Y-108726247D02*
X206014285Y-108916723D01*
X206014285Y-108916723D02*
X206061904Y-109011961D01*
X206061904Y-109011961D02*
X206157142Y-109107200D01*
X206157142Y-109107200D02*
X206299999Y-109154819D01*
X206299999Y-109154819D02*
X206538094Y-109154819D01*
X205538094Y-109154819D02*
X205538094Y-108154819D01*
X205538094Y-108154819D02*
X205157142Y-108154819D01*
X205157142Y-108154819D02*
X205061904Y-108202438D01*
X205061904Y-108202438D02*
X205014285Y-108250057D01*
X205014285Y-108250057D02*
X204966666Y-108345295D01*
X204966666Y-108345295D02*
X204966666Y-108488152D01*
X204966666Y-108488152D02*
X205014285Y-108583390D01*
X205014285Y-108583390D02*
X205061904Y-108631009D01*
X205061904Y-108631009D02*
X205157142Y-108678628D01*
X205157142Y-108678628D02*
X205538094Y-108678628D01*
X204014285Y-109154819D02*
X204585713Y-109154819D01*
X204299999Y-109154819D02*
X204299999Y-108154819D01*
X204299999Y-108154819D02*
X204395237Y-108297676D01*
X204395237Y-108297676D02*
X204490475Y-108392914D01*
X204490475Y-108392914D02*
X204585713Y-108440533D01*
X215954819Y-120333333D02*
X215478628Y-120000000D01*
X215954819Y-119761905D02*
X214954819Y-119761905D01*
X214954819Y-119761905D02*
X214954819Y-120142857D01*
X214954819Y-120142857D02*
X215002438Y-120238095D01*
X215002438Y-120238095D02*
X215050057Y-120285714D01*
X215050057Y-120285714D02*
X215145295Y-120333333D01*
X215145295Y-120333333D02*
X215288152Y-120333333D01*
X215288152Y-120333333D02*
X215383390Y-120285714D01*
X215383390Y-120285714D02*
X215431009Y-120238095D01*
X215431009Y-120238095D02*
X215478628Y-120142857D01*
X215478628Y-120142857D02*
X215478628Y-119761905D01*
X215954819Y-120761905D02*
X214954819Y-120761905D01*
X214954819Y-120761905D02*
X214954819Y-121142857D01*
X214954819Y-121142857D02*
X215002438Y-121238095D01*
X215002438Y-121238095D02*
X215050057Y-121285714D01*
X215050057Y-121285714D02*
X215145295Y-121333333D01*
X215145295Y-121333333D02*
X215288152Y-121333333D01*
X215288152Y-121333333D02*
X215383390Y-121285714D01*
X215383390Y-121285714D02*
X215431009Y-121238095D01*
X215431009Y-121238095D02*
X215478628Y-121142857D01*
X215478628Y-121142857D02*
X215478628Y-120761905D01*
X215050057Y-121714286D02*
X215002438Y-121761905D01*
X215002438Y-121761905D02*
X214954819Y-121857143D01*
X214954819Y-121857143D02*
X214954819Y-122095238D01*
X214954819Y-122095238D02*
X215002438Y-122190476D01*
X215002438Y-122190476D02*
X215050057Y-122238095D01*
X215050057Y-122238095D02*
X215145295Y-122285714D01*
X215145295Y-122285714D02*
X215240533Y-122285714D01*
X215240533Y-122285714D02*
X215383390Y-122238095D01*
X215383390Y-122238095D02*
X215954819Y-121666667D01*
X215954819Y-121666667D02*
X215954819Y-122285714D01*
X222200057Y-120604761D02*
X222152438Y-120509523D01*
X222152438Y-120509523D02*
X222057200Y-120414285D01*
X222057200Y-120414285D02*
X221914342Y-120271428D01*
X221914342Y-120271428D02*
X221866723Y-120176190D01*
X221866723Y-120176190D02*
X221866723Y-120080952D01*
X222104819Y-120128571D02*
X222057200Y-120033333D01*
X222057200Y-120033333D02*
X221961961Y-119938095D01*
X221961961Y-119938095D02*
X221771485Y-119890476D01*
X221771485Y-119890476D02*
X221438152Y-119890476D01*
X221438152Y-119890476D02*
X221247676Y-119938095D01*
X221247676Y-119938095D02*
X221152438Y-120033333D01*
X221152438Y-120033333D02*
X221104819Y-120128571D01*
X221104819Y-120128571D02*
X221104819Y-120319047D01*
X221104819Y-120319047D02*
X221152438Y-120414285D01*
X221152438Y-120414285D02*
X221247676Y-120509523D01*
X221247676Y-120509523D02*
X221438152Y-120557142D01*
X221438152Y-120557142D02*
X221771485Y-120557142D01*
X221771485Y-120557142D02*
X221961961Y-120509523D01*
X221961961Y-120509523D02*
X222057200Y-120414285D01*
X222057200Y-120414285D02*
X222104819Y-120319047D01*
X222104819Y-120319047D02*
X222104819Y-120128571D01*
X222104819Y-121509523D02*
X222104819Y-120938095D01*
X222104819Y-121223809D02*
X221104819Y-121223809D01*
X221104819Y-121223809D02*
X221247676Y-121128571D01*
X221247676Y-121128571D02*
X221342914Y-121033333D01*
X221342914Y-121033333D02*
X221390533Y-120938095D01*
X216859580Y-107833333D02*
X216907200Y-107785714D01*
X216907200Y-107785714D02*
X216954819Y-107642857D01*
X216954819Y-107642857D02*
X216954819Y-107547619D01*
X216954819Y-107547619D02*
X216907200Y-107404762D01*
X216907200Y-107404762D02*
X216811961Y-107309524D01*
X216811961Y-107309524D02*
X216716723Y-107261905D01*
X216716723Y-107261905D02*
X216526247Y-107214286D01*
X216526247Y-107214286D02*
X216383390Y-107214286D01*
X216383390Y-107214286D02*
X216192914Y-107261905D01*
X216192914Y-107261905D02*
X216097676Y-107309524D01*
X216097676Y-107309524D02*
X216002438Y-107404762D01*
X216002438Y-107404762D02*
X215954819Y-107547619D01*
X215954819Y-107547619D02*
X215954819Y-107642857D01*
X215954819Y-107642857D02*
X216002438Y-107785714D01*
X216002438Y-107785714D02*
X216050057Y-107833333D01*
X216050057Y-108214286D02*
X216002438Y-108261905D01*
X216002438Y-108261905D02*
X215954819Y-108357143D01*
X215954819Y-108357143D02*
X215954819Y-108595238D01*
X215954819Y-108595238D02*
X216002438Y-108690476D01*
X216002438Y-108690476D02*
X216050057Y-108738095D01*
X216050057Y-108738095D02*
X216145295Y-108785714D01*
X216145295Y-108785714D02*
X216240533Y-108785714D01*
X216240533Y-108785714D02*
X216383390Y-108738095D01*
X216383390Y-108738095D02*
X216954819Y-108166667D01*
X216954819Y-108166667D02*
X216954819Y-108785714D01*
X212954819Y-120333333D02*
X212478628Y-120000000D01*
X212954819Y-119761905D02*
X211954819Y-119761905D01*
X211954819Y-119761905D02*
X211954819Y-120142857D01*
X211954819Y-120142857D02*
X212002438Y-120238095D01*
X212002438Y-120238095D02*
X212050057Y-120285714D01*
X212050057Y-120285714D02*
X212145295Y-120333333D01*
X212145295Y-120333333D02*
X212288152Y-120333333D01*
X212288152Y-120333333D02*
X212383390Y-120285714D01*
X212383390Y-120285714D02*
X212431009Y-120238095D01*
X212431009Y-120238095D02*
X212478628Y-120142857D01*
X212478628Y-120142857D02*
X212478628Y-119761905D01*
X212954819Y-120761905D02*
X211954819Y-120761905D01*
X211954819Y-120761905D02*
X211954819Y-121142857D01*
X211954819Y-121142857D02*
X212002438Y-121238095D01*
X212002438Y-121238095D02*
X212050057Y-121285714D01*
X212050057Y-121285714D02*
X212145295Y-121333333D01*
X212145295Y-121333333D02*
X212288152Y-121333333D01*
X212288152Y-121333333D02*
X212383390Y-121285714D01*
X212383390Y-121285714D02*
X212431009Y-121238095D01*
X212431009Y-121238095D02*
X212478628Y-121142857D01*
X212478628Y-121142857D02*
X212478628Y-120761905D01*
X212954819Y-122285714D02*
X212954819Y-121714286D01*
X212954819Y-122000000D02*
X211954819Y-122000000D01*
X211954819Y-122000000D02*
X212097676Y-121904762D01*
X212097676Y-121904762D02*
X212192914Y-121809524D01*
X212192914Y-121809524D02*
X212240533Y-121714286D01*
X210431009Y-107666666D02*
X210431009Y-107333333D01*
X210954819Y-107333333D02*
X209954819Y-107333333D01*
X209954819Y-107333333D02*
X209954819Y-107809523D01*
X210954819Y-108714285D02*
X210954819Y-108142857D01*
X210954819Y-108428571D02*
X209954819Y-108428571D01*
X209954819Y-108428571D02*
X210097676Y-108333333D01*
X210097676Y-108333333D02*
X210192914Y-108238095D01*
X210192914Y-108238095D02*
X210240533Y-108142857D01*
D12*
%TO.C,C1*%
X218165000Y-111361252D02*
X218165000Y-110838748D01*
X219635000Y-111361252D02*
X219635000Y-110838748D01*
%TO.C,JP1*%
X212500000Y-110450000D02*
X212500000Y-111850000D01*
X213200000Y-112550000D02*
X213800000Y-112550000D01*
X213800000Y-109750000D02*
X213200000Y-109750000D01*
X214500000Y-111850000D02*
X214500000Y-110450000D01*
X212500000Y-110450000D02*
G75*
G02*
X213200000Y-109750000I700000J0D01*
G01*
X213200000Y-112550000D02*
G75*
G02*
X212500000Y-111850000I-1J699999D01*
G01*
X213800000Y-109750000D02*
G75*
G02*
X214500000Y-110450000I0J-700000D01*
G01*
X214500000Y-111850000D02*
G75*
G02*
X213800000Y-112550000I-699999J-1D01*
G01*
%TO.C,J1*%
X199990000Y-114790000D02*
X199990000Y-123210000D01*
X199990000Y-121990000D02*
X201210000Y-121990000D01*
X199990000Y-123210000D02*
X210210000Y-123210000D01*
X201210000Y-114790000D02*
X199990000Y-114790000D01*
X201210000Y-116990000D02*
X199990000Y-116990000D01*
X201210000Y-116990000D02*
X201210000Y-114790000D01*
X201210000Y-117990000D02*
X208990000Y-117990000D01*
X201210000Y-121990000D02*
X201210000Y-116990000D01*
X202280000Y-117990000D02*
X202280000Y-121410000D01*
X202280000Y-121410000D02*
X202600000Y-121490000D01*
X202300000Y-114300000D02*
X202900000Y-114300000D01*
X202600000Y-114900000D02*
X202300000Y-114300000D01*
X202600000Y-117990000D02*
X202280000Y-117990000D01*
X202600000Y-121490000D02*
X202920000Y-121410000D01*
X202900000Y-114300000D02*
X202600000Y-114900000D01*
X202920000Y-117990000D02*
X202600000Y-117990000D01*
X202920000Y-121410000D02*
X202920000Y-117990000D01*
X203770000Y-116990000D02*
X203930000Y-116990000D01*
X204780000Y-117990000D02*
X204780000Y-121410000D01*
X204780000Y-121410000D02*
X205100000Y-121490000D01*
X205100000Y-117990000D02*
X204780000Y-117990000D01*
X205100000Y-121490000D02*
X205420000Y-121410000D01*
X205420000Y-117990000D02*
X205100000Y-117990000D01*
X205420000Y-121410000D02*
X205420000Y-117990000D01*
X206270000Y-116990000D02*
X206430000Y-116990000D01*
X207280000Y-117990000D02*
X207280000Y-121410000D01*
X207280000Y-121410000D02*
X207600000Y-121490000D01*
X207600000Y-117990000D02*
X207280000Y-117990000D01*
X207600000Y-121490000D02*
X207920000Y-121410000D01*
X207920000Y-117990000D02*
X207600000Y-117990000D01*
X207920000Y-121410000D02*
X207920000Y-117990000D01*
X208990000Y-114790000D02*
X208990000Y-116990000D01*
X208990000Y-116990000D02*
X210210000Y-116990000D01*
X208990000Y-121990000D02*
X208990000Y-116990000D01*
X210210000Y-114790000D02*
X208990000Y-114790000D01*
X210210000Y-121990000D02*
X208990000Y-121990000D01*
X210210000Y-123210000D02*
X210210000Y-114790000D01*
%TO.C,DP1*%
X208810000Y-109550000D02*
X203300000Y-109550000D01*
X208810000Y-109550000D02*
X208810000Y-112850000D01*
X208810000Y-112850000D02*
X203300000Y-112850000D01*
%TO.C,RP2*%
X214465000Y-116627064D02*
X214465000Y-116172936D01*
X215935000Y-116627064D02*
X215935000Y-116172936D01*
%TO.C,Q1*%
X217320000Y-119940000D02*
X217320000Y-121400000D01*
X217320000Y-119940000D02*
X218250000Y-119940000D01*
X220480000Y-119940000D02*
X219550000Y-119940000D01*
X220480000Y-120740000D02*
X220480000Y-119940000D01*
X220480000Y-120740000D02*
X220480000Y-121540000D01*
X220840000Y-122280000D02*
X220510000Y-122040000D01*
X220840000Y-121800000D01*
X220840000Y-122280000D01*
G36*
X220840000Y-122280000D02*
G01*
X220510000Y-122040000D01*
X220840000Y-121800000D01*
X220840000Y-122280000D01*
G37*
%TO.C,C2*%
X215465000Y-111361252D02*
X215465000Y-110838748D01*
X216935000Y-111361252D02*
X216935000Y-110838748D01*
%TO.C,RP1*%
X211765000Y-116627064D02*
X211765000Y-116172936D01*
X213235000Y-116627064D02*
X213235000Y-116172936D01*
%TO.C,F1*%
X209965000Y-110972936D02*
X209965000Y-111427064D01*
X211435000Y-110972936D02*
X211435000Y-111427064D01*
%TD*%
M02*
