%TF.GenerationSoftware,KiCad,Pcbnew,9.0.7-9.0.7~ubuntu24.04.1*%
%TF.CreationDate,2026-01-07T15:42:35+05:30*%
%TF.ProjectId,RPI_Cam3_RL,5250495f-4361-46d3-935f-524c2e6b6963,rev?*%
%TF.SameCoordinates,Original*%
%TF.FileFunction,Legend,Top*%
%TF.FilePolarity,Positive*%
%FSLAX46Y46*%
G04 Gerber Fmt 4.6, Leading zero omitted, Abs format (unit mm)*
G04 Created by KiCad (PCBNEW 9.0.7-9.0.7~ubuntu24.04.1) date 2026-01-07 15:42:35*
%MOMM*%
%LPD*%
G01*
G04 APERTURE LIST*
%ADD10C,0.150000*%
%ADD11C,0.200000*%
%ADD12C,0.120000*%
%ADD13C,0.100000*%
G04 APERTURE END LIST*
D10*
X204833333Y-64954819D02*
X204500000Y-64478628D01*
X204261905Y-64954819D02*
X204261905Y-63954819D01*
X204261905Y-63954819D02*
X204642857Y-63954819D01*
X204642857Y-63954819D02*
X204738095Y-64002438D01*
X204738095Y-64002438D02*
X204785714Y-64050057D01*
X204785714Y-64050057D02*
X204833333Y-64145295D01*
X204833333Y-64145295D02*
X204833333Y-64288152D01*
X204833333Y-64288152D02*
X204785714Y-64383390D01*
X204785714Y-64383390D02*
X204738095Y-64431009D01*
X204738095Y-64431009D02*
X204642857Y-64478628D01*
X204642857Y-64478628D02*
X204261905Y-64478628D01*
X205785714Y-64954819D02*
X205214286Y-64954819D01*
X205500000Y-64954819D02*
X205500000Y-63954819D01*
X205500000Y-63954819D02*
X205404762Y-64097676D01*
X205404762Y-64097676D02*
X205309524Y-64192914D01*
X205309524Y-64192914D02*
X205214286Y-64240533D01*
X218238095Y-100954819D02*
X218238095Y-99954819D01*
X218238095Y-100431009D02*
X218809523Y-100431009D01*
X218809523Y-100954819D02*
X218809523Y-99954819D01*
X219714285Y-100288152D02*
X219714285Y-100954819D01*
X219476190Y-99907200D02*
X219238095Y-100621485D01*
X219238095Y-100621485D02*
X219857142Y-100621485D01*
X178954819Y-91642857D02*
X178478628Y-91976190D01*
X178954819Y-92214285D02*
X177954819Y-92214285D01*
X177954819Y-92214285D02*
X177954819Y-91833333D01*
X177954819Y-91833333D02*
X178002438Y-91738095D01*
X178002438Y-91738095D02*
X178050057Y-91690476D01*
X178050057Y-91690476D02*
X178145295Y-91642857D01*
X178145295Y-91642857D02*
X178288152Y-91642857D01*
X178288152Y-91642857D02*
X178383390Y-91690476D01*
X178383390Y-91690476D02*
X178431009Y-91738095D01*
X178431009Y-91738095D02*
X178478628Y-91833333D01*
X178478628Y-91833333D02*
X178478628Y-92214285D01*
X178954819Y-90690476D02*
X178954819Y-91261904D01*
X178954819Y-90976190D02*
X177954819Y-90976190D01*
X177954819Y-90976190D02*
X178097676Y-91071428D01*
X178097676Y-91071428D02*
X178192914Y-91166666D01*
X178192914Y-91166666D02*
X178240533Y-91261904D01*
X177954819Y-90071428D02*
X177954819Y-89976190D01*
X177954819Y-89976190D02*
X178002438Y-89880952D01*
X178002438Y-89880952D02*
X178050057Y-89833333D01*
X178050057Y-89833333D02*
X178145295Y-89785714D01*
X178145295Y-89785714D02*
X178335771Y-89738095D01*
X178335771Y-89738095D02*
X178573866Y-89738095D01*
X178573866Y-89738095D02*
X178764342Y-89785714D01*
X178764342Y-89785714D02*
X178859580Y-89833333D01*
X178859580Y-89833333D02*
X178907200Y-89880952D01*
X178907200Y-89880952D02*
X178954819Y-89976190D01*
X178954819Y-89976190D02*
X178954819Y-90071428D01*
X178954819Y-90071428D02*
X178907200Y-90166666D01*
X178907200Y-90166666D02*
X178859580Y-90214285D01*
X178859580Y-90214285D02*
X178764342Y-90261904D01*
X178764342Y-90261904D02*
X178573866Y-90309523D01*
X178573866Y-90309523D02*
X178335771Y-90309523D01*
X178335771Y-90309523D02*
X178145295Y-90261904D01*
X178145295Y-90261904D02*
X178050057Y-90214285D01*
X178050057Y-90214285D02*
X178002438Y-90166666D01*
X178002438Y-90166666D02*
X177954819Y-90071428D01*
X183738095Y-107804819D02*
X183738095Y-106804819D01*
X183738095Y-107281009D02*
X184309523Y-107281009D01*
X184309523Y-107804819D02*
X184309523Y-106804819D01*
X184690476Y-106804819D02*
X185357142Y-106804819D01*
X185357142Y-106804819D02*
X184928571Y-107804819D01*
X218583072Y-114477217D02*
X218056301Y-114231491D01*
X218088200Y-114762932D02*
X217588200Y-113896906D01*
X217588200Y-113896906D02*
X217918115Y-113706430D01*
X217918115Y-113706430D02*
X218024403Y-113700050D01*
X218024403Y-113700050D02*
X218089452Y-113717480D01*
X218089452Y-113717480D02*
X218178310Y-113776149D01*
X218178310Y-113776149D02*
X218249739Y-113899867D01*
X218249739Y-113899867D02*
X218256118Y-114006155D01*
X218256118Y-114006155D02*
X218238688Y-114071204D01*
X218238688Y-114071204D02*
X218180019Y-114160062D01*
X218180019Y-114160062D02*
X217850105Y-114350539D01*
X218825379Y-113182621D02*
X218660422Y-113277859D01*
X218660422Y-113277859D02*
X218601753Y-113366717D01*
X218601753Y-113366717D02*
X218584323Y-113431766D01*
X218584323Y-113431766D02*
X218573273Y-113603103D01*
X218573273Y-113603103D02*
X218627272Y-113791870D01*
X218627272Y-113791870D02*
X218817748Y-114121784D01*
X218817748Y-114121784D02*
X218906607Y-114180453D01*
X218906607Y-114180453D02*
X218971655Y-114197883D01*
X218971655Y-114197883D02*
X219077944Y-114191503D01*
X219077944Y-114191503D02*
X219242901Y-114096265D01*
X219242901Y-114096265D02*
X219301570Y-114007407D01*
X219301570Y-114007407D02*
X219319000Y-113942358D01*
X219319000Y-113942358D02*
X219312620Y-113836070D01*
X219312620Y-113836070D02*
X219193572Y-113629873D01*
X219193572Y-113629873D02*
X219104714Y-113571204D01*
X219104714Y-113571204D02*
X219039665Y-113553774D01*
X219039665Y-113553774D02*
X218933377Y-113560154D01*
X218933377Y-113560154D02*
X218768420Y-113655392D01*
X218768420Y-113655392D02*
X218709751Y-113744251D01*
X218709751Y-113744251D02*
X218692321Y-113809299D01*
X218692321Y-113809299D02*
X218698701Y-113915588D01*
X229954819Y-91738094D02*
X228954819Y-91738094D01*
X228954819Y-91738094D02*
X228954819Y-91499999D01*
X228954819Y-91499999D02*
X229002438Y-91357142D01*
X229002438Y-91357142D02*
X229097676Y-91261904D01*
X229097676Y-91261904D02*
X229192914Y-91214285D01*
X229192914Y-91214285D02*
X229383390Y-91166666D01*
X229383390Y-91166666D02*
X229526247Y-91166666D01*
X229526247Y-91166666D02*
X229716723Y-91214285D01*
X229716723Y-91214285D02*
X229811961Y-91261904D01*
X229811961Y-91261904D02*
X229907200Y-91357142D01*
X229907200Y-91357142D02*
X229954819Y-91499999D01*
X229954819Y-91499999D02*
X229954819Y-91738094D01*
X229288152Y-90309523D02*
X229954819Y-90309523D01*
X228907200Y-90547618D02*
X229621485Y-90785713D01*
X229621485Y-90785713D02*
X229621485Y-90166666D01*
X225737067Y-78088200D02*
X226603093Y-77588200D01*
X226603093Y-77588200D02*
X226722140Y-77794397D01*
X226722140Y-77794397D02*
X226752330Y-77941924D01*
X226752330Y-77941924D02*
X226717470Y-78072022D01*
X226717470Y-78072022D02*
X226658801Y-78160880D01*
X226658801Y-78160880D02*
X226517653Y-78297358D01*
X226517653Y-78297358D02*
X226393935Y-78368786D01*
X226393935Y-78368786D02*
X226205169Y-78422785D01*
X226205169Y-78422785D02*
X226098880Y-78429165D01*
X226098880Y-78429165D02*
X225968783Y-78394305D01*
X225968783Y-78394305D02*
X225856115Y-78294397D01*
X225856115Y-78294397D02*
X225737067Y-78088200D01*
X227055474Y-78371747D02*
X227364997Y-78907858D01*
X227364997Y-78907858D02*
X226868416Y-78809659D01*
X226868416Y-78809659D02*
X226939845Y-78933377D01*
X226939845Y-78933377D02*
X226946225Y-79039665D01*
X226946225Y-79039665D02*
X226928795Y-79104714D01*
X226928795Y-79104714D02*
X226870126Y-79193572D01*
X226870126Y-79193572D02*
X226663929Y-79312620D01*
X226663929Y-79312620D02*
X226557641Y-79319000D01*
X226557641Y-79319000D02*
X226492592Y-79301570D01*
X226492592Y-79301570D02*
X226403734Y-79242901D01*
X226403734Y-79242901D02*
X226260877Y-78995465D01*
X226260877Y-78995465D02*
X226254497Y-78889177D01*
X226254497Y-78889177D02*
X226271927Y-78824128D01*
X204833333Y-114454819D02*
X204500000Y-113978628D01*
X204261905Y-114454819D02*
X204261905Y-113454819D01*
X204261905Y-113454819D02*
X204642857Y-113454819D01*
X204642857Y-113454819D02*
X204738095Y-113502438D01*
X204738095Y-113502438D02*
X204785714Y-113550057D01*
X204785714Y-113550057D02*
X204833333Y-113645295D01*
X204833333Y-113645295D02*
X204833333Y-113788152D01*
X204833333Y-113788152D02*
X204785714Y-113883390D01*
X204785714Y-113883390D02*
X204738095Y-113931009D01*
X204738095Y-113931009D02*
X204642857Y-113978628D01*
X204642857Y-113978628D02*
X204261905Y-113978628D01*
X205166667Y-113454819D02*
X205833333Y-113454819D01*
X205833333Y-113454819D02*
X205404762Y-114454819D01*
X183286741Y-79779011D02*
X182420716Y-79279011D01*
X182420716Y-79279011D02*
X182539764Y-79072815D01*
X182539764Y-79072815D02*
X182652432Y-78972906D01*
X182652432Y-78972906D02*
X182782529Y-78938047D01*
X182782529Y-78938047D02*
X182888817Y-78944427D01*
X182888817Y-78944427D02*
X183077584Y-78998425D01*
X183077584Y-78998425D02*
X183201302Y-79069854D01*
X183201302Y-79069854D02*
X183342450Y-79206331D01*
X183342450Y-79206331D02*
X183401119Y-79295190D01*
X183401119Y-79295190D02*
X183435978Y-79425287D01*
X183435978Y-79425287D02*
X183405789Y-79572815D01*
X183405789Y-79572815D02*
X183286741Y-79779011D01*
X184048646Y-78459354D02*
X183762932Y-78954225D01*
X183905789Y-78706789D02*
X183039764Y-78206789D01*
X183039764Y-78206789D02*
X183115863Y-78360697D01*
X183115863Y-78360697D02*
X183150722Y-78490794D01*
X183150722Y-78490794D02*
X183144342Y-78597082D01*
X184524837Y-77634567D02*
X184239122Y-78129439D01*
X184381980Y-77882003D02*
X183515954Y-77382003D01*
X183515954Y-77382003D02*
X183592053Y-77535910D01*
X183592053Y-77535910D02*
X183626913Y-77666008D01*
X183626913Y-77666008D02*
X183620533Y-77772296D01*
X218238095Y-88954819D02*
X218238095Y-87954819D01*
X218238095Y-88431009D02*
X218809523Y-88431009D01*
X218809523Y-88954819D02*
X218809523Y-87954819D01*
X219238095Y-88050057D02*
X219285714Y-88002438D01*
X219285714Y-88002438D02*
X219380952Y-87954819D01*
X219380952Y-87954819D02*
X219619047Y-87954819D01*
X219619047Y-87954819D02*
X219714285Y-88002438D01*
X219714285Y-88002438D02*
X219761904Y-88050057D01*
X219761904Y-88050057D02*
X219809523Y-88145295D01*
X219809523Y-88145295D02*
X219809523Y-88240533D01*
X219809523Y-88240533D02*
X219761904Y-88383390D01*
X219761904Y-88383390D02*
X219190476Y-88954819D01*
X219190476Y-88954819D02*
X219809523Y-88954819D01*
X192128253Y-113810551D02*
X192077673Y-113231492D01*
X191633381Y-113524837D02*
X192133381Y-112658812D01*
X192133381Y-112658812D02*
X192463296Y-112849288D01*
X192463296Y-112849288D02*
X192521965Y-112938146D01*
X192521965Y-112938146D02*
X192539394Y-113003195D01*
X192539394Y-113003195D02*
X192533015Y-113109483D01*
X192533015Y-113109483D02*
X192461586Y-113233201D01*
X192461586Y-113233201D02*
X192372728Y-113291870D01*
X192372728Y-113291870D02*
X192307679Y-113309300D01*
X192307679Y-113309300D02*
X192201391Y-113302920D01*
X192201391Y-113302920D02*
X191871476Y-113112444D01*
X192908839Y-113601394D02*
X192850170Y-113512536D01*
X192850170Y-113512536D02*
X192832740Y-113447487D01*
X192832740Y-113447487D02*
X192839120Y-113341199D01*
X192839120Y-113341199D02*
X192862929Y-113299959D01*
X192862929Y-113299959D02*
X192951788Y-113241290D01*
X192951788Y-113241290D02*
X193016836Y-113223860D01*
X193016836Y-113223860D02*
X193123124Y-113230240D01*
X193123124Y-113230240D02*
X193288082Y-113325478D01*
X193288082Y-113325478D02*
X193346751Y-113414337D01*
X193346751Y-113414337D02*
X193364181Y-113479385D01*
X193364181Y-113479385D02*
X193357801Y-113585674D01*
X193357801Y-113585674D02*
X193333991Y-113626913D01*
X193333991Y-113626913D02*
X193245133Y-113685582D01*
X193245133Y-113685582D02*
X193180084Y-113703012D01*
X193180084Y-113703012D02*
X193073796Y-113696632D01*
X193073796Y-113696632D02*
X192908839Y-113601394D01*
X192908839Y-113601394D02*
X192802551Y-113595014D01*
X192802551Y-113595014D02*
X192737502Y-113612444D01*
X192737502Y-113612444D02*
X192648643Y-113671113D01*
X192648643Y-113671113D02*
X192553405Y-113836070D01*
X192553405Y-113836070D02*
X192547026Y-113942358D01*
X192547026Y-113942358D02*
X192564455Y-114007407D01*
X192564455Y-114007407D02*
X192623124Y-114096266D01*
X192623124Y-114096266D02*
X192788082Y-114191504D01*
X192788082Y-114191504D02*
X192894370Y-114197883D01*
X192894370Y-114197883D02*
X192959419Y-114180454D01*
X192959419Y-114180454D02*
X193048277Y-114121785D01*
X193048277Y-114121785D02*
X193143515Y-113956827D01*
X193143515Y-113956827D02*
X193149895Y-113850539D01*
X193149895Y-113850539D02*
X193132465Y-113785490D01*
X193132465Y-113785490D02*
X193073796Y-113696632D01*
X218128253Y-67810551D02*
X218077673Y-67231492D01*
X217633381Y-67524837D02*
X218133381Y-66658812D01*
X218133381Y-66658812D02*
X218463296Y-66849288D01*
X218463296Y-66849288D02*
X218521965Y-66938146D01*
X218521965Y-66938146D02*
X218539394Y-67003195D01*
X218539394Y-67003195D02*
X218533015Y-67109483D01*
X218533015Y-67109483D02*
X218461586Y-67233201D01*
X218461586Y-67233201D02*
X218372728Y-67291870D01*
X218372728Y-67291870D02*
X218307679Y-67309300D01*
X218307679Y-67309300D02*
X218201391Y-67302920D01*
X218201391Y-67302920D02*
X217871476Y-67112444D01*
X218910548Y-67217481D02*
X218975597Y-67200051D01*
X218975597Y-67200051D02*
X219081885Y-67206431D01*
X219081885Y-67206431D02*
X219288082Y-67325478D01*
X219288082Y-67325478D02*
X219346751Y-67414337D01*
X219346751Y-67414337D02*
X219364181Y-67479385D01*
X219364181Y-67479385D02*
X219357801Y-67585674D01*
X219357801Y-67585674D02*
X219310182Y-67668152D01*
X219310182Y-67668152D02*
X219197514Y-67768061D01*
X219197514Y-67768061D02*
X218416928Y-67977218D01*
X218416928Y-67977218D02*
X218953039Y-68286742D01*
X223738095Y-87704819D02*
X223738095Y-86704819D01*
X223738095Y-87181009D02*
X224309523Y-87181009D01*
X224309523Y-87704819D02*
X224309523Y-86704819D01*
X224833333Y-87704819D02*
X225023809Y-87704819D01*
X225023809Y-87704819D02*
X225119047Y-87657200D01*
X225119047Y-87657200D02*
X225166666Y-87609580D01*
X225166666Y-87609580D02*
X225261904Y-87466723D01*
X225261904Y-87466723D02*
X225309523Y-87276247D01*
X225309523Y-87276247D02*
X225309523Y-86895295D01*
X225309523Y-86895295D02*
X225261904Y-86800057D01*
X225261904Y-86800057D02*
X225214285Y-86752438D01*
X225214285Y-86752438D02*
X225119047Y-86704819D01*
X225119047Y-86704819D02*
X224928571Y-86704819D01*
X224928571Y-86704819D02*
X224833333Y-86752438D01*
X224833333Y-86752438D02*
X224785714Y-86800057D01*
X224785714Y-86800057D02*
X224738095Y-86895295D01*
X224738095Y-86895295D02*
X224738095Y-87133390D01*
X224738095Y-87133390D02*
X224785714Y-87228628D01*
X224785714Y-87228628D02*
X224833333Y-87276247D01*
X224833333Y-87276247D02*
X224928571Y-87323866D01*
X224928571Y-87323866D02*
X225119047Y-87323866D01*
X225119047Y-87323866D02*
X225214285Y-87276247D01*
X225214285Y-87276247D02*
X225261904Y-87228628D01*
X225261904Y-87228628D02*
X225309523Y-87133390D01*
X204433738Y-66454819D02*
X204433738Y-65454819D01*
X204433738Y-65454819D02*
X204671833Y-65454819D01*
X204671833Y-65454819D02*
X204814690Y-65502438D01*
X204814690Y-65502438D02*
X204909928Y-65597676D01*
X204909928Y-65597676D02*
X204957547Y-65692914D01*
X204957547Y-65692914D02*
X205005166Y-65883390D01*
X205005166Y-65883390D02*
X205005166Y-66026247D01*
X205005166Y-66026247D02*
X204957547Y-66216723D01*
X204957547Y-66216723D02*
X204909928Y-66311961D01*
X204909928Y-66311961D02*
X204814690Y-66407200D01*
X204814690Y-66407200D02*
X204671833Y-66454819D01*
X204671833Y-66454819D02*
X204433738Y-66454819D01*
X205957547Y-66454819D02*
X205386119Y-66454819D01*
X205671833Y-66454819D02*
X205671833Y-65454819D01*
X205671833Y-65454819D02*
X205576595Y-65597676D01*
X205576595Y-65597676D02*
X205481357Y-65692914D01*
X205481357Y-65692914D02*
X205386119Y-65740533D01*
X183738095Y-66804819D02*
X183738095Y-65804819D01*
X183738095Y-66281009D02*
X184309523Y-66281009D01*
X184309523Y-66804819D02*
X184309523Y-65804819D01*
X185261904Y-65804819D02*
X184785714Y-65804819D01*
X184785714Y-65804819D02*
X184738095Y-66281009D01*
X184738095Y-66281009D02*
X184785714Y-66233390D01*
X184785714Y-66233390D02*
X184880952Y-66185771D01*
X184880952Y-66185771D02*
X185119047Y-66185771D01*
X185119047Y-66185771D02*
X185214285Y-66233390D01*
X185214285Y-66233390D02*
X185261904Y-66281009D01*
X185261904Y-66281009D02*
X185309523Y-66376247D01*
X185309523Y-66376247D02*
X185309523Y-66614342D01*
X185309523Y-66614342D02*
X185261904Y-66709580D01*
X185261904Y-66709580D02*
X185214285Y-66757200D01*
X185214285Y-66757200D02*
X185119047Y-66804819D01*
X185119047Y-66804819D02*
X184880952Y-66804819D01*
X184880952Y-66804819D02*
X184785714Y-66757200D01*
X184785714Y-66757200D02*
X184738095Y-66709580D01*
X228310551Y-104371746D02*
X227731492Y-104422326D01*
X228024837Y-104866618D02*
X227158812Y-104366618D01*
X227158812Y-104366618D02*
X227349288Y-104036703D01*
X227349288Y-104036703D02*
X227438146Y-103978034D01*
X227438146Y-103978034D02*
X227503195Y-103960605D01*
X227503195Y-103960605D02*
X227609483Y-103966984D01*
X227609483Y-103966984D02*
X227733201Y-104038413D01*
X227733201Y-104038413D02*
X227791870Y-104127271D01*
X227791870Y-104127271D02*
X227809300Y-104192320D01*
X227809300Y-104192320D02*
X227802920Y-104298608D01*
X227802920Y-104298608D02*
X227612444Y-104628523D01*
X227896907Y-103088199D02*
X227658812Y-103500592D01*
X227658812Y-103500592D02*
X228047395Y-103779927D01*
X228047395Y-103779927D02*
X228029965Y-103714878D01*
X228029965Y-103714878D02*
X228036345Y-103608590D01*
X228036345Y-103608590D02*
X228155393Y-103402393D01*
X228155393Y-103402393D02*
X228244251Y-103343724D01*
X228244251Y-103343724D02*
X228309300Y-103326295D01*
X228309300Y-103326295D02*
X228415588Y-103332674D01*
X228415588Y-103332674D02*
X228621785Y-103451722D01*
X228621785Y-103451722D02*
X228680454Y-103540580D01*
X228680454Y-103540580D02*
X228697883Y-103605629D01*
X228697883Y-103605629D02*
X228691504Y-103711917D01*
X228691504Y-103711917D02*
X228572456Y-103918114D01*
X228572456Y-103918114D02*
X228483598Y-103976783D01*
X228483598Y-103976783D02*
X228418549Y-103994213D01*
X227522782Y-77583071D02*
X227768508Y-77056300D01*
X227237067Y-77088199D02*
X228103093Y-76588199D01*
X228103093Y-76588199D02*
X228293569Y-76918114D01*
X228293569Y-76918114D02*
X228299949Y-77024402D01*
X228299949Y-77024402D02*
X228282519Y-77089451D01*
X228282519Y-77089451D02*
X228223850Y-77178309D01*
X228223850Y-77178309D02*
X228100132Y-77249738D01*
X228100132Y-77249738D02*
X227993844Y-77256117D01*
X227993844Y-77256117D02*
X227928795Y-77238687D01*
X227928795Y-77238687D02*
X227839937Y-77180018D01*
X227839937Y-77180018D02*
X227649460Y-76850104D01*
X228555474Y-77371746D02*
X228864997Y-77907857D01*
X228864997Y-77907857D02*
X228368416Y-77809658D01*
X228368416Y-77809658D02*
X228439845Y-77933376D01*
X228439845Y-77933376D02*
X228446225Y-78039664D01*
X228446225Y-78039664D02*
X228428795Y-78104713D01*
X228428795Y-78104713D02*
X228370126Y-78193571D01*
X228370126Y-78193571D02*
X228163929Y-78312619D01*
X228163929Y-78312619D02*
X228057641Y-78318999D01*
X228057641Y-78318999D02*
X227992592Y-78301569D01*
X227992592Y-78301569D02*
X227903734Y-78242900D01*
X227903734Y-78242900D02*
X227760877Y-77995464D01*
X227760877Y-77995464D02*
X227754497Y-77889176D01*
X227754497Y-77889176D02*
X227771927Y-77824127D01*
X204433738Y-112454819D02*
X204433738Y-111454819D01*
X204433738Y-111454819D02*
X204671833Y-111454819D01*
X204671833Y-111454819D02*
X204814690Y-111502438D01*
X204814690Y-111502438D02*
X204909928Y-111597676D01*
X204909928Y-111597676D02*
X204957547Y-111692914D01*
X204957547Y-111692914D02*
X205005166Y-111883390D01*
X205005166Y-111883390D02*
X205005166Y-112026247D01*
X205005166Y-112026247D02*
X204957547Y-112216723D01*
X204957547Y-112216723D02*
X204909928Y-112311961D01*
X204909928Y-112311961D02*
X204814690Y-112407200D01*
X204814690Y-112407200D02*
X204671833Y-112454819D01*
X204671833Y-112454819D02*
X204433738Y-112454819D01*
X205338500Y-111454819D02*
X206005166Y-111454819D01*
X206005166Y-111454819D02*
X205576595Y-112454819D01*
D11*
X193238095Y-76952219D02*
X193238095Y-77761742D01*
X193238095Y-77761742D02*
X193285714Y-77856980D01*
X193285714Y-77856980D02*
X193333333Y-77904600D01*
X193333333Y-77904600D02*
X193428571Y-77952219D01*
X193428571Y-77952219D02*
X193619047Y-77952219D01*
X193619047Y-77952219D02*
X193714285Y-77904600D01*
X193714285Y-77904600D02*
X193761904Y-77856980D01*
X193761904Y-77856980D02*
X193809523Y-77761742D01*
X193809523Y-77761742D02*
X193809523Y-76952219D01*
X194809523Y-77952219D02*
X194238095Y-77952219D01*
X194523809Y-77952219D02*
X194523809Y-76952219D01*
X194523809Y-76952219D02*
X194428571Y-77095076D01*
X194428571Y-77095076D02*
X194333333Y-77190314D01*
X194333333Y-77190314D02*
X194238095Y-77237933D01*
D10*
X216633381Y-69024837D02*
X217133381Y-68158812D01*
X217133381Y-68158812D02*
X217339578Y-68277859D01*
X217339578Y-68277859D02*
X217439486Y-68390527D01*
X217439486Y-68390527D02*
X217474346Y-68520625D01*
X217474346Y-68520625D02*
X217467966Y-68626913D01*
X217467966Y-68626913D02*
X217413967Y-68815680D01*
X217413967Y-68815680D02*
X217342539Y-68939398D01*
X217342539Y-68939398D02*
X217206061Y-69080545D01*
X217206061Y-69080545D02*
X217117203Y-69139214D01*
X217117203Y-69139214D02*
X216987105Y-69174074D01*
X216987105Y-69174074D02*
X216839578Y-69143885D01*
X216839578Y-69143885D02*
X216633381Y-69024837D01*
X217910548Y-68717481D02*
X217975597Y-68700051D01*
X217975597Y-68700051D02*
X218081885Y-68706431D01*
X218081885Y-68706431D02*
X218288082Y-68825478D01*
X218288082Y-68825478D02*
X218346751Y-68914337D01*
X218346751Y-68914337D02*
X218364181Y-68979385D01*
X218364181Y-68979385D02*
X218357801Y-69085674D01*
X218357801Y-69085674D02*
X218310182Y-69168152D01*
X218310182Y-69168152D02*
X218197514Y-69268061D01*
X218197514Y-69268061D02*
X217416928Y-69477218D01*
X217416928Y-69477218D02*
X217953039Y-69786742D01*
X224738095Y-66804819D02*
X224738095Y-65804819D01*
X224738095Y-66281009D02*
X225309523Y-66281009D01*
X225309523Y-66804819D02*
X225309523Y-65804819D01*
X226214285Y-65804819D02*
X226023809Y-65804819D01*
X226023809Y-65804819D02*
X225928571Y-65852438D01*
X225928571Y-65852438D02*
X225880952Y-65900057D01*
X225880952Y-65900057D02*
X225785714Y-66042914D01*
X225785714Y-66042914D02*
X225738095Y-66233390D01*
X225738095Y-66233390D02*
X225738095Y-66614342D01*
X225738095Y-66614342D02*
X225785714Y-66709580D01*
X225785714Y-66709580D02*
X225833333Y-66757200D01*
X225833333Y-66757200D02*
X225928571Y-66804819D01*
X225928571Y-66804819D02*
X226119047Y-66804819D01*
X226119047Y-66804819D02*
X226214285Y-66757200D01*
X226214285Y-66757200D02*
X226261904Y-66709580D01*
X226261904Y-66709580D02*
X226309523Y-66614342D01*
X226309523Y-66614342D02*
X226309523Y-66376247D01*
X226309523Y-66376247D02*
X226261904Y-66281009D01*
X226261904Y-66281009D02*
X226214285Y-66233390D01*
X226214285Y-66233390D02*
X226119047Y-66185771D01*
X226119047Y-66185771D02*
X225928571Y-66185771D01*
X225928571Y-66185771D02*
X225833333Y-66233390D01*
X225833333Y-66233390D02*
X225785714Y-66281009D01*
X225785714Y-66281009D02*
X225738095Y-66376247D01*
X226524837Y-103866618D02*
X225658812Y-103366618D01*
X225658812Y-103366618D02*
X225777859Y-103160421D01*
X225777859Y-103160421D02*
X225890527Y-103060513D01*
X225890527Y-103060513D02*
X226020625Y-103025653D01*
X226020625Y-103025653D02*
X226126913Y-103032033D01*
X226126913Y-103032033D02*
X226315680Y-103086032D01*
X226315680Y-103086032D02*
X226439398Y-103157460D01*
X226439398Y-103157460D02*
X226580545Y-103293938D01*
X226580545Y-103293938D02*
X226639214Y-103382796D01*
X226639214Y-103382796D02*
X226674074Y-103512894D01*
X226674074Y-103512894D02*
X226643885Y-103660421D01*
X226643885Y-103660421D02*
X226524837Y-103866618D01*
X226396907Y-102088199D02*
X226158812Y-102500592D01*
X226158812Y-102500592D02*
X226547395Y-102779927D01*
X226547395Y-102779927D02*
X226529965Y-102714878D01*
X226529965Y-102714878D02*
X226536345Y-102608590D01*
X226536345Y-102608590D02*
X226655393Y-102402393D01*
X226655393Y-102402393D02*
X226744251Y-102343724D01*
X226744251Y-102343724D02*
X226809300Y-102326295D01*
X226809300Y-102326295D02*
X226915588Y-102332674D01*
X226915588Y-102332674D02*
X227121785Y-102451722D01*
X227121785Y-102451722D02*
X227180454Y-102540580D01*
X227180454Y-102540580D02*
X227197883Y-102605629D01*
X227197883Y-102605629D02*
X227191504Y-102711917D01*
X227191504Y-102711917D02*
X227072456Y-102918114D01*
X227072456Y-102918114D02*
X226983598Y-102976783D01*
X226983598Y-102976783D02*
X226918549Y-102994213D01*
X224738095Y-107804819D02*
X224738095Y-106804819D01*
X224738095Y-107281009D02*
X225309523Y-107281009D01*
X225309523Y-107804819D02*
X225309523Y-106804819D01*
X225928571Y-107233390D02*
X225833333Y-107185771D01*
X225833333Y-107185771D02*
X225785714Y-107138152D01*
X225785714Y-107138152D02*
X225738095Y-107042914D01*
X225738095Y-107042914D02*
X225738095Y-106995295D01*
X225738095Y-106995295D02*
X225785714Y-106900057D01*
X225785714Y-106900057D02*
X225833333Y-106852438D01*
X225833333Y-106852438D02*
X225928571Y-106804819D01*
X225928571Y-106804819D02*
X226119047Y-106804819D01*
X226119047Y-106804819D02*
X226214285Y-106852438D01*
X226214285Y-106852438D02*
X226261904Y-106900057D01*
X226261904Y-106900057D02*
X226309523Y-106995295D01*
X226309523Y-106995295D02*
X226309523Y-107042914D01*
X226309523Y-107042914D02*
X226261904Y-107138152D01*
X226261904Y-107138152D02*
X226214285Y-107185771D01*
X226214285Y-107185771D02*
X226119047Y-107233390D01*
X226119047Y-107233390D02*
X225928571Y-107233390D01*
X225928571Y-107233390D02*
X225833333Y-107281009D01*
X225833333Y-107281009D02*
X225785714Y-107328628D01*
X225785714Y-107328628D02*
X225738095Y-107423866D01*
X225738095Y-107423866D02*
X225738095Y-107614342D01*
X225738095Y-107614342D02*
X225785714Y-107709580D01*
X225785714Y-107709580D02*
X225833333Y-107757200D01*
X225833333Y-107757200D02*
X225928571Y-107804819D01*
X225928571Y-107804819D02*
X226119047Y-107804819D01*
X226119047Y-107804819D02*
X226214285Y-107757200D01*
X226214285Y-107757200D02*
X226261904Y-107709580D01*
X226261904Y-107709580D02*
X226309523Y-107614342D01*
X226309523Y-107614342D02*
X226309523Y-107423866D01*
X226309523Y-107423866D02*
X226261904Y-107328628D01*
X226261904Y-107328628D02*
X226214285Y-107281009D01*
X226214285Y-107281009D02*
X226119047Y-107233390D01*
X231454819Y-91166666D02*
X230978628Y-91499999D01*
X231454819Y-91738094D02*
X230454819Y-91738094D01*
X230454819Y-91738094D02*
X230454819Y-91357142D01*
X230454819Y-91357142D02*
X230502438Y-91261904D01*
X230502438Y-91261904D02*
X230550057Y-91214285D01*
X230550057Y-91214285D02*
X230645295Y-91166666D01*
X230645295Y-91166666D02*
X230788152Y-91166666D01*
X230788152Y-91166666D02*
X230883390Y-91214285D01*
X230883390Y-91214285D02*
X230931009Y-91261904D01*
X230931009Y-91261904D02*
X230978628Y-91357142D01*
X230978628Y-91357142D02*
X230978628Y-91738094D01*
X230788152Y-90309523D02*
X231454819Y-90309523D01*
X230407200Y-90547618D02*
X231121485Y-90785713D01*
X231121485Y-90785713D02*
X231121485Y-90166666D01*
X191170679Y-68215313D02*
X190643909Y-67969587D01*
X190675808Y-68501027D02*
X190175808Y-67635002D01*
X190175808Y-67635002D02*
X190505722Y-67444526D01*
X190505722Y-67444526D02*
X190612010Y-67438146D01*
X190612010Y-67438146D02*
X190677059Y-67455576D01*
X190677059Y-67455576D02*
X190765917Y-67514245D01*
X190765917Y-67514245D02*
X190837346Y-67637963D01*
X190837346Y-67637963D02*
X190843726Y-67744251D01*
X190843726Y-67744251D02*
X190826296Y-67809300D01*
X190826296Y-67809300D02*
X190767627Y-67898158D01*
X190767627Y-67898158D02*
X190437712Y-68088634D01*
X191995465Y-67739122D02*
X191500594Y-68024837D01*
X191748030Y-67881980D02*
X191248030Y-67015954D01*
X191248030Y-67015954D02*
X191236980Y-67187291D01*
X191236980Y-67187291D02*
X191202120Y-67317389D01*
X191202120Y-67317389D02*
X191143451Y-67406247D01*
X191872999Y-66765099D02*
X191890429Y-66700051D01*
X191890429Y-66700051D02*
X191949098Y-66611192D01*
X191949098Y-66611192D02*
X192155294Y-66492145D01*
X192155294Y-66492145D02*
X192261583Y-66485765D01*
X192261583Y-66485765D02*
X192326631Y-66503195D01*
X192326631Y-66503195D02*
X192415490Y-66561864D01*
X192415490Y-66561864D02*
X192463109Y-66644342D01*
X192463109Y-66644342D02*
X192493298Y-66791870D01*
X192493298Y-66791870D02*
X192284141Y-67572456D01*
X192284141Y-67572456D02*
X192820252Y-67262932D01*
X191675807Y-70001027D02*
X191175807Y-69135002D01*
X191175807Y-69135002D02*
X191382003Y-69015954D01*
X191382003Y-69015954D02*
X191529531Y-68985765D01*
X191529531Y-68985765D02*
X191659628Y-69020625D01*
X191659628Y-69020625D02*
X191748487Y-69079294D01*
X191748487Y-69079294D02*
X191884964Y-69220441D01*
X191884964Y-69220441D02*
X191956393Y-69344159D01*
X191956393Y-69344159D02*
X192010391Y-69532926D01*
X192010391Y-69532926D02*
X192016771Y-69639214D01*
X192016771Y-69639214D02*
X191981912Y-69769312D01*
X191981912Y-69769312D02*
X191882003Y-69881980D01*
X191882003Y-69881980D02*
X191675807Y-70001027D01*
X192995464Y-69239122D02*
X192500593Y-69524837D01*
X192748029Y-69381980D02*
X192248029Y-68515954D01*
X192248029Y-68515954D02*
X192236979Y-68687291D01*
X192236979Y-68687291D02*
X192202119Y-68817389D01*
X192202119Y-68817389D02*
X192143450Y-68906247D01*
X192872998Y-68265099D02*
X192890428Y-68200051D01*
X192890428Y-68200051D02*
X192949097Y-68111192D01*
X192949097Y-68111192D02*
X193155293Y-67992145D01*
X193155293Y-67992145D02*
X193261582Y-67985765D01*
X193261582Y-67985765D02*
X193326630Y-68003195D01*
X193326630Y-68003195D02*
X193415489Y-68061864D01*
X193415489Y-68061864D02*
X193463108Y-68144342D01*
X193463108Y-68144342D02*
X193493297Y-68291870D01*
X193493297Y-68291870D02*
X193284140Y-69072456D01*
X193284140Y-69072456D02*
X193820251Y-68762932D01*
X217088200Y-113262932D02*
X216588200Y-112396906D01*
X216588200Y-112396906D02*
X216794397Y-112277859D01*
X216794397Y-112277859D02*
X216941924Y-112247669D01*
X216941924Y-112247669D02*
X217072022Y-112282529D01*
X217072022Y-112282529D02*
X217160880Y-112341198D01*
X217160880Y-112341198D02*
X217297358Y-112482346D01*
X217297358Y-112482346D02*
X217368786Y-112606064D01*
X217368786Y-112606064D02*
X217422785Y-112794830D01*
X217422785Y-112794830D02*
X217429165Y-112901119D01*
X217429165Y-112901119D02*
X217394305Y-113031216D01*
X217394305Y-113031216D02*
X217294397Y-113143884D01*
X217294397Y-113143884D02*
X217088200Y-113262932D01*
X217825379Y-111682621D02*
X217660422Y-111777859D01*
X217660422Y-111777859D02*
X217601753Y-111866717D01*
X217601753Y-111866717D02*
X217584323Y-111931766D01*
X217584323Y-111931766D02*
X217573273Y-112103103D01*
X217573273Y-112103103D02*
X217627272Y-112291870D01*
X217627272Y-112291870D02*
X217817748Y-112621784D01*
X217817748Y-112621784D02*
X217906607Y-112680453D01*
X217906607Y-112680453D02*
X217971655Y-112697883D01*
X217971655Y-112697883D02*
X218077944Y-112691503D01*
X218077944Y-112691503D02*
X218242901Y-112596265D01*
X218242901Y-112596265D02*
X218301570Y-112507407D01*
X218301570Y-112507407D02*
X218319000Y-112442358D01*
X218319000Y-112442358D02*
X218312620Y-112336070D01*
X218312620Y-112336070D02*
X218193572Y-112129873D01*
X218193572Y-112129873D02*
X218104714Y-112071204D01*
X218104714Y-112071204D02*
X218039665Y-112053774D01*
X218039665Y-112053774D02*
X217933377Y-112060154D01*
X217933377Y-112060154D02*
X217768420Y-112155392D01*
X217768420Y-112155392D02*
X217709751Y-112244251D01*
X217709751Y-112244251D02*
X217692321Y-112309299D01*
X217692321Y-112309299D02*
X217698701Y-112415588D01*
X183261905Y-87704819D02*
X183261905Y-86704819D01*
X183261905Y-87181009D02*
X183833333Y-87181009D01*
X183833333Y-87704819D02*
X183833333Y-86704819D01*
X184833333Y-87704819D02*
X184261905Y-87704819D01*
X184547619Y-87704819D02*
X184547619Y-86704819D01*
X184547619Y-86704819D02*
X184452381Y-86847676D01*
X184452381Y-86847676D02*
X184357143Y-86942914D01*
X184357143Y-86942914D02*
X184261905Y-86990533D01*
X185452381Y-86704819D02*
X185547619Y-86704819D01*
X185547619Y-86704819D02*
X185642857Y-86752438D01*
X185642857Y-86752438D02*
X185690476Y-86800057D01*
X185690476Y-86800057D02*
X185738095Y-86895295D01*
X185738095Y-86895295D02*
X185785714Y-87085771D01*
X185785714Y-87085771D02*
X185785714Y-87323866D01*
X185785714Y-87323866D02*
X185738095Y-87514342D01*
X185738095Y-87514342D02*
X185690476Y-87609580D01*
X185690476Y-87609580D02*
X185642857Y-87657200D01*
X185642857Y-87657200D02*
X185547619Y-87704819D01*
X185547619Y-87704819D02*
X185452381Y-87704819D01*
X185452381Y-87704819D02*
X185357143Y-87657200D01*
X185357143Y-87657200D02*
X185309524Y-87609580D01*
X185309524Y-87609580D02*
X185261905Y-87514342D01*
X185261905Y-87514342D02*
X185214286Y-87323866D01*
X185214286Y-87323866D02*
X185214286Y-87085771D01*
X185214286Y-87085771D02*
X185261905Y-86895295D01*
X185261905Y-86895295D02*
X185309524Y-86800057D01*
X185309524Y-86800057D02*
X185357143Y-86752438D01*
X185357143Y-86752438D02*
X185452381Y-86704819D01*
X182072456Y-78284140D02*
X181493396Y-78334720D01*
X181786741Y-78779011D02*
X180920716Y-78279011D01*
X180920716Y-78279011D02*
X181111192Y-77949097D01*
X181111192Y-77949097D02*
X181200051Y-77890428D01*
X181200051Y-77890428D02*
X181265099Y-77872998D01*
X181265099Y-77872998D02*
X181371388Y-77879378D01*
X181371388Y-77879378D02*
X181495105Y-77950806D01*
X181495105Y-77950806D02*
X181553775Y-78039665D01*
X181553775Y-78039665D02*
X181571204Y-78104714D01*
X181571204Y-78104714D02*
X181564825Y-78211002D01*
X181564825Y-78211002D02*
X181374348Y-78540916D01*
X182548646Y-77459354D02*
X182262932Y-77954225D01*
X182405789Y-77706789D02*
X181539764Y-77206789D01*
X181539764Y-77206789D02*
X181615863Y-77360697D01*
X181615863Y-77360697D02*
X181650722Y-77490794D01*
X181650722Y-77490794D02*
X181644342Y-77597082D01*
X183024837Y-76634567D02*
X182739122Y-77129439D01*
X182881980Y-76882003D02*
X182015954Y-76382003D01*
X182015954Y-76382003D02*
X182092053Y-76535910D01*
X182092053Y-76535910D02*
X182126913Y-76666008D01*
X182126913Y-76666008D02*
X182120533Y-76772296D01*
X192633381Y-112024837D02*
X193133381Y-111158812D01*
X193133381Y-111158812D02*
X193339578Y-111277859D01*
X193339578Y-111277859D02*
X193439486Y-111390527D01*
X193439486Y-111390527D02*
X193474346Y-111520625D01*
X193474346Y-111520625D02*
X193467966Y-111626913D01*
X193467966Y-111626913D02*
X193413967Y-111815680D01*
X193413967Y-111815680D02*
X193342539Y-111939398D01*
X193342539Y-111939398D02*
X193206061Y-112080545D01*
X193206061Y-112080545D02*
X193117203Y-112139214D01*
X193117203Y-112139214D02*
X192987105Y-112174074D01*
X192987105Y-112174074D02*
X192839578Y-112143885D01*
X192839578Y-112143885D02*
X192633381Y-112024837D01*
X193908839Y-112101394D02*
X193850170Y-112012536D01*
X193850170Y-112012536D02*
X193832740Y-111947487D01*
X193832740Y-111947487D02*
X193839120Y-111841199D01*
X193839120Y-111841199D02*
X193862929Y-111799959D01*
X193862929Y-111799959D02*
X193951788Y-111741290D01*
X193951788Y-111741290D02*
X194016836Y-111723860D01*
X194016836Y-111723860D02*
X194123124Y-111730240D01*
X194123124Y-111730240D02*
X194288082Y-111825478D01*
X194288082Y-111825478D02*
X194346751Y-111914337D01*
X194346751Y-111914337D02*
X194364181Y-111979385D01*
X194364181Y-111979385D02*
X194357801Y-112085674D01*
X194357801Y-112085674D02*
X194333991Y-112126913D01*
X194333991Y-112126913D02*
X194245133Y-112185582D01*
X194245133Y-112185582D02*
X194180084Y-112203012D01*
X194180084Y-112203012D02*
X194073796Y-112196632D01*
X194073796Y-112196632D02*
X193908839Y-112101394D01*
X193908839Y-112101394D02*
X193802551Y-112095014D01*
X193802551Y-112095014D02*
X193737502Y-112112444D01*
X193737502Y-112112444D02*
X193648643Y-112171113D01*
X193648643Y-112171113D02*
X193553405Y-112336070D01*
X193553405Y-112336070D02*
X193547026Y-112442358D01*
X193547026Y-112442358D02*
X193564455Y-112507407D01*
X193564455Y-112507407D02*
X193623124Y-112596266D01*
X193623124Y-112596266D02*
X193788082Y-112691504D01*
X193788082Y-112691504D02*
X193894370Y-112697883D01*
X193894370Y-112697883D02*
X193959419Y-112680454D01*
X193959419Y-112680454D02*
X194048277Y-112621785D01*
X194048277Y-112621785D02*
X194143515Y-112456827D01*
X194143515Y-112456827D02*
X194149895Y-112350539D01*
X194149895Y-112350539D02*
X194132465Y-112285490D01*
X194132465Y-112285490D02*
X194073796Y-112196632D01*
X189738095Y-100954819D02*
X189738095Y-99954819D01*
X189738095Y-100431009D02*
X190309523Y-100431009D01*
X190309523Y-100954819D02*
X190309523Y-99954819D01*
X190690476Y-99954819D02*
X191309523Y-99954819D01*
X191309523Y-99954819D02*
X190976190Y-100335771D01*
X190976190Y-100335771D02*
X191119047Y-100335771D01*
X191119047Y-100335771D02*
X191214285Y-100383390D01*
X191214285Y-100383390D02*
X191261904Y-100431009D01*
X191261904Y-100431009D02*
X191309523Y-100526247D01*
X191309523Y-100526247D02*
X191309523Y-100764342D01*
X191309523Y-100764342D02*
X191261904Y-100859580D01*
X191261904Y-100859580D02*
X191214285Y-100907200D01*
X191214285Y-100907200D02*
X191119047Y-100954819D01*
X191119047Y-100954819D02*
X190833333Y-100954819D01*
X190833333Y-100954819D02*
X190738095Y-100907200D01*
X190738095Y-100907200D02*
X190690476Y-100859580D01*
X182022781Y-104083072D02*
X182268507Y-103556301D01*
X181737066Y-103588200D02*
X182603092Y-103088200D01*
X182603092Y-103088200D02*
X182793568Y-103418115D01*
X182793568Y-103418115D02*
X182799948Y-103524403D01*
X182799948Y-103524403D02*
X182782518Y-103589452D01*
X182782518Y-103589452D02*
X182723849Y-103678310D01*
X182723849Y-103678310D02*
X182600131Y-103749739D01*
X182600131Y-103749739D02*
X182493843Y-103756118D01*
X182493843Y-103756118D02*
X182428794Y-103738688D01*
X182428794Y-103738688D02*
X182339936Y-103680019D01*
X182339936Y-103680019D02*
X182149459Y-103350105D01*
X182260876Y-104495465D02*
X182356114Y-104660422D01*
X182356114Y-104660422D02*
X182444972Y-104719091D01*
X182444972Y-104719091D02*
X182510021Y-104736521D01*
X182510021Y-104736521D02*
X182681358Y-104747571D01*
X182681358Y-104747571D02*
X182870125Y-104693572D01*
X182870125Y-104693572D02*
X183200039Y-104503096D01*
X183200039Y-104503096D02*
X183258708Y-104414238D01*
X183258708Y-104414238D02*
X183276138Y-104349189D01*
X183276138Y-104349189D02*
X183269758Y-104242901D01*
X183269758Y-104242901D02*
X183174520Y-104077944D01*
X183174520Y-104077944D02*
X183085662Y-104019274D01*
X183085662Y-104019274D02*
X183020613Y-104001845D01*
X183020613Y-104001845D02*
X182914325Y-104008224D01*
X182914325Y-104008224D02*
X182708128Y-104127272D01*
X182708128Y-104127272D02*
X182649459Y-104216130D01*
X182649459Y-104216130D02*
X182632030Y-104281179D01*
X182632030Y-104281179D02*
X182638409Y-104387467D01*
X182638409Y-104387467D02*
X182733647Y-104552425D01*
X182733647Y-104552425D02*
X182822506Y-104611094D01*
X182822506Y-104611094D02*
X182887555Y-104628523D01*
X182887555Y-104628523D02*
X182993843Y-104622144D01*
X180954819Y-92214285D02*
X179954819Y-92214285D01*
X179954819Y-92214285D02*
X179954819Y-91976190D01*
X179954819Y-91976190D02*
X180002438Y-91833333D01*
X180002438Y-91833333D02*
X180097676Y-91738095D01*
X180097676Y-91738095D02*
X180192914Y-91690476D01*
X180192914Y-91690476D02*
X180383390Y-91642857D01*
X180383390Y-91642857D02*
X180526247Y-91642857D01*
X180526247Y-91642857D02*
X180716723Y-91690476D01*
X180716723Y-91690476D02*
X180811961Y-91738095D01*
X180811961Y-91738095D02*
X180907200Y-91833333D01*
X180907200Y-91833333D02*
X180954819Y-91976190D01*
X180954819Y-91976190D02*
X180954819Y-92214285D01*
X180954819Y-90690476D02*
X180954819Y-91261904D01*
X180954819Y-90976190D02*
X179954819Y-90976190D01*
X179954819Y-90976190D02*
X180097676Y-91071428D01*
X180097676Y-91071428D02*
X180192914Y-91166666D01*
X180192914Y-91166666D02*
X180240533Y-91261904D01*
X179954819Y-90071428D02*
X179954819Y-89976190D01*
X179954819Y-89976190D02*
X180002438Y-89880952D01*
X180002438Y-89880952D02*
X180050057Y-89833333D01*
X180050057Y-89833333D02*
X180145295Y-89785714D01*
X180145295Y-89785714D02*
X180335771Y-89738095D01*
X180335771Y-89738095D02*
X180573866Y-89738095D01*
X180573866Y-89738095D02*
X180764342Y-89785714D01*
X180764342Y-89785714D02*
X180859580Y-89833333D01*
X180859580Y-89833333D02*
X180907200Y-89880952D01*
X180907200Y-89880952D02*
X180954819Y-89976190D01*
X180954819Y-89976190D02*
X180954819Y-90071428D01*
X180954819Y-90071428D02*
X180907200Y-90166666D01*
X180907200Y-90166666D02*
X180859580Y-90214285D01*
X180859580Y-90214285D02*
X180764342Y-90261904D01*
X180764342Y-90261904D02*
X180573866Y-90309523D01*
X180573866Y-90309523D02*
X180335771Y-90309523D01*
X180335771Y-90309523D02*
X180145295Y-90261904D01*
X180145295Y-90261904D02*
X180050057Y-90214285D01*
X180050057Y-90214285D02*
X180002438Y-90166666D01*
X180002438Y-90166666D02*
X179954819Y-90071428D01*
X183237067Y-102588200D02*
X184103093Y-102088200D01*
X184103093Y-102088200D02*
X184222140Y-102294397D01*
X184222140Y-102294397D02*
X184252330Y-102441924D01*
X184252330Y-102441924D02*
X184217470Y-102572022D01*
X184217470Y-102572022D02*
X184158801Y-102660880D01*
X184158801Y-102660880D02*
X184017653Y-102797358D01*
X184017653Y-102797358D02*
X183893935Y-102868786D01*
X183893935Y-102868786D02*
X183705169Y-102922785D01*
X183705169Y-102922785D02*
X183598880Y-102929165D01*
X183598880Y-102929165D02*
X183468783Y-102894305D01*
X183468783Y-102894305D02*
X183356115Y-102794397D01*
X183356115Y-102794397D02*
X183237067Y-102588200D01*
X183760877Y-103495465D02*
X183856115Y-103660422D01*
X183856115Y-103660422D02*
X183944973Y-103719091D01*
X183944973Y-103719091D02*
X184010022Y-103736521D01*
X184010022Y-103736521D02*
X184181359Y-103747571D01*
X184181359Y-103747571D02*
X184370126Y-103693572D01*
X184370126Y-103693572D02*
X184700040Y-103503096D01*
X184700040Y-103503096D02*
X184758709Y-103414238D01*
X184758709Y-103414238D02*
X184776139Y-103349189D01*
X184776139Y-103349189D02*
X184769759Y-103242901D01*
X184769759Y-103242901D02*
X184674521Y-103077944D01*
X184674521Y-103077944D02*
X184585663Y-103019274D01*
X184585663Y-103019274D02*
X184520614Y-103001845D01*
X184520614Y-103001845D02*
X184414326Y-103008224D01*
X184414326Y-103008224D02*
X184208129Y-103127272D01*
X184208129Y-103127272D02*
X184149460Y-103216130D01*
X184149460Y-103216130D02*
X184132031Y-103281179D01*
X184132031Y-103281179D02*
X184138410Y-103387467D01*
X184138410Y-103387467D02*
X184233648Y-103552425D01*
X184233648Y-103552425D02*
X184322507Y-103611094D01*
X184322507Y-103611094D02*
X184387556Y-103628523D01*
X184387556Y-103628523D02*
X184493844Y-103622144D01*
X189738095Y-88954819D02*
X189738095Y-87954819D01*
X189738095Y-88431009D02*
X190309523Y-88431009D01*
X190309523Y-88954819D02*
X190309523Y-87954819D01*
X191309523Y-88954819D02*
X190738095Y-88954819D01*
X191023809Y-88954819D02*
X191023809Y-87954819D01*
X191023809Y-87954819D02*
X190928571Y-88097676D01*
X190928571Y-88097676D02*
X190833333Y-88192914D01*
X190833333Y-88192914D02*
X190738095Y-88240533D01*
D12*
%TO.C,R1*%
X204569448Y-56265000D02*
X205023576Y-56265000D01*
X204569448Y-57735000D02*
X205023576Y-57735000D01*
%TO.C,R10*%
X170061512Y-91227064D02*
X170061512Y-90772936D01*
X171531512Y-91227064D02*
X171531512Y-90772936D01*
%TO.C,R6*%
X221625655Y-119694802D02*
X221232369Y-119921866D01*
X222360655Y-120967860D02*
X221967369Y-121194924D01*
%TO.C,D4*%
X233571833Y-92196477D02*
X233571833Y-88296477D01*
X236771833Y-88296477D02*
X233571833Y-88296477D01*
X236771833Y-92196477D02*
X236771833Y-88296477D01*
%TO.C,D3*%
X230466953Y-77808913D02*
X228516954Y-74431413D01*
X231288237Y-72831413D02*
X228516954Y-74431413D01*
X233238236Y-76208913D02*
X231288237Y-72831413D01*
%TO.C,R7*%
X205023576Y-124265000D02*
X204569448Y-124265000D01*
X205023576Y-125735000D02*
X204569448Y-125735000D01*
%TO.C,D11*%
X176555429Y-77161541D02*
X179326712Y-78761541D01*
X178505428Y-73784041D02*
X176555429Y-77161541D01*
X181276711Y-75384041D02*
X179326712Y-78761541D01*
%TO.C,R8*%
X187625655Y-121194924D02*
X187232369Y-120967860D01*
X188360655Y-119921866D02*
X187967369Y-119694802D01*
%TO.C,R2*%
X221232369Y-62078133D02*
X221625655Y-62305197D01*
X221967369Y-60805075D02*
X222360655Y-61032139D01*
%TO.C,D1*%
X202671833Y-59196477D02*
X202671833Y-62396477D01*
X206571833Y-59196477D02*
X202671833Y-59196477D01*
X206571833Y-62396477D02*
X202671833Y-62396477D01*
%TO.C,R5*%
X233718378Y-107435857D02*
X233491314Y-107829143D01*
X234991436Y-108170857D02*
X234764372Y-108564143D01*
%TO.C,R3*%
X233491314Y-74170857D02*
X233718378Y-74564143D01*
X234764372Y-73435857D02*
X234991436Y-73829143D01*
%TO.C,D7*%
X203771833Y-119196477D02*
X207671833Y-119196477D01*
X203771833Y-122396477D02*
X207671833Y-122396477D01*
X207671833Y-122396477D02*
X207671833Y-119196477D01*
%TO.C,U1*%
D13*
X192125418Y-78841285D02*
X217125418Y-78841285D01*
X217125418Y-102841285D01*
X192125418Y-102841285D01*
X192125418Y-78841285D01*
D12*
%TO.C,D2*%
X218806769Y-62180073D02*
X217206769Y-64951356D01*
X220584269Y-66901355D02*
X217206769Y-64951356D01*
X222184269Y-64130072D02*
X218806769Y-62180073D01*
%TO.C,D5*%
X229066954Y-106208913D02*
X231016953Y-102831413D01*
X231838237Y-107808913D02*
X233788236Y-104431413D01*
X233788236Y-104431413D02*
X231016953Y-102831413D01*
%TO.C,R4*%
X238061512Y-90772936D02*
X238061512Y-91227064D01*
X239531512Y-90772936D02*
X239531512Y-91227064D01*
%TO.C,R12*%
X187232368Y-61032139D02*
X187625654Y-60805075D01*
X187967368Y-62305197D02*
X188360654Y-62078133D01*
%TO.C,D12*%
X187206768Y-64680072D02*
X188806768Y-67451355D01*
X190584268Y-62730073D02*
X187206768Y-64680072D01*
X192184268Y-65501356D02*
X188806768Y-67451355D01*
%TO.C,D6*%
X218159397Y-116091597D02*
X221536897Y-114141598D01*
X219759397Y-118862880D02*
X223136897Y-116912881D01*
X223136897Y-116912881D02*
X221536897Y-114141598D01*
%TO.C,R11*%
X174601587Y-73829143D02*
X174828651Y-73435857D01*
X175874645Y-74564143D02*
X176101709Y-74170857D01*
%TO.C,D8*%
X188159397Y-117462881D02*
X191536897Y-119412880D01*
X189759397Y-114691598D02*
X193136897Y-116641597D01*
X191536897Y-119412880D02*
X193136897Y-116641597D01*
%TO.C,R9*%
X174828651Y-108564143D02*
X174601587Y-108170857D01*
X176101709Y-107829143D02*
X175874645Y-107435857D01*
%TO.C,D10*%
X173571833Y-89396477D02*
X173571833Y-93296477D01*
X173571833Y-93296477D02*
X176771833Y-93296477D01*
X176771833Y-89396477D02*
X176771833Y-93296477D01*
%TO.C,D9*%
X177105429Y-105384041D02*
X179055428Y-108761541D01*
X179055428Y-108761541D02*
X181826711Y-107161541D01*
X179876712Y-103784041D02*
X181826711Y-107161541D01*
%TD*%
M02*
