%TF.GenerationSoftware,KiCad,Pcbnew,9.0.7-9.0.7~ubuntu24.04.1*%
%TF.CreationDate,2026-01-08T12:22:14+05:30*%
%TF.ProjectId,RPI_Cam3_RL,5250495f-4361-46d3-935f-524c2e6b6963,1.0.0*%
%TF.SameCoordinates,Original*%
%TF.FileFunction,Copper,L1,Top*%
%TF.FilePolarity,Positive*%
%FSLAX46Y46*%
G04 Gerber Fmt 4.6, Leading zero omitted, Abs format (unit mm)*
G04 Created by KiCad (PCBNEW 9.0.7-9.0.7~ubuntu24.04.1) date 2026-01-08 12:22:14*
%MOMM*%
%LPD*%
G01*
G04 APERTURE LIST*
G04 Aperture macros list*
%AMRoundRect*
0 Rectangle with rounded corners*
0 $1 Rounding radius*
0 $2 $3 $4 $5 $6 $7 $8 $9 X,Y pos of 4 corners*
0 Add a 4 corners polygon primitive as box body*
4,1,4,$2,$3,$4,$5,$6,$7,$8,$9,$2,$3,0*
0 Add four circle primitives for the rounded corners*
1,1,$1+$1,$2,$3*
1,1,$1+$1,$4,$5*
1,1,$1+$1,$6,$7*
1,1,$1+$1,$8,$9*
0 Add four rect primitives between the rounded corners*
20,1,$1+$1,$2,$3,$4,$5,0*
20,1,$1+$1,$4,$5,$6,$7,0*
20,1,$1+$1,$6,$7,$8,$9,0*
20,1,$1+$1,$8,$9,$2,$3,0*%
%AMRotRect*
0 Rectangle, with rotation*
0 The origin of the aperture is its center*
0 $1 length*
0 $2 width*
0 $3 Rotation angle, in degrees counterclockwise*
0 Add horizontal line*
21,1,$1,$2,0,0,$3*%
G04 Aperture macros list end*
%TA.AperFunction,SMDPad,CuDef*%
%ADD10RoundRect,0.250000X-0.350000X-0.450000X0.350000X-0.450000X0.350000X0.450000X-0.350000X0.450000X0*%
%TD*%
%TA.AperFunction,SMDPad,CuDef*%
%ADD11RoundRect,0.250000X0.450000X-0.350000X0.450000X0.350000X-0.450000X0.350000X-0.450000X-0.350000X0*%
%TD*%
%TA.AperFunction,SMDPad,CuDef*%
%ADD12RoundRect,0.250000X0.078109X0.564711X-0.528109X0.214711X-0.078109X-0.564711X0.528109X-0.214711X0*%
%TD*%
%TA.AperFunction,SMDPad,CuDef*%
%ADD13R,2.200000X2.500000*%
%TD*%
%TA.AperFunction,SMDPad,CuDef*%
%ADD14R,2.200000X1.550000*%
%TD*%
%TA.AperFunction,SMDPad,CuDef*%
%ADD15RotRect,2.500000X2.200000X300.000000*%
%TD*%
%TA.AperFunction,SMDPad,CuDef*%
%ADD16RotRect,1.550000X2.200000X300.000000*%
%TD*%
%TA.AperFunction,SMDPad,CuDef*%
%ADD17RoundRect,0.250000X0.350000X0.450000X-0.350000X0.450000X-0.350000X-0.450000X0.350000X-0.450000X0*%
%TD*%
%TA.AperFunction,SMDPad,CuDef*%
%ADD18RotRect,2.500000X2.200000X60.000000*%
%TD*%
%TA.AperFunction,SMDPad,CuDef*%
%ADD19RotRect,1.550000X2.200000X60.000000*%
%TD*%
%TA.AperFunction,SMDPad,CuDef*%
%ADD20RoundRect,0.250000X0.528109X0.214711X-0.078109X0.564711X-0.528109X-0.214711X0.078109X-0.564711X0*%
%TD*%
%TA.AperFunction,SMDPad,CuDef*%
%ADD21RoundRect,0.250000X-0.528109X-0.214711X0.078109X-0.564711X0.528109X0.214711X-0.078109X0.564711X0*%
%TD*%
%TA.AperFunction,SMDPad,CuDef*%
%ADD22R,2.500000X2.200000*%
%TD*%
%TA.AperFunction,SMDPad,CuDef*%
%ADD23R,1.550000X2.200000*%
%TD*%
%TA.AperFunction,SMDPad,CuDef*%
%ADD24RoundRect,0.250000X-0.214711X0.528109X-0.564711X-0.078109X0.214711X-0.528109X0.564711X0.078109X0*%
%TD*%
%TA.AperFunction,SMDPad,CuDef*%
%ADD25RoundRect,0.250000X-0.564711X0.078109X-0.214711X-0.528109X0.564711X-0.078109X0.214711X0.528109X0*%
%TD*%
%TA.AperFunction,SMDPad,CuDef*%
%ADD26RotRect,2.500000X2.200000X330.000000*%
%TD*%
%TA.AperFunction,SMDPad,CuDef*%
%ADD27RotRect,1.550000X2.200000X330.000000*%
%TD*%
%TA.AperFunction,SMDPad,CuDef*%
%ADD28RotRect,2.500000X2.200000X240.000000*%
%TD*%
%TA.AperFunction,SMDPad,CuDef*%
%ADD29RotRect,1.550000X2.200000X240.000000*%
%TD*%
%TA.AperFunction,SMDPad,CuDef*%
%ADD30RoundRect,0.250000X-0.450000X0.350000X-0.450000X-0.350000X0.450000X-0.350000X0.450000X0.350000X0*%
%TD*%
%TA.AperFunction,SMDPad,CuDef*%
%ADD31RoundRect,0.250000X-0.078109X-0.564711X0.528109X-0.214711X0.078109X0.564711X-0.528109X0.214711X0*%
%TD*%
%TA.AperFunction,SMDPad,CuDef*%
%ADD32RotRect,2.500000X2.200000X30.000000*%
%TD*%
%TA.AperFunction,SMDPad,CuDef*%
%ADD33RotRect,1.550000X2.200000X30.000000*%
%TD*%
%TA.AperFunction,SMDPad,CuDef*%
%ADD34RotRect,2.500000X2.200000X210.000000*%
%TD*%
%TA.AperFunction,SMDPad,CuDef*%
%ADD35RotRect,1.550000X2.200000X210.000000*%
%TD*%
%TA.AperFunction,SMDPad,CuDef*%
%ADD36RoundRect,0.250000X0.214711X-0.528109X0.564711X0.078109X-0.214711X0.528109X-0.564711X-0.078109X0*%
%TD*%
%TA.AperFunction,SMDPad,CuDef*%
%ADD37RotRect,2.500000X2.200000X150.000000*%
%TD*%
%TA.AperFunction,SMDPad,CuDef*%
%ADD38RotRect,1.550000X2.200000X150.000000*%
%TD*%
%TA.AperFunction,SMDPad,CuDef*%
%ADD39RoundRect,0.250000X0.564711X-0.078109X0.214711X0.528109X-0.564711X0.078109X-0.214711X-0.528109X0*%
%TD*%
%TA.AperFunction,SMDPad,CuDef*%
%ADD40RotRect,2.500000X2.200000X120.000000*%
%TD*%
%TA.AperFunction,SMDPad,CuDef*%
%ADD41RotRect,1.550000X2.200000X120.000000*%
%TD*%
%TA.AperFunction,ComponentPad*%
%ADD42RoundRect,0.250000X-0.600000X-0.725000X0.600000X-0.725000X0.600000X0.725000X-0.600000X0.725000X0*%
%TD*%
%TA.AperFunction,ComponentPad*%
%ADD43O,1.700000X1.950000*%
%TD*%
%TA.AperFunction,ViaPad*%
%ADD44C,1.500000*%
%TD*%
%TA.AperFunction,ViaPad*%
%ADD45C,0.800000*%
%TD*%
%TA.AperFunction,Conductor*%
%ADD46C,0.500000*%
%TD*%
%TA.AperFunction,Conductor*%
%ADD47C,0.300000*%
%TD*%
G04 APERTURE END LIST*
D10*
%TO.P,R1,1*%
%TO.N,Net-(Q1-S)*%
X203796512Y-57000000D03*
%TO.P,R1,2*%
%TO.N,Net-(D1-A)*%
X205796512Y-57000000D03*
%TD*%
D11*
%TO.P,R10,1*%
%TO.N,Net-(Q1-S)*%
X170796512Y-92000000D03*
%TO.P,R10,2*%
%TO.N,Net-(D10-A)*%
X170796512Y-90000000D03*
%TD*%
D12*
%TO.P,R6,1*%
%TO.N,Net-(Q1-S)*%
X222662537Y-119944863D03*
%TO.P,R6,2*%
%TO.N,Net-(D6-A)*%
X220930487Y-120944863D03*
%TD*%
D13*
%TO.P,D4,1,K*%
%TO.N,GND*%
X235171833Y-89746477D03*
D14*
%TO.P,D4,2,A*%
%TO.N,Net-(D4-A)*%
X235171833Y-92321477D03*
%TD*%
D15*
%TO.P,D3,1,K*%
%TO.N,GND*%
X230627595Y-74887150D03*
D16*
%TO.P,D3,2,A*%
%TO.N,Net-(D3-A)*%
X231915095Y-77117166D03*
%TD*%
D17*
%TO.P,R7,1*%
%TO.N,Net-(Q1-S)*%
X205796512Y-125000000D03*
%TO.P,R7,2*%
%TO.N,Net-(D7-A)*%
X203796512Y-125000000D03*
%TD*%
D18*
%TO.P,D11,1,K*%
%TO.N,GND*%
X178666070Y-76705804D03*
D19*
%TO.P,D11,2,A*%
%TO.N,Net-(D11-A)*%
X179953570Y-74475788D03*
%TD*%
D20*
%TO.P,R8,1*%
%TO.N,Net-(Q1-S)*%
X188662537Y-120944863D03*
%TO.P,R8,2*%
%TO.N,Net-(D8-A)*%
X186930487Y-119944863D03*
%TD*%
D21*
%TO.P,R2,1*%
%TO.N,Net-(Q1-S)*%
X220930487Y-61055136D03*
%TO.P,R2,2*%
%TO.N,Net-(D2-A)*%
X222662537Y-62055136D03*
%TD*%
D22*
%TO.P,D1,1,K*%
%TO.N,GND*%
X204121833Y-60796477D03*
D23*
%TO.P,D1,2,A*%
%TO.N,Net-(D1-A)*%
X206696833Y-60796477D03*
%TD*%
D24*
%TO.P,R5,1*%
%TO.N,Net-(Q1-S)*%
X234741375Y-107133975D03*
%TO.P,R5,2*%
%TO.N,Net-(D5-A)*%
X233741375Y-108866025D03*
%TD*%
D25*
%TO.P,R3,1*%
%TO.N,Net-(Q1-S)*%
X233741375Y-73133975D03*
%TO.P,R3,2*%
%TO.N,Net-(D3-A)*%
X234741375Y-74866025D03*
%TD*%
D22*
%TO.P,D7,1,K*%
%TO.N,GND*%
X206221833Y-120796477D03*
D23*
%TO.P,D7,2,A*%
%TO.N,Net-(D7-A)*%
X203646833Y-120796477D03*
%TD*%
D26*
%TO.P,D2,1,K*%
%TO.N,GND*%
X219262506Y-64290714D03*
D27*
%TO.P,D2,2,A*%
%TO.N,Net-(D2-A)*%
X221492522Y-65578214D03*
%TD*%
D28*
%TO.P,D5,1,K*%
%TO.N,GND*%
X231677595Y-104887150D03*
D29*
%TO.P,D5,2,A*%
%TO.N,Net-(D5-A)*%
X230390095Y-107117166D03*
%TD*%
D30*
%TO.P,R4,1*%
%TO.N,Net-(Q1-S)*%
X238796512Y-90000000D03*
%TO.P,R4,2*%
%TO.N,Net-(D4-A)*%
X238796512Y-92000000D03*
%TD*%
D31*
%TO.P,R12,1*%
%TO.N,Net-(Q1-S)*%
X186930486Y-62055136D03*
%TO.P,R12,2*%
%TO.N,Net-(D12-A)*%
X188662536Y-61055136D03*
%TD*%
D32*
%TO.P,D12,1,K*%
%TO.N,GND*%
X189262505Y-65340714D03*
D33*
%TO.P,D12,2,A*%
%TO.N,Net-(D12-A)*%
X191492521Y-64053214D03*
%TD*%
D34*
%TO.P,D6,1,K*%
%TO.N,GND*%
X221081160Y-116252239D03*
D35*
%TO.P,D6,2,A*%
%TO.N,Net-(D6-A)*%
X218851144Y-117539739D03*
%TD*%
D36*
%TO.P,R11,1*%
%TO.N,Net-(Q1-S)*%
X174851648Y-74866025D03*
%TO.P,R11,2*%
%TO.N,Net-(D11-A)*%
X175851648Y-73133975D03*
%TD*%
D37*
%TO.P,D8,1,K*%
%TO.N,GND*%
X191081160Y-117302239D03*
D38*
%TO.P,D8,2,A*%
%TO.N,Net-(D8-A)*%
X188851144Y-116014739D03*
%TD*%
D39*
%TO.P,R9,1*%
%TO.N,Net-(Q1-S)*%
X175851648Y-108866025D03*
%TO.P,R9,2*%
%TO.N,Net-(D9-A)*%
X174851648Y-107133975D03*
%TD*%
D13*
%TO.P,D10,1,K*%
%TO.N,GND*%
X175171833Y-91846477D03*
D14*
%TO.P,D10,2,A*%
%TO.N,Net-(D10-A)*%
X175171833Y-89271477D03*
%TD*%
D40*
%TO.P,D9,1,K*%
%TO.N,GND*%
X179716070Y-106705804D03*
D41*
%TO.P,D9,2,A*%
%TO.N,Net-(D9-A)*%
X178428570Y-104475788D03*
%TD*%
D42*
%TO.P,J1,1,Pin_1*%
%TO.N,+5V*%
X202600000Y-116400000D03*
D43*
%TO.P,J1,2,Pin_2*%
%TO.N,/EN*%
X205100000Y-116400000D03*
%TO.P,J1,3,Pin_3*%
%TO.N,GND*%
X207600000Y-116400000D03*
%TD*%
D44*
%TO.N,GND*%
X194000000Y-119000000D03*
X230627595Y-74887150D03*
X216000000Y-63000000D03*
X233500000Y-101500000D03*
X234000000Y-84500000D03*
X200900000Y-61000000D03*
X206221833Y-120796477D03*
X179716070Y-106705804D03*
X198900000Y-61600000D03*
X212800000Y-120400000D03*
X191081160Y-117302239D03*
X196200000Y-119600000D03*
X178666070Y-76705804D03*
X204121833Y-60796477D03*
X177000000Y-80000000D03*
X175800000Y-97500000D03*
X214000000Y-62500000D03*
X176500000Y-82000000D03*
X189262505Y-65340714D03*
X219262506Y-64290714D03*
X234000000Y-99500000D03*
X234500000Y-86500000D03*
X235171833Y-89746477D03*
X221081160Y-116252239D03*
X210800000Y-120800000D03*
X175200000Y-95500000D03*
X175171833Y-91846477D03*
X231677595Y-104887150D03*
D45*
%TO.N,/EN*%
X212480000Y-117400000D03*
D44*
%TO.N,Net-(Q1-S)*%
X173000000Y-79500000D03*
X233000000Y-71000000D03*
X173500000Y-77500000D03*
X184900000Y-63300000D03*
X225000000Y-119000000D03*
X191000000Y-122500000D03*
X238500000Y-85500000D03*
X201000000Y-57000000D03*
X226500000Y-117500000D03*
X171500000Y-97000000D03*
X231500000Y-69500000D03*
X177000000Y-111000000D03*
X210500000Y-124500000D03*
X193000000Y-123000000D03*
X217000000Y-59000000D03*
X183400000Y-64700000D03*
X178500000Y-112500000D03*
X208500000Y-125000000D03*
X171000000Y-95000000D03*
X237000000Y-103000000D03*
X236500000Y-105000000D03*
X219000000Y-59500000D03*
X239000000Y-87500000D03*
X199000000Y-57500000D03*
%TD*%
D46*
%TO.N,Net-(D1-A)*%
X205796512Y-57000000D02*
X206696833Y-57900321D01*
X206696833Y-57900321D02*
X206696833Y-60796477D01*
%TO.N,Net-(D2-A)*%
X222662537Y-63337463D02*
X221492522Y-64507478D01*
X222662537Y-62055136D02*
X222662537Y-63337463D01*
X221492522Y-64507478D02*
X221492522Y-65578214D01*
%TO.N,Net-(D3-A)*%
X234166236Y-74866025D02*
X231915095Y-77117166D01*
X234741375Y-74866025D02*
X234166236Y-74866025D01*
%TO.N,Net-(D4-A)*%
X235493310Y-92000000D02*
X235171833Y-92321477D01*
X238796512Y-92000000D02*
X235493310Y-92000000D01*
%TO.N,Net-(D5-A)*%
X233741375Y-108866025D02*
X232138954Y-108866025D01*
X232138954Y-108866025D02*
X230390095Y-107117166D01*
%TO.N,Net-(D6-A)*%
X220930487Y-119619082D02*
X218851144Y-117539739D01*
X220930487Y-120944863D02*
X220930487Y-119619082D01*
%TO.N,Net-(D7-A)*%
X203796512Y-125000000D02*
X203796512Y-120946156D01*
X203796512Y-120946156D02*
X203646833Y-120796477D01*
%TO.N,Net-(D8-A)*%
X186930487Y-119944863D02*
X186930487Y-117935396D01*
X186930487Y-117935396D02*
X188851144Y-116014739D01*
%TO.N,Net-(D9-A)*%
X175770383Y-107133975D02*
X178428570Y-104475788D01*
X174851648Y-107133975D02*
X175770383Y-107133975D01*
%TO.N,Net-(D10-A)*%
X174443310Y-90000000D02*
X175171833Y-89271477D01*
X170796512Y-90000000D02*
X174443310Y-90000000D01*
%TO.N,Net-(D11-A)*%
X178611757Y-73133975D02*
X179953570Y-74475788D01*
X175851648Y-73133975D02*
X178611757Y-73133975D01*
%TO.N,Net-(D12-A)*%
X188662536Y-61055136D02*
X188662536Y-61223229D01*
X188662536Y-61223229D02*
X191492521Y-64053214D01*
D47*
%TO.N,/EN*%
X205490000Y-114000000D02*
X209900000Y-114000000D01*
X209900000Y-114000000D02*
X210300000Y-114400000D01*
X210300000Y-116900000D02*
X210310000Y-116910000D01*
X210990000Y-117400000D02*
X212480000Y-117400000D01*
X210310000Y-116910000D02*
X210800000Y-117400000D01*
X210300000Y-114400000D02*
X210300000Y-116900000D01*
X205100000Y-116400000D02*
X205100000Y-114390000D01*
X210800000Y-117400000D02*
X210990000Y-117400000D01*
X205100000Y-114390000D02*
X205490000Y-114000000D01*
%TD*%
%TA.AperFunction,Conductor*%
%TO.N,GND*%
G36*
X202426950Y-59218444D02*
G01*
X202476746Y-59267455D01*
X202492139Y-59335608D01*
X202468243Y-59401264D01*
X202467656Y-59402054D01*
X202428482Y-59454384D01*
X202428478Y-59454390D01*
X202378236Y-59589097D01*
X202378234Y-59589104D01*
X202371833Y-59648632D01*
X202371833Y-60296477D01*
X203997833Y-60296477D01*
X204064872Y-60316162D01*
X204110627Y-60368966D01*
X204121833Y-60420477D01*
X204121833Y-60796477D01*
X204497833Y-60796477D01*
X204564872Y-60816162D01*
X204610627Y-60868966D01*
X204621833Y-60920477D01*
X204621833Y-62396477D01*
X205419661Y-62396477D01*
X205419677Y-62396476D01*
X205479205Y-62390075D01*
X205479209Y-62390074D01*
X205602784Y-62343983D01*
X205672476Y-62338999D01*
X205689438Y-62343978D01*
X205814350Y-62390568D01*
X205873960Y-62396977D01*
X207519705Y-62396976D01*
X207579316Y-62390568D01*
X207714164Y-62340273D01*
X207829379Y-62254023D01*
X207915629Y-62138808D01*
X207965924Y-62003960D01*
X207972333Y-61944350D01*
X207972332Y-59648605D01*
X207965924Y-59588994D01*
X207942943Y-59527380D01*
X207915630Y-59454148D01*
X207915628Y-59454145D01*
X207911151Y-59448164D01*
X207892853Y-59423722D01*
X207868436Y-59358259D01*
X207883287Y-59289986D01*
X207932691Y-59240580D01*
X208000964Y-59225727D01*
X208003895Y-59225971D01*
X208326602Y-59256786D01*
X208328537Y-59256986D01*
X208826860Y-59312562D01*
X208828717Y-59312785D01*
X209326110Y-59376261D01*
X209327881Y-59376501D01*
X209824304Y-59447876D01*
X209826216Y-59448167D01*
X210321264Y-59527380D01*
X210323150Y-59527697D01*
X210816997Y-59614775D01*
X210818784Y-59615105D01*
X211311228Y-59710016D01*
X211313041Y-59710381D01*
X211803822Y-59813073D01*
X211805670Y-59813475D01*
X212294749Y-59923938D01*
X212296624Y-59924377D01*
X212783898Y-60042588D01*
X212785800Y-60043065D01*
X213271158Y-60168999D01*
X213272982Y-60169488D01*
X213756216Y-60303087D01*
X213758062Y-60303613D01*
X213800798Y-60316162D01*
X214239134Y-60444869D01*
X214241017Y-60445438D01*
X214719854Y-60594329D01*
X214721551Y-60594872D01*
X215198027Y-60751361D01*
X215199763Y-60751947D01*
X215673677Y-60915971D01*
X215675400Y-60916582D01*
X216146661Y-61088107D01*
X216148352Y-61088738D01*
X216563452Y-61247324D01*
X216616719Y-61267675D01*
X216618551Y-61268391D01*
X217084106Y-61454771D01*
X217085778Y-61455456D01*
X217460837Y-61612557D01*
X217548308Y-61649196D01*
X217550116Y-61649971D01*
X218009342Y-61850949D01*
X218011138Y-61851752D01*
X218462725Y-62057985D01*
X218515529Y-62103740D01*
X218535214Y-62170779D01*
X218515529Y-62237818D01*
X218473086Y-62274594D01*
X218474637Y-62277138D01*
X218467067Y-62281751D01*
X218356195Y-62373295D01*
X218356193Y-62373298D01*
X218320881Y-62421658D01*
X218320871Y-62421672D01*
X217996961Y-62982700D01*
X217996961Y-62982701D01*
X219405119Y-63795701D01*
X219453335Y-63846268D01*
X219466558Y-63914875D01*
X219450506Y-63965088D01*
X219262506Y-64290713D01*
X219262506Y-64290714D01*
X219588131Y-64478714D01*
X219636347Y-64529281D01*
X219649570Y-64597888D01*
X219633518Y-64648101D01*
X218895518Y-65926354D01*
X218895518Y-65926355D01*
X219586450Y-66325265D01*
X219641227Y-66349497D01*
X219641233Y-66349499D01*
X219771295Y-66371370D01*
X219834142Y-66401899D01*
X219846348Y-66414699D01*
X219931224Y-66517496D01*
X219931226Y-66517498D01*
X219979634Y-66552845D01*
X219979649Y-66552855D01*
X220785590Y-67018164D01*
X221404901Y-67375723D01*
X221404903Y-67375724D01*
X221404905Y-67375725D01*
X221420934Y-67382816D01*
X221459729Y-67399979D01*
X221601658Y-67423846D01*
X221744563Y-67406759D01*
X221760399Y-67399978D01*
X221788409Y-67387983D01*
X221876865Y-67350105D01*
X221987846Y-67258470D01*
X222023201Y-67210051D01*
X223171073Y-65221877D01*
X223195329Y-65167049D01*
X223219196Y-65025119D01*
X223219195Y-65025118D01*
X223220392Y-65018006D01*
X223250921Y-64955159D01*
X223310581Y-64918794D01*
X223380431Y-64920457D01*
X223414602Y-64937562D01*
X223665963Y-65116556D01*
X223667557Y-65117709D01*
X224071362Y-65415024D01*
X224072918Y-65416190D01*
X224471890Y-65719823D01*
X224473352Y-65720955D01*
X224867577Y-66030976D01*
X224869008Y-66032121D01*
X225229839Y-66325265D01*
X225258147Y-66348263D01*
X225259642Y-66349497D01*
X225643790Y-66671834D01*
X225645257Y-66673086D01*
X226024149Y-67001399D01*
X226025619Y-67002694D01*
X226034970Y-67011059D01*
X226071811Y-67070426D01*
X226070707Y-67140287D01*
X226032009Y-67198461D01*
X225968003Y-67226478D01*
X225940143Y-67226880D01*
X225729619Y-67206145D01*
X225662143Y-67199500D01*
X225337857Y-67199500D01*
X225265099Y-67206666D01*
X225015142Y-67231284D01*
X225015125Y-67231287D01*
X224697097Y-67294545D01*
X224697086Y-67294548D01*
X224386752Y-67388686D01*
X224087150Y-67512786D01*
X224087145Y-67512788D01*
X223801169Y-67665646D01*
X223801151Y-67665657D01*
X223531532Y-67845811D01*
X223531518Y-67845821D01*
X223280841Y-68051546D01*
X223051546Y-68280841D01*
X222845821Y-68531518D01*
X222845811Y-68531532D01*
X222665657Y-68801151D01*
X222665646Y-68801169D01*
X222512788Y-69087145D01*
X222512786Y-69087150D01*
X222388686Y-69386752D01*
X222294548Y-69697086D01*
X222294545Y-69697097D01*
X222231287Y-70015125D01*
X222231284Y-70015142D01*
X222199500Y-70337860D01*
X222199500Y-70662139D01*
X222231284Y-70984857D01*
X222231287Y-70984874D01*
X222294545Y-71302902D01*
X222294548Y-71302913D01*
X222388686Y-71613247D01*
X222512786Y-71912849D01*
X222512788Y-71912854D01*
X222665646Y-72198830D01*
X222665657Y-72198848D01*
X222845811Y-72468467D01*
X222845821Y-72468481D01*
X223051546Y-72719158D01*
X223280841Y-72948453D01*
X223280846Y-72948457D01*
X223280847Y-72948458D01*
X223531524Y-73154183D01*
X223801158Y-73334347D01*
X223801167Y-73334352D01*
X223801169Y-73334353D01*
X224087145Y-73487211D01*
X224087147Y-73487211D01*
X224087153Y-73487215D01*
X224386754Y-73611314D01*
X224697077Y-73705449D01*
X224697083Y-73705450D01*
X224697086Y-73705451D01*
X224697097Y-73705454D01*
X224896528Y-73745122D01*
X225015132Y-73768714D01*
X225337857Y-73800500D01*
X225337860Y-73800500D01*
X225662140Y-73800500D01*
X225662143Y-73800500D01*
X225984868Y-73768714D01*
X226142295Y-73737399D01*
X226302902Y-73705454D01*
X226302913Y-73705451D01*
X226302913Y-73705450D01*
X226302923Y-73705449D01*
X226613246Y-73611314D01*
X226912847Y-73487215D01*
X227198842Y-73334347D01*
X227468476Y-73154183D01*
X227719153Y-72948458D01*
X227948458Y-72719153D01*
X228154183Y-72468476D01*
X228334347Y-72198842D01*
X228487215Y-71912847D01*
X228611314Y-71613246D01*
X228705449Y-71302923D01*
X228705451Y-71302913D01*
X228705454Y-71302902D01*
X228746128Y-71098417D01*
X228768714Y-70984868D01*
X228800500Y-70662143D01*
X228800500Y-70337857D01*
X228775272Y-70081719D01*
X228788291Y-70013076D01*
X228836356Y-69962366D01*
X228904206Y-69945691D01*
X228970301Y-69968347D01*
X228992388Y-69988365D01*
X229199142Y-70226971D01*
X229200402Y-70228449D01*
X229432729Y-70505325D01*
X229522713Y-70612564D01*
X229523965Y-70614081D01*
X229840064Y-71003166D01*
X229841293Y-71004703D01*
X230151238Y-71398830D01*
X230152442Y-71400387D01*
X230456025Y-71799292D01*
X230457204Y-71800866D01*
X230754519Y-72204671D01*
X230755672Y-72206265D01*
X231006366Y-72558314D01*
X231029219Y-72624341D01*
X231012746Y-72692241D01*
X230962179Y-72740456D01*
X230925922Y-72752524D01*
X230801418Y-72773460D01*
X230746638Y-72797694D01*
X230185608Y-73121604D01*
X230185608Y-73121605D01*
X230998608Y-74529762D01*
X231015081Y-74597662D01*
X230992228Y-74663689D01*
X230953221Y-74699149D01*
X230627595Y-74887149D01*
X230627595Y-74887150D01*
X230815595Y-75212775D01*
X230832068Y-75280675D01*
X230809215Y-75346702D01*
X230770208Y-75382162D01*
X229491954Y-76120162D01*
X229491954Y-76120163D01*
X229890865Y-76811097D01*
X229926188Y-76859471D01*
X229926190Y-76859473D01*
X230027889Y-76943443D01*
X230067052Y-77001305D01*
X230071223Y-77018499D01*
X230093328Y-77149954D01*
X230117587Y-77204791D01*
X230940454Y-78630038D01*
X230940456Y-78630041D01*
X230940458Y-78630044D01*
X230975813Y-78678464D01*
X231086794Y-78770098D01*
X231219096Y-78826753D01*
X231290548Y-78835296D01*
X231361999Y-78843840D01*
X231361999Y-78843839D01*
X231362000Y-78843840D01*
X231481126Y-78823807D01*
X231503925Y-78819974D01*
X231503925Y-78819973D01*
X231503930Y-78819973D01*
X231558758Y-78795718D01*
X233546931Y-77647845D01*
X233595351Y-77612490D01*
X233669857Y-77522253D01*
X233727717Y-77483094D01*
X233797567Y-77481431D01*
X233857227Y-77517796D01*
X233878267Y-77549695D01*
X234020476Y-77861090D01*
X234021279Y-77862886D01*
X234222257Y-78322112D01*
X234223032Y-78323920D01*
X234416741Y-78786375D01*
X234417487Y-78788196D01*
X234603837Y-79253677D01*
X234604553Y-79255509D01*
X234783461Y-79723799D01*
X234784149Y-79725643D01*
X234955622Y-80196762D01*
X234956280Y-80198615D01*
X235120259Y-80672400D01*
X235120888Y-80674265D01*
X235277328Y-81150589D01*
X235277927Y-81152463D01*
X235426790Y-81631211D01*
X235427359Y-81633094D01*
X235568608Y-82114144D01*
X235569147Y-82116036D01*
X235702729Y-82599206D01*
X235703239Y-82601107D01*
X235829161Y-83086422D01*
X235829640Y-83088330D01*
X235947846Y-83575585D01*
X235948294Y-83577500D01*
X236058745Y-84066521D01*
X236059163Y-84068444D01*
X236161835Y-84559128D01*
X236162223Y-84561057D01*
X236257109Y-85053370D01*
X236257466Y-85055305D01*
X236344526Y-85549052D01*
X236344852Y-85550992D01*
X236424058Y-86045995D01*
X236424354Y-86047940D01*
X236495715Y-86544261D01*
X236495979Y-86546211D01*
X236559437Y-87043461D01*
X236559671Y-87045414D01*
X236615240Y-87543680D01*
X236615442Y-87545637D01*
X236650611Y-87913934D01*
X236637389Y-87982541D01*
X236589173Y-88033108D01*
X236521273Y-88049581D01*
X236483841Y-88041903D01*
X236379215Y-88002880D01*
X236379205Y-88002878D01*
X236319677Y-87996477D01*
X235671833Y-87996477D01*
X235671833Y-89622477D01*
X235652148Y-89689516D01*
X235599344Y-89735271D01*
X235547833Y-89746477D01*
X235171833Y-89746477D01*
X235171833Y-90122477D01*
X235152148Y-90189516D01*
X235099344Y-90235271D01*
X235047833Y-90246477D01*
X233571833Y-90246477D01*
X233571833Y-91044321D01*
X233578234Y-91103849D01*
X233578236Y-91103857D01*
X233624325Y-91227429D01*
X233629309Y-91297121D01*
X233624325Y-91314094D01*
X233577742Y-91438991D01*
X233577741Y-91438993D01*
X233571334Y-91498593D01*
X233571333Y-91498612D01*
X233571333Y-93144347D01*
X233571334Y-93144353D01*
X233577741Y-93203960D01*
X233628035Y-93338805D01*
X233628039Y-93338812D01*
X233714285Y-93454021D01*
X233714288Y-93454024D01*
X233829497Y-93540270D01*
X233829504Y-93540274D01*
X233964350Y-93590568D01*
X233964349Y-93590568D01*
X233971277Y-93591312D01*
X234023960Y-93596977D01*
X236319705Y-93596976D01*
X236379316Y-93590568D01*
X236486564Y-93550566D01*
X236556254Y-93545583D01*
X236617577Y-93579068D01*
X236651062Y-93640391D01*
X236653334Y-93678536D01*
X236615442Y-94075352D01*
X236615240Y-94077309D01*
X236559671Y-94575575D01*
X236559437Y-94577528D01*
X236495979Y-95074778D01*
X236495715Y-95076728D01*
X236424354Y-95573049D01*
X236424058Y-95574994D01*
X236344852Y-96069997D01*
X236344526Y-96071937D01*
X236257466Y-96565684D01*
X236257109Y-96567619D01*
X236162223Y-97059932D01*
X236161835Y-97061861D01*
X236059163Y-97552545D01*
X236058745Y-97554468D01*
X235948294Y-98043489D01*
X235947846Y-98045404D01*
X235829640Y-98532659D01*
X235829161Y-98534567D01*
X235703239Y-99019882D01*
X235702729Y-99021783D01*
X235569147Y-99504953D01*
X235568608Y-99506845D01*
X235427359Y-99987895D01*
X235426790Y-99989778D01*
X235277927Y-100468526D01*
X235277328Y-100470400D01*
X235120888Y-100946724D01*
X235120259Y-100948589D01*
X234956280Y-101422374D01*
X234955622Y-101424227D01*
X234784149Y-101895346D01*
X234783461Y-101897190D01*
X234604553Y-102365480D01*
X234603837Y-102367312D01*
X234417487Y-102832793D01*
X234416741Y-102834614D01*
X234223032Y-103297069D01*
X234222257Y-103298877D01*
X234021279Y-103758103D01*
X234020476Y-103759899D01*
X233886280Y-104053748D01*
X233840526Y-104106552D01*
X233773486Y-104126237D01*
X233706447Y-104106553D01*
X233677867Y-104081186D01*
X233595017Y-103980843D01*
X233595010Y-103980837D01*
X233546650Y-103945525D01*
X233546636Y-103945515D01*
X232985607Y-103621605D01*
X232985606Y-103621605D01*
X232172607Y-105029763D01*
X232122040Y-105077979D01*
X232053433Y-105091202D01*
X232003220Y-105075150D01*
X231677595Y-104887150D01*
X231677594Y-104887150D01*
X231489594Y-105212775D01*
X231439027Y-105260991D01*
X231370420Y-105274213D01*
X231320207Y-105258162D01*
X230041953Y-104520162D01*
X230041952Y-104520162D01*
X229643043Y-105211094D01*
X229618811Y-105265871D01*
X229618810Y-105265876D01*
X229596938Y-105395940D01*
X229566408Y-105458787D01*
X229553605Y-105470994D01*
X229450814Y-105555866D01*
X229450810Y-105555870D01*
X229415463Y-105604278D01*
X229415453Y-105604293D01*
X228592583Y-107029549D01*
X228568330Y-107084372D01*
X228568329Y-107084375D01*
X228544463Y-107226300D01*
X228544462Y-107226302D01*
X228561550Y-107369209D01*
X228561551Y-107369212D01*
X228618202Y-107501506D01*
X228709839Y-107612491D01*
X228758249Y-107647839D01*
X228758264Y-107647849D01*
X229713753Y-108199500D01*
X230746432Y-108795717D01*
X230746434Y-108795718D01*
X230746436Y-108795719D01*
X230757689Y-108800697D01*
X230801260Y-108819973D01*
X230943190Y-108843840D01*
X230943190Y-108843839D01*
X230943429Y-108843880D01*
X231006276Y-108874409D01*
X231042641Y-108934069D01*
X231040978Y-109003919D01*
X231023873Y-109038090D01*
X230755672Y-109414724D01*
X230754519Y-109416318D01*
X230457204Y-109820123D01*
X230456025Y-109821697D01*
X230152442Y-110220602D01*
X230151238Y-110222159D01*
X229841293Y-110616286D01*
X229840064Y-110617823D01*
X229523965Y-111006908D01*
X229522713Y-111008425D01*
X229200419Y-111392521D01*
X229199142Y-111394018D01*
X229018213Y-111602821D01*
X228959435Y-111640595D01*
X228889565Y-111640595D01*
X228830787Y-111602821D01*
X228801762Y-111539265D01*
X228800500Y-111521618D01*
X228800500Y-111337860D01*
X228768715Y-111015142D01*
X228768714Y-111015141D01*
X228768714Y-111015132D01*
X228745122Y-110896528D01*
X228705454Y-110697097D01*
X228705451Y-110697086D01*
X228705450Y-110697083D01*
X228705449Y-110697077D01*
X228611314Y-110386754D01*
X228487215Y-110087153D01*
X228482683Y-110078675D01*
X228334353Y-109801169D01*
X228334352Y-109801167D01*
X228334347Y-109801158D01*
X228154183Y-109531524D01*
X227948458Y-109280847D01*
X227948457Y-109280846D01*
X227948453Y-109280841D01*
X227719158Y-109051546D01*
X227468481Y-108845821D01*
X227468480Y-108845820D01*
X227468476Y-108845817D01*
X227198842Y-108665653D01*
X227198837Y-108665650D01*
X227198830Y-108665646D01*
X226912854Y-108512788D01*
X226912849Y-108512786D01*
X226613247Y-108388686D01*
X226302913Y-108294548D01*
X226302902Y-108294545D01*
X225984874Y-108231287D01*
X225984857Y-108231284D01*
X225740812Y-108207248D01*
X225662143Y-108199500D01*
X225337857Y-108199500D01*
X225265099Y-108206666D01*
X225015142Y-108231284D01*
X225015125Y-108231287D01*
X224697097Y-108294545D01*
X224697086Y-108294548D01*
X224386752Y-108388686D01*
X224087150Y-108512786D01*
X224087145Y-108512788D01*
X223801169Y-108665646D01*
X223801151Y-108665657D01*
X223531532Y-108845811D01*
X223531518Y-108845821D01*
X223280841Y-109051546D01*
X223051546Y-109280841D01*
X222845821Y-109531518D01*
X222845811Y-109531532D01*
X222665657Y-109801151D01*
X222665646Y-109801169D01*
X222512788Y-110087145D01*
X222512786Y-110087150D01*
X222388686Y-110386752D01*
X222294548Y-110697086D01*
X222294545Y-110697097D01*
X222231287Y-111015125D01*
X222231284Y-111015142D01*
X222199500Y-111337860D01*
X222199500Y-111662139D01*
X222231284Y-111984857D01*
X222231287Y-111984874D01*
X222294545Y-112302902D01*
X222294548Y-112302913D01*
X222388686Y-112613247D01*
X222512786Y-112912849D01*
X222512788Y-112912854D01*
X222665646Y-113198830D01*
X222665657Y-113198848D01*
X222845811Y-113468467D01*
X222845821Y-113468481D01*
X223051546Y-113719158D01*
X223280841Y-113948453D01*
X223280846Y-113948457D01*
X223280847Y-113948458D01*
X223531524Y-114154183D01*
X223801158Y-114334347D01*
X223801167Y-114334352D01*
X223801169Y-114334353D01*
X224087145Y-114487211D01*
X224087147Y-114487211D01*
X224087153Y-114487215D01*
X224386754Y-114611314D01*
X224697077Y-114705449D01*
X224697083Y-114705450D01*
X224697086Y-114705451D01*
X224697097Y-114705454D01*
X224896528Y-114745122D01*
X225015132Y-114768714D01*
X225337857Y-114800500D01*
X225337860Y-114800500D01*
X225480262Y-114800500D01*
X225547301Y-114820185D01*
X225593056Y-114872989D01*
X225603000Y-114942147D01*
X225573975Y-115005703D01*
X225559967Y-115019490D01*
X225259663Y-115271474D01*
X225258147Y-115272726D01*
X224869062Y-115588825D01*
X224867525Y-115590054D01*
X224473398Y-115899999D01*
X224471841Y-115901203D01*
X224072936Y-116204786D01*
X224071362Y-116205965D01*
X223667557Y-116503280D01*
X223665963Y-116504433D01*
X223413680Y-116684084D01*
X223347654Y-116706937D01*
X223279753Y-116690464D01*
X223231538Y-116639897D01*
X223219357Y-116576701D01*
X223218902Y-116576712D01*
X223218837Y-116574006D01*
X223218314Y-116571290D01*
X223218630Y-116568353D01*
X223218690Y-116567843D01*
X223194849Y-116426062D01*
X223170619Y-116371289D01*
X222846704Y-115810252D01*
X222846703Y-115810252D01*
X221438547Y-116623251D01*
X221370647Y-116639724D01*
X221304620Y-116616871D01*
X221269160Y-116577864D01*
X221081160Y-116252239D01*
X221081159Y-116252239D01*
X220755534Y-116440239D01*
X220687634Y-116456712D01*
X220621607Y-116433859D01*
X220586147Y-116394852D01*
X219848146Y-115116598D01*
X219848145Y-115116598D01*
X219157212Y-115515509D01*
X219108839Y-115550831D01*
X219024866Y-115652534D01*
X218967003Y-115691696D01*
X218949810Y-115695867D01*
X218818355Y-115717972D01*
X218763518Y-115742231D01*
X217338271Y-116565098D01*
X217289846Y-116600456D01*
X217198210Y-116711440D01*
X217141558Y-116843737D01*
X217141556Y-116843741D01*
X217124469Y-116986643D01*
X217124470Y-116986645D01*
X217148335Y-117128569D01*
X217148336Y-117128573D01*
X217148337Y-117128574D01*
X217172497Y-117183188D01*
X217172594Y-117183406D01*
X218320460Y-119171568D01*
X218355819Y-119219995D01*
X218466799Y-119311629D01*
X218466800Y-119311629D01*
X218466801Y-119311630D01*
X218490527Y-119321789D01*
X218504646Y-119333447D01*
X218521421Y-119340789D01*
X218531028Y-119355229D01*
X218544405Y-119366274D01*
X218549980Y-119383715D01*
X218560123Y-119398960D01*
X218560398Y-119416303D01*
X218565680Y-119432826D01*
X218560940Y-119450514D01*
X218561231Y-119468821D01*
X218552086Y-119483558D01*
X218547597Y-119500315D01*
X218534047Y-119512632D01*
X218524394Y-119528191D01*
X218496568Y-119546703D01*
X218495897Y-119547314D01*
X218495009Y-119547741D01*
X218468969Y-119560136D01*
X218467186Y-119560967D01*
X218011138Y-119769237D01*
X218009342Y-119770040D01*
X217550116Y-119971018D01*
X217548308Y-119971793D01*
X217085853Y-120165502D01*
X217084032Y-120166248D01*
X216618551Y-120352598D01*
X216616719Y-120353314D01*
X216148429Y-120532222D01*
X216146585Y-120532910D01*
X215675466Y-120704383D01*
X215673613Y-120705041D01*
X215199828Y-120869020D01*
X215197963Y-120869649D01*
X214721639Y-121026089D01*
X214719765Y-121026688D01*
X214241017Y-121175551D01*
X214239134Y-121176120D01*
X213758084Y-121317369D01*
X213756192Y-121317908D01*
X213273022Y-121451490D01*
X213271121Y-121452000D01*
X212785806Y-121577922D01*
X212783898Y-121578401D01*
X212296643Y-121696607D01*
X212294728Y-121697055D01*
X211805707Y-121807506D01*
X211803784Y-121807924D01*
X211313100Y-121910596D01*
X211311171Y-121910984D01*
X210818858Y-122005870D01*
X210816923Y-122006227D01*
X210323176Y-122093287D01*
X210321236Y-122093613D01*
X209826233Y-122172819D01*
X209824288Y-122173115D01*
X209327967Y-122244476D01*
X209326017Y-122244740D01*
X208828767Y-122308198D01*
X208826814Y-122308432D01*
X208328548Y-122364001D01*
X208326591Y-122364203D01*
X207980631Y-122397239D01*
X207912024Y-122384017D01*
X207861457Y-122335801D01*
X207844984Y-122267901D01*
X207867836Y-122201874D01*
X207869578Y-122199489D01*
X207915185Y-122138566D01*
X207915187Y-122138563D01*
X207965429Y-122003856D01*
X207965431Y-122003849D01*
X207971832Y-121944321D01*
X207971833Y-121944304D01*
X207971833Y-121296477D01*
X206345833Y-121296477D01*
X206278794Y-121276792D01*
X206233039Y-121223988D01*
X206221833Y-121172477D01*
X206221833Y-120796477D01*
X205845833Y-120796477D01*
X205778794Y-120776792D01*
X205733039Y-120723988D01*
X205721833Y-120672477D01*
X205721833Y-120296477D01*
X206721833Y-120296477D01*
X207971833Y-120296477D01*
X207971833Y-119648649D01*
X207971832Y-119648632D01*
X207965431Y-119589104D01*
X207965429Y-119589097D01*
X207915187Y-119454390D01*
X207915183Y-119454383D01*
X207829023Y-119339289D01*
X207829020Y-119339286D01*
X207713926Y-119253126D01*
X207713919Y-119253122D01*
X207579212Y-119202880D01*
X207579205Y-119202878D01*
X207519677Y-119196477D01*
X206721833Y-119196477D01*
X206721833Y-120296477D01*
X205721833Y-120296477D01*
X205721833Y-119196477D01*
X204923988Y-119196477D01*
X204864460Y-119202878D01*
X204864452Y-119202880D01*
X204740879Y-119248970D01*
X204671187Y-119253954D01*
X204654222Y-119248973D01*
X204557997Y-119213083D01*
X204529314Y-119202385D01*
X204469716Y-119195978D01*
X204469714Y-119195977D01*
X204469706Y-119195977D01*
X204469697Y-119195977D01*
X202823962Y-119195977D01*
X202823956Y-119195978D01*
X202764349Y-119202385D01*
X202629504Y-119252679D01*
X202629497Y-119252683D01*
X202514288Y-119338929D01*
X202514285Y-119338932D01*
X202428039Y-119454141D01*
X202428035Y-119454148D01*
X202377741Y-119588994D01*
X202371334Y-119648593D01*
X202371333Y-119648612D01*
X202371333Y-121944347D01*
X202371334Y-121944353D01*
X202377741Y-122003960D01*
X202428035Y-122138805D01*
X202428036Y-122138807D01*
X202428037Y-122138808D01*
X202482677Y-122211798D01*
X202489308Y-122220655D01*
X202495706Y-122237809D01*
X202506563Y-122252555D01*
X202507663Y-122269866D01*
X202513725Y-122286119D01*
X202509832Y-122304011D01*
X202510994Y-122322284D01*
X202502561Y-122337440D01*
X202498874Y-122354392D01*
X202485925Y-122367340D01*
X202477024Y-122383340D01*
X202461735Y-122391531D01*
X202449469Y-122403798D01*
X202431574Y-122407690D01*
X202415437Y-122416337D01*
X202382082Y-122418457D01*
X202381196Y-122418650D01*
X202380214Y-122418576D01*
X202297974Y-122412038D01*
X202296014Y-122411866D01*
X201796876Y-122364203D01*
X201794919Y-122364001D01*
X201296653Y-122308432D01*
X201294700Y-122308198D01*
X200797450Y-122244740D01*
X200795500Y-122244476D01*
X200299179Y-122173115D01*
X200297234Y-122172819D01*
X199802231Y-122093613D01*
X199800291Y-122093287D01*
X199306544Y-122006227D01*
X199304609Y-122005870D01*
X198812296Y-121910984D01*
X198810367Y-121910596D01*
X198319683Y-121807924D01*
X198317760Y-121807506D01*
X197828739Y-121697055D01*
X197826824Y-121696607D01*
X197339569Y-121578401D01*
X197337661Y-121577922D01*
X196852346Y-121452000D01*
X196850445Y-121451490D01*
X196367275Y-121317908D01*
X196365383Y-121317369D01*
X195884333Y-121176120D01*
X195882450Y-121175551D01*
X195403702Y-121026688D01*
X195401828Y-121026089D01*
X194925504Y-120869649D01*
X194923639Y-120869020D01*
X194449854Y-120705041D01*
X194448001Y-120704383D01*
X193976882Y-120532910D01*
X193975038Y-120532222D01*
X193506748Y-120353314D01*
X193504916Y-120352598D01*
X193039435Y-120166248D01*
X193037614Y-120165502D01*
X192575159Y-119971793D01*
X192573351Y-119971018D01*
X192114125Y-119770040D01*
X192112329Y-119769237D01*
X191735615Y-119597198D01*
X191682811Y-119551444D01*
X191663126Y-119484404D01*
X191682810Y-119417365D01*
X191735614Y-119371610D01*
X191738314Y-119370415D01*
X191876602Y-119311198D01*
X191987470Y-119219657D01*
X191987472Y-119219654D01*
X192022784Y-119171294D01*
X192022794Y-119171280D01*
X192346703Y-118610251D01*
X192346703Y-118610250D01*
X190938546Y-117797251D01*
X190890330Y-117746684D01*
X190877107Y-117678077D01*
X190893159Y-117627864D01*
X191081159Y-117302239D01*
X191081159Y-117302238D01*
X190919828Y-117209094D01*
X190764171Y-117119225D01*
X191764173Y-117119225D01*
X191764173Y-117119226D01*
X192846703Y-117744224D01*
X192846704Y-117744224D01*
X193170619Y-117183188D01*
X193194849Y-117128415D01*
X193218690Y-116986633D01*
X193218691Y-116986631D01*
X193201621Y-116843872D01*
X193201619Y-116843868D01*
X193145024Y-116711703D01*
X193053480Y-116600831D01*
X193005107Y-116565509D01*
X192314173Y-116166598D01*
X192314172Y-116166598D01*
X191764173Y-117119225D01*
X190764171Y-117119225D01*
X190755533Y-117114238D01*
X190707317Y-117063671D01*
X190694094Y-116995064D01*
X190710146Y-116944851D01*
X191448146Y-115666597D01*
X191448146Y-115666596D01*
X191376070Y-115624983D01*
X201249500Y-115624983D01*
X201249500Y-117175001D01*
X201249501Y-117175018D01*
X201260000Y-117277796D01*
X201260001Y-117277799D01*
X201305894Y-117416294D01*
X201315186Y-117444334D01*
X201407288Y-117593656D01*
X201531344Y-117717712D01*
X201680666Y-117809814D01*
X201847203Y-117864999D01*
X201949991Y-117875500D01*
X203250008Y-117875499D01*
X203352797Y-117864999D01*
X203519334Y-117809814D01*
X203668656Y-117717712D01*
X203792712Y-117593656D01*
X203884814Y-117444334D01*
X203884814Y-117444331D01*
X203888178Y-117438879D01*
X203940126Y-117392154D01*
X204009088Y-117380931D01*
X204073170Y-117408774D01*
X204081398Y-117416294D01*
X204220213Y-117555109D01*
X204392179Y-117680048D01*
X204392181Y-117680049D01*
X204392184Y-117680051D01*
X204581588Y-117776557D01*
X204783757Y-117842246D01*
X204993713Y-117875500D01*
X204993714Y-117875500D01*
X205206286Y-117875500D01*
X205206287Y-117875500D01*
X205416243Y-117842246D01*
X205618412Y-117776557D01*
X205807816Y-117680051D01*
X205879646Y-117627864D01*
X205979786Y-117555109D01*
X205979788Y-117555106D01*
X205979792Y-117555104D01*
X206130104Y-117404792D01*
X206249991Y-117239779D01*
X206305320Y-117197115D01*
X206374933Y-117191136D01*
X206436729Y-117223741D01*
X206450627Y-117239781D01*
X206570272Y-117404459D01*
X206570276Y-117404464D01*
X206720535Y-117554723D01*
X206720540Y-117554727D01*
X206892442Y-117679620D01*
X207081784Y-117776096D01*
X207099998Y-117782014D01*
X207100000Y-117782013D01*
X208100000Y-117782013D01*
X208100001Y-117782014D01*
X208118215Y-117776096D01*
X208307557Y-117679620D01*
X208479459Y-117554727D01*
X208479464Y-117554723D01*
X208629723Y-117404464D01*
X208629727Y-117404459D01*
X208754620Y-117232557D01*
X208851092Y-117043222D01*
X208897629Y-116900000D01*
X208100000Y-116900000D01*
X208100000Y-117782013D01*
X207100000Y-117782013D01*
X207100000Y-116337465D01*
X207125000Y-116337465D01*
X207125000Y-116462535D01*
X207157370Y-116583343D01*
X207219905Y-116691657D01*
X207308343Y-116780095D01*
X207416657Y-116842630D01*
X207537465Y-116875000D01*
X207662535Y-116875000D01*
X207783343Y-116842630D01*
X207891657Y-116780095D01*
X207980095Y-116691657D01*
X208042630Y-116583343D01*
X208075000Y-116462535D01*
X208075000Y-116337465D01*
X208042630Y-116216657D01*
X207980095Y-116108343D01*
X207891657Y-116019905D01*
X207783343Y-115957370D01*
X207662535Y-115925000D01*
X207537465Y-115925000D01*
X207416657Y-115957370D01*
X207308343Y-116019905D01*
X207219905Y-116108343D01*
X207157370Y-116216657D01*
X207125000Y-116337465D01*
X207100000Y-116337465D01*
X207100000Y-115900000D01*
X208100000Y-115900000D01*
X208897629Y-115900000D01*
X208897628Y-115899999D01*
X208851092Y-115756777D01*
X208754620Y-115567442D01*
X208629727Y-115395540D01*
X208629723Y-115395535D01*
X208479464Y-115245276D01*
X208479459Y-115245272D01*
X208307557Y-115120379D01*
X208118216Y-115023904D01*
X208100000Y-115017984D01*
X208100000Y-115900000D01*
X207100000Y-115900000D01*
X207100000Y-115017985D01*
X207099999Y-115017984D01*
X207081783Y-115023904D01*
X206892442Y-115120379D01*
X206720540Y-115245272D01*
X206720535Y-115245276D01*
X206570276Y-115395535D01*
X206570272Y-115395540D01*
X206453243Y-115556618D01*
X206397913Y-115599284D01*
X206328300Y-115605263D01*
X206266505Y-115572657D01*
X206240254Y-115535514D01*
X206117167Y-115267687D01*
X205914305Y-114826280D01*
X205904197Y-114757147D01*
X205933070Y-114693522D01*
X205991758Y-114655607D01*
X206026977Y-114650500D01*
X209525500Y-114650500D01*
X209592539Y-114670185D01*
X209638294Y-114722989D01*
X209649500Y-114774500D01*
X209649500Y-116964069D01*
X209653990Y-116986643D01*
X209660621Y-117019974D01*
X209660621Y-117019976D01*
X209674497Y-117089736D01*
X209674499Y-117089744D01*
X209713293Y-117183402D01*
X209723535Y-117208127D01*
X209770088Y-117277799D01*
X209794726Y-117314673D01*
X209804719Y-117324665D01*
X209804723Y-117324669D01*
X210385325Y-117905272D01*
X210385331Y-117905277D01*
X210491874Y-117976466D01*
X210561221Y-118005189D01*
X210610256Y-118025501D01*
X210610259Y-118025501D01*
X210610260Y-118025502D01*
X210735928Y-118050500D01*
X210735931Y-118050500D01*
X210925931Y-118050500D01*
X211569078Y-118050500D01*
X211608914Y-118057073D01*
X212180660Y-118251034D01*
X212185079Y-118252533D01*
X212217334Y-118265894D01*
X212237118Y-118269829D01*
X212257897Y-118276145D01*
X212259345Y-118276535D01*
X212259349Y-118276535D01*
X212259350Y-118276536D01*
X212292911Y-118282551D01*
X212344550Y-118291808D01*
X212344550Y-118291807D01*
X212349756Y-118292741D01*
X212357142Y-118293703D01*
X212391309Y-118300500D01*
X212391310Y-118300500D01*
X212568693Y-118300500D01*
X212568694Y-118300499D01*
X212626682Y-118288964D01*
X212742658Y-118265896D01*
X212742661Y-118265894D01*
X212742666Y-118265894D01*
X212906547Y-118198013D01*
X213054035Y-118099464D01*
X213179464Y-117974035D01*
X213278013Y-117826547D01*
X213345894Y-117662666D01*
X213380500Y-117488691D01*
X213380500Y-117311309D01*
X213380500Y-117311306D01*
X213380499Y-117311304D01*
X213345896Y-117137341D01*
X213345893Y-117137332D01*
X213342265Y-117128574D01*
X213326182Y-117089744D01*
X213278016Y-116973459D01*
X213278009Y-116973446D01*
X213179464Y-116825965D01*
X213179461Y-116825961D01*
X213054038Y-116700538D01*
X213054034Y-116700535D01*
X212906553Y-116601990D01*
X212906540Y-116601983D01*
X212742667Y-116534106D01*
X212742658Y-116534103D01*
X212568694Y-116499500D01*
X212568691Y-116499500D01*
X212391309Y-116499500D01*
X212391307Y-116499500D01*
X212217337Y-116534105D01*
X212217335Y-116534105D01*
X212217334Y-116534106D01*
X212210208Y-116537057D01*
X212188839Y-116545907D01*
X212181232Y-116548769D01*
X211608913Y-116742927D01*
X211569076Y-116749500D01*
X211120808Y-116749500D01*
X211091367Y-116740855D01*
X211061381Y-116734332D01*
X211056365Y-116730577D01*
X211053769Y-116729815D01*
X211033127Y-116713181D01*
X210986819Y-116666873D01*
X210953334Y-116605550D01*
X210950500Y-116579192D01*
X210950500Y-114616596D01*
X220714172Y-114616596D01*
X220714172Y-114616597D01*
X221264171Y-115569224D01*
X221264172Y-115569224D01*
X222346703Y-114944226D01*
X222346703Y-114944225D01*
X222022794Y-114383197D01*
X222022784Y-114383183D01*
X221987472Y-114334823D01*
X221987470Y-114334820D01*
X221876601Y-114243279D01*
X221744431Y-114186682D01*
X221601670Y-114169611D01*
X221601668Y-114169612D01*
X221459887Y-114193453D01*
X221459881Y-114193455D01*
X221405104Y-114217687D01*
X220714172Y-114616596D01*
X210950500Y-114616596D01*
X210950500Y-114335928D01*
X210925502Y-114210261D01*
X210925501Y-114210260D01*
X210925501Y-114210256D01*
X210876465Y-114091873D01*
X210876464Y-114091872D01*
X210876460Y-114091864D01*
X210857888Y-114064070D01*
X210857887Y-114064068D01*
X210805277Y-113985331D01*
X210805271Y-113985324D01*
X210314673Y-113494726D01*
X210314669Y-113494723D01*
X210208127Y-113423535D01*
X210089744Y-113374499D01*
X210089738Y-113374497D01*
X209964071Y-113349500D01*
X209964069Y-113349500D01*
X205425931Y-113349500D01*
X205425929Y-113349500D01*
X205300261Y-113374497D01*
X205300255Y-113374499D01*
X205181870Y-113423535D01*
X205075331Y-113494722D01*
X205075324Y-113494728D01*
X204594724Y-113975328D01*
X204535430Y-114064070D01*
X204523535Y-114081871D01*
X204474499Y-114200255D01*
X204474497Y-114200261D01*
X204449500Y-114325928D01*
X204449500Y-114442722D01*
X204438171Y-114494503D01*
X204071790Y-115291712D01*
X204025909Y-115344407D01*
X203958822Y-115363931D01*
X203891830Y-115344086D01*
X203853580Y-115305028D01*
X203845367Y-115291712D01*
X203792712Y-115206344D01*
X203668656Y-115082288D01*
X203519334Y-114990186D01*
X203352797Y-114935001D01*
X203352795Y-114935000D01*
X203250010Y-114924500D01*
X201949998Y-114924500D01*
X201949981Y-114924501D01*
X201847203Y-114935000D01*
X201847200Y-114935001D01*
X201680668Y-114990185D01*
X201680663Y-114990187D01*
X201531342Y-115082289D01*
X201407289Y-115206342D01*
X201315187Y-115355663D01*
X201315186Y-115355666D01*
X201260001Y-115522203D01*
X201260001Y-115522204D01*
X201260000Y-115522204D01*
X201249500Y-115624983D01*
X191376070Y-115624983D01*
X190757215Y-115267687D01*
X190702438Y-115243455D01*
X190702433Y-115243454D01*
X190572370Y-115221582D01*
X190509523Y-115191052D01*
X190497316Y-115178249D01*
X190412443Y-115075458D01*
X190412439Y-115075454D01*
X190364031Y-115040107D01*
X190364016Y-115040097D01*
X188938760Y-114217227D01*
X188883937Y-114192974D01*
X188883934Y-114192973D01*
X188742009Y-114169107D01*
X188742007Y-114169106D01*
X188599100Y-114186194D01*
X188599097Y-114186195D01*
X188466803Y-114242846D01*
X188355818Y-114334483D01*
X188355818Y-114334484D01*
X188320470Y-114382893D01*
X188320460Y-114382908D01*
X187172590Y-116371080D01*
X187148337Y-116425903D01*
X187148336Y-116425906D01*
X187124470Y-116567832D01*
X187124469Y-116567836D01*
X187129302Y-116608253D01*
X187128795Y-116611265D01*
X187129863Y-116614128D01*
X187123038Y-116645501D01*
X187117715Y-116677155D01*
X187115464Y-116680315D01*
X187115011Y-116682401D01*
X187093860Y-116710655D01*
X187023802Y-116780712D01*
X186962478Y-116814196D01*
X186892787Y-116809211D01*
X186864194Y-116794037D01*
X186792420Y-116742927D01*
X186592349Y-116600456D01*
X186457504Y-116504433D01*
X186455910Y-116503280D01*
X186052105Y-116205965D01*
X186050531Y-116204786D01*
X185651626Y-115901203D01*
X185650097Y-115900021D01*
X185255906Y-115590025D01*
X185254443Y-115588855D01*
X184865320Y-115272726D01*
X184863803Y-115271474D01*
X184563500Y-115019490D01*
X184524798Y-114961318D01*
X184523690Y-114891457D01*
X184560527Y-114832087D01*
X184623614Y-114802058D01*
X184643206Y-114800500D01*
X184662140Y-114800500D01*
X184662143Y-114800500D01*
X184984868Y-114768714D01*
X185142295Y-114737399D01*
X185302902Y-114705454D01*
X185302913Y-114705451D01*
X185302913Y-114705450D01*
X185302923Y-114705449D01*
X185613246Y-114611314D01*
X185912847Y-114487215D01*
X186198842Y-114334347D01*
X186468476Y-114154183D01*
X186719153Y-113948458D01*
X186948458Y-113719153D01*
X187154183Y-113468476D01*
X187334347Y-113198842D01*
X187487215Y-112912847D01*
X187611314Y-112613246D01*
X187705449Y-112302923D01*
X187705451Y-112302913D01*
X187705454Y-112302902D01*
X187751875Y-112069524D01*
X187768714Y-111984868D01*
X187800500Y-111662143D01*
X187800500Y-111337857D01*
X187768714Y-111015132D01*
X187745122Y-110896528D01*
X187705454Y-110697097D01*
X187705451Y-110697086D01*
X187705450Y-110697083D01*
X187705449Y-110697077D01*
X187611314Y-110386754D01*
X187487215Y-110087153D01*
X187482683Y-110078675D01*
X187334353Y-109801169D01*
X187334352Y-109801167D01*
X187334347Y-109801158D01*
X187154183Y-109531524D01*
X186948458Y-109280847D01*
X186948457Y-109280846D01*
X186948453Y-109280841D01*
X186719158Y-109051546D01*
X186468481Y-108845821D01*
X186468480Y-108845820D01*
X186468476Y-108845817D01*
X186198842Y-108665653D01*
X186198837Y-108665650D01*
X186198830Y-108665646D01*
X185912854Y-108512788D01*
X185912849Y-108512786D01*
X185613247Y-108388686D01*
X185302913Y-108294548D01*
X185302902Y-108294545D01*
X184984874Y-108231287D01*
X184984857Y-108231284D01*
X184740812Y-108207248D01*
X184662143Y-108199500D01*
X184337857Y-108199500D01*
X184265099Y-108206666D01*
X184015142Y-108231284D01*
X184015125Y-108231287D01*
X183697097Y-108294545D01*
X183697086Y-108294548D01*
X183386752Y-108388686D01*
X183087150Y-108512786D01*
X183087145Y-108512788D01*
X182801169Y-108665646D01*
X182801151Y-108665657D01*
X182531532Y-108845811D01*
X182531518Y-108845821D01*
X182280841Y-109051546D01*
X182051546Y-109280841D01*
X181845821Y-109531518D01*
X181845811Y-109531532D01*
X181665657Y-109801151D01*
X181665646Y-109801169D01*
X181512788Y-110087145D01*
X181512786Y-110087150D01*
X181388686Y-110386752D01*
X181294548Y-110697086D01*
X181294545Y-110697097D01*
X181231287Y-111015125D01*
X181231284Y-111015142D01*
X181199500Y-111337860D01*
X181199500Y-111379129D01*
X181192055Y-111404480D01*
X181188295Y-111430640D01*
X181182365Y-111437483D01*
X181179815Y-111446168D01*
X181159848Y-111463469D01*
X181142540Y-111483444D01*
X181133852Y-111485995D01*
X181127011Y-111491923D01*
X181100856Y-111495683D01*
X181075501Y-111503129D01*
X181066814Y-111500578D01*
X181057853Y-111501867D01*
X181033815Y-111490889D01*
X181008461Y-111483445D01*
X180998372Y-111474703D01*
X180994297Y-111472842D01*
X180981787Y-111460332D01*
X180961988Y-111437483D01*
X180924298Y-111393987D01*
X180923048Y-111392521D01*
X180600754Y-111008425D01*
X180599502Y-111006908D01*
X180283360Y-110617769D01*
X180282215Y-110616338D01*
X179972194Y-110222113D01*
X179971062Y-110220651D01*
X179667429Y-109821679D01*
X179666263Y-109820123D01*
X179652307Y-109801169D01*
X179368948Y-109416318D01*
X179367795Y-109414724D01*
X179077027Y-109006399D01*
X179075900Y-109004790D01*
X179068643Y-108994248D01*
X179046841Y-108927871D01*
X179064386Y-108860240D01*
X179115711Y-108812831D01*
X179184519Y-108800697D01*
X179219590Y-108809944D01*
X179257705Y-108826265D01*
X179257703Y-108826265D01*
X179400462Y-108843335D01*
X179400464Y-108843334D01*
X179542246Y-108819493D01*
X179597019Y-108795263D01*
X180158055Y-108471348D01*
X180158055Y-108471347D01*
X179345056Y-107063191D01*
X179342921Y-107054393D01*
X179337325Y-107047277D01*
X179334813Y-107020971D01*
X179328583Y-106995291D01*
X179331544Y-106986734D01*
X179330684Y-106977724D01*
X179342792Y-106954235D01*
X179351436Y-106929264D01*
X179359398Y-106922025D01*
X179362700Y-106915621D01*
X179390443Y-106893804D01*
X179399084Y-106888815D01*
X180399083Y-106888815D01*
X180399083Y-106888816D01*
X181024081Y-107971347D01*
X181024082Y-107971347D01*
X181585111Y-107647438D01*
X181585125Y-107647428D01*
X181633485Y-107612116D01*
X181633488Y-107612114D01*
X181725029Y-107501245D01*
X181781626Y-107369075D01*
X181798697Y-107226314D01*
X181798696Y-107226312D01*
X181774855Y-107084531D01*
X181774853Y-107084525D01*
X181750621Y-107029748D01*
X181351711Y-106338816D01*
X181351710Y-106338816D01*
X180399083Y-106888815D01*
X179399084Y-106888815D01*
X179554739Y-106798948D01*
X179716069Y-106705804D01*
X179716069Y-106705803D01*
X179528069Y-106380178D01*
X179511596Y-106312278D01*
X179534448Y-106246251D01*
X179573456Y-106210791D01*
X180851709Y-105472790D01*
X180851709Y-105472789D01*
X180452799Y-104781855D01*
X180417476Y-104733482D01*
X180417474Y-104733480D01*
X180315775Y-104649510D01*
X180276612Y-104591647D01*
X180272441Y-104574454D01*
X180263311Y-104520162D01*
X180250335Y-104442995D01*
X180226080Y-104388167D01*
X179701764Y-103480025D01*
X179403210Y-102962915D01*
X179403209Y-102962914D01*
X179403207Y-102962910D01*
X179367852Y-102914490D01*
X179256871Y-102822856D01*
X179256869Y-102822855D01*
X179256868Y-102822854D01*
X179124571Y-102766202D01*
X179124567Y-102766200D01*
X178981665Y-102749113D01*
X178981663Y-102749114D01*
X178839739Y-102772979D01*
X178784902Y-102797238D01*
X176796740Y-103945104D01*
X176748313Y-103980463D01*
X176748313Y-103980464D01*
X176656679Y-104091444D01*
X176656677Y-104091446D01*
X176600026Y-104223741D01*
X176600025Y-104223744D01*
X176593676Y-104276843D01*
X176593474Y-104277313D01*
X176593555Y-104277817D01*
X176579758Y-104309341D01*
X176566171Y-104341071D01*
X176565747Y-104341357D01*
X176565543Y-104341825D01*
X176536901Y-104360881D01*
X176508308Y-104380233D01*
X176507796Y-104380245D01*
X176507371Y-104380528D01*
X176472934Y-104381074D01*
X176438458Y-104381894D01*
X176438021Y-104381627D01*
X176437510Y-104381636D01*
X176408148Y-104363418D01*
X176378798Y-104345528D01*
X176378430Y-104344980D01*
X176378140Y-104344800D01*
X176358590Y-104315415D01*
X176312092Y-104217731D01*
X176311261Y-104215947D01*
X176102991Y-103759899D01*
X176102188Y-103758103D01*
X175901210Y-103298877D01*
X175900435Y-103297069D01*
X175821629Y-103108929D01*
X175706695Y-102834539D01*
X175706010Y-102832867D01*
X175519630Y-102367312D01*
X175518914Y-102365480D01*
X175496490Y-102306786D01*
X175339977Y-101897113D01*
X175339346Y-101895422D01*
X175167821Y-101424161D01*
X175167210Y-101422438D01*
X175003186Y-100948524D01*
X175002600Y-100946788D01*
X174846111Y-100470312D01*
X174845568Y-100468615D01*
X174696677Y-99989778D01*
X174696108Y-99987895D01*
X174554859Y-99506845D01*
X174554320Y-99504953D01*
X174420738Y-99021783D01*
X174420228Y-99019882D01*
X174393533Y-98916998D01*
X174294304Y-98534561D01*
X174293827Y-98532659D01*
X174175621Y-98045404D01*
X174175173Y-98043489D01*
X174064722Y-97554468D01*
X174064304Y-97552545D01*
X173961632Y-97061861D01*
X173961244Y-97059932D01*
X173866344Y-96567545D01*
X173866014Y-96565758D01*
X173778936Y-96071911D01*
X173778615Y-96069997D01*
X173699409Y-95574994D01*
X173699113Y-95573049D01*
X173627740Y-95076642D01*
X173627500Y-95074871D01*
X173564024Y-94577478D01*
X173563796Y-94575575D01*
X173556629Y-94511313D01*
X173508225Y-94077299D01*
X173508025Y-94075352D01*
X173460362Y-93576214D01*
X173460196Y-93574329D01*
X173453196Y-93486277D01*
X173467506Y-93417891D01*
X173516518Y-93368096D01*
X173584670Y-93352703D01*
X173650327Y-93376599D01*
X173676072Y-93402141D01*
X173714645Y-93453667D01*
X173829739Y-93539827D01*
X173829746Y-93539831D01*
X173964453Y-93590073D01*
X173964460Y-93590075D01*
X174023988Y-93596476D01*
X174024005Y-93596477D01*
X174671833Y-93596477D01*
X175671833Y-93596477D01*
X176319661Y-93596477D01*
X176319677Y-93596476D01*
X176379205Y-93590075D01*
X176379212Y-93590073D01*
X176513919Y-93539831D01*
X176513926Y-93539827D01*
X176629020Y-93453667D01*
X176629023Y-93453664D01*
X176715183Y-93338570D01*
X176715187Y-93338563D01*
X176765429Y-93203856D01*
X176765431Y-93203849D01*
X176771832Y-93144321D01*
X176771833Y-93144304D01*
X176771833Y-92346477D01*
X175671833Y-92346477D01*
X175671833Y-93596477D01*
X174671833Y-93596477D01*
X174671833Y-91970477D01*
X174691518Y-91903438D01*
X174744322Y-91857683D01*
X174795833Y-91846477D01*
X175171833Y-91846477D01*
X175171833Y-91470477D01*
X175191518Y-91403438D01*
X175244322Y-91357683D01*
X175295833Y-91346477D01*
X176771833Y-91346477D01*
X176771833Y-91237857D01*
X181199500Y-91237857D01*
X181199500Y-91562143D01*
X181203228Y-91599992D01*
X181231284Y-91884857D01*
X181231287Y-91884874D01*
X181294545Y-92202902D01*
X181294548Y-92202913D01*
X181388686Y-92513247D01*
X181512786Y-92812849D01*
X181512788Y-92812854D01*
X181665646Y-93098830D01*
X181665657Y-93098848D01*
X181845811Y-93368467D01*
X181845821Y-93368481D01*
X182051546Y-93619158D01*
X182280841Y-93848453D01*
X182280846Y-93848457D01*
X182280847Y-93848458D01*
X182531524Y-94054183D01*
X182801158Y-94234347D01*
X182801167Y-94234352D01*
X182801169Y-94234353D01*
X183087145Y-94387211D01*
X183087147Y-94387211D01*
X183087153Y-94387215D01*
X183386754Y-94511314D01*
X183697077Y-94605449D01*
X183697083Y-94605450D01*
X183697086Y-94605451D01*
X183697097Y-94605454D01*
X183896528Y-94645122D01*
X184015132Y-94668714D01*
X184337857Y-94700500D01*
X184337860Y-94700500D01*
X184662140Y-94700500D01*
X184662143Y-94700500D01*
X184984868Y-94668714D01*
X185142295Y-94637399D01*
X185302902Y-94605454D01*
X185302913Y-94605451D01*
X185302913Y-94605450D01*
X185302923Y-94605449D01*
X185613246Y-94511314D01*
X185912847Y-94387215D01*
X186198842Y-94234347D01*
X186468476Y-94054183D01*
X186719153Y-93848458D01*
X186948458Y-93619153D01*
X187154183Y-93368476D01*
X187334347Y-93098842D01*
X187487215Y-92812847D01*
X187611314Y-92513246D01*
X187705449Y-92202923D01*
X187705451Y-92202913D01*
X187705454Y-92202902D01*
X187751685Y-91970477D01*
X187768714Y-91884868D01*
X187800500Y-91562143D01*
X187800500Y-91237857D01*
X187768714Y-90915132D01*
X187719822Y-90669334D01*
X187705454Y-90597097D01*
X187705451Y-90597086D01*
X187705450Y-90597083D01*
X187705449Y-90597077D01*
X187611314Y-90286754D01*
X187487215Y-89987153D01*
X187426409Y-89873394D01*
X187334353Y-89701169D01*
X187334352Y-89701167D01*
X187334347Y-89701158D01*
X187154183Y-89431524D01*
X186948458Y-89180847D01*
X186948457Y-89180846D01*
X186948453Y-89180841D01*
X186719158Y-88951546D01*
X186468481Y-88745821D01*
X186468466Y-88745810D01*
X186463285Y-88742348D01*
X186463284Y-88742347D01*
X186314184Y-88642722D01*
X191299500Y-88642722D01*
X191299500Y-88957277D01*
X191334716Y-89269827D01*
X191334718Y-89269843D01*
X191404710Y-89576499D01*
X191404711Y-89576501D01*
X191508598Y-89873395D01*
X191645072Y-90156786D01*
X191645074Y-90156789D01*
X191812423Y-90423123D01*
X192008539Y-90669044D01*
X192230956Y-90891461D01*
X192476877Y-91087577D01*
X192743211Y-91254926D01*
X193026606Y-91391402D01*
X193323500Y-91495289D01*
X193630160Y-91565282D01*
X193942723Y-91600499D01*
X193942724Y-91600500D01*
X193942727Y-91600500D01*
X194257276Y-91600500D01*
X194257276Y-91600499D01*
X194569840Y-91565282D01*
X194876500Y-91495289D01*
X195173394Y-91391402D01*
X195456789Y-91254926D01*
X195723123Y-91087577D01*
X195969044Y-90891461D01*
X196067038Y-90793466D01*
X196128357Y-90759984D01*
X196198049Y-90764968D01*
X196253983Y-90806839D01*
X196278400Y-90872303D01*
X196278714Y-90881935D01*
X196228479Y-98819399D01*
X196208370Y-98886312D01*
X196155278Y-98931732D01*
X196086058Y-98941238D01*
X196022687Y-98911811D01*
X196016800Y-98906295D01*
X195969043Y-98858538D01*
X195906589Y-98808733D01*
X195723123Y-98662423D01*
X195456789Y-98495074D01*
X195456786Y-98495072D01*
X195173395Y-98358598D01*
X194876501Y-98254711D01*
X194876499Y-98254710D01*
X194569843Y-98184718D01*
X194569827Y-98184716D01*
X194257277Y-98149500D01*
X194257273Y-98149500D01*
X193942727Y-98149500D01*
X193942722Y-98149500D01*
X193630172Y-98184716D01*
X193630156Y-98184718D01*
X193323500Y-98254710D01*
X193323498Y-98254711D01*
X193026604Y-98358598D01*
X192743213Y-98495072D01*
X192476878Y-98662422D01*
X192230956Y-98858538D01*
X192008538Y-99080956D01*
X191812422Y-99326878D01*
X191645072Y-99593213D01*
X191508598Y-99876604D01*
X191404711Y-100173498D01*
X191404710Y-100173500D01*
X191334718Y-100480156D01*
X191334716Y-100480172D01*
X191299500Y-100792722D01*
X191299500Y-101107277D01*
X191334716Y-101419827D01*
X191334718Y-101419843D01*
X191404710Y-101726499D01*
X191404711Y-101726501D01*
X191508598Y-102023395D01*
X191645072Y-102306786D01*
X191645074Y-102306789D01*
X191812423Y-102573123D01*
X191952771Y-102749113D01*
X191996739Y-102804248D01*
X192008539Y-102819044D01*
X192230956Y-103041461D01*
X192476877Y-103237577D01*
X192743211Y-103404926D01*
X193026606Y-103541402D01*
X193323500Y-103645289D01*
X193630160Y-103715282D01*
X193942723Y-103750499D01*
X193942724Y-103750500D01*
X193942727Y-103750500D01*
X194257276Y-103750500D01*
X194257276Y-103750499D01*
X194569840Y-103715282D01*
X194876500Y-103645289D01*
X195173394Y-103541402D01*
X195456789Y-103404926D01*
X195723123Y-103237577D01*
X195969044Y-103041461D01*
X195989649Y-103020855D01*
X196009416Y-103010061D01*
X196026533Y-102995418D01*
X196039489Y-102993638D01*
X196050969Y-102987370D01*
X196073437Y-102988976D01*
X196095753Y-102985912D01*
X196107614Y-102991420D01*
X196120661Y-102992353D01*
X196138695Y-103005853D01*
X196159124Y-103015339D01*
X196166124Y-103026384D01*
X196176596Y-103034223D01*
X196184469Y-103055330D01*
X196196526Y-103074355D01*
X196199416Y-103095405D01*
X196201014Y-103099687D01*
X196201328Y-103109321D01*
X196199975Y-103323148D01*
X196199500Y-103330077D01*
X196199500Y-103397946D01*
X196199498Y-103398730D01*
X196199101Y-103461542D01*
X196199093Y-103462733D01*
X196199327Y-103464609D01*
X196199328Y-103464610D01*
X196199478Y-103465812D01*
X196216059Y-103527696D01*
X196216060Y-103527696D01*
X196216152Y-103528040D01*
X196232395Y-103590230D01*
X196233190Y-103591628D01*
X196233608Y-103593186D01*
X196233611Y-103593192D01*
X196233612Y-103593193D01*
X196265605Y-103648607D01*
X196265604Y-103648607D01*
X196265849Y-103649032D01*
X196297563Y-103704773D01*
X196298694Y-103705919D01*
X196299500Y-103707314D01*
X196299506Y-103707320D01*
X196344639Y-103752453D01*
X196345193Y-103753010D01*
X196390153Y-103798544D01*
X196391686Y-103799735D01*
X196391687Y-103799737D01*
X196392620Y-103800462D01*
X196399058Y-103804179D01*
X196448203Y-103832552D01*
X196448399Y-103832666D01*
X196503866Y-103865160D01*
X196503868Y-103865160D01*
X196503869Y-103865161D01*
X196505479Y-103865840D01*
X196505653Y-103865913D01*
X196506747Y-103866374D01*
X196506813Y-103866391D01*
X196506814Y-103866392D01*
X196568932Y-103883036D01*
X196630942Y-103900073D01*
X196632552Y-103900083D01*
X196634108Y-103900500D01*
X196697944Y-103900500D01*
X196698728Y-103900502D01*
X196699377Y-103900506D01*
X196762723Y-103900907D01*
X196762725Y-103900906D01*
X196766779Y-103900932D01*
X196773709Y-103900500D01*
X212536320Y-103900500D01*
X212538458Y-103901053D01*
X212602159Y-103900500D01*
X212665892Y-103900500D01*
X212666032Y-103900500D01*
X212667590Y-103900281D01*
X212667609Y-103900278D01*
X212670234Y-103899909D01*
X212670237Y-103899909D01*
X212731323Y-103882969D01*
X212732032Y-103882777D01*
X212793186Y-103866392D01*
X212793198Y-103866384D01*
X212795716Y-103865343D01*
X212795719Y-103865342D01*
X212797109Y-103864766D01*
X212797225Y-103864697D01*
X212797230Y-103864696D01*
X212851649Y-103832642D01*
X212852542Y-103832122D01*
X212859336Y-103828200D01*
X212907314Y-103800500D01*
X212907322Y-103800491D01*
X212909511Y-103798812D01*
X212909513Y-103798811D01*
X212909525Y-103798802D01*
X212910691Y-103797906D01*
X212910778Y-103797817D01*
X212910782Y-103797815D01*
X212955428Y-103752385D01*
X213000500Y-103707314D01*
X213001601Y-103705404D01*
X213003152Y-103703827D01*
X213034277Y-103648818D01*
X213034282Y-103648809D01*
X213034522Y-103648385D01*
X213066392Y-103593186D01*
X213066959Y-103591064D01*
X213068048Y-103589141D01*
X213068050Y-103589131D01*
X213068053Y-103589127D01*
X213084022Y-103527389D01*
X213100500Y-103465892D01*
X213100500Y-103463683D01*
X213101054Y-103461542D01*
X213100500Y-103397770D01*
X213100500Y-103334108D01*
X213099928Y-103331974D01*
X213097990Y-103108927D01*
X213117091Y-103041721D01*
X213169496Y-102995509D01*
X213238565Y-102984965D01*
X213302371Y-103013437D01*
X213309666Y-103020171D01*
X213330956Y-103041461D01*
X213576877Y-103237577D01*
X213843211Y-103404926D01*
X214126606Y-103541402D01*
X214423500Y-103645289D01*
X214730160Y-103715282D01*
X215042723Y-103750499D01*
X215042724Y-103750500D01*
X215042727Y-103750500D01*
X215357276Y-103750500D01*
X215357276Y-103750499D01*
X215669840Y-103715282D01*
X215937743Y-103654135D01*
X230541954Y-103654135D01*
X230541954Y-103654136D01*
X231494581Y-104204135D01*
X231494582Y-104204135D01*
X232119580Y-103121605D01*
X232119580Y-103121604D01*
X231558551Y-102797694D01*
X231503771Y-102773460D01*
X231361989Y-102749619D01*
X231361987Y-102749618D01*
X231219228Y-102766688D01*
X231219224Y-102766690D01*
X231087059Y-102823285D01*
X230976187Y-102914829D01*
X230940865Y-102963202D01*
X230541954Y-103654135D01*
X215937743Y-103654135D01*
X215976500Y-103645289D01*
X216273394Y-103541402D01*
X216556789Y-103404926D01*
X216823123Y-103237577D01*
X217069044Y-103041461D01*
X217291461Y-102819044D01*
X217487577Y-102573123D01*
X217654926Y-102306789D01*
X217791402Y-102023394D01*
X217895289Y-101726500D01*
X217965282Y-101419840D01*
X218000500Y-101107273D01*
X218000500Y-100792727D01*
X217965282Y-100480160D01*
X217895289Y-100173500D01*
X217791402Y-99876606D01*
X217654926Y-99593211D01*
X217487577Y-99326877D01*
X217291461Y-99080956D01*
X217069044Y-98858539D01*
X216823123Y-98662423D01*
X216556789Y-98495074D01*
X216556786Y-98495072D01*
X216273395Y-98358598D01*
X215976501Y-98254711D01*
X215976499Y-98254710D01*
X215669843Y-98184718D01*
X215669827Y-98184716D01*
X215357277Y-98149500D01*
X215357273Y-98149500D01*
X215042727Y-98149500D01*
X215042722Y-98149500D01*
X214730172Y-98184716D01*
X214730156Y-98184718D01*
X214423500Y-98254710D01*
X214423498Y-98254711D01*
X214126604Y-98358598D01*
X213843213Y-98495072D01*
X213576878Y-98662422D01*
X213330961Y-98858534D01*
X213272497Y-98916998D01*
X213211173Y-98950482D01*
X213141481Y-98945497D01*
X213085548Y-98903626D01*
X213061132Y-98838161D01*
X213060821Y-98830411D01*
X212991953Y-90902889D01*
X213011054Y-90835684D01*
X213063459Y-90789472D01*
X213132528Y-90778928D01*
X213196334Y-90807400D01*
X213203629Y-90814134D01*
X213330956Y-90941461D01*
X213576877Y-91137577D01*
X213841970Y-91304146D01*
X213843213Y-91304927D01*
X213896661Y-91330666D01*
X214126606Y-91441402D01*
X214423500Y-91545289D01*
X214730160Y-91615282D01*
X215042723Y-91650499D01*
X215042724Y-91650500D01*
X215042727Y-91650500D01*
X215357276Y-91650500D01*
X215357276Y-91650499D01*
X215669840Y-91615282D01*
X215976500Y-91545289D01*
X216273394Y-91441402D01*
X216556789Y-91304926D01*
X216663529Y-91237857D01*
X221199500Y-91237857D01*
X221199500Y-91562143D01*
X221203228Y-91599992D01*
X221231284Y-91884857D01*
X221231287Y-91884874D01*
X221294545Y-92202902D01*
X221294548Y-92202913D01*
X221388686Y-92513247D01*
X221512786Y-92812849D01*
X221512788Y-92812854D01*
X221665646Y-93098830D01*
X221665657Y-93098848D01*
X221845811Y-93368467D01*
X221845821Y-93368481D01*
X222051546Y-93619158D01*
X222280841Y-93848453D01*
X222280846Y-93848457D01*
X222280847Y-93848458D01*
X222531524Y-94054183D01*
X222801158Y-94234347D01*
X222801167Y-94234352D01*
X222801169Y-94234353D01*
X223087145Y-94387211D01*
X223087147Y-94387211D01*
X223087153Y-94387215D01*
X223386754Y-94511314D01*
X223697077Y-94605449D01*
X223697083Y-94605450D01*
X223697086Y-94605451D01*
X223697097Y-94605454D01*
X223896528Y-94645122D01*
X224015132Y-94668714D01*
X224337857Y-94700500D01*
X224337860Y-94700500D01*
X224662140Y-94700500D01*
X224662143Y-94700500D01*
X224984868Y-94668714D01*
X225142295Y-94637399D01*
X225302902Y-94605454D01*
X225302913Y-94605451D01*
X225302913Y-94605450D01*
X225302923Y-94605449D01*
X225613246Y-94511314D01*
X225912847Y-94387215D01*
X226198842Y-94234347D01*
X226468476Y-94054183D01*
X226719153Y-93848458D01*
X226948458Y-93619153D01*
X227154183Y-93368476D01*
X227334347Y-93098842D01*
X227487215Y-92812847D01*
X227611314Y-92513246D01*
X227705449Y-92202923D01*
X227705451Y-92202913D01*
X227705454Y-92202902D01*
X227751685Y-91970477D01*
X227768714Y-91884868D01*
X227800500Y-91562143D01*
X227800500Y-91237857D01*
X227768714Y-90915132D01*
X227719822Y-90669334D01*
X227705454Y-90597097D01*
X227705451Y-90597086D01*
X227705450Y-90597083D01*
X227705449Y-90597077D01*
X227611314Y-90286754D01*
X227487215Y-89987153D01*
X227426409Y-89873394D01*
X227334353Y-89701169D01*
X227334352Y-89701167D01*
X227334347Y-89701158D01*
X227154183Y-89431524D01*
X226948458Y-89180847D01*
X226948457Y-89180846D01*
X226948453Y-89180841D01*
X226719158Y-88951546D01*
X226468481Y-88745821D01*
X226468480Y-88745820D01*
X226468476Y-88745817D01*
X226198842Y-88565653D01*
X226178323Y-88554685D01*
X226178322Y-88554684D01*
X225979913Y-88448632D01*
X233571833Y-88448632D01*
X233571833Y-89246477D01*
X234671833Y-89246477D01*
X234671833Y-87996477D01*
X234023988Y-87996477D01*
X233964460Y-88002878D01*
X233964453Y-88002880D01*
X233829746Y-88053122D01*
X233829739Y-88053126D01*
X233714645Y-88139286D01*
X233714642Y-88139289D01*
X233628482Y-88254383D01*
X233628478Y-88254390D01*
X233578236Y-88389097D01*
X233578234Y-88389104D01*
X233571833Y-88448632D01*
X225979913Y-88448632D01*
X225912854Y-88412788D01*
X225912849Y-88412786D01*
X225855410Y-88388994D01*
X225713373Y-88330160D01*
X225613247Y-88288686D01*
X225302913Y-88194548D01*
X225302902Y-88194545D01*
X224984874Y-88131287D01*
X224984857Y-88131284D01*
X224740812Y-88107248D01*
X224662143Y-88099500D01*
X224337857Y-88099500D01*
X224265099Y-88106666D01*
X224015142Y-88131284D01*
X224015125Y-88131287D01*
X223697097Y-88194545D01*
X223697086Y-88194548D01*
X223386752Y-88288686D01*
X223087150Y-88412786D01*
X223087145Y-88412788D01*
X222801169Y-88565646D01*
X222801151Y-88565657D01*
X222531532Y-88745811D01*
X222531518Y-88745821D01*
X222280841Y-88951546D01*
X222051546Y-89180841D01*
X221845821Y-89431518D01*
X221845811Y-89431532D01*
X221665657Y-89701151D01*
X221665646Y-89701169D01*
X221512788Y-89987145D01*
X221512786Y-89987150D01*
X221388686Y-90286752D01*
X221294548Y-90597086D01*
X221294545Y-90597097D01*
X221231287Y-90915125D01*
X221231284Y-90915142D01*
X221214301Y-91087577D01*
X221199500Y-91237857D01*
X216663529Y-91237857D01*
X216823123Y-91137577D01*
X217069044Y-90941461D01*
X217291461Y-90719044D01*
X217487577Y-90473123D01*
X217654926Y-90206789D01*
X217791402Y-89923394D01*
X217895289Y-89626500D01*
X217965282Y-89319840D01*
X218000500Y-89007273D01*
X218000500Y-88692727D01*
X217965282Y-88380160D01*
X217895289Y-88073500D01*
X217791402Y-87776606D01*
X217654926Y-87493211D01*
X217487577Y-87226877D01*
X217291461Y-86980956D01*
X217069044Y-86758539D01*
X216823123Y-86562423D01*
X216611578Y-86429500D01*
X216565288Y-86377166D01*
X216554640Y-86308113D01*
X216583015Y-86244264D01*
X216641404Y-86205892D01*
X216677548Y-86200507D01*
X217196304Y-86200500D01*
X217265892Y-86200500D01*
X217265895Y-86200499D01*
X217265899Y-86200499D01*
X217321630Y-86185565D01*
X217393186Y-86166392D01*
X217393186Y-86166391D01*
X217393189Y-86166391D01*
X217393192Y-86166389D01*
X217393193Y-86166389D01*
X217468546Y-86122882D01*
X217499637Y-86104931D01*
X217503251Y-86103177D01*
X217504227Y-86102534D01*
X217507104Y-86100756D01*
X217508596Y-86099220D01*
X217558309Y-86049505D01*
X217558308Y-86049505D01*
X217558314Y-86049500D01*
X217599254Y-86008559D01*
X217600763Y-86007095D01*
X217602539Y-86004220D01*
X217603181Y-86003245D01*
X217604937Y-85999629D01*
X217622889Y-85968533D01*
X217666392Y-85893186D01*
X217666392Y-85893183D01*
X217666394Y-85893180D01*
X217666395Y-85893179D01*
X217693283Y-85792826D01*
X217699545Y-85769455D01*
X217700443Y-85766465D01*
X217700500Y-85766071D01*
X217700500Y-85765888D01*
X217700501Y-85765885D01*
X217700500Y-85699993D01*
X217700500Y-78734108D01*
X217666392Y-78606814D01*
X217600500Y-78492686D01*
X217507314Y-78399500D01*
X217449597Y-78366177D01*
X217393187Y-78333608D01*
X217322418Y-78314646D01*
X217265892Y-78299500D01*
X192165892Y-78299500D01*
X192034108Y-78299500D01*
X191906812Y-78333608D01*
X191792686Y-78399500D01*
X191792683Y-78399502D01*
X191699502Y-78492683D01*
X191699500Y-78492686D01*
X191633608Y-78606812D01*
X191612563Y-78685354D01*
X191599500Y-78734108D01*
X191599500Y-85734108D01*
X191599500Y-85865892D01*
X191606812Y-85893180D01*
X191633608Y-85993187D01*
X191642503Y-86008593D01*
X191699500Y-86107314D01*
X191792686Y-86200500D01*
X191906814Y-86266392D01*
X192034108Y-86300500D01*
X192388248Y-86300500D01*
X192455287Y-86320185D01*
X192501042Y-86372989D01*
X192510986Y-86442147D01*
X192481961Y-86505703D01*
X192465561Y-86521447D01*
X192230956Y-86708538D01*
X192008538Y-86930956D01*
X191812422Y-87176878D01*
X191645072Y-87443213D01*
X191508598Y-87726604D01*
X191404711Y-88023498D01*
X191404710Y-88023500D01*
X191334718Y-88330156D01*
X191334716Y-88330172D01*
X191299500Y-88642722D01*
X186314184Y-88642722D01*
X186198848Y-88565657D01*
X186198847Y-88565656D01*
X186198842Y-88565653D01*
X186198837Y-88565650D01*
X186198830Y-88565646D01*
X185912854Y-88412788D01*
X185912849Y-88412786D01*
X185855410Y-88388994D01*
X185713373Y-88330160D01*
X185613247Y-88288686D01*
X185302913Y-88194548D01*
X185302902Y-88194545D01*
X184984874Y-88131287D01*
X184984857Y-88131284D01*
X184740812Y-88107248D01*
X184662143Y-88099500D01*
X184337857Y-88099500D01*
X184265099Y-88106666D01*
X184015142Y-88131284D01*
X184015125Y-88131287D01*
X183697097Y-88194545D01*
X183697086Y-88194548D01*
X183386752Y-88288686D01*
X183087150Y-88412786D01*
X183087145Y-88412788D01*
X182801169Y-88565646D01*
X182801151Y-88565657D01*
X182531532Y-88745811D01*
X182531518Y-88745821D01*
X182280841Y-88951546D01*
X182051546Y-89180841D01*
X181845821Y-89431518D01*
X181845811Y-89431532D01*
X181665657Y-89701151D01*
X181665646Y-89701169D01*
X181512788Y-89987145D01*
X181512786Y-89987150D01*
X181388686Y-90286752D01*
X181294548Y-90597086D01*
X181294545Y-90597097D01*
X181231287Y-90915125D01*
X181231284Y-90915142D01*
X181214301Y-91087577D01*
X181199500Y-91237857D01*
X176771833Y-91237857D01*
X176771833Y-90548649D01*
X176771832Y-90548632D01*
X176765431Y-90489104D01*
X176765430Y-90489100D01*
X176719339Y-90365526D01*
X176714355Y-90295834D01*
X176719334Y-90278871D01*
X176765924Y-90153960D01*
X176772333Y-90094350D01*
X176772332Y-88448605D01*
X176765924Y-88388994D01*
X176743980Y-88330160D01*
X176715630Y-88254148D01*
X176715626Y-88254141D01*
X176629380Y-88138932D01*
X176629377Y-88138929D01*
X176514168Y-88052683D01*
X176514161Y-88052679D01*
X176379315Y-88002385D01*
X176379316Y-88002385D01*
X176319716Y-87995978D01*
X176319714Y-87995977D01*
X176319706Y-87995977D01*
X176319697Y-87995977D01*
X174023962Y-87995977D01*
X174023956Y-87995978D01*
X173964349Y-88002385D01*
X173829504Y-88052679D01*
X173829497Y-88052683D01*
X173714288Y-88138929D01*
X173714287Y-88138930D01*
X173678639Y-88186549D01*
X173678231Y-88186854D01*
X173678049Y-88187331D01*
X173650297Y-88207764D01*
X173622705Y-88228419D01*
X173622195Y-88228455D01*
X173621785Y-88228758D01*
X173587436Y-88230940D01*
X173553013Y-88233402D01*
X173552563Y-88233156D01*
X173552056Y-88233189D01*
X173521967Y-88216448D01*
X173491691Y-88199915D01*
X173491446Y-88199467D01*
X173491000Y-88199219D01*
X173474728Y-88168848D01*
X173458207Y-88138591D01*
X173458162Y-88137929D01*
X173458003Y-88137632D01*
X173455764Y-88102413D01*
X173460197Y-88046649D01*
X173460362Y-88044775D01*
X173508025Y-87545637D01*
X173508227Y-87543680D01*
X173563803Y-87045354D01*
X173564022Y-87043526D01*
X173627502Y-86546101D01*
X173627738Y-86544363D01*
X173699118Y-86047906D01*
X173699409Y-86045995D01*
X173705394Y-86008593D01*
X173778623Y-85550943D01*
X173778941Y-85549052D01*
X173866018Y-85055208D01*
X173866340Y-85053466D01*
X173961260Y-84560976D01*
X173961614Y-84559212D01*
X174064318Y-84068379D01*
X174064708Y-84066584D01*
X174175184Y-83577450D01*
X174175621Y-83575585D01*
X174293827Y-83088330D01*
X174294306Y-83086422D01*
X174420245Y-82601040D01*
X174420718Y-82599279D01*
X174554336Y-82115978D01*
X174554859Y-82114144D01*
X174696108Y-81633094D01*
X174696677Y-81631211D01*
X174845580Y-81152337D01*
X174846099Y-81150713D01*
X175002613Y-80674162D01*
X175003173Y-80672503D01*
X175167223Y-80198511D01*
X175167807Y-80196868D01*
X175339361Y-79725526D01*
X175339961Y-79723918D01*
X175518927Y-79255475D01*
X175519630Y-79253677D01*
X175706027Y-78788078D01*
X175706676Y-78786494D01*
X175838682Y-78471347D01*
X178224083Y-78471347D01*
X178224083Y-78471348D01*
X178785120Y-78795263D01*
X178839893Y-78819493D01*
X178981675Y-78843334D01*
X178981677Y-78843335D01*
X179124436Y-78826265D01*
X179124440Y-78826263D01*
X179256605Y-78769668D01*
X179367477Y-78678124D01*
X179402799Y-78629752D01*
X179801709Y-77938817D01*
X179801709Y-77938816D01*
X178849082Y-77388817D01*
X178849081Y-77388817D01*
X178224083Y-78471347D01*
X175838682Y-78471347D01*
X175900446Y-78323893D01*
X175901210Y-78322112D01*
X176102188Y-77862886D01*
X176102991Y-77861090D01*
X176216694Y-77612116D01*
X176311272Y-77405017D01*
X176312060Y-77403326D01*
X176361673Y-77299097D01*
X176408259Y-77247028D01*
X176475602Y-77228410D01*
X176542321Y-77249155D01*
X176587232Y-77302679D01*
X176596758Y-77337672D01*
X176600513Y-77369075D01*
X176657110Y-77501245D01*
X176748651Y-77612114D01*
X176748654Y-77612116D01*
X176797014Y-77647428D01*
X176797028Y-77647438D01*
X177358056Y-77971347D01*
X177358057Y-77971347D01*
X178171057Y-76563190D01*
X178221624Y-76514974D01*
X178290231Y-76501751D01*
X178340444Y-76517803D01*
X178666069Y-76705803D01*
X178666070Y-76705803D01*
X178854070Y-76380177D01*
X178904637Y-76331962D01*
X178973244Y-76318738D01*
X179023457Y-76334790D01*
X180301710Y-77072790D01*
X180301711Y-77072790D01*
X180700621Y-76381859D01*
X180724853Y-76327082D01*
X180724854Y-76327076D01*
X180746726Y-76197014D01*
X180777255Y-76134167D01*
X180790055Y-76121962D01*
X180892852Y-76037086D01*
X180928207Y-75988667D01*
X181751079Y-74563409D01*
X181775335Y-74508581D01*
X181799202Y-74366652D01*
X181799200Y-74366639D01*
X228544967Y-74366639D01*
X228544968Y-74366641D01*
X228568809Y-74508422D01*
X228568811Y-74508428D01*
X228593043Y-74563205D01*
X228991952Y-75254136D01*
X228991953Y-75254136D01*
X229944580Y-74704137D01*
X229944580Y-74704136D01*
X229319582Y-73621605D01*
X229319581Y-73621605D01*
X228758553Y-73945515D01*
X228758539Y-73945525D01*
X228710179Y-73980837D01*
X228710176Y-73980839D01*
X228618635Y-74091708D01*
X228562038Y-74223878D01*
X228544967Y-74366639D01*
X181799200Y-74366639D01*
X181788966Y-74281042D01*
X181782115Y-74223747D01*
X181782114Y-74223744D01*
X181782113Y-74223741D01*
X181725462Y-74091447D01*
X181725461Y-74091446D01*
X181725461Y-74091445D01*
X181634136Y-73980839D01*
X181633825Y-73980462D01*
X181585415Y-73945114D01*
X181585400Y-73945104D01*
X179597228Y-72797234D01*
X179542405Y-72772981D01*
X179542402Y-72772980D01*
X179400476Y-72749114D01*
X179400471Y-72749113D01*
X179360053Y-72753946D01*
X179357041Y-72753439D01*
X179354180Y-72754507D01*
X179322813Y-72747683D01*
X179291151Y-72742359D01*
X179287990Y-72740108D01*
X179285907Y-72739655D01*
X179257653Y-72718504D01*
X179231390Y-72692241D01*
X179183100Y-72643950D01*
X179149616Y-72582629D01*
X179154600Y-72512937D01*
X179169772Y-72484349D01*
X179367832Y-72206213D01*
X179368915Y-72204716D01*
X179666318Y-71800791D01*
X179667381Y-71799372D01*
X179971111Y-71400275D01*
X179972147Y-71398935D01*
X180282263Y-71004591D01*
X180283309Y-71003282D01*
X180599558Y-70614012D01*
X180600700Y-70612629D01*
X180923125Y-70228377D01*
X180924244Y-70227065D01*
X180991778Y-70149127D01*
X181050556Y-70111354D01*
X181120425Y-70111354D01*
X181179203Y-70149129D01*
X181208228Y-70212685D01*
X181208893Y-70242484D01*
X181199500Y-70337859D01*
X181199500Y-70662139D01*
X181231284Y-70984857D01*
X181231287Y-70984874D01*
X181294545Y-71302902D01*
X181294548Y-71302913D01*
X181388686Y-71613247D01*
X181512786Y-71912849D01*
X181512788Y-71912854D01*
X181665646Y-72198830D01*
X181665657Y-72198848D01*
X181845811Y-72468467D01*
X181845821Y-72468481D01*
X182051546Y-72719158D01*
X182280841Y-72948453D01*
X182280846Y-72948457D01*
X182280847Y-72948458D01*
X182531524Y-73154183D01*
X182801158Y-73334347D01*
X182801167Y-73334352D01*
X182801169Y-73334353D01*
X183087145Y-73487211D01*
X183087147Y-73487211D01*
X183087153Y-73487215D01*
X183386754Y-73611314D01*
X183697077Y-73705449D01*
X183697083Y-73705450D01*
X183697086Y-73705451D01*
X183697097Y-73705454D01*
X183896528Y-73745122D01*
X184015132Y-73768714D01*
X184337857Y-73800500D01*
X184337860Y-73800500D01*
X184662140Y-73800500D01*
X184662143Y-73800500D01*
X184984868Y-73768714D01*
X185142295Y-73737399D01*
X185302902Y-73705454D01*
X185302913Y-73705451D01*
X185302913Y-73705450D01*
X185302923Y-73705449D01*
X185613246Y-73611314D01*
X185912847Y-73487215D01*
X186198842Y-73334347D01*
X186468476Y-73154183D01*
X186719153Y-72948458D01*
X186948458Y-72719153D01*
X187154183Y-72468476D01*
X187334347Y-72198842D01*
X187487215Y-71912847D01*
X187611314Y-71613246D01*
X187705449Y-71302923D01*
X187705451Y-71302913D01*
X187705454Y-71302902D01*
X187746128Y-71098417D01*
X187768714Y-70984868D01*
X187800500Y-70662143D01*
X187800500Y-70337857D01*
X187768714Y-70015132D01*
X187724495Y-69792826D01*
X187705454Y-69697097D01*
X187705451Y-69697086D01*
X187705450Y-69697083D01*
X187705449Y-69697077D01*
X187611314Y-69386754D01*
X187487215Y-69087153D01*
X187451307Y-69019975D01*
X187334353Y-68801169D01*
X187334352Y-68801167D01*
X187334347Y-68801158D01*
X187154183Y-68531524D01*
X186948458Y-68280847D01*
X186948457Y-68280846D01*
X186948453Y-68280841D01*
X186719158Y-68051546D01*
X186468481Y-67845821D01*
X186468480Y-67845820D01*
X186468476Y-67845817D01*
X186198842Y-67665653D01*
X186198837Y-67665650D01*
X186198830Y-67665646D01*
X185912854Y-67512788D01*
X185912849Y-67512786D01*
X185613247Y-67388686D01*
X185302913Y-67294548D01*
X185302902Y-67294545D01*
X184984874Y-67231287D01*
X184984857Y-67231284D01*
X184740812Y-67207248D01*
X184662143Y-67199500D01*
X184337857Y-67199500D01*
X184307190Y-67202520D01*
X184198814Y-67213194D01*
X184130168Y-67200175D01*
X184079458Y-67152110D01*
X184062784Y-67084259D01*
X184085440Y-67018164D01*
X184105453Y-66996082D01*
X184478304Y-66673005D01*
X184479616Y-66671886D01*
X184507218Y-66648725D01*
X187996960Y-66648725D01*
X187996960Y-66648726D01*
X188320870Y-67209755D01*
X188320880Y-67209769D01*
X188356192Y-67258129D01*
X188356194Y-67258132D01*
X188467063Y-67349673D01*
X188599233Y-67406270D01*
X188741994Y-67423341D01*
X188741996Y-67423340D01*
X188883777Y-67399499D01*
X188883783Y-67399497D01*
X188938560Y-67375265D01*
X189629491Y-66976355D01*
X189629491Y-66976354D01*
X189079492Y-66023727D01*
X189079491Y-66023727D01*
X187996960Y-66648725D01*
X184507218Y-66648725D01*
X184863868Y-66349461D01*
X184865251Y-66348319D01*
X185254521Y-66032070D01*
X185255830Y-66031024D01*
X185650174Y-65720908D01*
X185651514Y-65719872D01*
X186050611Y-65416142D01*
X186052030Y-65415079D01*
X186455955Y-65117676D01*
X186457452Y-65116593D01*
X186865908Y-64825732D01*
X186867362Y-64824713D01*
X186948179Y-64769075D01*
X187014557Y-64747275D01*
X187082187Y-64764823D01*
X187129594Y-64816149D01*
X187141727Y-64884957D01*
X187141614Y-64885934D01*
X187124973Y-65025105D01*
X187124974Y-65025108D01*
X187148815Y-65166890D01*
X187173049Y-65221670D01*
X187173048Y-65221670D01*
X187496959Y-65782699D01*
X187496960Y-65782699D01*
X188905117Y-64969700D01*
X188973017Y-64953227D01*
X189039044Y-64976080D01*
X189074504Y-65015087D01*
X189262504Y-65340713D01*
X189262505Y-65340713D01*
X189588130Y-65152713D01*
X189656030Y-65136240D01*
X189722057Y-65159092D01*
X189757517Y-65198100D01*
X190495517Y-66476353D01*
X190495518Y-66476353D01*
X191186453Y-66077443D01*
X191234826Y-66042120D01*
X191234828Y-66042118D01*
X191318799Y-65940419D01*
X191376662Y-65901256D01*
X191393850Y-65897086D01*
X191484996Y-65881759D01*
X191525309Y-65874980D01*
X191525309Y-65874979D01*
X191525314Y-65874979D01*
X191580142Y-65850724D01*
X193005399Y-65027851D01*
X193053819Y-64992496D01*
X193145453Y-64881515D01*
X193202108Y-64749213D01*
X193219194Y-64606321D01*
X217124974Y-64606321D01*
X217142044Y-64749080D01*
X217142046Y-64749084D01*
X217198641Y-64881249D01*
X217290185Y-64992121D01*
X217338557Y-65027443D01*
X218029491Y-65426353D01*
X218029492Y-65426353D01*
X218579491Y-64473726D01*
X218579491Y-64473725D01*
X217496961Y-63848727D01*
X217496960Y-63848727D01*
X217173050Y-64409757D01*
X217148816Y-64464537D01*
X217124975Y-64606319D01*
X217124974Y-64606321D01*
X193219194Y-64606321D01*
X193219195Y-64606309D01*
X193195328Y-64464379D01*
X193171073Y-64409551D01*
X192903659Y-63946377D01*
X192023204Y-62421384D01*
X192021122Y-62418533D01*
X192005017Y-62396476D01*
X191987845Y-62372957D01*
X191876864Y-62281323D01*
X191770612Y-62235823D01*
X191716734Y-62191338D01*
X191695460Y-62124786D01*
X191713544Y-62057297D01*
X191765244Y-62010298D01*
X191767914Y-62009041D01*
X191909631Y-61944321D01*
X202371833Y-61944321D01*
X202378234Y-62003849D01*
X202378236Y-62003856D01*
X202428478Y-62138563D01*
X202428482Y-62138570D01*
X202514642Y-62253664D01*
X202514645Y-62253667D01*
X202629739Y-62339827D01*
X202629746Y-62339831D01*
X202764453Y-62390073D01*
X202764460Y-62390075D01*
X202823988Y-62396476D01*
X202824005Y-62396477D01*
X203621833Y-62396477D01*
X203621833Y-61296477D01*
X202371833Y-61296477D01*
X202371833Y-61944321D01*
X191909631Y-61944321D01*
X192112329Y-61851752D01*
X192114092Y-61850963D01*
X192573380Y-61649958D01*
X192575132Y-61649207D01*
X193037733Y-61455437D01*
X193039317Y-61454788D01*
X193504947Y-61268378D01*
X193506714Y-61267688D01*
X193975157Y-61088722D01*
X193976765Y-61088122D01*
X194448107Y-60916568D01*
X194449750Y-60915984D01*
X194923742Y-60751934D01*
X194925401Y-60751374D01*
X195401952Y-60594860D01*
X195403576Y-60594341D01*
X195882470Y-60445431D01*
X195884312Y-60444875D01*
X196365438Y-60303604D01*
X196367217Y-60303097D01*
X196850518Y-60169479D01*
X196852279Y-60169006D01*
X197337697Y-60043057D01*
X197339534Y-60042596D01*
X197826870Y-59924371D01*
X197828689Y-59923945D01*
X198317823Y-59813469D01*
X198319618Y-59813079D01*
X198810451Y-59710375D01*
X198812215Y-59710021D01*
X199304705Y-59615101D01*
X199306447Y-59614779D01*
X199800338Y-59527694D01*
X199802182Y-59527384D01*
X200297271Y-59448164D01*
X200299145Y-59447879D01*
X200795602Y-59376499D01*
X200797340Y-59376263D01*
X201294765Y-59312783D01*
X201296593Y-59312564D01*
X201794942Y-59256985D01*
X201796876Y-59256786D01*
X202296014Y-59209123D01*
X202297878Y-59208959D01*
X202358564Y-59204134D01*
X202426950Y-59218444D01*
G37*
%TD.AperFunction*%
%TD*%
%TA.AperFunction,Conductor*%
%TO.N,Net-(D7-A)*%
G36*
X204047142Y-123703427D02*
G01*
X204049583Y-123706999D01*
X204374163Y-124446766D01*
X204374349Y-124455719D01*
X204371467Y-124459988D01*
X203804530Y-124993455D01*
X203796156Y-124996629D01*
X203788494Y-124993455D01*
X203221556Y-124459988D01*
X203217879Y-124451823D01*
X203218860Y-124446766D01*
X203543441Y-123706999D01*
X203549903Y-123700800D01*
X203554155Y-123700000D01*
X204038869Y-123700000D01*
X204047142Y-123703427D01*
G37*
%TD.AperFunction*%
%TD*%
%TA.AperFunction,Conductor*%
%TO.N,Net-(D9-A)*%
G36*
X175929003Y-106618081D02*
G01*
X175934009Y-106621042D01*
X176274946Y-106961979D01*
X176278373Y-106970252D01*
X176274946Y-106978525D01*
X176272788Y-106980227D01*
X175546504Y-107425436D01*
X175537659Y-107426838D01*
X175535806Y-107426226D01*
X174862531Y-107139615D01*
X174856261Y-107133222D01*
X174856349Y-107124267D01*
X174856709Y-107123500D01*
X175218861Y-106421474D01*
X175225698Y-106415695D01*
X175232522Y-106415605D01*
X175929003Y-106618081D01*
G37*
%TD.AperFunction*%
%TD*%
%TA.AperFunction,Conductor*%
%TO.N,Net-(D4-A)*%
G36*
X238256500Y-91425044D02*
G01*
X238789967Y-91991982D01*
X238793141Y-92000356D01*
X238789967Y-92008018D01*
X238256500Y-92574955D01*
X238248335Y-92578632D01*
X238243278Y-92577651D01*
X237503511Y-92253070D01*
X237497312Y-92246608D01*
X237496512Y-92242356D01*
X237496512Y-91757643D01*
X237499939Y-91749370D01*
X237503511Y-91746929D01*
X238243278Y-91422347D01*
X238252231Y-91422162D01*
X238256500Y-91425044D01*
G37*
%TD.AperFunction*%
%TD*%
%TA.AperFunction,Conductor*%
%TO.N,Net-(D8-A)*%
G36*
X187180646Y-118551155D02*
G01*
X187183331Y-118555327D01*
X187527459Y-119474892D01*
X187527149Y-119483842D01*
X187523648Y-119488257D01*
X186935079Y-119942320D01*
X186926435Y-119944660D01*
X186924886Y-119944353D01*
X186341926Y-119787177D01*
X186334830Y-119781714D01*
X186333675Y-119772834D01*
X186333714Y-119772693D01*
X186414235Y-119488257D01*
X186678077Y-118556240D01*
X186683628Y-118549214D01*
X186689335Y-118547728D01*
X187172373Y-118547728D01*
X187180646Y-118551155D01*
G37*
%TD.AperFunction*%
%TD*%
%TA.AperFunction,Conductor*%
%TO.N,Net-(D11-A)*%
G36*
X176023816Y-72537202D02*
G01*
X177240270Y-72881565D01*
X177247297Y-72887116D01*
X177248783Y-72892823D01*
X177248783Y-73375860D01*
X177245356Y-73384133D01*
X177241184Y-73386818D01*
X176321617Y-73730947D01*
X176312667Y-73730637D01*
X176308252Y-73727136D01*
X176045708Y-73386818D01*
X175854189Y-73138565D01*
X175851850Y-73129923D01*
X175852153Y-73128389D01*
X176009333Y-72545412D01*
X176014795Y-72538318D01*
X176023675Y-72537163D01*
X176023816Y-72537202D01*
G37*
%TD.AperFunction*%
%TD*%
%TA.AperFunction,Conductor*%
%TO.N,Net-(D10-A)*%
G36*
X171349745Y-89422348D02*
G01*
X172089513Y-89746929D01*
X172095712Y-89753391D01*
X172096512Y-89757643D01*
X172096512Y-90242356D01*
X172093085Y-90250629D01*
X172089513Y-90253070D01*
X171349745Y-90577651D01*
X171340792Y-90577837D01*
X171336523Y-90574955D01*
X171031344Y-90250629D01*
X170803055Y-90008016D01*
X170799882Y-89999644D01*
X170803055Y-89991983D01*
X171336524Y-89425043D01*
X171344688Y-89421367D01*
X171349745Y-89422348D01*
G37*
%TD.AperFunction*%
%TD*%
%TA.AperFunction,Conductor*%
%TO.N,Net-(D6-A)*%
G36*
X221060039Y-119405165D02*
G01*
X221062847Y-119409684D01*
X221426570Y-120483630D01*
X221521338Y-120763445D01*
X221520746Y-120772380D01*
X221514009Y-120778280D01*
X221513484Y-120778444D01*
X220936714Y-120943985D01*
X220927816Y-120942973D01*
X220926563Y-120942171D01*
X220703268Y-120778280D01*
X220322036Y-120498468D01*
X220317395Y-120490811D01*
X220318583Y-120483633D01*
X220702428Y-119746991D01*
X220704525Y-119744133D01*
X221043494Y-119405164D01*
X221051766Y-119401738D01*
X221060039Y-119405165D01*
G37*
%TD.AperFunction*%
%TD*%
%TA.AperFunction,Conductor*%
%TO.N,Net-(Q1-S)*%
G36*
X204964812Y-54124621D02*
G01*
X205505093Y-54130613D01*
X205506883Y-54130645D01*
X206047151Y-54144626D01*
X206048890Y-54144684D01*
X206588917Y-54166651D01*
X206590656Y-54166735D01*
X207130212Y-54196679D01*
X207131864Y-54196783D01*
X207670973Y-54234704D01*
X207672743Y-54234841D01*
X208211259Y-54280730D01*
X208212839Y-54280876D01*
X208750655Y-54334725D01*
X208752375Y-54334910D01*
X209289265Y-54396694D01*
X209290959Y-54396902D01*
X209826910Y-54466622D01*
X209828586Y-54466853D01*
X210363400Y-54544482D01*
X210365185Y-54544754D01*
X210898726Y-54630270D01*
X210900403Y-54630551D01*
X211432783Y-54723973D01*
X211434381Y-54724265D01*
X211965358Y-54825555D01*
X211966950Y-54825871D01*
X212496338Y-54934992D01*
X212497995Y-54935346D01*
X213025534Y-55052243D01*
X213027254Y-55052636D01*
X213553142Y-55177349D01*
X213554906Y-55177783D01*
X214078744Y-55310220D01*
X214080374Y-55310645D01*
X214602398Y-55450865D01*
X214604002Y-55451309D01*
X215123795Y-55599203D01*
X215125386Y-55599667D01*
X215643042Y-55755261D01*
X215644716Y-55755778D01*
X216159798Y-55918939D01*
X216161504Y-55919493D01*
X216674295Y-56090310D01*
X216675906Y-56090861D01*
X217185980Y-56269192D01*
X217187599Y-56269771D01*
X217695179Y-56455695D01*
X217696754Y-56456286D01*
X218201334Y-56649620D01*
X218202954Y-56650254D01*
X218704683Y-56851051D01*
X218706377Y-56851744D01*
X219205059Y-57059926D01*
X219206596Y-57060581D01*
X219702167Y-57276122D01*
X219703784Y-57276839D01*
X219920651Y-57375000D01*
X220196045Y-57499652D01*
X220197710Y-57500420D01*
X220439460Y-57614179D01*
X220686645Y-57730495D01*
X220688283Y-57731281D01*
X220832768Y-57801898D01*
X221173723Y-57968540D01*
X221175364Y-57969357D01*
X221657312Y-58213801D01*
X221658936Y-58214641D01*
X222116555Y-58455316D01*
X222137087Y-58466114D01*
X222138687Y-58466970D01*
X222613185Y-58725548D01*
X222614735Y-58726408D01*
X223005963Y-58947171D01*
X223085376Y-58991982D01*
X223086826Y-58992814D01*
X223553609Y-59265387D01*
X223555010Y-59266219D01*
X224017650Y-59545625D01*
X224019120Y-59546528D01*
X224477534Y-59832715D01*
X224478999Y-59833644D01*
X224705591Y-59979805D01*
X224933115Y-60126567D01*
X224934648Y-60127572D01*
X225384344Y-60427149D01*
X225385862Y-60428177D01*
X225831092Y-60734376D01*
X225832480Y-60735346D01*
X226247199Y-61029687D01*
X226273165Y-61048116D01*
X226274643Y-61049181D01*
X226710659Y-61368435D01*
X226712033Y-61369456D01*
X227103514Y-61665089D01*
X227143229Y-61695080D01*
X227144684Y-61696196D01*
X227571079Y-62028207D01*
X227572516Y-62029343D01*
X227993817Y-62367508D01*
X227995239Y-62368666D01*
X228411626Y-62713131D01*
X228412982Y-62714269D01*
X228792874Y-63038122D01*
X228824178Y-63064808D01*
X228825564Y-63066008D01*
X229231548Y-63422599D01*
X229232916Y-63423819D01*
X229591591Y-63748375D01*
X229633551Y-63786343D01*
X229634887Y-63787570D01*
X229773589Y-63916858D01*
X230030133Y-64155991D01*
X230031465Y-64157251D01*
X230421205Y-64531460D01*
X230422518Y-64532739D01*
X230806718Y-64912703D01*
X230808012Y-64914002D01*
X231186520Y-65299569D01*
X231187794Y-65300886D01*
X231560592Y-65692042D01*
X231561803Y-65693331D01*
X231928870Y-66090054D01*
X231929996Y-66091290D01*
X232291067Y-66493297D01*
X232292282Y-66494669D01*
X232647375Y-66901972D01*
X232648569Y-66903363D01*
X232997541Y-67315800D01*
X232998715Y-67317208D01*
X233062230Y-67394564D01*
X233232622Y-67602090D01*
X233341584Y-67734797D01*
X233342737Y-67736223D01*
X233679454Y-68158911D01*
X233680527Y-68160278D01*
X234010921Y-68587848D01*
X234011986Y-68589247D01*
X234332666Y-69017175D01*
X234336092Y-69021746D01*
X234337158Y-69023193D01*
X234438990Y-69163353D01*
X234654720Y-69460281D01*
X234655787Y-69461772D01*
X234966896Y-69903567D01*
X234967940Y-69905073D01*
X235272475Y-70351405D01*
X235273497Y-70352927D01*
X235571409Y-70803728D01*
X235572408Y-70805265D01*
X235863593Y-71260371D01*
X235864570Y-71261923D01*
X236149017Y-71721322D01*
X236149970Y-71722887D01*
X236427573Y-72186403D01*
X236428504Y-72187983D01*
X236699247Y-72655591D01*
X236700154Y-72657184D01*
X236963954Y-73128746D01*
X236964837Y-73130352D01*
X237221654Y-73605790D01*
X237222512Y-73607409D01*
X237346686Y-73845646D01*
X237472243Y-74086535D01*
X237473057Y-74088127D01*
X237565169Y-74271411D01*
X237715697Y-74570933D01*
X237716508Y-74572577D01*
X237951952Y-75058852D01*
X237952739Y-75060507D01*
X238181018Y-75550314D01*
X238181780Y-75551982D01*
X238402758Y-76045035D01*
X238403495Y-76046713D01*
X238617147Y-76542948D01*
X238617860Y-76544637D01*
X238824200Y-77044089D01*
X238824887Y-77045789D01*
X239023755Y-77548074D01*
X239024417Y-77549783D01*
X239215915Y-78055154D01*
X239216552Y-78056873D01*
X239400485Y-78564818D01*
X239401097Y-78566546D01*
X239577541Y-79077275D01*
X239578127Y-79079012D01*
X239747003Y-79592293D01*
X239747563Y-79594039D01*
X239908819Y-80109723D01*
X239909353Y-80111476D01*
X240062980Y-80629524D01*
X240063488Y-80631286D01*
X240209428Y-81151511D01*
X240209910Y-81153279D01*
X240348140Y-81675589D01*
X240348596Y-81677365D01*
X240479093Y-82201679D01*
X240479523Y-82203461D01*
X240602270Y-82729709D01*
X240602673Y-82731498D01*
X240717605Y-83259409D01*
X240717981Y-83261203D01*
X240825111Y-83790822D01*
X240825462Y-83792621D01*
X240924753Y-84323778D01*
X240925076Y-84325583D01*
X241016485Y-84858050D01*
X241016782Y-84859858D01*
X241100326Y-85393716D01*
X241100596Y-85395530D01*
X241176234Y-85930533D01*
X241176477Y-85932350D01*
X241244189Y-86468348D01*
X241244406Y-86470168D01*
X241304203Y-87007244D01*
X241304392Y-87009067D01*
X241356235Y-87546900D01*
X241356397Y-87548726D01*
X241400278Y-88087197D01*
X241400414Y-88089026D01*
X241436338Y-88628212D01*
X241436446Y-88630042D01*
X241464391Y-89169634D01*
X241464472Y-89171465D01*
X241484436Y-89711346D01*
X241484491Y-89713179D01*
X241496472Y-90253426D01*
X241496499Y-90255258D01*
X241500494Y-90795560D01*
X241500494Y-90797394D01*
X241496499Y-91337695D01*
X241496472Y-91339527D01*
X241484491Y-91879774D01*
X241484436Y-91881607D01*
X241464472Y-92421488D01*
X241464391Y-92423319D01*
X241436446Y-92962911D01*
X241436338Y-92964741D01*
X241400414Y-93503927D01*
X241400278Y-93505756D01*
X241356397Y-94044227D01*
X241356235Y-94046053D01*
X241304392Y-94583886D01*
X241304203Y-94585709D01*
X241244406Y-95122785D01*
X241244189Y-95124605D01*
X241176477Y-95660603D01*
X241176234Y-95662420D01*
X241100596Y-96197423D01*
X241100326Y-96199237D01*
X241016782Y-96733095D01*
X241016485Y-96734903D01*
X240925076Y-97267370D01*
X240924753Y-97269175D01*
X240825462Y-97800332D01*
X240825111Y-97802131D01*
X240717981Y-98331750D01*
X240717605Y-98333544D01*
X240602673Y-98861455D01*
X240602270Y-98863244D01*
X240479523Y-99389492D01*
X240479093Y-99391274D01*
X240348596Y-99915588D01*
X240348140Y-99917364D01*
X240209910Y-100439674D01*
X240209428Y-100441442D01*
X240063488Y-100961667D01*
X240062980Y-100963429D01*
X239909353Y-101481477D01*
X239908819Y-101483230D01*
X239747563Y-101998914D01*
X239747003Y-102000660D01*
X239578127Y-102513941D01*
X239577541Y-102515678D01*
X239401097Y-103026407D01*
X239400485Y-103028135D01*
X239216552Y-103536080D01*
X239215915Y-103537799D01*
X239024417Y-104043170D01*
X239023755Y-104044879D01*
X238824887Y-104547164D01*
X238824200Y-104548864D01*
X238617860Y-105048316D01*
X238617147Y-105050005D01*
X238403495Y-105546240D01*
X238402758Y-105547918D01*
X238181780Y-106040971D01*
X238181018Y-106042639D01*
X237952739Y-106532446D01*
X237951952Y-106534101D01*
X237716508Y-107020376D01*
X237715697Y-107022020D01*
X237473078Y-107504786D01*
X237472243Y-107506418D01*
X237222513Y-107985543D01*
X237221654Y-107987163D01*
X236964837Y-108462601D01*
X236963954Y-108464207D01*
X236700154Y-108935769D01*
X236699247Y-108937362D01*
X236428504Y-109404970D01*
X236427573Y-109406550D01*
X236149970Y-109870066D01*
X236149017Y-109871631D01*
X235864570Y-110331030D01*
X235863593Y-110332582D01*
X235572408Y-110787688D01*
X235571409Y-110789225D01*
X235273497Y-111240026D01*
X235272475Y-111241548D01*
X234967940Y-111687880D01*
X234966896Y-111689386D01*
X234655787Y-112131181D01*
X234654720Y-112132672D01*
X234337180Y-112569731D01*
X234336092Y-112571207D01*
X234011986Y-113003706D01*
X234010876Y-113005164D01*
X233680586Y-113432600D01*
X233679454Y-113434042D01*
X233342737Y-113856730D01*
X233341584Y-113858156D01*
X232998715Y-114275745D01*
X232997541Y-114277153D01*
X232648569Y-114689590D01*
X232647375Y-114690981D01*
X232292282Y-115098284D01*
X232291067Y-115099656D01*
X231929996Y-115501663D01*
X231928812Y-115502962D01*
X231725846Y-115722327D01*
X231561847Y-115899575D01*
X231560592Y-115900911D01*
X231187794Y-116292067D01*
X231186520Y-116293384D01*
X230808012Y-116678951D01*
X230806718Y-116680250D01*
X230422518Y-117060214D01*
X230421205Y-117061493D01*
X230031465Y-117435702D01*
X230030133Y-117436962D01*
X229634901Y-117805370D01*
X229633551Y-117806610D01*
X229232916Y-118169134D01*
X229231548Y-118170354D01*
X228825564Y-118526945D01*
X228824178Y-118528145D01*
X228413030Y-118878643D01*
X228411626Y-118879822D01*
X227995239Y-119224287D01*
X227993817Y-119225445D01*
X227572516Y-119563610D01*
X227571079Y-119564746D01*
X227144684Y-119896757D01*
X227143229Y-119897873D01*
X226712082Y-120223460D01*
X226710611Y-120224554D01*
X226274652Y-120543765D01*
X226273165Y-120544837D01*
X225832537Y-120857567D01*
X225831034Y-120858617D01*
X225385862Y-121164776D01*
X225384344Y-121165804D01*
X224934648Y-121465381D01*
X224933115Y-121466386D01*
X224479039Y-121759283D01*
X224477491Y-121760265D01*
X224019165Y-122046397D01*
X224017603Y-122047356D01*
X223555068Y-122326699D01*
X223553508Y-122327624D01*
X223086925Y-122600082D01*
X223085376Y-122600971D01*
X222614735Y-122866545D01*
X222613132Y-122867434D01*
X222138703Y-123125974D01*
X222137087Y-123126839D01*
X221658940Y-123378310D01*
X221657312Y-123379152D01*
X221175364Y-123623596D01*
X221173723Y-123624413D01*
X220688298Y-123861665D01*
X220686645Y-123862458D01*
X220197710Y-124092533D01*
X220196045Y-124093301D01*
X219703812Y-124316101D01*
X219702137Y-124316844D01*
X219206671Y-124532340D01*
X219204984Y-124533059D01*
X218706380Y-124741208D01*
X218704683Y-124741902D01*
X218202996Y-124942682D01*
X218201289Y-124943350D01*
X217696829Y-125136638D01*
X217695113Y-125137282D01*
X217187649Y-125323164D01*
X217185923Y-125323781D01*
X216675971Y-125502070D01*
X216674236Y-125502663D01*
X216161522Y-125673454D01*
X216159778Y-125674020D01*
X215644756Y-125837162D01*
X215643005Y-125837703D01*
X215125465Y-125993262D01*
X215123705Y-125993776D01*
X214604085Y-126141621D01*
X214602318Y-126142110D01*
X214080459Y-126282286D01*
X214078685Y-126282748D01*
X213554906Y-126415170D01*
X213553126Y-126415607D01*
X213027285Y-126540309D01*
X213025498Y-126540718D01*
X212498066Y-126657591D01*
X212496273Y-126657975D01*
X211967054Y-126767061D01*
X211965256Y-126767418D01*
X211434482Y-126868669D01*
X211432679Y-126868999D01*
X210900466Y-126962391D01*
X210898658Y-126962694D01*
X210365199Y-127048196D01*
X210363387Y-127048473D01*
X209828656Y-127126090D01*
X209826840Y-127126340D01*
X209291022Y-127196043D01*
X209289202Y-127196266D01*
X208752426Y-127258037D01*
X208750604Y-127258233D01*
X208212960Y-127312065D01*
X208211134Y-127312234D01*
X207672771Y-127358109D01*
X207670944Y-127358251D01*
X207131952Y-127396164D01*
X207130122Y-127396279D01*
X206590705Y-127426215D01*
X206588874Y-127426304D01*
X206048937Y-127448267D01*
X206047105Y-127448328D01*
X205506903Y-127462307D01*
X205505070Y-127462340D01*
X204964857Y-127468331D01*
X204963024Y-127468338D01*
X204422714Y-127466341D01*
X204420881Y-127466321D01*
X203880590Y-127456335D01*
X203878757Y-127456287D01*
X203338810Y-127438319D01*
X203336978Y-127438245D01*
X202797215Y-127412291D01*
X202795385Y-127412189D01*
X202256203Y-127378267D01*
X202254374Y-127378139D01*
X201715609Y-127336237D01*
X201713783Y-127336081D01*
X201175769Y-127286228D01*
X201173944Y-127286045D01*
X200636794Y-127228249D01*
X200634973Y-127228040D01*
X200098579Y-127162291D01*
X200096762Y-127162054D01*
X199561557Y-127088405D01*
X199559742Y-127088142D01*
X199025591Y-127006573D01*
X199023781Y-127006283D01*
X198490891Y-126916826D01*
X198489086Y-126916509D01*
X197957655Y-126819199D01*
X197955854Y-126818856D01*
X197425778Y-126713673D01*
X197423982Y-126713302D01*
X196895686Y-126600328D01*
X196893897Y-126599932D01*
X196367228Y-126479138D01*
X196365444Y-126478715D01*
X196106044Y-126415170D01*
X195840643Y-126350155D01*
X195838874Y-126349707D01*
X195315994Y-126213392D01*
X195314223Y-126212917D01*
X194793444Y-126068895D01*
X194791681Y-126068393D01*
X194273148Y-125916705D01*
X194271393Y-125916178D01*
X193755057Y-125756810D01*
X193753309Y-125756256D01*
X193239488Y-125589306D01*
X193237748Y-125588727D01*
X192726350Y-125414163D01*
X192724620Y-125413558D01*
X192215878Y-125231461D01*
X192214157Y-125230830D01*
X191708223Y-125041255D01*
X191706511Y-125040599D01*
X191203413Y-124843556D01*
X191201711Y-124842875D01*
X190701580Y-124638417D01*
X190699888Y-124637711D01*
X190670062Y-124625000D01*
X190454326Y-124533059D01*
X190202812Y-124425870D01*
X190201131Y-124425139D01*
X189954185Y-124315556D01*
X189707212Y-124205960D01*
X189705597Y-124205229D01*
X189353487Y-124042708D01*
X189214972Y-123978774D01*
X189213313Y-123977993D01*
X188726147Y-123744336D01*
X188724501Y-123743531D01*
X188240814Y-123502684D01*
X188239247Y-123501890D01*
X187759153Y-123253908D01*
X187757537Y-123253058D01*
X187281182Y-122998017D01*
X187279572Y-122997139D01*
X186807010Y-122735066D01*
X186805414Y-122734166D01*
X186336807Y-122465153D01*
X186335224Y-122464228D01*
X185992508Y-122260690D01*
X185870667Y-122188329D01*
X185869144Y-122187409D01*
X185843386Y-122171592D01*
X188387296Y-122171592D01*
X188387296Y-122171593D01*
X188408924Y-122184079D01*
X188408937Y-122184085D01*
X188503129Y-122226352D01*
X188503132Y-122226353D01*
X188674833Y-122261806D01*
X188850084Y-122256708D01*
X189019430Y-122211332D01*
X189173756Y-122128120D01*
X189304727Y-122011567D01*
X189365171Y-121927862D01*
X189427663Y-121819621D01*
X188799796Y-121457123D01*
X188799795Y-121457123D01*
X188387296Y-122171592D01*
X185843386Y-122171592D01*
X185408644Y-121904629D01*
X185407193Y-121903724D01*
X184950886Y-121614142D01*
X184949346Y-121613148D01*
X184497526Y-121316955D01*
X184496000Y-121315939D01*
X184048498Y-121013025D01*
X184046988Y-121011986D01*
X183999143Y-120978558D01*
X183604091Y-120702544D01*
X183602596Y-120701483D01*
X183164291Y-120385503D01*
X183162812Y-120384420D01*
X182729226Y-120061997D01*
X182727763Y-120060892D01*
X182432825Y-119834722D01*
X182298950Y-119732061D01*
X182297665Y-119731061D01*
X181873636Y-119395830D01*
X181872261Y-119394726D01*
X181453448Y-119053436D01*
X181452035Y-119052268D01*
X181038200Y-118704730D01*
X181036805Y-118703540D01*
X180628269Y-118350021D01*
X180626892Y-118348812D01*
X180223549Y-117989224D01*
X180222190Y-117987994D01*
X179824245Y-117622518D01*
X179822904Y-117621268D01*
X179587314Y-117398390D01*
X179430376Y-117249920D01*
X179429084Y-117248680D01*
X179422478Y-117242243D01*
X179042058Y-116871539D01*
X179040784Y-116870279D01*
X178659437Y-116487519D01*
X178658153Y-116486211D01*
X178282506Y-116097856D01*
X178281241Y-116096529D01*
X178234742Y-116047013D01*
X177911334Y-115702618D01*
X177910099Y-115701283D01*
X177857762Y-115643872D01*
X177546061Y-115301952D01*
X177544907Y-115300667D01*
X177186800Y-114895984D01*
X177185671Y-114894690D01*
X176833532Y-114484695D01*
X176832350Y-114483298D01*
X176659929Y-114276438D01*
X176486353Y-114068192D01*
X176485295Y-114066903D01*
X176145480Y-113646739D01*
X176144352Y-113645322D01*
X175810801Y-113220198D01*
X175809680Y-113218748D01*
X175482503Y-112788808D01*
X175481403Y-112787341D01*
X175160551Y-112352521D01*
X175159474Y-112351038D01*
X174982214Y-112103231D01*
X174845115Y-111911568D01*
X174844123Y-111910159D01*
X174536239Y-111466005D01*
X174535224Y-111464517D01*
X174383073Y-111237942D01*
X174233960Y-111015890D01*
X174232957Y-111014370D01*
X174116711Y-110835608D01*
X173938413Y-110561425D01*
X173937522Y-110560033D01*
X173649583Y-110102586D01*
X173648669Y-110101109D01*
X173509629Y-109872798D01*
X173459683Y-109790783D01*
X174999918Y-109790783D01*
X175012410Y-109812420D01*
X175072848Y-109896118D01*
X175072858Y-109896130D01*
X175203823Y-110012679D01*
X175358149Y-110095891D01*
X175527497Y-110141267D01*
X175702750Y-110146366D01*
X175874452Y-110110912D01*
X175874455Y-110110911D01*
X175968634Y-110068650D01*
X175968650Y-110068642D01*
X176076886Y-110006151D01*
X175714388Y-109378285D01*
X175714387Y-109378285D01*
X174999918Y-109790783D01*
X173459683Y-109790783D01*
X173367595Y-109639570D01*
X173366654Y-109637998D01*
X173092486Y-109172445D01*
X173091567Y-109170858D01*
X173062418Y-109119645D01*
X172824287Y-108701257D01*
X172823409Y-108699689D01*
X172810043Y-108675377D01*
X172563073Y-108226140D01*
X172562214Y-108224549D01*
X172551043Y-108203498D01*
X172308926Y-107747238D01*
X172308148Y-107745746D01*
X172061903Y-107264664D01*
X172061083Y-107263031D01*
X171937435Y-107012395D01*
X171822039Y-106778484D01*
X171821240Y-106776834D01*
X171747544Y-106621713D01*
X171589323Y-106288678D01*
X171588621Y-106287172D01*
X171363941Y-105795626D01*
X171363270Y-105794131D01*
X171145890Y-105299338D01*
X171145179Y-105297687D01*
X171128790Y-105258834D01*
X170935167Y-104799805D01*
X170934467Y-104798111D01*
X170899721Y-104712214D01*
X170731824Y-104297146D01*
X170731216Y-104295609D01*
X170535987Y-103791665D01*
X170535338Y-103789951D01*
X170347625Y-103283297D01*
X170347001Y-103281573D01*
X170257023Y-103027233D01*
X170166778Y-102772140D01*
X170166236Y-102770571D01*
X169993519Y-102258398D01*
X169993007Y-102256842D01*
X169827890Y-101742201D01*
X169827354Y-101740485D01*
X169684014Y-101269914D01*
X169669905Y-101223595D01*
X169669393Y-101221867D01*
X169519594Y-100702677D01*
X169519110Y-100700950D01*
X169448375Y-100441442D01*
X169377002Y-100179595D01*
X169376567Y-100177951D01*
X169242169Y-99654508D01*
X169241737Y-99652773D01*
X169115079Y-99127342D01*
X169114714Y-99125777D01*
X168995836Y-98598524D01*
X168995485Y-98596913D01*
X168884428Y-98068024D01*
X168884072Y-98066267D01*
X168780832Y-97535729D01*
X168780543Y-97534184D01*
X168685161Y-97002190D01*
X168684856Y-97000408D01*
X168643806Y-96750213D01*
X168597363Y-96467149D01*
X168597085Y-96465369D01*
X168517488Y-95930896D01*
X168517261Y-95929295D01*
X168445557Y-95393576D01*
X168445336Y-95391824D01*
X168424899Y-95219839D01*
X168381574Y-94855236D01*
X168381375Y-94853442D01*
X168365939Y-94704819D01*
X168325547Y-94315905D01*
X168325376Y-94314116D01*
X168314226Y-94188747D01*
X168277506Y-93775877D01*
X168277375Y-93774261D01*
X168237461Y-93235278D01*
X168237342Y-93233488D01*
X168205402Y-92694001D01*
X168205318Y-92692394D01*
X168192340Y-92399986D01*
X169596513Y-92399986D01*
X169607006Y-92502697D01*
X169662153Y-92669119D01*
X169662155Y-92669124D01*
X169754196Y-92818345D01*
X169878166Y-92942315D01*
X170027387Y-93034356D01*
X170027392Y-93034358D01*
X170193814Y-93089505D01*
X170193821Y-93089506D01*
X170296531Y-93099999D01*
X170421511Y-93099999D01*
X171171512Y-93099999D01*
X171296484Y-93099999D01*
X171296498Y-93099998D01*
X171399209Y-93089505D01*
X171565631Y-93034358D01*
X171565636Y-93034356D01*
X171714857Y-92942315D01*
X171838827Y-92818345D01*
X171930868Y-92669124D01*
X171930870Y-92669119D01*
X171986017Y-92502697D01*
X171986018Y-92502690D01*
X171996511Y-92399986D01*
X171996512Y-92399973D01*
X171996512Y-92375000D01*
X171171512Y-92375000D01*
X171171512Y-93099999D01*
X170421511Y-93099999D01*
X170421512Y-93099998D01*
X170421512Y-92375000D01*
X169596513Y-92375000D01*
X169596513Y-92399986D01*
X168192340Y-92399986D01*
X168181354Y-92152443D01*
X168181289Y-92150668D01*
X168165310Y-91610419D01*
X168165275Y-91608800D01*
X168157284Y-91068305D01*
X168157271Y-91066891D01*
X168156772Y-90796477D01*
X168157271Y-90526060D01*
X168157284Y-90524649D01*
X168165275Y-89984150D01*
X168165310Y-89982537D01*
X168177045Y-89585777D01*
X169096012Y-89585777D01*
X169096012Y-90414208D01*
X169096013Y-90414223D01*
X169106416Y-90546413D01*
X169106417Y-90546420D01*
X169161414Y-90764678D01*
X169161415Y-90764681D01*
X169254503Y-90969622D01*
X169254509Y-90969632D01*
X169382686Y-91154645D01*
X169382690Y-91154650D01*
X169382693Y-91154654D01*
X169541858Y-91313819D01*
X169568012Y-91331939D01*
X169611908Y-91386295D01*
X169619448Y-91455757D01*
X169615102Y-91472869D01*
X169607006Y-91497300D01*
X169607006Y-91497301D01*
X169596512Y-91600013D01*
X169596512Y-91625000D01*
X171996511Y-91625000D01*
X171996511Y-91600028D01*
X171996510Y-91600013D01*
X171985342Y-91490690D01*
X171998112Y-91421997D01*
X172045992Y-91371113D01*
X172058866Y-91364543D01*
X172235034Y-91287248D01*
X172294974Y-91260949D01*
X172344795Y-91250500D01*
X172947333Y-91250500D01*
X173014372Y-91270185D01*
X173060127Y-91322989D01*
X173071333Y-91374500D01*
X173071333Y-92397373D01*
X173051648Y-92464412D01*
X173005616Y-92506822D01*
X172956567Y-92532940D01*
X172956561Y-92532944D01*
X172799908Y-92662758D01*
X172750907Y-92712541D01*
X172644298Y-92840519D01*
X172544924Y-93018049D01*
X172483319Y-93211957D01*
X172469013Y-93280324D01*
X172455337Y-93362554D01*
X172455336Y-93362561D01*
X172451307Y-93545579D01*
X172450858Y-93565962D01*
X172457855Y-93653977D01*
X172458577Y-93662597D01*
X172458736Y-93664413D01*
X172459417Y-93671829D01*
X172495153Y-94046053D01*
X172507078Y-94170933D01*
X172507094Y-94171092D01*
X172507795Y-94178176D01*
X172507981Y-94179985D01*
X172508921Y-94188747D01*
X172564486Y-94686973D01*
X172565433Y-94695168D01*
X172565682Y-94697242D01*
X172566619Y-94704819D01*
X172630080Y-95202090D01*
X172631097Y-95209822D01*
X172631360Y-95211762D01*
X172632461Y-95219646D01*
X172657217Y-95391824D01*
X172703848Y-95716147D01*
X172703854Y-95716185D01*
X172705056Y-95724317D01*
X172705355Y-95726285D01*
X172706558Y-95733992D01*
X172785708Y-96228641D01*
X172786979Y-96236398D01*
X172787290Y-96238253D01*
X172788700Y-96246448D01*
X172875775Y-96740279D01*
X172877220Y-96748291D01*
X172877575Y-96750213D01*
X172879026Y-96757897D01*
X172973893Y-97250112D01*
X172975437Y-97257957D01*
X172975487Y-97258208D01*
X172975875Y-97260137D01*
X172977446Y-97267795D01*
X173080118Y-97758479D01*
X173081749Y-97766122D01*
X173082156Y-97767994D01*
X173082180Y-97768105D01*
X173083936Y-97776031D01*
X173194354Y-98264905D01*
X173196139Y-98272667D01*
X173196574Y-98274528D01*
X173198404Y-98282209D01*
X173198441Y-98282364D01*
X173198464Y-98282458D01*
X173261616Y-98542776D01*
X173316699Y-98769834D01*
X173318477Y-98777039D01*
X173319039Y-98779282D01*
X173320998Y-98786962D01*
X173446991Y-99272548D01*
X173449046Y-99280336D01*
X173449597Y-99282389D01*
X173451604Y-99289756D01*
X173585170Y-99772867D01*
X173587302Y-99780465D01*
X173587826Y-99782303D01*
X173590085Y-99790116D01*
X173731355Y-100271240D01*
X173733583Y-100278720D01*
X173734155Y-100280611D01*
X173736496Y-100288243D01*
X173885410Y-100767156D01*
X173887854Y-100774905D01*
X173888348Y-100776452D01*
X173888442Y-100776744D01*
X173890814Y-100784060D01*
X174043497Y-101248949D01*
X174047346Y-101260667D01*
X174049842Y-101268163D01*
X174050507Y-101270135D01*
X174052930Y-101277224D01*
X174052976Y-101277357D01*
X174052988Y-101277392D01*
X174053039Y-101277540D01*
X174217029Y-101751355D01*
X174219548Y-101758545D01*
X174220145Y-101760230D01*
X174222913Y-101767932D01*
X174222960Y-101768062D01*
X174394457Y-102239247D01*
X174394533Y-102239454D01*
X174397283Y-102246915D01*
X174397850Y-102248437D01*
X174400707Y-102256005D01*
X174579542Y-102724106D01*
X174579595Y-102724243D01*
X174579628Y-102724329D01*
X174582399Y-102731498D01*
X174583025Y-102733100D01*
X174583083Y-102733248D01*
X174586174Y-102741063D01*
X174772533Y-103206566D01*
X174775620Y-103214188D01*
X174776251Y-103215729D01*
X174779207Y-103222863D01*
X174779268Y-103223010D01*
X174884031Y-103473119D01*
X174973021Y-103685572D01*
X174975334Y-103691030D01*
X174976261Y-103693217D01*
X174977036Y-103695025D01*
X174977061Y-103695083D01*
X174977079Y-103695124D01*
X174980141Y-103702194D01*
X175180943Y-104161016D01*
X175181041Y-104161239D01*
X175183307Y-104166363D01*
X175184341Y-104168699D01*
X175184963Y-104170090D01*
X175188394Y-104177685D01*
X175396595Y-104633581D01*
X175398939Y-104638662D01*
X175399794Y-104640515D01*
X175400625Y-104642299D01*
X175400689Y-104642436D01*
X175402842Y-104647007D01*
X175404200Y-104649891D01*
X175450698Y-104747575D01*
X175521438Y-104872377D01*
X175521439Y-104872378D01*
X175541009Y-104901794D01*
X175553252Y-104919747D01*
X175553255Y-104919751D01*
X175553947Y-104920765D01*
X175555192Y-104922210D01*
X175559291Y-104928141D01*
X175621772Y-104999471D01*
X175686759Y-105074884D01*
X175686764Y-105074888D01*
X175688848Y-105076862D01*
X175690039Y-105078100D01*
X175693343Y-105081179D01*
X175693345Y-105081181D01*
X175785544Y-105151089D01*
X175795918Y-105165126D01*
X175809891Y-105175586D01*
X175816251Y-105192638D01*
X175827070Y-105207277D01*
X175828208Y-105224696D01*
X175834308Y-105241050D01*
X175830439Y-105258834D01*
X175831626Y-105276998D01*
X175823126Y-105292450D01*
X175819456Y-105309323D01*
X175798305Y-105337577D01*
X175703106Y-105432776D01*
X175641783Y-105466261D01*
X175572091Y-105461277D01*
X175562467Y-105457217D01*
X175498724Y-105427106D01*
X175281301Y-105368847D01*
X175056968Y-105350347D01*
X175056966Y-105350347D01*
X175056965Y-105350347D01*
X175056959Y-105350347D01*
X174832944Y-105372199D01*
X174832932Y-105372201D01*
X174616407Y-105433705D01*
X174496725Y-105490791D01*
X174496721Y-105490793D01*
X173606092Y-106004998D01*
X173606074Y-106005010D01*
X173496788Y-106080118D01*
X173496787Y-106080119D01*
X173335261Y-106236885D01*
X173335260Y-106236885D01*
X173204324Y-106419966D01*
X173204321Y-106419971D01*
X173108174Y-106623504D01*
X173049918Y-106840924D01*
X173049918Y-106840925D01*
X173035778Y-107012395D01*
X173031418Y-107065260D01*
X173031418Y-107065266D01*
X173053270Y-107289280D01*
X173053272Y-107289292D01*
X173114774Y-107505811D01*
X173114775Y-107505813D01*
X173114776Y-107505816D01*
X173171863Y-107625503D01*
X173171867Y-107625511D01*
X173171868Y-107625513D01*
X173586069Y-108342927D01*
X173586089Y-108342958D01*
X173661185Y-108452227D01*
X173661196Y-108452239D01*
X173778373Y-108572974D01*
X173817955Y-108613758D01*
X174001044Y-108744699D01*
X174204572Y-108840844D01*
X174421995Y-108899103D01*
X174453707Y-108901718D01*
X174518899Y-108926844D01*
X174560160Y-108983229D01*
X174564953Y-109000222D01*
X174570158Y-109025429D01*
X174612428Y-109119632D01*
X174612435Y-109119645D01*
X174624916Y-109141264D01*
X174624918Y-109141265D01*
X174863910Y-109003283D01*
X176363908Y-109003283D01*
X176363908Y-109003284D01*
X176726406Y-109631150D01*
X176834652Y-109568655D01*
X176918348Y-109508219D01*
X176918350Y-109508217D01*
X177034905Y-109377244D01*
X177118117Y-109222918D01*
X177163493Y-109053572D01*
X177168592Y-108878320D01*
X177133138Y-108706621D01*
X177090869Y-108612422D01*
X177090862Y-108612408D01*
X177078377Y-108590784D01*
X176363908Y-109003283D01*
X174863910Y-109003283D01*
X175019564Y-108913416D01*
X175664147Y-108541265D01*
X175941107Y-108381360D01*
X175983703Y-108366276D01*
X176063209Y-108353684D01*
X176250409Y-108292859D01*
X176425788Y-108203499D01*
X176585029Y-108087803D01*
X176956313Y-107716518D01*
X176976863Y-107698486D01*
X176989762Y-107683069D01*
X177423936Y-107248894D01*
X177485257Y-107215411D01*
X177554949Y-107220395D01*
X177610882Y-107262267D01*
X177619002Y-107274577D01*
X178185255Y-108255353D01*
X178201728Y-108323253D01*
X178183069Y-108382994D01*
X178161853Y-108416995D01*
X178091104Y-108607746D01*
X178091104Y-108607748D01*
X178073559Y-108675377D01*
X178073556Y-108675391D01*
X178052513Y-108797310D01*
X178045233Y-108839490D01*
X178047945Y-109042921D01*
X178091552Y-109241643D01*
X178113354Y-109308020D01*
X178142597Y-109386000D01*
X178240413Y-109564393D01*
X178247670Y-109574935D01*
X178249797Y-109577998D01*
X178252340Y-109581661D01*
X178253447Y-109583242D01*
X178258014Y-109589708D01*
X178548694Y-109997909D01*
X178553143Y-110004109D01*
X178554096Y-110005425D01*
X178554168Y-110005524D01*
X178554242Y-110005626D01*
X178557152Y-110009615D01*
X178559276Y-110012526D01*
X178657821Y-110146366D01*
X178856523Y-110416238D01*
X178856581Y-110416316D01*
X178861656Y-110423148D01*
X178862644Y-110424466D01*
X178867318Y-110430657D01*
X179033982Y-110649652D01*
X179170884Y-110829541D01*
X179170915Y-110829581D01*
X179175982Y-110836182D01*
X179177256Y-110837827D01*
X179181674Y-110843489D01*
X179491878Y-111237947D01*
X179494735Y-111241548D01*
X179497105Y-111244536D01*
X179498250Y-111245967D01*
X179498324Y-111246058D01*
X179498357Y-111246100D01*
X179502985Y-111251839D01*
X179819017Y-111640844D01*
X179824004Y-111646935D01*
X179825190Y-111648373D01*
X179825257Y-111648453D01*
X179830496Y-111654747D01*
X180152790Y-112038843D01*
X180157923Y-112044912D01*
X180159173Y-112046378D01*
X180164396Y-112052454D01*
X180164503Y-112052577D01*
X180164549Y-112052631D01*
X180221870Y-112118783D01*
X180270801Y-112171339D01*
X180283293Y-112183831D01*
X180283299Y-112183836D01*
X180283301Y-112183838D01*
X180300424Y-112198503D01*
X180341053Y-112233302D01*
X180339917Y-112234615D01*
X180350006Y-112243357D01*
X180367691Y-112258328D01*
X180379482Y-112266216D01*
X180385077Y-112271008D01*
X180401028Y-112284669D01*
X180446244Y-112311146D01*
X180452534Y-112315086D01*
X180536788Y-112371451D01*
X180536792Y-112371453D01*
X180578135Y-112388298D01*
X180582855Y-112390336D01*
X180616108Y-112405520D01*
X180616108Y-112405521D01*
X180640146Y-112416499D01*
X180640150Y-112416500D01*
X180640158Y-112416504D01*
X180668021Y-112426530D01*
X180701819Y-112438694D01*
X180725200Y-112448221D01*
X180741980Y-112453147D01*
X180796929Y-112472923D01*
X180891460Y-112488290D01*
X180955402Y-112501431D01*
X180974441Y-112501781D01*
X180997742Y-112505569D01*
X181050090Y-112503393D01*
X181057498Y-112503308D01*
X181130657Y-112504653D01*
X181158812Y-112505171D01*
X181158812Y-112505170D01*
X181158818Y-112505171D01*
X181202802Y-112496971D01*
X181207795Y-112496147D01*
X181209977Y-112495834D01*
X181209976Y-112495833D01*
X181241699Y-112491274D01*
X181310857Y-112501222D01*
X181363658Y-112546980D01*
X181378000Y-112578018D01*
X181388686Y-112613248D01*
X181512786Y-112912849D01*
X181512788Y-112912854D01*
X181665646Y-113198830D01*
X181665657Y-113198848D01*
X181845811Y-113468467D01*
X181845821Y-113468481D01*
X182051546Y-113719158D01*
X182280841Y-113948453D01*
X182280846Y-113948457D01*
X182280847Y-113948458D01*
X182531524Y-114154183D01*
X182801158Y-114334347D01*
X182801167Y-114334352D01*
X182801169Y-114334353D01*
X183087145Y-114487211D01*
X183087147Y-114487211D01*
X183087153Y-114487215D01*
X183386754Y-114611314D01*
X183443584Y-114628553D01*
X183502022Y-114666849D01*
X183530479Y-114730660D01*
X183531136Y-114757800D01*
X183518316Y-114907393D01*
X183518316Y-114907419D01*
X183519422Y-114977240D01*
X183519423Y-114977255D01*
X183535849Y-115143006D01*
X183535850Y-115143011D01*
X183570378Y-115261727D01*
X183592666Y-115338360D01*
X183604008Y-115359846D01*
X183687648Y-115518283D01*
X183687651Y-115518288D01*
X183726340Y-115576441D01*
X183775352Y-115643872D01*
X183775356Y-115643877D01*
X183917177Y-115789748D01*
X184217480Y-116041732D01*
X184223775Y-116046971D01*
X184225292Y-116048223D01*
X184225362Y-116048280D01*
X184231383Y-116053210D01*
X184620249Y-116369129D01*
X184620423Y-116369270D01*
X184624811Y-116372807D01*
X184626465Y-116374141D01*
X184627798Y-116375207D01*
X184627906Y-116375293D01*
X184634346Y-116380401D01*
X185028537Y-116690397D01*
X185028667Y-116690498D01*
X185035196Y-116695588D01*
X185036611Y-116696682D01*
X185036653Y-116696714D01*
X185042687Y-116701343D01*
X185441592Y-117004926D01*
X185447722Y-117009554D01*
X185449296Y-117010733D01*
X185455936Y-117015665D01*
X185763670Y-117242244D01*
X185805983Y-117297843D01*
X185811521Y-117367493D01*
X185800635Y-117398390D01*
X185771600Y-117455374D01*
X185717397Y-117622200D01*
X185717396Y-117622204D01*
X185710778Y-117642568D01*
X185710777Y-117642575D01*
X185679987Y-117836973D01*
X185679987Y-118373270D01*
X185675298Y-118407046D01*
X185395753Y-119394529D01*
X185383829Y-119422753D01*
X185287308Y-119589933D01*
X185230216Y-119709625D01*
X185230214Y-119709630D01*
X185168714Y-119926144D01*
X185168711Y-119926159D01*
X185146859Y-120150174D01*
X185146859Y-120150180D01*
X185146859Y-120150183D01*
X185165359Y-120374516D01*
X185203059Y-120515210D01*
X185223618Y-120591938D01*
X185223619Y-120591941D01*
X185319761Y-120795464D01*
X185319762Y-120795466D01*
X185319763Y-120795467D01*
X185393948Y-120899197D01*
X185450705Y-120978557D01*
X185450705Y-120978558D01*
X185612225Y-121135318D01*
X185612230Y-121135321D01*
X185612232Y-121135323D01*
X185721515Y-121210431D01*
X185721529Y-121210439D01*
X185721532Y-121210441D01*
X186382312Y-121591941D01*
X186438959Y-121624646D01*
X186558646Y-121681735D01*
X186668389Y-121712907D01*
X186775169Y-121743238D01*
X186775172Y-121743238D01*
X186775174Y-121743239D01*
X186775176Y-121743239D01*
X186775181Y-121743240D01*
X186872259Y-121752709D01*
X186999204Y-121765093D01*
X187223537Y-121746593D01*
X187440961Y-121688335D01*
X187469728Y-121674745D01*
X187538749Y-121663908D01*
X187602676Y-121692107D01*
X187615324Y-121704429D01*
X187632434Y-121723656D01*
X187716138Y-121784099D01*
X187737777Y-121796592D01*
X188308771Y-120807602D01*
X189174797Y-120807602D01*
X189174797Y-120807603D01*
X189802663Y-121170101D01*
X189802664Y-121170101D01*
X189865149Y-121061875D01*
X189865158Y-121061857D01*
X189907424Y-120967666D01*
X189942878Y-120795965D01*
X189937779Y-120620712D01*
X189892403Y-120451364D01*
X189809192Y-120297041D01*
X189692638Y-120166069D01*
X189692639Y-120166069D01*
X189608939Y-120105628D01*
X189587295Y-120093132D01*
X189174797Y-120807602D01*
X188308771Y-120807602D01*
X188337777Y-120757363D01*
X188354680Y-120728085D01*
X188354680Y-120728084D01*
X188937776Y-119718131D01*
X188916150Y-119705646D01*
X188821943Y-119663373D01*
X188796734Y-119658168D01*
X188735061Y-119625333D01*
X188700929Y-119564368D01*
X188698231Y-119546931D01*
X188695615Y-119515210D01*
X188637356Y-119297787D01*
X188541211Y-119094259D01*
X188410270Y-118911170D01*
X188398598Y-118899842D01*
X188368824Y-118854320D01*
X188351690Y-118808536D01*
X188236450Y-118500594D01*
X188235153Y-118482745D01*
X188228900Y-118465979D01*
X188232675Y-118448622D01*
X188231389Y-118430907D01*
X188239948Y-118415191D01*
X188243752Y-118397706D01*
X188264742Y-118369666D01*
X188264805Y-118369550D01*
X188367360Y-118266995D01*
X188428681Y-118233512D01*
X188498373Y-118238496D01*
X188517033Y-118247288D01*
X188522306Y-118250332D01*
X188522322Y-118250340D01*
X188522325Y-118250342D01*
X188631019Y-118300842D01*
X188695069Y-118316849D01*
X188754150Y-118350961D01*
X188792360Y-118390483D01*
X188800037Y-118398424D01*
X188898117Y-118467307D01*
X190599260Y-119449460D01*
X190647475Y-119500026D01*
X190661238Y-119559126D01*
X190661080Y-119567677D01*
X190661081Y-119567685D01*
X190698357Y-119767692D01*
X190718039Y-119834722D01*
X190751765Y-119922059D01*
X190778043Y-119990106D01*
X190822395Y-120061997D01*
X190884865Y-120163256D01*
X191003946Y-120289687D01*
X191024356Y-120311357D01*
X191077160Y-120357111D01*
X191142352Y-120409029D01*
X191317916Y-120511833D01*
X191317921Y-120511835D01*
X191317924Y-120511837D01*
X191694408Y-120683771D01*
X191694488Y-120683807D01*
X191694630Y-120683872D01*
X191701919Y-120687166D01*
X191703715Y-120687969D01*
X191710989Y-120691187D01*
X191711178Y-120691270D01*
X191711199Y-120691279D01*
X192170005Y-120892074D01*
X192170204Y-120892160D01*
X192170215Y-120892165D01*
X192177203Y-120895192D01*
X192179011Y-120895967D01*
X192186687Y-120899219D01*
X192649142Y-121092928D01*
X192656441Y-121095952D01*
X192658262Y-121096698D01*
X192665729Y-121099722D01*
X193131210Y-121286072D01*
X193138898Y-121289113D01*
X193140730Y-121289829D01*
X193147898Y-121292599D01*
X193147951Y-121292619D01*
X193147984Y-121292632D01*
X193279317Y-121342807D01*
X193616188Y-121471507D01*
X193623552Y-121474288D01*
X193625155Y-121474886D01*
X193625452Y-121474997D01*
X193628515Y-121476125D01*
X193632981Y-121477771D01*
X194104100Y-121649244D01*
X194111532Y-121651916D01*
X194113385Y-121652574D01*
X194120986Y-121655239D01*
X194594771Y-121819218D01*
X194602302Y-121821791D01*
X194604167Y-121822420D01*
X194607952Y-121823679D01*
X194611696Y-121824926D01*
X194611754Y-121824945D01*
X195088078Y-121981385D01*
X195095691Y-121983852D01*
X195097565Y-121984451D01*
X195105149Y-121986842D01*
X195583897Y-122135705D01*
X195590686Y-122137787D01*
X195591616Y-122138072D01*
X195593507Y-122138644D01*
X195600987Y-122140872D01*
X196009052Y-122260690D01*
X196082101Y-122282139D01*
X196089894Y-122284393D01*
X196091786Y-122284932D01*
X196099336Y-122287051D01*
X196582506Y-122420633D01*
X196589903Y-122422648D01*
X196591804Y-122423158D01*
X196591881Y-122423178D01*
X196591891Y-122423181D01*
X196599679Y-122425236D01*
X196599712Y-122425244D01*
X196599816Y-122425272D01*
X197085131Y-122551194D01*
X197092829Y-122553159D01*
X197094737Y-122553638D01*
X197102515Y-122555558D01*
X197589770Y-122673764D01*
X197597779Y-122675672D01*
X197599694Y-122676120D01*
X197607215Y-122677849D01*
X198096236Y-122788300D01*
X198104183Y-122790061D01*
X198106106Y-122790479D01*
X198113749Y-122792110D01*
X198604433Y-122894782D01*
X198612091Y-122896353D01*
X198614020Y-122896741D01*
X198622003Y-122898313D01*
X199114316Y-122993199D01*
X199122177Y-122994682D01*
X199124112Y-122995039D01*
X199131943Y-122996452D01*
X199625690Y-123083512D01*
X199633662Y-123084884D01*
X199635602Y-123085210D01*
X199642642Y-123086365D01*
X199643464Y-123086500D01*
X200138235Y-123165669D01*
X200141764Y-123166219D01*
X200145954Y-123166874D01*
X200147899Y-123167170D01*
X200156080Y-123168380D01*
X200652401Y-123239741D01*
X200660601Y-123240886D01*
X200662551Y-123241150D01*
X200662688Y-123241168D01*
X200662710Y-123241171D01*
X200663273Y-123241244D01*
X200670163Y-123242151D01*
X201167413Y-123305609D01*
X201171271Y-123306086D01*
X201175053Y-123306554D01*
X201176438Y-123306719D01*
X201177034Y-123306791D01*
X201185206Y-123307737D01*
X201451620Y-123337448D01*
X201683576Y-123363318D01*
X201691679Y-123364187D01*
X201693565Y-123364382D01*
X201701392Y-123365160D01*
X202200307Y-123412801D01*
X202200433Y-123412813D01*
X202208114Y-123413517D01*
X202210074Y-123413689D01*
X202218289Y-123414376D01*
X202290655Y-123420129D01*
X202300402Y-123420904D01*
X202300403Y-123420904D01*
X202300529Y-123420914D01*
X202303505Y-123421143D01*
X202304785Y-123421243D01*
X202305623Y-123421306D01*
X202305627Y-123421306D01*
X202305639Y-123421307D01*
X202383818Y-123423786D01*
X202450198Y-123445586D01*
X202494256Y-123499814D01*
X202502002Y-123569253D01*
X202493436Y-123597545D01*
X202298117Y-124042708D01*
X202290512Y-124060499D01*
X202283243Y-124084598D01*
X202277428Y-124100063D01*
X202261414Y-124135321D01*
X202206417Y-124353579D01*
X202206416Y-124353586D01*
X202196012Y-124485777D01*
X202196012Y-125514208D01*
X202196013Y-125514223D01*
X202206416Y-125646413D01*
X202206417Y-125646420D01*
X202261414Y-125864678D01*
X202261415Y-125864681D01*
X202354503Y-126069622D01*
X202354509Y-126069632D01*
X202482686Y-126254645D01*
X202482690Y-126254650D01*
X202482693Y-126254654D01*
X202641858Y-126413819D01*
X202641862Y-126413822D01*
X202641866Y-126413825D01*
X202736140Y-126479138D01*
X202826886Y-126542007D01*
X203031829Y-126635096D01*
X203031833Y-126635097D01*
X203250091Y-126690094D01*
X203250093Y-126690094D01*
X203250100Y-126690096D01*
X203382295Y-126700500D01*
X204210728Y-126700499D01*
X204342924Y-126690096D01*
X204561195Y-126635096D01*
X204766138Y-126542007D01*
X204951166Y-126413819D01*
X205110331Y-126254654D01*
X205128450Y-126228499D01*
X205182805Y-126184604D01*
X205252267Y-126177062D01*
X205269382Y-126181409D01*
X205293814Y-126189505D01*
X205293821Y-126189506D01*
X205396531Y-126199999D01*
X206171512Y-126199999D01*
X206196484Y-126199999D01*
X206196498Y-126199998D01*
X206299209Y-126189505D01*
X206465631Y-126134358D01*
X206465636Y-126134356D01*
X206614857Y-126042315D01*
X206738827Y-125918345D01*
X206830868Y-125769124D01*
X206830870Y-125769119D01*
X206886017Y-125602697D01*
X206886018Y-125602690D01*
X206896511Y-125499986D01*
X206896512Y-125499973D01*
X206896512Y-125375000D01*
X206171512Y-125375000D01*
X206171512Y-126199999D01*
X205396531Y-126199999D01*
X205421512Y-126199998D01*
X205421512Y-124625000D01*
X206171512Y-124625000D01*
X206896511Y-124625000D01*
X206896511Y-124500028D01*
X206896510Y-124500013D01*
X206886017Y-124397302D01*
X206830870Y-124230880D01*
X206830868Y-124230875D01*
X206738827Y-124081654D01*
X206614857Y-123957684D01*
X206465636Y-123865643D01*
X206465631Y-123865641D01*
X206299209Y-123810494D01*
X206299202Y-123810493D01*
X206196498Y-123800000D01*
X206171512Y-123800000D01*
X206171512Y-124625000D01*
X205421512Y-124625000D01*
X205421512Y-123799999D01*
X205396541Y-123800000D01*
X205396520Y-123800001D01*
X205287203Y-123811169D01*
X205218511Y-123798399D01*
X205167626Y-123750518D01*
X205161051Y-123737632D01*
X205057461Y-123501533D01*
X205047012Y-123451712D01*
X205047012Y-123020976D01*
X205066697Y-122953937D01*
X205119501Y-122908182D01*
X205171012Y-122896976D01*
X206967968Y-122896976D01*
X207035007Y-122916661D01*
X207062178Y-122940351D01*
X207167575Y-123063508D01*
X207167587Y-123063520D01*
X207218140Y-123111723D01*
X207218144Y-123111726D01*
X207218146Y-123111728D01*
X207347805Y-123216295D01*
X207526891Y-123312835D01*
X207721745Y-123371349D01*
X207721746Y-123371349D01*
X207721749Y-123371350D01*
X207790351Y-123384571D01*
X207839857Y-123391999D01*
X207872767Y-123396937D01*
X208076212Y-123398186D01*
X208422172Y-123365150D01*
X208426563Y-123364713D01*
X208429901Y-123364382D01*
X208431787Y-123364187D01*
X208439890Y-123363318D01*
X208607402Y-123344635D01*
X208938261Y-123307737D01*
X208946433Y-123306791D01*
X208947495Y-123306663D01*
X208948413Y-123306554D01*
X208951181Y-123306211D01*
X208956054Y-123305609D01*
X209453304Y-123242151D01*
X209460916Y-123241150D01*
X209462866Y-123240886D01*
X209471066Y-123239741D01*
X209967387Y-123168380D01*
X209975568Y-123167170D01*
X209977513Y-123166874D01*
X209985103Y-123165689D01*
X209985108Y-123165688D01*
X209985231Y-123165669D01*
X210480002Y-123086500D01*
X210480106Y-123086483D01*
X210487865Y-123085210D01*
X210489805Y-123084884D01*
X210497777Y-123083512D01*
X210991524Y-122996452D01*
X210999355Y-122995039D01*
X211001290Y-122994682D01*
X211009151Y-122993199D01*
X211501464Y-122898313D01*
X211509447Y-122896741D01*
X211511376Y-122896353D01*
X211519034Y-122894782D01*
X212009718Y-122792110D01*
X212017361Y-122790479D01*
X212019284Y-122790061D01*
X212027231Y-122788300D01*
X212516252Y-122677849D01*
X212523773Y-122676120D01*
X212525688Y-122675672D01*
X212533697Y-122673764D01*
X213020952Y-122555558D01*
X213028730Y-122553638D01*
X213030638Y-122553159D01*
X213038336Y-122551194D01*
X213523651Y-122425272D01*
X213531663Y-122423158D01*
X213533564Y-122422648D01*
X213540961Y-122420633D01*
X214024131Y-122287051D01*
X214031681Y-122284932D01*
X214033573Y-122284393D01*
X214041366Y-122282139D01*
X214285547Y-122210441D01*
X214522479Y-122140872D01*
X214529959Y-122138644D01*
X214531850Y-122138072D01*
X214531867Y-122138067D01*
X214539570Y-122135705D01*
X215018318Y-121986842D01*
X215025902Y-121984451D01*
X215027776Y-121983852D01*
X215035389Y-121981385D01*
X215511713Y-121824945D01*
X215519300Y-121822420D01*
X215521165Y-121821791D01*
X215528696Y-121819218D01*
X216002481Y-121655239D01*
X216010082Y-121652574D01*
X216011935Y-121651916D01*
X216019367Y-121649244D01*
X216490486Y-121477771D01*
X216498071Y-121474976D01*
X216499915Y-121474288D01*
X216507279Y-121471507D01*
X216975569Y-121292599D01*
X216982737Y-121289829D01*
X216984569Y-121289113D01*
X216992257Y-121286072D01*
X217457738Y-121099722D01*
X217465205Y-121096698D01*
X217467026Y-121095952D01*
X217474325Y-121092928D01*
X217936780Y-120899219D01*
X217944456Y-120895967D01*
X217946264Y-120895192D01*
X217953252Y-120892165D01*
X217953264Y-120892159D01*
X217953462Y-120892074D01*
X218301987Y-120739543D01*
X218412478Y-120691187D01*
X218419752Y-120687969D01*
X218419852Y-120687923D01*
X218419977Y-120687869D01*
X218421414Y-120687226D01*
X218421432Y-120687217D01*
X218421548Y-120687166D01*
X218428838Y-120683872D01*
X218428867Y-120683858D01*
X218428924Y-120683833D01*
X218641565Y-120586722D01*
X218884886Y-120475602D01*
X218891950Y-120472343D01*
X218893733Y-120471512D01*
X218901125Y-120468030D01*
X218927165Y-120455635D01*
X218930750Y-120453920D01*
X218930880Y-120453858D01*
X218931634Y-120453495D01*
X218980593Y-120427250D01*
X219048978Y-120412925D01*
X219114253Y-120437846D01*
X219155691Y-120494101D01*
X219162759Y-120546727D01*
X219148169Y-120723659D01*
X219146859Y-120739545D01*
X219146859Y-120739551D01*
X219168711Y-120963566D01*
X219168713Y-120963578D01*
X219230217Y-121180103D01*
X219287303Y-121299785D01*
X219287305Y-121299789D01*
X219801510Y-122190418D01*
X219801517Y-122190429D01*
X219801522Y-122190437D01*
X219826206Y-122226353D01*
X219876630Y-122299722D01*
X219876631Y-122299723D01*
X220033397Y-122461249D01*
X220033397Y-122461250D01*
X220216478Y-122592186D01*
X220216483Y-122592189D01*
X220216484Y-122592189D01*
X220216485Y-122592190D01*
X220420013Y-122688335D01*
X220420015Y-122688335D01*
X220420016Y-122688336D01*
X220465963Y-122700647D01*
X220637437Y-122746593D01*
X220861770Y-122765093D01*
X220973785Y-122754166D01*
X221085792Y-122743240D01*
X221085795Y-122743239D01*
X221085800Y-122743239D01*
X221114574Y-122735066D01*
X221138797Y-122728185D01*
X221302328Y-122681735D01*
X221422015Y-122624648D01*
X222139458Y-122210430D01*
X222248742Y-122135323D01*
X222407355Y-121981385D01*
X222410268Y-121978558D01*
X222410268Y-121978557D01*
X222410270Y-121978556D01*
X222541211Y-121795467D01*
X222637356Y-121591939D01*
X222695615Y-121374516D01*
X222698230Y-121342803D01*
X222723356Y-121277611D01*
X222779740Y-121236350D01*
X222796737Y-121231556D01*
X222821943Y-121226351D01*
X222916143Y-121184083D01*
X222916151Y-121184079D01*
X222937777Y-121171593D01*
X222419931Y-120274659D01*
X222409871Y-120252435D01*
X222400428Y-120224554D01*
X222352189Y-120082121D01*
X223174797Y-120082121D01*
X223174797Y-120082122D01*
X223587295Y-120796592D01*
X223608926Y-120784104D01*
X223692634Y-120723659D01*
X223692642Y-120723652D01*
X223809191Y-120592687D01*
X223892403Y-120438361D01*
X223937779Y-120269013D01*
X223942878Y-120093760D01*
X223907424Y-119922059D01*
X223865156Y-119827864D01*
X223865148Y-119827848D01*
X223802664Y-119719623D01*
X223802663Y-119719623D01*
X223174797Y-120082121D01*
X222352189Y-120082121D01*
X222233632Y-119732061D01*
X222187540Y-119595966D01*
X222180987Y-119556189D01*
X222180987Y-119520659D01*
X222150196Y-119326257D01*
X222127941Y-119257763D01*
X222127941Y-119257762D01*
X222089371Y-119139056D01*
X222000011Y-118963677D01*
X221884315Y-118804436D01*
X221798010Y-118718131D01*
X222387295Y-118718131D01*
X222799795Y-119432601D01*
X222799796Y-119432601D01*
X223427662Y-119070103D01*
X223427662Y-119070102D01*
X223365177Y-118961874D01*
X223304727Y-118878158D01*
X223173756Y-118761605D01*
X223019430Y-118678393D01*
X222850084Y-118633017D01*
X222674832Y-118627918D01*
X222503132Y-118663372D01*
X222408934Y-118705640D01*
X222408919Y-118705648D01*
X222387295Y-118718131D01*
X221798010Y-118718131D01*
X221624252Y-118544373D01*
X221590767Y-118483050D01*
X221595751Y-118413358D01*
X221637623Y-118357425D01*
X221649928Y-118349307D01*
X222861662Y-117649712D01*
X222929560Y-117633240D01*
X222964936Y-117640171D01*
X223042697Y-117667621D01*
X223105837Y-117682938D01*
X223110593Y-117684092D01*
X223275168Y-117709821D01*
X223478531Y-117703883D01*
X223478532Y-117703883D01*
X223562348Y-117684092D01*
X223676536Y-117657130D01*
X223742562Y-117634277D01*
X223820116Y-117603780D01*
X223996930Y-117503138D01*
X224249213Y-117323487D01*
X224255271Y-117319139D01*
X224255386Y-117319055D01*
X224255461Y-117319002D01*
X224255954Y-117318644D01*
X224256865Y-117317986D01*
X224263726Y-117312980D01*
X224667531Y-117015665D01*
X224674171Y-117010733D01*
X224675745Y-117009554D01*
X224681875Y-117004926D01*
X225080780Y-116701343D01*
X225086928Y-116696627D01*
X225088485Y-116695423D01*
X225094957Y-116690375D01*
X225489084Y-116380430D01*
X225495469Y-116375367D01*
X225497006Y-116374138D01*
X225503084Y-116369240D01*
X225892169Y-116053141D01*
X225892366Y-116052981D01*
X225898263Y-116048149D01*
X225898330Y-116048093D01*
X225898426Y-116048015D01*
X225899942Y-116046763D01*
X225905984Y-116041733D01*
X226206288Y-115789749D01*
X226265287Y-115736116D01*
X226279295Y-115722329D01*
X226385805Y-115598967D01*
X226488610Y-115423402D01*
X226517635Y-115359846D01*
X226574040Y-115203127D01*
X226606698Y-115002316D01*
X226598264Y-114799041D01*
X226588320Y-114729883D01*
X226588316Y-114729865D01*
X226588009Y-114728217D01*
X226588038Y-114727926D01*
X226587954Y-114727339D01*
X226588100Y-114727317D01*
X226595074Y-114658705D01*
X226638598Y-114604048D01*
X226662452Y-114590932D01*
X226912847Y-114487215D01*
X227198842Y-114334347D01*
X227468476Y-114154183D01*
X227719153Y-113948458D01*
X227948458Y-113719153D01*
X228154183Y-113468476D01*
X228334347Y-113198842D01*
X228487215Y-112912847D01*
X228574194Y-112702860D01*
X228618035Y-112648458D01*
X228684329Y-112626393D01*
X228701300Y-112626950D01*
X228889564Y-112646095D01*
X228889565Y-112646095D01*
X228959424Y-112646095D01*
X228959435Y-112646095D01*
X229125412Y-112632302D01*
X229321643Y-112578590D01*
X229503046Y-112486478D01*
X229561824Y-112448704D01*
X229562511Y-112448221D01*
X229630008Y-112400779D01*
X229630009Y-112400777D01*
X229630016Y-112400773D01*
X229778119Y-112261284D01*
X229959048Y-112052481D01*
X229959071Y-112052454D01*
X229959209Y-112052295D01*
X229964048Y-112046664D01*
X229964123Y-112046577D01*
X229965400Y-112045080D01*
X229970677Y-112038843D01*
X230292971Y-111654747D01*
X230298210Y-111648453D01*
X230299462Y-111646936D01*
X230304380Y-111640930D01*
X230620479Y-111251845D01*
X230625377Y-111245767D01*
X230626606Y-111244230D01*
X230631669Y-111237845D01*
X230941614Y-110843718D01*
X230946662Y-110837246D01*
X230947866Y-110835689D01*
X230952582Y-110829541D01*
X231256165Y-110430636D01*
X231260793Y-110424506D01*
X231261972Y-110422932D01*
X231266904Y-110416292D01*
X231522064Y-110069740D01*
X231577661Y-110027429D01*
X231647311Y-110021891D01*
X231660211Y-110025325D01*
X231793549Y-110068650D01*
X231846127Y-110085734D01*
X232040532Y-110116525D01*
X232040537Y-110116525D01*
X232169788Y-110116525D01*
X232203563Y-110121214D01*
X232426343Y-110184280D01*
X233191038Y-110400755D01*
X233219256Y-110412676D01*
X233386450Y-110509206D01*
X233506136Y-110566295D01*
X233506139Y-110566295D01*
X233506142Y-110566297D01*
X233722656Y-110627797D01*
X233722659Y-110627797D01*
X233722664Y-110627799D01*
X233722667Y-110627799D01*
X233722671Y-110627800D01*
X233819750Y-110637269D01*
X233946695Y-110649653D01*
X234171028Y-110631153D01*
X234388451Y-110572894D01*
X234591979Y-110476749D01*
X234775068Y-110345808D01*
X234775070Y-110345806D01*
X234931830Y-110184286D01*
X234931831Y-110184283D01*
X234931835Y-110184280D01*
X235006943Y-110074997D01*
X235421158Y-109357553D01*
X235478247Y-109237866D01*
X235539751Y-109021338D01*
X235561605Y-108797308D01*
X235543105Y-108572975D01*
X235484847Y-108355551D01*
X235471256Y-108326782D01*
X235460420Y-108257759D01*
X235488621Y-108193833D01*
X235500943Y-108181185D01*
X235520168Y-108164076D01*
X235580618Y-108080363D01*
X235593104Y-108058734D01*
X234553875Y-107458735D01*
X233909288Y-107086583D01*
X233753630Y-106996714D01*
X235253635Y-106996714D01*
X235253635Y-106996715D01*
X235968104Y-107409213D01*
X235980593Y-107387583D01*
X235980600Y-107387569D01*
X236022864Y-107293382D01*
X236022865Y-107293379D01*
X236058319Y-107121679D01*
X236053220Y-106946427D01*
X236007844Y-106777081D01*
X235924632Y-106622755D01*
X235808079Y-106491784D01*
X235724367Y-106431335D01*
X235616134Y-106368847D01*
X235616133Y-106368847D01*
X235253635Y-106996714D01*
X233753630Y-106996714D01*
X233514643Y-106858735D01*
X233502156Y-106880367D01*
X233459885Y-106974568D01*
X233454680Y-106999777D01*
X233421845Y-107061451D01*
X233360879Y-107095582D01*
X233343434Y-107098281D01*
X233311730Y-107100895D01*
X233311724Y-107100896D01*
X233094299Y-107159156D01*
X233094296Y-107159157D01*
X233036383Y-107186515D01*
X232967358Y-107197350D01*
X232903433Y-107169149D01*
X232864903Y-107110863D01*
X232864001Y-107040999D01*
X232876030Y-107012399D01*
X233339748Y-106209215D01*
X233889644Y-106209215D01*
X234604114Y-106621713D01*
X234604115Y-106621713D01*
X234966613Y-105993847D01*
X234966613Y-105993846D01*
X234858384Y-105931361D01*
X234858364Y-105931351D01*
X234764178Y-105889087D01*
X234764179Y-105889087D01*
X234592475Y-105853633D01*
X234417224Y-105858732D01*
X234247876Y-105904108D01*
X234093553Y-105987319D01*
X233962582Y-106103872D01*
X233902138Y-106187577D01*
X233889644Y-106209215D01*
X233339748Y-106209215D01*
X233948188Y-105155363D01*
X233998755Y-105107148D01*
X234032854Y-105095463D01*
X234056772Y-105091006D01*
X234123812Y-105071321D01*
X234279188Y-105011320D01*
X234452337Y-104904498D01*
X234600439Y-104765007D01*
X234646193Y-104712203D01*
X234698111Y-104647011D01*
X234800915Y-104471447D01*
X234935111Y-104177598D01*
X234938405Y-104170309D01*
X234939208Y-104168513D01*
X234942426Y-104161239D01*
X234993351Y-104044879D01*
X235143325Y-103702194D01*
X235143345Y-103702146D01*
X235143404Y-103702013D01*
X235146431Y-103695025D01*
X235147206Y-103693217D01*
X235150458Y-103685541D01*
X235344167Y-103223086D01*
X235347191Y-103215787D01*
X235347937Y-103213966D01*
X235350961Y-103206499D01*
X235537311Y-102741018D01*
X235540352Y-102733330D01*
X235541068Y-102731498D01*
X235543838Y-102724330D01*
X235722746Y-102256040D01*
X235725527Y-102248676D01*
X235726215Y-102246832D01*
X235726254Y-102246728D01*
X235727430Y-102243534D01*
X235729010Y-102239247D01*
X235900483Y-101768128D01*
X235903155Y-101760696D01*
X235903813Y-101758843D01*
X235906478Y-101751242D01*
X235906494Y-101751194D01*
X235906536Y-101751076D01*
X236070428Y-101277540D01*
X236070457Y-101277457D01*
X236073030Y-101269926D01*
X236073659Y-101268061D01*
X236076184Y-101260474D01*
X236232624Y-100784150D01*
X236235091Y-100776537D01*
X236235690Y-100774663D01*
X236238081Y-100767079D01*
X236386944Y-100288331D01*
X236389306Y-100280628D01*
X236389875Y-100278745D01*
X236389883Y-100278720D01*
X236392111Y-100271240D01*
X236533381Y-99790116D01*
X236535632Y-99782334D01*
X236536171Y-99780442D01*
X236538290Y-99772892D01*
X236671872Y-99289722D01*
X236673887Y-99282325D01*
X236674397Y-99280424D01*
X236676511Y-99272412D01*
X236802433Y-98787097D01*
X236804398Y-98779399D01*
X236804877Y-98777491D01*
X236806797Y-98769713D01*
X236925003Y-98282458D01*
X236925025Y-98282364D01*
X236925063Y-98282209D01*
X236926892Y-98274528D01*
X236926911Y-98274449D01*
X236927359Y-98272534D01*
X236929088Y-98265013D01*
X237039539Y-97775992D01*
X237041300Y-97768045D01*
X237041718Y-97766122D01*
X237043349Y-97758479D01*
X237146021Y-97267795D01*
X237147592Y-97260137D01*
X237147980Y-97258208D01*
X237148003Y-97258088D01*
X237148030Y-97257957D01*
X237148838Y-97253850D01*
X237149552Y-97250225D01*
X237244438Y-96757912D01*
X237245758Y-96750911D01*
X237245951Y-96749893D01*
X237246280Y-96748104D01*
X237247691Y-96740285D01*
X237334751Y-96246538D01*
X237336123Y-96238566D01*
X237336449Y-96236626D01*
X237337722Y-96228867D01*
X237337725Y-96228847D01*
X237337759Y-96228641D01*
X237416908Y-95733992D01*
X237418103Y-95726336D01*
X237418111Y-95726285D01*
X237418113Y-95726274D01*
X237418409Y-95724329D01*
X237419619Y-95716148D01*
X237490980Y-95219827D01*
X237492125Y-95211627D01*
X237492389Y-95209677D01*
X237492397Y-95209610D01*
X237492425Y-95209410D01*
X237492828Y-95206335D01*
X237493390Y-95202065D01*
X237556848Y-94704815D01*
X237557450Y-94699942D01*
X237557793Y-94697174D01*
X237558021Y-94695267D01*
X237558030Y-94695194D01*
X237558976Y-94687022D01*
X237614545Y-94188756D01*
X237614546Y-94188747D01*
X237614557Y-94188651D01*
X237615426Y-94180548D01*
X237615621Y-94178662D01*
X237616373Y-94171092D01*
X237616389Y-94170933D01*
X237654281Y-93774117D01*
X237657055Y-93618752D01*
X237656860Y-93615477D01*
X237664488Y-93582308D01*
X237671619Y-93549021D01*
X237672303Y-93548332D01*
X237672521Y-93547386D01*
X237696858Y-93523620D01*
X237720867Y-93499458D01*
X237721816Y-93499248D01*
X237722510Y-93498571D01*
X237755806Y-93491740D01*
X237789093Y-93484389D01*
X237790255Y-93484674D01*
X237790955Y-93484531D01*
X237823604Y-93491782D01*
X237827062Y-93493059D01*
X237839280Y-93498420D01*
X237857010Y-93505998D01*
X237884720Y-93514356D01*
X237888256Y-93515662D01*
X237889052Y-93516254D01*
X237896571Y-93519081D01*
X237931829Y-93535096D01*
X237931833Y-93535097D01*
X238150091Y-93590094D01*
X238150093Y-93590094D01*
X238150100Y-93590096D01*
X238282295Y-93600500D01*
X239310728Y-93600499D01*
X239442924Y-93590096D01*
X239661195Y-93535096D01*
X239866138Y-93442007D01*
X240051166Y-93313819D01*
X240210331Y-93154654D01*
X240338519Y-92969626D01*
X240431608Y-92764683D01*
X240486608Y-92546412D01*
X240497012Y-92414217D01*
X240497011Y-91585784D01*
X240486608Y-91453588D01*
X240469651Y-91386295D01*
X240431609Y-91235321D01*
X240431608Y-91235318D01*
X240394970Y-91154657D01*
X240338519Y-91030374D01*
X240225563Y-90867332D01*
X240210337Y-90845354D01*
X240210334Y-90845350D01*
X240210331Y-90845346D01*
X240051166Y-90686181D01*
X240025008Y-90668059D01*
X239981115Y-90613703D01*
X239973575Y-90544241D01*
X239977921Y-90527128D01*
X239986017Y-90502694D01*
X239986018Y-90502690D01*
X239996511Y-90399986D01*
X239996512Y-90399973D01*
X239996512Y-90375000D01*
X237596513Y-90375000D01*
X237596513Y-90399988D01*
X237607681Y-90509307D01*
X237594911Y-90577999D01*
X237547030Y-90628884D01*
X237534145Y-90635459D01*
X237446154Y-90674066D01*
X237376854Y-90682976D01*
X237313739Y-90653005D01*
X237276847Y-90593670D01*
X237272332Y-90560521D01*
X237272332Y-89600013D01*
X237596512Y-89600013D01*
X237596512Y-89625000D01*
X238421512Y-89625000D01*
X239171512Y-89625000D01*
X239996511Y-89625000D01*
X239996511Y-89600028D01*
X239996510Y-89600013D01*
X239986017Y-89497302D01*
X239930870Y-89330880D01*
X239930868Y-89330875D01*
X239838827Y-89181654D01*
X239714857Y-89057684D01*
X239565636Y-88965643D01*
X239565631Y-88965641D01*
X239399209Y-88910494D01*
X239399202Y-88910493D01*
X239296498Y-88900000D01*
X239171512Y-88900000D01*
X239171512Y-89625000D01*
X238421512Y-89625000D01*
X238421512Y-88900000D01*
X238296539Y-88900000D01*
X238296524Y-88900001D01*
X238193814Y-88910494D01*
X238027392Y-88965641D01*
X238027387Y-88965643D01*
X237878166Y-89057684D01*
X237754196Y-89181654D01*
X237662155Y-89330875D01*
X237662153Y-89330880D01*
X237607006Y-89497302D01*
X237607005Y-89497309D01*
X237596512Y-89600013D01*
X237272332Y-89600013D01*
X237272332Y-88822202D01*
X237292017Y-88755164D01*
X237314656Y-88729202D01*
X237314604Y-88729147D01*
X237315182Y-88728598D01*
X237315721Y-88727981D01*
X237316884Y-88726986D01*
X237365100Y-88676419D01*
X237469667Y-88546760D01*
X237566207Y-88367674D01*
X237624721Y-88172820D01*
X237637943Y-88104213D01*
X237650309Y-88021798D01*
X237651558Y-87818353D01*
X237616389Y-87450056D01*
X237616382Y-87449985D01*
X237616366Y-87449818D01*
X237615621Y-87442326D01*
X237615426Y-87440440D01*
X237614557Y-87432337D01*
X237588687Y-87200381D01*
X237558976Y-86933967D01*
X237558030Y-86925795D01*
X237557958Y-86925199D01*
X237557793Y-86923814D01*
X237556825Y-86915992D01*
X237531058Y-86714085D01*
X237493390Y-86418924D01*
X237492854Y-86414853D01*
X237492425Y-86411579D01*
X237492349Y-86411019D01*
X237492125Y-86409362D01*
X237490980Y-86401162D01*
X237490979Y-86401161D01*
X237490962Y-86401033D01*
X237461970Y-86199394D01*
X237419619Y-85904841D01*
X237418409Y-85896660D01*
X237418113Y-85894715D01*
X237416928Y-85887125D01*
X237416928Y-85887124D01*
X237416892Y-85886892D01*
X237337739Y-85392225D01*
X237336456Y-85384406D01*
X237336449Y-85384363D01*
X237336123Y-85382423D01*
X237334751Y-85374451D01*
X237247691Y-84880704D01*
X237246278Y-84872873D01*
X237246261Y-84872785D01*
X237246234Y-84872631D01*
X237245942Y-84871054D01*
X237245921Y-84870938D01*
X237244438Y-84863077D01*
X237149552Y-84370764D01*
X237147980Y-84362781D01*
X237147592Y-84360852D01*
X237146021Y-84353194D01*
X237043349Y-83862510D01*
X237041718Y-83854867D01*
X237041300Y-83852944D01*
X237039539Y-83844997D01*
X236929088Y-83355976D01*
X236927359Y-83348455D01*
X236927211Y-83347824D01*
X236926886Y-83346432D01*
X236925063Y-83338780D01*
X236906243Y-83261203D01*
X236806797Y-82851276D01*
X236806780Y-82851207D01*
X236806738Y-82851034D01*
X236804894Y-82843568D01*
X236804877Y-82843498D01*
X236804398Y-82841590D01*
X236802433Y-82833892D01*
X236676511Y-82348577D01*
X236676493Y-82348509D01*
X236676447Y-82348330D01*
X236674370Y-82340464D01*
X236674282Y-82340138D01*
X236673887Y-82338664D01*
X236671872Y-82331267D01*
X236671868Y-82331253D01*
X236671830Y-82331113D01*
X236563277Y-81938477D01*
X236538290Y-81848097D01*
X236536171Y-81840547D01*
X236535632Y-81838655D01*
X236535623Y-81838622D01*
X236533381Y-81830872D01*
X236392111Y-81349748D01*
X236389883Y-81342268D01*
X236389311Y-81340377D01*
X236389026Y-81339447D01*
X236386944Y-81332658D01*
X236238081Y-80853910D01*
X236235690Y-80846326D01*
X236235091Y-80844452D01*
X236232624Y-80836839D01*
X236076184Y-80360515D01*
X236073659Y-80352928D01*
X236073541Y-80352579D01*
X236073425Y-80352236D01*
X236073030Y-80351063D01*
X236070457Y-80343532D01*
X236070420Y-80343423D01*
X235906519Y-79869866D01*
X235906478Y-79869747D01*
X235903813Y-79862146D01*
X235903780Y-79862053D01*
X235903733Y-79861919D01*
X235903237Y-79860522D01*
X235900441Y-79852745D01*
X235836606Y-79677361D01*
X235729010Y-79381742D01*
X235726215Y-79374157D01*
X235725527Y-79372313D01*
X235722746Y-79364949D01*
X235613505Y-79079012D01*
X235543871Y-78896745D01*
X235543825Y-78896626D01*
X235541068Y-78889491D01*
X235540352Y-78887659D01*
X235537311Y-78879971D01*
X235350961Y-78414490D01*
X235347937Y-78407023D01*
X235347191Y-78405202D01*
X235344167Y-78397903D01*
X235150458Y-77935448D01*
X235147206Y-77927772D01*
X235146431Y-77925964D01*
X235143404Y-77918976D01*
X235143399Y-77918965D01*
X235143313Y-77918766D01*
X234942524Y-77459973D01*
X234942486Y-77459887D01*
X234942426Y-77459750D01*
X234939208Y-77452476D01*
X234938405Y-77450680D01*
X234935111Y-77443391D01*
X234792902Y-77131996D01*
X234792894Y-77131981D01*
X234717632Y-76996074D01*
X234717625Y-76996062D01*
X234706050Y-76978514D01*
X234696588Y-76964169D01*
X234676733Y-76935181D01*
X234594373Y-76841158D01*
X234565008Y-76777760D01*
X234574580Y-76708549D01*
X234620050Y-76655500D01*
X234675610Y-76636040D01*
X234760078Y-76627800D01*
X234760081Y-76627799D01*
X234760086Y-76627799D01*
X234976614Y-76566295D01*
X235096300Y-76509207D01*
X235986949Y-75994990D01*
X236096232Y-75919883D01*
X236257760Y-75763116D01*
X236257761Y-75763114D01*
X236257762Y-75763114D01*
X236388698Y-75580033D01*
X236388701Y-75580028D01*
X236388702Y-75580027D01*
X236484847Y-75376499D01*
X236543105Y-75159075D01*
X236561605Y-74934742D01*
X236550033Y-74816118D01*
X236539752Y-74710719D01*
X236539750Y-74710707D01*
X236478248Y-74494188D01*
X236478247Y-74494184D01*
X236421160Y-74374497D01*
X236421154Y-74374486D01*
X236006953Y-73657072D01*
X236006947Y-73657063D01*
X236006942Y-73657054D01*
X235971710Y-73605790D01*
X235931837Y-73547772D01*
X235931826Y-73547760D01*
X235775069Y-73386243D01*
X235591976Y-73255299D01*
X235388453Y-73159157D01*
X235388451Y-73159156D01*
X235248587Y-73121679D01*
X235171022Y-73100895D01*
X235139315Y-73098281D01*
X235074121Y-73073153D01*
X235032860Y-73016767D01*
X235028068Y-72999775D01*
X235022863Y-72974568D01*
X234980596Y-72880372D01*
X234980589Y-72880358D01*
X234968104Y-72858734D01*
X233928875Y-73458735D01*
X232889645Y-74058733D01*
X232902134Y-74080365D01*
X232943412Y-74137529D01*
X232966700Y-74203404D01*
X232950676Y-74271411D01*
X232935206Y-74292901D01*
X232912371Y-74318369D01*
X232852961Y-74355142D01*
X232783101Y-74353958D01*
X232724972Y-74315193D01*
X232712662Y-74297594D01*
X232033746Y-73121679D01*
X232424430Y-73121679D01*
X232459884Y-73293378D01*
X232502155Y-73387582D01*
X232502162Y-73387595D01*
X232514643Y-73409214D01*
X232514644Y-73409215D01*
X233229113Y-72996715D01*
X233229113Y-72996714D01*
X232866615Y-72368848D01*
X232866614Y-72368848D01*
X232758393Y-72431330D01*
X232758388Y-72431332D01*
X232674670Y-72491784D01*
X232558117Y-72622755D01*
X232474905Y-72777081D01*
X232429529Y-72946427D01*
X232424430Y-73121679D01*
X232033746Y-73121679D01*
X231992938Y-73050997D01*
X231976466Y-72983099D01*
X231983398Y-72947722D01*
X231989900Y-72929305D01*
X232006373Y-72861405D01*
X232032103Y-72696831D01*
X232029940Y-72622755D01*
X232026166Y-72493470D01*
X232011494Y-72431332D01*
X231979414Y-72295463D01*
X231956561Y-72229436D01*
X231926062Y-72151879D01*
X231836111Y-71993846D01*
X233516135Y-71993846D01*
X233516135Y-71993847D01*
X233878633Y-72621713D01*
X233878634Y-72621713D01*
X234593103Y-72209214D01*
X234580615Y-72187582D01*
X234520174Y-72103881D01*
X234520164Y-72103869D01*
X234389199Y-71987320D01*
X234234873Y-71904108D01*
X234065525Y-71858732D01*
X233890272Y-71853633D01*
X233718571Y-71889087D01*
X233624371Y-71931357D01*
X233624359Y-71931363D01*
X233516135Y-71993846D01*
X231836111Y-71993846D01*
X231825421Y-71975065D01*
X231825410Y-71975049D01*
X231825406Y-71975043D01*
X231574772Y-71623079D01*
X231570323Y-71616879D01*
X231569371Y-71615564D01*
X231569298Y-71615465D01*
X231569225Y-71615363D01*
X231564219Y-71608502D01*
X231266904Y-71204697D01*
X231261972Y-71198057D01*
X231260793Y-71196483D01*
X231256165Y-71190353D01*
X230952582Y-70791448D01*
X230950703Y-70788998D01*
X230947928Y-70785380D01*
X230946517Y-70783556D01*
X230941766Y-70777466D01*
X230941614Y-70777271D01*
X230631669Y-70383144D01*
X230626606Y-70376759D01*
X230625377Y-70375222D01*
X230620479Y-70369144D01*
X230304380Y-69980059D01*
X230299462Y-69974053D01*
X230299423Y-69974005D01*
X230298303Y-69972649D01*
X230298210Y-69972536D01*
X230292970Y-69966241D01*
X230292872Y-69966123D01*
X230034307Y-69657979D01*
X229970659Y-69582126D01*
X229965586Y-69576127D01*
X229965427Y-69575940D01*
X229964497Y-69574848D01*
X229964257Y-69574569D01*
X229959047Y-69568507D01*
X229752293Y-69329901D01*
X229667631Y-69243330D01*
X229664433Y-69240432D01*
X229645545Y-69223313D01*
X229645545Y-69223312D01*
X229645536Y-69223305D01*
X229645020Y-69222837D01*
X229481138Y-69102278D01*
X229481132Y-69102275D01*
X229481130Y-69102274D01*
X229296354Y-69017180D01*
X229296341Y-69017175D01*
X229230263Y-68994525D01*
X229230256Y-68994522D01*
X229230248Y-68994520D01*
X229230245Y-68994519D01*
X229230235Y-68994516D01*
X229068749Y-68953745D01*
X228865701Y-68940929D01*
X228664239Y-68969245D01*
X228596362Y-68985927D01*
X228557340Y-68999027D01*
X228487522Y-69001701D01*
X228427341Y-68966203D01*
X228408521Y-68939927D01*
X228334353Y-68801169D01*
X228334352Y-68801167D01*
X228334347Y-68801158D01*
X228154183Y-68531524D01*
X227948458Y-68280847D01*
X227948457Y-68280846D01*
X227948453Y-68280841D01*
X227719158Y-68051546D01*
X227468481Y-67845821D01*
X227468480Y-67845820D01*
X227468476Y-67845817D01*
X227198842Y-67665653D01*
X227079924Y-67602089D01*
X227030081Y-67553127D01*
X227014621Y-67484989D01*
X227020664Y-67453756D01*
X227052303Y-67358230D01*
X227076081Y-67156175D01*
X227077185Y-67086314D01*
X227066015Y-66920130D01*
X227015409Y-66723075D01*
X227000302Y-66692123D01*
X226926177Y-66540250D01*
X226926176Y-66540248D01*
X226926172Y-66540240D01*
X226889331Y-66480873D01*
X226842489Y-66411940D01*
X226705357Y-66261652D01*
X226696006Y-66253287D01*
X226690285Y-66248208D01*
X226688815Y-66246913D01*
X226682613Y-66241494D01*
X226303721Y-65913181D01*
X226297995Y-65908257D01*
X226297659Y-65907970D01*
X226296550Y-65907023D01*
X226294789Y-65905533D01*
X226290111Y-65901575D01*
X225905963Y-65579238D01*
X225899818Y-65574123D01*
X225899691Y-65574017D01*
X225898179Y-65572770D01*
X225892142Y-65567827D01*
X225503078Y-65251746D01*
X225497366Y-65247140D01*
X225497361Y-65247136D01*
X225497206Y-65247011D01*
X225495775Y-65245866D01*
X225494469Y-65244830D01*
X225489186Y-65240639D01*
X225094728Y-64930435D01*
X225089095Y-64926040D01*
X225089080Y-64926028D01*
X225088936Y-64925916D01*
X225087474Y-64924784D01*
X225086963Y-64924392D01*
X225082874Y-64921253D01*
X225080828Y-64919682D01*
X224820392Y-64721480D01*
X224681896Y-64616079D01*
X224679888Y-64614563D01*
X224675887Y-64611542D01*
X224675812Y-64611486D01*
X224675705Y-64611405D01*
X224675705Y-64611404D01*
X224674387Y-64610417D01*
X224669050Y-64606452D01*
X224667531Y-64605324D01*
X224540263Y-64511618D01*
X224263765Y-64308037D01*
X224256877Y-64303012D01*
X224256865Y-64303003D01*
X224256734Y-64302908D01*
X224255348Y-64301904D01*
X224249948Y-64298029D01*
X224249212Y-64297501D01*
X224249180Y-64297478D01*
X224249071Y-64297400D01*
X223997859Y-64118512D01*
X223997848Y-64118505D01*
X223864693Y-64038425D01*
X223864675Y-64038415D01*
X223852195Y-64032168D01*
X223801058Y-63984557D01*
X223783780Y-63916858D01*
X223797215Y-63864995D01*
X223821421Y-63817489D01*
X223882246Y-63630289D01*
X223886442Y-63603796D01*
X223913037Y-63435885D01*
X223913037Y-63382935D01*
X223920489Y-63340597D01*
X223966719Y-63213335D01*
X224174723Y-62640741D01*
X224183874Y-62621097D01*
X224305718Y-62410061D01*
X224362807Y-62290375D01*
X224424311Y-62073847D01*
X224427148Y-62044770D01*
X224440661Y-61906238D01*
X224446165Y-61849816D01*
X224427665Y-61625483D01*
X224369406Y-61408060D01*
X224273261Y-61204532D01*
X224142320Y-61021443D01*
X224142318Y-61021441D01*
X224142318Y-61021440D01*
X223980798Y-60864680D01*
X223980792Y-60864676D01*
X223871509Y-60789568D01*
X223871499Y-60789562D01*
X223871491Y-60789557D01*
X223154066Y-60375353D01*
X223154062Y-60375351D01*
X223034379Y-60318264D01*
X222817854Y-60256760D01*
X222817842Y-60256758D01*
X222593825Y-60234906D01*
X222593822Y-60234906D01*
X222593820Y-60234906D01*
X222406875Y-60250322D01*
X222369486Y-60253406D01*
X222152062Y-60311663D01*
X222152060Y-60311664D01*
X222123292Y-60325254D01*
X222054268Y-60336089D01*
X221990343Y-60307887D01*
X221977699Y-60295569D01*
X221960589Y-60276342D01*
X221876889Y-60215901D01*
X221855245Y-60203405D01*
X221255247Y-61242636D01*
X220655246Y-62281865D01*
X220655247Y-62281866D01*
X220676874Y-62294352D01*
X220676887Y-62294358D01*
X220771077Y-62336624D01*
X220796286Y-62341829D01*
X220812753Y-62350596D01*
X220830971Y-62354617D01*
X220842955Y-62366675D01*
X220857960Y-62374663D01*
X220867072Y-62390939D01*
X220880226Y-62404173D01*
X220886756Y-62426096D01*
X220892093Y-62435628D01*
X220892459Y-62437279D01*
X220894136Y-62445104D01*
X220897409Y-62484789D01*
X220923570Y-62582422D01*
X220924227Y-62585487D01*
X220921852Y-62617317D01*
X220921093Y-62649232D01*
X220919271Y-62651923D01*
X220919030Y-62655163D01*
X220899821Y-62680660D01*
X220881931Y-62707094D01*
X220878944Y-62708372D01*
X220876989Y-62710969D01*
X220847047Y-62722032D01*
X220817703Y-62734599D01*
X220814497Y-62734059D01*
X220811450Y-62735186D01*
X220780282Y-62728306D01*
X220748800Y-62723013D01*
X220743461Y-62720179D01*
X220743223Y-62720127D01*
X220743067Y-62719970D01*
X220740981Y-62718863D01*
X219573416Y-62044770D01*
X219525200Y-61994203D01*
X219513516Y-61960105D01*
X219499982Y-61887489D01*
X219480297Y-61820450D01*
X219420302Y-61665088D01*
X219313481Y-61491937D01*
X219313478Y-61491933D01*
X219173992Y-61343834D01*
X219138731Y-61313280D01*
X219121188Y-61298079D01*
X219121183Y-61298075D01*
X219120370Y-61297427D01*
X219120363Y-61297422D01*
X219055990Y-61246156D01*
X219055986Y-61246153D01*
X218984056Y-61204033D01*
X219650145Y-61204033D01*
X219655244Y-61379286D01*
X219700620Y-61548634D01*
X219783831Y-61702957D01*
X219900385Y-61833929D01*
X219900384Y-61833929D01*
X219984088Y-61894372D01*
X220005727Y-61906865D01*
X220418225Y-61192395D01*
X220418225Y-61192394D01*
X219790360Y-60829895D01*
X219790358Y-60829896D01*
X219727875Y-60938121D01*
X219727868Y-60938135D01*
X219685599Y-61032332D01*
X219650145Y-61204033D01*
X218984056Y-61204033D01*
X218880422Y-61143348D01*
X218428924Y-60937155D01*
X218421414Y-60933762D01*
X218419977Y-60933120D01*
X218419850Y-60933064D01*
X218419752Y-60933020D01*
X218412478Y-60929802D01*
X218412340Y-60929741D01*
X218412255Y-60929704D01*
X217953462Y-60728915D01*
X217946363Y-60725840D01*
X217946264Y-60725797D01*
X217944456Y-60725022D01*
X217944421Y-60725007D01*
X217944332Y-60724969D01*
X217936811Y-60721782D01*
X217598321Y-60579999D01*
X217474249Y-60528029D01*
X217474136Y-60527982D01*
X217466968Y-60525012D01*
X217465441Y-60524387D01*
X217457805Y-60521294D01*
X216992302Y-60334935D01*
X216992298Y-60334933D01*
X216992257Y-60334917D01*
X216984569Y-60331876D01*
X216982737Y-60331160D01*
X216975568Y-60328389D01*
X216975462Y-60328348D01*
X216845484Y-60278691D01*
X216588143Y-60180375D01*
X220165359Y-60180375D01*
X220165359Y-60180376D01*
X220793226Y-60542874D01*
X220793227Y-60542874D01*
X221205726Y-59828404D01*
X221184100Y-59815919D01*
X221089893Y-59773646D01*
X221089891Y-59773645D01*
X220918189Y-59738191D01*
X220742939Y-59743290D01*
X220573593Y-59788666D01*
X220419267Y-59871878D01*
X220288296Y-59988431D01*
X220227847Y-60072143D01*
X220165359Y-60180375D01*
X216588143Y-60180375D01*
X216507244Y-60149468D01*
X216499876Y-60146686D01*
X216498154Y-60146044D01*
X216490693Y-60143294D01*
X216490631Y-60143271D01*
X216490562Y-60143246D01*
X216019301Y-59971721D01*
X216019233Y-59971696D01*
X216019171Y-59971674D01*
X216011469Y-59968906D01*
X216009784Y-59968309D01*
X216002594Y-59965790D01*
X215710469Y-59864684D01*
X215528631Y-59801749D01*
X215528595Y-59801736D01*
X215528541Y-59801718D01*
X215521492Y-59799307D01*
X215520187Y-59798867D01*
X215519614Y-59798674D01*
X215519508Y-59798638D01*
X215519402Y-59798603D01*
X215511906Y-59796107D01*
X215035305Y-59639577D01*
X215027934Y-59637187D01*
X215026340Y-59636677D01*
X215018395Y-59634171D01*
X214711521Y-59538751D01*
X214539570Y-59485284D01*
X214539479Y-59485256D01*
X214531985Y-59482958D01*
X214531938Y-59482943D01*
X214531867Y-59482922D01*
X214531344Y-59482764D01*
X214529884Y-59482322D01*
X214522434Y-59480103D01*
X214041406Y-59338860D01*
X214033504Y-59336574D01*
X214031814Y-59336093D01*
X214024059Y-59333916D01*
X213540952Y-59200352D01*
X213533389Y-59198293D01*
X213531433Y-59197768D01*
X213523929Y-59195790D01*
X213523859Y-59195771D01*
X213523689Y-59195727D01*
X213038331Y-59069793D01*
X213036388Y-59069297D01*
X213030462Y-59067785D01*
X213028496Y-59067292D01*
X213020953Y-59065431D01*
X212533679Y-58947220D01*
X212533591Y-58947199D01*
X212533476Y-58947171D01*
X212525975Y-58945383D01*
X212525337Y-58945233D01*
X212523971Y-58944914D01*
X212523828Y-58944881D01*
X212516259Y-58943139D01*
X212027195Y-58832680D01*
X212019421Y-58830957D01*
X212017659Y-58830574D01*
X212017590Y-58830559D01*
X212017552Y-58830551D01*
X212015874Y-58830192D01*
X212009856Y-58828908D01*
X211941978Y-58814705D01*
X211518974Y-58726195D01*
X211513328Y-58725036D01*
X211511369Y-58724634D01*
X211509916Y-58724342D01*
X211509887Y-58724336D01*
X211509677Y-58724294D01*
X211504057Y-58723186D01*
X211501381Y-58722659D01*
X211009135Y-58627787D01*
X211001366Y-58626320D01*
X210999604Y-58625995D01*
X210991517Y-58624536D01*
X210497709Y-58537464D01*
X210490000Y-58536136D01*
X210488725Y-58535922D01*
X210487931Y-58535789D01*
X210487793Y-58535766D01*
X210487761Y-58535761D01*
X210480108Y-58534505D01*
X209985213Y-58455316D01*
X209977543Y-58454119D01*
X209976394Y-58453944D01*
X209975596Y-58453823D01*
X209967402Y-58452611D01*
X209948324Y-58449868D01*
X209470885Y-58381222D01*
X209463001Y-58380121D01*
X209461061Y-58379858D01*
X209453330Y-58378841D01*
X208956077Y-58315383D01*
X208948499Y-58314444D01*
X208946821Y-58314243D01*
X208938366Y-58313264D01*
X208439860Y-58257668D01*
X208432059Y-58256828D01*
X208430037Y-58256620D01*
X208430038Y-58256620D01*
X208429979Y-58256614D01*
X208422182Y-58255839D01*
X208099475Y-58225024D01*
X208093708Y-58224508D01*
X208087204Y-58223927D01*
X208084397Y-58223694D01*
X208084390Y-58223693D01*
X208084381Y-58223693D01*
X208066897Y-58223067D01*
X208000606Y-58200998D01*
X207956769Y-58146592D01*
X207947333Y-58099147D01*
X207947333Y-57801898D01*
X207931003Y-57698800D01*
X207916542Y-57607495D01*
X207875125Y-57480026D01*
X207855717Y-57420295D01*
X207855715Y-57420292D01*
X207855715Y-57420290D01*
X207808575Y-57327775D01*
X207766357Y-57244916D01*
X207650661Y-57085675D01*
X207632583Y-57067597D01*
X207606702Y-57029713D01*
X207579970Y-56968751D01*
X207407449Y-56575313D01*
X207397011Y-56525516D01*
X207397011Y-56485791D01*
X207397010Y-56485783D01*
X207386608Y-56353588D01*
X207342709Y-56179374D01*
X207331609Y-56135321D01*
X207331608Y-56135318D01*
X207326059Y-56123102D01*
X207238519Y-55930374D01*
X207164086Y-55822936D01*
X207110337Y-55745354D01*
X207110334Y-55745350D01*
X207110331Y-55745346D01*
X206951166Y-55586181D01*
X206951162Y-55586178D01*
X206951157Y-55586174D01*
X206766144Y-55457997D01*
X206766142Y-55457995D01*
X206766138Y-55457993D01*
X206750445Y-55450865D01*
X206561193Y-55364903D01*
X206561190Y-55364902D01*
X206342932Y-55309905D01*
X206342925Y-55309904D01*
X206298859Y-55306436D01*
X206210729Y-55299500D01*
X206210727Y-55299500D01*
X205382303Y-55299500D01*
X205382288Y-55299501D01*
X205250098Y-55309904D01*
X205250091Y-55309905D01*
X205031833Y-55364902D01*
X205031830Y-55364903D01*
X204826889Y-55457991D01*
X204826879Y-55457997D01*
X204641866Y-55586174D01*
X204641860Y-55586179D01*
X204482691Y-55745347D01*
X204464571Y-55771502D01*
X204410212Y-55815397D01*
X204340750Y-55822936D01*
X204323642Y-55818591D01*
X204299203Y-55810493D01*
X204196498Y-55800000D01*
X204171512Y-55800000D01*
X204171512Y-58199999D01*
X204196484Y-58199999D01*
X204196498Y-58199998D01*
X204299204Y-58189506D01*
X204323640Y-58181409D01*
X204393468Y-58179007D01*
X204453510Y-58214738D01*
X204464564Y-58228487D01*
X204482693Y-58254654D01*
X204641858Y-58413819D01*
X204641862Y-58413822D01*
X204641866Y-58413825D01*
X204723020Y-58470049D01*
X204766917Y-58524408D01*
X204774456Y-58593869D01*
X204743245Y-58656380D01*
X204683192Y-58692094D01*
X204652404Y-58695977D01*
X203360638Y-58695977D01*
X203293599Y-58676292D01*
X203265162Y-58651099D01*
X203245822Y-58627762D01*
X203182071Y-58550833D01*
X203132275Y-58501822D01*
X203004322Y-58395236D01*
X202826793Y-58295863D01*
X202826792Y-58295862D01*
X202826791Y-58295862D01*
X202706616Y-58257682D01*
X202632894Y-58234260D01*
X202632889Y-58234259D01*
X202632883Y-58234257D01*
X202564517Y-58219951D01*
X202482265Y-58206272D01*
X202278871Y-58201797D01*
X202218068Y-58206631D01*
X202209913Y-58207314D01*
X202209775Y-58207326D01*
X202209752Y-58207328D01*
X202209570Y-58207343D01*
X202207753Y-58207503D01*
X202200603Y-58208160D01*
X202200495Y-58208170D01*
X202200433Y-58208176D01*
X201701295Y-58255839D01*
X201701265Y-58255841D01*
X201701160Y-58255852D01*
X201694040Y-58256558D01*
X201691856Y-58256783D01*
X201683612Y-58257667D01*
X201341143Y-58295862D01*
X201185144Y-58313260D01*
X201179818Y-58313875D01*
X201176924Y-58314210D01*
X201175153Y-58314422D01*
X201167422Y-58315378D01*
X200670141Y-58378840D01*
X200662141Y-58379894D01*
X200660269Y-58380148D01*
X200655237Y-58380851D01*
X200652504Y-58381234D01*
X200382066Y-58420117D01*
X200156108Y-58452605D01*
X200147866Y-58453823D01*
X200146092Y-58454093D01*
X200138282Y-58455312D01*
X199643419Y-58534496D01*
X199635472Y-58535799D01*
X199633741Y-58536090D01*
X199627601Y-58537147D01*
X199625737Y-58537469D01*
X199625691Y-58537477D01*
X199625622Y-58537489D01*
X199132018Y-58624523D01*
X199131862Y-58624551D01*
X199131846Y-58624554D01*
X199123681Y-58626029D01*
X199121939Y-58626351D01*
X199121722Y-58626392D01*
X199114460Y-58627762D01*
X198621864Y-58722703D01*
X198614360Y-58724178D01*
X198612643Y-58724522D01*
X198604479Y-58726197D01*
X198113744Y-58828880D01*
X198106123Y-58830505D01*
X198104414Y-58830876D01*
X198096239Y-58832687D01*
X197607259Y-58943128D01*
X197599414Y-58944933D01*
X197597611Y-58945355D01*
X197589878Y-58947199D01*
X197102355Y-59065469D01*
X197094859Y-59067319D01*
X197092940Y-59067801D01*
X197085234Y-59069767D01*
X196599784Y-59195724D01*
X196591330Y-59197956D01*
X196589807Y-59198365D01*
X196582453Y-59200369D01*
X196099381Y-59333923D01*
X196092160Y-59335951D01*
X196091631Y-59336100D01*
X196090989Y-59336282D01*
X196089847Y-59336608D01*
X196082085Y-59338854D01*
X195601173Y-59480062D01*
X195595883Y-59481637D01*
X195593754Y-59482271D01*
X195593681Y-59482292D01*
X195593530Y-59482338D01*
X195591979Y-59482806D01*
X195583981Y-59485256D01*
X195105080Y-59634168D01*
X195097505Y-59636556D01*
X195095714Y-59637128D01*
X195088270Y-59639540D01*
X194611737Y-59796048D01*
X194603687Y-59798729D01*
X194602305Y-59799196D01*
X194594712Y-59801792D01*
X194120829Y-59965805D01*
X194113047Y-59968533D01*
X194111405Y-59969117D01*
X194104187Y-59971713D01*
X193632989Y-60143215D01*
X193632775Y-60143294D01*
X193625252Y-60146066D01*
X193623644Y-60146666D01*
X193623591Y-60146686D01*
X193623578Y-60146691D01*
X193616262Y-60149453D01*
X193147946Y-60328370D01*
X193140969Y-60331066D01*
X193139292Y-60331721D01*
X193139241Y-60331740D01*
X193139203Y-60331756D01*
X193131241Y-60334904D01*
X193131226Y-60334910D01*
X192665468Y-60521371D01*
X192658276Y-60524284D01*
X192656532Y-60524999D01*
X192649190Y-60528039D01*
X192186595Y-60721807D01*
X192179009Y-60725021D01*
X192177208Y-60725793D01*
X192170122Y-60728864D01*
X191711180Y-60929718D01*
X191711094Y-60929755D01*
X191710957Y-60929816D01*
X191703716Y-60933020D01*
X191703293Y-60933207D01*
X191701524Y-60933998D01*
X191694679Y-60937093D01*
X191549000Y-61003623D01*
X191491931Y-61029686D01*
X191395232Y-61073847D01*
X191350143Y-61094438D01*
X191339709Y-61099276D01*
X191336939Y-61100580D01*
X191252497Y-61145357D01*
X191252494Y-61145359D01*
X191088885Y-61266275D01*
X191037180Y-61313278D01*
X190923652Y-61435121D01*
X190923647Y-61435128D01*
X190897553Y-61476215D01*
X190880651Y-61491019D01*
X190867189Y-61509003D01*
X190854878Y-61513594D01*
X190844995Y-61522252D01*
X190822774Y-61525568D01*
X190801725Y-61533420D01*
X190788886Y-61530627D01*
X190775891Y-61532567D01*
X190755404Y-61523343D01*
X190733452Y-61518568D01*
X190716333Y-61505752D01*
X190712180Y-61503883D01*
X190705198Y-61497417D01*
X190563498Y-61355717D01*
X190534452Y-61309877D01*
X190529989Y-61297427D01*
X190399632Y-60933762D01*
X190379448Y-60877452D01*
X190376894Y-60869493D01*
X190362805Y-60819895D01*
X190360909Y-60815921D01*
X190340745Y-60773646D01*
X190306144Y-60701103D01*
X190306140Y-60701097D01*
X190305718Y-60700211D01*
X190304475Y-60698059D01*
X190289819Y-60665618D01*
X190288014Y-60662349D01*
X190252005Y-60607179D01*
X190204562Y-60525006D01*
X189791511Y-59809579D01*
X189791509Y-59809576D01*
X189791501Y-59809562D01*
X189716394Y-59700279D01*
X189716392Y-59700276D01*
X189716391Y-59700275D01*
X189559625Y-59538749D01*
X189559625Y-59538748D01*
X189376544Y-59407812D01*
X189376539Y-59407809D01*
X189173006Y-59311662D01*
X188955586Y-59253406D01*
X188731253Y-59234906D01*
X188731251Y-59234906D01*
X188731250Y-59234906D01*
X188731244Y-59234906D01*
X188507230Y-59256758D01*
X188507218Y-59256760D01*
X188290699Y-59318262D01*
X188290697Y-59318263D01*
X188170999Y-59375355D01*
X188170997Y-59375356D01*
X187453583Y-59789557D01*
X187453552Y-59789577D01*
X187344283Y-59864673D01*
X187344271Y-59864684D01*
X187182754Y-60021440D01*
X187182754Y-60021441D01*
X187051810Y-60204534D01*
X186955668Y-60408057D01*
X186955667Y-60408060D01*
X186897407Y-60625485D01*
X186897406Y-60625491D01*
X186894792Y-60657195D01*
X186869664Y-60722389D01*
X186813278Y-60763650D01*
X186796288Y-60768441D01*
X186771081Y-60773646D01*
X186676883Y-60815913D01*
X186676868Y-60815921D01*
X186655244Y-60828404D01*
X187255246Y-61867636D01*
X187855244Y-62906864D01*
X187855244Y-62906865D01*
X187876874Y-62894378D01*
X187960586Y-62833930D01*
X187977696Y-62814704D01*
X187994713Y-62804082D01*
X188008590Y-62789600D01*
X188023744Y-62785962D01*
X188036968Y-62777709D01*
X188057025Y-62777973D01*
X188076530Y-62773292D01*
X188097321Y-62778505D01*
X188106832Y-62778631D01*
X188111170Y-62780056D01*
X188117361Y-62782215D01*
X188152062Y-62798608D01*
X188205071Y-62812811D01*
X188209391Y-62814318D01*
X188210988Y-62815461D01*
X188222328Y-62819667D01*
X188668422Y-63034398D01*
X188720289Y-63081211D01*
X188738614Y-63148635D01*
X188717577Y-63215262D01*
X188676639Y-63253514D01*
X187634825Y-63855006D01*
X187566925Y-63871479D01*
X187529699Y-63863878D01*
X187334724Y-63791552D01*
X187334717Y-63791550D01*
X187267106Y-63774007D01*
X187267076Y-63774000D01*
X187102975Y-63745670D01*
X187102971Y-63745669D01*
X186899535Y-63748375D01*
X186899532Y-63748375D01*
X186700818Y-63791974D01*
X186634432Y-63813778D01*
X186556393Y-63843043D01*
X186556391Y-63843044D01*
X186378000Y-63940867D01*
X186377997Y-63940869D01*
X186297256Y-63996455D01*
X186290301Y-64001287D01*
X186288648Y-64002446D01*
X186282647Y-64006684D01*
X185874325Y-64297450D01*
X185868033Y-64301967D01*
X185866636Y-64302977D01*
X185859769Y-64307989D01*
X185455804Y-64605421D01*
X185449357Y-64610210D01*
X185449267Y-64610277D01*
X185449184Y-64610339D01*
X185449135Y-64610376D01*
X185447652Y-64611486D01*
X185441860Y-64615859D01*
X185441671Y-64616003D01*
X185042574Y-64919733D01*
X185036501Y-64924392D01*
X185035161Y-64925428D01*
X185028615Y-64930532D01*
X184634271Y-65240648D01*
X184634153Y-65240741D01*
X184634085Y-65240795D01*
X184628103Y-65245535D01*
X184626892Y-65246503D01*
X184620546Y-65251616D01*
X184231264Y-65567876D01*
X184224924Y-65573068D01*
X184223646Y-65574123D01*
X184217734Y-65579045D01*
X184217657Y-65579109D01*
X184217546Y-65579202D01*
X183860896Y-65878466D01*
X183860892Y-65878470D01*
X183860891Y-65878470D01*
X183833289Y-65901631D01*
X183827088Y-65906877D01*
X183825878Y-65907909D01*
X183821724Y-65911480D01*
X183819842Y-65913099D01*
X183514001Y-66178111D01*
X183447000Y-66236168D01*
X183446967Y-66236198D01*
X183360420Y-66320837D01*
X183340428Y-66342896D01*
X183340401Y-66342925D01*
X183339943Y-66343429D01*
X183339924Y-66343452D01*
X183219373Y-66507324D01*
X183219367Y-66507334D01*
X183134273Y-66692110D01*
X183134268Y-66692123D01*
X183111615Y-66758209D01*
X183111610Y-66758226D01*
X183075317Y-66901972D01*
X183070841Y-66919701D01*
X183060321Y-67086314D01*
X183058021Y-67122746D01*
X183086335Y-67324214D01*
X183103005Y-67392052D01*
X183103198Y-67392715D01*
X183103197Y-67392832D01*
X183103623Y-67394564D01*
X183103191Y-67394670D01*
X183102969Y-67462584D01*
X183065003Y-67521239D01*
X183042561Y-67536619D01*
X182801161Y-67665651D01*
X182801151Y-67665657D01*
X182531532Y-67845811D01*
X182531518Y-67845821D01*
X182280841Y-68051546D01*
X182051546Y-68280841D01*
X181845821Y-68531518D01*
X181845811Y-68531532D01*
X181665657Y-68801151D01*
X181665651Y-68801161D01*
X181515959Y-69081213D01*
X181466996Y-69131057D01*
X181398859Y-69146517D01*
X181369481Y-69141073D01*
X181322829Y-69126436D01*
X181120426Y-69105854D01*
X181120425Y-69105854D01*
X181050556Y-69105854D01*
X181050547Y-69105854D01*
X181050540Y-69105855D01*
X180884594Y-69119644D01*
X180884590Y-69119644D01*
X180688363Y-69173352D01*
X180506961Y-69265461D01*
X180448174Y-69303240D01*
X180379972Y-69351177D01*
X180231873Y-69490662D01*
X180164386Y-69568546D01*
X180164339Y-69568601D01*
X180159209Y-69574569D01*
X180158090Y-69575881D01*
X180152867Y-69582055D01*
X179830442Y-69966307D01*
X179830369Y-69966395D01*
X179825422Y-69972336D01*
X179824183Y-69973836D01*
X179820080Y-69978845D01*
X179819143Y-69979991D01*
X179702893Y-70123081D01*
X179502855Y-70369307D01*
X179497742Y-70375653D01*
X179496774Y-70376864D01*
X179492034Y-70382846D01*
X179491887Y-70383032D01*
X179181771Y-70777376D01*
X179181701Y-70777466D01*
X179176807Y-70783743D01*
X179176667Y-70783922D01*
X179175631Y-70785262D01*
X179170972Y-70791335D01*
X178867242Y-71190432D01*
X178867099Y-71190622D01*
X178862785Y-71196334D01*
X178861510Y-71198035D01*
X178856718Y-71204488D01*
X178856618Y-71204623D01*
X178692808Y-71427106D01*
X178559228Y-71608530D01*
X178554173Y-71615455D01*
X178553303Y-71616659D01*
X178548640Y-71623155D01*
X178400348Y-71831402D01*
X178345427Y-71874593D01*
X178299341Y-71883475D01*
X177423238Y-71883475D01*
X177389462Y-71878786D01*
X177374650Y-71874593D01*
X176401981Y-71599241D01*
X176373758Y-71587318D01*
X176206577Y-71490796D01*
X176086885Y-71433704D01*
X176086880Y-71433702D01*
X175870366Y-71372202D01*
X175870351Y-71372199D01*
X175646333Y-71350347D01*
X175646330Y-71350347D01*
X175646328Y-71350347D01*
X175421995Y-71368847D01*
X175204572Y-71427106D01*
X175204569Y-71427107D01*
X175001046Y-71523249D01*
X174817953Y-71654193D01*
X174817952Y-71654193D01*
X174661192Y-71815713D01*
X174661188Y-71815719D01*
X174586080Y-71925003D01*
X174586069Y-71925020D01*
X174171865Y-72642445D01*
X174171863Y-72642449D01*
X174114776Y-72762132D01*
X174053272Y-72978657D01*
X174053270Y-72978669D01*
X174031418Y-73202683D01*
X174031418Y-73202689D01*
X174031418Y-73202692D01*
X174038897Y-73293378D01*
X174049918Y-73427025D01*
X174108174Y-73644445D01*
X174121766Y-73673217D01*
X174132601Y-73742242D01*
X174104400Y-73806167D01*
X174092085Y-73818808D01*
X174072855Y-73835922D01*
X174012411Y-73919627D01*
X173999917Y-73941265D01*
X175039148Y-74541265D01*
X176078377Y-75141263D01*
X176090866Y-75119633D01*
X176090873Y-75119619D01*
X176133136Y-75025434D01*
X176138341Y-75000225D01*
X176171175Y-74938551D01*
X176232140Y-74904418D01*
X176249579Y-74901719D01*
X176281301Y-74899103D01*
X176498724Y-74840844D01*
X176702252Y-74744699D01*
X176885341Y-74613758D01*
X176896667Y-74602087D01*
X176942189Y-74572311D01*
X177294910Y-74440313D01*
X177364595Y-74435253D01*
X177425955Y-74468671D01*
X177459507Y-74529957D01*
X177454599Y-74599654D01*
X177445757Y-74618448D01*
X176553210Y-76164385D01*
X176502643Y-76212601D01*
X176441572Y-76226312D01*
X176408240Y-76225168D01*
X176408239Y-76225168D01*
X176207674Y-76259263D01*
X176207673Y-76259263D01*
X176140330Y-76277880D01*
X176140326Y-76277882D01*
X175984031Y-76335402D01*
X175809200Y-76439464D01*
X175658904Y-76576581D01*
X175612315Y-76628654D01*
X175559358Y-76693025D01*
X175559356Y-76693028D01*
X175453781Y-76866936D01*
X175404151Y-76971200D01*
X175400706Y-76978514D01*
X175399876Y-76980296D01*
X175396537Y-76987535D01*
X175188457Y-77443169D01*
X175188356Y-77443391D01*
X175186263Y-77448021D01*
X175185044Y-77450719D01*
X175184283Y-77452421D01*
X175184259Y-77452476D01*
X175181041Y-77459750D01*
X175180981Y-77459885D01*
X175180943Y-77459973D01*
X174980152Y-77918770D01*
X174977184Y-77925618D01*
X174977036Y-77925964D01*
X174976380Y-77927494D01*
X174976302Y-77927677D01*
X174976296Y-77927692D01*
X174973106Y-77935215D01*
X174911255Y-78082876D01*
X174779225Y-78398081D01*
X174776329Y-78405073D01*
X174776245Y-78405276D01*
X174775596Y-78406860D01*
X174775494Y-78407110D01*
X174772646Y-78414141D01*
X174586152Y-78879979D01*
X174583076Y-78887757D01*
X174582548Y-78889108D01*
X174582492Y-78889251D01*
X174582463Y-78889327D01*
X174579641Y-78896626D01*
X174579615Y-78896693D01*
X174579552Y-78896857D01*
X174400692Y-79365023D01*
X174400675Y-79365069D01*
X174397905Y-79372405D01*
X174397305Y-79374013D01*
X174394500Y-79381626D01*
X174394415Y-79381858D01*
X174222952Y-79852948D01*
X174220356Y-79860166D01*
X174219772Y-79861808D01*
X174217075Y-79869499D01*
X174217025Y-79869645D01*
X174052975Y-80343637D01*
X174050485Y-80350920D01*
X174050405Y-80351155D01*
X174050004Y-80352342D01*
X174047287Y-80360498D01*
X173890779Y-80837031D01*
X173888309Y-80844655D01*
X173887872Y-80846026D01*
X173887801Y-80846249D01*
X173886355Y-80850833D01*
X173885459Y-80853677D01*
X173736552Y-81332563D01*
X173734143Y-81340417D01*
X173733518Y-81342488D01*
X173731355Y-81349748D01*
X173590059Y-81830960D01*
X173587969Y-81838186D01*
X173587364Y-81840304D01*
X173585175Y-81848098D01*
X173451636Y-82331113D01*
X173451594Y-82331267D01*
X173451574Y-82331340D01*
X173449637Y-82338449D01*
X173449327Y-82339602D01*
X173449183Y-82340138D01*
X173446972Y-82348509D01*
X173321049Y-82833830D01*
X173319037Y-82841714D01*
X173318577Y-82843545D01*
X173316729Y-82851034D01*
X173198460Y-83338544D01*
X173196580Y-83346432D01*
X173196254Y-83347824D01*
X173194358Y-83356057D01*
X173083926Y-83845000D01*
X173082115Y-83853175D01*
X173081746Y-83854871D01*
X173080119Y-83862505D01*
X172977436Y-84353240D01*
X172975761Y-84361404D01*
X172975431Y-84363050D01*
X172973963Y-84370518D01*
X172973931Y-84370683D01*
X172972230Y-84379509D01*
X172879001Y-84863221D01*
X172877677Y-84870234D01*
X172877590Y-84870700D01*
X172877268Y-84872442D01*
X172875793Y-84880607D01*
X172875776Y-84880704D01*
X172875747Y-84880865D01*
X172788740Y-85374314D01*
X172788716Y-85374451D01*
X172787364Y-85382303D01*
X172787046Y-85384194D01*
X172787019Y-85384353D01*
X172787011Y-85384406D01*
X172785749Y-85392089D01*
X172706573Y-85886908D01*
X172706550Y-85887053D01*
X172706539Y-85887124D01*
X172705368Y-85894626D01*
X172705228Y-85895541D01*
X172705070Y-85896580D01*
X172704149Y-85902805D01*
X172703853Y-85904808D01*
X172632488Y-86401162D01*
X172632475Y-86401253D01*
X172631387Y-86409030D01*
X172631382Y-86409070D01*
X172631146Y-86410808D01*
X172631125Y-86410962D01*
X172631118Y-86411019D01*
X172630079Y-86418902D01*
X172566617Y-86916183D01*
X172565663Y-86923899D01*
X172565661Y-86923919D01*
X172565442Y-86925747D01*
X172565008Y-86929497D01*
X172564520Y-86933709D01*
X172508930Y-87432152D01*
X172508033Y-87440510D01*
X172507832Y-87442462D01*
X172507101Y-87449818D01*
X172507084Y-87449985D01*
X172507078Y-87450056D01*
X172459415Y-87949194D01*
X172459394Y-87949424D01*
X172458737Y-87956574D01*
X172458576Y-87958403D01*
X172457853Y-87967029D01*
X172453425Y-88022736D01*
X172453425Y-88022750D01*
X172452289Y-88166208D01*
X172452289Y-88166209D01*
X172454526Y-88201395D01*
X172455527Y-88214753D01*
X172456233Y-88224161D01*
X172456587Y-88226029D01*
X172457186Y-88233387D01*
X172475643Y-88326468D01*
X172483462Y-88367675D01*
X172494156Y-88424042D01*
X172495024Y-88426961D01*
X172495438Y-88428637D01*
X172496758Y-88432947D01*
X172542705Y-88542099D01*
X172543096Y-88543039D01*
X172548323Y-88555749D01*
X172557612Y-88578332D01*
X172564909Y-88647819D01*
X172533479Y-88710221D01*
X172473302Y-88745724D01*
X172442934Y-88749500D01*
X172344798Y-88749500D01*
X172294977Y-88739051D01*
X171882327Y-88557997D01*
X171753742Y-88501579D01*
X171736013Y-88494001D01*
X171736007Y-88493999D01*
X171736002Y-88493997D01*
X171711913Y-88486730D01*
X171696448Y-88480915D01*
X171661204Y-88464907D01*
X171661184Y-88464900D01*
X171442932Y-88409905D01*
X171442925Y-88409904D01*
X171398859Y-88406436D01*
X171310729Y-88399500D01*
X171310727Y-88399500D01*
X170282303Y-88399500D01*
X170282288Y-88399501D01*
X170150098Y-88409904D01*
X170150091Y-88409905D01*
X169931833Y-88464902D01*
X169931830Y-88464903D01*
X169726889Y-88557991D01*
X169726879Y-88557997D01*
X169541866Y-88686174D01*
X169541854Y-88686184D01*
X169382696Y-88845342D01*
X169382686Y-88845354D01*
X169254509Y-89030367D01*
X169254503Y-89030377D01*
X169161415Y-89235318D01*
X169161414Y-89235321D01*
X169106417Y-89453579D01*
X169106416Y-89453586D01*
X169096012Y-89585777D01*
X168177045Y-89585777D01*
X168181291Y-89442226D01*
X168181357Y-89440453D01*
X168186220Y-89330880D01*
X168205319Y-88900552D01*
X168205401Y-88898959D01*
X168237345Y-88359409D01*
X168237464Y-88357637D01*
X168247439Y-88222942D01*
X168277376Y-87818681D01*
X168277506Y-87817087D01*
X168325381Y-87278783D01*
X168325551Y-87277012D01*
X168353380Y-87009067D01*
X168381379Y-86739468D01*
X168381578Y-86737689D01*
X168413367Y-86470168D01*
X168445345Y-86201050D01*
X168445555Y-86199394D01*
X168517264Y-85663639D01*
X168517485Y-85662076D01*
X168597093Y-85127526D01*
X168597368Y-85125772D01*
X168638937Y-84872420D01*
X168684863Y-84592498D01*
X168685166Y-84590739D01*
X168780548Y-84058745D01*
X168780827Y-84057249D01*
X168884088Y-83526602D01*
X168884436Y-83524890D01*
X168995491Y-82996012D01*
X168995829Y-82994457D01*
X169114722Y-82467144D01*
X169115072Y-82465640D01*
X169241755Y-81940105D01*
X169242160Y-81938477D01*
X169376575Y-81414968D01*
X169376993Y-81413391D01*
X169519131Y-80891928D01*
X169519584Y-80890311D01*
X169669412Y-80371020D01*
X169669894Y-80369394D01*
X169827377Y-79852393D01*
X169827878Y-79850790D01*
X169993019Y-79336071D01*
X169993505Y-79334596D01*
X170166249Y-78822341D01*
X170166763Y-78820856D01*
X170347015Y-78311339D01*
X170347625Y-78309656D01*
X170486354Y-77935215D01*
X170535355Y-77802956D01*
X170535987Y-77801288D01*
X170731234Y-77297298D01*
X170731806Y-77295853D01*
X170934491Y-76794783D01*
X170935167Y-76793148D01*
X170977400Y-76693025D01*
X171145212Y-76295188D01*
X171145868Y-76293665D01*
X171272183Y-76006151D01*
X174626408Y-76006151D01*
X174626408Y-76006152D01*
X174734638Y-76068638D01*
X174734658Y-76068648D01*
X174828844Y-76110912D01*
X174828843Y-76110912D01*
X175000546Y-76146365D01*
X175175798Y-76141267D01*
X175345146Y-76095891D01*
X175499469Y-76012680D01*
X175630440Y-75896127D01*
X175690891Y-75812413D01*
X175703378Y-75790783D01*
X174988907Y-75378285D01*
X174988906Y-75378285D01*
X174626408Y-76006151D01*
X171272183Y-76006151D01*
X171363312Y-75798728D01*
X171363915Y-75797382D01*
X171588646Y-75305727D01*
X171589299Y-75304324D01*
X171791689Y-74878320D01*
X173534703Y-74878320D01*
X173539802Y-75053572D01*
X173585178Y-75222918D01*
X173668390Y-75377244D01*
X173784943Y-75508215D01*
X173868652Y-75568662D01*
X173976888Y-75631151D01*
X174339386Y-75003284D01*
X174339386Y-75003283D01*
X173624916Y-74590785D01*
X173612429Y-74612417D01*
X173570158Y-74706618D01*
X173570157Y-74706620D01*
X173534703Y-74878320D01*
X171791689Y-74878320D01*
X171821241Y-74816118D01*
X171822039Y-74814469D01*
X172061113Y-74329862D01*
X172061876Y-74328343D01*
X172308175Y-73847153D01*
X172308895Y-73845772D01*
X172562256Y-73368324D01*
X172563043Y-73366868D01*
X172823456Y-72893179D01*
X172824253Y-72891755D01*
X173091621Y-72422001D01*
X173092430Y-72420604D01*
X173366667Y-71954932D01*
X173367595Y-71953383D01*
X173406751Y-71889087D01*
X173648698Y-71491796D01*
X173649546Y-71490426D01*
X173937558Y-71032862D01*
X173938371Y-71031594D01*
X174233008Y-70578505D01*
X174233921Y-70577121D01*
X174535285Y-70128345D01*
X174536196Y-70127011D01*
X174844166Y-69682731D01*
X174845069Y-69681450D01*
X175159478Y-69241908D01*
X175160551Y-69240432D01*
X175173196Y-69223296D01*
X175481438Y-68805564D01*
X175482463Y-68804197D01*
X175809720Y-68374152D01*
X175810801Y-68372755D01*
X176144352Y-67947631D01*
X176145428Y-67946279D01*
X176485350Y-67525982D01*
X176486299Y-67524826D01*
X176832410Y-67109583D01*
X176833476Y-67108322D01*
X177185726Y-66698199D01*
X177186738Y-66697039D01*
X177544967Y-66292218D01*
X177546000Y-66291067D01*
X177910173Y-65891589D01*
X177911272Y-65890401D01*
X178281314Y-65496346D01*
X178282430Y-65495176D01*
X178658193Y-65106700D01*
X178659396Y-65105475D01*
X179040883Y-64722575D01*
X179041990Y-64721480D01*
X179429183Y-64344177D01*
X179430304Y-64343101D01*
X179822976Y-63971617D01*
X179824172Y-63970502D01*
X180222267Y-63604889D01*
X180223474Y-63603796D01*
X180626947Y-63244092D01*
X180628209Y-63242983D01*
X180990023Y-62929894D01*
X186165359Y-62929894D01*
X186165359Y-62929895D01*
X186227841Y-63038118D01*
X186227843Y-63038122D01*
X186288295Y-63121840D01*
X186419266Y-63238393D01*
X186573592Y-63321605D01*
X186742938Y-63366981D01*
X186918190Y-63372080D01*
X187089889Y-63336626D01*
X187184092Y-63294356D01*
X187184100Y-63294352D01*
X187205726Y-63281866D01*
X186793226Y-62567396D01*
X186793225Y-62567396D01*
X186165359Y-62929894D01*
X180990023Y-62929894D01*
X181036843Y-62889379D01*
X181038201Y-62888223D01*
X181080783Y-62852462D01*
X181080789Y-62852457D01*
X181452070Y-62540655D01*
X181453408Y-62539549D01*
X181872339Y-62198163D01*
X181873558Y-62197184D01*
X182241571Y-61906238D01*
X185650144Y-61906238D01*
X185685598Y-62077939D01*
X185727863Y-62172128D01*
X185727873Y-62172147D01*
X185790357Y-62280374D01*
X185790358Y-62280374D01*
X186418224Y-61917876D01*
X186418224Y-61917875D01*
X186005726Y-61203406D01*
X185984090Y-61215898D01*
X185900388Y-61276339D01*
X185900380Y-61276346D01*
X185783831Y-61407311D01*
X185700619Y-61561637D01*
X185655243Y-61730985D01*
X185650144Y-61906238D01*
X182241571Y-61906238D01*
X182297745Y-61861828D01*
X182298861Y-61860960D01*
X182727797Y-61532035D01*
X182729192Y-61530981D01*
X183162859Y-61208498D01*
X183164244Y-61207483D01*
X183602677Y-60891411D01*
X183604009Y-60890466D01*
X184047098Y-60580890D01*
X184048394Y-60579999D01*
X184496044Y-60276984D01*
X184497478Y-60276029D01*
X184949393Y-59979774D01*
X184950841Y-59978839D01*
X185407291Y-59689167D01*
X185408544Y-59688385D01*
X185869239Y-59405485D01*
X185870617Y-59404654D01*
X186335328Y-59128664D01*
X186336711Y-59127856D01*
X186805457Y-58858762D01*
X186807010Y-58857887D01*
X187179884Y-58651099D01*
X187279597Y-58595800D01*
X187281059Y-58595003D01*
X187757594Y-58339864D01*
X187759046Y-58339100D01*
X188239349Y-58091010D01*
X188240738Y-58090307D01*
X188724535Y-57849405D01*
X188726063Y-57848657D01*
X189213399Y-57614919D01*
X189214890Y-57614217D01*
X189462377Y-57499986D01*
X202696513Y-57499986D01*
X202707006Y-57602697D01*
X202762153Y-57769119D01*
X202762155Y-57769124D01*
X202854196Y-57918345D01*
X202978166Y-58042315D01*
X203127387Y-58134356D01*
X203127392Y-58134358D01*
X203293814Y-58189505D01*
X203293821Y-58189506D01*
X203396531Y-58199999D01*
X203421512Y-58199998D01*
X203421512Y-57375000D01*
X202696513Y-57375000D01*
X202696513Y-57499986D01*
X189462377Y-57499986D01*
X189705710Y-57387672D01*
X189707100Y-57387042D01*
X190201216Y-57167776D01*
X190202725Y-57167120D01*
X190700018Y-56955187D01*
X190701443Y-56954592D01*
X191201757Y-56750059D01*
X191203366Y-56749415D01*
X191706541Y-56552342D01*
X191708192Y-56551709D01*
X191846157Y-56500013D01*
X202696512Y-56500013D01*
X202696512Y-56625000D01*
X203421512Y-56625000D01*
X203421512Y-55799999D01*
X203396541Y-55800000D01*
X203396522Y-55800001D01*
X203293814Y-55810494D01*
X203127392Y-55865641D01*
X203127387Y-55865643D01*
X202978166Y-55957684D01*
X202854196Y-56081654D01*
X202762155Y-56230875D01*
X202762153Y-56230880D01*
X202707006Y-56397302D01*
X202707005Y-56397309D01*
X202696512Y-56500013D01*
X191846157Y-56500013D01*
X192214201Y-56362106D01*
X192215838Y-56361506D01*
X192724678Y-56179374D01*
X192726294Y-56178809D01*
X193237824Y-56004200D01*
X193239405Y-56003674D01*
X193753331Y-55836689D01*
X193755035Y-55836149D01*
X194271489Y-55676745D01*
X194273045Y-55676278D01*
X194791738Y-55524543D01*
X194793389Y-55524073D01*
X195314309Y-55380012D01*
X195315994Y-55379561D01*
X195838874Y-55243246D01*
X195840523Y-55242828D01*
X196365576Y-55114206D01*
X196367094Y-55113846D01*
X196893974Y-54993003D01*
X196895603Y-54992643D01*
X197424111Y-54879624D01*
X197425663Y-54879303D01*
X197955884Y-54774091D01*
X197957621Y-54773760D01*
X198489123Y-54676437D01*
X198490856Y-54676133D01*
X199023856Y-54586657D01*
X199025514Y-54586392D01*
X199559860Y-54504793D01*
X199561430Y-54504566D01*
X200096863Y-54430885D01*
X200098486Y-54430674D01*
X200634992Y-54364910D01*
X200636759Y-54364707D01*
X201174070Y-54306895D01*
X201175662Y-54306735D01*
X201713797Y-54256870D01*
X201715596Y-54256717D01*
X202254469Y-54214807D01*
X202256100Y-54214693D01*
X202795448Y-54180760D01*
X202797156Y-54180665D01*
X203337025Y-54154706D01*
X203338760Y-54154636D01*
X203878871Y-54136662D01*
X203880487Y-54136620D01*
X204420950Y-54126631D01*
X204422640Y-54126612D01*
X204963068Y-54124615D01*
X204964812Y-54124621D01*
G37*
%TD.AperFunction*%
%TD*%
%TA.AperFunction,Conductor*%
%TO.N,/EN*%
G36*
X212398298Y-117012548D02*
G01*
X212404201Y-117019281D01*
X212404591Y-117020729D01*
X212480534Y-117397689D01*
X212480534Y-117402311D01*
X212404591Y-117779270D01*
X212399597Y-117786703D01*
X212390810Y-117788429D01*
X212389362Y-117788039D01*
X212363513Y-117779270D01*
X212296630Y-117756580D01*
X211695627Y-117552693D01*
X211688894Y-117546790D01*
X211687686Y-117541613D01*
X211687686Y-117258386D01*
X211691113Y-117250113D01*
X211695627Y-117247306D01*
X212389364Y-117011960D01*
X212398298Y-117012548D01*
G37*
%TD.AperFunction*%
%TD*%
%TA.AperFunction,Conductor*%
%TO.N,Net-(D1-A)*%
G36*
X206395085Y-56777878D02*
G01*
X206400963Y-56783833D01*
X206939642Y-58012296D01*
X206939826Y-58021249D01*
X206933626Y-58027710D01*
X206928927Y-58028695D01*
X206449055Y-58028695D01*
X206444767Y-58027881D01*
X205622096Y-57703808D01*
X205615654Y-57697587D01*
X205615068Y-57689950D01*
X205794975Y-57004850D01*
X205800389Y-56997722D01*
X205802170Y-56996875D01*
X206386137Y-56777579D01*
X206395085Y-56777878D01*
G37*
%TD.AperFunction*%
%TD*%
%TA.AperFunction,Conductor*%
%TO.N,Net-(D3-A)*%
G36*
X233985439Y-74637864D02*
G01*
X234731189Y-74862043D01*
X234738126Y-74867707D01*
X234739117Y-74876298D01*
X234535271Y-75631309D01*
X234529806Y-75638403D01*
X234523585Y-75639953D01*
X233775552Y-75615030D01*
X233767669Y-75611609D01*
X233425218Y-75269158D01*
X233421791Y-75260885D01*
X233424778Y-75253076D01*
X233973364Y-74641258D01*
X233981437Y-74637387D01*
X233985439Y-74637864D01*
G37*
%TD.AperFunction*%
%TD*%
%TA.AperFunction,Conductor*%
%TO.N,Net-(D2-A)*%
G36*
X222668709Y-62056065D02*
G01*
X223241839Y-62227632D01*
X223248782Y-62233288D01*
X223249693Y-62242196D01*
X223249481Y-62242836D01*
X222764406Y-63578147D01*
X222758360Y-63584753D01*
X222749414Y-63585149D01*
X222745136Y-63582425D01*
X222405927Y-63243216D01*
X222403729Y-63240164D01*
X222039802Y-62510265D01*
X222039178Y-62501332D01*
X222043488Y-62495513D01*
X222658585Y-62057744D01*
X222667310Y-62055739D01*
X222668709Y-62056065D01*
G37*
%TD.AperFunction*%
%TD*%
%TA.AperFunction,Conductor*%
%TO.N,Net-(D5-A)*%
G36*
X233280355Y-108269362D02*
G01*
X233284770Y-108272863D01*
X233738832Y-108861432D01*
X233741172Y-108870076D01*
X233740865Y-108871625D01*
X233583690Y-109454585D01*
X233578227Y-109461681D01*
X233569347Y-109462836D01*
X233569206Y-109462797D01*
X232352753Y-109118434D01*
X232345726Y-109112883D01*
X232344240Y-109107176D01*
X232344240Y-108624139D01*
X232347667Y-108615866D01*
X232351838Y-108613181D01*
X233271406Y-108269052D01*
X233280355Y-108269362D01*
G37*
%TD.AperFunction*%
%TD*%
%TA.AperFunction,Conductor*%
%TO.N,/EN*%
G36*
X205250774Y-114594760D02*
G01*
X205253132Y-114598147D01*
X205803038Y-115794690D01*
X205803379Y-115803638D01*
X205799966Y-115808506D01*
X205107559Y-116394601D01*
X205099030Y-116397331D01*
X205092441Y-116394601D01*
X204400033Y-115808506D01*
X204395932Y-115800546D01*
X204396960Y-115794693D01*
X204946868Y-114598146D01*
X204953437Y-114592061D01*
X204957499Y-114591333D01*
X205242501Y-114591333D01*
X205250774Y-114594760D01*
G37*
%TD.AperFunction*%
%TD*%
%TA.AperFunction,Conductor*%
%TO.N,Net-(D12-A)*%
G36*
X189399982Y-61143977D02*
G01*
X189407782Y-61148375D01*
X189409587Y-61151644D01*
X189666943Y-61869606D01*
X189666509Y-61878550D01*
X189664202Y-61881827D01*
X189321761Y-62224268D01*
X189313488Y-62227695D01*
X189308413Y-62226537D01*
X188562071Y-61867280D01*
X188556103Y-61860604D01*
X188555548Y-61855201D01*
X188660307Y-61065896D01*
X188664791Y-61058147D01*
X188673312Y-61055822D01*
X189399982Y-61143977D01*
G37*
%TD.AperFunction*%
%TD*%
M02*
