%TF.GenerationSoftware,KiCad,Pcbnew,9.0.7-9.0.7~ubuntu24.04.1*%
%TF.CreationDate,2026-01-07T15:42:35+05:30*%
%TF.ProjectId,RPI_Cam3_RL,5250495f-4361-46d3-935f-524c2e6b6963,rev?*%
%TF.SameCoordinates,Original*%
%TF.FileFunction,Copper,L2,Bot*%
%TF.FilePolarity,Positive*%
%FSLAX46Y46*%
G04 Gerber Fmt 4.6, Leading zero omitted, Abs format (unit mm)*
G04 Created by KiCad (PCBNEW 9.0.7-9.0.7~ubuntu24.04.1) date 2026-01-07 15:42:35*
%MOMM*%
%LPD*%
G01*
G04 APERTURE LIST*
G04 Aperture macros list*
%AMRoundRect*
0 Rectangle with rounded corners*
0 $1 Rounding radius*
0 $2 $3 $4 $5 $6 $7 $8 $9 X,Y pos of 4 corners*
0 Add a 4 corners polygon primitive as box body*
4,1,4,$2,$3,$4,$5,$6,$7,$8,$9,$2,$3,0*
0 Add four circle primitives for the rounded corners*
1,1,$1+$1,$2,$3*
1,1,$1+$1,$4,$5*
1,1,$1+$1,$6,$7*
1,1,$1+$1,$8,$9*
0 Add four rect primitives between the rounded corners*
20,1,$1+$1,$2,$3,$4,$5,0*
20,1,$1+$1,$4,$5,$6,$7,0*
20,1,$1+$1,$6,$7,$8,$9,0*
20,1,$1+$1,$8,$9,$2,$3,0*%
%AMFreePoly0*
4,1,23,0.500000,-0.750000,0.000000,-0.750000,0.000000,-0.745722,-0.065263,-0.745722,-0.191342,-0.711940,-0.304381,-0.646677,-0.396677,-0.554381,-0.461940,-0.441342,-0.495722,-0.315263,-0.495722,-0.250000,-0.500000,-0.250000,-0.500000,0.250000,-0.495722,0.250000,-0.495722,0.315263,-0.461940,0.441342,-0.396677,0.554381,-0.304381,0.646677,-0.191342,0.711940,-0.065263,0.745722,0.000000,0.745722,
0.000000,0.750000,0.500000,0.750000,0.500000,-0.750000,0.500000,-0.750000,$1*%
%AMFreePoly1*
4,1,23,0.000000,0.745722,0.065263,0.745722,0.191342,0.711940,0.304381,0.646677,0.396677,0.554381,0.461940,0.441342,0.495722,0.315263,0.495722,0.250000,0.500000,0.250000,0.500000,-0.250000,0.495722,-0.250000,0.495722,-0.315263,0.461940,-0.441342,0.396677,-0.554381,0.304381,-0.646677,0.191342,-0.711940,0.065263,-0.745722,0.000000,-0.745722,0.000000,-0.750000,-0.500000,-0.750000,
-0.500000,0.750000,0.000000,0.750000,0.000000,0.745722,0.000000,0.745722,$1*%
G04 Aperture macros list end*
%TA.AperFunction,SMDPad,CuDef*%
%ADD10RoundRect,0.250000X0.475000X-0.337500X0.475000X0.337500X-0.475000X0.337500X-0.475000X-0.337500X0*%
%TD*%
%TA.AperFunction,SMDPad,CuDef*%
%ADD11FreePoly0,90.000000*%
%TD*%
%TA.AperFunction,SMDPad,CuDef*%
%ADD12FreePoly1,90.000000*%
%TD*%
%TA.AperFunction,ComponentPad*%
%ADD13RoundRect,0.250000X-0.600000X-0.725000X0.600000X-0.725000X0.600000X0.725000X-0.600000X0.725000X0*%
%TD*%
%TA.AperFunction,ComponentPad*%
%ADD14O,1.700000X1.950000*%
%TD*%
%TA.AperFunction,SMDPad,CuDef*%
%ADD15RoundRect,0.250000X1.000000X0.650000X-1.000000X0.650000X-1.000000X-0.650000X1.000000X-0.650000X0*%
%TD*%
%TA.AperFunction,SMDPad,CuDef*%
%ADD16RoundRect,0.250000X0.450000X-0.350000X0.450000X0.350000X-0.450000X0.350000X-0.450000X-0.350000X0*%
%TD*%
%TA.AperFunction,SMDPad,CuDef*%
%ADD17RoundRect,0.200000X0.200000X-0.750000X0.200000X0.750000X-0.200000X0.750000X-0.200000X-0.750000X0*%
%TD*%
%TA.AperFunction,SMDPad,CuDef*%
%ADD18RoundRect,0.250000X-0.450000X0.350000X-0.450000X-0.350000X0.450000X-0.350000X0.450000X0.350000X0*%
%TD*%
%TA.AperFunction,ViaPad*%
%ADD19C,1.500000*%
%TD*%
%TA.AperFunction,ViaPad*%
%ADD20C,0.800000*%
%TD*%
%TA.AperFunction,Conductor*%
%ADD21C,1.000000*%
%TD*%
%TA.AperFunction,Conductor*%
%ADD22C,0.300000*%
%TD*%
G04 APERTURE END LIST*
D10*
%TO.P,C1,1*%
%TO.N,Net-(JP1-A)*%
X218900000Y-112137500D03*
%TO.P,C1,2*%
%TO.N,GND*%
X218900000Y-110062500D03*
%TD*%
D11*
%TO.P,JP1,1,A*%
%TO.N,Net-(JP1-A)*%
X213500000Y-111800000D03*
D12*
%TO.P,JP1,2,B*%
%TO.N,Net-(DP1-K)*%
X213500000Y-110500000D03*
%TD*%
D13*
%TO.P,J1,1,Pin_1*%
%TO.N,+5V*%
X202600000Y-116400000D03*
D14*
%TO.P,J1,2,Pin_2*%
%TO.N,/EN*%
X205100000Y-116400000D03*
%TO.P,J1,3,Pin_3*%
%TO.N,GND*%
X207600000Y-116400000D03*
%TD*%
D15*
%TO.P,DP1,1,K*%
%TO.N,Net-(DP1-K)*%
X207300000Y-111200000D03*
%TO.P,DP1,2,A*%
%TO.N,+5V*%
X203300000Y-111200000D03*
%TD*%
D16*
%TO.P,RP2,1*%
%TO.N,GND*%
X215200000Y-117400000D03*
%TO.P,RP2,2*%
%TO.N,Net-(Q1-G)*%
X215200000Y-115400000D03*
%TD*%
D17*
%TO.P,Q1,1,G*%
%TO.N,Net-(Q1-G)*%
X219850000Y-122200000D03*
%TO.P,Q1,2,S*%
%TO.N,Net-(Q1-S)*%
X217950000Y-122200000D03*
%TO.P,Q1,3,D*%
%TO.N,Net-(JP1-A)*%
X218900000Y-119200000D03*
%TD*%
D10*
%TO.P,C2,1*%
%TO.N,Net-(JP1-A)*%
X216200000Y-112137500D03*
%TO.P,C2,2*%
%TO.N,GND*%
X216200000Y-110062500D03*
%TD*%
D16*
%TO.P,RP1,1*%
%TO.N,/EN*%
X212500000Y-117400000D03*
%TO.P,RP1,2*%
%TO.N,Net-(Q1-G)*%
X212500000Y-115400000D03*
%TD*%
D18*
%TO.P,F1,1*%
%TO.N,Net-(DP1-K)*%
X210700000Y-110200000D03*
%TO.P,F1,2*%
%TO.N,Net-(JP1-A)*%
X210700000Y-112200000D03*
%TD*%
D19*
%TO.N,GND*%
X194000000Y-119000000D03*
X230627595Y-74887150D03*
X216000000Y-63000000D03*
X233500000Y-101500000D03*
X234000000Y-84500000D03*
X201000000Y-61500000D03*
X206221833Y-120796477D03*
X179716070Y-106705804D03*
X199000000Y-62000000D03*
X191081160Y-117302239D03*
X196000000Y-120000000D03*
X178666070Y-76705804D03*
X204121833Y-60796477D03*
X177000000Y-80000000D03*
X176000000Y-97500000D03*
X214000000Y-62500000D03*
X176500000Y-82000000D03*
X189262505Y-65340714D03*
X219262506Y-64290714D03*
X234000000Y-99500000D03*
X234500000Y-86500000D03*
X235171833Y-89746477D03*
X221081160Y-116252239D03*
X175500000Y-95500000D03*
X175171833Y-91846477D03*
X231677595Y-104887150D03*
D20*
%TO.N,/EN*%
X212480000Y-117400000D03*
D19*
%TO.N,Net-(Q1-S)*%
X173000000Y-79500000D03*
X233000000Y-71000000D03*
X173500000Y-77500000D03*
X184900000Y-63300000D03*
X225000000Y-119000000D03*
X191000000Y-122500000D03*
X238500000Y-85500000D03*
X201000000Y-57000000D03*
X226500000Y-117500000D03*
X171500000Y-97000000D03*
X231500000Y-69500000D03*
X177000000Y-111000000D03*
X210500000Y-124500000D03*
X193000000Y-123000000D03*
X217000000Y-59000000D03*
X183400000Y-64700000D03*
X178500000Y-112500000D03*
X208500000Y-125000000D03*
X171000000Y-95000000D03*
X237000000Y-103000000D03*
X236500000Y-105000000D03*
X219000000Y-59500000D03*
X239000000Y-87500000D03*
X199000000Y-57500000D03*
%TD*%
D21*
%TO.N,Net-(JP1-A)*%
X213500000Y-111800000D02*
X213837500Y-112137500D01*
X218900000Y-112137500D02*
X216200000Y-112137500D01*
X213837500Y-112137500D02*
X216200000Y-112137500D01*
X213100000Y-112200000D02*
X213500000Y-111800000D01*
X210700000Y-112200000D02*
X213100000Y-112200000D01*
X218900000Y-112137500D02*
X218900000Y-119200000D01*
%TO.N,+5V*%
X203300000Y-111600000D02*
X202600000Y-112300000D01*
X203300000Y-111200000D02*
X203300000Y-111600000D01*
X202600000Y-112300000D02*
X202600000Y-116400000D01*
D22*
%TO.N,/EN*%
X210300000Y-114400000D02*
X210300000Y-116900000D01*
X205490000Y-114000000D02*
X209900000Y-114000000D01*
X210800000Y-117400000D02*
X212500000Y-117400000D01*
X209900000Y-114000000D02*
X210300000Y-114400000D01*
X210300000Y-116900000D02*
X210800000Y-117400000D01*
X205100000Y-114390000D02*
X205490000Y-114000000D01*
X205100000Y-116400000D02*
X205100000Y-114390000D01*
%TO.N,Net-(Q1-G)*%
X217240000Y-115400000D02*
X217600000Y-115760000D01*
X219850000Y-121050000D02*
X219850000Y-122200000D01*
X217890000Y-120700000D02*
X219500000Y-120700000D01*
X219500000Y-120700000D02*
X219850000Y-121050000D01*
X215200000Y-115400000D02*
X217240000Y-115400000D01*
X217600000Y-115760000D02*
X217600000Y-120410000D01*
X212500000Y-115400000D02*
X215200000Y-115400000D01*
X217600000Y-120410000D02*
X217890000Y-120700000D01*
D21*
%TO.N,Net-(DP1-K)*%
X210700000Y-110200000D02*
X213200000Y-110200000D01*
X207300000Y-111200000D02*
X207300000Y-110900000D01*
X207300000Y-110900000D02*
X208000000Y-110200000D01*
X208000000Y-110200000D02*
X210700000Y-110200000D01*
X213200000Y-110200000D02*
X213500000Y-110500000D01*
%TD*%
%TA.AperFunction,Conductor*%
%TO.N,+5V*%
G36*
X203305921Y-111207822D02*
G01*
X203748942Y-111867870D01*
X203899426Y-112092072D01*
X203901191Y-112100851D01*
X203898047Y-112106802D01*
X203103437Y-112913667D01*
X203095191Y-112917157D01*
X202111199Y-112917157D01*
X202102926Y-112913730D01*
X202099510Y-112905968D01*
X202064547Y-112106802D01*
X202054567Y-111878675D01*
X202057629Y-111870262D01*
X202060695Y-111867872D01*
X203290651Y-111204045D01*
X203299557Y-111203132D01*
X203305921Y-111207822D01*
G37*
%TD.AperFunction*%
%TD*%
%TA.AperFunction,Conductor*%
%TO.N,/EN*%
G36*
X205250774Y-114594760D02*
G01*
X205253132Y-114598147D01*
X205803038Y-115794690D01*
X205803379Y-115803638D01*
X205799966Y-115808506D01*
X205107559Y-116394601D01*
X205099030Y-116397331D01*
X205092441Y-116394601D01*
X204400033Y-115808506D01*
X204395932Y-115800546D01*
X204396960Y-115794693D01*
X204946868Y-114598146D01*
X204953437Y-114592061D01*
X204957499Y-114591333D01*
X205242501Y-114591333D01*
X205250774Y-114594760D01*
G37*
%TD.AperFunction*%
%TD*%
%TA.AperFunction,Conductor*%
%TO.N,Net-(Q1-S)*%
G36*
X205615603Y-53503740D02*
G01*
X206838101Y-53543760D01*
X206842096Y-53543956D01*
X208062640Y-53623955D01*
X208066678Y-53624286D01*
X209283953Y-53744177D01*
X209287885Y-53744630D01*
X210500589Y-53904285D01*
X210504556Y-53904873D01*
X211711414Y-54104127D01*
X211715356Y-54104845D01*
X212915006Y-54343470D01*
X212918869Y-54344303D01*
X214110103Y-54622060D01*
X214114038Y-54623046D01*
X214629714Y-54761220D01*
X215295513Y-54939620D01*
X215299339Y-54940713D01*
X216469886Y-55295795D01*
X216473669Y-55297010D01*
X217631908Y-55690180D01*
X217635717Y-55691543D01*
X218780432Y-56122383D01*
X218784201Y-56123872D01*
X219914246Y-56591951D01*
X219917934Y-56593550D01*
X220746018Y-56968751D01*
X221032046Y-57098349D01*
X221035714Y-57100084D01*
X222132695Y-57641055D01*
X222136304Y-57642909D01*
X223215012Y-58219490D01*
X223218509Y-58221433D01*
X224277805Y-58833018D01*
X224281257Y-58835088D01*
X225260856Y-59444241D01*
X225319934Y-59480978D01*
X225323336Y-59483171D01*
X226340336Y-60162709D01*
X226343668Y-60165015D01*
X226609725Y-60355669D01*
X227337875Y-60877453D01*
X227341134Y-60879870D01*
X228311497Y-61624457D01*
X228314676Y-61626980D01*
X229260176Y-62402930D01*
X229263233Y-62405523D01*
X230182869Y-63212023D01*
X230185804Y-63214683D01*
X231078583Y-64050862D01*
X231081468Y-64053655D01*
X231946344Y-64918531D01*
X231949138Y-64921417D01*
X232785313Y-65814192D01*
X232787979Y-65817133D01*
X233594460Y-66736748D01*
X233597074Y-66739829D01*
X233907380Y-67117939D01*
X234373019Y-67685323D01*
X234375542Y-67688502D01*
X235120129Y-68658865D01*
X235122546Y-68662124D01*
X235834981Y-69656327D01*
X235837290Y-69659663D01*
X236516822Y-70676654D01*
X236519021Y-70680065D01*
X237164903Y-71718728D01*
X237166989Y-71722208D01*
X237458042Y-72226327D01*
X237710901Y-72664292D01*
X237778552Y-72781466D01*
X237780523Y-72785013D01*
X238357090Y-73863695D01*
X238358944Y-73867304D01*
X238899915Y-74964285D01*
X238901650Y-74967953D01*
X239406441Y-76082048D01*
X239408055Y-76085771D01*
X239876125Y-77215793D01*
X239877616Y-77219567D01*
X240308456Y-78364282D01*
X240309823Y-78368102D01*
X240483037Y-78878374D01*
X240644669Y-79354527D01*
X240702972Y-79526280D01*
X240704214Y-79530144D01*
X240876376Y-80097686D01*
X241025809Y-80590301D01*
X241059273Y-80700615D01*
X241060387Y-80704517D01*
X241376953Y-81885961D01*
X241377939Y-81889896D01*
X241582339Y-82766518D01*
X241599018Y-82838052D01*
X241655683Y-83081072D01*
X241656539Y-83085039D01*
X241895149Y-84284618D01*
X241895876Y-84288610D01*
X242095122Y-85495420D01*
X242095717Y-85499434D01*
X242255363Y-86712065D01*
X242255827Y-86716096D01*
X242375712Y-87933318D01*
X242376044Y-87937362D01*
X242456041Y-89157874D01*
X242456240Y-89161927D01*
X242496260Y-90384396D01*
X242496326Y-90388453D01*
X242496326Y-91611546D01*
X242496260Y-91615603D01*
X242456240Y-92838072D01*
X242456041Y-92842125D01*
X242376044Y-94062637D01*
X242375712Y-94066681D01*
X242255827Y-95283903D01*
X242255363Y-95287934D01*
X242095717Y-96500565D01*
X242095122Y-96504579D01*
X241895876Y-97711389D01*
X241895149Y-97715381D01*
X241656539Y-98914960D01*
X241655683Y-98918927D01*
X241377939Y-100110103D01*
X241376953Y-100114038D01*
X241060387Y-101295482D01*
X241059273Y-101299384D01*
X240704214Y-102469855D01*
X240702972Y-102473719D01*
X240309823Y-103631897D01*
X240308456Y-103635717D01*
X239877616Y-104780432D01*
X239876125Y-104784206D01*
X239408055Y-105914228D01*
X239406441Y-105917951D01*
X238901650Y-107032046D01*
X238899915Y-107035714D01*
X238358944Y-108132695D01*
X238357090Y-108136304D01*
X237780523Y-109214986D01*
X237778552Y-109218533D01*
X237166989Y-110277791D01*
X237164903Y-110281271D01*
X236519021Y-111319934D01*
X236516822Y-111323345D01*
X235837290Y-112340336D01*
X235834981Y-112343672D01*
X235122546Y-113337875D01*
X235120129Y-113341134D01*
X234375542Y-114311497D01*
X234373019Y-114314676D01*
X233597085Y-115260157D01*
X233594460Y-115263251D01*
X232787995Y-116182848D01*
X232785286Y-116185837D01*
X232402328Y-116594717D01*
X231949166Y-117078553D01*
X231946344Y-117081468D01*
X231081468Y-117946344D01*
X231078553Y-117949166D01*
X230185837Y-118785286D01*
X230182848Y-118787995D01*
X229263251Y-119594460D01*
X229260157Y-119597085D01*
X228314676Y-120373019D01*
X228311497Y-120375542D01*
X227341134Y-121120129D01*
X227337875Y-121122546D01*
X226343672Y-121834981D01*
X226340336Y-121837290D01*
X225323345Y-122516822D01*
X225319934Y-122519021D01*
X224281271Y-123164903D01*
X224277791Y-123166989D01*
X223218533Y-123778552D01*
X223214986Y-123780523D01*
X222136304Y-124357090D01*
X222132695Y-124358944D01*
X221035714Y-124899915D01*
X221032046Y-124901650D01*
X219917951Y-125406441D01*
X219914228Y-125408055D01*
X218784206Y-125876125D01*
X218780432Y-125877616D01*
X217635717Y-126308456D01*
X217631897Y-126309823D01*
X216473719Y-126702972D01*
X216469855Y-126704214D01*
X215299384Y-127059273D01*
X215295482Y-127060387D01*
X214114038Y-127376953D01*
X214110103Y-127377939D01*
X212918927Y-127655683D01*
X212914960Y-127656539D01*
X211715381Y-127895149D01*
X211711389Y-127895876D01*
X210504579Y-128095122D01*
X210500565Y-128095717D01*
X209287934Y-128255363D01*
X209283903Y-128255827D01*
X208066681Y-128375712D01*
X208062637Y-128376044D01*
X206842125Y-128456041D01*
X206838072Y-128456240D01*
X205615603Y-128496260D01*
X205611546Y-128496326D01*
X204388454Y-128496326D01*
X204384397Y-128496260D01*
X203161927Y-128456240D01*
X203157874Y-128456041D01*
X201937362Y-128376044D01*
X201933318Y-128375712D01*
X200716096Y-128255827D01*
X200712065Y-128255363D01*
X199499434Y-128095717D01*
X199495420Y-128095122D01*
X198288610Y-127895876D01*
X198284618Y-127895149D01*
X197085039Y-127656539D01*
X197081085Y-127655685D01*
X196766518Y-127582339D01*
X195889896Y-127377939D01*
X195885961Y-127376953D01*
X194704517Y-127060387D01*
X194700615Y-127059273D01*
X194575217Y-127021234D01*
X193530144Y-126704214D01*
X193526293Y-126702976D01*
X193124847Y-126566703D01*
X192368102Y-126309823D01*
X192364282Y-126308456D01*
X191219567Y-125877616D01*
X191215793Y-125876125D01*
X190085771Y-125408055D01*
X190082048Y-125406441D01*
X188967953Y-124901650D01*
X188964285Y-124899915D01*
X187867304Y-124358944D01*
X187863695Y-124357090D01*
X186908464Y-123846509D01*
X186785008Y-123780520D01*
X186781466Y-123778552D01*
X186746014Y-123758084D01*
X185923768Y-123283360D01*
X185722208Y-123166989D01*
X185718728Y-123164903D01*
X184680065Y-122519021D01*
X184676654Y-122516822D01*
X183659663Y-121837290D01*
X183656327Y-121834981D01*
X182662124Y-121122546D01*
X182658865Y-121120129D01*
X181688502Y-120375542D01*
X181685323Y-120373019D01*
X181147808Y-119931893D01*
X180739829Y-119597074D01*
X180736748Y-119594460D01*
X179817133Y-118787979D01*
X179814192Y-118785313D01*
X178921417Y-117949138D01*
X178918531Y-117946344D01*
X178053655Y-117081468D01*
X178050862Y-117078583D01*
X177214683Y-116185804D01*
X177212023Y-116182869D01*
X176405523Y-115263233D01*
X176402930Y-115260176D01*
X175643128Y-114334353D01*
X175626980Y-114314676D01*
X175624457Y-114311497D01*
X174879870Y-113341134D01*
X174877453Y-113337875D01*
X174205356Y-112399963D01*
X174165015Y-112343668D01*
X174162709Y-112340336D01*
X174069402Y-112200692D01*
X173483171Y-111323336D01*
X173480978Y-111319934D01*
X172835088Y-110281257D01*
X172833010Y-110277791D01*
X172755964Y-110144343D01*
X172221433Y-109218509D01*
X172219490Y-109215012D01*
X171642909Y-108136304D01*
X171641055Y-108132695D01*
X171100084Y-107035714D01*
X171098349Y-107032046D01*
X170899397Y-106592950D01*
X170593550Y-105917934D01*
X170591944Y-105914228D01*
X170585583Y-105898872D01*
X170123872Y-104784201D01*
X170122383Y-104780432D01*
X170058722Y-104611290D01*
X169835475Y-104018136D01*
X169691543Y-103635717D01*
X169690176Y-103631897D01*
X169297010Y-102473669D01*
X169295795Y-102469886D01*
X168940713Y-101299339D01*
X168939620Y-101295513D01*
X168683956Y-100341359D01*
X168623046Y-100114038D01*
X168622060Y-100110103D01*
X168613639Y-100073988D01*
X168344303Y-98918869D01*
X168343470Y-98915006D01*
X168104845Y-97715356D01*
X168104123Y-97711389D01*
X168078987Y-97559146D01*
X167904873Y-96504556D01*
X167904282Y-96500565D01*
X167744630Y-95287885D01*
X167744177Y-95283953D01*
X167624286Y-94066678D01*
X167623955Y-94062637D01*
X167599558Y-93690411D01*
X167543956Y-92842096D01*
X167543759Y-92838072D01*
X167537617Y-92650466D01*
X167503740Y-91615603D01*
X167503674Y-91611546D01*
X167503674Y-91076801D01*
X172172660Y-91076801D01*
X172172660Y-91080770D01*
X172172974Y-91239842D01*
X172173046Y-91276237D01*
X172173067Y-91287003D01*
X172173068Y-91287248D01*
X172173068Y-91287249D01*
X172173157Y-91332690D01*
X172173195Y-91339597D01*
X172173212Y-91341497D01*
X172173295Y-91348174D01*
X172181259Y-91851313D01*
X172181421Y-91859535D01*
X172181459Y-91861168D01*
X172181675Y-91868960D01*
X172197619Y-92372487D01*
X172197903Y-92380499D01*
X172197962Y-92381976D01*
X172197972Y-92382218D01*
X172198131Y-92385869D01*
X172198325Y-92390332D01*
X172222193Y-92892635D01*
X172222578Y-92900172D01*
X172222678Y-92901979D01*
X172223183Y-92910544D01*
X172255045Y-93413174D01*
X172255542Y-93420549D01*
X172255556Y-93420755D01*
X172255630Y-93421796D01*
X172255695Y-93422716D01*
X172256303Y-93430802D01*
X172257669Y-93448012D01*
X172257669Y-93448016D01*
X172296088Y-93932498D01*
X172296092Y-93932541D01*
X172296767Y-93940637D01*
X172296934Y-93942547D01*
X172297288Y-93946433D01*
X172297661Y-93950519D01*
X172345345Y-94451152D01*
X172346122Y-94458995D01*
X172346302Y-94460745D01*
X172347166Y-94468823D01*
X172402836Y-94969262D01*
X172403804Y-94977649D01*
X172404010Y-94979374D01*
X172404972Y-94987160D01*
X172468471Y-95485991D01*
X172469506Y-95493878D01*
X172469754Y-95495718D01*
X172470920Y-95504095D01*
X172542349Y-96002166D01*
X172543498Y-96009960D01*
X172543816Y-96012059D01*
X172545020Y-96019793D01*
X172624293Y-96516488D01*
X172624318Y-96516646D01*
X172624330Y-96516716D01*
X172625569Y-96524293D01*
X172625893Y-96526228D01*
X172625906Y-96526301D01*
X172627275Y-96534284D01*
X172714511Y-97030299D01*
X172715922Y-97038134D01*
X172716273Y-97040039D01*
X172717698Y-97047607D01*
X172812718Y-97541889D01*
X172814151Y-97549201D01*
X172814508Y-97550988D01*
X172816175Y-97559146D01*
X172858661Y-97762722D01*
X172919045Y-98052055D01*
X172920718Y-98059912D01*
X172921105Y-98061695D01*
X172922807Y-98069391D01*
X172980159Y-98323980D01*
X173033448Y-98560534D01*
X173035294Y-98568575D01*
X173035652Y-98570107D01*
X173037507Y-98577905D01*
X173155845Y-99066982D01*
X173157571Y-99073998D01*
X173157622Y-99074205D01*
X173158091Y-99076082D01*
X173160166Y-99084242D01*
X173223578Y-99329280D01*
X173286321Y-99571735D01*
X173288359Y-99579475D01*
X173288855Y-99581333D01*
X173290907Y-99588888D01*
X173401316Y-99989303D01*
X173424684Y-100074048D01*
X173426832Y-100081717D01*
X173427313Y-100083409D01*
X173427347Y-100083526D01*
X173429540Y-100091129D01*
X173570964Y-100574062D01*
X173573201Y-100581588D01*
X173573215Y-100581635D01*
X173573745Y-100583394D01*
X173576112Y-100591136D01*
X173725198Y-101071885D01*
X173725206Y-101071909D01*
X173727546Y-101079358D01*
X173728095Y-101081079D01*
X173730594Y-101088814D01*
X173887312Y-101567278D01*
X173889861Y-101574953D01*
X173890509Y-101576878D01*
X173892978Y-101584121D01*
X174057202Y-102059908D01*
X174059576Y-102066703D01*
X174059656Y-102066931D01*
X174060309Y-102068778D01*
X174060366Y-102068939D01*
X174063118Y-102076618D01*
X174234864Y-102549779D01*
X174237550Y-102557093D01*
X174238153Y-102558716D01*
X174241042Y-102566392D01*
X174420252Y-103036767D01*
X174422976Y-103043838D01*
X174423683Y-103045652D01*
X174426727Y-103053371D01*
X174523512Y-103295799D01*
X174613354Y-103520839D01*
X174613399Y-103520952D01*
X174613416Y-103520993D01*
X174616277Y-103528079D01*
X174617066Y-103530010D01*
X174620091Y-103537333D01*
X174814103Y-104001818D01*
X174817180Y-104009103D01*
X174817774Y-104010495D01*
X174821113Y-104018234D01*
X175022276Y-104479187D01*
X175025459Y-104486405D01*
X175026148Y-104487953D01*
X175026192Y-104488050D01*
X175029645Y-104495718D01*
X175161017Y-104784206D01*
X175238310Y-104953937D01*
X175241556Y-104960994D01*
X175242419Y-104962849D01*
X175245790Y-104970021D01*
X175461463Y-105424424D01*
X175461572Y-105424651D01*
X175465119Y-105432048D01*
X175465925Y-105433711D01*
X175469313Y-105440634D01*
X175469366Y-105440742D01*
X175692327Y-105891927D01*
X175695794Y-105898872D01*
X175695897Y-105899078D01*
X175696698Y-105900667D01*
X175696762Y-105900793D01*
X175696807Y-105900882D01*
X175700184Y-105907516D01*
X175700239Y-105907623D01*
X175700295Y-105907733D01*
X175815066Y-106131014D01*
X175930512Y-106355610D01*
X175934180Y-106362674D01*
X175934231Y-106362772D01*
X175935050Y-106364334D01*
X175938675Y-106371183D01*
X176175853Y-106815176D01*
X176177936Y-106819037D01*
X176179725Y-106822354D01*
X176180644Y-106824042D01*
X176184425Y-106830921D01*
X176428519Y-107270959D01*
X176432203Y-107277541D01*
X176433123Y-107279172D01*
X176437234Y-107286384D01*
X176688430Y-107722795D01*
X176692174Y-107729242D01*
X176692309Y-107729472D01*
X176693293Y-107731151D01*
X176697387Y-107738074D01*
X176697513Y-107738285D01*
X176955335Y-108170250D01*
X176959712Y-108177514D01*
X176960761Y-108179238D01*
X176964621Y-108185529D01*
X177229233Y-108613338D01*
X177233382Y-108619991D01*
X177234288Y-108621431D01*
X177238782Y-108628511D01*
X177488697Y-109018619D01*
X177510338Y-109052400D01*
X177514480Y-109058813D01*
X177515214Y-109059941D01*
X177515553Y-109060461D01*
X177520079Y-109067345D01*
X177798239Y-109486777D01*
X177802810Y-109493609D01*
X177802871Y-109493699D01*
X177803933Y-109495272D01*
X177804023Y-109495404D01*
X177808078Y-109501364D01*
X178093010Y-109916590D01*
X178097638Y-109923275D01*
X178098597Y-109924647D01*
X178098754Y-109924872D01*
X178103193Y-109931177D01*
X178103258Y-109931269D01*
X178103328Y-109931368D01*
X178394398Y-110341471D01*
X178394480Y-110341585D01*
X178399072Y-110348001D01*
X178400197Y-110349560D01*
X178404917Y-110356047D01*
X178404956Y-110356100D01*
X178702790Y-110761969D01*
X178707389Y-110768182D01*
X178708717Y-110769962D01*
X178713440Y-110776240D01*
X178871291Y-110984359D01*
X179017491Y-111177118D01*
X179019128Y-111179258D01*
X179022322Y-111183437D01*
X179023462Y-111184914D01*
X179028413Y-111191284D01*
X179338849Y-111587402D01*
X179338884Y-111587446D01*
X179343862Y-111593746D01*
X179344578Y-111594644D01*
X179344985Y-111595156D01*
X179350066Y-111601483D01*
X179666617Y-111992496D01*
X179671517Y-111998503D01*
X179672635Y-111999863D01*
X179677874Y-112006181D01*
X180000821Y-112392433D01*
X180005852Y-112398401D01*
X180005908Y-112398467D01*
X180007179Y-112399963D01*
X180012372Y-112406026D01*
X180176706Y-112596368D01*
X180247314Y-112678151D01*
X180247326Y-112678164D01*
X180332478Y-112765474D01*
X180354684Y-112785638D01*
X180355916Y-112786756D01*
X180355923Y-112786761D01*
X180519805Y-112907320D01*
X180519812Y-112907323D01*
X180704588Y-112992417D01*
X180704594Y-112992419D01*
X180704600Y-112992422D01*
X180770695Y-113015078D01*
X180804754Y-113023677D01*
X180932187Y-113055851D01*
X180932191Y-113055852D01*
X180944616Y-113056636D01*
X181135238Y-113068670D01*
X181312139Y-113043805D01*
X181336702Y-113040353D01*
X181336704Y-113040352D01*
X181336707Y-113040352D01*
X181404558Y-113023677D01*
X181447150Y-113009377D01*
X181516966Y-113006702D01*
X181577147Y-113042198D01*
X181595971Y-113068477D01*
X181665646Y-113198830D01*
X181665650Y-113198837D01*
X181665653Y-113198842D01*
X181845814Y-113468472D01*
X181845821Y-113468481D01*
X182051546Y-113719158D01*
X182280841Y-113948453D01*
X182280846Y-113948457D01*
X182280847Y-113948458D01*
X182531524Y-114154183D01*
X182801158Y-114334347D01*
X182801167Y-114334352D01*
X182801169Y-114334353D01*
X182904909Y-114389803D01*
X182954753Y-114438765D01*
X182970214Y-114506903D01*
X182964080Y-114538411D01*
X182930985Y-114637588D01*
X182930983Y-114637595D01*
X182906752Y-114839587D01*
X182906752Y-114839596D01*
X182905516Y-114908101D01*
X182905491Y-114909460D01*
X182916285Y-115075646D01*
X182916287Y-115075654D01*
X182966446Y-115272817D01*
X182966446Y-115272819D01*
X182995667Y-115333033D01*
X183055272Y-115455858D01*
X183091979Y-115515308D01*
X183111062Y-115543526D01*
X183138671Y-115584354D01*
X183138675Y-115584359D01*
X183248873Y-115705675D01*
X183248874Y-115705676D01*
X183275467Y-115734952D01*
X183275472Y-115734957D01*
X183280556Y-115739525D01*
X183286317Y-115744662D01*
X183287793Y-115745968D01*
X183293999Y-115751414D01*
X183294096Y-115751498D01*
X183673593Y-116081772D01*
X183675587Y-116083492D01*
X183680018Y-116087317D01*
X183681458Y-116088549D01*
X183681558Y-116088635D01*
X183687265Y-116093482D01*
X184072040Y-116417790D01*
X184077699Y-116422525D01*
X184077751Y-116422568D01*
X184079183Y-116423757D01*
X184085741Y-116429155D01*
X184475678Y-116747396D01*
X184481751Y-116752313D01*
X184481878Y-116752415D01*
X184483091Y-116753390D01*
X184483186Y-116753466D01*
X184483281Y-116753542D01*
X184489613Y-116758587D01*
X184884536Y-117070618D01*
X184890939Y-117075635D01*
X184891030Y-117075706D01*
X184891061Y-117075730D01*
X184892402Y-117076772D01*
X184898663Y-117081599D01*
X185106665Y-117240659D01*
X185298366Y-117387254D01*
X185304547Y-117391943D01*
X185306115Y-117393123D01*
X185312649Y-117397999D01*
X185314586Y-117399432D01*
X185515136Y-117547825D01*
X185717359Y-117697455D01*
X185723205Y-117701745D01*
X185723614Y-117702045D01*
X185725201Y-117703200D01*
X185731673Y-117707871D01*
X186140942Y-118000791D01*
X186147645Y-118005547D01*
X186149250Y-118006676D01*
X186149303Y-118006713D01*
X186155617Y-118011118D01*
X186569378Y-118297461D01*
X186575739Y-118301827D01*
X186577278Y-118302875D01*
X186577376Y-118302941D01*
X186577392Y-118302952D01*
X186584119Y-118307491D01*
X187002452Y-118587312D01*
X187009345Y-118591882D01*
X187010975Y-118592953D01*
X187017379Y-118597126D01*
X187017445Y-118597169D01*
X187017510Y-118597211D01*
X187439982Y-118870223D01*
X187446955Y-118874689D01*
X187448483Y-118875659D01*
X187448499Y-118875669D01*
X187455152Y-118879857D01*
X187882081Y-119146267D01*
X187888651Y-119150332D01*
X187888716Y-119150372D01*
X187888755Y-119150396D01*
X187890224Y-119151298D01*
X187894715Y-119154026D01*
X187897307Y-119155602D01*
X188328452Y-119415253D01*
X188335303Y-119419342D01*
X188336992Y-119420341D01*
X188343836Y-119424353D01*
X188778974Y-119677113D01*
X188785649Y-119680956D01*
X188787354Y-119681929D01*
X188794504Y-119685971D01*
X189233655Y-119931850D01*
X189233732Y-119931893D01*
X189236304Y-119933319D01*
X189240486Y-119935640D01*
X189242185Y-119936574D01*
X189244133Y-119937634D01*
X189249224Y-119940407D01*
X189372921Y-120007115D01*
X189692335Y-120179372D01*
X189699408Y-120183150D01*
X189700920Y-120183949D01*
X189701077Y-120184033D01*
X189707979Y-120187650D01*
X190154588Y-120419455D01*
X190154683Y-120419503D01*
X190154772Y-120419550D01*
X190162113Y-120423322D01*
X190162308Y-120423421D01*
X190162331Y-120423433D01*
X190163570Y-120424064D01*
X190163753Y-120424156D01*
X190163788Y-120424174D01*
X190170631Y-120427622D01*
X190532760Y-120608361D01*
X190621071Y-120652437D01*
X190623753Y-120653761D01*
X190628346Y-120656031D01*
X190630109Y-120656893D01*
X190637038Y-120660247D01*
X190637124Y-120660288D01*
X191060576Y-120863329D01*
X191090763Y-120877803D01*
X191097679Y-120881087D01*
X191099455Y-120881922D01*
X191106943Y-120885405D01*
X191440017Y-121038674D01*
X191564290Y-121095861D01*
X191571371Y-121099085D01*
X191571438Y-121099115D01*
X191571464Y-121099127D01*
X191573253Y-121099933D01*
X191580456Y-121103144D01*
X192040891Y-121306255D01*
X192048060Y-121309384D01*
X192048243Y-121309464D01*
X192049762Y-121310119D01*
X192049958Y-121310204D01*
X192057305Y-121313342D01*
X192520927Y-121509152D01*
X192521004Y-121509184D01*
X192521051Y-121509204D01*
X192524126Y-121510487D01*
X192528392Y-121512269D01*
X192530206Y-121513018D01*
X192537448Y-121515975D01*
X193004111Y-121704424D01*
X193004163Y-121704444D01*
X193004176Y-121704450D01*
X193011783Y-121707486D01*
X193012726Y-121707857D01*
X193013605Y-121708204D01*
X193020743Y-121710987D01*
X193490233Y-121891988D01*
X193497304Y-121894684D01*
X193499140Y-121895376D01*
X193506959Y-121898286D01*
X193979386Y-122071884D01*
X193986937Y-122074624D01*
X193988784Y-122075286D01*
X193996212Y-122077916D01*
X194224836Y-122157843D01*
X194471250Y-122243990D01*
X194478955Y-122246649D01*
X194480483Y-122247168D01*
X194480698Y-122247242D01*
X194488196Y-122249764D01*
X194965803Y-122408297D01*
X194973066Y-122410677D01*
X194974118Y-122411017D01*
X194974926Y-122411279D01*
X194982713Y-122413763D01*
X194982770Y-122413781D01*
X194982811Y-122413794D01*
X195462946Y-122564774D01*
X195470990Y-122567266D01*
X195472867Y-122567839D01*
X195480041Y-122570000D01*
X195664911Y-122624933D01*
X195962287Y-122713298D01*
X195962352Y-122713317D01*
X195962426Y-122713339D01*
X195970428Y-122715681D01*
X195972309Y-122716223D01*
X195979595Y-122718292D01*
X195979761Y-122718338D01*
X195979791Y-122718347D01*
X196463949Y-122853913D01*
X196464011Y-122853930D01*
X196464157Y-122853971D01*
X196469526Y-122855453D01*
X196471361Y-122855960D01*
X196471401Y-122855971D01*
X196471445Y-122855983D01*
X196473339Y-122856498D01*
X196481412Y-122858657D01*
X196968161Y-122986675D01*
X196968317Y-122986716D01*
X196973802Y-122988135D01*
X196975827Y-122988659D01*
X196977728Y-122989143D01*
X196981690Y-122990134D01*
X196985405Y-122991065D01*
X196985470Y-122991081D01*
X196985482Y-122991084D01*
X197474165Y-123111376D01*
X197481975Y-123113266D01*
X197483885Y-123113720D01*
X197491558Y-123115512D01*
X197982039Y-123228044D01*
X197989636Y-123229756D01*
X197991552Y-123230180D01*
X197999493Y-123231903D01*
X198179900Y-123270299D01*
X198491734Y-123336668D01*
X198493817Y-123337102D01*
X198499752Y-123338341D01*
X198501675Y-123338734D01*
X198501719Y-123338743D01*
X198509187Y-123340240D01*
X198861765Y-123409466D01*
X199003068Y-123437210D01*
X199010748Y-123438686D01*
X199010830Y-123438701D01*
X199010937Y-123438722D01*
X199012559Y-123439027D01*
X199012676Y-123439049D01*
X199017595Y-123439955D01*
X199020525Y-123440495D01*
X199020586Y-123440506D01*
X199020635Y-123440515D01*
X199515969Y-123529654D01*
X199524020Y-123531069D01*
X199525955Y-123531401D01*
X199533590Y-123532681D01*
X200030198Y-123613956D01*
X200037779Y-123615167D01*
X200039717Y-123615469D01*
X200047858Y-123616703D01*
X200545814Y-123690128D01*
X200554167Y-123691324D01*
X200556111Y-123691594D01*
X200563520Y-123692595D01*
X200897522Y-123736455D01*
X201062225Y-123758084D01*
X201062317Y-123758095D01*
X201062380Y-123758104D01*
X201069840Y-123759055D01*
X201071567Y-123759268D01*
X201071836Y-123759302D01*
X201075049Y-123759685D01*
X201080124Y-123760292D01*
X201580139Y-123817918D01*
X201588158Y-123818810D01*
X201590109Y-123819019D01*
X201597912Y-123819824D01*
X202098719Y-123869524D01*
X202106845Y-123870297D01*
X202108456Y-123870443D01*
X202108841Y-123870479D01*
X202112299Y-123870780D01*
X202116521Y-123871148D01*
X202617974Y-123912910D01*
X202625600Y-123913516D01*
X202627557Y-123913664D01*
X202635800Y-123914253D01*
X203137989Y-123948083D01*
X203146136Y-123948599D01*
X203148095Y-123948715D01*
X203150263Y-123948834D01*
X203155774Y-123949140D01*
X203235146Y-123953226D01*
X203658417Y-123975017D01*
X203658466Y-123975019D01*
X203658518Y-123975022D01*
X203666489Y-123975401D01*
X203668152Y-123975472D01*
X203668509Y-123975488D01*
X203676276Y-123975795D01*
X204179151Y-123993710D01*
X204186773Y-123993952D01*
X204188735Y-123994007D01*
X204193826Y-123994128D01*
X204196884Y-123994202D01*
X204196950Y-123994203D01*
X204197021Y-123994205D01*
X204700238Y-124004161D01*
X204708342Y-124004289D01*
X204708407Y-124004289D01*
X204708422Y-124004290D01*
X204708617Y-124004292D01*
X204710304Y-124004312D01*
X204718110Y-124004373D01*
X205205384Y-124006301D01*
X205221352Y-124006365D01*
X205221359Y-124006365D01*
X205229432Y-124006365D01*
X205229437Y-124006365D01*
X205231400Y-124006357D01*
X205239238Y-124006294D01*
X205742455Y-124000320D01*
X205750502Y-124000192D01*
X205751984Y-124000162D01*
X205752378Y-124000155D01*
X205752450Y-124000153D01*
X205752464Y-124000153D01*
X205760327Y-123999966D01*
X206263324Y-123986031D01*
X206269313Y-123985842D01*
X206270777Y-123985797D01*
X206270810Y-123985795D01*
X206270836Y-123985795D01*
X206272797Y-123985726D01*
X206281188Y-123985396D01*
X206784029Y-123963497D01*
X206792025Y-123963117D01*
X206793985Y-123963016D01*
X206801882Y-123962578D01*
X207304252Y-123932727D01*
X207309197Y-123932413D01*
X207312216Y-123932222D01*
X207314075Y-123932097D01*
X207314201Y-123932088D01*
X207322086Y-123931525D01*
X207823921Y-123893728D01*
X207831905Y-123893095D01*
X207833861Y-123892932D01*
X207841736Y-123892244D01*
X208342915Y-123846509D01*
X208350930Y-123845746D01*
X208352247Y-123845615D01*
X208352926Y-123845548D01*
X208357505Y-123845074D01*
X208360704Y-123844744D01*
X208861104Y-123791082D01*
X208869204Y-123790180D01*
X208870887Y-123789985D01*
X208871180Y-123789952D01*
X208876875Y-123789272D01*
X208878862Y-123789035D01*
X208878881Y-123789032D01*
X208878987Y-123789020D01*
X209263909Y-123741568D01*
X209378280Y-123727469D01*
X209385900Y-123726500D01*
X209387846Y-123726245D01*
X209396005Y-123725142D01*
X209894455Y-123655670D01*
X209902229Y-123654555D01*
X209902263Y-123654550D01*
X209903974Y-123654298D01*
X209904003Y-123654293D01*
X209904170Y-123654269D01*
X209912138Y-123653063D01*
X210409446Y-123575709D01*
X210417298Y-123574455D01*
X210417312Y-123574452D01*
X210417354Y-123574446D01*
X210417800Y-123574372D01*
X210419235Y-123574138D01*
X210427089Y-123572821D01*
X210923089Y-123487609D01*
X210929330Y-123486510D01*
X210931076Y-123486204D01*
X210931916Y-123486052D01*
X210933018Y-123485854D01*
X210940682Y-123484443D01*
X211435232Y-123391400D01*
X211442100Y-123390080D01*
X211442902Y-123389926D01*
X211442930Y-123389920D01*
X211442969Y-123389913D01*
X211444895Y-123389535D01*
X211452775Y-123387956D01*
X211945864Y-123287082D01*
X211953933Y-123285396D01*
X211955852Y-123284987D01*
X211963347Y-123283360D01*
X212454645Y-123174725D01*
X212461966Y-123173077D01*
X212463879Y-123172639D01*
X212472068Y-123170728D01*
X212961734Y-123054296D01*
X212969504Y-123052416D01*
X212971409Y-123051947D01*
X212971439Y-123051939D01*
X212971506Y-123051923D01*
X212974013Y-123051294D01*
X212979090Y-123050024D01*
X213466835Y-122925862D01*
X213474928Y-122923766D01*
X213476826Y-122923266D01*
X213484124Y-122921314D01*
X213969741Y-122789476D01*
X213977316Y-122787388D01*
X213979206Y-122786859D01*
X213986956Y-122784656D01*
X214470500Y-122645127D01*
X214478168Y-122642882D01*
X214478874Y-122642672D01*
X214480016Y-122642333D01*
X214487613Y-122640043D01*
X214716673Y-122570001D01*
X214968892Y-122492878D01*
X214976505Y-122490516D01*
X214978378Y-122489927D01*
X214985947Y-122487515D01*
X215464813Y-122332759D01*
X215464906Y-122332728D01*
X215464985Y-122332703D01*
X215472265Y-122330318D01*
X215472817Y-122330134D01*
X215474208Y-122329673D01*
X215481776Y-122327128D01*
X215958115Y-122164820D01*
X215965270Y-122162352D01*
X215967123Y-122161705D01*
X215974991Y-122158921D01*
X216448738Y-121989081D01*
X216456281Y-121986343D01*
X216458123Y-121985666D01*
X216465519Y-121982915D01*
X216936521Y-121805597D01*
X216944169Y-121802682D01*
X216945999Y-121801976D01*
X216953195Y-121799168D01*
X217216686Y-121695182D01*
X217286266Y-121688884D01*
X217318496Y-121700041D01*
X217448360Y-121766211D01*
X217448363Y-121766212D01*
X217532457Y-121793535D01*
X217620591Y-121822171D01*
X217799454Y-121850501D01*
X217799455Y-121850501D01*
X217985657Y-121850501D01*
X217985681Y-121850500D01*
X218325500Y-121850500D01*
X218392539Y-121870185D01*
X218438294Y-121922989D01*
X218449500Y-121974500D01*
X218449500Y-123024095D01*
X218455918Y-123116561D01*
X218455920Y-123116577D01*
X218506854Y-123333135D01*
X218506860Y-123333151D01*
X218596721Y-123536668D01*
X218722457Y-123720220D01*
X218722462Y-123720226D01*
X218879773Y-123877537D01*
X218879779Y-123877542D01*
X219063329Y-124003277D01*
X219063330Y-124003277D01*
X219063331Y-124003278D01*
X219229673Y-124076724D01*
X219266857Y-124093143D01*
X219266861Y-124093144D01*
X219266864Y-124093145D01*
X219483422Y-124144079D01*
X219483427Y-124144079D01*
X219483433Y-124144081D01*
X219534808Y-124147647D01*
X219575904Y-124150500D01*
X219575908Y-124150500D01*
X220124096Y-124150500D01*
X220161082Y-124147932D01*
X220216567Y-124144081D01*
X220216573Y-124144079D01*
X220216577Y-124144079D01*
X220433135Y-124093145D01*
X220433135Y-124093144D01*
X220433143Y-124093143D01*
X220636671Y-124003277D01*
X220820221Y-123877542D01*
X220977542Y-123720221D01*
X221103277Y-123536671D01*
X221193143Y-123333143D01*
X221203976Y-123287083D01*
X221244079Y-123116577D01*
X221244079Y-123116573D01*
X221244081Y-123116567D01*
X221248534Y-123052413D01*
X221250500Y-123024095D01*
X221250500Y-121375904D01*
X221245665Y-121306255D01*
X221244081Y-121283433D01*
X221244079Y-121283427D01*
X221244079Y-121283422D01*
X221193145Y-121066864D01*
X221193144Y-121066861D01*
X221193143Y-121066857D01*
X221176724Y-121029673D01*
X221103278Y-120863331D01*
X220977542Y-120679779D01*
X220977538Y-120679774D01*
X220940578Y-120642815D01*
X220917773Y-120611428D01*
X220916212Y-120608364D01*
X220916211Y-120608361D01*
X220833996Y-120447006D01*
X220819913Y-120427622D01*
X220819911Y-120427619D01*
X220819911Y-120427618D01*
X220727558Y-120300505D01*
X220727554Y-120300500D01*
X220690286Y-120263232D01*
X220656801Y-120201909D01*
X220661785Y-120132217D01*
X220703657Y-120076284D01*
X220720001Y-120065934D01*
X220721836Y-120064964D01*
X220729110Y-120061076D01*
X220730837Y-120060144D01*
X220730838Y-120060143D01*
X220730913Y-120060103D01*
X220737478Y-120056527D01*
X220737570Y-120056477D01*
X221178530Y-119814147D01*
X221185056Y-119810529D01*
X221186769Y-119809571D01*
X221194127Y-119805416D01*
X221631346Y-119556054D01*
X221638341Y-119552027D01*
X221640038Y-119551041D01*
X221646804Y-119547074D01*
X222079929Y-119290878D01*
X222086625Y-119286883D01*
X222088306Y-119285871D01*
X222095241Y-119281658D01*
X222524304Y-119018612D01*
X222531078Y-119014421D01*
X222532743Y-119013382D01*
X222539472Y-119009146D01*
X222964299Y-118739353D01*
X222971005Y-118735057D01*
X222972653Y-118733992D01*
X222979310Y-118729653D01*
X223399860Y-118453142D01*
X223399966Y-118453071D01*
X223400075Y-118453000D01*
X223406797Y-118448540D01*
X223407076Y-118448352D01*
X223408489Y-118447407D01*
X223414719Y-118443201D01*
X223830710Y-118160157D01*
X223836936Y-118155887D01*
X223838550Y-118154771D01*
X223845410Y-118149985D01*
X224257025Y-117860283D01*
X224263756Y-117855505D01*
X224265352Y-117854362D01*
X224271562Y-117849878D01*
X224678446Y-117553767D01*
X224684905Y-117549027D01*
X224686482Y-117547860D01*
X224692815Y-117543135D01*
X225094974Y-117240613D01*
X225101254Y-117235850D01*
X225102813Y-117234658D01*
X225109176Y-117229753D01*
X225506525Y-116920881D01*
X225512862Y-116915914D01*
X225514402Y-116914697D01*
X225520548Y-116909801D01*
X225912915Y-116594717D01*
X225918938Y-116589842D01*
X225920458Y-116588602D01*
X225926765Y-116583414D01*
X226314140Y-116262123D01*
X226320208Y-116257050D01*
X226321709Y-116255785D01*
X226327810Y-116250601D01*
X226710074Y-115923199D01*
X226716379Y-115917754D01*
X226716384Y-115917750D01*
X226717676Y-115916625D01*
X226717763Y-115916547D01*
X226717859Y-115916465D01*
X226723557Y-115911464D01*
X226969111Y-115694322D01*
X227083486Y-115575056D01*
X227109098Y-115543526D01*
X227136698Y-115507949D01*
X227240613Y-115333039D01*
X227307191Y-115140792D01*
X227323259Y-115072795D01*
X227348005Y-114908101D01*
X227340862Y-114704777D01*
X227292937Y-114507053D01*
X227269693Y-114441163D01*
X227268616Y-114438765D01*
X227259396Y-114418232D01*
X227249890Y-114349012D01*
X227279316Y-114285641D01*
X227303618Y-114264336D01*
X227468476Y-114154183D01*
X227719153Y-113948458D01*
X227948458Y-113719153D01*
X228154183Y-113468476D01*
X228258858Y-113311817D01*
X228312466Y-113267016D01*
X228381791Y-113258307D01*
X228403839Y-113264683D01*
X228403935Y-113264386D01*
X228409375Y-113266129D01*
X228409378Y-113266131D01*
X228603118Y-113328223D01*
X228603121Y-113328224D01*
X228805388Y-113350045D01*
X228805387Y-113350045D01*
X228805397Y-113350046D01*
X228875266Y-113350474D01*
X228875279Y-113350472D01*
X228875283Y-113350473D01*
X228970221Y-113343167D01*
X229041347Y-113337694D01*
X229237903Y-113285181D01*
X229419864Y-113194177D01*
X229478872Y-113156762D01*
X229547345Y-113109256D01*
X229696298Y-112970675D01*
X230018074Y-112603882D01*
X230023321Y-112597853D01*
X230024603Y-112596368D01*
X230029756Y-112590352D01*
X230355613Y-112206830D01*
X230360786Y-112200692D01*
X230362045Y-112199186D01*
X230367080Y-112193115D01*
X230686805Y-111804510D01*
X230691732Y-111798473D01*
X230692967Y-111796948D01*
X230698053Y-111790616D01*
X231011643Y-111396930D01*
X231016777Y-111390430D01*
X231017987Y-111388885D01*
X231022670Y-111382859D01*
X231329913Y-110984359D01*
X231334615Y-110978211D01*
X231335801Y-110976648D01*
X231340715Y-110970118D01*
X231641666Y-110566735D01*
X231646555Y-110560126D01*
X231647716Y-110558543D01*
X231652242Y-110552322D01*
X231946770Y-110144228D01*
X231951304Y-110137894D01*
X231952440Y-110136294D01*
X231957115Y-110129652D01*
X232245137Y-109716965D01*
X232249736Y-109710319D01*
X232250846Y-109708701D01*
X232255250Y-109702227D01*
X232395932Y-109493699D01*
X232536581Y-109285218D01*
X232536582Y-109285215D01*
X232536695Y-109285049D01*
X232541113Y-109278445D01*
X232542198Y-109276809D01*
X232546578Y-109270148D01*
X232821375Y-108848581D01*
X232825535Y-108842146D01*
X232826594Y-108840494D01*
X232831018Y-108833529D01*
X233099156Y-108407591D01*
X233103442Y-108400720D01*
X233104474Y-108399051D01*
X233108558Y-108392390D01*
X233369877Y-107962337D01*
X233373916Y-107955631D01*
X233374922Y-107953946D01*
X233379040Y-107946986D01*
X233633547Y-107512804D01*
X233637561Y-107505892D01*
X233638540Y-107504191D01*
X233642464Y-107497311D01*
X233890052Y-107059183D01*
X233893914Y-107052286D01*
X233894866Y-107050570D01*
X233898723Y-107043552D01*
X234139347Y-106601561D01*
X234143058Y-106594681D01*
X234143086Y-106594627D01*
X234143171Y-106594471D01*
X234143632Y-106593605D01*
X234143983Y-106592950D01*
X234147771Y-106585791D01*
X234381394Y-106139998D01*
X234385158Y-106132744D01*
X234386055Y-106130998D01*
X234389565Y-106124101D01*
X234616079Y-105674718D01*
X234616118Y-105674639D01*
X234616189Y-105674499D01*
X234617532Y-105671806D01*
X234619683Y-105667497D01*
X234620552Y-105665738D01*
X234623998Y-105658693D01*
X234843360Y-105205806D01*
X234846705Y-105198831D01*
X234847547Y-105197058D01*
X234851026Y-105189656D01*
X235063229Y-104733277D01*
X235066615Y-104725917D01*
X235067428Y-104724131D01*
X235070637Y-104717008D01*
X235275567Y-104257380D01*
X235278797Y-104250058D01*
X235278832Y-104249977D01*
X235278895Y-104249835D01*
X235279584Y-104248254D01*
X235282706Y-104241022D01*
X235305554Y-104187515D01*
X235480351Y-103778174D01*
X235483452Y-103770832D01*
X235484208Y-103769022D01*
X235487240Y-103761681D01*
X235677521Y-103295799D01*
X235680464Y-103288512D01*
X235681192Y-103286689D01*
X235684150Y-103279195D01*
X235775251Y-103045652D01*
X235867054Y-102810306D01*
X235867162Y-102810024D01*
X235869855Y-102803043D01*
X235870554Y-102801209D01*
X235873402Y-102793645D01*
X236048860Y-102321928D01*
X236051657Y-102314313D01*
X236052326Y-102312469D01*
X236052331Y-102312454D01*
X236052412Y-102312232D01*
X236054919Y-102305237D01*
X236054958Y-102305128D01*
X236222904Y-101830766D01*
X236225471Y-101823425D01*
X236226112Y-101821569D01*
X236228738Y-101813864D01*
X236389191Y-101336794D01*
X236391780Y-101328991D01*
X236392390Y-101327127D01*
X236394753Y-101319811D01*
X236394780Y-101319723D01*
X236394825Y-101319587D01*
X236454596Y-101132100D01*
X236547584Y-100840430D01*
X236549893Y-100833091D01*
X236550475Y-100831216D01*
X236552881Y-100823353D01*
X236698162Y-100341423D01*
X236700527Y-100333456D01*
X236701078Y-100331572D01*
X236703185Y-100324267D01*
X236762948Y-100114038D01*
X236840714Y-99840475D01*
X236840722Y-99840443D01*
X236840773Y-99840267D01*
X236842842Y-99832880D01*
X236842842Y-99832879D01*
X236842907Y-99832648D01*
X236843338Y-99831082D01*
X236843364Y-99830989D01*
X236845525Y-99823035D01*
X236975461Y-99336824D01*
X236977446Y-99329280D01*
X236977938Y-99327380D01*
X236979940Y-99319517D01*
X237102175Y-98831270D01*
X237104154Y-98823223D01*
X237104168Y-98823161D01*
X237104214Y-98822978D01*
X237104559Y-98821550D01*
X237104615Y-98821315D01*
X237106378Y-98813896D01*
X237220851Y-98323862D01*
X237222649Y-98316023D01*
X237222652Y-98316005D01*
X237222704Y-98315783D01*
X237223042Y-98314276D01*
X237223080Y-98314109D01*
X237224779Y-98306424D01*
X237224794Y-98306351D01*
X237224832Y-98306183D01*
X237276222Y-98069331D01*
X237331488Y-97814616D01*
X237333136Y-97806876D01*
X237333537Y-97804955D01*
X237333541Y-97804932D01*
X237333589Y-97804706D01*
X237335134Y-97797152D01*
X237434016Y-97303865D01*
X237434043Y-97303728D01*
X237435541Y-97296102D01*
X237435912Y-97294174D01*
X237437418Y-97286172D01*
X237528517Y-96791184D01*
X237529907Y-96783459D01*
X237530247Y-96781527D01*
X237531613Y-96773579D01*
X237614863Y-96277234D01*
X237616173Y-96269229D01*
X237616482Y-96267291D01*
X237617680Y-96259584D01*
X237659030Y-95986640D01*
X237693092Y-95761813D01*
X237694161Y-95754561D01*
X237694166Y-95754524D01*
X237694192Y-95754350D01*
X237694471Y-95752407D01*
X237695594Y-95744349D01*
X237763101Y-95245566D01*
X237764191Y-95237253D01*
X237764438Y-95235306D01*
X237765358Y-95227834D01*
X237765631Y-95225550D01*
X237824939Y-94728252D01*
X237825844Y-94720399D01*
X237825854Y-94720310D01*
X237826071Y-94718360D01*
X237826924Y-94710408D01*
X237878599Y-94209863D01*
X237879342Y-94202397D01*
X237879344Y-94202380D01*
X237879519Y-94200553D01*
X237880285Y-94192173D01*
X237880295Y-94192068D01*
X237924052Y-93690655D01*
X237924058Y-93690581D01*
X237924073Y-93690411D01*
X237924706Y-93682805D01*
X237924717Y-93682670D01*
X237924872Y-93680714D01*
X237925465Y-93672833D01*
X237961276Y-93170848D01*
X237961815Y-93162850D01*
X237961939Y-93160892D01*
X237962407Y-93153013D01*
X237990271Y-92650532D01*
X237990684Y-92642492D01*
X237990777Y-92640531D01*
X237991119Y-92632671D01*
X238011025Y-92129811D01*
X238011310Y-92121797D01*
X238011372Y-92119835D01*
X238011591Y-92111945D01*
X238023537Y-91608831D01*
X238023695Y-91600848D01*
X238023726Y-91598886D01*
X238023820Y-91590959D01*
X238027803Y-91087724D01*
X238027834Y-91079766D01*
X238027834Y-91077804D01*
X238027803Y-91069846D01*
X238023820Y-90566610D01*
X238023726Y-90558683D01*
X238023695Y-90556721D01*
X238023537Y-90548738D01*
X238011591Y-90045624D01*
X238011372Y-90037734D01*
X238011310Y-90035772D01*
X238011025Y-90027758D01*
X237991119Y-89524898D01*
X237990777Y-89517038D01*
X237990684Y-89515077D01*
X237990271Y-89507037D01*
X237962407Y-89004556D01*
X237961939Y-88996677D01*
X237961815Y-88994719D01*
X237961276Y-88986721D01*
X237925465Y-88484736D01*
X237924872Y-88476855D01*
X237924717Y-88474899D01*
X237924713Y-88474855D01*
X237924697Y-88474648D01*
X237924073Y-88467158D01*
X237924052Y-88466914D01*
X237880295Y-87965501D01*
X237879529Y-87957126D01*
X237879519Y-87957015D01*
X237879344Y-87955188D01*
X237878597Y-87947686D01*
X237826935Y-87447269D01*
X237826924Y-87447161D01*
X237826071Y-87439209D01*
X237825854Y-87437259D01*
X237824948Y-87429394D01*
X237796183Y-87188202D01*
X237765385Y-86929958D01*
X237764426Y-86922165D01*
X237764204Y-86920417D01*
X237763115Y-86912112D01*
X237763101Y-86912003D01*
X237695594Y-86413220D01*
X237694471Y-86405162D01*
X237694192Y-86403219D01*
X237694157Y-86402975D01*
X237693092Y-86395756D01*
X237654019Y-86137846D01*
X237617680Y-85897985D01*
X237616482Y-85890278D01*
X237616173Y-85888340D01*
X237614863Y-85880335D01*
X237531613Y-85383990D01*
X237530247Y-85376042D01*
X237529907Y-85374110D01*
X237528517Y-85366385D01*
X237437418Y-84871397D01*
X237435912Y-84863395D01*
X237435541Y-84861467D01*
X237434043Y-84853841D01*
X237433996Y-84853601D01*
X237335134Y-84360416D01*
X237333589Y-84352863D01*
X237333537Y-84352614D01*
X237333136Y-84350693D01*
X237331488Y-84342953D01*
X237276159Y-84087950D01*
X237224832Y-83851386D01*
X237223028Y-83843227D01*
X237222704Y-83841786D01*
X237222649Y-83841546D01*
X237220851Y-83833707D01*
X237106378Y-83343673D01*
X237104615Y-83336254D01*
X237104604Y-83336211D01*
X237104559Y-83336019D01*
X237104559Y-83336018D01*
X237104214Y-83334591D01*
X237102206Y-83326427D01*
X237102175Y-83326299D01*
X236979940Y-82838052D01*
X236977938Y-82830189D01*
X236977446Y-82828289D01*
X236975461Y-82820745D01*
X236845525Y-82334534D01*
X236843364Y-82326580D01*
X236843315Y-82326405D01*
X236842907Y-82324921D01*
X236842829Y-82324642D01*
X236840773Y-82317302D01*
X236840710Y-82317079D01*
X236703206Y-81833374D01*
X236701081Y-81826008D01*
X236701078Y-81825997D01*
X236700527Y-81824113D01*
X236698162Y-81816146D01*
X236552881Y-81334216D01*
X236550475Y-81326353D01*
X236549893Y-81324478D01*
X236547584Y-81317139D01*
X236395154Y-80839015D01*
X236394825Y-80837982D01*
X236394753Y-80837758D01*
X236392390Y-80830442D01*
X236391780Y-80828578D01*
X236389191Y-80820775D01*
X236228738Y-80343705D01*
X236226112Y-80336000D01*
X236225471Y-80334144D01*
X236225451Y-80334087D01*
X236225389Y-80333907D01*
X236222940Y-80326905D01*
X236135835Y-80080879D01*
X236054958Y-79852441D01*
X236054919Y-79852331D01*
X236052412Y-79845337D01*
X236051579Y-79843042D01*
X236050197Y-79839282D01*
X236048860Y-79835641D01*
X235873402Y-79363924D01*
X235870554Y-79356360D01*
X235869855Y-79354526D01*
X235867037Y-79347219D01*
X235775617Y-79112856D01*
X235684171Y-78878426D01*
X235681104Y-78870658D01*
X235680502Y-78869152D01*
X235680464Y-78869057D01*
X235677521Y-78861770D01*
X235487240Y-78395888D01*
X235484208Y-78388547D01*
X235483452Y-78386737D01*
X235480351Y-78379395D01*
X235377902Y-78139479D01*
X235282706Y-77916546D01*
X235279584Y-77909314D01*
X235278895Y-77907734D01*
X235278797Y-77907511D01*
X235275567Y-77900189D01*
X235070637Y-77440561D01*
X235067428Y-77433438D01*
X235066615Y-77431652D01*
X235063229Y-77424292D01*
X235063204Y-77424238D01*
X234850998Y-76967852D01*
X234849327Y-76964300D01*
X234847547Y-76960511D01*
X234846705Y-76958738D01*
X234843360Y-76951763D01*
X234623998Y-76498876D01*
X234620552Y-76491831D01*
X234619683Y-76490072D01*
X234618052Y-76486805D01*
X234616189Y-76483070D01*
X234389603Y-76033543D01*
X234386046Y-76026554D01*
X234385158Y-76024825D01*
X234381394Y-76017571D01*
X234147771Y-75571778D01*
X234143983Y-75564619D01*
X234143945Y-75564549D01*
X234143171Y-75563098D01*
X234139329Y-75555974D01*
X234000724Y-75301378D01*
X233898723Y-75114017D01*
X233894866Y-75106999D01*
X233893914Y-75105283D01*
X233890052Y-75098386D01*
X233642456Y-74660244D01*
X233638520Y-74653342D01*
X233638479Y-74653271D01*
X233638401Y-74653134D01*
X233637552Y-74651660D01*
X233633669Y-74644975D01*
X233633621Y-74644893D01*
X233633546Y-74644764D01*
X233379022Y-74210554D01*
X233374970Y-74203704D01*
X233373981Y-74202047D01*
X233369877Y-74195232D01*
X233287230Y-74059220D01*
X233108546Y-73765158D01*
X233106108Y-73761184D01*
X233104474Y-73758518D01*
X233103442Y-73756849D01*
X233099156Y-73749978D01*
X233099095Y-73749881D01*
X232830982Y-73323982D01*
X232826623Y-73317120D01*
X232825510Y-73315384D01*
X232821325Y-73308911D01*
X232546561Y-72887396D01*
X232542259Y-72880853D01*
X232541357Y-72879491D01*
X232541217Y-72879281D01*
X232536725Y-72872565D01*
X232536660Y-72872469D01*
X232536588Y-72872361D01*
X232536588Y-72872360D01*
X232255299Y-72455413D01*
X232250872Y-72448906D01*
X232250846Y-72448868D01*
X232249736Y-72447250D01*
X232245137Y-72440604D01*
X232245098Y-72440548D01*
X231957181Y-72028011D01*
X231952465Y-72021311D01*
X231952440Y-72021275D01*
X231951304Y-72019675D01*
X231946770Y-72013341D01*
X231946719Y-72013270D01*
X231946630Y-72013146D01*
X231652284Y-71605305D01*
X231647726Y-71599040D01*
X231646585Y-71597484D01*
X231641660Y-71590827D01*
X231340668Y-71187390D01*
X231335856Y-71180993D01*
X231334823Y-71179630D01*
X231329768Y-71173021D01*
X231022703Y-70774753D01*
X231018117Y-70768851D01*
X231018088Y-70768814D01*
X231017987Y-70768684D01*
X231016777Y-70767139D01*
X231011643Y-70760639D01*
X230698053Y-70366953D01*
X230697975Y-70366855D01*
X230692982Y-70360639D01*
X230691756Y-70359125D01*
X230686804Y-70353058D01*
X230367024Y-69964386D01*
X230362083Y-69958429D01*
X230360898Y-69957011D01*
X230360850Y-69956954D01*
X230355613Y-69950739D01*
X230029756Y-69567217D01*
X230024603Y-69561201D01*
X230023321Y-69559716D01*
X230022676Y-69558975D01*
X230018145Y-69553766D01*
X229805954Y-69311890D01*
X229736830Y-69233096D01*
X229648460Y-69147850D01*
X229616450Y-69116971D01*
X229616449Y-69116969D01*
X229584593Y-69090990D01*
X229547466Y-69062131D01*
X229547467Y-69062131D01*
X229547461Y-69062127D01*
X229547454Y-69062123D01*
X229547450Y-69062120D01*
X229372547Y-68958220D01*
X229372539Y-68958216D01*
X229180303Y-68891653D01*
X229180302Y-68891652D01*
X229180297Y-68891651D01*
X229134965Y-68880941D01*
X229112296Y-68875585D01*
X228982946Y-68856157D01*
X228947585Y-68850846D01*
X228947584Y-68850846D01*
X228744267Y-68858001D01*
X228744263Y-68858001D01*
X228744262Y-68858002D01*
X228605465Y-68891653D01*
X228546537Y-68905940D01*
X228546529Y-68905942D01*
X228515553Y-68916872D01*
X228445784Y-68920615D01*
X228385067Y-68886043D01*
X228364938Y-68858390D01*
X228334353Y-68801169D01*
X228334352Y-68801167D01*
X228334347Y-68801158D01*
X228154183Y-68531524D01*
X227948458Y-68280847D01*
X227948457Y-68280846D01*
X227948453Y-68280841D01*
X227719158Y-68051546D01*
X227468481Y-67845821D01*
X227468480Y-67845820D01*
X227468476Y-67845817D01*
X227198842Y-67665653D01*
X227115305Y-67621001D01*
X227065462Y-67572039D01*
X227050002Y-67503902D01*
X227055827Y-67473333D01*
X227056263Y-67471992D01*
X227093979Y-67355890D01*
X227116600Y-67153702D01*
X227117304Y-67083836D01*
X227105181Y-66917710D01*
X227053446Y-66720948D01*
X226963162Y-66538629D01*
X226925981Y-66479474D01*
X226878747Y-66410815D01*
X226740757Y-66261314D01*
X226723558Y-66246105D01*
X226717859Y-66241104D01*
X226717754Y-66241012D01*
X226717685Y-66240952D01*
X226716351Y-66239789D01*
X226710198Y-66234476D01*
X226327694Y-65906869D01*
X226321337Y-65901469D01*
X226319990Y-65900335D01*
X226314127Y-65895436D01*
X226112893Y-65728532D01*
X225926719Y-65574118D01*
X225920637Y-65569113D01*
X225920579Y-65569065D01*
X225919124Y-65567878D01*
X225912994Y-65562915D01*
X225520593Y-65247803D01*
X225520182Y-65247475D01*
X225514402Y-65242872D01*
X225512862Y-65241655D01*
X225506525Y-65236688D01*
X225506523Y-65236687D01*
X225506451Y-65236630D01*
X225109163Y-64927806D01*
X225102895Y-64922974D01*
X225102813Y-64922911D01*
X225101254Y-64921719D01*
X225100894Y-64921446D01*
X225094988Y-64916966D01*
X224692954Y-64614538D01*
X224692841Y-64614453D01*
X224692771Y-64614401D01*
X224686664Y-64609843D01*
X224686613Y-64609805D01*
X224686539Y-64609750D01*
X224685309Y-64608839D01*
X224685173Y-64608739D01*
X224678489Y-64603832D01*
X224271562Y-64307690D01*
X224265352Y-64303207D01*
X224265270Y-64303148D01*
X224263796Y-64302092D01*
X224257084Y-64297326D01*
X224042631Y-64146391D01*
X223845361Y-64007549D01*
X223841685Y-64004985D01*
X223838430Y-64002714D01*
X223837464Y-64002047D01*
X223836958Y-64001697D01*
X223833876Y-63999583D01*
X223830682Y-63997392D01*
X223414806Y-63714426D01*
X223414453Y-63714187D01*
X223408406Y-63710107D01*
X223408306Y-63710040D01*
X223408217Y-63709980D01*
X223406864Y-63709074D01*
X223400114Y-63704595D01*
X223400005Y-63704523D01*
X223399896Y-63704451D01*
X222979296Y-63427907D01*
X222979211Y-63427851D01*
X222979093Y-63427774D01*
X222972767Y-63423650D01*
X222972544Y-63423506D01*
X222971023Y-63422523D01*
X222970907Y-63422448D01*
X222970844Y-63422408D01*
X222964503Y-63418346D01*
X222964444Y-63418309D01*
X222964298Y-63418215D01*
X222539428Y-63148395D01*
X222532959Y-63144321D01*
X222531380Y-63143335D01*
X222531286Y-63143276D01*
X222524562Y-63139116D01*
X222524448Y-63139046D01*
X222524346Y-63138983D01*
X222095230Y-62875905D01*
X222095018Y-62875775D01*
X222088425Y-62871770D01*
X222086598Y-62870670D01*
X222079968Y-62866714D01*
X221646699Y-62610433D01*
X221640100Y-62606563D01*
X221638463Y-62605612D01*
X221636364Y-62604404D01*
X221631377Y-62601533D01*
X221194126Y-62352153D01*
X221194117Y-62352148D01*
X221194040Y-62352104D01*
X221186794Y-62348012D01*
X221186769Y-62347998D01*
X221185056Y-62347040D01*
X221178530Y-62343422D01*
X221047644Y-62271493D01*
X220737573Y-62101093D01*
X220730602Y-62097297D01*
X220729307Y-62096598D01*
X220721891Y-62092635D01*
X220276888Y-61857175D01*
X220269966Y-61853548D01*
X220269862Y-61853494D01*
X220269797Y-61853460D01*
X220268159Y-61852610D01*
X220261154Y-61849010D01*
X220035709Y-61734253D01*
X219812521Y-61620645D01*
X219805565Y-61617139D01*
X219803861Y-61616288D01*
X219803764Y-61616240D01*
X219796602Y-61612701D01*
X219796450Y-61612626D01*
X219796388Y-61612596D01*
X219344570Y-61391539D01*
X219337154Y-61387947D01*
X219335480Y-61387145D01*
X219328433Y-61383802D01*
X218872972Y-61169831D01*
X218866046Y-61166610D01*
X218866014Y-61166595D01*
X218864277Y-61165795D01*
X218864169Y-61165745D01*
X218856755Y-61162366D01*
X218398010Y-60955651D01*
X218397884Y-60955594D01*
X218391014Y-60952529D01*
X218390965Y-60952507D01*
X218390888Y-60952473D01*
X218389227Y-60951739D01*
X218381850Y-60948519D01*
X218381702Y-60948455D01*
X218381617Y-60948418D01*
X217919461Y-60748904D01*
X217911996Y-60745717D01*
X217911921Y-60745685D01*
X217911864Y-60745661D01*
X217910238Y-60744974D01*
X217903155Y-60742016D01*
X217437768Y-60549783D01*
X217432520Y-60547641D01*
X217430179Y-60546686D01*
X217428531Y-60546021D01*
X217421381Y-60543167D01*
X217259619Y-60479328D01*
X216953211Y-60358406D01*
X216946049Y-60355611D01*
X216944586Y-60355045D01*
X216936578Y-60351993D01*
X216924354Y-60347391D01*
X216465508Y-60174650D01*
X216462782Y-60173635D01*
X216458273Y-60171957D01*
X216456528Y-60171316D01*
X216448781Y-60168503D01*
X215974819Y-59998587D01*
X215967403Y-59995962D01*
X215965739Y-59995380D01*
X215964236Y-59994861D01*
X215958184Y-59992773D01*
X215843662Y-59953750D01*
X215481896Y-59830482D01*
X215479397Y-59829641D01*
X215474314Y-59827931D01*
X215473113Y-59827532D01*
X215472303Y-59827263D01*
X215464839Y-59824819D01*
X214986153Y-59670121D01*
X214986067Y-59670093D01*
X214985926Y-59670048D01*
X214978634Y-59667722D01*
X214978412Y-59667652D01*
X214978412Y-59667651D01*
X214976965Y-59667196D01*
X214968773Y-59664654D01*
X214487692Y-59517550D01*
X214479836Y-59515182D01*
X214478214Y-59514701D01*
X214478150Y-59514682D01*
X214478065Y-59514657D01*
X214476060Y-59514070D01*
X214470417Y-59512417D01*
X213986823Y-59372875D01*
X213979283Y-59370731D01*
X213977716Y-59370292D01*
X213977566Y-59370250D01*
X213977528Y-59370240D01*
X213969819Y-59368114D01*
X213571754Y-59260044D01*
X213571753Y-59260043D01*
X213569728Y-59259494D01*
X213569724Y-59259493D01*
X213484123Y-59236254D01*
X213478814Y-59234835D01*
X213476826Y-59234303D01*
X213474928Y-59233803D01*
X213474895Y-59233794D01*
X213474753Y-59233757D01*
X213466983Y-59231745D01*
X213466908Y-59231725D01*
X213466835Y-59231707D01*
X212979090Y-59107545D01*
X212979033Y-59107530D01*
X212978928Y-59107504D01*
X212971451Y-59105631D01*
X212969440Y-59105137D01*
X212961944Y-59103323D01*
X212961863Y-59103303D01*
X212961736Y-59103273D01*
X212645546Y-59028089D01*
X212471881Y-58986795D01*
X212463453Y-58984831D01*
X212461755Y-58984443D01*
X212454499Y-58982811D01*
X211963307Y-58874199D01*
X211955879Y-58872586D01*
X211954142Y-58872215D01*
X211945906Y-58870495D01*
X211452700Y-58769597D01*
X211444629Y-58767980D01*
X211442884Y-58767639D01*
X211435314Y-58766184D01*
X210940523Y-58673096D01*
X210933631Y-58671826D01*
X210933428Y-58671789D01*
X210933388Y-58671782D01*
X210931488Y-58671439D01*
X210931403Y-58671424D01*
X210923197Y-58669978D01*
X210426964Y-58584727D01*
X210419159Y-58583417D01*
X210417474Y-58583142D01*
X210409550Y-58581876D01*
X209912057Y-58504493D01*
X209904011Y-58503275D01*
X209902288Y-58503021D01*
X209894439Y-58501896D01*
X209395809Y-58432399D01*
X209387954Y-58431338D01*
X209387888Y-58431329D01*
X209387819Y-58431320D01*
X209386057Y-58431089D01*
X209378375Y-58430112D01*
X209378240Y-58430095D01*
X209378190Y-58430089D01*
X208878988Y-58368549D01*
X208878773Y-58368523D01*
X208878746Y-58368520D01*
X208875589Y-58368143D01*
X208870906Y-58367584D01*
X208869435Y-58367414D01*
X208861191Y-58366496D01*
X208360636Y-58312818D01*
X208352788Y-58312007D01*
X208350828Y-58311812D01*
X208343167Y-58311083D01*
X207841727Y-58265324D01*
X207841673Y-58265319D01*
X207841648Y-58265317D01*
X207836744Y-58264888D01*
X207833508Y-58264606D01*
X207831938Y-58264475D01*
X207824136Y-58263857D01*
X207322049Y-58226041D01*
X207314189Y-58225480D01*
X207312188Y-58225345D01*
X207304417Y-58224852D01*
X207304288Y-58224844D01*
X207304267Y-58224843D01*
X207145768Y-58215424D01*
X206801835Y-58194988D01*
X206793831Y-58194545D01*
X206793203Y-58194512D01*
X206792040Y-58194453D01*
X206791937Y-58194448D01*
X206791896Y-58194446D01*
X206784282Y-58194083D01*
X206280977Y-58172163D01*
X206272626Y-58171835D01*
X206271312Y-58171789D01*
X206270664Y-58171767D01*
X206263363Y-58171539D01*
X206263145Y-58171532D01*
X205760346Y-58157603D01*
X205760284Y-58157601D01*
X205760265Y-58157601D01*
X205758299Y-58157554D01*
X205752098Y-58157407D01*
X205750274Y-58157371D01*
X205746032Y-58157305D01*
X205742515Y-58157250D01*
X205724571Y-58157036D01*
X205239180Y-58151274D01*
X205231221Y-58151211D01*
X205229453Y-58151204D01*
X205229452Y-58151204D01*
X205221462Y-58151204D01*
X205221455Y-58151204D01*
X204717976Y-58153196D01*
X204710898Y-58153249D01*
X204708756Y-58153274D01*
X204700306Y-58153405D01*
X204196975Y-58163364D01*
X204188735Y-58163561D01*
X204186944Y-58163611D01*
X204179651Y-58163842D01*
X204179204Y-58163857D01*
X204179193Y-58163857D01*
X204179048Y-58163862D01*
X203676244Y-58181773D01*
X203668315Y-58182088D01*
X203666285Y-58182176D01*
X203658553Y-58182545D01*
X203511899Y-58190094D01*
X203155826Y-58208426D01*
X203153440Y-58208558D01*
X203147810Y-58208870D01*
X203145963Y-58208980D01*
X203138013Y-58209484D01*
X202960436Y-58221447D01*
X202635691Y-58243324D01*
X202635578Y-58243332D01*
X202635475Y-58243339D01*
X202627917Y-58243878D01*
X202625970Y-58244024D01*
X202618115Y-58244647D01*
X202116517Y-58286420D01*
X202108750Y-58287097D01*
X202107191Y-58287239D01*
X202105302Y-58287418D01*
X202098776Y-58288039D01*
X201949578Y-58302845D01*
X201597820Y-58337754D01*
X201592543Y-58338299D01*
X201589935Y-58338569D01*
X201588817Y-58338688D01*
X201588067Y-58338769D01*
X201580347Y-58339628D01*
X201580321Y-58339630D01*
X201580231Y-58339641D01*
X201426371Y-58357373D01*
X201079902Y-58397302D01*
X201071947Y-58398252D01*
X201070217Y-58398466D01*
X201065954Y-58399009D01*
X201062492Y-58399450D01*
X201062405Y-58399461D01*
X201062322Y-58399472D01*
X200563649Y-58464956D01*
X200563650Y-58464957D01*
X200563603Y-58464963D01*
X200563438Y-58464985D01*
X200558958Y-58465589D01*
X200556355Y-58465940D01*
X200554665Y-58466174D01*
X200545975Y-58467417D01*
X200545945Y-58467421D01*
X200545885Y-58467430D01*
X200312144Y-58501896D01*
X200047672Y-58540893D01*
X200039902Y-58542070D01*
X200038186Y-58542337D01*
X200030298Y-58543596D01*
X199567709Y-58619305D01*
X199533487Y-58624906D01*
X199525916Y-58626175D01*
X199524196Y-58626470D01*
X199524107Y-58626485D01*
X199524000Y-58626504D01*
X199516255Y-58627863D01*
X199063054Y-58709420D01*
X199020586Y-58717063D01*
X199012952Y-58718468D01*
X199012554Y-58718542D01*
X199010936Y-58718846D01*
X199003117Y-58720349D01*
X198509214Y-58817323D01*
X198502071Y-58818754D01*
X198499888Y-58819199D01*
X198491755Y-58820895D01*
X197999664Y-58925628D01*
X197991307Y-58927441D01*
X197989664Y-58927805D01*
X197982048Y-58929522D01*
X197491472Y-59042076D01*
X197483900Y-59043845D01*
X197482057Y-59044283D01*
X197474247Y-59046172D01*
X196985263Y-59166538D01*
X196977757Y-59168418D01*
X196977675Y-59168439D01*
X196975927Y-59168884D01*
X196975870Y-59168898D01*
X196975818Y-59168912D01*
X196968388Y-59170834D01*
X196481310Y-59298940D01*
X196473389Y-59301056D01*
X196472112Y-59301403D01*
X196471931Y-59301453D01*
X196464285Y-59303562D01*
X196464218Y-59303580D01*
X196464141Y-59303602D01*
X195979485Y-59439307D01*
X195972029Y-59441426D01*
X195970209Y-59441951D01*
X195962385Y-59444241D01*
X195480139Y-59587538D01*
X195472629Y-59589802D01*
X195470860Y-59590342D01*
X195463249Y-59592700D01*
X194982633Y-59743831D01*
X194974849Y-59746314D01*
X194973203Y-59746847D01*
X194965831Y-59749262D01*
X194488151Y-59907820D01*
X194480722Y-59910318D01*
X194479161Y-59910849D01*
X194471386Y-59913532D01*
X194228023Y-59998612D01*
X193996158Y-60079672D01*
X193996130Y-60079682D01*
X193988846Y-60082259D01*
X193987066Y-60082897D01*
X193979578Y-60085614D01*
X193506856Y-60259320D01*
X193499464Y-60262071D01*
X193497598Y-60262774D01*
X193497532Y-60262799D01*
X193490244Y-60265576D01*
X193490195Y-60265594D01*
X193490011Y-60265665D01*
X193020848Y-60446540D01*
X193013045Y-60449584D01*
X193011818Y-60450069D01*
X193011603Y-60450154D01*
X193007053Y-60451969D01*
X193004118Y-60453141D01*
X192537463Y-60641586D01*
X192530180Y-60644560D01*
X192528652Y-60645191D01*
X192522473Y-60647771D01*
X192520976Y-60648397D01*
X192057210Y-60844268D01*
X192057111Y-60844310D01*
X192049915Y-60847382D01*
X192048163Y-60848138D01*
X192041068Y-60851235D01*
X191821959Y-60947891D01*
X191580372Y-61054462D01*
X191573222Y-61057649D01*
X191573081Y-61057712D01*
X191571584Y-61058386D01*
X191564373Y-61061670D01*
X191564300Y-61061703D01*
X191564242Y-61061730D01*
X191366893Y-61152542D01*
X191106814Y-61272222D01*
X191099234Y-61275749D01*
X191098510Y-61276089D01*
X191097507Y-61276562D01*
X191097336Y-61276642D01*
X191097328Y-61276647D01*
X191090884Y-61279707D01*
X190637034Y-61497323D01*
X190630614Y-61500431D01*
X190630426Y-61500522D01*
X190628732Y-61501349D01*
X190628604Y-61501412D01*
X190621065Y-61505135D01*
X190170473Y-61730026D01*
X190163747Y-61733415D01*
X190162100Y-61734253D01*
X190154858Y-61737974D01*
X189707861Y-61969979D01*
X189701120Y-61973512D01*
X189699731Y-61974247D01*
X189699631Y-61974300D01*
X189692432Y-61978144D01*
X189249203Y-62217174D01*
X189249086Y-62217237D01*
X189248989Y-62217290D01*
X189242447Y-62220851D01*
X189242307Y-62220928D01*
X189240769Y-62221773D01*
X189238582Y-62222985D01*
X189233732Y-62225675D01*
X188794469Y-62471617D01*
X188794425Y-62471642D01*
X188787327Y-62475654D01*
X188787230Y-62475708D01*
X188787197Y-62475728D01*
X188785761Y-62476547D01*
X188779044Y-62480415D01*
X188343814Y-62733229D01*
X188337326Y-62737029D01*
X188335681Y-62738002D01*
X188328526Y-62742270D01*
X187897285Y-63001980D01*
X187890440Y-63006140D01*
X187888923Y-63007069D01*
X187882124Y-63011274D01*
X187455260Y-63277644D01*
X187455148Y-63277714D01*
X187455059Y-63277770D01*
X187453393Y-63278818D01*
X187448376Y-63281975D01*
X187447187Y-63282730D01*
X187440064Y-63287293D01*
X187017269Y-63560513D01*
X187010562Y-63564886D01*
X187009117Y-63565837D01*
X187002562Y-63570184D01*
X186584004Y-63850155D01*
X186577648Y-63854441D01*
X186576039Y-63855535D01*
X186569340Y-63860133D01*
X186155703Y-64146391D01*
X186149255Y-64150889D01*
X186147769Y-64151934D01*
X186141106Y-64156659D01*
X185731571Y-64449770D01*
X185725038Y-64454486D01*
X185723512Y-64455597D01*
X185717701Y-64459863D01*
X185717301Y-64460157D01*
X185523238Y-64603750D01*
X185312490Y-64759688D01*
X185306344Y-64764273D01*
X185304874Y-64765378D01*
X185298496Y-64770215D01*
X184898618Y-65076005D01*
X184892456Y-65080754D01*
X184891127Y-65081787D01*
X184884837Y-65086715D01*
X184884724Y-65086803D01*
X184884635Y-65086874D01*
X184489562Y-65399023D01*
X184489376Y-65399170D01*
X184483474Y-65403870D01*
X184482106Y-65404968D01*
X184475719Y-65410138D01*
X184085597Y-65728532D01*
X184079266Y-65733743D01*
X184077935Y-65734848D01*
X184072048Y-65739771D01*
X183687217Y-66064126D01*
X183681331Y-66069126D01*
X183679993Y-66070272D01*
X183679881Y-66070369D01*
X183673744Y-66075667D01*
X183673626Y-66075769D01*
X183673555Y-66075831D01*
X183492877Y-66233074D01*
X183479596Y-66246105D01*
X183407194Y-66317141D01*
X183407178Y-66317158D01*
X183402949Y-66321833D01*
X183402950Y-66321834D01*
X183398084Y-66327215D01*
X183398082Y-66327215D01*
X183387389Y-66339042D01*
X183387363Y-66339073D01*
X183387065Y-66339479D01*
X183381108Y-66346952D01*
X183368446Y-66361635D01*
X183353703Y-66379131D01*
X183353694Y-66379143D01*
X183315230Y-66436899D01*
X183315231Y-66436900D01*
X183313614Y-66439327D01*
X183267298Y-66502288D01*
X183257425Y-66523701D01*
X183252073Y-66531739D01*
X183240933Y-66548467D01*
X183240929Y-66548475D01*
X183205308Y-66636426D01*
X183202989Y-66641787D01*
X183182708Y-66685784D01*
X183182462Y-66686065D01*
X183168323Y-66727260D01*
X183167257Y-66730376D01*
X183164558Y-66737043D01*
X183162143Y-66745326D01*
X183161217Y-66748037D01*
X183161213Y-66748042D01*
X183161196Y-66748097D01*
X183159335Y-66753527D01*
X183159333Y-66753535D01*
X183157160Y-66762136D01*
X183155996Y-66766421D01*
X183145817Y-66801382D01*
X183144977Y-66804267D01*
X183143953Y-66809304D01*
X183143946Y-66809337D01*
X183139187Y-66832753D01*
X183137897Y-66838415D01*
X183118586Y-66914887D01*
X183118586Y-66914890D01*
X183117356Y-66934315D01*
X183117357Y-66934316D01*
X183116819Y-66942825D01*
X183111837Y-66967347D01*
X183110645Y-67040438D01*
X183110461Y-67043350D01*
X183105744Y-67117929D01*
X183105745Y-67117939D01*
X183107658Y-67131566D01*
X183108846Y-67150815D01*
X183108521Y-67170771D01*
X183108522Y-67170774D01*
X183126162Y-67264318D01*
X183127105Y-67270050D01*
X183133797Y-67317698D01*
X183133729Y-67318154D01*
X183144058Y-67360204D01*
X183144690Y-67362907D01*
X183145121Y-67364850D01*
X183146224Y-67370695D01*
X183147004Y-67373334D01*
X183147935Y-67377524D01*
X183145866Y-67408279D01*
X183145925Y-67439107D01*
X183143543Y-67442828D01*
X183143247Y-67447236D01*
X183124878Y-67471992D01*
X183108263Y-67497956D01*
X183102845Y-67501689D01*
X183101615Y-67503348D01*
X183099011Y-67504331D01*
X183085336Y-67513756D01*
X182801161Y-67665651D01*
X182801151Y-67665657D01*
X182531532Y-67845811D01*
X182531518Y-67845821D01*
X182280841Y-68051546D01*
X182051546Y-68280841D01*
X181845821Y-68531518D01*
X181845811Y-68531532D01*
X181665657Y-68801151D01*
X181665651Y-68801161D01*
X181512372Y-69087924D01*
X181463409Y-69137768D01*
X181395272Y-69153228D01*
X181366108Y-69147850D01*
X181320111Y-69133510D01*
X181320103Y-69133508D01*
X181320102Y-69133508D01*
X181260011Y-69127507D01*
X181117663Y-69113291D01*
X181117660Y-69113291D01*
X181103686Y-69113316D01*
X181047778Y-69113417D01*
X180881845Y-69127507D01*
X180685711Y-69181571D01*
X180504472Y-69274010D01*
X180445751Y-69311897D01*
X180377669Y-69359934D01*
X180377659Y-69359942D01*
X180229805Y-69499697D01*
X180012243Y-69751690D01*
X180007004Y-69757809D01*
X180005937Y-69759066D01*
X180000836Y-69765119D01*
X179677827Y-70151443D01*
X179672643Y-70157697D01*
X179671535Y-70159044D01*
X179666555Y-70165149D01*
X179350046Y-70556110D01*
X179345207Y-70562133D01*
X179344244Y-70563341D01*
X179338875Y-70570131D01*
X179028468Y-70966213D01*
X179023722Y-70972315D01*
X179022742Y-70973586D01*
X179022666Y-70973684D01*
X179022586Y-70973789D01*
X179017495Y-70980444D01*
X178713339Y-71381463D01*
X178713259Y-71381568D01*
X178713191Y-71381659D01*
X178708591Y-71387773D01*
X178707430Y-71389330D01*
X178702760Y-71395641D01*
X178404828Y-71801641D01*
X178400118Y-71808116D01*
X178400067Y-71808187D01*
X178399052Y-71809594D01*
X178395313Y-71814817D01*
X178394466Y-71816002D01*
X178103237Y-72226327D01*
X178103150Y-72226451D01*
X178098610Y-72232902D01*
X178098481Y-72233087D01*
X178097673Y-72234242D01*
X178093077Y-72240880D01*
X177808145Y-72656105D01*
X177803619Y-72662759D01*
X177802585Y-72664292D01*
X177798424Y-72670515D01*
X177519937Y-73090436D01*
X177515499Y-73097188D01*
X177514549Y-73098648D01*
X177510368Y-73105121D01*
X177238781Y-73529059D01*
X177234506Y-73535790D01*
X177233784Y-73536936D01*
X177229336Y-73544061D01*
X176964614Y-73972049D01*
X176960485Y-73978782D01*
X176959548Y-73980326D01*
X176955394Y-73987221D01*
X176697376Y-74419512D01*
X176693097Y-74426750D01*
X176692361Y-74428004D01*
X176688405Y-74434818D01*
X176437248Y-74871160D01*
X176433240Y-74878190D01*
X176432226Y-74879986D01*
X176428603Y-74886456D01*
X176184373Y-75326741D01*
X176180793Y-75333252D01*
X176179925Y-75334846D01*
X176175879Y-75342344D01*
X175938637Y-75786457D01*
X175934870Y-75793575D01*
X175934192Y-75794869D01*
X175930510Y-75801965D01*
X175700258Y-76249908D01*
X175696492Y-76257308D01*
X175695832Y-76258619D01*
X175695780Y-76258723D01*
X175692357Y-76265585D01*
X175692277Y-76265746D01*
X175692254Y-76265793D01*
X175469401Y-76716757D01*
X175469333Y-76716895D01*
X175469290Y-76716983D01*
X175465670Y-76724384D01*
X175464913Y-76725948D01*
X175464821Y-76726139D01*
X175464820Y-76726142D01*
X175461552Y-76732957D01*
X175245836Y-77187451D01*
X175245740Y-77187654D01*
X175244589Y-77190102D01*
X175242613Y-77194304D01*
X175241839Y-77195967D01*
X175238266Y-77203725D01*
X175029591Y-77661968D01*
X175026203Y-77669490D01*
X175025486Y-77671098D01*
X175022396Y-77678109D01*
X174821044Y-78139494D01*
X174817862Y-78146865D01*
X174817156Y-78148521D01*
X174814132Y-78155682D01*
X174620064Y-78620298D01*
X174616925Y-78627900D01*
X174616192Y-78629699D01*
X174613474Y-78636432D01*
X174613384Y-78636656D01*
X174523552Y-78861670D01*
X174426744Y-79104157D01*
X174423928Y-79111290D01*
X174423366Y-79112729D01*
X174420255Y-79120791D01*
X174240951Y-79591419D01*
X174238338Y-79598356D01*
X174237561Y-79600446D01*
X174234922Y-79607626D01*
X174063179Y-80080784D01*
X174060481Y-80088307D01*
X174059782Y-80090284D01*
X174057227Y-80097588D01*
X173892938Y-80573561D01*
X173890553Y-80580554D01*
X173889983Y-80582248D01*
X173887311Y-80590289D01*
X173730563Y-81068847D01*
X173728130Y-81076375D01*
X173727632Y-81077941D01*
X173727558Y-81078174D01*
X173725220Y-81085611D01*
X173725193Y-81085697D01*
X173576028Y-81566705D01*
X173573777Y-81574067D01*
X173573208Y-81575956D01*
X173571014Y-81583340D01*
X173429534Y-82066461D01*
X173427334Y-82074082D01*
X173426814Y-82075911D01*
X173424695Y-82083478D01*
X173290867Y-82568826D01*
X173288974Y-82575790D01*
X173288494Y-82577581D01*
X173286279Y-82585992D01*
X173223290Y-82829404D01*
X173223289Y-82829405D01*
X173160188Y-83073240D01*
X173160174Y-83073297D01*
X173158160Y-83081213D01*
X173157705Y-83083033D01*
X173157636Y-83083309D01*
X173155864Y-83090510D01*
X173037482Y-83579764D01*
X173035798Y-83586841D01*
X173035290Y-83589011D01*
X173033448Y-83597033D01*
X173033438Y-83597079D01*
X172922801Y-84088204D01*
X172922762Y-84088380D01*
X172922747Y-84088447D01*
X172921050Y-84096121D01*
X172920670Y-84097873D01*
X172919101Y-84105250D01*
X172919051Y-84105486D01*
X172816186Y-84598371D01*
X172816178Y-84598411D01*
X172814479Y-84606730D01*
X172814158Y-84608336D01*
X172812678Y-84615883D01*
X172765097Y-84863395D01*
X172717692Y-85109991D01*
X172716712Y-85115189D01*
X172716298Y-85117391D01*
X172715939Y-85119334D01*
X172714499Y-85127331D01*
X172627294Y-85623178D01*
X172625939Y-85631060D01*
X172625667Y-85632680D01*
X172624327Y-85640859D01*
X172545001Y-86137891D01*
X172543808Y-86145563D01*
X172543492Y-86147643D01*
X172542350Y-86155394D01*
X172470895Y-86653646D01*
X172469854Y-86661104D01*
X172469630Y-86662757D01*
X172469597Y-86663003D01*
X172468504Y-86671312D01*
X172468469Y-86671578D01*
X172413949Y-87099894D01*
X172413949Y-87099896D01*
X172404989Y-87170272D01*
X172404967Y-87170446D01*
X172404960Y-87170505D01*
X172404075Y-87177666D01*
X172404051Y-87177863D01*
X172404050Y-87177874D01*
X172403846Y-87179572D01*
X172402851Y-87188169D01*
X172347170Y-87688712D01*
X172346283Y-87697006D01*
X172346071Y-87699080D01*
X172345362Y-87706247D01*
X172297653Y-88207131D01*
X172296965Y-88214665D01*
X172296801Y-88216530D01*
X172296099Y-88224931D01*
X172258491Y-88699195D01*
X172256299Y-88726838D01*
X172255744Y-88734173D01*
X172255620Y-88735898D01*
X172255612Y-88736018D01*
X172255040Y-88744476D01*
X172227048Y-89186067D01*
X172223179Y-89247099D01*
X172222733Y-89254596D01*
X172222617Y-89256681D01*
X172222204Y-89264699D01*
X172198316Y-89767436D01*
X172197981Y-89775110D01*
X172197910Y-89776903D01*
X172197620Y-89785026D01*
X172181684Y-90288315D01*
X172181461Y-90296394D01*
X172181420Y-90298104D01*
X172181259Y-90306254D01*
X172173299Y-90809142D01*
X172173219Y-90815445D01*
X172173218Y-90815582D01*
X172173206Y-90816767D01*
X172173201Y-90817317D01*
X172173157Y-90824886D01*
X172172674Y-91069846D01*
X172172660Y-91076801D01*
X167503674Y-91076801D01*
X167503674Y-90388453D01*
X167503740Y-90384396D01*
X167515084Y-90037873D01*
X167543760Y-89161895D01*
X167543956Y-89157906D01*
X167623955Y-87937354D01*
X167624287Y-87933318D01*
X167744178Y-86716039D01*
X167744629Y-86712121D01*
X167904286Y-85499401D01*
X167904872Y-85495452D01*
X168104129Y-84288574D01*
X168104843Y-84284654D01*
X168343472Y-83084980D01*
X168344300Y-83081143D01*
X168622064Y-81889877D01*
X168623046Y-81885961D01*
X168706592Y-81574161D01*
X168939625Y-80704470D01*
X168940708Y-80700676D01*
X169295800Y-79530095D01*
X169297004Y-79526348D01*
X169690186Y-78368072D01*
X169691543Y-78364282D01*
X169770046Y-78155704D01*
X170122393Y-77219540D01*
X170123863Y-77215819D01*
X170591961Y-76085731D01*
X170593540Y-76082087D01*
X171098360Y-74967928D01*
X171100084Y-74964285D01*
X171138426Y-74886537D01*
X171641065Y-73867282D01*
X171642909Y-73863695D01*
X171695567Y-73765179D01*
X172219504Y-72784961D01*
X172221418Y-72781516D01*
X172833034Y-71722166D01*
X172835071Y-71718768D01*
X173481001Y-70680028D01*
X173483152Y-70676691D01*
X174162731Y-69659630D01*
X174164995Y-69656359D01*
X174877471Y-68662098D01*
X174879851Y-68658889D01*
X175624475Y-67688479D01*
X175626961Y-67685346D01*
X176402955Y-66739793D01*
X176405497Y-66736796D01*
X177212050Y-65817099D01*
X177214655Y-65814225D01*
X178050891Y-64921385D01*
X178053624Y-64918562D01*
X178918562Y-64053624D01*
X178921385Y-64050891D01*
X179814225Y-63214655D01*
X179817099Y-63212050D01*
X180736796Y-62405497D01*
X180739793Y-62402955D01*
X181685346Y-61626961D01*
X181688479Y-61624475D01*
X182658889Y-60879851D01*
X182662098Y-60877471D01*
X183656359Y-60164995D01*
X183659630Y-60162731D01*
X184676691Y-59483152D01*
X184680028Y-59481001D01*
X185718768Y-58835071D01*
X185722166Y-58833034D01*
X186781516Y-58221418D01*
X186784961Y-58219504D01*
X187863716Y-57642897D01*
X187867282Y-57641065D01*
X188964309Y-57100072D01*
X188967928Y-57098360D01*
X190082087Y-56593540D01*
X190085731Y-56591961D01*
X191215819Y-56123863D01*
X191219540Y-56122393D01*
X192364294Y-55691538D01*
X192368072Y-55690186D01*
X193526348Y-55297004D01*
X193530095Y-55295800D01*
X194700676Y-54940708D01*
X194704470Y-54939625D01*
X195693685Y-54674565D01*
X195885961Y-54623046D01*
X195889877Y-54622064D01*
X197081143Y-54344300D01*
X197084980Y-54343472D01*
X198284654Y-54104843D01*
X198288574Y-54104129D01*
X199495452Y-53904872D01*
X199499401Y-53904286D01*
X200712121Y-53744629D01*
X200716039Y-53744178D01*
X201933326Y-53624286D01*
X201937354Y-53623955D01*
X203157906Y-53543956D01*
X203161895Y-53543760D01*
X204384397Y-53503740D01*
X204388454Y-53503674D01*
X205611546Y-53503674D01*
X205615603Y-53503740D01*
G37*
%TD.AperFunction*%
%TD*%
%TA.AperFunction,Conductor*%
%TO.N,Net-(Q1-G)*%
G36*
X214660647Y-114825745D02*
G01*
X215193455Y-115391982D01*
X215196629Y-115400356D01*
X215193455Y-115408018D01*
X214660647Y-115974254D01*
X214652482Y-115977931D01*
X214646322Y-115976395D01*
X213905896Y-115553368D01*
X213900412Y-115546288D01*
X213900000Y-115543209D01*
X213900000Y-115256790D01*
X213903427Y-115248517D01*
X213905893Y-115246632D01*
X214646323Y-114823603D01*
X214655205Y-114822475D01*
X214660647Y-114825745D01*
G37*
%TD.AperFunction*%
%TD*%
%TA.AperFunction,Conductor*%
%TO.N,Net-(Q1-G)*%
G36*
X215753676Y-114823603D02*
G01*
X216494104Y-115246631D01*
X216499588Y-115253711D01*
X216500000Y-115256790D01*
X216500000Y-115543209D01*
X216496573Y-115551482D01*
X216494104Y-115553368D01*
X215753677Y-115976395D01*
X215744794Y-115977524D01*
X215739352Y-115974254D01*
X215504026Y-115724164D01*
X215206543Y-115408016D01*
X215203370Y-115399644D01*
X215206543Y-115391983D01*
X215739352Y-114825744D01*
X215747517Y-114822068D01*
X215753676Y-114823603D01*
G37*
%TD.AperFunction*%
%TD*%
%TA.AperFunction,Conductor*%
%TO.N,/EN*%
G36*
X212398298Y-117012548D02*
G01*
X212404201Y-117019281D01*
X212404591Y-117020729D01*
X212480534Y-117397689D01*
X212480534Y-117402311D01*
X212404591Y-117779270D01*
X212399597Y-117786703D01*
X212390810Y-117788429D01*
X212389362Y-117788039D01*
X212363513Y-117779270D01*
X212296630Y-117756580D01*
X211695627Y-117552693D01*
X211688894Y-117546790D01*
X211687686Y-117541613D01*
X211687686Y-117258386D01*
X211691113Y-117250113D01*
X211695627Y-117247306D01*
X212389364Y-117011960D01*
X212398298Y-117012548D01*
G37*
%TD.AperFunction*%
%TD*%
%TA.AperFunction,Conductor*%
%TO.N,+5V*%
G36*
X203099810Y-114578427D02*
G01*
X203102649Y-114583038D01*
X203428701Y-115572444D01*
X203428036Y-115581374D01*
X203425815Y-115584426D01*
X202608226Y-116392866D01*
X202599934Y-116396246D01*
X202591774Y-116392866D01*
X202531969Y-116333730D01*
X201774183Y-115584424D01*
X201770710Y-115576172D01*
X201771297Y-115572449D01*
X202097351Y-114583037D01*
X202103195Y-114576253D01*
X202108463Y-114575000D01*
X203091537Y-114575000D01*
X203099810Y-114578427D01*
G37*
%TD.AperFunction*%
%TD*%
%TA.AperFunction,Conductor*%
%TO.N,Net-(Q1-G)*%
G36*
X219821352Y-120812351D02*
G01*
X219822649Y-120813893D01*
X220148721Y-121277502D01*
X220150677Y-121286241D01*
X220150268Y-121287881D01*
X219859932Y-122172595D01*
X219854096Y-122179387D01*
X219845167Y-122180064D01*
X219838375Y-122174228D01*
X219838210Y-122173889D01*
X219467317Y-121377955D01*
X219466929Y-121369008D01*
X219466951Y-121368948D01*
X219601623Y-121016970D01*
X219604273Y-121012884D01*
X219804807Y-120812350D01*
X219813079Y-120808924D01*
X219821352Y-120812351D01*
G37*
%TD.AperFunction*%
%TD*%
%TA.AperFunction,Conductor*%
%TO.N,GND*%
G36*
X205227196Y-59156703D02*
G01*
X205730579Y-59162679D01*
X205732419Y-59162715D01*
X206235517Y-59176653D01*
X206237404Y-59176719D01*
X206740347Y-59198623D01*
X206742173Y-59198717D01*
X207244625Y-59228573D01*
X207246553Y-59228703D01*
X207748492Y-59266508D01*
X207750270Y-59266656D01*
X208251642Y-59312409D01*
X208253384Y-59312582D01*
X208754001Y-59366267D01*
X208755724Y-59366466D01*
X209255353Y-59428058D01*
X209257115Y-59428289D01*
X209755711Y-59497781D01*
X209757558Y-59498053D01*
X210254967Y-59575423D01*
X210256757Y-59575716D01*
X210752856Y-59660944D01*
X210754756Y-59661287D01*
X211249391Y-59754346D01*
X211251181Y-59754697D01*
X211744378Y-59855593D01*
X211746212Y-59855984D01*
X211987502Y-59909338D01*
X212237554Y-59964629D01*
X212239466Y-59965066D01*
X212479299Y-60022094D01*
X212729133Y-60081499D01*
X212731038Y-60081968D01*
X213218783Y-60206130D01*
X213220681Y-60206630D01*
X213308309Y-60230419D01*
X213706374Y-60338489D01*
X213708113Y-60338976D01*
X214191732Y-60478526D01*
X214193607Y-60479083D01*
X214674890Y-60626249D01*
X214676723Y-60626826D01*
X215155630Y-60781595D01*
X215157449Y-60782199D01*
X215633880Y-60944538D01*
X215635562Y-60945126D01*
X216109458Y-61115018D01*
X216111242Y-61115674D01*
X216582296Y-61293011D01*
X216584086Y-61293702D01*
X217052270Y-61478468D01*
X217053918Y-61479133D01*
X217519174Y-61671311D01*
X217520934Y-61672054D01*
X217983090Y-61871568D01*
X217984795Y-61872321D01*
X218443648Y-62079086D01*
X218445385Y-62079886D01*
X218900946Y-62293904D01*
X218902605Y-62294699D01*
X219354706Y-62515894D01*
X219356461Y-62516770D01*
X219522026Y-62601046D01*
X219805024Y-62745099D01*
X219806662Y-62745949D01*
X220251640Y-62981395D01*
X220253239Y-62982258D01*
X220473064Y-63103063D01*
X220694265Y-63224624D01*
X220695978Y-63225582D01*
X220899077Y-63341417D01*
X221133229Y-63474962D01*
X221134862Y-63475911D01*
X221349169Y-63602675D01*
X221568019Y-63732126D01*
X221569690Y-63733132D01*
X221998806Y-63996210D01*
X222000385Y-63997196D01*
X222425255Y-64267016D01*
X222426889Y-64268072D01*
X222847489Y-64544616D01*
X222849044Y-64545657D01*
X223265130Y-64828766D01*
X223266640Y-64829810D01*
X223646845Y-65097404D01*
X223678304Y-65119546D01*
X223679900Y-65120689D01*
X224086827Y-65416831D01*
X224088318Y-65417935D01*
X224490520Y-65720489D01*
X224492079Y-65721681D01*
X224889428Y-66030553D01*
X224890968Y-66031770D01*
X225056489Y-66164689D01*
X225283383Y-66346893D01*
X225284809Y-66348057D01*
X225672278Y-66669426D01*
X225673683Y-66670609D01*
X225864676Y-66834191D01*
X226055995Y-66998052D01*
X226057475Y-66999341D01*
X226074674Y-67014550D01*
X226111855Y-67073705D01*
X226111151Y-67143571D01*
X226072787Y-67201966D01*
X226008942Y-67230349D01*
X225980378Y-67230843D01*
X225750512Y-67208203D01*
X225662143Y-67199500D01*
X225337857Y-67199500D01*
X225265099Y-67206666D01*
X225015142Y-67231284D01*
X225015125Y-67231287D01*
X224697097Y-67294545D01*
X224697086Y-67294548D01*
X224386752Y-67388686D01*
X224087150Y-67512786D01*
X224087145Y-67512788D01*
X223801169Y-67665646D01*
X223801151Y-67665657D01*
X223531532Y-67845811D01*
X223531518Y-67845821D01*
X223280841Y-68051546D01*
X223051546Y-68280841D01*
X222845821Y-68531518D01*
X222845811Y-68531532D01*
X222665657Y-68801151D01*
X222665646Y-68801169D01*
X222512788Y-69087145D01*
X222512786Y-69087150D01*
X222388686Y-69386752D01*
X222294548Y-69697086D01*
X222294545Y-69697097D01*
X222231287Y-70015125D01*
X222231284Y-70015142D01*
X222199500Y-70337860D01*
X222199500Y-70662139D01*
X222231284Y-70984857D01*
X222231287Y-70984874D01*
X222294545Y-71302902D01*
X222294548Y-71302913D01*
X222388686Y-71613247D01*
X222512786Y-71912849D01*
X222512788Y-71912854D01*
X222665646Y-72198830D01*
X222665657Y-72198848D01*
X222845811Y-72468467D01*
X222845821Y-72468481D01*
X223051546Y-72719158D01*
X223280841Y-72948453D01*
X223280846Y-72948457D01*
X223280847Y-72948458D01*
X223531524Y-73154183D01*
X223801158Y-73334347D01*
X223801167Y-73334352D01*
X223801169Y-73334353D01*
X224087145Y-73487211D01*
X224087147Y-73487211D01*
X224087153Y-73487215D01*
X224386754Y-73611314D01*
X224697077Y-73705449D01*
X224697083Y-73705450D01*
X224697086Y-73705451D01*
X224697097Y-73705454D01*
X224896528Y-73745122D01*
X225015132Y-73768714D01*
X225337857Y-73800500D01*
X225337860Y-73800500D01*
X225662140Y-73800500D01*
X225662143Y-73800500D01*
X225984868Y-73768714D01*
X226142295Y-73737399D01*
X226302902Y-73705454D01*
X226302913Y-73705451D01*
X226302913Y-73705450D01*
X226302923Y-73705449D01*
X226613246Y-73611314D01*
X226912847Y-73487215D01*
X227198842Y-73334347D01*
X227468476Y-73154183D01*
X227719153Y-72948458D01*
X227948458Y-72719153D01*
X228154183Y-72468476D01*
X228334347Y-72198842D01*
X228487215Y-71912847D01*
X228611314Y-71613246D01*
X228705449Y-71302923D01*
X228705451Y-71302913D01*
X228705454Y-71302902D01*
X228746128Y-71098417D01*
X228768714Y-70984868D01*
X228800500Y-70662143D01*
X228800500Y-70337857D01*
X228768714Y-70015132D01*
X228766134Y-70002162D01*
X228772358Y-69932573D01*
X228815219Y-69877394D01*
X228881107Y-69854146D01*
X228949105Y-69870211D01*
X228980965Y-69896194D01*
X229262209Y-70216784D01*
X229263491Y-70218269D01*
X229589348Y-70601791D01*
X229590580Y-70603265D01*
X229810374Y-70870410D01*
X229910332Y-70991902D01*
X229911567Y-70993427D01*
X230225157Y-71387113D01*
X230226367Y-71388658D01*
X230533610Y-71787158D01*
X230534795Y-71788720D01*
X230684238Y-71989028D01*
X230835747Y-72192104D01*
X230836908Y-72193687D01*
X231131436Y-72601781D01*
X231132572Y-72603381D01*
X231420594Y-73016068D01*
X231421704Y-73017686D01*
X231703178Y-73434908D01*
X231704205Y-73436457D01*
X231737291Y-73487213D01*
X231979031Y-73858067D01*
X231980090Y-73859719D01*
X232248228Y-74285657D01*
X232249260Y-74287326D01*
X232510579Y-74717379D01*
X232511568Y-74719036D01*
X232766092Y-75153246D01*
X232767063Y-75154933D01*
X232891077Y-75374387D01*
X233014659Y-75593075D01*
X233015611Y-75594791D01*
X233256235Y-76036782D01*
X233257160Y-76038513D01*
X233490783Y-76484306D01*
X233491680Y-76486052D01*
X233718194Y-76935435D01*
X233719063Y-76937194D01*
X233938425Y-77390081D01*
X233939267Y-77391854D01*
X234151470Y-77848233D01*
X234152283Y-77850019D01*
X234357213Y-78309647D01*
X234357998Y-78311446D01*
X234555632Y-78774268D01*
X234556388Y-78776078D01*
X234746669Y-79241960D01*
X234747397Y-79243783D01*
X234930284Y-79712628D01*
X234930983Y-79714462D01*
X235106441Y-80186179D01*
X235107110Y-80188023D01*
X235275056Y-80662385D01*
X235275697Y-80664241D01*
X235436150Y-81141311D01*
X235436760Y-81143175D01*
X235589591Y-81622556D01*
X235590173Y-81624431D01*
X235735454Y-82106361D01*
X235736005Y-82108245D01*
X235873593Y-82592245D01*
X235874115Y-82594136D01*
X236004051Y-83080347D01*
X236004543Y-83082247D01*
X236126778Y-83570494D01*
X236127239Y-83572402D01*
X236241712Y-84062436D01*
X236242143Y-84064350D01*
X236348852Y-84556158D01*
X236349253Y-84558079D01*
X236448155Y-85051467D01*
X236448526Y-85053395D01*
X236539625Y-85548383D01*
X236539965Y-85550315D01*
X236623215Y-86046660D01*
X236623524Y-86048598D01*
X236698900Y-86546135D01*
X236699179Y-86548078D01*
X236766686Y-87046861D01*
X236766933Y-87048808D01*
X236826523Y-87548467D01*
X236826740Y-87550417D01*
X236878415Y-88050962D01*
X236878602Y-88052916D01*
X236922359Y-88554329D01*
X236922514Y-88556285D01*
X236958325Y-89058270D01*
X236958449Y-89060228D01*
X236986313Y-89562709D01*
X236986406Y-89564670D01*
X237006312Y-90067530D01*
X237006374Y-90069492D01*
X237018320Y-90572606D01*
X237018351Y-90574568D01*
X237022334Y-91077804D01*
X237022334Y-91079766D01*
X237018351Y-91583001D01*
X237018320Y-91584963D01*
X237006374Y-92088077D01*
X237006312Y-92090039D01*
X236986406Y-92592899D01*
X236986313Y-92594860D01*
X236958449Y-93097341D01*
X236958325Y-93099299D01*
X236922514Y-93601284D01*
X236922359Y-93603240D01*
X236878602Y-94104653D01*
X236878415Y-94106607D01*
X236826740Y-94607152D01*
X236826523Y-94609102D01*
X236766933Y-95108761D01*
X236766686Y-95110708D01*
X236699179Y-95609491D01*
X236698900Y-95611434D01*
X236623524Y-96108971D01*
X236623215Y-96110909D01*
X236539965Y-96607254D01*
X236539625Y-96609186D01*
X236448526Y-97104174D01*
X236448155Y-97106102D01*
X236349253Y-97599490D01*
X236348852Y-97601411D01*
X236242143Y-98093219D01*
X236241712Y-98095133D01*
X236127239Y-98585167D01*
X236126778Y-98587075D01*
X236004543Y-99075322D01*
X236004051Y-99077222D01*
X235874115Y-99563433D01*
X235873593Y-99565324D01*
X235736005Y-100049324D01*
X235735454Y-100051208D01*
X235590173Y-100533138D01*
X235589591Y-100535013D01*
X235436760Y-101014394D01*
X235436150Y-101016258D01*
X235275697Y-101493328D01*
X235275056Y-101495184D01*
X235107110Y-101969546D01*
X235106441Y-101971390D01*
X234930983Y-102443107D01*
X234930284Y-102444941D01*
X234747397Y-102913786D01*
X234746669Y-102915609D01*
X234556388Y-103381491D01*
X234555632Y-103383301D01*
X234357998Y-103846123D01*
X234357213Y-103847922D01*
X234152283Y-104307550D01*
X234151470Y-104309336D01*
X233939267Y-104765715D01*
X233938425Y-104767488D01*
X233719063Y-105220375D01*
X233718194Y-105222134D01*
X233491680Y-105671517D01*
X233490783Y-105673263D01*
X233257160Y-106119056D01*
X233256235Y-106120787D01*
X233015611Y-106562778D01*
X233014659Y-106564494D01*
X232767071Y-107002622D01*
X232766092Y-107004323D01*
X232511585Y-107438505D01*
X232510579Y-107440190D01*
X232249260Y-107870243D01*
X232248228Y-107871912D01*
X231980090Y-108297850D01*
X231979031Y-108299502D01*
X231704234Y-108721069D01*
X231703149Y-108722705D01*
X231421704Y-109139883D01*
X231420594Y-109141501D01*
X231132572Y-109554188D01*
X231131436Y-109555788D01*
X230836908Y-109963882D01*
X230835747Y-109965465D01*
X230534796Y-110368848D01*
X230533610Y-110370411D01*
X230226367Y-110768911D01*
X230225157Y-110770456D01*
X229911567Y-111164142D01*
X229910332Y-111165667D01*
X229590607Y-111554272D01*
X229589348Y-111555778D01*
X229263491Y-111939300D01*
X229262209Y-111940785D01*
X228940433Y-112307578D01*
X228881425Y-112344993D01*
X228811556Y-112344565D01*
X228753010Y-112306432D01*
X228724375Y-112242700D01*
X228725601Y-112201613D01*
X228737603Y-112141275D01*
X228768714Y-111984868D01*
X228800500Y-111662143D01*
X228800500Y-111337857D01*
X228768714Y-111015132D01*
X228739516Y-110868345D01*
X228705454Y-110697097D01*
X228705451Y-110697086D01*
X228705450Y-110697083D01*
X228705449Y-110697077D01*
X228611314Y-110386754D01*
X228487215Y-110087153D01*
X228482683Y-110078675D01*
X228334353Y-109801169D01*
X228334352Y-109801167D01*
X228334347Y-109801158D01*
X228154183Y-109531524D01*
X227948458Y-109280847D01*
X227948457Y-109280846D01*
X227948453Y-109280841D01*
X227719158Y-109051546D01*
X227468481Y-108845821D01*
X227468480Y-108845820D01*
X227468476Y-108845817D01*
X227198842Y-108665653D01*
X227198837Y-108665650D01*
X227198830Y-108665646D01*
X226912854Y-108512788D01*
X226912849Y-108512786D01*
X226613247Y-108388686D01*
X226302913Y-108294548D01*
X226302902Y-108294545D01*
X225984874Y-108231287D01*
X225984857Y-108231284D01*
X225740812Y-108207248D01*
X225662143Y-108199500D01*
X225337857Y-108199500D01*
X225265099Y-108206666D01*
X225015142Y-108231284D01*
X225015125Y-108231287D01*
X224697097Y-108294545D01*
X224697086Y-108294548D01*
X224386752Y-108388686D01*
X224087150Y-108512786D01*
X224087145Y-108512788D01*
X223801169Y-108665646D01*
X223801151Y-108665657D01*
X223531532Y-108845811D01*
X223531518Y-108845821D01*
X223280841Y-109051546D01*
X223051546Y-109280841D01*
X222845821Y-109531518D01*
X222845811Y-109531532D01*
X222665657Y-109801151D01*
X222665646Y-109801169D01*
X222512788Y-110087145D01*
X222512786Y-110087150D01*
X222388686Y-110386752D01*
X222294548Y-110697086D01*
X222294545Y-110697097D01*
X222231287Y-111015125D01*
X222231284Y-111015142D01*
X222207435Y-111257288D01*
X222199500Y-111337857D01*
X222199500Y-111662143D01*
X222208153Y-111749998D01*
X222231284Y-111984857D01*
X222231287Y-111984874D01*
X222294545Y-112302902D01*
X222294548Y-112302913D01*
X222388686Y-112613247D01*
X222512786Y-112912849D01*
X222512788Y-112912854D01*
X222665646Y-113198830D01*
X222665657Y-113198848D01*
X222845811Y-113468467D01*
X222845821Y-113468481D01*
X223051546Y-113719158D01*
X223280841Y-113948453D01*
X223280846Y-113948457D01*
X223280847Y-113948458D01*
X223531524Y-114154183D01*
X223801158Y-114334347D01*
X223801167Y-114334352D01*
X223801169Y-114334353D01*
X224087145Y-114487211D01*
X224087147Y-114487211D01*
X224087153Y-114487215D01*
X224386754Y-114611314D01*
X224697077Y-114705449D01*
X224697083Y-114705450D01*
X224697086Y-114705451D01*
X224697097Y-114705454D01*
X224896528Y-114745122D01*
X225015132Y-114768714D01*
X225337857Y-114800500D01*
X225337860Y-114800500D01*
X225662140Y-114800500D01*
X225662143Y-114800500D01*
X225984868Y-114768714D01*
X226165390Y-114732806D01*
X226196696Y-114726579D01*
X226266287Y-114732806D01*
X226321465Y-114775669D01*
X226344709Y-114841559D01*
X226328641Y-114909556D01*
X226303029Y-114941086D01*
X226057475Y-115158228D01*
X226055995Y-115159517D01*
X225673731Y-115486919D01*
X225672230Y-115488184D01*
X225284855Y-115809475D01*
X225283335Y-115810715D01*
X224890968Y-116125799D01*
X224889428Y-116127016D01*
X224492079Y-116435888D01*
X224490520Y-116437080D01*
X224088361Y-116739602D01*
X224086784Y-116740769D01*
X223679900Y-117036880D01*
X223678304Y-117038023D01*
X223266689Y-117327725D01*
X223265075Y-117328841D01*
X222849084Y-117611885D01*
X222847453Y-117612977D01*
X222426903Y-117889488D01*
X222425255Y-117890553D01*
X222000428Y-118160346D01*
X221998763Y-118161385D01*
X221569700Y-118424431D01*
X221568019Y-118425443D01*
X221134894Y-118681639D01*
X221133197Y-118682625D01*
X220695978Y-118931987D01*
X220694265Y-118932945D01*
X220253305Y-119175275D01*
X220251578Y-119176207D01*
X220082493Y-119265673D01*
X220014031Y-119279627D01*
X219948893Y-119254353D01*
X219907759Y-119197875D01*
X219900500Y-119156070D01*
X219900500Y-113062230D01*
X219920185Y-112995191D01*
X219936819Y-112974549D01*
X219940379Y-112970989D01*
X219967712Y-112943656D01*
X220059814Y-112794334D01*
X220114999Y-112627797D01*
X220125500Y-112525009D01*
X220125499Y-111749992D01*
X220114999Y-111647203D01*
X220059814Y-111480666D01*
X219967712Y-111331344D01*
X219843656Y-111207288D01*
X219840342Y-111205243D01*
X219838546Y-111203248D01*
X219837989Y-111202807D01*
X219838064Y-111202711D01*
X219793618Y-111153297D01*
X219782397Y-111084334D01*
X219810240Y-111020252D01*
X219840348Y-110994165D01*
X219843342Y-110992318D01*
X219967315Y-110868345D01*
X220059356Y-110719124D01*
X220059358Y-110719119D01*
X220114505Y-110552697D01*
X220114506Y-110552690D01*
X220124999Y-110449986D01*
X220125000Y-110449973D01*
X220125000Y-110312500D01*
X217675001Y-110312500D01*
X217675001Y-110449986D01*
X217685494Y-110552697D01*
X217740641Y-110719119D01*
X217740643Y-110719124D01*
X217832684Y-110868345D01*
X217889658Y-110925319D01*
X217923143Y-110986642D01*
X217918159Y-111056334D01*
X217876287Y-111112267D01*
X217810823Y-111136684D01*
X217801977Y-111137000D01*
X217298023Y-111137000D01*
X217230984Y-111117315D01*
X217185229Y-111064511D01*
X217175285Y-110995353D01*
X217204310Y-110931797D01*
X217210342Y-110925319D01*
X217267315Y-110868345D01*
X217359356Y-110719124D01*
X217359358Y-110719119D01*
X217414505Y-110552697D01*
X217414506Y-110552690D01*
X217424999Y-110449986D01*
X217425000Y-110449973D01*
X217425000Y-110312500D01*
X214975001Y-110312500D01*
X214942105Y-110345396D01*
X214880781Y-110378880D01*
X214811090Y-110373895D01*
X214755156Y-110332024D01*
X214734650Y-110289810D01*
X214704200Y-110176171D01*
X214653701Y-110054257D01*
X214653698Y-110054252D01*
X214653697Y-110054249D01*
X214653696Y-110054248D01*
X214587879Y-109940250D01*
X214587875Y-109940243D01*
X214580380Y-109930476D01*
X214507544Y-109835555D01*
X214507541Y-109835551D01*
X214414449Y-109742459D01*
X214326574Y-109675029D01*
X214326553Y-109675013D01*
X214975000Y-109675013D01*
X214975000Y-109812500D01*
X215950000Y-109812500D01*
X216450000Y-109812500D01*
X217424999Y-109812500D01*
X217424999Y-109675029D01*
X217424998Y-109675013D01*
X217675000Y-109675013D01*
X217675000Y-109812500D01*
X218650000Y-109812500D01*
X219150000Y-109812500D01*
X220124999Y-109812500D01*
X220124999Y-109675028D01*
X220124998Y-109675013D01*
X220114505Y-109572302D01*
X220059358Y-109405880D01*
X220059356Y-109405875D01*
X219967315Y-109256654D01*
X219843345Y-109132684D01*
X219694124Y-109040643D01*
X219694119Y-109040641D01*
X219527697Y-108985494D01*
X219527690Y-108985493D01*
X219424986Y-108975000D01*
X219150000Y-108975000D01*
X219150000Y-109812500D01*
X218650000Y-109812500D01*
X218650000Y-108975000D01*
X218375029Y-108975000D01*
X218375012Y-108975001D01*
X218272302Y-108985494D01*
X218105880Y-109040641D01*
X218105875Y-109040643D01*
X217956654Y-109132684D01*
X217832684Y-109256654D01*
X217740643Y-109405875D01*
X217740641Y-109405880D01*
X217685494Y-109572302D01*
X217685493Y-109572309D01*
X217675000Y-109675013D01*
X217424998Y-109675013D01*
X217424998Y-109675012D01*
X217414505Y-109572302D01*
X217359358Y-109405880D01*
X217359356Y-109405875D01*
X217267315Y-109256654D01*
X217143345Y-109132684D01*
X216994124Y-109040643D01*
X216994119Y-109040641D01*
X216827697Y-108985494D01*
X216827690Y-108985493D01*
X216724986Y-108975000D01*
X216450000Y-108975000D01*
X216450000Y-109812500D01*
X215950000Y-109812500D01*
X215950000Y-108975000D01*
X215675029Y-108975000D01*
X215675012Y-108975001D01*
X215572302Y-108985494D01*
X215405880Y-109040641D01*
X215405875Y-109040643D01*
X215256654Y-109132684D01*
X215132684Y-109256654D01*
X215040643Y-109405875D01*
X215040641Y-109405880D01*
X214985494Y-109572302D01*
X214985493Y-109572309D01*
X214975000Y-109675013D01*
X214326553Y-109675013D01*
X214309767Y-109662132D01*
X214309749Y-109662120D01*
X214195751Y-109596303D01*
X214195750Y-109596302D01*
X214073829Y-109545800D01*
X214020529Y-109531518D01*
X213951411Y-109512997D01*
X213895826Y-109480905D01*
X213837782Y-109422861D01*
X213837781Y-109422860D01*
X213837780Y-109422859D01*
X213673916Y-109313369D01*
X213673907Y-109313364D01*
X213545943Y-109260361D01*
X213545942Y-109260360D01*
X213538524Y-109257288D01*
X213491836Y-109237949D01*
X213385417Y-109216781D01*
X213381336Y-109215969D01*
X213381328Y-109215967D01*
X213298543Y-109199500D01*
X213298541Y-109199500D01*
X211560132Y-109199500D01*
X211495036Y-109181039D01*
X211469334Y-109165186D01*
X211302797Y-109110001D01*
X211302795Y-109110000D01*
X211200010Y-109099500D01*
X210199998Y-109099500D01*
X210199980Y-109099501D01*
X210097203Y-109110000D01*
X210097200Y-109110001D01*
X209930668Y-109165185D01*
X209930663Y-109165187D01*
X209914933Y-109174889D01*
X209904963Y-109181039D01*
X209839868Y-109199500D01*
X207901456Y-109199500D01*
X207708171Y-109237947D01*
X207708163Y-109237949D01*
X207661476Y-109257288D01*
X207526083Y-109313369D01*
X207362222Y-109422857D01*
X207362214Y-109422863D01*
X207021896Y-109763181D01*
X206960573Y-109796666D01*
X206934215Y-109799500D01*
X206249998Y-109799500D01*
X206249980Y-109799501D01*
X206147203Y-109810000D01*
X206147200Y-109810001D01*
X205980668Y-109865185D01*
X205980663Y-109865187D01*
X205831342Y-109957289D01*
X205707289Y-110081342D01*
X205615187Y-110230663D01*
X205615186Y-110230666D01*
X205560001Y-110397203D01*
X205560001Y-110397204D01*
X205560000Y-110397204D01*
X205549500Y-110499983D01*
X205549500Y-111900001D01*
X205549501Y-111900018D01*
X205560000Y-112002796D01*
X205560001Y-112002799D01*
X205582112Y-112069524D01*
X205615186Y-112169334D01*
X205707288Y-112318656D01*
X205831344Y-112442712D01*
X205980666Y-112534814D01*
X206147203Y-112589999D01*
X206249991Y-112600500D01*
X208350008Y-112600499D01*
X208452797Y-112589999D01*
X208619334Y-112534814D01*
X208768656Y-112442712D01*
X208892712Y-112318656D01*
X208984814Y-112169334D01*
X209039999Y-112002797D01*
X209050500Y-111900009D01*
X209050500Y-111324500D01*
X209070185Y-111257461D01*
X209122989Y-111211706D01*
X209174500Y-111200500D01*
X209546659Y-111200500D01*
X209613698Y-111220185D01*
X209659453Y-111272989D01*
X209669397Y-111342147D01*
X209652198Y-111389596D01*
X209565189Y-111530659D01*
X209565185Y-111530668D01*
X209537349Y-111614670D01*
X209510001Y-111697203D01*
X209510001Y-111697204D01*
X209510000Y-111697204D01*
X209499500Y-111799983D01*
X209499500Y-112600001D01*
X209499501Y-112600019D01*
X209510000Y-112702796D01*
X209510001Y-112702799D01*
X209540332Y-112794331D01*
X209565186Y-112869334D01*
X209652484Y-113010868D01*
X209657289Y-113018657D01*
X209776451Y-113137819D01*
X209809936Y-113199142D01*
X209804952Y-113268834D01*
X209763080Y-113324767D01*
X209697616Y-113349184D01*
X209688770Y-113349500D01*
X205425929Y-113349500D01*
X205300261Y-113374497D01*
X205300255Y-113374499D01*
X205181870Y-113423535D01*
X205075331Y-113494722D01*
X205075324Y-113494728D01*
X204594724Y-113975328D01*
X204535430Y-114064070D01*
X204523535Y-114081871D01*
X204474499Y-114200255D01*
X204474497Y-114200261D01*
X204449500Y-114325928D01*
X204449500Y-114442722D01*
X204438171Y-114494503D01*
X204085071Y-115262812D01*
X204039190Y-115315507D01*
X203972103Y-115335031D01*
X203905111Y-115315186D01*
X203859483Y-115262272D01*
X203854636Y-115249858D01*
X203606730Y-114497583D01*
X203600500Y-114458773D01*
X203600500Y-113180164D01*
X203620185Y-113113125D01*
X203636150Y-113093156D01*
X203666607Y-113062230D01*
X204084895Y-112637491D01*
X204145961Y-112603538D01*
X204173245Y-112600499D01*
X204350002Y-112600499D01*
X204350008Y-112600499D01*
X204452797Y-112589999D01*
X204619334Y-112534814D01*
X204768656Y-112442712D01*
X204892712Y-112318656D01*
X204984814Y-112169334D01*
X205039999Y-112002797D01*
X205050500Y-111900009D01*
X205050499Y-110499992D01*
X205039999Y-110397203D01*
X204984814Y-110230666D01*
X204892712Y-110081344D01*
X204768656Y-109957288D01*
X204619334Y-109865186D01*
X204452797Y-109810001D01*
X204452795Y-109810000D01*
X204350010Y-109799500D01*
X202249998Y-109799500D01*
X202249981Y-109799501D01*
X202147203Y-109810000D01*
X202147200Y-109810001D01*
X201980668Y-109865185D01*
X201980663Y-109865187D01*
X201831342Y-109957289D01*
X201707289Y-110081342D01*
X201615187Y-110230663D01*
X201615186Y-110230666D01*
X201560001Y-110397203D01*
X201560001Y-110397204D01*
X201560000Y-110397204D01*
X201549500Y-110499983D01*
X201549500Y-111899992D01*
X201549591Y-111901783D01*
X201549628Y-111902563D01*
X201593827Y-112912849D01*
X201594494Y-112928074D01*
X201598705Y-112976721D01*
X201598377Y-112976749D01*
X201599500Y-112989254D01*
X201599500Y-114458772D01*
X201593270Y-114497582D01*
X201291195Y-115414227D01*
X201291193Y-115414234D01*
X201279998Y-115460510D01*
X201277181Y-115470354D01*
X201260001Y-115522200D01*
X201260001Y-115522201D01*
X201249500Y-115624983D01*
X201249500Y-117175001D01*
X201249501Y-117175018D01*
X201260000Y-117277796D01*
X201260001Y-117277799D01*
X201305894Y-117416294D01*
X201315186Y-117444334D01*
X201407288Y-117593656D01*
X201531344Y-117717712D01*
X201680666Y-117809814D01*
X201847203Y-117864999D01*
X201949991Y-117875500D01*
X203250008Y-117875499D01*
X203352797Y-117864999D01*
X203519334Y-117809814D01*
X203668656Y-117717712D01*
X203792712Y-117593656D01*
X203884814Y-117444334D01*
X203884814Y-117444331D01*
X203888178Y-117438879D01*
X203940126Y-117392154D01*
X204009088Y-117380931D01*
X204073170Y-117408774D01*
X204081398Y-117416294D01*
X204220213Y-117555109D01*
X204392179Y-117680048D01*
X204392181Y-117680049D01*
X204392184Y-117680051D01*
X204581588Y-117776557D01*
X204783757Y-117842246D01*
X204993713Y-117875500D01*
X204993714Y-117875500D01*
X205206286Y-117875500D01*
X205206287Y-117875500D01*
X205416243Y-117842246D01*
X205618412Y-117776557D01*
X205807816Y-117680051D01*
X205849178Y-117650000D01*
X205979786Y-117555109D01*
X205979788Y-117555106D01*
X205979792Y-117555104D01*
X206130104Y-117404792D01*
X206249991Y-117239779D01*
X206305320Y-117197115D01*
X206374933Y-117191136D01*
X206436729Y-117223741D01*
X206450627Y-117239781D01*
X206570272Y-117404459D01*
X206570276Y-117404464D01*
X206720535Y-117554723D01*
X206720540Y-117554727D01*
X206892442Y-117679620D01*
X207081782Y-117776095D01*
X207283871Y-117841757D01*
X207350000Y-117852231D01*
X207350000Y-116804145D01*
X207416657Y-116842630D01*
X207537465Y-116875000D01*
X207662535Y-116875000D01*
X207783343Y-116842630D01*
X207850000Y-116804145D01*
X207850000Y-117852230D01*
X207916126Y-117841757D01*
X207916129Y-117841757D01*
X208118217Y-117776095D01*
X208307557Y-117679620D01*
X208479459Y-117554727D01*
X208479464Y-117554723D01*
X208629723Y-117404464D01*
X208629727Y-117404459D01*
X208754620Y-117232557D01*
X208851095Y-117043217D01*
X208916757Y-116841130D01*
X208916757Y-116841127D01*
X208947030Y-116650000D01*
X208004146Y-116650000D01*
X208042630Y-116583343D01*
X208075000Y-116462535D01*
X208075000Y-116337465D01*
X208042630Y-116216657D01*
X208004146Y-116150000D01*
X208947030Y-116150000D01*
X208916757Y-115958872D01*
X208916757Y-115958869D01*
X208851095Y-115756782D01*
X208754620Y-115567442D01*
X208629727Y-115395540D01*
X208629723Y-115395535D01*
X208479464Y-115245276D01*
X208479459Y-115245272D01*
X208307557Y-115120379D01*
X208118215Y-115023903D01*
X207916124Y-114958241D01*
X207850000Y-114947768D01*
X207850000Y-115995854D01*
X207783343Y-115957370D01*
X207662535Y-115925000D01*
X207537465Y-115925000D01*
X207416657Y-115957370D01*
X207350000Y-115995854D01*
X207350000Y-114947768D01*
X207349999Y-114947768D01*
X207283875Y-114958241D01*
X207081784Y-115023903D01*
X206892442Y-115120379D01*
X206720540Y-115245272D01*
X206720535Y-115245276D01*
X206570276Y-115395535D01*
X206570272Y-115395540D01*
X206453243Y-115556618D01*
X206397913Y-115599284D01*
X206328300Y-115605263D01*
X206266505Y-115572657D01*
X206240254Y-115535514D01*
X206114678Y-115262272D01*
X205914305Y-114826280D01*
X205904197Y-114757147D01*
X205933070Y-114693522D01*
X205991758Y-114655607D01*
X206026977Y-114650500D01*
X209525500Y-114650500D01*
X209592539Y-114670185D01*
X209638294Y-114722989D01*
X209649500Y-114774500D01*
X209649500Y-116964069D01*
X209656646Y-116999990D01*
X209656646Y-116999993D01*
X209674497Y-117089736D01*
X209674499Y-117089744D01*
X209713650Y-117184264D01*
X209723535Y-117208127D01*
X209770088Y-117277799D01*
X209794726Y-117314673D01*
X210385328Y-117905275D01*
X210488228Y-117974030D01*
X210490085Y-117975270D01*
X210491873Y-117976465D01*
X210610256Y-118025501D01*
X210610260Y-118025501D01*
X210610261Y-118025502D01*
X210735928Y-118050500D01*
X210735931Y-118050500D01*
X211284362Y-118050500D01*
X211351401Y-118070185D01*
X211389899Y-118109401D01*
X211457288Y-118218656D01*
X211581344Y-118342712D01*
X211730666Y-118434814D01*
X211897203Y-118489999D01*
X211999991Y-118500500D01*
X213000008Y-118500499D01*
X213000016Y-118500498D01*
X213000019Y-118500498D01*
X213056302Y-118494748D01*
X213102797Y-118489999D01*
X213269334Y-118434814D01*
X213418656Y-118342712D01*
X213542712Y-118218656D01*
X213634814Y-118069334D01*
X213689999Y-117902797D01*
X213700500Y-117800009D01*
X213700500Y-117799986D01*
X214000001Y-117799986D01*
X214010494Y-117902697D01*
X214065641Y-118069119D01*
X214065643Y-118069124D01*
X214157684Y-118218345D01*
X214281654Y-118342315D01*
X214430875Y-118434356D01*
X214430880Y-118434358D01*
X214597302Y-118489505D01*
X214597309Y-118489506D01*
X214700019Y-118499999D01*
X214949999Y-118499999D01*
X215450000Y-118499999D01*
X215699972Y-118499999D01*
X215699986Y-118499998D01*
X215802697Y-118489505D01*
X215969119Y-118434358D01*
X215969124Y-118434356D01*
X216118345Y-118342315D01*
X216242315Y-118218345D01*
X216334356Y-118069124D01*
X216334358Y-118069119D01*
X216389505Y-117902697D01*
X216389506Y-117902690D01*
X216399999Y-117799986D01*
X216400000Y-117799973D01*
X216400000Y-117650000D01*
X215450000Y-117650000D01*
X215450000Y-118499999D01*
X214949999Y-118499999D01*
X214950000Y-118499998D01*
X214950000Y-117650000D01*
X214000001Y-117650000D01*
X214000001Y-117799986D01*
X213700500Y-117799986D01*
X213700499Y-117392154D01*
X213700499Y-116999990D01*
X213700498Y-116999980D01*
X213689999Y-116897203D01*
X213689998Y-116897200D01*
X213671915Y-116842630D01*
X213634814Y-116730666D01*
X213542712Y-116581344D01*
X213465219Y-116503851D01*
X213431734Y-116442528D01*
X213436718Y-116372836D01*
X213478590Y-116316903D01*
X213491387Y-116308503D01*
X213788487Y-116138761D01*
X213856459Y-116122597D01*
X213911511Y-116138762D01*
X213963935Y-116168713D01*
X214209064Y-116308762D01*
X214257506Y-116359108D01*
X214271040Y-116427654D01*
X214245366Y-116492636D01*
X214235231Y-116504108D01*
X214157682Y-116581657D01*
X214065643Y-116730875D01*
X214065641Y-116730880D01*
X214010494Y-116897302D01*
X214010493Y-116897309D01*
X214000000Y-117000013D01*
X214000000Y-117150000D01*
X216399999Y-117150000D01*
X216399999Y-117000028D01*
X216399998Y-117000013D01*
X216389505Y-116897302D01*
X216334358Y-116730880D01*
X216334356Y-116730875D01*
X216242315Y-116581654D01*
X216164769Y-116504108D01*
X216131284Y-116442785D01*
X216136268Y-116373093D01*
X216178140Y-116317160D01*
X216190924Y-116308768D01*
X216614385Y-116066832D01*
X216629685Y-116062770D01*
X216640963Y-116055523D01*
X216675898Y-116050500D01*
X216825500Y-116050500D01*
X216892539Y-116070185D01*
X216938294Y-116122989D01*
X216949500Y-116174500D01*
X216949500Y-120474069D01*
X216959250Y-120523082D01*
X216959250Y-120523084D01*
X216974599Y-120600250D01*
X216968372Y-120669842D01*
X216925508Y-120725019D01*
X216898501Y-120739784D01*
X216584084Y-120863867D01*
X216582254Y-120864573D01*
X216111252Y-121041891D01*
X216109410Y-121042568D01*
X215635663Y-121212408D01*
X215633810Y-121213055D01*
X215157471Y-121375363D01*
X215155609Y-121375981D01*
X214676743Y-121530737D01*
X214674870Y-121531326D01*
X214193613Y-121678484D01*
X214191732Y-121679043D01*
X213708188Y-121818572D01*
X213706298Y-121819101D01*
X213220681Y-121950939D01*
X213218783Y-121951439D01*
X212731038Y-122075601D01*
X212729133Y-122076070D01*
X212239467Y-122192502D01*
X212237554Y-122192940D01*
X211746256Y-122301575D01*
X211744337Y-122301984D01*
X211251248Y-122402858D01*
X211249322Y-122403236D01*
X210754772Y-122496279D01*
X210752840Y-122496627D01*
X210256840Y-122581839D01*
X210254903Y-122582156D01*
X209757595Y-122659510D01*
X209755654Y-122659796D01*
X209257204Y-122729268D01*
X209255258Y-122729523D01*
X208755840Y-122791089D01*
X208753891Y-122791314D01*
X208253491Y-122844976D01*
X208251538Y-122845170D01*
X207750359Y-122890905D01*
X207748403Y-122891068D01*
X207246568Y-122928865D01*
X207244610Y-122928997D01*
X206742240Y-122958848D01*
X206740280Y-122958949D01*
X206237439Y-122980848D01*
X206235478Y-122980917D01*
X205732481Y-122994852D01*
X205730519Y-122994891D01*
X205227302Y-123000865D01*
X205225339Y-123000873D01*
X204722090Y-122998881D01*
X204720128Y-122998858D01*
X204216911Y-122988902D01*
X204214949Y-122988847D01*
X203712074Y-122970932D01*
X203710114Y-122970847D01*
X203207530Y-122944973D01*
X203205571Y-122944857D01*
X202703382Y-122911027D01*
X202701425Y-122910879D01*
X202199972Y-122869117D01*
X202198017Y-122868939D01*
X201697210Y-122819239D01*
X201695259Y-122819030D01*
X201195244Y-122761404D01*
X201193296Y-122761163D01*
X200694436Y-122695654D01*
X200692492Y-122695384D01*
X200194536Y-122621959D01*
X200192598Y-122621657D01*
X199695990Y-122540382D01*
X199694055Y-122540050D01*
X199198721Y-122450911D01*
X199196793Y-122450548D01*
X198703006Y-122353596D01*
X198701083Y-122353203D01*
X198208807Y-122248431D01*
X198206891Y-122248007D01*
X197716410Y-122135475D01*
X197714500Y-122135021D01*
X197225817Y-122014729D01*
X197223916Y-122014245D01*
X196737167Y-121886227D01*
X196735273Y-121885712D01*
X196497378Y-121819101D01*
X196250711Y-121750033D01*
X196248830Y-121749491D01*
X195766445Y-121606152D01*
X195764568Y-121605579D01*
X195284433Y-121454599D01*
X195282566Y-121453995D01*
X194804959Y-121295462D01*
X194803101Y-121294829D01*
X194328041Y-121128748D01*
X194326194Y-121128086D01*
X193853767Y-120954488D01*
X193851931Y-120953796D01*
X193382441Y-120772795D01*
X193380615Y-120772075D01*
X192913952Y-120583626D01*
X192912138Y-120582877D01*
X192448516Y-120387067D01*
X192446714Y-120386289D01*
X191986279Y-120183178D01*
X191984490Y-120182372D01*
X191527273Y-119971976D01*
X191525497Y-119971141D01*
X191071772Y-119753585D01*
X191070009Y-119752723D01*
X190619657Y-119527952D01*
X190617982Y-119527100D01*
X190171195Y-119295203D01*
X190169611Y-119294365D01*
X189726575Y-119055440D01*
X189724876Y-119054506D01*
X189285725Y-118808627D01*
X189284020Y-118807654D01*
X188848882Y-118554894D01*
X188847193Y-118553895D01*
X188758528Y-118500498D01*
X188416048Y-118294244D01*
X188414390Y-118293227D01*
X188056959Y-118070185D01*
X187987461Y-118026817D01*
X187985812Y-118025770D01*
X187985394Y-118025500D01*
X187563122Y-117752617D01*
X187561492Y-117751546D01*
X187143159Y-117471725D01*
X187141537Y-117470621D01*
X186727756Y-117184264D01*
X186726151Y-117183135D01*
X186316882Y-116890215D01*
X186315295Y-116889060D01*
X186101517Y-116730880D01*
X185910726Y-116589708D01*
X185909158Y-116588528D01*
X185777282Y-116487681D01*
X185509421Y-116282846D01*
X185507896Y-116281661D01*
X185112973Y-115969630D01*
X185111443Y-115968401D01*
X184905127Y-115800019D01*
X184721506Y-115650160D01*
X184720074Y-115648971D01*
X184419385Y-115395535D01*
X184335289Y-115324654D01*
X184333798Y-115323378D01*
X183954099Y-114992930D01*
X183952623Y-114991624D01*
X183947534Y-114987051D01*
X183910827Y-114927601D01*
X183912088Y-114857743D01*
X183950916Y-114799656D01*
X184014986Y-114771783D01*
X184042565Y-114771416D01*
X184337857Y-114800500D01*
X184337860Y-114800500D01*
X184662140Y-114800500D01*
X184662143Y-114800500D01*
X184984868Y-114768714D01*
X185142295Y-114737399D01*
X185302902Y-114705454D01*
X185302913Y-114705451D01*
X185302913Y-114705450D01*
X185302923Y-114705449D01*
X185613246Y-114611314D01*
X185912847Y-114487215D01*
X186198842Y-114334347D01*
X186468476Y-114154183D01*
X186719153Y-113948458D01*
X186948458Y-113719153D01*
X187154183Y-113468476D01*
X187334347Y-113198842D01*
X187487215Y-112912847D01*
X187611314Y-112613246D01*
X187705449Y-112302923D01*
X187705451Y-112302913D01*
X187705454Y-112302902D01*
X187756309Y-112047232D01*
X187768714Y-111984868D01*
X187800500Y-111662143D01*
X187800500Y-111337857D01*
X187768714Y-111015132D01*
X187739516Y-110868345D01*
X187705454Y-110697097D01*
X187705451Y-110697086D01*
X187705450Y-110697083D01*
X187705449Y-110697077D01*
X187611314Y-110386754D01*
X187487215Y-110087153D01*
X187482683Y-110078675D01*
X187334353Y-109801169D01*
X187334352Y-109801167D01*
X187334347Y-109801158D01*
X187154183Y-109531524D01*
X186948458Y-109280847D01*
X186948457Y-109280846D01*
X186948453Y-109280841D01*
X186719158Y-109051546D01*
X186468481Y-108845821D01*
X186468480Y-108845820D01*
X186468476Y-108845817D01*
X186198842Y-108665653D01*
X186198837Y-108665650D01*
X186198830Y-108665646D01*
X185912854Y-108512788D01*
X185912849Y-108512786D01*
X185613247Y-108388686D01*
X185302913Y-108294548D01*
X185302902Y-108294545D01*
X184984874Y-108231287D01*
X184984857Y-108231284D01*
X184740812Y-108207248D01*
X184662143Y-108199500D01*
X184337857Y-108199500D01*
X184265099Y-108206666D01*
X184015142Y-108231284D01*
X184015125Y-108231287D01*
X183697097Y-108294545D01*
X183697086Y-108294548D01*
X183386752Y-108388686D01*
X183087150Y-108512786D01*
X183087145Y-108512788D01*
X182801169Y-108665646D01*
X182801151Y-108665657D01*
X182531532Y-108845811D01*
X182531518Y-108845821D01*
X182280841Y-109051546D01*
X182051546Y-109280841D01*
X181845821Y-109531518D01*
X181845811Y-109531532D01*
X181665657Y-109801151D01*
X181665646Y-109801169D01*
X181512788Y-110087145D01*
X181512786Y-110087150D01*
X181388686Y-110386752D01*
X181294548Y-110697086D01*
X181294545Y-110697097D01*
X181231287Y-111015125D01*
X181231284Y-111015142D01*
X181207435Y-111257288D01*
X181200142Y-111331344D01*
X181199500Y-111337860D01*
X181199500Y-111662139D01*
X181225672Y-111927876D01*
X181212653Y-111996522D01*
X181164588Y-112047232D01*
X181096737Y-112063907D01*
X181030642Y-112041251D01*
X181008410Y-112021064D01*
X180992637Y-112002795D01*
X180773461Y-111748931D01*
X180772190Y-111747435D01*
X180590942Y-111530659D01*
X180449336Y-111361295D01*
X180448157Y-111359861D01*
X180131450Y-110968655D01*
X180130302Y-110967214D01*
X179918603Y-110697086D01*
X179819824Y-110571043D01*
X179818626Y-110569489D01*
X179514523Y-110168541D01*
X179513349Y-110166968D01*
X179359482Y-109957289D01*
X179215569Y-109761174D01*
X179214444Y-109759615D01*
X179154409Y-109675029D01*
X178923157Y-109349207D01*
X178922060Y-109347636D01*
X178898542Y-109313364D01*
X178637285Y-108932640D01*
X178636223Y-108931067D01*
X178358009Y-108511554D01*
X178357000Y-108510005D01*
X178085468Y-108086152D01*
X178084490Y-108084597D01*
X177819727Y-107656544D01*
X177818770Y-107654971D01*
X177560790Y-107222743D01*
X177559806Y-107221064D01*
X177308720Y-106784843D01*
X177307810Y-106783231D01*
X177063681Y-106343130D01*
X177062742Y-106341406D01*
X176943964Y-106119056D01*
X176825564Y-105897413D01*
X176824745Y-105895851D01*
X176594571Y-105448058D01*
X176593770Y-105446469D01*
X176370753Y-104995171D01*
X176369947Y-104993508D01*
X176154139Y-104538822D01*
X176153335Y-104537093D01*
X176049221Y-104308463D01*
X175944730Y-104079005D01*
X175943940Y-104077231D01*
X175742637Y-103615958D01*
X175741919Y-103614276D01*
X175547915Y-103149812D01*
X175547186Y-103148027D01*
X175505387Y-103043328D01*
X175360580Y-102680610D01*
X175359872Y-102678793D01*
X175270776Y-102444941D01*
X175180666Y-102208428D01*
X175180033Y-102206725D01*
X175008306Y-101733617D01*
X175007653Y-101731770D01*
X174925992Y-101495184D01*
X174843451Y-101256048D01*
X174842835Y-101254218D01*
X174794705Y-101107275D01*
X174686162Y-100775893D01*
X174685578Y-100774060D01*
X174611142Y-100534029D01*
X174536492Y-100293311D01*
X174535962Y-100291552D01*
X174394491Y-99808461D01*
X174394010Y-99806769D01*
X174260214Y-99321539D01*
X174259707Y-99319644D01*
X174197939Y-99080956D01*
X174133600Y-98832335D01*
X174133131Y-98830458D01*
X174125392Y-98798475D01*
X174014793Y-98341384D01*
X174014348Y-98339481D01*
X173995252Y-98254711D01*
X173903725Y-97848417D01*
X173903338Y-97846634D01*
X173800484Y-97353799D01*
X173800138Y-97352069D01*
X173705117Y-96857780D01*
X173704774Y-96855919D01*
X173617587Y-96360177D01*
X173617263Y-96358242D01*
X173537954Y-95861325D01*
X173537660Y-95859385D01*
X173502101Y-95611434D01*
X173466214Y-95361192D01*
X173465953Y-95359260D01*
X173434314Y-95110708D01*
X173402405Y-94860041D01*
X173402177Y-94858134D01*
X173346517Y-94357787D01*
X173346338Y-94356047D01*
X173298612Y-93854966D01*
X173298445Y-93853056D01*
X173260019Y-93368481D01*
X173258657Y-93351315D01*
X173258522Y-93349417D01*
X173242638Y-93098848D01*
X173226677Y-92847060D01*
X173226572Y-92845141D01*
X173225038Y-92812849D01*
X173202685Y-92342433D01*
X173202614Y-92340640D01*
X173186679Y-91837385D01*
X173186638Y-91835648D01*
X173178670Y-91332244D01*
X173178655Y-91330585D01*
X173178472Y-91237857D01*
X181199500Y-91237857D01*
X181199500Y-91562143D01*
X181201748Y-91584963D01*
X181231284Y-91884857D01*
X181231287Y-91884874D01*
X181294545Y-92202902D01*
X181294548Y-92202913D01*
X181388686Y-92513247D01*
X181512786Y-92812849D01*
X181512788Y-92812854D01*
X181665646Y-93098830D01*
X181665657Y-93098848D01*
X181845811Y-93368467D01*
X181845821Y-93368481D01*
X182051546Y-93619158D01*
X182280841Y-93848453D01*
X182280846Y-93848457D01*
X182280847Y-93848458D01*
X182531524Y-94054183D01*
X182801158Y-94234347D01*
X182801167Y-94234352D01*
X182801169Y-94234353D01*
X183087145Y-94387211D01*
X183087147Y-94387211D01*
X183087153Y-94387215D01*
X183386754Y-94511314D01*
X183697077Y-94605449D01*
X183697083Y-94605450D01*
X183697086Y-94605451D01*
X183697097Y-94605454D01*
X183896528Y-94645122D01*
X184015132Y-94668714D01*
X184337857Y-94700500D01*
X184337860Y-94700500D01*
X184662140Y-94700500D01*
X184662143Y-94700500D01*
X184984868Y-94668714D01*
X185142295Y-94637399D01*
X185302902Y-94605454D01*
X185302913Y-94605451D01*
X185302913Y-94605450D01*
X185302923Y-94605449D01*
X185613246Y-94511314D01*
X185912847Y-94387215D01*
X186198842Y-94234347D01*
X186468476Y-94054183D01*
X186719153Y-93848458D01*
X186948458Y-93619153D01*
X187154183Y-93368476D01*
X187334347Y-93098842D01*
X187487215Y-92812847D01*
X187611314Y-92513246D01*
X187705449Y-92202923D01*
X187705451Y-92202913D01*
X187705454Y-92202902D01*
X187737399Y-92042295D01*
X187768714Y-91884868D01*
X187800500Y-91562143D01*
X187800500Y-91237857D01*
X187768714Y-90915132D01*
X187729710Y-90719043D01*
X187705454Y-90597097D01*
X187705451Y-90597086D01*
X187705450Y-90597083D01*
X187705449Y-90597077D01*
X187611314Y-90286754D01*
X187487215Y-89987153D01*
X187426409Y-89873394D01*
X187334353Y-89701169D01*
X187334352Y-89701167D01*
X187334347Y-89701158D01*
X187154183Y-89431524D01*
X186948458Y-89180847D01*
X186948457Y-89180846D01*
X186948453Y-89180841D01*
X186719158Y-88951546D01*
X186468481Y-88745821D01*
X186468466Y-88745810D01*
X186463285Y-88742348D01*
X186463284Y-88742347D01*
X186314184Y-88642722D01*
X191299500Y-88642722D01*
X191299500Y-88957277D01*
X191334716Y-89269827D01*
X191334718Y-89269843D01*
X191404710Y-89576499D01*
X191404711Y-89576501D01*
X191508598Y-89873395D01*
X191645072Y-90156786D01*
X191645074Y-90156789D01*
X191812423Y-90423123D01*
X191852297Y-90473123D01*
X192000499Y-90658963D01*
X192008539Y-90669044D01*
X192230956Y-90891461D01*
X192476877Y-91087577D01*
X192743211Y-91254926D01*
X193026606Y-91391402D01*
X193323500Y-91495289D01*
X193630160Y-91565282D01*
X193942723Y-91600499D01*
X193942724Y-91600500D01*
X193942727Y-91600500D01*
X194257276Y-91600500D01*
X194257276Y-91600499D01*
X194569840Y-91565282D01*
X194876500Y-91495289D01*
X195173394Y-91391402D01*
X195456789Y-91254926D01*
X195723123Y-91087577D01*
X195969044Y-90891461D01*
X195987819Y-90872686D01*
X196049142Y-90839201D01*
X196118834Y-90844185D01*
X196174767Y-90886057D01*
X196199184Y-90951521D01*
X196199500Y-90960367D01*
X196199500Y-98789632D01*
X196179815Y-98856671D01*
X196127011Y-98902426D01*
X196057853Y-98912370D01*
X195994297Y-98883345D01*
X195987821Y-98877315D01*
X195969043Y-98858538D01*
X195893726Y-98798475D01*
X195723123Y-98662423D01*
X195456789Y-98495074D01*
X195456786Y-98495072D01*
X195173395Y-98358598D01*
X194876501Y-98254711D01*
X194876499Y-98254710D01*
X194569843Y-98184718D01*
X194569827Y-98184716D01*
X194257277Y-98149500D01*
X194257273Y-98149500D01*
X193942727Y-98149500D01*
X193942722Y-98149500D01*
X193630172Y-98184716D01*
X193630156Y-98184718D01*
X193323500Y-98254710D01*
X193323498Y-98254711D01*
X193026604Y-98358598D01*
X192743213Y-98495072D01*
X192476878Y-98662422D01*
X192230956Y-98858538D01*
X192008538Y-99080956D01*
X191812422Y-99326878D01*
X191645072Y-99593213D01*
X191508598Y-99876604D01*
X191404711Y-100173498D01*
X191404710Y-100173500D01*
X191334718Y-100480156D01*
X191334716Y-100480172D01*
X191299500Y-100792722D01*
X191299500Y-101107277D01*
X191334716Y-101419827D01*
X191334718Y-101419843D01*
X191404710Y-101726499D01*
X191404711Y-101726501D01*
X191508598Y-102023395D01*
X191645072Y-102306786D01*
X191645074Y-102306789D01*
X191812423Y-102573123D01*
X191958733Y-102756589D01*
X192000499Y-102808963D01*
X192008539Y-102819044D01*
X192230956Y-103041461D01*
X192476877Y-103237577D01*
X192743211Y-103404926D01*
X193026606Y-103541402D01*
X193323500Y-103645289D01*
X193630160Y-103715282D01*
X193942723Y-103750499D01*
X193942724Y-103750500D01*
X193942727Y-103750500D01*
X194257276Y-103750500D01*
X194257276Y-103750499D01*
X194569840Y-103715282D01*
X194876500Y-103645289D01*
X195173394Y-103541402D01*
X195456789Y-103404926D01*
X195723123Y-103237577D01*
X195969044Y-103041461D01*
X195987819Y-103022686D01*
X196049142Y-102989201D01*
X196118834Y-102994185D01*
X196174767Y-103036057D01*
X196199184Y-103101521D01*
X196199500Y-103110367D01*
X196199500Y-103334108D01*
X196199500Y-103465892D01*
X196203287Y-103480025D01*
X196233608Y-103593187D01*
X196245784Y-103614276D01*
X196299500Y-103707314D01*
X196392686Y-103800500D01*
X196506814Y-103866392D01*
X196634108Y-103900500D01*
X196634110Y-103900500D01*
X212665890Y-103900500D01*
X212665892Y-103900500D01*
X212793186Y-103866392D01*
X212907314Y-103800500D01*
X213000500Y-103707314D01*
X213066392Y-103593186D01*
X213100500Y-103465892D01*
X213100500Y-103110367D01*
X213120185Y-103043328D01*
X213172989Y-102997573D01*
X213242147Y-102987629D01*
X213305703Y-103016654D01*
X213312181Y-103022686D01*
X213330956Y-103041461D01*
X213576877Y-103237577D01*
X213843211Y-103404926D01*
X214126606Y-103541402D01*
X214423500Y-103645289D01*
X214730160Y-103715282D01*
X215042723Y-103750499D01*
X215042724Y-103750500D01*
X215042727Y-103750500D01*
X215357276Y-103750500D01*
X215357276Y-103750499D01*
X215669840Y-103715282D01*
X215976500Y-103645289D01*
X216273394Y-103541402D01*
X216556789Y-103404926D01*
X216823123Y-103237577D01*
X217069044Y-103041461D01*
X217291461Y-102819044D01*
X217487577Y-102573123D01*
X217654926Y-102306789D01*
X217791402Y-102023394D01*
X217895289Y-101726500D01*
X217965282Y-101419840D01*
X218000500Y-101107273D01*
X218000500Y-100792727D01*
X217965282Y-100480160D01*
X217895289Y-100173500D01*
X217791402Y-99876606D01*
X217654926Y-99593211D01*
X217487577Y-99326877D01*
X217291461Y-99080956D01*
X217069044Y-98858539D01*
X216823123Y-98662423D01*
X216556789Y-98495074D01*
X216556786Y-98495072D01*
X216273395Y-98358598D01*
X215976501Y-98254711D01*
X215976499Y-98254710D01*
X215669843Y-98184718D01*
X215669827Y-98184716D01*
X215357277Y-98149500D01*
X215357273Y-98149500D01*
X215042727Y-98149500D01*
X215042722Y-98149500D01*
X214730172Y-98184716D01*
X214730156Y-98184718D01*
X214423500Y-98254710D01*
X214423498Y-98254711D01*
X214126604Y-98358598D01*
X213843213Y-98495072D01*
X213576878Y-98662422D01*
X213330956Y-98858538D01*
X213312179Y-98877315D01*
X213250855Y-98910799D01*
X213181164Y-98905813D01*
X213125231Y-98863940D01*
X213100816Y-98798475D01*
X213100500Y-98789632D01*
X213100500Y-91010367D01*
X213120185Y-90943328D01*
X213172989Y-90897573D01*
X213242147Y-90887629D01*
X213305703Y-90916654D01*
X213312181Y-90922686D01*
X213330956Y-90941461D01*
X213576877Y-91137577D01*
X213843211Y-91304926D01*
X214126606Y-91441402D01*
X214423500Y-91545289D01*
X214730160Y-91615282D01*
X215042723Y-91650499D01*
X215042724Y-91650500D01*
X215042727Y-91650500D01*
X215357276Y-91650500D01*
X215357276Y-91650499D01*
X215669840Y-91615282D01*
X215976500Y-91545289D01*
X216273394Y-91441402D01*
X216556789Y-91304926D01*
X216663529Y-91237857D01*
X221199500Y-91237857D01*
X221199500Y-91562143D01*
X221201748Y-91584963D01*
X221231284Y-91884857D01*
X221231287Y-91884874D01*
X221294545Y-92202902D01*
X221294548Y-92202913D01*
X221388686Y-92513247D01*
X221512786Y-92812849D01*
X221512788Y-92812854D01*
X221665646Y-93098830D01*
X221665657Y-93098848D01*
X221845811Y-93368467D01*
X221845821Y-93368481D01*
X222051546Y-93619158D01*
X222280841Y-93848453D01*
X222280846Y-93848457D01*
X222280847Y-93848458D01*
X222531524Y-94054183D01*
X222801158Y-94234347D01*
X222801167Y-94234352D01*
X222801169Y-94234353D01*
X223087145Y-94387211D01*
X223087147Y-94387211D01*
X223087153Y-94387215D01*
X223386754Y-94511314D01*
X223697077Y-94605449D01*
X223697083Y-94605450D01*
X223697086Y-94605451D01*
X223697097Y-94605454D01*
X223896528Y-94645122D01*
X224015132Y-94668714D01*
X224337857Y-94700500D01*
X224337860Y-94700500D01*
X224662140Y-94700500D01*
X224662143Y-94700500D01*
X224984868Y-94668714D01*
X225142295Y-94637399D01*
X225302902Y-94605454D01*
X225302913Y-94605451D01*
X225302913Y-94605450D01*
X225302923Y-94605449D01*
X225613246Y-94511314D01*
X225912847Y-94387215D01*
X226198842Y-94234347D01*
X226468476Y-94054183D01*
X226719153Y-93848458D01*
X226948458Y-93619153D01*
X227154183Y-93368476D01*
X227334347Y-93098842D01*
X227487215Y-92812847D01*
X227611314Y-92513246D01*
X227705449Y-92202923D01*
X227705451Y-92202913D01*
X227705454Y-92202902D01*
X227737399Y-92042295D01*
X227768714Y-91884868D01*
X227800500Y-91562143D01*
X227800500Y-91237857D01*
X227768714Y-90915132D01*
X227729710Y-90719043D01*
X227705454Y-90597097D01*
X227705451Y-90597086D01*
X227705450Y-90597083D01*
X227705449Y-90597077D01*
X227611314Y-90286754D01*
X227487215Y-89987153D01*
X227426409Y-89873394D01*
X227334353Y-89701169D01*
X227334352Y-89701167D01*
X227334347Y-89701158D01*
X227154183Y-89431524D01*
X226948458Y-89180847D01*
X226948457Y-89180846D01*
X226948453Y-89180841D01*
X226719158Y-88951546D01*
X226468481Y-88745821D01*
X226468480Y-88745820D01*
X226468476Y-88745817D01*
X226198842Y-88565653D01*
X226198837Y-88565650D01*
X226198830Y-88565646D01*
X225912854Y-88412788D01*
X225912849Y-88412786D01*
X225613247Y-88288686D01*
X225302913Y-88194548D01*
X225302902Y-88194545D01*
X224984874Y-88131287D01*
X224984857Y-88131284D01*
X224740812Y-88107248D01*
X224662143Y-88099500D01*
X224337857Y-88099500D01*
X224265099Y-88106666D01*
X224015142Y-88131284D01*
X224015125Y-88131287D01*
X223697097Y-88194545D01*
X223697086Y-88194548D01*
X223386752Y-88288686D01*
X223087150Y-88412786D01*
X223087145Y-88412788D01*
X222801169Y-88565646D01*
X222801151Y-88565657D01*
X222531532Y-88745811D01*
X222531518Y-88745821D01*
X222280841Y-88951546D01*
X222051546Y-89180841D01*
X221845821Y-89431518D01*
X221845811Y-89431532D01*
X221665657Y-89701151D01*
X221665646Y-89701169D01*
X221512788Y-89987145D01*
X221512786Y-89987150D01*
X221388686Y-90286752D01*
X221294548Y-90597086D01*
X221294545Y-90597097D01*
X221231287Y-90915125D01*
X221231284Y-90915142D01*
X221214301Y-91087577D01*
X221199500Y-91237857D01*
X216663529Y-91237857D01*
X216823123Y-91137577D01*
X217069044Y-90941461D01*
X217291461Y-90719044D01*
X217487577Y-90473123D01*
X217654926Y-90206789D01*
X217791402Y-89923394D01*
X217895289Y-89626500D01*
X217965282Y-89319840D01*
X218000500Y-89007273D01*
X218000500Y-88692727D01*
X217965282Y-88380160D01*
X217895289Y-88073500D01*
X217791402Y-87776606D01*
X217654926Y-87493211D01*
X217487577Y-87226877D01*
X217291461Y-86980956D01*
X217069044Y-86758539D01*
X217029890Y-86727315D01*
X216993726Y-86698475D01*
X216823123Y-86562423D01*
X216611567Y-86429493D01*
X216565277Y-86377159D01*
X216554629Y-86308106D01*
X216583004Y-86244257D01*
X216641393Y-86205885D01*
X216677540Y-86200500D01*
X217265890Y-86200500D01*
X217265892Y-86200500D01*
X217393186Y-86166392D01*
X217507314Y-86100500D01*
X217600500Y-86007314D01*
X217666392Y-85893186D01*
X217700500Y-85765892D01*
X217700500Y-78734108D01*
X217666392Y-78606814D01*
X217600500Y-78492686D01*
X217507314Y-78399500D01*
X217449597Y-78366177D01*
X217393187Y-78333608D01*
X217322418Y-78314646D01*
X217265892Y-78299500D01*
X192165892Y-78299500D01*
X192034108Y-78299500D01*
X191906812Y-78333608D01*
X191792686Y-78399500D01*
X191792683Y-78399502D01*
X191699502Y-78492683D01*
X191699500Y-78492686D01*
X191633608Y-78606812D01*
X191599500Y-78734108D01*
X191599500Y-85765891D01*
X191633608Y-85893187D01*
X191666554Y-85950250D01*
X191699500Y-86007314D01*
X191792686Y-86100500D01*
X191906814Y-86166392D01*
X192034108Y-86200500D01*
X192542886Y-86200500D01*
X192609925Y-86220185D01*
X192655680Y-86272989D01*
X192665624Y-86342147D01*
X192636599Y-86405703D01*
X192608858Y-86429494D01*
X192476878Y-86512422D01*
X192230956Y-86708538D01*
X192008538Y-86930956D01*
X191812422Y-87176878D01*
X191645072Y-87443213D01*
X191508598Y-87726604D01*
X191404711Y-88023498D01*
X191404710Y-88023500D01*
X191334718Y-88330156D01*
X191334716Y-88330172D01*
X191299500Y-88642722D01*
X186314184Y-88642722D01*
X186198848Y-88565657D01*
X186198847Y-88565656D01*
X186198842Y-88565653D01*
X186198837Y-88565650D01*
X186198830Y-88565646D01*
X185912854Y-88412788D01*
X185912849Y-88412786D01*
X185613247Y-88288686D01*
X185302913Y-88194548D01*
X185302902Y-88194545D01*
X184984874Y-88131287D01*
X184984857Y-88131284D01*
X184740812Y-88107248D01*
X184662143Y-88099500D01*
X184337857Y-88099500D01*
X184265099Y-88106666D01*
X184015142Y-88131284D01*
X184015125Y-88131287D01*
X183697097Y-88194545D01*
X183697086Y-88194548D01*
X183386752Y-88288686D01*
X183087150Y-88412786D01*
X183087145Y-88412788D01*
X182801169Y-88565646D01*
X182801151Y-88565657D01*
X182531532Y-88745811D01*
X182531518Y-88745821D01*
X182280841Y-88951546D01*
X182051546Y-89180841D01*
X181845821Y-89431518D01*
X181845811Y-89431532D01*
X181665657Y-89701151D01*
X181665646Y-89701169D01*
X181512788Y-89987145D01*
X181512786Y-89987150D01*
X181388686Y-90286752D01*
X181294548Y-90597086D01*
X181294545Y-90597097D01*
X181231287Y-90915125D01*
X181231284Y-90915142D01*
X181214301Y-91087577D01*
X181199500Y-91237857D01*
X173178472Y-91237857D01*
X173178158Y-91078785D01*
X173178655Y-90826928D01*
X173178671Y-90825267D01*
X173186638Y-90321918D01*
X173186679Y-90320187D01*
X173202614Y-89816924D01*
X173202685Y-89815141D01*
X173226574Y-89312376D01*
X173226680Y-89310468D01*
X173258526Y-88808087D01*
X173258657Y-88806264D01*
X173298449Y-88304460D01*
X173298616Y-88302558D01*
X173346340Y-87801509D01*
X173346516Y-87799794D01*
X173402184Y-87299370D01*
X173402410Y-87297487D01*
X173411399Y-87226878D01*
X173465956Y-86798279D01*
X173466216Y-86796364D01*
X173475254Y-86733345D01*
X173537671Y-86298109D01*
X173537942Y-86296319D01*
X173617269Y-85799285D01*
X173617587Y-85797392D01*
X173623127Y-85765890D01*
X173704785Y-85301585D01*
X173705112Y-85299812D01*
X173800143Y-84805474D01*
X173800479Y-84803793D01*
X173903344Y-84310908D01*
X173903719Y-84309178D01*
X174014356Y-83818053D01*
X174014795Y-83816177D01*
X174073780Y-83572402D01*
X174133146Y-83327050D01*
X174133607Y-83325207D01*
X174196723Y-83081314D01*
X174259713Y-82837900D01*
X174260214Y-82836030D01*
X174394019Y-82350767D01*
X174394481Y-82349142D01*
X174535973Y-81865981D01*
X174536482Y-81864292D01*
X174685601Y-81383435D01*
X174686150Y-81381712D01*
X174842856Y-80903285D01*
X174843437Y-80901560D01*
X175007668Y-80425756D01*
X175008308Y-80423949D01*
X175180048Y-79950802D01*
X175180651Y-79949181D01*
X175359892Y-79478722D01*
X175360585Y-79476948D01*
X175454399Y-79241960D01*
X175547216Y-79009468D01*
X175547896Y-79007802D01*
X175741938Y-78543248D01*
X175742617Y-78541657D01*
X175943970Y-78080269D01*
X175944709Y-78078610D01*
X176153377Y-77620383D01*
X176154115Y-77618798D01*
X176369972Y-77164010D01*
X176370729Y-77162446D01*
X176593796Y-76711048D01*
X176594546Y-76709559D01*
X176824772Y-76261666D01*
X176825536Y-76260208D01*
X177062749Y-75816149D01*
X177063681Y-75814439D01*
X177186474Y-75593075D01*
X177307840Y-75374283D01*
X177308689Y-75372780D01*
X177559847Y-74936434D01*
X177560757Y-74934881D01*
X177818803Y-74502544D01*
X177819691Y-74501083D01*
X178084526Y-74072912D01*
X178085433Y-74071472D01*
X178357064Y-73647465D01*
X178357972Y-73646071D01*
X178636262Y-73226444D01*
X178637248Y-73224982D01*
X178922127Y-72809836D01*
X178923114Y-72808422D01*
X179214511Y-72397860D01*
X179215526Y-72396453D01*
X179513394Y-71990540D01*
X179514475Y-71989091D01*
X179818631Y-71588072D01*
X179819824Y-71586526D01*
X180130349Y-71190294D01*
X180131400Y-71188976D01*
X180448209Y-70797644D01*
X180449286Y-70796334D01*
X180772236Y-70410079D01*
X180773414Y-70408692D01*
X180990894Y-70156794D01*
X181049603Y-70118915D01*
X181119473Y-70118789D01*
X181178319Y-70156458D01*
X181207458Y-70219961D01*
X181208155Y-70249983D01*
X181199500Y-70337860D01*
X181199500Y-70662139D01*
X181231284Y-70984857D01*
X181231287Y-70984874D01*
X181294545Y-71302902D01*
X181294548Y-71302913D01*
X181388686Y-71613247D01*
X181512786Y-71912849D01*
X181512788Y-71912854D01*
X181665646Y-72198830D01*
X181665657Y-72198848D01*
X181845811Y-72468467D01*
X181845821Y-72468481D01*
X182051546Y-72719158D01*
X182280841Y-72948453D01*
X182280846Y-72948457D01*
X182280847Y-72948458D01*
X182531524Y-73154183D01*
X182801158Y-73334347D01*
X182801167Y-73334352D01*
X182801169Y-73334353D01*
X183087145Y-73487211D01*
X183087147Y-73487211D01*
X183087153Y-73487215D01*
X183386754Y-73611314D01*
X183697077Y-73705449D01*
X183697083Y-73705450D01*
X183697086Y-73705451D01*
X183697097Y-73705454D01*
X183896528Y-73745122D01*
X184015132Y-73768714D01*
X184337857Y-73800500D01*
X184337860Y-73800500D01*
X184662140Y-73800500D01*
X184662143Y-73800500D01*
X184984868Y-73768714D01*
X185142295Y-73737399D01*
X185302902Y-73705454D01*
X185302913Y-73705451D01*
X185302913Y-73705450D01*
X185302923Y-73705449D01*
X185613246Y-73611314D01*
X185912847Y-73487215D01*
X186198842Y-73334347D01*
X186468476Y-73154183D01*
X186719153Y-72948458D01*
X186948458Y-72719153D01*
X187154183Y-72468476D01*
X187334347Y-72198842D01*
X187487215Y-71912847D01*
X187611314Y-71613246D01*
X187705449Y-71302923D01*
X187705451Y-71302913D01*
X187705454Y-71302902D01*
X187746128Y-71098417D01*
X187768714Y-70984868D01*
X187800500Y-70662143D01*
X187800500Y-70337857D01*
X187768714Y-70015132D01*
X187741316Y-69877394D01*
X187705454Y-69697097D01*
X187705451Y-69697086D01*
X187705450Y-69697083D01*
X187705449Y-69697077D01*
X187611314Y-69386754D01*
X187487215Y-69087153D01*
X187451307Y-69019975D01*
X187334353Y-68801169D01*
X187334352Y-68801167D01*
X187334347Y-68801158D01*
X187154183Y-68531524D01*
X186948458Y-68280847D01*
X186948457Y-68280846D01*
X186948453Y-68280841D01*
X186719158Y-68051546D01*
X186468481Y-67845821D01*
X186468480Y-67845820D01*
X186468476Y-67845817D01*
X186198842Y-67665653D01*
X186198837Y-67665650D01*
X186198830Y-67665646D01*
X185912854Y-67512788D01*
X185912849Y-67512786D01*
X185613247Y-67388686D01*
X185302913Y-67294548D01*
X185302902Y-67294545D01*
X184984874Y-67231287D01*
X184984857Y-67231284D01*
X184740812Y-67207248D01*
X184662143Y-67199500D01*
X184337857Y-67199500D01*
X184322084Y-67201053D01*
X184246541Y-67208493D01*
X184214951Y-67202501D01*
X184183120Y-67197995D01*
X184180846Y-67196033D01*
X184177895Y-67195474D01*
X184154557Y-67173352D01*
X184130217Y-67152354D01*
X184129364Y-67149473D01*
X184127185Y-67147408D01*
X184119514Y-67116194D01*
X184110388Y-67085357D01*
X184111228Y-67082472D01*
X184110512Y-67079557D01*
X184120932Y-67049156D01*
X184129928Y-67018276D01*
X184132566Y-67015217D01*
X184133168Y-67013463D01*
X184152978Y-66991557D01*
X184333845Y-66834150D01*
X184335236Y-66832959D01*
X184720150Y-66508534D01*
X184721433Y-66507469D01*
X185111496Y-66189124D01*
X185112921Y-66187980D01*
X185507994Y-65875831D01*
X185509338Y-65874787D01*
X185909240Y-65568978D01*
X185910647Y-65567920D01*
X186315379Y-65268447D01*
X186316798Y-65267414D01*
X186726194Y-64974403D01*
X186727710Y-64973337D01*
X187141585Y-64686914D01*
X187143111Y-64685876D01*
X187561588Y-64405959D01*
X187563031Y-64405010D01*
X187985907Y-64131738D01*
X187987369Y-64130810D01*
X188414498Y-63864275D01*
X188415958Y-63863380D01*
X188847311Y-63603603D01*
X188848763Y-63602745D01*
X189284102Y-63349867D01*
X189285646Y-63348986D01*
X189724942Y-63103026D01*
X189726480Y-63102181D01*
X190169709Y-62863151D01*
X190171095Y-62862418D01*
X190618081Y-62630418D01*
X190619579Y-62629656D01*
X191070032Y-62404834D01*
X191071772Y-62403984D01*
X191525566Y-62186395D01*
X191527209Y-62185622D01*
X191984571Y-61975160D01*
X191986196Y-61974428D01*
X192446809Y-61771238D01*
X192448421Y-61770542D01*
X192912187Y-61574671D01*
X192913900Y-61573964D01*
X193380735Y-61385446D01*
X193382311Y-61384824D01*
X193851943Y-61203768D01*
X193853767Y-61203081D01*
X194326248Y-61029463D01*
X194327987Y-61028840D01*
X194803211Y-60862702D01*
X194804847Y-60862145D01*
X195282605Y-60703561D01*
X195284361Y-60702993D01*
X195764677Y-60551956D01*
X195766360Y-60551442D01*
X196248950Y-60408043D01*
X196250593Y-60407569D01*
X196735401Y-60271821D01*
X196737051Y-60271373D01*
X197223992Y-60143304D01*
X197225740Y-60142859D01*
X197714543Y-60022537D01*
X197716365Y-60022104D01*
X198206910Y-59909557D01*
X198208789Y-59909141D01*
X198701107Y-59804360D01*
X198702979Y-59803978D01*
X199196844Y-59707011D01*
X199198672Y-59706667D01*
X199694169Y-59617499D01*
X199695889Y-59617204D01*
X200192642Y-59535904D01*
X200194475Y-59535619D01*
X200692564Y-59462174D01*
X200694355Y-59461926D01*
X201193409Y-59396391D01*
X201195142Y-59396177D01*
X201695351Y-59338529D01*
X201697114Y-59338340D01*
X202198075Y-59288624D01*
X202199911Y-59288457D01*
X202701548Y-59246680D01*
X202703275Y-59246550D01*
X203205571Y-59212712D01*
X203207522Y-59212596D01*
X203710153Y-59186720D01*
X203712034Y-59186638D01*
X204215002Y-59168720D01*
X204216862Y-59168668D01*
X204720134Y-59158710D01*
X204722083Y-59158688D01*
X205225441Y-59156696D01*
X205227196Y-59156703D01*
G37*
%TD.AperFunction*%
%TD*%
%TA.AperFunction,Conductor*%
%TO.N,Net-(Q1-G)*%
G36*
X213053676Y-114823603D02*
G01*
X213794104Y-115246631D01*
X213799588Y-115253711D01*
X213800000Y-115256790D01*
X213800000Y-115543209D01*
X213796573Y-115551482D01*
X213794104Y-115553368D01*
X213053677Y-115976395D01*
X213044794Y-115977524D01*
X213039352Y-115974254D01*
X212804026Y-115724164D01*
X212506543Y-115408016D01*
X212503370Y-115399644D01*
X212506543Y-115391983D01*
X213039352Y-114825744D01*
X213047517Y-114822068D01*
X213053676Y-114823603D01*
G37*
%TD.AperFunction*%
%TD*%
M02*
