M48
; DRILL file {KiCad 9.0.7-9.0.7~ubuntu24.04.1} date 2026-01-07T15:42:35+0530
; FORMAT={-:-/ absolute / metric / decimal}
; #@! TF.CreationDate,2026-01-07T15:42:35+05:30
; #@! TF.GenerationSoftware,Kicad,Pcbnew,9.0.7-9.0.7~ubuntu24.04.1
; #@! TF.FileFunction,MixedPlating,1,2
FMAT,2
METRIC
; #@! TA.AperFunction,Plated,PTH,ViaDrill
T1C0.350
; #@! TA.AperFunction,Plated,PTH,ViaDrill
T2C0.500
; #@! TA.AperFunction,Plated,PTH,ComponentDrill
T3C0.950
; #@! TA.AperFunction,NonPlated,NPTH,ComponentDrill
T4C2.200
; #@! TA.AperFunction,NonPlated,NPTH,ComponentDrill
T5C3.200
%
G90
G05
T1
X212.48Y-117.4
T2
X171.0Y-95.0
X171.5Y-97.0
X173.0Y-79.5
X173.5Y-77.5
X175.172Y-91.846
X175.5Y-95.5
X176.0Y-97.5
X176.5Y-82.0
X177.0Y-80.0
X177.0Y-111.0
X178.5Y-112.5
X178.666Y-76.706
X179.716Y-106.706
X183.4Y-64.7
X184.9Y-63.3
X189.263Y-65.341
X191.0Y-122.5
X191.081Y-117.302
X193.0Y-123.0
X194.0Y-119.0
X196.0Y-120.0
X199.0Y-57.5
X199.0Y-62.0
X201.0Y-57.0
X201.0Y-61.5
X204.122Y-60.796
X206.222Y-120.796
X208.5Y-125.0
X210.5Y-124.5
X214.0Y-62.5
X216.0Y-63.0
X217.0Y-59.0
X219.0Y-59.5
X219.263Y-64.291
X221.081Y-116.252
X225.0Y-119.0
X226.5Y-117.5
X230.628Y-74.887
X231.5Y-69.5
X231.678Y-104.887
X233.0Y-71.0
X233.5Y-101.5
X234.0Y-84.5
X234.0Y-99.5
X234.5Y-86.5
X235.172Y-89.746
X236.5Y-105.0
X237.0Y-103.0
X238.5Y-85.5
X239.0Y-87.5
T3
X202.6Y-116.4
X205.1Y-116.4
X207.6Y-116.4
T4
X194.1Y-88.8
X194.1Y-100.95
X215.2Y-88.85
X215.2Y-100.95
T5
X184.5Y-70.5
X184.5Y-91.4
X184.5Y-111.5
X224.5Y-91.4
X225.5Y-70.5
X225.5Y-111.5
M30
