M48
; DRILL file {KiCad 9.0.7-9.0.7~ubuntu24.04.1} date 2026-01-05T15:50:42+0530
; FORMAT={-:-/ absolute / metric / decimal}
; #@! TF.CreationDate,2026-01-05T15:50:42+05:30
; #@! TF.GenerationSoftware,Kicad,Pcbnew,9.0.7-9.0.7~ubuntu24.04.1
; #@! TF.FileFunction,Plated,1,2,PTH
FMAT,2
METRIC
; #@! TA.AperFunction,Plated,PTH,ViaDrill
T1C0.350
; #@! TA.AperFunction,Plated,PTH,ViaDrill
T2C0.400
; #@! TA.AperFunction,Plated,PTH,ViaDrill
T3C0.500
; #@! TA.AperFunction,Plated,PTH,ComponentDrill
T4C0.950
%
G90
G05
T1
X104.0Y-107.2
X105.0Y-109.0
X105.0Y-110.0
X105.0Y-111.0
X105.0Y-112.0
X105.0Y-113.0
X105.0Y-114.0
T2
X116.409Y-108.836
X120.714Y-91.72
X121.239Y-125.811
X133.0Y-79.05
X133.909Y-138.097
X149.975Y-74.22
X151.025Y-142.402
X167.091Y-78.525
X168.0Y-137.572
X179.761Y-90.811
X184.591Y-107.786
T3
X101.0Y-96.0
X102.0Y-91.0
X102.0Y-93.0
X104.0Y-89.0
X104.0Y-91.0
X104.0Y-93.0
X106.0Y-89.0
X106.0Y-91.0
X106.0Y-93.0
X108.0Y-133.0
X109.0Y-135.0
X110.0Y-81.0
X110.0Y-132.0
X111.0Y-134.0
X118.0Y-113.0
X119.0Y-111.0
X120.0Y-114.0
X121.0Y-69.0
X121.0Y-112.0
X121.0Y-147.0
X122.0Y-95.0
X123.0Y-97.0
X124.0Y-94.0
X124.0Y-128.0
X125.0Y-96.0
X125.0Y-126.0
X126.0Y-129.0
X127.0Y-127.0
X131.0Y-85.0
X132.0Y-83.0
X133.0Y-86.0
X134.0Y-62.0
X134.0Y-84.0
X134.0Y-154.0
X137.0Y-136.0
X138.0Y-138.0
X139.0Y-135.0
X140.0Y-137.0
X146.0Y-79.0
X147.0Y-77.0
X148.0Y-80.0
X149.0Y-78.0
X150.0Y-59.0
X150.0Y-157.0
X152.0Y-139.0
X153.0Y-137.0
X154.0Y-140.0
X155.0Y-138.0
X161.0Y-80.0
X162.0Y-82.0
X163.0Y-79.0
X164.0Y-81.0
X165.0Y-62.0
X165.0Y-154.0
X167.0Y-132.0
X168.0Y-134.0
X169.0Y-131.0
X170.0Y-133.0
X174.0Y-90.0
X174.0Y-92.0
X176.0Y-90.0
X176.0Y-92.0
X177.0Y-120.0
X178.0Y-122.0
X179.0Y-119.0
X180.0Y-69.0
X180.0Y-105.0
X180.0Y-121.0
X180.0Y-144.0
X181.0Y-103.0
X182.0Y-106.0
X183.0Y-104.0
X191.0Y-81.0
X191.0Y-133.0
X196.0Y-94.0
X196.0Y-123.0
X198.0Y-108.0
T4
X108.5Y-124.67
X109.75Y-126.835
X111.0Y-129.0
M30
