%TF.GenerationSoftware,KiCad,Pcbnew,9.0.7-9.0.7~ubuntu24.04.1*%
%TF.CreationDate,2026-01-05T15:50:34+05:30*%
%TF.ProjectId,RPI_Cam3_RL,5250495f-4361-46d3-935f-524c2e6b6963,rev?*%
%TF.SameCoordinates,Original*%
%TF.FileFunction,Copper,L2,Bot*%
%TF.FilePolarity,Positive*%
%FSLAX46Y46*%
G04 Gerber Fmt 4.6, Leading zero omitted, Abs format (unit mm)*
G04 Created by KiCad (PCBNEW 9.0.7-9.0.7~ubuntu24.04.1) date 2026-01-05 15:50:34*
%MOMM*%
%LPD*%
G01*
G04 APERTURE LIST*
G04 Aperture macros list*
%AMRoundRect*
0 Rectangle with rounded corners*
0 $1 Rounding radius*
0 $2 $3 $4 $5 $6 $7 $8 $9 X,Y pos of 4 corners*
0 Add a 4 corners polygon primitive as box body*
4,1,4,$2,$3,$4,$5,$6,$7,$8,$9,$2,$3,0*
0 Add four circle primitives for the rounded corners*
1,1,$1+$1,$2,$3*
1,1,$1+$1,$4,$5*
1,1,$1+$1,$6,$7*
1,1,$1+$1,$8,$9*
0 Add four rect primitives between the rounded corners*
20,1,$1+$1,$2,$3,$4,$5,0*
20,1,$1+$1,$4,$5,$6,$7,0*
20,1,$1+$1,$6,$7,$8,$9,0*
20,1,$1+$1,$8,$9,$2,$3,0*%
%AMHorizOval*
0 Thick line with rounded ends*
0 $1 width*
0 $2 $3 position (X,Y) of the first rounded end (center of the circle)*
0 $4 $5 position (X,Y) of the second rounded end (center of the circle)*
0 Add line between two ends*
20,1,$1,$2,$3,$4,$5,0*
0 Add two circle primitives to create the rounded ends*
1,1,$1,$2,$3*
1,1,$1,$4,$5*%
G04 Aperture macros list end*
%TA.AperFunction,ComponentPad*%
%ADD10RoundRect,0.250000X0.927868X-0.157115X0.327868X0.882115X-0.927868X0.157115X-0.327868X-0.882115X0*%
%TD*%
%TA.AperFunction,ComponentPad*%
%ADD11HorizOval,1.700000X0.108253X0.062500X-0.108253X-0.062500X0*%
%TD*%
%TA.AperFunction,ViaPad*%
%ADD12C,1.000000*%
%TD*%
%TA.AperFunction,ViaPad*%
%ADD13C,1.500000*%
%TD*%
%TA.AperFunction,ViaPad*%
%ADD14C,0.700000*%
%TD*%
G04 APERTURE END LIST*
D10*
%TO.P,J1,1,Pin_1*%
%TO.N,GND*%
X111000000Y-129000000D03*
D11*
%TO.P,J1,2,Pin_2*%
%TO.N,/EN*%
X109750000Y-126834936D03*
%TO.P,J1,3,Pin_3*%
%TO.N,+5V*%
X108500000Y-124669873D03*
%TD*%
D12*
%TO.N,GND*%
X133000000Y-79050000D03*
D13*
X110000000Y-81000000D03*
D14*
X105000000Y-110000000D03*
D13*
X179000000Y-119000000D03*
X174000000Y-90000000D03*
D12*
X151025000Y-142401563D03*
D14*
X104000000Y-107200000D03*
D13*
X121000000Y-147000000D03*
X110000000Y-132000000D03*
X163000000Y-79000000D03*
D12*
X168000000Y-137571779D03*
D13*
X165000000Y-154000000D03*
X196000000Y-123000000D03*
X183000000Y-104000000D03*
X198000000Y-108000000D03*
X134000000Y-62000000D03*
X180000000Y-121000000D03*
X126000000Y-129000000D03*
X140000000Y-137000000D03*
X168000000Y-134000000D03*
D12*
X184590674Y-107785890D03*
D13*
X165000000Y-62000000D03*
X137000000Y-136000000D03*
D14*
X105000000Y-111000000D03*
X105000000Y-113000000D03*
D13*
X150000000Y-157000000D03*
X118000000Y-113000000D03*
X146000000Y-79000000D03*
X148000000Y-80000000D03*
X120000000Y-114000000D03*
X109000000Y-135000000D03*
X125000000Y-126000000D03*
X122000000Y-95000000D03*
X176000000Y-92000000D03*
D12*
X121239110Y-125810890D03*
D13*
X147000000Y-77000000D03*
X180000000Y-69000000D03*
X134000000Y-154000000D03*
X124000000Y-94000000D03*
X167000000Y-132000000D03*
X153000000Y-137000000D03*
X169000000Y-131000000D03*
D12*
X133909327Y-138096779D03*
D14*
X105000000Y-114000000D03*
D13*
X133000000Y-86000000D03*
X124000000Y-128000000D03*
X132000000Y-83000000D03*
X121000000Y-112000000D03*
X178000000Y-122000000D03*
D12*
X120714110Y-91720217D03*
D13*
X177000000Y-120000000D03*
X150000000Y-59000000D03*
D12*
X116409326Y-108835890D03*
D13*
X102000000Y-93000000D03*
X121000000Y-69000000D03*
X162000000Y-82000000D03*
X170000000Y-133000000D03*
X182000000Y-106000000D03*
X154000000Y-140000000D03*
X127000000Y-127000000D03*
X155000000Y-138000000D03*
X191000000Y-81000000D03*
X125000000Y-96000000D03*
X108000000Y-133000000D03*
D14*
X105000000Y-109000000D03*
D13*
X131000000Y-85000000D03*
X139000000Y-135000000D03*
X111000000Y-134000000D03*
X102000000Y-91000000D03*
D12*
X149975000Y-74220216D03*
D13*
X181000000Y-103000000D03*
X138000000Y-138000000D03*
X104000000Y-93000000D03*
X191000000Y-133000000D03*
X119000000Y-111000000D03*
D14*
X105000000Y-112000000D03*
D13*
X106000000Y-89000000D03*
X134000000Y-84000000D03*
X174000000Y-92000000D03*
X180000000Y-144000000D03*
X106000000Y-93000000D03*
X106000000Y-91000000D03*
X123000000Y-97000000D03*
X104000000Y-91000000D03*
X196000000Y-94000000D03*
X161000000Y-80000000D03*
X164000000Y-81000000D03*
X149000000Y-78000000D03*
X101000000Y-96000000D03*
X104000000Y-89000000D03*
X152000000Y-139000000D03*
X180000000Y-105000000D03*
D12*
X179760889Y-90810890D03*
D13*
X176000000Y-90000000D03*
D12*
X167090673Y-78525000D03*
%TD*%
%TA.AperFunction,Conductor*%
%TO.N,GND*%
G36*
X150712553Y-55505358D02*
G01*
X152130509Y-55543769D01*
X152133845Y-55543905D01*
X153550212Y-55620698D01*
X153553477Y-55620920D01*
X154967294Y-55736043D01*
X154970611Y-55736358D01*
X156380758Y-55889721D01*
X156384018Y-55890120D01*
X157789546Y-56081620D01*
X157792828Y-56082113D01*
X159192624Y-56311597D01*
X159195809Y-56312164D01*
X160588920Y-56579479D01*
X160592110Y-56580136D01*
X161977435Y-56885069D01*
X161980686Y-56885830D01*
X162668957Y-57056996D01*
X163357219Y-57228159D01*
X163360467Y-57229014D01*
X163942137Y-57390513D01*
X164727191Y-57608483D01*
X164730386Y-57609417D01*
X166086352Y-58025763D01*
X166089548Y-58026792D01*
X167433707Y-58479692D01*
X167436875Y-58480807D01*
X168768322Y-58969956D01*
X168771449Y-58971153D01*
X170089148Y-59496172D01*
X170092194Y-59497433D01*
X171395260Y-60057972D01*
X171398275Y-60059318D01*
X172117992Y-60392295D01*
X172685596Y-60654897D01*
X172688626Y-60656348D01*
X173959409Y-61286598D01*
X173962333Y-61288098D01*
X175215581Y-61952528D01*
X175218480Y-61954116D01*
X176453232Y-62652215D01*
X176456133Y-62653907D01*
X177671541Y-63385194D01*
X177674394Y-63386964D01*
X178869528Y-64150879D01*
X178872333Y-64152726D01*
X180046341Y-64948723D01*
X180049095Y-64950645D01*
X181201103Y-65778131D01*
X181203804Y-65780126D01*
X182333058Y-66638563D01*
X182335703Y-66640632D01*
X183441239Y-67529287D01*
X183443762Y-67531371D01*
X184524898Y-68449696D01*
X184527355Y-68451841D01*
X185407084Y-69241080D01*
X185583230Y-69399108D01*
X185585699Y-69401385D01*
X186615458Y-70376824D01*
X186617864Y-70379166D01*
X187620833Y-71382135D01*
X187623175Y-71384541D01*
X188598614Y-72414300D01*
X188600891Y-72416769D01*
X189548154Y-73472639D01*
X189550308Y-73475107D01*
X190468622Y-74556229D01*
X190470719Y-74558767D01*
X191057213Y-75288400D01*
X191359367Y-75664296D01*
X191361436Y-75666941D01*
X192219873Y-76796195D01*
X192221868Y-76798896D01*
X193049354Y-77950904D01*
X193051276Y-77953658D01*
X193847273Y-79127666D01*
X193849120Y-79130471D01*
X194613035Y-80325605D01*
X194614805Y-80328458D01*
X195346092Y-81543866D01*
X195347784Y-81546767D01*
X196045870Y-82781496D01*
X196047483Y-82784441D01*
X196711884Y-84037634D01*
X196713417Y-84040622D01*
X197343651Y-85311374D01*
X197345102Y-85314403D01*
X197940669Y-86601698D01*
X197942038Y-86604764D01*
X198502554Y-87907777D01*
X198503839Y-87910880D01*
X199028842Y-89228541D01*
X199030043Y-89231677D01*
X199519192Y-90563124D01*
X199520307Y-90566292D01*
X199973207Y-91910451D01*
X199974236Y-91913647D01*
X200390578Y-93269599D01*
X200391520Y-93272822D01*
X200770985Y-94639532D01*
X200771840Y-94642780D01*
X201114166Y-96019304D01*
X201114932Y-96022574D01*
X201419853Y-97407840D01*
X201420530Y-97411129D01*
X201687824Y-98804130D01*
X201688412Y-98807436D01*
X201917883Y-100207152D01*
X201918382Y-100210473D01*
X202109874Y-101615945D01*
X202110282Y-101619278D01*
X202263639Y-103029375D01*
X202263957Y-103032718D01*
X202379076Y-104446479D01*
X202379303Y-104449830D01*
X202456093Y-105866145D01*
X202456230Y-105869500D01*
X202494642Y-107287446D01*
X202494687Y-107290804D01*
X202494687Y-108709195D01*
X202494642Y-108712553D01*
X202456230Y-110130499D01*
X202456093Y-110133854D01*
X202379303Y-111550169D01*
X202379076Y-111553520D01*
X202263957Y-112967281D01*
X202263639Y-112970624D01*
X202110282Y-114380721D01*
X202109874Y-114384054D01*
X201918382Y-115789526D01*
X201917883Y-115792847D01*
X201688412Y-117192563D01*
X201687824Y-117195869D01*
X201420530Y-118588870D01*
X201419853Y-118592159D01*
X201114932Y-119977425D01*
X201114166Y-119980695D01*
X200771840Y-121357219D01*
X200770985Y-121360467D01*
X200391520Y-122727177D01*
X200390578Y-122730400D01*
X199974236Y-124086352D01*
X199973207Y-124089548D01*
X199520307Y-125433707D01*
X199519192Y-125436875D01*
X199030043Y-126768322D01*
X199028842Y-126771458D01*
X198503839Y-128089119D01*
X198502554Y-128092222D01*
X197942038Y-129395235D01*
X197940669Y-129398301D01*
X197345102Y-130685596D01*
X197343651Y-130688625D01*
X196713417Y-131959377D01*
X196711884Y-131962365D01*
X196047483Y-133215558D01*
X196045870Y-133218503D01*
X195347784Y-134453232D01*
X195346092Y-134456133D01*
X194614805Y-135671541D01*
X194613035Y-135674394D01*
X193849120Y-136869528D01*
X193847273Y-136872333D01*
X193051276Y-138046341D01*
X193049354Y-138049095D01*
X192221868Y-139201103D01*
X192219873Y-139203804D01*
X191361436Y-140333058D01*
X191359367Y-140335703D01*
X190470740Y-141441206D01*
X190468601Y-141443795D01*
X189550335Y-142524861D01*
X189548127Y-142527391D01*
X188600891Y-143583230D01*
X188598614Y-143585699D01*
X187623175Y-144615458D01*
X187620833Y-144617864D01*
X186617864Y-145620833D01*
X186615458Y-145623175D01*
X185585699Y-146598614D01*
X185583230Y-146600891D01*
X184527391Y-147548127D01*
X184524861Y-147550335D01*
X183443795Y-148468601D01*
X183441206Y-148470740D01*
X182335703Y-149359367D01*
X182333058Y-149361436D01*
X181203804Y-150219873D01*
X181201103Y-150221868D01*
X180049095Y-151049354D01*
X180046341Y-151051276D01*
X178872333Y-151847273D01*
X178869528Y-151849120D01*
X177674394Y-152613035D01*
X177671541Y-152614805D01*
X176456133Y-153346092D01*
X176453232Y-153347784D01*
X175218503Y-154045870D01*
X175215558Y-154047483D01*
X173962365Y-154711884D01*
X173959377Y-154713417D01*
X172688625Y-155343651D01*
X172685596Y-155345102D01*
X171398301Y-155940669D01*
X171395235Y-155942038D01*
X170092222Y-156502554D01*
X170089119Y-156503839D01*
X168771458Y-157028842D01*
X168768322Y-157030043D01*
X167436875Y-157519192D01*
X167433707Y-157520307D01*
X166089548Y-157973207D01*
X166086352Y-157974236D01*
X164730400Y-158390578D01*
X164727177Y-158391520D01*
X163360467Y-158770985D01*
X163357219Y-158771840D01*
X161980695Y-159114166D01*
X161977425Y-159114932D01*
X160592159Y-159419853D01*
X160588870Y-159420530D01*
X159195869Y-159687824D01*
X159192563Y-159688412D01*
X157792847Y-159917883D01*
X157789526Y-159918382D01*
X156384054Y-160109874D01*
X156380721Y-160110282D01*
X154970624Y-160263639D01*
X154967281Y-160263957D01*
X153553520Y-160379076D01*
X153550169Y-160379303D01*
X152133854Y-160456093D01*
X152130499Y-160456230D01*
X150712553Y-160494642D01*
X150709195Y-160494687D01*
X149290805Y-160494687D01*
X149287447Y-160494642D01*
X147869500Y-160456230D01*
X147866145Y-160456093D01*
X146449830Y-160379303D01*
X146446479Y-160379076D01*
X145032718Y-160263957D01*
X145029375Y-160263639D01*
X143619278Y-160110282D01*
X143615945Y-160109874D01*
X142210473Y-159918382D01*
X142207152Y-159917883D01*
X140807436Y-159688412D01*
X140804130Y-159687824D01*
X139411129Y-159420530D01*
X139407840Y-159419853D01*
X138022574Y-159114932D01*
X138019304Y-159114166D01*
X136642780Y-158771840D01*
X136639532Y-158770985D01*
X135272822Y-158391520D01*
X135269599Y-158390578D01*
X133913647Y-157974236D01*
X133910451Y-157973207D01*
X132566292Y-157520307D01*
X132563124Y-157519192D01*
X131231677Y-157030043D01*
X131228541Y-157028842D01*
X129910880Y-156503839D01*
X129907777Y-156502554D01*
X128604764Y-155942038D01*
X128601698Y-155940669D01*
X127314403Y-155345102D01*
X127311374Y-155343651D01*
X126040622Y-154713417D01*
X126037634Y-154711884D01*
X124784441Y-154047483D01*
X124781496Y-154045870D01*
X123546767Y-153347784D01*
X123543866Y-153346092D01*
X122328458Y-152614805D01*
X122325605Y-152613035D01*
X121130471Y-151849120D01*
X121127666Y-151847273D01*
X119953658Y-151051276D01*
X119950904Y-151049354D01*
X118798896Y-150221868D01*
X118796195Y-150219873D01*
X117666941Y-149361436D01*
X117664296Y-149359367D01*
X117288400Y-149057213D01*
X116558767Y-148470719D01*
X116556229Y-148468622D01*
X115475107Y-147550308D01*
X115472639Y-147548154D01*
X114416769Y-146600891D01*
X114414300Y-146598614D01*
X113384541Y-145623175D01*
X113382135Y-145620833D01*
X112379166Y-144617864D01*
X112376824Y-144615458D01*
X111401385Y-143585699D01*
X111399108Y-143583230D01*
X111241080Y-143407084D01*
X110451841Y-142527355D01*
X110449696Y-142524898D01*
X109531371Y-141443762D01*
X109529287Y-141441239D01*
X108640632Y-140335703D01*
X108638563Y-140333058D01*
X108347138Y-139949695D01*
X108293177Y-139878711D01*
X112149500Y-139878711D01*
X112149500Y-140121288D01*
X112181161Y-140361785D01*
X112243947Y-140596104D01*
X112261390Y-140638214D01*
X112336776Y-140820212D01*
X112458064Y-141030289D01*
X112458066Y-141030292D01*
X112458067Y-141030293D01*
X112605733Y-141222736D01*
X112605739Y-141222743D01*
X112777256Y-141394260D01*
X112777262Y-141394265D01*
X112969711Y-141541936D01*
X113179788Y-141663224D01*
X113403900Y-141756054D01*
X113638211Y-141818838D01*
X113818586Y-141842584D01*
X113878711Y-141850500D01*
X113878712Y-141850500D01*
X114121289Y-141850500D01*
X114169388Y-141844167D01*
X114361789Y-141818838D01*
X114596100Y-141756054D01*
X114820212Y-141663224D01*
X115030289Y-141541936D01*
X115222738Y-141394265D01*
X115394265Y-141222738D01*
X115541936Y-141030289D01*
X115629450Y-140878711D01*
X183149500Y-140878711D01*
X183149500Y-141121288D01*
X183181161Y-141361785D01*
X183243947Y-141596104D01*
X183271750Y-141663226D01*
X183336776Y-141820212D01*
X183458064Y-142030289D01*
X183458066Y-142030292D01*
X183458067Y-142030293D01*
X183605733Y-142222736D01*
X183605739Y-142222743D01*
X183777256Y-142394260D01*
X183777262Y-142394265D01*
X183969711Y-142541936D01*
X184179788Y-142663224D01*
X184403900Y-142756054D01*
X184638211Y-142818838D01*
X184818586Y-142842584D01*
X184878711Y-142850500D01*
X184878712Y-142850500D01*
X185121289Y-142850500D01*
X185169388Y-142844167D01*
X185361789Y-142818838D01*
X185596100Y-142756054D01*
X185820212Y-142663224D01*
X186030289Y-142541936D01*
X186222738Y-142394265D01*
X186394265Y-142222738D01*
X186541936Y-142030289D01*
X186663224Y-141820212D01*
X186756054Y-141596100D01*
X186818838Y-141361789D01*
X186850500Y-141121288D01*
X186850500Y-140878712D01*
X186818838Y-140638211D01*
X186756054Y-140403900D01*
X186663224Y-140179788D01*
X186541936Y-139969711D01*
X186394265Y-139777262D01*
X186394260Y-139777256D01*
X186222743Y-139605739D01*
X186222736Y-139605733D01*
X186030293Y-139458067D01*
X186030292Y-139458066D01*
X186030289Y-139458064D01*
X185820212Y-139336776D01*
X185820205Y-139336773D01*
X185596104Y-139243947D01*
X185361785Y-139181161D01*
X185121289Y-139149500D01*
X185121288Y-139149500D01*
X184878712Y-139149500D01*
X184878711Y-139149500D01*
X184638214Y-139181161D01*
X184403895Y-139243947D01*
X184179794Y-139336773D01*
X184179785Y-139336777D01*
X183969706Y-139458067D01*
X183777263Y-139605733D01*
X183777256Y-139605739D01*
X183605739Y-139777256D01*
X183605733Y-139777263D01*
X183458067Y-139969706D01*
X183336777Y-140179785D01*
X183336773Y-140179794D01*
X183243947Y-140403895D01*
X183181161Y-140638214D01*
X183149500Y-140878711D01*
X115629450Y-140878711D01*
X115663224Y-140820212D01*
X115756054Y-140596100D01*
X115818838Y-140361789D01*
X115850500Y-140121288D01*
X115850500Y-139878712D01*
X115818838Y-139638211D01*
X115756054Y-139403900D01*
X115663224Y-139179788D01*
X115541936Y-138969711D01*
X115394265Y-138777262D01*
X115394260Y-138777256D01*
X115222743Y-138605739D01*
X115222736Y-138605733D01*
X115030293Y-138458067D01*
X115030292Y-138458066D01*
X115030289Y-138458064D01*
X114820212Y-138336776D01*
X114820205Y-138336773D01*
X114596104Y-138243947D01*
X114361785Y-138181161D01*
X114121289Y-138149500D01*
X114121288Y-138149500D01*
X113878712Y-138149500D01*
X113878711Y-138149500D01*
X113638214Y-138181161D01*
X113403895Y-138243947D01*
X113179794Y-138336773D01*
X113179785Y-138336777D01*
X112969706Y-138458067D01*
X112777263Y-138605733D01*
X112777256Y-138605739D01*
X112605739Y-138777256D01*
X112605733Y-138777263D01*
X112458067Y-138969706D01*
X112336777Y-139179785D01*
X112336773Y-139179794D01*
X112243947Y-139403895D01*
X112181161Y-139638214D01*
X112149500Y-139878711D01*
X108293177Y-139878711D01*
X107780126Y-139203804D01*
X107778131Y-139201103D01*
X106950645Y-138049095D01*
X106948723Y-138046341D01*
X106152726Y-136872333D01*
X106150879Y-136869528D01*
X105386964Y-135674394D01*
X105385194Y-135671541D01*
X104653907Y-134456133D01*
X104652215Y-134453232D01*
X103954129Y-133218503D01*
X103952516Y-133215558D01*
X103530722Y-132419970D01*
X103288098Y-131962333D01*
X103286598Y-131959409D01*
X102656348Y-130688625D01*
X102654897Y-130685596D01*
X102348620Y-130023590D01*
X102059318Y-129398275D01*
X102057961Y-129395235D01*
X101497433Y-128092194D01*
X101496160Y-128089119D01*
X101478977Y-128045994D01*
X100971153Y-126771449D01*
X100969956Y-126768322D01*
X100874688Y-126509007D01*
X100523317Y-125552586D01*
X100480807Y-125436875D01*
X100479692Y-125433707D01*
X100365287Y-125094166D01*
X100202518Y-124611085D01*
X106541247Y-124611085D01*
X106541247Y-124853669D01*
X106565732Y-125039643D01*
X106572910Y-125094164D01*
X106576942Y-125109211D01*
X106635692Y-125328473D01*
X106728527Y-125552593D01*
X106728528Y-125552594D01*
X106849811Y-125762662D01*
X106997477Y-125955105D01*
X106997482Y-125955111D01*
X107169005Y-126126634D01*
X107169011Y-126126639D01*
X107361460Y-126274310D01*
X107496476Y-126352262D01*
X107571529Y-126395594D01*
X107571534Y-126395596D01*
X107571537Y-126395598D01*
X107607864Y-126410645D01*
X107739489Y-126465166D01*
X107793892Y-126509007D01*
X107815957Y-126575301D01*
X107814975Y-126595912D01*
X107791247Y-126776148D01*
X107791247Y-127018732D01*
X107806453Y-127134226D01*
X107822910Y-127259227D01*
X107822911Y-127259229D01*
X107885692Y-127493536D01*
X107978527Y-127717656D01*
X107978528Y-127717657D01*
X108099811Y-127927725D01*
X108247477Y-128120168D01*
X108247482Y-128120174D01*
X108419005Y-128291697D01*
X108419011Y-128291702D01*
X108611460Y-128439373D01*
X108746476Y-128517325D01*
X108821529Y-128560657D01*
X108821534Y-128560659D01*
X108821537Y-128560661D01*
X109045648Y-128653491D01*
X109230439Y-128703005D01*
X109290099Y-128739370D01*
X109320628Y-128802217D01*
X109322293Y-128826385D01*
X109319898Y-128908697D01*
X109355352Y-129080397D01*
X109397626Y-129174607D01*
X109397630Y-129174615D01*
X109597611Y-129520992D01*
X109597612Y-129520992D01*
X110497163Y-129001638D01*
X110525000Y-128985566D01*
X110525000Y-129062535D01*
X110557370Y-129183343D01*
X110619905Y-129291657D01*
X110708343Y-129380095D01*
X110774997Y-129418577D01*
X109847612Y-129954004D01*
X109847612Y-129954005D01*
X110047600Y-130300394D01*
X110108046Y-130384103D01*
X110108049Y-130384107D01*
X110239020Y-130500661D01*
X110393346Y-130583873D01*
X110562692Y-130629249D01*
X110737945Y-130634348D01*
X110909644Y-130598894D01*
X111003838Y-130556628D01*
X111003853Y-130556620D01*
X111458492Y-130294133D01*
X111458492Y-130294132D01*
X110985566Y-129475000D01*
X111062535Y-129475000D01*
X111183343Y-129442630D01*
X111291657Y-129380095D01*
X111380095Y-129291657D01*
X111418578Y-129225001D01*
X111891504Y-130044132D01*
X111891505Y-130044132D01*
X112346145Y-129781646D01*
X112429858Y-129721198D01*
X112429860Y-129721197D01*
X112546414Y-129590226D01*
X112629626Y-129435900D01*
X112675002Y-129266554D01*
X112680101Y-129091301D01*
X112644647Y-128919602D01*
X112602373Y-128825392D01*
X112602369Y-128825384D01*
X112402387Y-128479006D01*
X112402386Y-128479006D01*
X111475000Y-129014431D01*
X111475000Y-128937465D01*
X111442630Y-128816657D01*
X111380095Y-128708343D01*
X111291657Y-128619905D01*
X111225000Y-128581420D01*
X112152386Y-128045994D01*
X112152386Y-128045993D01*
X111952399Y-127699605D01*
X111891953Y-127615896D01*
X111891950Y-127615892D01*
X111760979Y-127499338D01*
X111688499Y-127460257D01*
X111638833Y-127411113D01*
X111623621Y-127342920D01*
X111627573Y-127319025D01*
X111677091Y-127134224D01*
X111708754Y-126893723D01*
X111708753Y-126651147D01*
X111677090Y-126410645D01*
X111614307Y-126176334D01*
X111521477Y-125952223D01*
X111521475Y-125952220D01*
X111521473Y-125952215D01*
X111478141Y-125877162D01*
X111400189Y-125742146D01*
X111252518Y-125549697D01*
X111252517Y-125549696D01*
X111080995Y-125378174D01*
X111080988Y-125378168D01*
X110888539Y-125230498D01*
X110678470Y-125109214D01*
X110678459Y-125109209D01*
X110510511Y-125039643D01*
X110456108Y-124995802D01*
X110434043Y-124929508D01*
X110435025Y-124908896D01*
X110458753Y-124728667D01*
X110458754Y-124728660D01*
X110458753Y-124486084D01*
X110427090Y-124245582D01*
X110364307Y-124011271D01*
X110271477Y-123787160D01*
X110271475Y-123787157D01*
X110271473Y-123787152D01*
X110228141Y-123712099D01*
X110150189Y-123577083D01*
X110002518Y-123384634D01*
X109955987Y-123338103D01*
X109830995Y-123213111D01*
X109830988Y-123213105D01*
X109638539Y-123065435D01*
X109428470Y-122944151D01*
X109428454Y-122944143D01*
X109204350Y-122851317D01*
X109087197Y-122819926D01*
X108970042Y-122788535D01*
X108970036Y-122788534D01*
X108970031Y-122788533D01*
X108729541Y-122756873D01*
X108729540Y-122756873D01*
X108486964Y-122756873D01*
X108486956Y-122756873D01*
X108258041Y-122787011D01*
X108246463Y-122788536D01*
X108168359Y-122809463D01*
X108012157Y-122851317D01*
X108012143Y-122851322D01*
X107788044Y-122944147D01*
X107788033Y-122944152D01*
X107361464Y-123190433D01*
X107361448Y-123190444D01*
X107169014Y-123338103D01*
X107169008Y-123338108D01*
X106997485Y-123509631D01*
X106997479Y-123509638D01*
X106849813Y-123702081D01*
X106728525Y-123912155D01*
X106728520Y-123912166D01*
X106635695Y-124136264D01*
X106635692Y-124136274D01*
X106572910Y-124370582D01*
X106572907Y-124370595D01*
X106541247Y-124611085D01*
X100202518Y-124611085D01*
X100026790Y-124089542D01*
X100025763Y-124086352D01*
X100002710Y-124011271D01*
X99609417Y-122730386D01*
X99608479Y-122727177D01*
X99545542Y-122500500D01*
X99229014Y-121360467D01*
X99228159Y-121357219D01*
X98885833Y-119980695D01*
X98885067Y-119977425D01*
X98580136Y-118592110D01*
X98579479Y-118588920D01*
X98312164Y-117195809D01*
X98311597Y-117192624D01*
X98082113Y-115792828D01*
X98081617Y-115789526D01*
X98067070Y-115682754D01*
X97890120Y-114384018D01*
X97889721Y-114380758D01*
X97736358Y-112970611D01*
X97736042Y-112967281D01*
X97626329Y-111619909D01*
X97620920Y-111553477D01*
X97620698Y-111550212D01*
X97543905Y-110133845D01*
X97543769Y-110130499D01*
X97505358Y-108712553D01*
X97505313Y-108709195D01*
X97505313Y-107290804D01*
X97505358Y-107287446D01*
X97531640Y-106317246D01*
X97543769Y-105869487D01*
X97543906Y-105866145D01*
X97552490Y-105707820D01*
X97620699Y-104449782D01*
X97620919Y-104446527D01*
X97736043Y-103032698D01*
X97736360Y-103029375D01*
X97797588Y-102466391D01*
X97889722Y-101619232D01*
X97890119Y-101615990D01*
X98081621Y-100210443D01*
X98082116Y-100207152D01*
X98106314Y-100059551D01*
X98311600Y-98807362D01*
X98312161Y-98804203D01*
X98579482Y-97411064D01*
X98580132Y-97407903D01*
X98885073Y-96022548D01*
X98885833Y-96019304D01*
X99155709Y-94934108D01*
X136499500Y-94934108D01*
X136499500Y-102065891D01*
X136533608Y-102193187D01*
X136566554Y-102250250D01*
X136599500Y-102307314D01*
X136692686Y-102400500D01*
X136806814Y-102466392D01*
X136934108Y-102500500D01*
X140375500Y-102500500D01*
X140442539Y-102520185D01*
X140488294Y-102572989D01*
X140499500Y-102624500D01*
X140499500Y-104461773D01*
X140479815Y-104528812D01*
X140427011Y-104574567D01*
X140357853Y-104584511D01*
X140294297Y-104555486D01*
X140257570Y-104500094D01*
X140251557Y-104481588D01*
X140155051Y-104292184D01*
X140155049Y-104292181D01*
X140155048Y-104292179D01*
X140030109Y-104120213D01*
X139879786Y-103969890D01*
X139707820Y-103844951D01*
X139518414Y-103748444D01*
X139518413Y-103748443D01*
X139518412Y-103748443D01*
X139316243Y-103682754D01*
X139316241Y-103682753D01*
X139316240Y-103682753D01*
X139154957Y-103657208D01*
X139106287Y-103649500D01*
X138893713Y-103649500D01*
X138845042Y-103657208D01*
X138683760Y-103682753D01*
X138481585Y-103748444D01*
X138292179Y-103844951D01*
X138120213Y-103969890D01*
X137969890Y-104120213D01*
X137844951Y-104292179D01*
X137748444Y-104481585D01*
X137682753Y-104683760D01*
X137649500Y-104893713D01*
X137649500Y-105106287D01*
X137682754Y-105316243D01*
X137734075Y-105474193D01*
X137748444Y-105518414D01*
X137844951Y-105707820D01*
X137969890Y-105879786D01*
X138120213Y-106030109D01*
X138292179Y-106155048D01*
X138292181Y-106155049D01*
X138292184Y-106155051D01*
X138481588Y-106251557D01*
X138683757Y-106317246D01*
X138893713Y-106350500D01*
X138893714Y-106350500D01*
X139106286Y-106350500D01*
X139106287Y-106350500D01*
X139316243Y-106317246D01*
X139518412Y-106251557D01*
X139707816Y-106155051D01*
X139729789Y-106139086D01*
X139879786Y-106030109D01*
X139879788Y-106030106D01*
X139879792Y-106030104D01*
X140030104Y-105879792D01*
X140030106Y-105879788D01*
X140030109Y-105879786D01*
X140155048Y-105707820D01*
X140155047Y-105707820D01*
X140155051Y-105707816D01*
X140251557Y-105518412D01*
X140257569Y-105499907D01*
X140297006Y-105442232D01*
X140361365Y-105415034D01*
X140430211Y-105426949D01*
X140481687Y-105474193D01*
X140499500Y-105538226D01*
X140499500Y-116461773D01*
X140479815Y-116528812D01*
X140427011Y-116574567D01*
X140357853Y-116584511D01*
X140294297Y-116555486D01*
X140257570Y-116500094D01*
X140251557Y-116481588D01*
X140155051Y-116292184D01*
X140155049Y-116292181D01*
X140155048Y-116292179D01*
X140030109Y-116120213D01*
X139879786Y-115969890D01*
X139707820Y-115844951D01*
X139518414Y-115748444D01*
X139518413Y-115748443D01*
X139518412Y-115748443D01*
X139316243Y-115682754D01*
X139316241Y-115682753D01*
X139316240Y-115682753D01*
X139154957Y-115657208D01*
X139106287Y-115649500D01*
X138893713Y-115649500D01*
X138845042Y-115657208D01*
X138683760Y-115682753D01*
X138481585Y-115748444D01*
X138292179Y-115844951D01*
X138120213Y-115969890D01*
X137969890Y-116120213D01*
X137844951Y-116292179D01*
X137748444Y-116481585D01*
X137682753Y-116683760D01*
X137649500Y-116893713D01*
X137649500Y-117106287D01*
X137682754Y-117316243D01*
X137734075Y-117474193D01*
X137748444Y-117518414D01*
X137844951Y-117707820D01*
X137969890Y-117879786D01*
X138120213Y-118030109D01*
X138292179Y-118155048D01*
X138292181Y-118155049D01*
X138292184Y-118155051D01*
X138481588Y-118251557D01*
X138683757Y-118317246D01*
X138893713Y-118350500D01*
X138893714Y-118350500D01*
X139106286Y-118350500D01*
X139106287Y-118350500D01*
X139316243Y-118317246D01*
X139518412Y-118251557D01*
X139707816Y-118155051D01*
X139729789Y-118139086D01*
X139879786Y-118030109D01*
X139879788Y-118030106D01*
X139879792Y-118030104D01*
X140030104Y-117879792D01*
X140030106Y-117879788D01*
X140030109Y-117879786D01*
X140155048Y-117707820D01*
X140155047Y-117707820D01*
X140155051Y-117707816D01*
X140251557Y-117518412D01*
X140257569Y-117499907D01*
X140297006Y-117442232D01*
X140361365Y-117415034D01*
X140430211Y-117426949D01*
X140481687Y-117474193D01*
X140499500Y-117538226D01*
X140499500Y-122065891D01*
X140533608Y-122193187D01*
X140566554Y-122250250D01*
X140599500Y-122307314D01*
X140692686Y-122400500D01*
X140806814Y-122466392D01*
X140934108Y-122500500D01*
X140934110Y-122500500D01*
X158065890Y-122500500D01*
X158065892Y-122500500D01*
X158193186Y-122466392D01*
X158307314Y-122400500D01*
X158400500Y-122307314D01*
X158466392Y-122193186D01*
X158500500Y-122065892D01*
X158500500Y-117538226D01*
X158520185Y-117471187D01*
X158572989Y-117425432D01*
X158642147Y-117415488D01*
X158705703Y-117444513D01*
X158742431Y-117499908D01*
X158748444Y-117518414D01*
X158844951Y-117707820D01*
X158969890Y-117879786D01*
X159120213Y-118030109D01*
X159292179Y-118155048D01*
X159292181Y-118155049D01*
X159292184Y-118155051D01*
X159481588Y-118251557D01*
X159683757Y-118317246D01*
X159893713Y-118350500D01*
X159893714Y-118350500D01*
X160106286Y-118350500D01*
X160106287Y-118350500D01*
X160316243Y-118317246D01*
X160518412Y-118251557D01*
X160707816Y-118155051D01*
X160729789Y-118139086D01*
X160879786Y-118030109D01*
X160879788Y-118030106D01*
X160879792Y-118030104D01*
X161030104Y-117879792D01*
X161030106Y-117879788D01*
X161030109Y-117879786D01*
X161155048Y-117707820D01*
X161155047Y-117707820D01*
X161155051Y-117707816D01*
X161251557Y-117518412D01*
X161317246Y-117316243D01*
X161350500Y-117106287D01*
X161350500Y-116893713D01*
X161317246Y-116683757D01*
X161251557Y-116481588D01*
X161155051Y-116292184D01*
X161155049Y-116292181D01*
X161155048Y-116292179D01*
X161030109Y-116120213D01*
X160879786Y-115969890D01*
X160707820Y-115844951D01*
X160518414Y-115748444D01*
X160518413Y-115748443D01*
X160518412Y-115748443D01*
X160316243Y-115682754D01*
X160316241Y-115682753D01*
X160316240Y-115682753D01*
X160154957Y-115657208D01*
X160106287Y-115649500D01*
X159893713Y-115649500D01*
X159845042Y-115657208D01*
X159683760Y-115682753D01*
X159481585Y-115748444D01*
X159292179Y-115844951D01*
X159120213Y-115969890D01*
X158969890Y-116120213D01*
X158844951Y-116292179D01*
X158748445Y-116481582D01*
X158748443Y-116481587D01*
X158748443Y-116481588D01*
X158742429Y-116500094D01*
X158702992Y-116557768D01*
X158638633Y-116584965D01*
X158569787Y-116573050D01*
X158518312Y-116525805D01*
X158500500Y-116461773D01*
X158500500Y-105538226D01*
X158520185Y-105471187D01*
X158572989Y-105425432D01*
X158642147Y-105415488D01*
X158705703Y-105444513D01*
X158742431Y-105499908D01*
X158748444Y-105518414D01*
X158844951Y-105707820D01*
X158969890Y-105879786D01*
X159120213Y-106030109D01*
X159292179Y-106155048D01*
X159292181Y-106155049D01*
X159292184Y-106155051D01*
X159481588Y-106251557D01*
X159683757Y-106317246D01*
X159893713Y-106350500D01*
X159893714Y-106350500D01*
X160106286Y-106350500D01*
X160106287Y-106350500D01*
X160316243Y-106317246D01*
X160518412Y-106251557D01*
X160707816Y-106155051D01*
X160729789Y-106139086D01*
X160879786Y-106030109D01*
X160879788Y-106030106D01*
X160879792Y-106030104D01*
X161030104Y-105879792D01*
X161030106Y-105879788D01*
X161030109Y-105879786D01*
X161155048Y-105707820D01*
X161155047Y-105707820D01*
X161155051Y-105707816D01*
X161251557Y-105518412D01*
X161317246Y-105316243D01*
X161350500Y-105106287D01*
X161350500Y-104893713D01*
X161317246Y-104683757D01*
X161251557Y-104481588D01*
X161155051Y-104292184D01*
X161155049Y-104292181D01*
X161155048Y-104292179D01*
X161030109Y-104120213D01*
X160879786Y-103969890D01*
X160707820Y-103844951D01*
X160518414Y-103748444D01*
X160518413Y-103748443D01*
X160518412Y-103748443D01*
X160316243Y-103682754D01*
X160316241Y-103682753D01*
X160316240Y-103682753D01*
X160154957Y-103657208D01*
X160106287Y-103649500D01*
X159893713Y-103649500D01*
X159845042Y-103657208D01*
X159683760Y-103682753D01*
X159481585Y-103748444D01*
X159292179Y-103844951D01*
X159120213Y-103969890D01*
X158969890Y-104120213D01*
X158844951Y-104292179D01*
X158748445Y-104481582D01*
X158748443Y-104481587D01*
X158748443Y-104481588D01*
X158742429Y-104500094D01*
X158702992Y-104557768D01*
X158638633Y-104584965D01*
X158569787Y-104573050D01*
X158518312Y-104525805D01*
X158500500Y-104461773D01*
X158500500Y-102624500D01*
X158520185Y-102557461D01*
X158572989Y-102511706D01*
X158624500Y-102500500D01*
X162065890Y-102500500D01*
X162065892Y-102500500D01*
X162193186Y-102466392D01*
X162307314Y-102400500D01*
X162400500Y-102307314D01*
X162466392Y-102193186D01*
X162500500Y-102065892D01*
X162500500Y-94934108D01*
X162466392Y-94806814D01*
X162400500Y-94692686D01*
X162307314Y-94599500D01*
X162250250Y-94566554D01*
X162193187Y-94533608D01*
X162129539Y-94516554D01*
X162065892Y-94499500D01*
X137065892Y-94499500D01*
X136934108Y-94499500D01*
X136806812Y-94533608D01*
X136692686Y-94599500D01*
X136692683Y-94599502D01*
X136599502Y-94692683D01*
X136599500Y-94692686D01*
X136533608Y-94806812D01*
X136499500Y-94934108D01*
X99155709Y-94934108D01*
X99228161Y-94642771D01*
X99229014Y-94639532D01*
X99608479Y-93272822D01*
X99609411Y-93269633D01*
X100025771Y-91913619D01*
X100026792Y-91910451D01*
X100479692Y-90566292D01*
X100480807Y-90563124D01*
X100969968Y-89231643D01*
X100971143Y-89228575D01*
X101496182Y-87910825D01*
X101497422Y-87907831D01*
X102057984Y-86604711D01*
X102059305Y-86601751D01*
X102654910Y-85314375D01*
X102656348Y-85311374D01*
X102871196Y-84878173D01*
X103286613Y-84040560D01*
X103288082Y-84037696D01*
X103952545Y-82784387D01*
X103954098Y-82781550D01*
X104652240Y-81546724D01*
X104653881Y-81543909D01*
X105385200Y-80328447D01*
X105386964Y-80325605D01*
X106150879Y-79130471D01*
X106152726Y-79127666D01*
X106948723Y-77953658D01*
X106950645Y-77950904D01*
X107763807Y-76818838D01*
X107778151Y-76798868D01*
X107780105Y-76796222D01*
X108638587Y-75666909D01*
X108640606Y-75664328D01*
X109272102Y-74878711D01*
X112149500Y-74878711D01*
X112149500Y-75121288D01*
X112181161Y-75361785D01*
X112243947Y-75596104D01*
X112272747Y-75665633D01*
X112336776Y-75820212D01*
X112458064Y-76030289D01*
X112458066Y-76030292D01*
X112458067Y-76030293D01*
X112605733Y-76222736D01*
X112605739Y-76222743D01*
X112777256Y-76394260D01*
X112777262Y-76394265D01*
X112969711Y-76541936D01*
X113179788Y-76663224D01*
X113403900Y-76756054D01*
X113638211Y-76818838D01*
X113818586Y-76842584D01*
X113878711Y-76850500D01*
X113878712Y-76850500D01*
X114121289Y-76850500D01*
X114169388Y-76844167D01*
X114361789Y-76818838D01*
X114596100Y-76756054D01*
X114820212Y-76663224D01*
X115030289Y-76541936D01*
X115222738Y-76394265D01*
X115394265Y-76222738D01*
X115541936Y-76030289D01*
X115663224Y-75820212D01*
X115756054Y-75596100D01*
X115818838Y-75361789D01*
X115850500Y-75121288D01*
X115850500Y-74878712D01*
X115850500Y-74878711D01*
X183149500Y-74878711D01*
X183149500Y-75121288D01*
X183181161Y-75361785D01*
X183243947Y-75596104D01*
X183272747Y-75665633D01*
X183336776Y-75820212D01*
X183458064Y-76030289D01*
X183458066Y-76030292D01*
X183458067Y-76030293D01*
X183605733Y-76222736D01*
X183605739Y-76222743D01*
X183777256Y-76394260D01*
X183777262Y-76394265D01*
X183969711Y-76541936D01*
X184179788Y-76663224D01*
X184403900Y-76756054D01*
X184638211Y-76818838D01*
X184818586Y-76842584D01*
X184878711Y-76850500D01*
X184878712Y-76850500D01*
X185121289Y-76850500D01*
X185169388Y-76844167D01*
X185361789Y-76818838D01*
X185596100Y-76756054D01*
X185820212Y-76663224D01*
X186030289Y-76541936D01*
X186222738Y-76394265D01*
X186394265Y-76222738D01*
X186541936Y-76030289D01*
X186663224Y-75820212D01*
X186756054Y-75596100D01*
X186818838Y-75361789D01*
X186850500Y-75121288D01*
X186850500Y-74878712D01*
X186818838Y-74638211D01*
X186756054Y-74403900D01*
X186663224Y-74179788D01*
X186541936Y-73969711D01*
X186394265Y-73777262D01*
X186394260Y-73777256D01*
X186222743Y-73605739D01*
X186222736Y-73605733D01*
X186030293Y-73458067D01*
X186030292Y-73458066D01*
X186030289Y-73458064D01*
X185820212Y-73336776D01*
X185820205Y-73336773D01*
X185596104Y-73243947D01*
X185361785Y-73181161D01*
X185121289Y-73149500D01*
X185121288Y-73149500D01*
X184878712Y-73149500D01*
X184878711Y-73149500D01*
X184638214Y-73181161D01*
X184403895Y-73243947D01*
X184179794Y-73336773D01*
X184179785Y-73336777D01*
X183969706Y-73458067D01*
X183777263Y-73605733D01*
X183777256Y-73605739D01*
X183605739Y-73777256D01*
X183605733Y-73777263D01*
X183458067Y-73969706D01*
X183336777Y-74179785D01*
X183336773Y-74179794D01*
X183243947Y-74403895D01*
X183181161Y-74638214D01*
X183149500Y-74878711D01*
X115850500Y-74878711D01*
X115818838Y-74638211D01*
X115756054Y-74403900D01*
X115663224Y-74179788D01*
X115541936Y-73969711D01*
X115394265Y-73777262D01*
X115394260Y-73777256D01*
X115222743Y-73605739D01*
X115222736Y-73605733D01*
X115030293Y-73458067D01*
X115030292Y-73458066D01*
X115030289Y-73458064D01*
X114820212Y-73336776D01*
X114820205Y-73336773D01*
X114596104Y-73243947D01*
X114361785Y-73181161D01*
X114121289Y-73149500D01*
X114121288Y-73149500D01*
X113878712Y-73149500D01*
X113878711Y-73149500D01*
X113638214Y-73181161D01*
X113403895Y-73243947D01*
X113179794Y-73336773D01*
X113179785Y-73336777D01*
X112969706Y-73458067D01*
X112777263Y-73605733D01*
X112777256Y-73605739D01*
X112605739Y-73777256D01*
X112605733Y-73777263D01*
X112458067Y-73969706D01*
X112336777Y-74179785D01*
X112336773Y-74179794D01*
X112243947Y-74403895D01*
X112181161Y-74638214D01*
X112149500Y-74878711D01*
X109272102Y-74878711D01*
X109529316Y-74558723D01*
X109531341Y-74556272D01*
X110449728Y-73475064D01*
X110451809Y-73472680D01*
X111399134Y-72416740D01*
X111401357Y-72414329D01*
X112376860Y-71384503D01*
X112379129Y-71382172D01*
X113382172Y-70379129D01*
X113384503Y-70376860D01*
X114414329Y-69401357D01*
X114416740Y-69399134D01*
X115472680Y-68451809D01*
X115475064Y-68449728D01*
X116556272Y-67531341D01*
X116558723Y-67529316D01*
X117664328Y-66640606D01*
X117666909Y-66638587D01*
X118796222Y-65780105D01*
X118798868Y-65778151D01*
X119950912Y-64950639D01*
X119953658Y-64948723D01*
X121127690Y-64152709D01*
X121130446Y-64150894D01*
X122325615Y-63386957D01*
X122328458Y-63385194D01*
X122450711Y-63311637D01*
X123543909Y-62653881D01*
X123546724Y-62652240D01*
X124781550Y-61954098D01*
X124784387Y-61952545D01*
X126037696Y-61288082D01*
X126040560Y-61286613D01*
X127311401Y-60656334D01*
X127314375Y-60654910D01*
X128601751Y-60059305D01*
X128604711Y-60057984D01*
X129907831Y-59497422D01*
X129910825Y-59496182D01*
X131228575Y-58971143D01*
X131231643Y-58969968D01*
X132563138Y-58480802D01*
X132566277Y-58479696D01*
X133910478Y-58026783D01*
X133913619Y-58025771D01*
X135269633Y-57609411D01*
X135272788Y-57608488D01*
X136639540Y-57229011D01*
X136642780Y-57228159D01*
X138019330Y-56885826D01*
X138022548Y-56885073D01*
X139407903Y-56580132D01*
X139411064Y-56579482D01*
X140804203Y-56312161D01*
X140807362Y-56311600D01*
X142207182Y-56082111D01*
X142210443Y-56081621D01*
X143615990Y-55890119D01*
X143619232Y-55889722D01*
X145029395Y-55736358D01*
X145032698Y-55736043D01*
X146446527Y-55620919D01*
X146449782Y-55620699D01*
X147866157Y-55543905D01*
X147869487Y-55543769D01*
X149287447Y-55505358D01*
X149290805Y-55505313D01*
X150709195Y-55505313D01*
X150712553Y-55505358D01*
G37*
%TD.AperFunction*%
%TD*%
M02*
